<?xml version="1.0" encoding="utf-8"?>
<!-- Generator: Adobe Illustrator 22.0.1, SVG Export Plug-In . SVG Version: 6.00 Build 0)  -->
<svg version="1.1" id="Layer_1" xmlns="http://www.w3.org/2000/svg" xmlns:xlink="http://www.w3.org/1999/xlink" x="0px" y="0px"
	 viewBox="0 0 1000 1000" style="enable-background:new 0 0 1000 1000;" xml:space="preserve">
<style type="text/css">
	.st0{fill:#FFFFFF;}
</style>
<g>
	<g id="XMLID_1_">
		<g>
			<path d="M520,280.2c0,0.4,0,0.9-0.5,0.9c-0.5,0-0.7-0.9-0.2-1.1C519.5,279.8,519.9,279.9,520,280.2z"/>
			<path d="M516.2,258c1-0.7,2.1,0.4,2.2,1.6c-0.7,1-1.1,0.3-1.9,0C516.3,259.1,517.2,258.1,516.2,258z"/>
			<path d="M516.5,276.3c0-0.1-0.1-0.3-0.2-0.1c0,0-0.1,0.1-0.2,0.1c0.1-0.1,0.2-0.3,0.3-0.5c-0.4-0.4,0.1-1,0.4-1.4
				c1.6-0.4,0.5,1.7,1.5,2.2l-0.8,0.7c-0.5-0.1-0.9-0.6-1.1-1L516.5,276.3z"/>
			<path d="M516.1,276.4c0,0-0.1,0.1-0.1,0.1C516,276.4,516,276.4,516.1,276.4z"/>
			<path d="M515.9,276.5C515.9,276.5,515.9,276.5,515.9,276.5C515.9,276.5,515.9,276.5,515.9,276.5z"/>
			<path d="M515,275.5l-0.1,0.1l0,0C514.9,275.5,514.9,275.5,515,275.5z"/>
			<path d="M514.2,325.5c0.6,0.8,0.1,1.2,0,2c-0.3,0.1-1,0.4-0.7-0.3c0-0.3,0.1-0.5-0.1-0.8c0,0-0.1,0-0.1,0
				C513.3,326,513.7,325.6,514.2,325.5z"/>
			<path d="M513.9,233.1c-0.7,0-1.7,0-1.6-1c-0.1-0.5-0.1-1.1,0.5-1.2c0.5-0.1,0.7,0.6,1.2,0.4C513.2,231.8,514.4,232.4,513.9,233.1
				z"/>
			<path d="M513.2,326.5C513.2,326.5,513.2,326.5,513.2,326.5C513.2,326.5,513.2,326.5,513.2,326.5
				C513.2,326.5,513.2,326.5,513.2,326.5z"/>
			<path d="M512.4,243c0-0.1,0.1-0.1,0.3-0.2C512.7,242.8,512.6,242.9,512.4,243z"/>
			<path d="M512,270.8c-0.1-0.1,0.1-0.6-0.2-0.5c0.4-0.2-0.3-0.6,0.4-0.6L512,270.8z"/>
			<path d="M511,266.2c0.4,0.6,1.4,1.1,0.8,1.9l-0.4,0.2h0.6v1l-0.7-0.1c0.9,0.1-0.1-0.4,0.6-0.4h-1.4c0.4-0.6-0.4-1.1,0.4-1.5
				c-0.5-0.2-1.1,0.3-1.1,0.8C509.7,266.9,510.3,266.7,511,266.2z"/>
			<polygon points="510.8,327.5 510.6,327.8 510.3,327.5 			"/>
			<path d="M510.3,300.5c0.8,0.3,0.3,0.6,0.6,1.1c-0.1-0.2-0.4-0.1-0.6-0.1V300.5z"/>
			<path d="M510.1,219c0.5-0.5-0.5-1.2,0.4-1.7c1,0,1.2,0.8,1.9,1.4l0.2,1.2C511.7,220.8,510.8,219.1,510.1,219z"/>
			<path d="M510.5,207.3c0.3,0.4-0.3,0.7-0.6,0.9c-0.6,0.3-0.9-0.2-1.1-0.7C508.6,206.3,510.2,206.4,510.5,207.3z"/>
			<path d="M510.5,329.7c-0.3-0.2-0.6-0.2-0.7-0.6l0.2-0.6c0.1,0.3,0.4,0.6,0.1,0.8C510.5,329,510.5,329.5,510.5,329.7z"/>
			<path d="M510.1,328.2l-0.1,0.3C509.9,328.4,509.9,328.3,510.1,328.2z"/>
			<path d="M509.9,331.4c1-0.3-0.5-1.1,0-1.6c-0.1,0.7,1.4,1.1,0.4,1.7L509.9,331.4z"/>
			<path d="M508.1,215.1c-0.8-1.2-1.2-3.1-0.1-4.2c1.1,0.4,1.4-0.4,1.6,0.7l-0.3,0.3c0.8,0.5,1.5,1.2,1.1,2.2
				C509.9,214.6,509,214.8,508.1,215.1z"/>
			<path d="M509.5,204.2c0.1,0.3-0.3,0.7-0.6,0.9c-0.1-0.3-0.4-0.1-0.6-0.1C508.2,204.2,508.9,204.1,509.5,204.2z"/>
			<path d="M506.8,222.9c-0.5-0.5,0-1.6-1-1.9l1.4-1c0,0.5,0.7,0.4,1,0.1c1,1.5,2.4,2.2,1.7,4.2
				C508.6,224.4,508.1,223.1,506.8,222.9z"/>
			<path d="M508.1,239.5C508,239.8,507.5,239.7,508.1,239.5L508.1,239.5z"/>
			<path d="M507.3,228.7c-0.3-0.3-0.7-0.6-0.4-1c0.4,0,0.6,0.1,0.7,0.4v0.3C507.5,228.3,507.4,228.6,507.3,228.7z"/>
			<path d="M504.2,199l0.2,0.3c0.3,0.1-0.6,0.4-0.7,0.5c0.3-0.4-0.1-0.8-0.5-1.1l0.3,0.1c0.3-0.1,0.1-0.5,0.1-0.8l0.4,0.5
				c0.4-0.6,1.1-1.9,1.7-0.7l-0.7,0.2l0.1,0.5L504.2,199z"/>
			<path d="M503.7,188.9h0.5c-0.3,0.2-0.1,0.7-0.3,1.1h-0.1L503.7,188.9z"/>
			<path d="M503.8,208.1c0,0.1,0,0.1-0.1,0.1c0,0,0,0,0,0L503.8,208.1z"/>
			<path d="M502.2,357.9c-0.1,0-0.2,0-0.2-0.1C502,357.9,502.1,357.9,502.2,357.9z"/>
			<path d="M500.7,220.8h0.1C500.8,220.8,500.7,220.8,500.7,220.8C500.7,220.8,500.7,220.8,500.7,220.8z"/>
			<path d="M499.5,198.6c0,0.1,0,1.4-1,0.9c-0.1-0.5-0.4-0.6-0.5-1.2l1-0.3c0,0.3,0.2,0.5,0.4,0.6H499.5z"/>
			<path d="M486.8,237.6c0.6-0.6-1.5-1.7-0.1-2.2l-0.1-0.5h0.1l-0.3-0.7c0.4-0.1,0.6,0.1,0.8,0.5c-0.1-0.1-0.3,0-0.4,0.1
				c0.4,0.5,0.9,0.1,1.1,0.7c0,0.1-1.2-1.2-1.1,0.1c-0.2,0.9,1,0.5,0.6,1.4l-0.2-0.4c-0.3,0.1-0.1,0.5-0.1,0.6l0.4,0.4H486.8
				C486.8,237.7,486.8,237.6,486.8,237.6z"/>
			<path d="M486.5,237.7l0.3,0C486.7,237.7,486.5,237.7,486.5,237.7z"/>
			<path d="M476,315.2C476,315.2,476,315.2,476,315.2L476,315.2z"/>
			<path d="M474.5,214.7l0.2-0.1C474.6,214.7,474.5,214.7,474.5,214.7z"/>
			<path d="M444.4,164.1l-0.4-0.2C444.1,163.9,444.3,163.9,444.4,164.1z"/>
			<path d="M443.4,150.2c0.7,0.3,0,0.5,0.7,0.9h0.4l-0.3,0.6c0-0.9-1.2,0.1-1.6-0.9L443.4,150.2z"/>
			<path d="M443.6,162.8C443.6,162.9,443.6,162.9,443.6,162.8c0,0.1-0.1,0.1-0.1,0.1L443.6,162.8z"/>
			<path d="M438.8,152.6l-0.4-0.3l-0.1,0.1c-0.5-0.3-0.7-0.7-1-1.4c1.2-0.5,0.1,1.2,1.2,0.6C438.7,151.9,438.5,152.3,438.8,152.6z"
				/>
			<path d="M437.8,383.9c-0.1,0.1-0.2,0.3-0.3,0.4C437.5,384.1,437.7,384,437.8,383.9z"/>
			<polygon points="436.3,149.6 436.2,150.3 436,149.6 			"/>
			<polygon points="428.1,145.1 428.4,145 428,145.3 427.9,144.8 			"/>
			<path d="M427.6,149.5c0.4,0,0.5,0.5,0.4,0.9c-0.3,0.5-0.6,0-0.9-0.2L427.6,149.5z"/>
			<path d="M421.2,133.6l0.2,0.4c0,0.5-0.4-0.1-0.5-0.1L421.2,133.6z"/>
			<path d="M418.3,139.2c1.1,0.1,2.4,1.1,3.1,0.8c-0.5,1.1,1.2,1.2,1.6,1.9c1.4-0.2,1.9,1,3,0.8c0.5,0.1,1.4,1,1.1,1.6
				c-0.3,0.9,0.9,0.8,0.6,1.5l0.9,1l-0.4,0.4c0.1-0.1,0.2-0.1,0.3-0.1l0,0.3c-0.1,0.4-0.7,0.7-0.5,1.2c-0.6,1-2,0.5-3,0.4l0.1-0.3
				c-1-0.3-1.5-1.5-2.6-1.1c0.7-1.1-0.3-2.6-0.1-3.8c-0.6-0.5-1.1-1.4-1.9-1.4h-0.4c-0.4-0.5-2.4-1.1-2.2-2.4L418.3,139.2z"/>
			<path d="M419.6,131c0.1,0.4-0.4,0.5-0.6,0.6c-0.3-0.1-0.5-0.5-0.1-0.7C419,131.1,419.4,131,419.6,131z"/>
			<path d="M418.4,132.6c0.7,0.6,0.6-0.5,1.2,0.4c0-0.4,0.4-0.7-0.1-1.1c0.6-0.1,1,1.6,1.5,1.1c0.3,0-0.5,0.9-1.1,0.6h-0.6l0.2-0.6
				l-0.7,0.1c0-0.6-0.5,0.3-0.5-0.3L418.4,132.6z"/>
			<path d="M418.5,132.5l-0.1,0.1c0,0,0,0,0,0L418.5,132.5z"/>
			<path d="M412.9,134.7l1.7,2.4c0.2,0.6-0.4,1.5-1,1.5c-1.5-0.9-2.4-1.8-3-3.5C410.9,133.6,412.3,135.4,412.9,134.7z"/>
			<path d="M410.2,131.1c0.1,0.4-0.3,0.5-0.4,0.7c-0.4-0.1-0.7-0.7-0.3-1C410,130.8,410.1,131,410.2,131.1z"/>
			<path d="M403.5,130.6c0.1,0.3-0.1,0.5-0.3,0.7c-1.1-0.5-1.7-0.7-2.8-0.7c-1.1-0.5-0.5-1.7-1-2.5c0.3-0.6,1.2-0.6,1.7-1
				C402.1,128,402.4,129.8,403.5,130.6z"/>
			<path d="M400.5,419.3l0.3,0.3C400.7,419.5,400.6,419.5,400.5,419.3z"/>
			<path d="M395.2,125.9c1.1,0.4,0.3,1.6,0.9,2.1c-0.5,0.6-1.2,0.1-1.7-0.1c-0.4-0.5-0.6-1.2-0.4-2
				C394.4,125.9,394.9,125.7,395.2,125.9z"/>
			<path d="M390,118.9l-2.2-2.1c0.1-0.6,0.9-0.9,1.4-0.6c0.9,0.5,0.6-2.9,1.7-0.9h1.1c0.5,0.3,1.7,0.6,1,1.5l-0.7,0.3
				c0-0.1-0.1-0.1-0.1-0.3c-0.8,1.2,1.6,1,0.4,2.2C391.8,119.8,391,118.1,390,118.9z"/>
			<path d="M388,122.2c0.6,0.5,2.2,0.3,1.9,1.7c-0.6,0.1-1.7,0.9-2-0.4C387.5,123.2,387.3,122.5,388,122.2z"/>
			<path d="M380.2,331.5L380.2,331.5C380.2,331.5,380.2,331.5,380.2,331.5z"/>
			<path class="st0" d="M359.8,108.1c-0.1,0.5-0.6,1.1-1,1.5c-1.2-0.7-3.8-0.7-4.2-2.6c-0.7-1-1.5-1-1.7-2.3c0-1,1.1-0.6,1.6-1
				c0.6,0.4,1.4,0.1,2-0.3c0.7,1.2,2.5,0.1,3.2,1.4c0.5,0,1,0.4,1.2,0.9l0.4-0.5c0.1,0.4,0.5,0.7,0.8,0.7c0.9,0,1,0,1.4,0.5
				c0.3,0.1,0.4,0.5,0.6,0.5c0.5-0.6,1.4,1.1,2,0.1c1.6,0,1,3.1,2.3,1.5c0.4,0.6,1.1,0,1.4,0.9c-0.1,1,0.6,1,1,1.7
				c0.6-0.6,0.5,1.9,1.7,0.8c0,0.5,0.8,0,1.1-0.1c0.9,0.3,0.7,1.4,1.7,0.8c0,1,1.9,1.4,2.2,2.4c0.7-0.5,1.5,1.5,1.9,0.4l0.2,0.4
				l0.5-0.4c0.4,1.2,4,2.3,4.5,5.1c1,0.8,2.1,0.5,2.4,2c-1.9,1.2-3.1-1.6-4.8-1.6c-2-0.1-1.5-3.4-3.1-2.6c-1.2,0.1-1-1-2.1-0.6
				c-0.1-0.6-0.7-0.5-1.5-0.8l-0.4,0.3c-0.5-2.1-2.6-0.4-3.3-2.2c-0.9,1.1-1.9-0.7-3-0.1c-2.7-0.4-3.8-3.8-5.6-4.6
				C363.4,108.5,360.8,109.2,359.8,108.1z"/>
			<path d="M380,315.7c0.1,0,0.1,0.1,0.2,0.2L380,315.7z"/>
			<path d="M374.7,76.8c0.1,0.2,0,0.3,0,0.4C374.6,77.1,374.6,76.9,374.7,76.8z"/>
			<path d="M373,151.4c0.1,0,0.2,0.1,0.1,0.3C373,151.6,373,151.5,373,151.4z"/>
			<path d="M366.8,88.8l0.5,0.3c-0.3,0.3,0.1,0.9-0.3,1.1h-0.1L366.8,88.8z"/>
			<path d="M361.8,78.2c0.2,0.2,0.6,0.3,0.5,0.7C361.9,79,361.9,78.4,361.8,78.2z"/>
			<path d="M361.8,78.2C361.8,78.2,361.8,78.2,361.8,78.2C361.8,78.2,361.8,78.2,361.8,78.2z"/>
			<path d="M358.1,268.3c0.1,0,0.1,0,0,0.2L358.1,268.3z"/>
			<path d="M356.4,248C356.4,248,356.4,248,356.4,248C356.3,248,356.3,248,356.4,248L356.4,248z"/>
			<path d="M355.7,301.9c0.1,0,0.1,0,0.1,0C355.9,301.9,355.8,301.9,355.7,301.9z"/>
			<path d="M351.9,104.4l-0.2,0.3C351.8,104.5,351.8,104.4,351.9,104.4z"/>
			<polygon points="351.4,333.4 351.6,334.5 351.1,333.5 			"/>
			<path d="M350.5,93.3c0.6,0.1,1.1,0.5,1.4,1.1c-0.6,0.1-0.8,1.4-1.5,0.7v-1.2h0.1V93.3z"/>
			<path d="M350.9,105.5c-1.1,0.5-1-1.5-2-0.6c-0.5-0.4-1.6-1.4-0.5-1.7c1.1,0.1,2.5,0.5,3.2,1.6l0.1-0.1
				C351.6,105,351.4,105.6,350.9,105.5z"/>
			<path d="M349.8,349.4c-0.5-0.5-0.3,0.4-0.7,0.4c0.3,0.2,0.9-0.1,0.7,0.5l-1.6,0.3c1.4-0.9-1.1-2.1,1-2.2L349.8,349.4z"/>
			<path d="M346.7,117.3l-0.2,0.2C346.5,117.3,346.6,117.3,346.7,117.3z"/>
			<path d="M346.9,102.8l-0.5,0.5c-0.4-0.1-0.4-0.7,0-0.9C346.7,102.5,347.2,102.4,346.9,102.8z"/>
			<path d="M346.6,148.3c-0.1,0.1-0.2,0.2-0.4,0.3C346.3,148.5,346.4,148.3,346.6,148.3z"/>
			<path d="M345.7,355.4c-0.5,0.1,0-0.9-0.5-1.1C345.8,354.2,345.8,355,345.7,355.4z"/>
			<polygon points="345,372.3 345.2,372.8 344.7,372.3 			"/>
			<path d="M344.6,377.4c-0.4-0.9-0.6-2.7,0.1-3.5l-0.1-0.3c1,0.1,1.4,1.2,1.5,2.2c-0.1,0.5-0.8,0.6-1.1,0.7
				c-0.1,0.1,0.6,1.2-0.1,1.6l0.4,0.3l-0.3-0.1c0,0.1-0.1,0.1-0.1,0.4c0.1,0.1,0.4,0.1,0.5,0.1c-0.6,0.5,0.6,1.4-0.5,1.6v-0.3h-0.6
				V379h0.3c-0.4-0.3,0.1-1.2-0.5-0.9C344.5,377.7,343.9,377.2,344.6,377.4z"/>
			<path d="M341.7,366.2c-0.7-1.6-1.2-3.2-0.1-4.3v-0.5c0.6,0.1,1.4,0.3,1.4,1.1c-0.5,0.7,0.1,0.6,0.1,1.5H343
				c-0.5,0.2,0,0.9,0.2,0.9C342.5,365.1,342.8,366.5,341.7,366.2z"/>
			<path d="M336.8,94.3c-0.1-1.4,1.6-1,1.9-0.4l-0.1,0.1c1.5,0.3,2.4,2.1,4.2,1.4c0.5,0.9,1.1,2.3,1.5,3.3c-1.6,0-2.2-0.7-3.5-1.8
				c-0.2-0.4-0.6-0.3-1-0.3c-0.4,0.9-1.1,0.1-1.6-0.1c0.4-0.9,0.2-1.6-0.8-1.9C337.2,94.7,336.7,94.6,336.8,94.3z"/>
			<path d="M337,245l0.1,0.1l-0.1,0.1C337,245.2,337,245.1,337,245z"/>
			<path d="M329.4,110c0,0-0.1,0.1-0.1,0.1C329.3,110.1,329.3,110,329.4,110z"/>
			<path d="M319.6,244.3c-0.1-0.1-0.2-0.3-0.3-0.3c0.2,0.1,0.3,0.1,0.3,0.2L319.6,244.3z"/>
			<path d="M318.1,211.7C318.2,211.7,318.3,211.7,318.1,211.7L318.1,211.7z"/>
			<path d="M312.1,71.7l0.1,0.5l-0.3-0.5C312,71.8,312.1,71.8,312.1,71.7z"/>
			<path d="M312.1,71.6C312.1,71.6,312.1,71.6,312.1,71.6c0.1,0,0,0.1,0,0.1L312.1,71.6z"/>
			<path d="M310.8,422.3c-0.7-0.1,0.3,0.6-0.5,0.5c0.4-0.3-0.1-0.7,0-1C310.7,421.9,310.7,421.9,310.8,422.3z"/>
			<path d="M310.3,136.8v0.3C310.3,137,310.3,136.9,310.3,136.8C310.3,136.8,310.3,136.8,310.3,136.8z"/>
			<path d="M309.6,70.5l0.1-0.6c0.3,0.5,0.8,0.4,1.1,0.1c0-0.4,0-0.1,0.3-0.5c0,0.4-0.1,0.9,0.1,1.1h0.3V71h0.6l0.1,0.6
				c-0.9,0.3-0.6-1.1-1.4-1.1V71C310.5,70.5,309.8,70.4,309.6,70.5z"/>
			<path d="M308.5,458.6v0.3C308.4,458.7,308.4,458.6,308.5,458.6z"/>
			<path d="M307.5,74.7c0-0.1,0-0.1,0-0.2C307.5,74.6,307.5,74.7,307.5,74.7z"/>
			<path d="M305.9,66.6c0.3,0.1,0.9-0.3,0.5,0.6L305.9,66.6z"/>
			<path d="M305.6,66.3l0.3,0.3C305.7,66.5,305.6,66.5,305.6,66.3z"/>
			<path d="M302.4,460.9c0,0.1-0.1,0.1-0.1,0.2C302.3,461,302.3,461,302.4,460.9z"/>
			<path d="M300.9,200.2c0,0.2,0,0.4-0.1,0.5C300.7,200.6,300.7,200.4,300.9,200.2z"/>
			<path d="M300.9,461.3L300.9,461.3C300.9,461.3,300.9,461.3,300.9,461.3z"/>
			<path d="M294.7,70.8c-0.8-0.9-2.2-1.7-1.9-2.8c1.7,0.5,2.6,1.1,3.1,2.6l-0.2,0.3l0.2,0.4C295.6,71,295.1,70.5,294.7,70.8z"/>
			<path d="M286.7,52.7l0.6-0.4l0.4,0.8c-0.3,0.4-0.5,0.5-0.9,0.5C286.4,53.4,286.4,52.8,286.7,52.7z"/>
			<path d="M282.9,450.1c0.1,0,0.1,0,0.2,0C283,450.1,282.9,450.1,282.9,450.1z"/>
			<path d="M280.7,381.9c0.1,0,0.2-0.1,0.2-0.2c0.1,0.1,0.1,0.2,0.1,0.3C280.9,382.1,280.7,382,280.7,381.9z"/>
			<path d="M280.8,381.3c-0.1,0.2,0.3,0.3,0.2,0.5c-0.1-0.1-0.2-0.2-0.4-0.3L280.8,381.3z"/>
			<path d="M279.1,294h-0.4C278.8,294,279,294,279.1,294z"/>
			<path d="M275,334.9v0.1V334.9C275,334.9,275,334.9,275,334.9z"/>
			<path d="M274.1,343.8c0.1,0,0.2,0.1,0.3,0.1C274.3,343.9,274.2,343.9,274.1,343.8z"/>
			<path d="M273.7,345.3l0.2,0C273.8,345.3,273.8,345.3,273.7,345.3z"/>
			<path class="st0" d="M356.4,248C356.4,248,356.4,248,356.4,248L356.4,248C356.3,248,356.3,248,356.4,248z M351.6,334.5l-0.3-1.1
				l-0.3,0.1L351.6,334.5z M345.7,355.4c0.1-0.5,0.1-1.2-0.5-1.1C345.7,354.6,345.2,355.6,345.7,355.4z M345,372.3h-0.2l0.5,0.5
				L345,372.3z M344,378.1c0.6-0.4,0.1,0.6,0.5,0.9h-0.3v1.2h0.6v0.3c1.1-0.3-0.1-1.1,0.5-1.6c-0.1,0-0.4,0-0.5-0.1
				c0-0.2,0.1-0.2,0.1-0.4l0.3,0.1l-0.4-0.3c0.7-0.4,0-1.5,0.1-1.6c0.4-0.1,1-0.3,1.1-0.7c-0.1-1-0.5-2.1-1.5-2.2l0.1,0.3
				c-0.8,0.7-0.5,2.6-0.1,3.5C343.9,377.2,344.5,377.7,344,378.1z M313.8,396.2c-0.1,1.2,0,1.8-0.1,2.8c0.1,0.5-1,1.4,0,1.7
				l-0.3,0.4c-0.8,0.7,0.3,0.1,0.1,1c-0.1,0.5,0.5,1.5-0.6,1.5l0.4,0.7c-0.2,1.1-0.4,1.5-0.5,2.2c-0.4,1.1,0.1,3.1-0.5,4.1
				c1.1,0.5-0.7,2.2,0.5,3.1l-0.5,0.2c0.8,0.5,0.1,1.1-0.1,1.5h0.4c1-0.7,2.4-2.9,3.1-4.1l0.2,0.3c0.6-0.6,1.5-1.7,1.2-2.7
				c0.1,0,0.1,0.6,0.1,0.3l0.8-1c0.5-1.6,1.2-3.1,2.3-4.6c0.9-0.8,1.9-0.8,3-0.9c0.9,0.1,0.9,1.5,1.9,1.4c0.5-1.4,1.9-2.4,2.7-3.1
				c0.9-1.7,3.1-2.5,3.6-4.3c0.9,0.1,0.7-1.5,1.5-1.2c0.9-2.1,2.8-2.2,4.2-4.6c0.5-1.2,1.6-2.6,1.6-3.7h0.6c0.1-0.3-0.1-0.4-0.4-0.6
				c0.9-0.6,1.5-1.6,1.9-2.6l0.1,0.1c0.3-0.9,0.9-1.5,0-2.2l0.9-0.9c0.1-0.5-0.1-0.9-0.6-1c0.4-0.9-0.1-1.9-0.3-2.7
				c0.6-0.3,0-0.6,0-1c0.9-0.9,0.3-2.6,0.6-3.5c-0.7-1,0.1-1.9-0.1-2.6c1.2-1.1-1.2-3.1,1.2-3.2c0.1-0.4,0-0.5-0.1-0.7l1.1-0.5
				c1.6,0.7,0.4,2.1,1.6,2.8l-0.7,0.6c0.3,0,0.7-0.1,0.7,0.3c-0.5,0-0.2,0.6-0.7,0.6c0,0.3-0.1,0.7,0.3,0.7l-0.3,0.1
				c1.1,0.1,0.6-0.4,1.5-0.6l-0.1,0.4c0.1-0.1,0.1-0.4,0.4-0.4l0.1-1.5c-0.3,0-0.5,0.1-0.7-0.1c0.5,0,0.5-0.5,0.7-0.3
				c0.1-1.5,0.7-3-0.1-4.1l-0.1,0.4c-0.1-0.6-1.4-0.1-0.9-1.1c1.5-2.2-1-4.2-0.4-6.4c-1.6-0.5-1.1,2.6-2.2,3.2
				c-0.5-0.1-1.1,0.3-1.5-0.5c0-0.6,1.2-0.9,0.4-1.2c0.6-0.6,0.7-1,0.4-1.9c1.1-0.7,1.1-2.2,1.7-3.2c0.5-0.4,1.4-0.1,1.6,0.4
				l0.1-0.5h-0.3c-0.7-0.6-1-1.2-1.1-2c0.4-0.3-0.1-1.1,0.6-0.9c0.1-0.5-0.3-1.1,0.2-1.4c0-2,1.1-3.2,1.4-5.1c0.1,0,0.2,0.1,0.4,0.1
				c1.1-2.7,1.2-5.2,2.5-8.3c0.9-0.4,1.1,0.6,1.5,0.9c-0.3,0.4-0.5,0.9-0.1,1.2l0.1-0.1c-0.4-0.5,0.6-1,0.9-0.8
				c-0.4-0.7-0.4-1.7-0.1-2.7l-1.5,0.1c-0.6-1.5-0.2-3.3,0.3-4.8c1.6-0.4,1.1,0.7,2,1.7l-0.5,0.6c-0.1,0.6,0.4,0.4,0.5,0.9l0.1-0.8
				c0.6-0.5-0.1-0.9,0-1.5l0.6,0.1c-0.1-0.6,0.2-0.9,0.6-1.1c-0.2-1-0.2-2.1,0.6-3l-0.4-0.4c0.9-1.6,0.8-3.6,1.2-5.3
				c-1.1-1.4,1-3.3,0.3-4.6h0.1c0-0.6,0.4-1.5-0.3-1.7l0.3-0.4h-0.3c0.1-0.3-0.4-0.8,0-1.1c0.1,0,0.1,0.1,0.3,0.1l-0.5-0.9
				c0.1-0.4,0.4-0.1,0.5-0.3v-0.9h0.4v-1h-0.1v-1.1c1.2-0.4-0.5-1.6-0.7-2.2l0.1-0.1c0,0.1,0.1,0.3,0.3,0.1
				c-0.6-0.9,0.6-1.2,0.5-1.9c-0.2-0.1-0.5,0.1-0.6-0.1c0.3-0.2,0.4-0.5,0.6-0.5v-2c-0.2-0.1-0.4-0.4-0.4-0.8
				c0.1-0.1,0.2-0.1,0.4-0.1c0.1,0,0.1,0,0.1,0c0,0-0.1,0-0.1,0c-0.2-0.1-0.5-0.3-0.4-0.6c1.1-0.7-0.3-2-0.4-3
				c-0.6,1-0.1,1.9-0.6,2.7c-0.5,0.4-0.6,0.5-1.4,0.5c-0.7-2.9,0-6.7,0.1-9.5c-0.2-2.5,1.1-4.2,1.2-6.6c0.5-0.9-0.4-2,0.7-2.2
				c0-1-0.1-1.4,0-2.1c-0.1-0.9,1.4-1.7,0.5-2.6l0.4-0.4c-0.1-0.7,0.9-1.5,0.4-2.2h0.3l0.1-1c1-0.9,0.1-1.6,0.1-2.4
				c0.2,0,0.4-0.1,0.5,0.1c0.6-0.8-0.5-0.8-0.1-1.4l0.6,0.2c-1-0.7,0.3-1.5,0-2h0.1l0.1-1.1c0.1-0.1,0.1-0.2,0-0.2l0,0.2
				c-0.1,0.2-0.5,0.5-0.7,0.1c1-0.7,1-1.6,0.9-2.6c0.9-0.5-0.5-1.9,0.7-2.1c-0.4-1.5,1-3.3,0.1-4.7c0.9-1.4,1.4-3.7,1.5-5
				c-0.1-1.4-0.9-1.4,0.3-2.5c0-0.9,0.4-1.4-0.4-2.1l0.5-0.4c-0.1-0.1-0.4-0.1-0.4-0.4h-0.7c-1.2-0.9-2.6-0.3-3.8-0.7
				c0.1-0.1,0.1-0.2,0.3-0.1c-0.1-0.1-0.2-0.3,0-0.5c-1.1-0.5-0.9,0.1-1.9,0.5c-2.2,1.1-3.1-0.9-5.2-1.2c-0.6-0.3-0.6,1-1.1,0.1
				l0.1-0.1c-0.9,0.1-1.5,0.4-2.2-0.1v0.4c-0.5-1.2-2.6-0.4-3.5-1.2l0.1-0.3c-1-0.1-2.1-0.1-3.1-0.5l-0.9,0.3
				c-0.3-0.1-1.4,0.1-1.7-0.1l0.1-0.1L337,245c0,0.1,0,0.1,0,0.2l-0.3,0.2c-1.1-0.4-3.2-0.6-4.5-0.1c-0.6-0.5-2.1-0.4-3-0.5
				c0.1,0,0.2-0.1,0.2-0.2h-0.4c0,0.2-0.4,0.5-0.6,0.7c-1.1,0-2-0.3-3.1-0.6c-0.4,0.6-1-0.5-1.1,0.4l-0.5-0.5c0-0.3-0.5-0.1-0.6,0.1
				c-0.4-0.6-1.4-0.4-1.7-0.9c-0.6,0.8-1.5-0.2-2.2-0.2l0.4,0.5l-0.1,0.1c-0.1-0.1-0.2-0.1-0.3-0.2c0.1,0.1,0.2,0.2,0.3,0.3l0.1-0.1
				c0.5,0.6-1.3,1.4-0.1,2c0,0.1-0.1,0.2-0.3,0.1l0.3,1.1h-0.1c-0.5,0.3,0.4,1,0.3,1.1l0.3-0.1l0.3,0.4c-0.9,0.9-0.3,3.3-0.5,4.6
				h0.4c0,0.2,0.5,0.5,0.1,0.7h-0.1c-0.4-0.1,0.3,0.4,0.6,0.4l-0.3,0.3c-0.6,0.6-0.5,2.2-0.2,3.2c-0.3,0.2-0.5-0.4-0.5-0.1
				c-0.3,0.6,1.4,1,0.4,1.5c0,0.7-0.3,1.7,0.4,2.3c-1.1,0.9,1.1,1.4-0.1,1.7c0.6,1.2,0,1.5,0.6,2.6c-1,0.9,1.2,1.9,0.5,2.9
				c-0.1,0.7,1.2,2.4,0.1,3.2c0.3,0,0.5,0,0.7,0.3c-1,0.2,0.5,1.4-0.4,1.2c0.3,0.3,0.5,0.9,0.7,1.2l-0.5,0.5c1,1,0.1,1,0.7,1.8h-0.3
				l0.4,3c0,0.4-0.4,0.6,0.1,0.9c0.1,0.3,0.5,0.5,0,0.7c-0.5,0.4,0.2,0.8,0.5,1c-0.3,0.1-0.3,0.4-0.5,0.4c-0.1,0.2-0.5,1.2,0.2,1.5
				c-0.9,2.8,0.1,5.7-0.9,8.4h-0.1l-0.5,3.7c0,0.4,0.7,0.6,0,0.9c0.4,0.3-0.5,1.1,0.3,1.5c0.6,0.8-1.4,1.1-0.6,1
				c-0.3,1.2-0.1,2.5-0.1,3.5c-0.1,0.3-0.4,0.3-0.5,0c-0.1,0.7,0.1,0.6,0.1,1.1c-0.1,0.5,1,0.8,0.1,1.1c-0.1,0.1-0.1,0-0.3-0.1
				c-0.4,0.4,0.1,0.3,0.3,0.6c-0.3,0.3-0.4,0.5-0.4,0.9c0.1,0.5,0.8-0.4,0.8,0.4c-0.1,0.3-0.4,0-0.6,0.1c0.3,1.4,0.1,2.4,0.1,3.8
				c-0.5,1,0.5,1.5-0.3,2.5c0.6,1.2-0.7,2.5,0,4c-1.1,0.6-0.4,2.6-0.1,3.3c0.4,0.9-0.9,1.6,0,2.6c-1,1.1-0.3,2.5-0.3,3.7
				c-0.6-0.6,0.1,0.4-0.5,0.2c0,0.4-0.1,0.8,0.3,0.9c-0.9,1.1-0.4,2.5,0.1,3.5c-1.1,0.6-0.3,2.1-0.7,3c-0.5,0.9-0.6,1.4,0,2.2
				c-0.3,0.1,0.2,1.2-0.4,0.8c0.1,1.1-0.8,2-0.3,3.2c-1.1,0.5-0.7,1.9-0.9,2.8H318c0,0.5-0.5,1.6,0.1,2.2l-0.3,0.3l-0.1-0.1
				c-0.4,1.1-0.4,1.9-0.5,2.7H317c0,0.4,0.6,1.4,0,1.7c0.4,0.6-0.9,1.2,0,1.6c-0.3,0.5,0.1,1.1-0.5,1.4c0,1.2-1,2.7,0,3.1
				c-0.1,0.5-0.6,0.2-1,0.4c-0.3,1.5-0.1,3-0.3,4c0.1,2.1-0.4,3.8,0.3,6.3c-0.3,0-0.3,0.4-0.5,0.3c-0.3,0.9,0.6,1.6-0.1,2.4
				c1.1,3.3-0.1,5.9,0.3,9.5c-1.1,1,1.1,1.5-0.4,2.2c-0.3,1.1-0.1,2.2,0.1,3.2l-0.5,0.5c0.1,0.5-0.3,1.2,0.6,1.5l-0.6,0.5l0.5,0.1
				c-1,1.2,0,2.1-0.7,3c0.1,0,0.4-0.1,0.4,0.1c-0.6,0.3-1,1.6-0.3,1.6c-0.1,0.1-0.5,0.4-0.5,0.6c0.3,0,0.5-0.1,0.6,0.1l-0.6,0.4
				c0.7,1.1,0,2,0.3,2.6H313.8z M310.3,422.8c0.8,0.1-0.2-0.6,0.5-0.5c-0.1-0.4-0.1-0.4-0.5-0.5C310.2,422,310.7,422.5,310.3,422.8z
				 M258.7,442.2c-0.2,0-0.5-0.6-0.7-0.1l-0.7-2.2h0.1c-0.5-2.5,1.7-4.3,2.9-5.4c-0.7-0.4,0.4-1,0.1-1.4c1-0.9,2.2-2.4,2.1-3.6
				l0.5,0.1c0.3-1.7,2-2,1.4-3.6c2,0.6,0.9-2,2.6-2.7c0.8-0.1,1.1-0.5,1.5-0.5l0.5-0.5c0.4,0.6,2.5-1.6,3,0.6c0.4,0,0.4,2.5,1.6,2
				c0-0.1,0.5,0.7,0.9,1c0.9-1.2,1-2.4,1.6-3.7v-0.4c0.3-0.7,1.4-1.2,1-2.6c0.5-0.6,0.1-1.7,1-2.4c-1.2-0.6,1.2-0.5,0-1.4
				c0.4-1.7,1.7-1.9,1-4c1.2-1.1-1.2-3-0.3-4.1c0.9-1.5-1-3.2,0-4.7c-0.5-1.4,0.4-3-0.1-4c0.1-0.9,0.3-1.6,0.4-2.5
				c0.3-0.5,0.3-2.5,0-2.7l0.6,0.1c0.5-0.7-0.3-1.5,0.1-2.2l0.3,0.1c-0.3-0.9,1.1-1.7,0-2.9h0.3l-0.1-0.3c0.5-1,0.1-2.2,0.9-3.1
				c-0.1-0.5,0.1-0.7,0-1.2c-0.3-0.7,0.3-1.5,0.2-2.1h0c0.6-0.3,0.3-0.9,0.4-1.4c-1-0.4-0.1-0.9,0.1-1.2c0.3-2.1,0-4.1,0.8-6.3
				c0.1-0.7-0.9-1,0-1.5l-0.3-0.3c0.1-0.4,0.3-2.4,0.1-3.5c-0.1-2.1,0.4-4.2,0.4-6.7c0.1-0.9-0.4-2.1-0.1-3c0.5-0.9-0.8-2.8-0.1-3.9
				c-0.1,0.1-0.2,0.1-0.3,0.1v-0.3l0.4,0.1c0.7-1-0.3-1.5,0.1-2.3c0-0.6,0.3,0.9,0.6,0c-0.2-1.5-0.6-2.2,0.1-3.7
				c-0.6-0.5,0.5-1.2-0.1-1.7c0.6-0.3,0.4-0.9,0.1-1.1c1.2-1.5,0.1-3.7,1.1-5.1c-0.4-2.5,0.6-4.7,0.9-7.2l-0.1-1.2l0.1,0.1
				c-0.5-0.4,1.4-1.6,0.1-2c0-1.5,0.6-1.9,0.9-3.1l-0.7-0.7c1-0.3,0.6-1.1,1.1-2.1c-0.1-0.1-0.4-0.1-0.5-0.1c1-0.9,0-2,0.9-2.7
				c0-1.1,0.4-1.4,0-2.5c0.9-0.4-0.4-1.4,0.5-2c-0.8-1.1,1.1-1.4,0-2.6c0.9-0.7-0.5-1.7,0.6-2.2c0.1-1,0.3-2.7,0.4-3.6
				c0.5-1.2-0.8-2.5,0.2-3.6c-0.4-0.1-0.4-0.5-0.4-0.9l0.1,0.1c0.4-1.4,0.7-2.7,0.4-4.5h0.1c-0.4-0.9,0.7-1.7,0.1-2.5l0.1,0.1
				l0.3-1.7c0.2-0.9,0.5-0.6,0.7-1.5c-0.3-1,0.4-2.1,0-3.2c0-0.9,1-1.4,0.3-2.4h0.2c0-1.1,0-1.9,0.6-3c-0.2-1.1,0.6-2.2-0.1-3.2
				c0.3-0.3,0.1-0.6,0.1-0.9c0.3,0,0.8-0.6,0.8-1.1c0.1-1.5,0.4-2-0.1-3.6c0.1,0.1,0.1,0.3,0.3,0.3c-0.3-1.1,0.3-3-0.3-4.2
				c0.1,0.1,0.1,0.1,0.3,0.1c-0.1-0.7-0.3-1.4-0.4-2.2c-0.1-0.9,0.9-0.6,0.9-1.5c1.9-2-0.4-5.2,1.6-7.1c0.1-0.6,0.4-1.6,0.5-2.1
				l0.1,0.1c0.3-0.2,0.6-1,0.3-1.5c0-0.6,0-2.2,0.6-2.7c-0.1-0.4-0.1-1.1,0.4-1.6l-1-0.8c1.6-0.9,0.9-3,1.2-4
				c-0.1,0,0.4-2.4-0.5-2.7c0.3,0,0.4,0.3,0.5,0.4l0.3-0.4c-0.3-0.6-1.2-0.5-1.1-1c0.3-0.3,0.5,1,1.1,0.4l-0.8-1.1
				c0.8-0.5,0.4-0.9,1-1.6c-1-0.9,1.1-2-0.6-2.6c1.4-0.8-0.4-0.6,0.6-1.6c-1.2-1.1,1-1,0.3-2.5l-0.3-0.3c0.6-1,0-1.2,0-2.4l-1-0.7
				l-0.1,0.1l-0.9-1c-0.4,0-0.5,0.8-1,0.5l-0.5-1.1l-0.5,0.4c0-0.9-1-0.3-1.2-1.1c-0.6,0.6-1-0.9-1.7-0.1c0-0.9-1.5-0.3-2.2-0.6
				c-0.2,0.4-0.5,0.3-0.9-0.1c-1.4-0.8-3.5-0.4-4.6-1.5c-0.8,0.7-1.5-0.3-2.2-0.3l-1-1.2c0.9-3.1,2.9,1.1,4.2-1
				c-0.1-0.4-0.6-0.4-0.9-0.2c0.1-0.4-0.7-0.8,0-1c0.3-0.3,1.1-0.4,1.4,0.1c-0.1,0.4-0.4,0.6-0.3,1.1c1.5-0.4,3.7-1.5,5.3-2.1
				c1.7-1.6,2.2,2.8,3.7,0.3v-0.9l0.3,0.5c0.6-1.5,0.7-2.6,0.5-4.1l0.1,0.1c0.6-1.8,0-4,1.2-5.7c-0.1-0.9,0.5-1.6,0.1-2.1
				c0.9-0.5,0-2.7,0.7-4.3c-0.4-0.4,0-1.9-0.4-2.4c0.4-1.7-1.4-4.2-0.1-6.6c0.6,0,1.6-0.6,2.4-0.1c0.3,1.1,1.2,0,1.7,1.1
				c0-0.1,1.3,1,1.6,0.5c0.2,0.2,0.5,0.3,0.7,0.5h0.9c-0.1,0-0.1,0.1-0.1,0.3c1.5,0.3,3.6,0.7,5.2,0.1l0.2,0.9
				c0.1-0.5,1.5,1,2.1,0.4l0.3,0.6c0.4-0.1,0.6-0.4,0.5-0.7c0.3,0,0.3-0.3,0.5-0.4l0.1,0.1l-0.4,0.4c0.4,0.6,0.5-0.1,1,0.1
				c0.7,0.8,2.2,0.1,2.5,1.6c0.4-0.2,1.4,0.5,2,0.5c1.2-0.1,1.4,1.2,1.7,2.1c0.6,0.3-1.2,1.4,0,1.6c-0.4,1,0.1,2.1,0.1,2.9
				c-0.1,0-0.1-0.1-0.1-0.1c-0.1,0-0.1,0.3-0.1,0.4c1,0.3-0.6,1.2,0.1,1.6c0,0.6-0.1,1.6,0.1,2.2H318c-0.1,1.4-0.5,2.9,0.5,3.6
				l-0.2,0.1c0.1,0.3,0.4,0.3,0.5,0.3l0.3-0.4v0.7c-0.7,0.3-0.4,0.9-0.7,1.5l0.6,0.7l0.5-0.4l0.9,0.7c0.2-0.1,0.1-0.4,0.1-0.5
				c0.3-0.1,0.4,0.1,0.5,0.2c0.3-0.7,1,0.4,1.1-0.4c1.2,0.1,2.6-0.1,3.7,0l-0.1-0.1c2-0.3,4.8-0.4,6.6-0.6c1.1,0.6,2.1,0.3,3.1,0.1
				c1.4,0.5,3.4-0.3,4.8-0.5c0.6,0.9,0.9-0.1,1.9,0.5c0.7,0.3,2.1-0.6,2.7,0.5c1-0.9,1.7,1,2.9,0l0.7,0.5c0.1-0.2,0.4-0.2,0.7-0.2
				c0.4,1.2,0.9-0.6,1.5,0.5c1-1,2.6,1.1,3.5-0.3c1,0.4,1.7-0.1,2.6-0.2c1.8,1.5,3.6-0.9,5.2,0.2v-0.1c1.1,1.5,3-0.1,4.7,0.6
				c0.1,0.1,0.3,0.4,0.5,0.3l0.1-0.1c1,0.6,3.2,0.1,4.3,0.5c0.1-0.3,0.4-0.3,0.6-0.4l0.3,0.4c-0.1-0.1-0.3,0-0.3,0.1
				c0.9,0.3,2.2,0.9,3.3,0v-0.5c2.6,0.2,3.1-2.1,5.8-2.2c0.3,0.6,1.1,0.1,1.5,0.5c2.4,2.1,5.2,3.8,5.1,7.3c1.5,0.2,2.6,1.4,3.7,1.9
				l0.1-0.1c0.9,0.7,2.3,3,2.3,5l-0.1-0.1c0.1,0.7-1.4,1.4-0.5,2c-0.1,0.1,0,1-0.5,1.4l0.4,0.4c0,1.2-0.4,2.3-0.9,3.5h0.3
				c-0.5,0-0.4,0.9-0.5,1.2h0.3c0.6,1.4-1.2,2.9,0.5,3.7l-0.4,0.3c0.1,0.2,0.4,0.2,0.5,0.2c-0.3,0.4-0.1,1.1-0.1,1.5
				c-1.4,1.5,0.9,5.1-2,6.3l-1.7,0.9l0.1,0.3c-1.1,0.6-3,0.7-3.5,2.4c0.7,0.7-0.6,1.4,0.4,2.1c-0.6,0-0.5,0.3-0.6,0.8
				c0.5,1-0.4,2,0.6,2.5c-1.1,1-0.3,2.7-0.5,4c-0.8,2,0.2,2.9-0.3,4.1c0.3,1.2-0.3,1.4,0.3,2.6h0.2c-0.2,0.6-0.7,1.4-0.1,1.8
				c-0.9,1-0.9,2.6-0.6,3.7c-0.9,2.8,0.3,5.6-1.1,8.4c0.4,1.6-0.6,2.9-0.4,4.5c-0.5,0.4-0.1,1.6-0.9,2c-0.1,1.4-0.3,2.1-0.9,3.6
				c0.4,0,0.3,0.4,0.3,0.7c-0.3,0.4-0.6-0.4-0.5,0.4c0.1,1.1-0.2,3.5-0.6,4.3c-0.6,1.1-0.8,2.2-1.1,3.8c0.1,0.7-0.1,2.1,0.7,2.4
				c-0.5,0.5-0.2,1.5-0.7,2.2c0.5,0.4,0.4,1.2,0.3,1.7h0.3c-0.3,0.1-0.3,0.4-0.5,0.7l0.1,0.1c0,0-0.1,0-0.1,0c0.5,1.1-0.5,2.6,0.5,4
				c-0.4-0.1-0.4,0.4-0.6,0.5c0.9,0.6-0.4,1.7,0.5,2.2h-0.1c-0.4,0.3,0,0.7,0.1,1l-0.5,0.6c0.7,0.7-0.5,2,0.4,2.5l-0.3-0.1
				c-1.5,1.5,1.1,3.5,0.3,5.2h0.1c0,0.1,0.1,0.4-0.3,0.6c0.1,0.1,0.4,0.1,0.5,0.1c-0.8,0.4-0.5,1.4-0.3,1.9h0.1
				c-1.4,0,0.1,1.4-0.6,2.4c0.9,1.1-0.4,2.6,0.5,3.6h-0.3c0.1,0.7-0.1,2-0.3,2.7c0.3,0,0.6,0.1,0.5,0.6l-0.5,0.4
				c0.3,0.6,0.8,0.4,0.5,1h0.1c0,0.1-0.1,0.2-0.1,0.2l-0.6-0.5c-0.4,1.1,0,2.2,0.1,3.3c-0.1,0-0.2,0-0.2-0.1c-0.4,2.1-0.4,5-1.9,6.7
				c1,1.9-0.9,3.1-0.3,5.4c-0.5,0.7-0.5,2.2-0.5,3.2c-1.6,1-2,4.1-3.1,5.3c0.5,0.7-1.1,1-1,1.6c0.3,1.9-0.3,2-0.7,3.7
				c-1.2,1.4-2.1,4.2-1.7,6.1h-0.1c-0.1,2.4,0.4,5.9-0.1,8c0.6,0.4-0.4,0.8,0,1.4c-0.4,0.7,0.1,2.4-0.5,3.1c0.5,0.3-0.4,0.7,0.4,1.2
				c-0.5,0.4-0.4,1.5-0.1,2c0.5,0.5-1,1.4,0.4,1.9c-1.4-0.5-0.1,1.1-0.7,1.7h-0.1c-0.1,1.9,0.2,3.3-0.3,5.2
				c-0.6,0.4-0.1,1.7-1.1,2.2c-0.1,2.8-0.2,3.7-0.2,6.4c-1.6,1.2-1.1,2.1-2.2,3.8l0.1,0.7c-0.1-0.2-0.6-0.1-0.7,0.1
				c-0.6,0.1,0,1.1-0.6,1.1v0.5l-0.1-0.1l-0.5,1.2v-0.1c-1.6,0.5-3.7,2.1-4.6,3.3c-1.2,0.4-1.9,3-3.8,2c-0.2,0.9-2.3-0.1-1.7,1.4
				c-0.1-0.3-0.4-0.3-0.5-0.3c-1.1,1.5-1.9,0.8-3.1,2.5c-0.9-0.5-0.5,1.1-1.4,1.2c0-0.1-0.1-0.1-0.1-0.3c-0.5,0.4-1.4,0.9-2,1
				c-1.1,1-2.4,2.2-4.3,2.6l-0.9,0.6c0-0.4-0.3-0.5-0.4-0.6c-0.7-0.5-2.4,0.3-3,0l0.3,0.6c-1.7-0.9-2.5,2-4.2,1.1
				c-0.4,1.4-2,0.6-3.2,0.6c-0.1-0.4-0.1-0.9-0.6-1.2c-0.4-0.1-1,0.4-0.8,0.6c-1,0.6-2.1-1.1-3,0.4c-0.9,0.3-2.2,0.8-2.5-0.5
				l0.2-0.7c-1.1-0.6-2.8-0.6-3.6-1.4c-0.2,1.5-0.9,2.6-1.9,3.5c-0.5-0.5-2.5-1.6-1.1-2.3c0.6-0.7-0.1-0.7-0.1-1.5l-0.4,0.1l0.2-0.4
				l-0.1-0.1c-1.2,0.1-0.7,3-2.7,1.6c0.9-1.1-0.7-1.4-1-2c1.5-1,0.1-3.2,0.4-4.8l-0.4,0.4c-0.5-0.7,0.9-0.7,0-1.4
				c-0.6,0.6-1.4-0.1-2-0.4c0.2-0.6-0.5-1.2-0.6-1.9c0.1-0.4-0.9-0.5-0.5-1.1c-0.7,0.9-1.8,2.1-1.8,3.5c-0.4,0.4-2,2.1-3,3
				c-0.6,0.5-0.3,2.8-2.2,2l-0.1-0.3c0,1.4-1.2,2.5-0.6,3.6c-0.5,0.1-1,0.7-1.7,0.4c-1-1.1-1,1-1.9-0.5c-1.7-0.6-0.7,1.6-2.2,1.7
				c-0.3,1.1-0.4,1-1,1.9c-0.4-0.5-1,1-1.7,0.4c0.4,1.6-1.6,1.6-1.1,3.3c-1.4,0.3-0.7,2.4-1.9,3.3l-2-0.4c-1.5,1.9-1.5,4-4.3,4
				c-0.4,0-1.2-0.7-1.6,0.1c0,0.2,0.3,0.4,0.1,0.6c-0.2,0.5-0.5-0.2-0.7,0.4c0.1,0.1,0.2,0.1,0.3,0.1c-0.6,0.1-0.8,1.2-1.4,1.4
				l0.1,0.1c-1.1-0.2-2,2.4-3,0.1c0.4-0.5-0.3-1.2-0.7-1.2c0-0.1,0-0.1,0.1-0.3c-0.1-0.2-0.4-0.2-0.5,0v0.5l-0.3-0.4
				c-0.1,0.4-0.5,0.6-0.8,0.9c-1.9-1.6-2.2,1.2-4.3,0.5c-0.3-0.4,0-1.2-0.7-1.2c-0.5-0.3-0.7,0.5-0.9,0.7c-0.5-0.2-0.9-0.5-1.5-0.5
				c-0.1-1.2,2-0.4,2.8-0.7c-3.7,0.4-5.8-1.4-7.9-3.6c-0.6-0.3-0.6,0.4-1,0c0.4-0.4,0-1-0.5-1.1c0,0.3-0.3,0.3-0.4,0.3
				c0.6-1.9-2.1-0.6-2.5-2.2c-0.4,0.3-0.5-0.3-0.9-0.6C258.6,442.5,259,442.3,258.7,442.2z M349.8,350.2c0.1-0.6-0.5-0.3-0.7-0.5
				c0.5,0,0.3-0.9,0.7-0.4l-0.6-1.1c-2.1,0.1,0.4,1.4-1,2.2L349.8,350.2z"/>
			<path d="M268.2,509.1c0,0.1-0.1,0-0.3,0H268.2z"/>
			<path d="M268,509.1h-0.2c0,0,0,0,0-0.1C267.8,509,267.9,509,268,509.1z"/>
			<path d="M255.8,437.8c0,0.3,0.2,0.5,0.5,0.7c0.1-0.1,0.4-0.3,0.2-0.6l0.3,0.2l-0.5,0.7C256,438.9,255.8,438.3,255.8,437.8z"/>
			<path d="M254.1,402.2v1C253.5,403,254.1,402.6,254.1,402.2z"/>
			<path d="M252,252.2C252,252.2,252,252.3,252,252.2c0,0.1-0.1,0-0.1,0H252z"/>
			<path d="M251.6,250.5c0,0.1,0,0.1,0,0.2C251.5,250.5,251.5,250.3,251.6,250.5z"/>
			<path d="M250.4,250.3c0,0,0.1,0.1,0.1,0.2L250.4,250.3L250.4,250.3z"/>
			<path d="M246.3,430c0.3-0.4,0-0.7,0.1-1.1c-0.1-0.1-0.4-0.1-0.5-0.1c1-1.1,2.6,0.8,1.5,1.6C247.2,430,246.4,430.5,246.3,430z"/>
			<path d="M244.2,133.8C244.2,133.8,244.2,133.8,244.2,133.8C244.2,133.8,244.2,133.8,244.2,133.8z"/>
			<path d="M241.4,438.9c1.1,0.6-0.9,0.5-0.2,1.5c-0.5,0-0.8-0.1-0.8-0.5l0.3-0.6c0.3,0.5,0.5,0.1,0.7,0V438.9z"/>
			<path d="M239.1,435.3l-0.2,0.3c0-0.1,0-0.2,0-0.3L239.1,435.3z"/>
			<path d="M238.9,433.7c-0.9-0.4-0.6-1.5-1.4-1.9l1-0.1v-0.1l0.7,0.7c0,0.1-0.5,0.3-0.6,0.9c0.6,0.4,0.7-0.5,1.1-0.7l0.1,0.1
				l0.2-0.3c0.8,0.4-0.4,1-0.1,1.5l-0.6,0.7l0.3,0.1c0.1,0.1-0.4-0.3-0.5,0l-0.3,0.3c-0.1-0.4-0.1-0.8-0.4-0.8
				C238.6,434.1,238.8,434,238.9,433.7z"/>
			<path d="M238.9,434.9c0,0.1,0,0.2,0,0.3l-0.2-0.1L238.9,434.9z"/>
			<path d="M238.3,434.2c0.1,0,0.1,0,0.2,0C238.4,434.2,238.3,434.2,238.3,434.2z"/>
			<path class="st0" d="M218.1,199.1c-0.6,0.9-1.9,1-2.1,2.2c-0.5-0.3-2.4,0.6-2.4-1.1c0.8-2.2,2.5-4.5,3.7-6.1
				c2.2-4,5.4-8.5,6.8-13c0.5,0,0.6-1.4,1-1.9c2.2-3,4-5.6,6.3-7.7c0.7-1.6,2.4-2.8,3.8-4.2l-0.5-0.1c0.9-0.2,1.4-1.9,2.4-2.5v-0.6
				c1.1,0.6,1.2-1.1,1.5-1.5l0.3,0.1c0.9-1.6,2.3-3.5,3-5.4c1-1.9,2.3-3.2,3-5.5c1.1-2.3,2.8-3.8,4.1-6.3c0-0.1,0-0.3-0.1-0.4
				l0.3,0.3c0.4-2,1.7-2.4,2.1-3.7l0.1,0.1c1.2-1.6,1.5-3.6,1.5-5.6c0.6-0.4,0-1.5,0.1-2.2c0-1.6-1.9-0.5-2.8-0.9
				c-1.4,1.2-3.7,0.4-5.1,0.6l-0.5-0.5c-0.1,0.2-0.3,0.2-0.3,0.4c-0.2-0.2-1-0.6-1.5-0.2c0.3-0.2-0.4-0.7-0.6-0.7
				c-0.3,0.5-0.6,0-0.9,0c0-0.3-0.3-0.4-0.4-0.5l-0.4,0.2c-0.3-1-1.9-0.4-2.4-1.5c-1.4,0.1-2.5-0.8-3.5-1.7c0.1-0.2-0.5-1-0.7-0.7
				c1.5-1.6-1.4-2.4-1.6-3.5c-1.2-0.1-1.6-1.1-2.9-0.5c0-1.4-0.3-3.3-1.6-4.7c-0.7-2.4-1.1-5.1-0.1-7.2c0.2-1.7,2.8,0.2,2.2-1.9
				c0.4,0.4,1.2,0.6,1.9,0.4c1.1,0.1,3.1-0.5,3.7,0c2.5,0.4,5.6-1.7,8.1-1.2c0.9-1.2,2.2-0.1,3.5-0.6c0.7-0.2,2-0.6,2.7-0.2v-0.1
				c1-0.2,2.7-0.2,3.5-1c0.2,0,0.4,0.4,0.6,0.5c1.4,0,1.2-2.1,1.9-3l0.5-0.1c-0.4-2.1,2-3.7,1.7-6.1c0.9-0.5,0.6-2.1,2-1.7
				c0.3,0.6,0.7,0.4,1.1,0.3c1.7,0,2.6,1.6,4.1,1.5c0.1,0.4,1.5,0.2,2.2,0.1c0.3-0.4,1.1-0.6,1.7-0.9l0.9,1.1l0.3-0.1v0.5
				c1.2-1.1,0.9,1.4,2.2,0.7c1.9,0.9,2.2-0.1,3.2,2c-0.3,0.4-0.1,0.9-0.3,1.2c0.8-0.1,0.5,0.4,0.5,0.9c0.9,0.5,1,2.5,2.5,1.5
				c-0.3,0.3,1,0.6,1.2-0.1v0.1c0.6,0.5,1.1-0.7,1.7-0.1c-0.1,0.1,0,0.3,0.1,0.3c0.3,0.1,0.4-0.1,0.6-0.3v0.1c0.7,0.1,1.7,0.6,2.5,0
				c1,1.4,1.7-0.7,2.7-0.2c1.1,0.5,1.6,0.1,2.7,0l1.2,0.1v0.1c2,0.5,3-0.1,4.7,0.4c0.4-0.4,1.6,0.5,2.2-0.2c0,0.4,0.3,0.5,0.4,0.6
				c0.5-0.3,1.2,0.6,1.7-0.1l0.4-0.6c0.2,1.6,1.9,0,2.4,0.9c1.2-0.7,3,0.4,4.1-0.4c1.6,1.5,3.2,0.1,4.3,0.6c1.1-0.1,3.1,0.1,4.4,0.7
				c0.9-1.1,2.2,0.5,3.5,0.1l1.4-0.4l-0.3,0.5c3.3-0.4,4.9,1.2,7.9,1.5c0.3,0.1,0.6,0.3,0.9,0c-0.3,0.6,0.6,0.5,0.7,0.8
				c1,0.7,2.5-0.1,3.5,1.1c0.9-0.4,1,0.6,1.7,0.3c0.1,0.7,1,0.4,1.4,0.7v-0.6c0.2,0.7,1,0.6,1.4,1.1l0.3-0.4
				c0.1,0.4,0.2,0.5,0.6,0.6c0.3-0.5,1,0.6,1.5,0.6c1,1.7,4.3,1.8,6.1,3.1l0.1-0.1c0,0,0,0.1,0,0.1l0.4,0.3l0.3-0.3
				c0.6-0.3,0.1,0.5,0.5,0.6c1.4-0.5,2.1,1.5,3.4,0.9c0.2,0.7,1.4,0.4,1.7,0.6l0.1-0.4c0.7,0.9,2,1.6,3,1.7v-0.5
				c0.3,0.1,0.4,0.3,0.8,0.1c-0.1,0.6-0.1,1,0.4,1.4l1.4,0.1c0.3,0.4-0.5,1,0.1,1.4l0.3-0.1c0.6-0.3,0.6,1,1.1,1.4l0.4-0.5
				c0.6,1.6,3.8,2.2,4.9,3c1.4-0.3,2.5,0,2.8-0.9c1,0,2-0.4,2.6,0.4c0.5,0.9,0.9,2.2,1.7,3.6l0.6-0.3c-0.8,0.4,0,1.1,0,1.9
				c0.2,1.5,0.4,2.2,0.2,4c-0.1,0-0.2-0.1-0.2-0.2l0.1,0.7l-0.1-0.1c-0.3,0.1-0.1,0.5-0.1,0.8c0,0.2,0.3,0.1,0.4,0.1
				c-0.4,0.5-0.5,1-0.4,1.4h0.4c-0.2,0-0.2,0.3-0.4,0.4c0,0.4,0.6,1,0.1,1.2c0,1.5-0.3,2.7,0.7,4h-0.5c-0.2,1.2,0.5,2.6-0.2,3.8
				c1.1,0.9-0.3,2.4,0.1,3.6c-0.6,0.4,0.5,0.7,0.3,0.9h-0.1c0.4,2.2,0.1,4.6,0.1,6.8l0.5,0.3c-1.1,1,0.4,1.9-0.5,2.9l0.2,0.7
				c-1.4,0.6,0.3,1.5-1,2.4c0,1.2-0.9,2.5-0.7,3.3h0.3c-0.6,1.1-0.3,2.2-1.5,3c-0.2,2.2-1.7,2.8-1.9,5.1c-0.6-0.1-0.6,0.5-0.6,1
				l-0.3-0.3c-1.5,1.6-2,3.1-2.1,5.2c-1.6,0.4,0.2,2.4-1.6,2.5c-0.9,1.6-3.2,2.7-3.1,4.9c-1.1,0.6-2.5,3.2-4.1,3.1
				c-0.1,0.7-1.5,1-1.5,1.8c-0.5,0.4-1.4,0.4-2,0.4c0.1-0.6-0.4-0.1-0.6-0.7c-1.4,0.1-1.1,0.9-1.6,1.5v0.4l-0.2-0.1
				c-0.6,0.1-1.5,2.6-2.7,0.9c-0.4,0.3-1-0.5-1.2,0.3v0.4c-1.4,0.5-3.1,0.1-4.2,1.4c-0.4-0.4-1.2-0.4-1.5,0.1
				c-0.4,0.6,0,1.6-1.1,1.9c-1.4,0.1-3-0.3-3.8-1l-0.4,1l-0.3-0.4c-0.7,1.1-2.1,2.2-3.1,1.4c-1.8,0.5-2.5,1.6-4.2,0.7l-0.4,0.2
				c0.3-0.3-0.2-1.2-0.8-1.2c-1.1-0.5-2.1,1.6-3-0.2c-0.1,0.2-0.5,0.1-0.8,0.4c-0.1-0.4-1.2-1.1-1.7-0.7c-0.9-0.8-0.9-0.4-2-1.2
				c-0.3-0.1-0.5-0.4-0.9-0.3l-0.2,0.6l-0.4-1c-0.8,0.5-1.7-1.2-2.7-1.5l-0.4,0.4l0.1,0.1c0,0.1-0.6-0.4-1.1-0.1V198
				c-1.1-0.4-1.2,1-2.2,1c-0.9-0.1-1.5-1.6-2.2-0.4l-0.1-0.1l0.7-0.5c-0.6-1-2.5,1-2.6-0.7c0.3-1-0.6,0-0.9-0.5
				c-0.5,0.6-1-0.5-1-0.7c-0.3,0-0.5-0.3-0.6-0.4c0.3-0.6-0.3-0.9-0.4-1.6c-0.4,0-1.1-0.9-1.6-0.5c0.5,0.1,0.1,0.5,0.4,0.6h-0.4
				c0.1-0.3,0-0.5-0.3-0.8c-0.6,0.6-0.7-0.2-1.4,0.1c-0.1-0.1-0.1-0.4-0.3-0.5l-0.7,0.7c-0.4-0.2,0.5-0.7-0.3-1
				c-1.1,0.3-1.9,0.9-3,0.6c-0.5,0.1-1.7,0.4-2.4,0.5c0.1-0.4-0.3-0.5-0.4-0.7c-1.2-0.4-1.9,0.9-3.4,0c-0.2-0.6-0.4-1.6-1.4-1.9
				l-0.1,1.1c-1.7,0.1-3.2-0.6-3.8-2.2v-1.4h0.1c-0.4-1.1,0.6-3.1-1.1-3.2c-0.9,1.2-1.9-0.6-2.7-0.6c-0.1-0.4-0.1-0.9,0.1-1.2
				c-0.5,0-1.4-1.2-1.6-0.1c-1.7-0.6-2.4-2.2-4.3-2.2c-1.1-0.9-2.6-1.5-4.1-2.1c-2,0-3.6,0.1-5.6,0.5l-0.9-0.4
				c0.9-1.1,2.7-1.2,4-1.6c1,0.1,1.7-0.3,2.6-0.3c1.5-0.3,3.2-1.1,4.6-0.4c0.6-1.1,0.6,0.5,1.5-0.4c0.8,1.1,1.5-1,2.1,0.3
				c1.2-0.5,2.4,0.9,3.2-0.4c0.6,0.5,1.2,0.1,1.9,0.3v-0.3c1.7,0.1,3.6,0.9,4.9,0.3c1.5,1,3.1,0,4.2,0.7c4.3,0.1,7.5,0.4,11.6,0.3
				c0.9,0.4,3,0.3,3.5-0.4c0.2,0,1.4-0.1,1.9,0.1c0.4-1.2,1.7,0.5,2.1-0.9c1.5,0.6,2.8,0.1,4-0.4c0.6,0.9,2.1-0.4,3.1,0.5
				c0-0.5,1.2-0.3,1.6-0.1c1-0.1,2.4-0.4,3.6-0.4c1-1.2,2,0.4,3.1-0.4l0.4,0.3c1.5-0.4,3-0.9,4-1.6c0.9,1,1.4-0.5,2.1-0.5v0.2
				c1-0.9,3.5-2.1,3.6-2.8c1.1-0.5,1.7-2,3-2.7l-0.5-0.6c0.7,0,0.4-0.1,0.6-0.7l0.1,0.3c0.3-0.3,0.9-1,0.4-1.2
				c1.4,0.1,0.4-1.2,0.9-1.7c-1-0.5,1.5-1.4,0.4-2.5c1-0.7,0-3,1-3.2l-0.5-0.7l0.1,0.1c0.6-0.4,0.3-0.9,0.4-1.4
				c0.3-1.1,0.3-1.6,0.4-3c1.2-0.9-0.5-3.5,1.4-4l-0.5-1.2l0.3,0.3c0.1-0.3,0.1-0.4,0.2-0.6c-0.1-0.2-0.2-0.3-0.4-0.3
				c0.5-0.4,0.6-0.7,0.9-1.3v-1.5c0.1,0,0.3-0.3,0.4-0.4c-0.9-1,1.1-1.9,0.1-3c0.4-0.1,0.8-0.7,0.3-1c-0.1,0.1-0.4,0.1-0.5,0.1v-0.5
				c0.6,0.6,1.1,0.4,1.4-0.4c0-0.3,0.3-0.4,0.1-0.6l-0.3-0.3c0.1,0,0.1-0.1,0.3-0.2c-0.9-0.4-1.2-0.3-1.5-0.8v0.4l-0.3-0.4
				c-0.5,0.9-1-0.4-1.5,0c-1.1-0.6-2.2-0.9-3.6-0.9v0.4c-0.6-0.6-1.5-0.9-2.3-1.1c-0.3,0.7-0.6,0.2-1.1,0.6L338,137l-0.3,0.6
				c0.1-0.6-0.7-0.7-1.1-0.5c-0.5-0.1-1.2,0-1.9-0.4c-1.9-1.1-3.6,0.3-5.7-0.1c0-0.9-0.6-0.2-1-0.6c-1,0.8-2.7-0.1-3.3,0.6
				c-1.2-0.1-2.4-1.4-3.6,0c-0.9-0.6-1.2,0.5-1.9-0.5c-0.6,1.7-2-1-2.9,0.3c-1.1-0.6-2.8,0-4.6-0.1c0-0.1-0.1-0.3-0.1-0.3
				c-0.3,0-0.5,0-0.5,0.3v0.4c-0.1-0.6-1.2-0.4-1,0.2c-0.2-1.5-1.6,0-2.2-1.2c-0.7,0.6-1.7-0.5-2.2,0.5c-0.8,0.3-1.1-0.9-2.1-0.7
				c-0.7,1-1.5-0.1-2.6,0.9c-0.1-0.7-0.7-0.3-1.1-0.4c-0.3,0.4-0.6,0.3-0.9,0.3c-0.1-0.3-0.4-0.5-0.7-0.5l-0.4,0.6
				c-0.4,0-0.5-0.6-1-0.6l-0.4,0.4c-0.8-0.5-1.5-0.2-2.2-0.1v-0.4c-2.6,1.1-6.2-0.6-8.4-0.4c-0.1-0.3-0.3-0.3-0.5-0.3l-0.1,0.6
				c-0.7-1.1-2.2,1.1-2.9-0.7c-0.6,0.5-1-0.3-1.9,0c-0.8,0.5-0.5-0.8-1.1-0.1l-0.5-0.6v0.6l-0.4-0.2c-0.8,0.1,0,1.2-1,1.1
				c-1,2,0,4.6-1.2,6.3l-0.1-0.2c0.1,1-0.7,1.9-1,2.7l-0.2-0.1c0,1.4-1,1.1-0.9,2.4l-0.1-0.1c-0.5,0.1-0.3,1.1-1,0.9
				c-0.3,0.3,0,0.6,0.2,0.7c-0.2-0.1-0.9-0.1-1,0.3l0.1,0.5c-0.4-0.1-0.8,0.4-0.8,0.6c0.5,0.8-0.4,0.6,0.1,1.5l-0.5,0.6
				c0.5,1-1.5,2.1-0.7,3.2l-0.4,0.6l0.3,0.2c-1.7,2.7-2,6.2-4.7,8.9c-0.2,0.6-0.9,1.1-0.5,1.6h-0.3l-0.4,2.1
				c-0.7-0.3-0.5,0.9-0.9,1.1l-0.7,0.9c0.4,0.1,0.3,0.4,0.1,0.6c-0.7-0.4-0.7,0.9-1.1,1.2c0,1.2-0.7,2.2-1.4,3.2
				c-0.1,0.1-0.4,0.2-0.3,0.5c0,0.4-0.6,1.9-1.4,2.2c-0.4,1.4-2.1,1.7-2.7,3.2l-0.1-0.3c-0.6,0.4-0.4,0.4-0.6,1
				c0.3,0.4-0.6-0.6-0.7,0.1c0.1,0.3-0.1,0.6-0.9,0.9c0,1-0.7,0.3-0.9,1.2v0.3h-0.6l-0.1,1c-0.4-0.1-1.1-0.1-1.4,0.2
				c-0.3,0.1-1,0.8-1.5,0.9c-0.9,1.5-3.2,1.1-4.3,3.1c-0.7,1.1-0.9,1.7-2.7,2.1v0.3l-0.3-0.1c-0.5,1.5-2.2,0.6-3.5,1.4
				c-0.5,0.9-0.9-0.4-1.7,0.7c-0.6-0.1-1.7,0.3-2-0.5h-0.6v0.6c0-1.1-1.2-0.3-1.8-0.3c-0.6,0.9-1.5,0.6-2.2,1.2
				c-1.4-0.1-1.7,0.4-2.6-0.3c-0.3-0.9-0.7-0.2-1.2-0.6c-0.9,1.1-2.2-0.1-2.5,0.7c-0.5-0.3-0.6,0-0.8,0.5c0.1,0.3-0.2,0.8-0.7,0.6
				c-0.5,0.6-1-0.9-1.2,0.3l-0.1-0.1C219.6,196.5,219.9,198.9,218.1,199.1z"/>
			<path d="M234.1,439.3l-0.1-0.6c1.1,0.2,0.4,0.7,0.5,1.5l-1-0.4C233.7,439.7,233.9,439.4,234.1,439.3z"/>
			<path d="M233.1,438.1l0.6,0.7l-0.5,0.2c0-0.1,0-0.2-0.1-0.2V438.1z"/>
			<path d="M233.2,439.1C233.1,439.4,232.9,439.6,233.2,439.1L233.2,439.1z"/>
			<path d="M231.8,434.8c0.7-0.1-0.1-1.5,0.7-0.6c0.3-0.5,0.8-0.1,1.1-0.3c0.6,0.1,1,1,1.6,1.2c-0.1,0.3-0.5,0.4-0.6,0.7
				c-0.3,0-0.6-0.1-0.7-0.4l-1.4,1.1l-0.7-1.7l-0.3,0.4v-0.6C231.7,434.7,231.8,434.8,231.8,434.8z"/>
			<path d="M226.6,222.7c0,0-0.1,0.1-0.1,0.1c0,0,0,0,0,0L226.6,222.7z"/>
			<path d="M208.8,363.1L208.8,363.1l-0.1,0C208.7,363.1,208.8,363.1,208.8,363.1z"/>
			<path d="M206.3,259.2C206.4,259.3,206.4,259.3,206.3,259.2C206.3,259.3,206.3,259.3,206.3,259.2z"/>
			<path d="M204.2,271.1l-0.3,0.3c-0.1,0.1-0.2,0-0.3,0C203.9,271.2,204,271.1,204.2,271.1z"/>
			<path d="M203.6,276.3C203.6,276.3,203.5,276.3,203.6,276.3C203.6,276.3,203.6,276.3,203.6,276.3z"/>
			<path d="M187.3,213.5C187.3,213.5,187.3,213.5,187.3,213.5C187.2,213.6,187.2,213.6,187.3,213.5z"/>
			<path d="M184.2,221.4l0,0.1c0,0,0,0,0,0V221.4z"/>
			<path d="M177.4,418.6C177.4,418.6,177.4,418.6,177.4,418.6C177.2,418.6,177.2,418.6,177.4,418.6z"/>
			<path d="M174,269.3c0,0.1,0.1,0.2,0.1,0.3C174.1,269.5,174,269.4,174,269.3z"/>
			<path d="M172,154.7l-0.2,0.2C171.9,154.8,171.9,154.7,172,154.7z"/>
			<path d="M170.2,191.6C170.2,191.6,170.2,191.6,170.2,191.6C170.2,191.6,170.2,191.6,170.2,191.6z"/>
			<path d="M166.5,70.1C166.5,70.2,166.5,70.2,166.5,70.1C166.5,70.1,166.5,70.1,166.5,70.1z"/>
			<path d="M165.5,127.3c-0.1,0.1-0.1,0.2-0.3,0.2C165.3,127.4,165.4,127.3,165.5,127.3z"/>
			<path d="M164.7,224.6l-0.2-0.1c0,0,0,0,0,0L164.7,224.6z"/>
			<path d="M162.9,315.7l0.3,0.1C163,315.8,162.9,315.8,162.9,315.7L162.9,315.7z"/>
			<path d="M162.8,305.7l-0.1,0.3c0,0,0,0,0-0.1v0L162.8,305.7z"/>
			<path d="M162.6,305.9L162.6,305.9L162.6,305.9l-0.2-0.2C162.5,305.7,162.6,305.8,162.6,305.9z"/>
			<path d="M162.4,305.5l0.1,0.1C162.4,305.6,162.4,305.6,162.4,305.5z"/>
			<path d="M162,302h0.1C162.1,302,162.1,302,162,302L162,302C162,302,162,302,162,302z"/>
			<path d="M161.7,417.5l-0.3-0.2l0,0C161.5,417.4,161.6,417.5,161.7,417.5z"/>
			<path class="st0" d="M245.9,428.7c0.1,0,0.4,0,0.5,0.1c-0.1,0.4,0.1,0.7-0.1,1.1c0.1,0.5,0.9,0,1.1,0.4
				C248.5,429.5,246.9,427.6,245.9,428.7z M240.4,439.9c0,0.4,0.3,0.5,0.8,0.5c-0.6-1,1.4-0.9,0.2-1.5v0.4c-0.2,0.1-0.5,0.5-0.7,0
				L240.4,439.9z M238.9,434.9l-0.2,0.2l0.2,0.1c0,0.1,0,0.2,0,0.3l0.2-0.3l-0.3-0.1C238.9,435.1,238.9,435,238.9,434.9z
				 M238.6,433.2c0.1-0.6,0.6-0.7,0.6-0.9l-0.7-0.7v0.1l-1,0.1c0.7,0.4,0.5,1.5,1.4,1.9c-0.1,0.3-0.3,0.4-0.4,0.5
				c-0.1,0-0.1,0-0.2,0c0.1,0,0.1,0,0.2,0c0.3,0,0.4,0.4,0.4,0.8l0.3-0.3c0.1-0.3,0.6,0.1,0.5,0l-0.3-0.1l0.6-0.7
				c-0.3-0.5,0.9-1.1,0.1-1.5l-0.2,0.3l-0.1-0.1C239.4,432.7,239.3,433.5,238.6,433.2z M233.2,439.1
				C232.9,439.6,233.1,439.4,233.2,439.1L233.2,439.1z M233.7,438.9l-0.6-0.7v0.7c0.2,0,0.2,0.1,0.1,0.2L233.7,438.9z M233.9,438.6
				l0.1,0.6c-0.1,0.1-0.4,0.5-0.6,0.5l1,0.4C234.3,439.4,235,438.9,233.9,438.6z M232.6,434.2c-0.9-0.9,0,0.5-0.7,0.6
				c0,0-0.1-0.1-0.3-0.1v0.6l0.3-0.4l0.7,1.7l1.4-1.1c0.1,0.3,0.5,0.4,0.7,0.4c0.1-0.4,0.5-0.5,0.6-0.7c-0.6-0.3-1-1.1-1.6-1.2
				C233.3,434,232.8,433.7,232.6,434.2z M160.5,417.1c-1.4-1.2-4.8-2.2-6.8-3.1c0.1-0.4-0.5-1-1.5-1.1c-1.4,0.5-2.2-2.2-3.2-2.5
				c-0.1-1.4-2.2-0.7-1.5-2.4l0.4-0.4c-0.6-1.4,2.4-2.7,2.6-4.7c-0.3-0.5,0.7-1.2,0.5-1.9c1-1.5,1.1-2.6,1.5-4.1l1.1-0.9l-0.1-0.1
				l0.5-0.6c0-0.9,0.7-1.9,1.1-2.6c0-0.5,0.5-1.1,0-1.2c0.9,0-0.3-1.3,0.7-1.4c-0.5-1.9,0.9-3.6,1.7-4.8c0.4-0.4,1.1-0.3,1.2-1.1
				c0.6,0.3,2.1-0.4,2.2,0c-0.2,0.1-0.1,0.4-0.1,0.6c0.9,0.3,0.7,1.5,1,1.6c-0.3,0-0.3,0.3-0.5,0.4c-0.1,0.4,0.4,0.4,0.5,0.8
				l0.3-0.4c0.1,0.8,1.2,0.3,1,1.2l-0.4,0.3l0.4,0.4c1.2-1.7,0.7-3.6,0.1-5.2c1.1-0.2,0.3-1.7,0.8-2.2c-0.5-0.4-0.1-0.4,0-0.7
				c0.4-1.1-0.1-2.2,0.4-3.6c-0.9-0.5,0.4-2.2-0.3-3.5c0.1,0.2,0.4,0.2,0.5,0c-1-4.2,1.1-6,0.4-9.7h0.1c-0.1-2.5,0.9-4.6,0.4-6.7
				h0.3c0.9-0.8-1.1-1.5,0.1-2.1c-0.4-1.1,0.7-2.6,0-3.5c-0.5-0.6,0.7-1.9-0.1-2.2l0.1-0.5c0.4-0.4,0,0.5,0.4,0.6
				c0.8-1.5-0.1-3.2,0.9-4.9c0.5-1.1-1-2.2,0.1-3.3c-0.1-2-0.2-3.7-0.4-5.8c0.6-0.3-0.1-0.9,0.1-1.5c-1.1-0.5,0.1-1,0-1.6l-0.4-4.2
				c-1,0,0.4-1.2-0.9-0.9l0.1-1.2c1-0.4,0.7-1.9,0.7-2.6c-1-2.1,0.9-1.9-0.4-3.6c0.8-0.7,0.4-2.1,0.9-3l-0.3-1.1l0.1,0.2
				c0.2-0.7,0.1-1-0.1-1.5c0.6-0.7,0-1.9,0.3-2.6c0.9-0.4,0.1-1.6,0.1-2.1c1,0-0.1-1.1,0.5-1.6c-0.3-2.2,1.4-4.2,0.1-6
				c0.9-0.7,0.1-1.5,1-2.1c0.1-1.9,0.8-3.1,1-4.7c0.9-1.7,0.1-2.9,1.1-4.7c-0.3-1.1,0.5-2.1,0.7-3l-0.4-0.3c1.6-1.6-0.3-3.3,1.1-5
				c-0.9-1.1,0.6-2.4,0.8-3.6v-1.6H173c1.1-1.1,0.1-3.7,1.2-5c0.1-0.9,0.2-2.2-0.1-3.2c0,0,0.1,0.1,0.1,0.1c1.6-1.6,0.1-4.2,0.9-6
				c-0.9-1.1,1.1-2.1-0.1-3c1.1-1.6-0.5-4,0.9-5.3c-0.5-3.7,0.9-7.8,0.7-11c0.4,0.1,0.5-0.4,0.4-0.6v-0.5h-0.5
				c0.3-0.3,0.1-1.2-0.3-1.6c-2,0.1-2-1.2-3.5-2.3c0-1.5,0.1-2.2-0.5-3.7l-0.1,0.1c-0.5,0-0.6-1.9-1.2-2.4c0.6-0.4,0.1-1.2,0-1.7
				c-0.3-1.2-1.7-2.2-1.6-3.3c0.3-0.3,1.6-0.6,1.4-1.7v-0.5c0.7-0.1,0.3-1.4,0.4-1.7c1.6-0.3,1.1-2.5,2.7-2.9
				c0.6,0.1,1.7,0.4,2.2-0.1c2,0.4,3.1,0,4.9,0.7c0-0.7,0.6,0.1,0.9-0.4l2.5,0.4l-0.1-0.6c0.1,0.2,0.3,0,0.6-0.1
				c0-0.1-0.1-0.3-0.1-0.4c0-0.4,0.6,0.2,1-0.4c-0.9-1.6,1.6-1.7,0.7-3.1c0.3,0,0.4-0.4,0.6-0.5c-0.1-1.4,0.7-2.2,0.3-3.5
				c0.1-0.1,0.4-0.6,0.1-0.9c0.7,0.3,0.2-0.3,1-0.6l-0.3-1.1c0.3-0.1,0.6-0.3,0.5-0.6c-0.5-1.5,0.6-2.9,0.9-4
				c-0.1-1.2,1.2-2,0.6-3.2c0.5,0.6,0.9-0.3,1-0.5c-0.1-1.6,1.4-1.6,1.4-2.9c1.8-0.1,3.2-3.1,5.1-2.8v-0.6c0.7,1.6,2.7-0.6,3.6,0.9
				c1.7-1,3.2,1.4,4.3,1c1,0.5,1.5,2.2,1.9,3.1c-0.1,1.4,1.9,3.2,0.5,4.4l0.6,2.2l-0.6,0.1c1.1,0.3,0.2,2,0.7,2.8
				c-0.7,0.3,0.3,0.9,0,1.1c-0.1,2.2,1.2,4.6,1,6.7l0.5,0.3c-0.5,0.7-0.4,2.2-0.1,3.1c0.1-0.1,0.1,0,0.3,0.1l-0.3,0.2
				c0.3,0.6,1.5,1.4,1.7,0.3c0.3,0.6,0.8,0.5,1.4,0.7c0.4-1,0.9,0.3,1.7-0.4c2.8,0.1,5.7,0,8.7-0.3l0.3,0.3c0.1-0.3,0.6-0.4,0.5-0.7
				c0.1,0.4,0.2,0.7,0.7,0.6c0.2-0.9,1,0.6,1.6-0.1c0.4,0.2,0.6,0.2,0.8-0.1c0.1,0.7,1,0.3,1.5,0.4c0.5-0.6,1.6-0.4,2.7-0.4
				c0,0.1,0.3,0.5,0.6,0.4h0.8v-0.3c0.6,0.1,1.7,0.3,2.3-0.1c-0.1,0.1,0.1,0.3,0.2,0.4c1.7-0.5,3.5,0.7,5.2-0.1c1,1,2.9,0.5,3.8,0.7
				c1.7-0.5,4.7,1,6.8,0.5l0.4,0.2c0.7-0.1,0-0.6,0.9-0.5h-0.3c0.3,1.2,1.9,0.4,2.6,1.1c0.7-0.3,1.6-0.4,2,0.3l0.4,0.5l0.5-0.5
				c-0.1,0.7,1-0.1,1.4,0.1c1.1-0.1,2.4,1.1,3.7,0.6c1.4,0.5,3.6,0.6,5.6,1.6c1.4-0.7,1.9,1.6,2.9,0.6c2.4,1.1,5.6,1.1,7.5,3.5
				c0.4,1.1,0,2.2,0.3,3.2c-0.6,0-1,0.4-0.7,1.1c-1.4-0.1-2.5,0.5-3.5,1.1c1,1.1-0.6,0.3-0.3,1.5c-1.2,0-1.5,0-2.2,0.6
				c0.8,1.1,0.5,2.6,0.8,3.8c0,0.1,0,0.4-0.3,0.5c0.9,0.3,0.4,0.6,1.2,0.4c1.2,0.6-1.7,2.2-0.3,3c-0.5,0.9,0.1,2,0.5,2.9
				c1,0,0-1.1,1-1.1l-0.6-0.8c1.9,0.4,0.5-3.2,2.4-1.1c0,0.4,0.1,0.7-0.1,1.1l0.4,0.4l0.2-0.1c0.1,0.6-0.2,2-0.4,3h0.5
				c-0.1,1.2-0.4,2.8-0.5,4.3c0.7,0.8,0.6,3.2,0.1,4.6c0.5,1,0.4,2,0.6,2.5c-1,1.4,0.5,3.2-0.4,4.3c-0.4,0.9,0.1,1.9-0.5,3
				c0.5,0.8-0.4,1.7,0.1,2.6c-1.7,1.6,1.5,2.1-0.3,3.5c0.5,1,0.3,1.5,0.8,2.5c0.1,1.2,0.1,1.2-0.1,2.3c0.4,1.5-0.2,2.5,0.9,3.8
				c0.3,2-0.9,2.4-0.1,3.7l0.4,0.1c-0.3,0.3-0.9,0.7-0.4,1.2c0.1,0.3,0.2,1.1,0.2,1.5c0.6,0.9-1.4,1.5,0.1,2.2
				c-0.1,0.1-0.3,0.4-0.3,0.6h0.2c-0.5,0.1-0.5,0.6-0.2,1.1l-0.1-0.1c-0.1,0.4,0.7,1.5-0.3,1.7c1.4,0.4,0.1,1.6,0,2
				c0.5,2.2-0.7,5-0.1,6.8c0.1,1.1-0.9,3.2,0.1,4.8c-0.7,0.1-0.1,1.1-0.5,1.7l0.4,0.1l-0.6,0.4c0.7,0.4-0.6,2.2,1,3.1
				c-0.4-0.1-0.5,0.2-0.8,0.4l0.3,0.7c-0.1-0.1-0.3-0.1-0.5-0.1c0.6,1.1-1,2.3-0.3,3.1c-0.6,0.7,0,1.5-0.6,2.2
				c0,2.1-0.5,3.2-0.4,4.7c-0.5,0.1-0.5,1-0.4,1.5c0.9,0.5-0.3,0.7-0.4,1.1c0.5,1.7-1.1,3.2-0.4,4.8h-0.1l0.1,0.8
				c-0.6,0.4-0.5,2.4-0.6,3.3c0.5,0.4,0,1.6-0.1,1.9c0.3,0.9-0.4,1-0.3,1.9l-0.1-0.1c-0.2,0.6-0.3,1.7,0.2,2
				c-0.3-0.1-0.6-0.2-0.9,0.2c-0.1,0.4,0.1,1.2,0.4,1.3l-0.5,0.1c-0.4,1.2,0.1,2.4-1.1,3.2c0.5,0.6,0.1,1,0.5,1.6
				c-1.5,1.5-0.8,4.7-2,6.6l0.5,1.5c-0.9,1.2-0.7,1.7-0.9,2.9c0,0-0.9,0.6-0.4,1c0.6,0.2,0.1,0.9-0.1,1.1c0.1,1.4-0.1,2.2-0.5,3.6
				c0,0-0.1,0.1-0.1,0.3c0.3,0.4,0.5-0.1,0.6-0.1c-0.1,0.3,0.3,0.3,0.3,0.4c0.4,0-0.4,0.1-0.4-0.1c-1.1,1.6,0.4,2.8-0.5,4.6l0.6,0.4
				l-0.1,0.4v-0.1c-1.1,0.4,0,2.6-0.9,3.6c0.9,0.9-0.9,0.9,0,2h-0.4c0.3,1,0.3,2.6,0,3.3c-0.5,0.5-0.3,1.9-0.7,2.6
				c-0.3,1.2,0.5,1.1,0.4,2.5h-0.3v1c-0.1,0-0.3,0.3-0.4,0.4c-0.4,0.5,0.6,1.1-0.4,1.4c0.2,0,0.2,0.3,0.2,0.4
				c-0.1,0-0.2-0.1-0.4-0.1c0.5,0.9-0.1,1.2-0.1,2.1h0.3c0.4,2.9-1.7,2.6-1,6c0,1-1.1,1.7-0.3,2.6c0.1,1.2-1,1.8-0.3,3
				c-0.9-0.1-0.3,1-0.9,1.2l0.5,0.9h-0.4c-0.6,1.5,0.6,2.7-0.3,4.3c0.1,0.6,0.4,1.6,0.3,2.7c-0.7,0.6,0.4,0.5-0.4,1.1l0.4,0.9
				l-0.3-0.3c-0.3,0.7-0.1,1.6-0.1,2.4l-0.5,0.4c0.1,0.5,0.3,1.6-0.4,2.2c0.1,0.4-0.9,1.9-0.3,2.2c-0.2,1-1.5,2.2-0.9,3.5
				c-0.8,1-0.8,3-1.7,4c0.5,0.7-0.5,0.9-0.5,1.5l0.4,0.3c-1.4-0.3-1,1.2-1.2,2.2l-0.5-0.5c-0.8,0.6,0.4,0.9,0,1.4
				c0.4-0.1,0.5,0.1,0.6,0.4l-0.6,0.1c0.1-0.3-0.1-0.5-0.3-0.6c-1.6,0.6-0.6,2.1-2.1,2.7c-0.5,1.1-2.2,2.1-1.6,3.7l-0.8-0.6
				c0.3,1.4-1.4,0.6-1.6,1.9v-0.1l-0.9,0.5v-0.5c-0.5,0.5-1.5,0.4-2.2,0.5c-0.3,0.5,0.1,1.6-0.6,2.1c0.3-0.4-0.9,0.4-1.2,0.7
				c0.1,0.8-1.1,0.4-1.6,0.9c-0.9-0.1-1.1,1.2-2.3,1.1c-0.7,0.6-1.1-2-2.4-0.9h-0.9v-0.3l-1,0.3c-0.9-1.1,0.9-3.3-1-3.7
				c-1-0.2-2.2,1.2-2.9-0.1c-0.4,0.5-0.4,1.5-1.4,0.9c-1.4-0.3-0.9-1.2-2-1.1c-0.6-0.5-1.1-0.4-1.9-0.2c-0.4,0.5,0.7,1,0.1,1.5
				c-1.4,0.6-0.5-2-2.2-1.5c-0.4-0.6,0.4-1.4,1-1.5c0.7,0.3,1.1-0.4,1.6-0.9l-0.9-0.9c-0.7,0.7-1.5-1-1.7,0.1
				c-0.4,0.1-1,0.5-1.5,0.1c-0.1-0.6,0.2-0.7,0.7-1.2c0-1.1-2.2-0.6-1-1.9l-0.3-0.7c-1.4-0.4-1.5,2.4-2.9,0.7
				c-0.1,0.3-0.4,0.1-0.5,0.1v-0.1c-0.5,0.1-0.1,0.9-0.7,1.2c0.4,0.9,0.4,0.3,0.4,1.1c-1.1,0-1,1.6-2.5,1.2c-1-1.4-2-0.3-3.1,0
				c-0.3-0.9-2.1-0.7-3.1-1.4l-0.7,0.7c-0.1-0.3-0.4-0.5-0.6-0.7c-0.9,0.6-1.1-1.1-1.9-0.7c-3.3,0-5.2,2.1-7.9,0.9
				c0-0.6,0.7-1.1,1.2-1.2l2.2-1.7c-0.1-0.1-0.4-0.1-0.5-0.1c1.1-1.7-3.1-2.7-0.7-4.7h0.1c0-0.7,0-1.9,0.6-2.4
				c0.3,0,0.4-0.3,0.6-0.4c0-0.7,1-1.7,0.9-2.4l1-0.9c0.4-0.5,0.5-2.2,1.7-2c0.3-0.6,0.9-0.7,1-1.6c2.2-0.9,3.8-2.7,5.1-4.7
				c0.2-0.5,1-0.3,1.1-1c-0.3-0.1-0.1-0.5-0.1-0.8l0.1,0.3c0.9-0.6,0.5-1.5,1.2-2.1c0.9-1.1,1.2-2.6,2.1-4.1c0-0.6,0.4-1.4,0.9-1.9
				c1,0.1,2.7-1,3.6,0.2c0.9,0.5,1.4,2.2,1.6,2.7h0.9l-0.2,0.2c0.9,0.5,0.9,1.1,2.1,0.9l-0.3-0.4c0.6-0.3,0.3-1.2,1-1.1
				c0.1-0.6,0.5-1.6,1-2c0.6-0.7,0.5-2,1.2-2.8c0-0.3-0.3-0.5-0.4-0.6c1.1-1.2,0.4-1.7,1.6-3.5c0-2.8,1.9-5.6,1.9-7.8
				c1.1-0.9,0.2-1.7,0.7-3c0.6-1.8,1.1-3.5,0.9-5.2c0.1-0.6,0.2,0,0.6,0c-0.5-0.5,1-2-0.1-2.4c0.9,0,0.4-0.5,0.7-1.1
				c0-0.5-0.4-0.9,0.3-1.1c-0.4-1.5,1.2-2.5,0.3-3.6c0.3,0,0.4,0,0.5-0.1c0.1-0.4-0.1-0.5-0.2-0.6c1-1.4,0.4-2.7,1-4.2
				c0.2-1,0.2-2,0-2.8c-0.1-0.9,0.5-0.4,0.7-1.1v-2h-0.1c0.1-0.1,0.6-0.7,0-0.9c-0.1-1.2,1.7-2.5,0.4-3.5c0.7-0.5,0.5-1.6,1-2.6
				c-0.5-0.9,0.5-2.7,0.4-4.3c0.4-2.2,0.6-3.7,0.9-6.1h0.4c-0.5-1,0.5-2.5,0-3.3c0.6,0.1,0.5-0.8,0.6-1c-0.4-1-0.1-1-0.4-1.7h0.8
				c-0.3-1.2,0.6-2.5-0.1-3.5c0-1.2,0.9-2.4,0.5-4.3c0.7-0.5,0.4-1.4,0.3-2.2l-0.1,0.1c-0.6-1.2,0-0.4,0.3-1.2
				c-0.4-1.4,0.7-3.7,0-5.2c0.3-1.7,0.3-3,0.5-4.4c-0.1-2.5,0.1-6.1-0.1-8.4c0.1-0.6-0.4-1.6,0.3-1.9c-0.6-1.5,0.5-2,0-3.5
				c0.1-0.8-0.3-3,0-4.1c0.7-2-0.4-4.6,0.5-6.7c-0.5-1.4,0.3-2.2,0-3.3h0.3c-0.6-2.2,0.5-5,0.1-7.1c0.7-1.1,0.2-2.9,0.6-4.1
				l-0.5-0.2c1.1-1.1-0.3-3,0.6-4.3c0.3-0.4,0.1-0.9,0.1-1.4l-0.5-0.4c0.7-0.6,0.7-2.4,1.1-3.5c0-0.3-0.3-0.1-0.4-0.1l0.5-0.7
				c-1-1.5,1-2,0.4-3.6c0.1-1.7,0.4-2,0.6-3.8h-0.4l0.5-0.4c-0.5-0.4,1.1-1,0.1-1.6c-0.2-0.5,1.1-0.9,0.5-1.6
				c0.9-0.5,0.4-1.6,0.5-2.5c0,0.2,1-0.5,0.6-0.6c-0.4-0.5,0.9-0.6,0-1.1c1.1-0.6,1-2,0.9-2.9c0.1,0.1,0.3,0.1,0.4-0.1
				c-0.3-0.6-0.6-1-0.7-1.5c0.1,0.2,0.2,0.3,0.4,0.4c0.3-0.1,0.5-0.6,0.1-0.7c-0.3-0.5-0.9-0.3-1.4-0.4l-0.3,0.3
				c-0.3-0.4-1.2,0.5-1.8,0.2v0.1c-0.1,0.1-1.2-0.1-1.6,0.1v-0.1c-1.2-0.7-3.1,0.4-4.3-0.6c-0.5,0.9-0.9-0.1-1.4-0.2
				c-0.2,0.1-0.1,0.2-0.1,0.5c-0.7-1-1.9,0.7-2.2-0.6l-0.5,0.4c-0.4,0.1-0.8-1-1.4-0.2c-0.7,0.1-1.6-0.5-2.5,0.1
				c0.1-1-0.6-0.3-1-0.7c-0.9,0.1-1.7,0-2.7-0.4c-0.5-0.3-2.2,0.4-2.8,0c-1.1-0.5-3.3,0.2-5.1,0v0.2c-1.1-0.7-2.6,0.1-3.7-0.1
				c-1.1-0.3-2.5,1.1-3.5,0.4c-1,1-1.7-0.6-2.6,0.4l0.1-0.4c-0.8,0.5-1.9-0.1-2.6-0.4l-0.4,0.6c-0.1-0.4-0.8,0-0.9-0.5
				c-0.1,0.1-0.4,0.4-0.3,0.6c-0.4-0.5-0.7,0.1-0.9,0c-0.3,0.6,0.4,0.1,0.4,0.4c-0.4,0.1-0.5,1.4-1,2l0.1,1h0.3v0.4
				c-0.5,0-0.8-0.3-0.9,0.4c0.6,1-0.5,1.7-0.1,2.2c0.1,1.6-1.5,1.7-0.8,2.8c0,0.1,0,0.3-0.1,0.5c-0.2,0-0.7,0-0.6,0.4
				c0.7,1.1-1.1,1.2-0.5,2.5c1.1,0.5-1.1,0.6,0,1.2c-0.1,1-1.5,1-0.9,2.1c-1.2,1.7-0.7,3.8-0.9,5.7c0.1,0.1,0.1,0.2,0.2,0.2
				c-0.4,0.3-0.7,0.9-0.7,1.3c-0.4,0.6,0.1,1.1,0.3,1.9l0.4-0.2c-0.5,0.5-0.8,1.7-0.1,2.1c-0.2,0-0.4,0.1-0.5-0.1l-0.1,0.1
				c1,0.5-0.1,0.6,0,1.5c0.8,0.6,0.5,1.6,0.5,2.4h-0.1c0.4,0.4-0.6,1.4,0.5,1.2v0.2h-0.5c0.5,1.1-0.1,2.5,0.7,3
				c-0.7,2.4,0,4.8-0.3,7.4c0.9-0.6,0.3,0.7,0.6,1c-0.3,1-0.1,2.2-0.1,3.3c0.6,0.6,0.1,1.5,0.2,2.2c0.4,1.2,0.5,2.2,0.6,3.7
				c-0.1-0.1-0.7,1.1-0.2,1.5h0.2c0.1,0.3-0.1,0.3-0.2,0.4c1.6,1.4-1.5,2.7,0.4,3.7c-0.1,1.6,0,2.6,0.5,4.2l-0.5,0.1
				c0.6,0.6-0.1,1.2,0.7,1.5c-0.6,0.9-0.1,2,0.3,2.9l0.4,0.1h-0.3c0.4,1-0.5,1.5,0.6,2.3c-0.4,0.5-0.6,1.2-0.4,2
				c0.4,0.3,0.6,0.7,0.4,1c-0.1,0.3,0,0.3,0.1,0.4h0.3c-0.7,0.7,0.1,1.7,0.5,2.8h-0.1c0.5,1.2-0.3,2.8,0.9,4.1
				c-0.5,0.9,0.9,2,0.4,2.9h0.3v0.3h-0.3l0.6,1.5c-0.5,0.1-0.1,0.9-0.3,1.2l0.6,0.1c-0.9,0.8,0.3,1.6-0.5,2.2
				c0.5,1.7,0.2,3.8,0.5,5.3l0.3,2.6h0.3c-0.9,1,0,1.6-0.4,2.6c-0.5,0.4,0.4,1.2-0.4,1.5c0.4,1.7-0.1,3.2-0.4,5.1
				c-0.4,1.1-0.1,2.7,0.3,3.8c-0.7,0.3-0.5,2.2-0.9,3.6h0.1v1.1c0,0-0.2-0.1-0.2-0.2c0.3,2.1-1.5,5.3-0.6,7.7c-0.9,1,0.5,3-0.6,3.7
				c0.1,0.5-1,1.9-0.1,2.4c-0.1,0.3-0.4,0.5-0.6,0.8c0.6,0.5-0.4,1.2,0.1,2.3v0.6c-0.1,0-0.4,0-0.4,0.1c-0.1,0.6,0.4,0.1,0.4,0.5
				c-0.9,1.2-0.4,3.3-1.1,4.7c0.4,0.6,0.6,0.9,0.3,1.5c-0.4,0.3,0.1,1.1-0.3,1.5c0.1,0.6-0.3,0.9-0.5,1.5c-0.4,0.1-0.4,1.1,0,1.6
				H205c0.1,0.9-0.5,2.4,0.3,2.7c-1.4,0.4-0.3,2.1-1,3.1c0.2,0.5,0.9,1.1,0.2,1.5c-0.1,0-0.1,0-0.2-0.1c-0.5,0.9-0.5,1.9,0.1,2.5
				c-0.7,0.7-0.5,2.5-0.7,3.6l0.4,0.4c-1-0.4-1,1.1-1.2,1.6l0.1,0.1c-0.4,0.1-1.5,1.2-1,1.6c-0.9,0.4-1.2,1.4-2.4,1.6
				c-1.4,1.6-1.2,3.8-3.3,5c-0.4,2.5-2.5-0.6-3.2,1.7c-0.5,0.6-1.4,0.1-1.6-0.3l-0.4,0.5l-0.3-0.4c-0.2,0.1-0.1,0.4-0.1,0.5
				c-0.4,0-0.9-0.1-0.7,0.3v0.4l-0.4-0.4c-0.4,1.1-1.5,0.4-2.2,0.5c-0.5-0.3-1.1,0.3-1.5-0.7c-0.4,0-1.4,0.1-1,0.7v0.4
				c-0.5,1-2.1-0.2-2.9,1c-0.6-0.4-1.2-0.1-1.7-0.2v0.5l-0.3-0.1c-0.2,0.6-0.9,0.4-1.2,0.9c-1.4,0.5-1.5-1.1-1.4-1.9
				c0.1,0,0.3,0,0.3,0.2c0-1-0.4-1.2-0.9-2c-0.5-0.4-1.4,0.1-2.1-0.5c-0.5,0.6-1.1,1-1,1.9c-0.6,0.5-1.6,0.7-2.6,0.9l-0.1,0.1
				c-0.9,0-0.4-1-0.1-1.6c-0.7-1.1-2-1-3-1.7l-0.3,0.4c0-0.1-0.1-0.4,0.1-0.4c-0.5-0.3-1.1-0.4-1.5,0.3c-0.9-1-0.9,0.5-1.6,0.5
				c-1.2-0.5-2-0.4-2.8,0.4l-0.4,0.4c-0.3-0.2-0.7-0.3-1,0L160.5,417.1z M254.1,403.2v-1C254.1,402.6,253.5,403,254.1,403.2z"/>
			<path d="M139.1,162.7C139.1,162.7,139.1,162.7,139.1,162.7l-0.3-0.3C139,162.4,139.1,162.6,139.1,162.7z"/>
			<polygon points="138.1,389.1 138.2,389.6 138,389.6 			"/>
			<path d="M130.8,236.8C130.8,236.8,130.8,236.8,130.8,236.8l-0.1-0.2C130.7,236.7,130.8,236.7,130.8,236.8z"/>
			<path d="M127.6,165.9c0.2,0.1,0.4,0.4,0,0.5V165.9z"/>
			<path d="M127.6,165.8L127.6,165.8C127.5,165.8,127.4,165.8,127.6,165.8z"/>
			<path class="st0" d="M123.1,196.5c-0.6-0.6-0.7,0.9-1.2-0.1c-1.5,0.8-1.1,0.9-2.8,1.2c0.3,1.5-1.5,0.6-2,1.1
				c-1.1,0.2-2.2,0.9-3.3,0.5c-0.6,0.4-1.6-0.3-2.1,0.6c-1.7-2-4.8,1.2-5.7-1.5c-0.3-0.1-0.4-0.5-0.6-0.5v0.6
				c-1.1-2.2-0.5-4.2-2.6-6.1c0.4-0.7,0.3-1.6,0-2.6l-0.4-0.4c-0.3-2.2-0.1-4-0.9-5.8c0-0.7,0.3-1.6,1-2c1.1-1.4,3.1-2.4,4.3-4
				c0.9,0.5,0.9-1,1.7-0.9c1-1.5,2.5-2.1,3.5-3.6c1.4-0.4,2.5-1,3.6-1.7c2.1-0.9,4.5-1.9,6.3-2.9v0.1c0.4,0.4,1.1,0.1,1.2-0.5
				c0.4-0.1,1.2,0,1.6-0.5c0.1,0.2,0.5,0.2,0.7,0.1c0.6-0.5,0-0.6,0.7-0.9l-0.1,0.1c0.5,0.5,0.9-0.4,1.5-0.1v-0.6l0.9,0.6l0.3-0.5
				c0.2,0.4,1.4-0.7,1.8-0.1c1-0.8,2.6-1,3.7-1.5l-0.4-0.4c1.1,1.1,2.5-0.7,3.5-0.5c0.1-0.2,0.4-0.5,0.3-0.7
				c0.5-0.3,0.5,0.3,0.6,0.4c0.2-0.3,1-0.6,0.9-1c0.7-0.5,0.1-0.5,0.7-1.1h-0.4l0.6-0.3c-0.9-1.2,0.3-1.2,0.1-2.3
				c0.3,0,0.5,0,0.7-0.4c0.1-0.5-0.6-0.5-0.7-0.7c1-0.8-0.3-2.5,1-2.7c0-1.1,0.1-1.8-0.1-2.6c0.8-1.1,0.4-3,1-4l-0.4-0.1
				c1.4-2.2,0.8-5.1,1.7-7.3c-0.4-0.5-0.1-1.1,0-1.5c-0.5-0.1-0.4-1.5-0.1-2l0.3-0.3c-0.9-0.5,0.9-0.3,0.4-1.1v-2.6
				c0,0,0.1,0.1,0.3,0.1c-0.4-2.4,1-3.5,0.9-5.7c0.1-2.6,0.7-5.1,2.5-7.5c0.5-1.5,0.6-3.1,1.6-4.6l0.1-1.6l0.3,0.2
				c0.6-1.8,2-3.5,2.7-5.6c1-0.4,1.1-1.7,1.6-2.6c-0.4-0.6,0.3-1.1,0.4-1.6c1.6,0,1.6-3.2,3.2-1.2h0.5l-0.5,1.4c1.2,0,1,2,2.5,1.5
				v0.5l1,0.1l-0.4,0.6c1.2,0.6,2.2,1.9,3.1,1.5c0.4,0.4,1.2,0.5,2,0.9c1.4-0.1,2.5,0.3,4,0.5c1.6,0.6-0.4,1.6,0,2.6
				c0,0.8-1.1,2.4-0.9,3.4c-0.1-0.1-0.3,0-0.4,0c-0.4,0.1-0.1,0.5-0.3,0.7l0.4,0.3c-1,0-0.7,1.1-1.2,1.6c0.4,0.7-1.1,2.9-1.6,4.3
				c0.6,1-1,0.3-0.2,1.2c-0.1,0.6,0.9,1.6-0.4,2c0,0.4-0.1,0.6,0.1,0.7c0,0,0.1,0,0.1,0c-0.5,0.5,0.9,1.7,1.1,1.8
				c-0.8,0.7,0.1,1.2,0.2,2.4c1.4,1,0.3,2.7,1.7,3.8c-0.3,0-0.3,0.1-0.4,0.1c-0.1,0.5,0.4,0.5,0.5,0.6h0.3c-1.5,1.1,1.1,1.7-0.1,2.8
				c0.2,0.3,0.4,0.5,0.1,0.7c0.4,0.3,0.9,0.5,0.9,1h-0.3c0-0.1-0.1-0.1-0.1-0.2c-0.9,0.6,0.4,1.4-0.5,2c0.7,1.2,0.4,2.1,0.5,3.3
				l0.4,0.4l-0.3,0.3l0.5,0.6c-0.2,0-0.2,0.2-0.2,0.4c0.1,0.2,0.4,0.2,0.5,0.2c0,0.2,0.1,1.3,0.6,1c-0.4,0.6-0.4,1.5-0.4,2.4
				l0.5-0.4c-0.4,0.9,0.5,0.7,0.5,1.7l-0.5-0.3c0.4,0.9,0.5,2.4,0.6,3.2l0.4-0.5c-0.2,0.3-0.3,0.6-0.3,0.9c0.9,0,2.4,1.2,3,0
				c1.1,0.1,2,0.5,3,0.1c0.7,0.7,1.6,0,2.4,0.7c0.7-0.4,2.1,0.4,2.6-0.7c0,0.3,0.3,0.4,0.4,0.6c1.1-0.8,1.5-0.6,2.7-0.8v-0.2
				c0.4,0.4,1.5,0.6,2.1,0c-0.1,0.2,0.1,0.4,0.3,0.5c0.6,0.1,1.2,0,2-0.3c0.2,0.4,1.9,0.4,2.5,0.5c-0.1,0.3,0.1,0.4,0.3,0.5l1.1-0.3
				c0.1,1.5,0.8-0.4,1.5,0.4c0.5,0.4,1.1,0.1,1.6-0.3c0.9,0.6,1.2-0.6,2.2-0.6c1.1-0.4,1.8,0.3,2.8,0.5c1.2,1.2-0.6,3.1,0.4,4.6
				l-0.1-0.1c-0.4,1-0.5,1.5-0.6,2.5c1.2,0.4-0.2,1,0.3,1.4c-0.5,0.3-0.4,1.2-0.4,1.6c0.1,2.2-2.1,4.2-0.4,6.7
				c-0.7,1.6,0,3.2-0.6,5.1c1.4,1.2-0.9,2.3,0.3,3.8c-0.5,1.1-0.5,3.5-2.4,3.6c0.4,1-0.4,1.4-1.2,1.7c-1.5-0.3-3.8-0.6-4.9,0.7
				c-0.8,0.1-1.4,0.3-2.1,0.8l-0.6-0.3c-0.3,1.2-2.9,0.7-3.6,0.9c-0.5,0-1-0.4-1.7-0.1l-0.5,0.7c-0.2-0.6-0.7-0.1-1,0
				c-0.9-0.4-2,0-2.4,0.3c-0.9-0.7-2,0.1-2.8,0c0.1,1.4-1.2-0.1-2,0.1c-1,0.6-2.1-0.1-2.6,1.2l-1-0.9l-0.2,0.2l-0.3-0.4
				c-0.3,0.5-1.2,0.2-1.1,0.8c-0.1-0.2-1-0.4-1.5,0.1c0.4,0.3,0.5,0.7,0.9,1c-0.8-0.5-0.9,0.4-1.1,0.7c-0.4,1.4,0,2.7-0.5,3.6
				c0,0.5-0.6,1.6,0.4,1.5c-0.6,0.9-0.8,2.5-1.1,2.7c0.6,0.9-0.6,1,0,2.2c0.4,1.4-1.5,1.6-0.7,3.1c0.1-0.1,0.1-0.2,0.4-0.1
				c0.3,0.5-1.5,0.9-0.5,1.6c0.1,1-1.4,2.5,0,3.3c-0.9,0.7-0.3,1.5-0.5,2.2h0.4c-0.1,0.5-1.2,1.9-0.1,2.2c0,0.9-0.7,1-0.5,1.7
				l-0.1-0.3c-0.5,0.4,0.1,0.6,0.1,1h0.1v0.3l-0.4-0.3c-0.4,1.5,0.6,2.7-0.6,4.5c0,0.4,0.9,1.6-0.4,1.6l0.2,0.1
				c-0.4,0.4,0.3,0.6,0.2,1l-0.6,0.3c0.4,1.4,0,2-0.6,3.1c0.4,1,0.5,2.5,0.6,3.3h-0.5c0.3,1.4,0.1,2.5,0.8,3
				c0.1,0.3-0.8,0.1-0.4,0.7c0,0.5,0.4,0.3,0.4,0.6c-0.5,0-0.8,1.1-0.3,1.9c0.1,0.1,0.5,0.1,0.6,0.4l-0.5,0.6c0,0.4,0-0.1-0.1-0.1
				c-0.7,0.8,0.9,1,0.6,1.7l-0.5-0.1c-0.1,0.9-0.1,2,0.4,2.9c-0.7,0.3,0,0.6-0.2,1.1l0.6,0.4c-0.3,0.2-0.9,0.5-0.6,1h0.4
				c-0.5,1.1,0.3,1.7-0.1,3h0.4c-0.5,1.2-0.3,2.4-0.1,3.6h0.1c0,0.9,0,0.9,0.1,1.7l-0.1-0.1c-0.4,0.2,0,0.7,0.1,0.7H165
				c-0.5,2.1,0,6.4-1,8.1c0.7,2.7,0.4,4.6-0.6,7.3c0.5,0.9,0.1,2.5,0.9,3.8l-0.7,0.9l0.4,0.4h-0.3c-0.6,1.6-0.1,4.1-0.1,6.1
				l-0.7,0.7l0.6,0.6c-0.3,0.1-0.1,0.7,0,0.8l-0.7,0.7c0.8,0-0.2,0.4,0.3,0.7c-0.7,0-0.1,0.7-0.3,1l0.5,0.1
				c-0.7,1.5-0.5,3.2-0.7,4.8c1.4,0.7-1,1.7,0.2,2.7c-0.9,0.6,0,1.5-0.2,2.1v0.9c-1,0.6,0.4,0.4-0.5,1.4c0.5,1.1,0.3,1.9,0,2.7
				l0.5,0.4l-0.3-0.1c-0.4,0.3-0.3,0.8-0.1,0.9h0c0.4,1.1-0.4,1.7,0.7,2.7c-0.8,0.1,0.2,0.6-0.4,0.9c-1.2,0.5,0.2,1.4-0.3,2.2
				c0.3,0.4-0.4,0.8,0,1.1h0.5c0,0.9-0.5,2-0.1,3c-1,0.4,0.9,1.1-0.1,1.7c0.6,0.9-0.7,1.6,0.5,2.1l-0.7,0.7l0.3,0.4c0,0-0.1,0-0.1,0
				c-0.4,0.5-0.1,1.1,0.2,1.5h0.3l-0.3,0.5c-0.1-0.1-0.1-0.3-0.2-0.1c0.2,1,0,2.1,0.1,3.1c0.1,0.1,0.7-0.1,0.6,0.5
				c-0.3-0.1-0.5-0.1-0.6-0.4c-0.6,1.6,1,2.2-0.6,3.1c0.9,2.1-0.5,3.7,0,5.6l0.3,2.1H162c-0.1,0.5,0,1-0.2,1.7
				c0.2,0.4,0.5-0.1,0.6-0.1c0,0.4,0.5,0.8,0.1,1.1l-0.4-0.5c-0.5,0.1-0.6,0.8-0.5,1.2c0.1,0.3,0.3,0.5,0.5,0.5l0.4-0.3
				c-0.1,0.3-0.6,0.6-0.1,1h-0.8c-0.4,1.6,0.4,5.2,0.1,5.9c-0.5,0.4-0.5,1.6-0.6,2.2c0.4,0.5,0,1.1-0.3,1.5l0.5,1.5
				c-0.1,0.7-1.2,2.3-0.4,3.5c-0.4,1-1,1.6-0.7,2.6c-0.5,0.8-1.1,1.5-0.6,2.2c-1-0.4-0.6,1.1-0.9,1.6c-0.1,0.3,0.1,0.4,0.2,0.5
				l-0.7,0.6l0.6,0.7c-0.1,0-0.3-0.1-0.3-0.1c-0.5,2-0.1,1.5-1.1,3.7c1.1,0.9-0.6,1.7-0.6,2.2c0.1,0.4-0.1,1,0.4,1.5
				c-0.2-0.1-0.9-0.5-1.1,0.3c0.7,0.7-0.3,1.7-0.4,2.7c-0.1,0-0.4-0.1-0.5,0.1l0.5,0.7l-0.4-0.4c-0.7,0.9-1,2.4-0.9,3.5
				c-0.4,0-0.3,0.5-0.3,0.8c-0.4-0.4-1,0.1-1.2,0.6c1,1.2-1.5,0.6-0.7,1.9c-0.5,1.5-1.1,2.9-0.9,4.1l-0.1-0.1
				c-0.1,0.6-0.5,1.1,0.1,1.7c-1.2-0.1,0.3,1-0.9,1.2c0,0.4,0.2,0.7,0.6,1c-1.2,0.7-0.1,3.3-2.2,3.8l-1.7,0.8l-0.1-0.4
				c-0.4,1.1-2.8,0.5-2.6,2.2c-0.5,0.1-0.7,0.6-1.2,0.3c0-0.4,0.1-1-0.5-1c-0.1,0.5-0.9,0.5-1.2,0.9c-1-1.1-1.9,1-2.7-0.4
				c-0.1-0.9-0.2-2-0.9-2.2h0.3l-0.1-0.5l-0.1,0.5c-0.1,0-0.3,0-0.5,0c0.1,0.7-2.1,2.1-0.7,2.7c-0.7,0.1-1.2,1.2-2.2,0.9
				c-0.2-0.3-0.4-0.5-0.7-0.9l-0.7,0.7c0.4,0.6-0.7,1.1-1,1.6c-1.4-0.1-0.5-2.7-2-2.4c-1.6-0.3-0.4,2.4-2.2,1.7
				c-1.2-1.2-0.9-2.7-2.2-3.3l-0.1,0.1l-0.9-1c-0.7-0.4-2,0.4-2.2-1c-0.4-0.5-0.4-1.7-0.4-2.7c-1.6-1-1.6-4.3-2.7-5.8
				c-1.1-2.2-1.1-3.6-2.1-6.1c-0.5-1.2,0.3-3.2-0.7-4.8c-0.1-0.5-0.3-2.2-0.7-3c0.5-0.5-0.4-1.5,0-1.9c-0.3,0-0.4-0.3-0.5-0.4
				c0.3,0,0.3-0.5,0.6-0.7c0.1-0.4-0.6-1.2-0.1-1.7c-0.8-1.7,0-4.8,0-6.4c-0.4-0.5,0.1-2.2,0-3.1c0.5-5.8,1.4-10.6,1.5-16.3
				c0.4-1.5,0.4-4.3,0.6-5.9c0.3-2.5,0.6-4.1,0.7-6.7c0.8-0.9,0.8-1.7,0.5-2.7l0,0c0.4-0.9,0.5-2.7,1.1-3.9c0.6-1.1-0.7-2.4,0.4-3.2
				c-0.3-2.5,1.2-4.1,1.1-6.6h0.1c-0.7-0.5,0.8-1.6,0.3-2.5l0.5-0.5c-0.3-0.8,0.5-2.2,0.5-3.1c1.1-0.7-0.6-2.1,0.9-2.9
				c0.1-1.6,0.3-3.2,0.6-4.7h-0.4c-0.5-1.1,1.7-1.4,0.4-2.2c0.2-0.3,0.5-0.3,0.7-0.5c0.3-0.6-0.7-1.6,0.3-2l-0.5-0.5
				c0.3,0,0.4-0.3,0.5-0.4c-1-1.5,1.2-2.5,0.1-3.8c0.5-0.6-0.4-1.1,0.4-1.5h-0.4c1.4-1.7-0.3-3.5,1.2-5.3c-0.9-0.9,0.7-1.8-0.1-2.7
				c0.4-1.5,0.4-4.9,0.8-7.1h0.1c-0.4-1.6,1-4.4,0.6-6.7c0.9-0.6,0.6-2.9,0.9-3.7c-0.1-0.6,0-0.9,0.2-1.5c-0.9-1.1,1.1-2.5,0-3.5
				c1.2-1.4,0-3.3,1.1-4.9c-0.9-0.5,0.3-1.2-0.5-1.7l0.5-0.5l-0.4-0.2c0,0.7-0.3-0.9,0-1.4c0.6-1.5,0-1.7,0.5-3.2
				c-0.4-0.9,0.1-1.9,0-2.3c0.3,0,0.3-0.3,0.4-0.4c0.1-0.2,0-0.3-0.1-0.4c0.2-1-0.1-1.8,0-2.8c0.6-0.9-0.6-2,0.5-3
				c-0.6-2,0.5-1.9-0.1-3.6l0.1,0.1c0.5-0.7-0.5-2.6,0.8-3.2c0.5-3,0-5.3,1.1-8.1c-0.9-0.5,0.4-0.6,0.3-1.2c-0.7-2.5,0.5-5,0.1-7.2
				c0.6-1-0.6-2.1,0.4-3.2l-0.2-0.9h0.1c0.6-0.7-0.5-2.9,0.4-3v-0.4h0.3c0.5-0.9-0.5-2.1,0.3-2.5h-0.4c0.9-0.1,0-0.7,0.7-1.1
				l-0.5-0.4c0.3-0.3,0.5-0.9,0.1-1.1c1,0,0.2-0.9,0.5-1.2l-0.5-0.9c-0.5,0.6-1.9,0.5-2.6,1.2c-0.9,0-1.6,0-2.4,0.4
				c-1.1,1-4-0.7-5,1.1c-0.2,0-0.2-0.3-0.5-0.4C124.1,196.3,123,195.6,123.1,196.5z"/>
			<path d="M127,105.8c0,0.1,0,0.4-0.1,0.5c-0.1-0.3-0.1-0.5-0.1-0.7C126.8,105.6,126.9,105.7,127,105.8z"/>
			<path d="M125,167.4c0,0.2-0.1,0.3-0.2,0.4c0,0,0,0,0,0L125,167.4z"/>
			<path d="M118.8,320.9l0.2-0.3C118.9,320.7,118.9,320.8,118.8,320.9z"/>
			<path d="M106.4,386.3c0.1,0.1,0,0.2-0.1,0.2C106.3,386.4,106.4,386.3,106.4,386.3z"/>
			<path d="M103.2,101.3l0.1,0.2C103.3,101.4,103.2,101.4,103.2,101.3z"/>
			<path d="M96.4,109.9c-0.1,0-0.1-0.1-0.2-0.1C96.3,109.8,96.3,109.9,96.4,109.9z"/>
			<path d="M96.2,109.8c0,0-0.1,0-0.2,0v-0.4C96.1,109.6,96.1,109.7,96.2,109.8z"/>
			<path d="M61.4,295.8l-0.2,0.1C61.2,295.8,61.2,295.7,61.4,295.8z"/>
			<path class="st0" d="M512.1,269.7c-0.7,0,0,0.4-0.4,0.6c0.3-0.1,0.1,0.4,0.2,0.5L512.1,269.7z M510.6,327.8l0.3-0.4h-0.5
				L510.6,327.8z M509.7,268c0-0.5,0.6-1,1.1-0.8c-0.7,0.4,0,0.9-0.4,1.5h1.4c-0.7,0,0.3,0.5-0.6,0.4l0.7,0.1v-1h-0.6l0.4-0.2
				c0.6-0.8-0.4-1.2-0.8-1.9C510.3,266.7,509.7,266.9,509.7,268z M509.7,329.1c0.1,0.4,0.5,0.4,0.7,0.6c0-0.2,0-0.7-0.4-0.4
				c0.3-0.2,0-0.6-0.1-0.8l0.1-0.3c-0.2,0.1-0.2,0.2-0.1,0.3L509.7,329.1z M509.9,329.8c-0.5,0.5,1,1.4,0,1.6l0.4,0.1
				C511.2,330.9,509.7,330.6,509.9,329.8z M503.7,188.9l0.1,1.1h0.1c0.1-0.4,0-0.9,0.3-1.1H503.7z M503.7,199.7
				c0.1-0.1,1-0.4,0.7-0.5l-0.2-0.3l0.9-0.5l-0.1-0.5l0.7-0.2c-0.6-1.1-1.4,0.1-1.7,0.7l-0.4-0.5c0,0.3,0.1,0.6-0.1,0.8l-0.3-0.1
				C503.5,199,503.9,199.3,503.7,199.7z M499.5,198.6h-0.1c-0.1-0.1-0.4-0.4-0.4-0.6l-1,0.3c0.1,0.6,0.4,0.7,0.5,1.2
				C499.5,200,499.5,198.7,499.5,198.6z M486.7,237.7l-0.3,0C486.5,237.7,486.7,237.7,486.7,237.7z M486.7,235.4
				c-1.4,0.5,0.7,1.6,0.1,2.2c0,0,0,0.1-0.1,0.1l0.7-0.1l-0.4-0.4c0-0.1-0.1-0.5,0.1-0.6l0.2,0.4c0.4-0.9-0.9-0.5-0.6-1.4
				c-0.1-1.4,1.1,0,1.1-0.1c-0.3-0.6-0.7-0.3-1.1-0.7c0.1-0.1,0.3-0.3,0.4-0.1c-0.1-0.4-0.4-0.6-0.8-0.5l0.3,0.7h-0.1L486.7,235.4z
				 M436.2,150.3l0.1-0.7H436L436.2,150.3z M438.8,152.6c-0.2-0.3-0.1-0.6-0.2-0.9c-1.1,0.6,0-1.1-1.2-0.6c0.3,0.6,0.5,1.1,1,1.4
				l0.1-0.1L438.8,152.6z M421,133.9c0.1,0,0.5,0.6,0.5,0.1l-0.2-0.4L421,133.9z M418.9,130.9c-0.4,0.3-0.1,0.6,0.1,0.7
				c0.3-0.1,0.7-0.3,0.6-0.6C419.4,131,419,131.1,418.9,130.9z M419.5,131.9c0.5,0.4,0.1,0.7,0.1,1.1c-0.6-0.9-0.5,0.2-1.2-0.4
				l0.1-0.1l-0.1,0.1c0,0,0,0,0,0l-0.1,0.2c0,0.5,0.5-0.4,0.5,0.3l0.7-0.1l-0.2,0.6h0.6c0.6,0.3,1.4-0.6,1.1-0.6
				C420.5,133.5,420.1,131.8,419.5,131.9z M310.8,70c-0.4,0.2-0.9,0.4-1.1-0.1l-0.1,0.6c0.3-0.1,1,0,1.1,0.5v-0.5
				c0.8,0,0.5,1.4,1.4,1.1l0,0.1c0,0-0.1,0.1-0.2,0l0.3,0.5l-0.1-0.5c0,0,0.1-0.1,0.1-0.1c0,0,0,0-0.1,0L312,71h-0.6v-0.4h-0.3
				c-0.3-0.2-0.1-0.7-0.1-1.1C310.8,69.9,310.8,69.6,310.8,70z M305.9,66.6l-0.3-0.3C305.6,66.5,305.7,66.5,305.9,66.6z M305.9,66.6
				l0.5,0.6C306.7,66.3,306.2,66.6,305.9,66.6z M60.4,289c-0.4,1.7-0.6,3.5,0.8,5.6c0.2,0.6-0.5,0.7,0,1.4l0.1,0
				c0,0.1,0.1,0.5-0.3,0.5l0.1,0.4h-0.2c-0.3,1.1,1,1.1,0,2.1c0.4,1.1,0.4,2,0.6,3c-0.2,0-0.2,0.1-0.4,0.1c1.1,1.2-0.4,2.9,0.8,4.2
				c-0.3,0.9-0.8,1.5-0.3,2.2l0.7,0.5c-0.5,0.2-0.4,0.9-0.1,1.2l0.4-0.1c-0.7,0.4,0.1,1-0.1,1.4c0.3-0.1,0.3,0.1,0.5,0.3
				c-0.4,2.1,0.1,3.3,0.5,5.1c0.2,0.6,0.9,2.7,1.2,3.7c0.4,0.4,0.3,1.4,1,1.2c-0.1,2.5,1.4,4.2,2.7,5.8c-0.1,0-0.3,0.1-0.1,0.2
				l0.3,0.3l0.4-0.3c-1.1,1.1,1.5,1.4,0.5,2.4c-0.4-0.1,0.2,1,0.6,0.6c0,0.6-0.3,1.5,0.7,1.6c0.3,1,1.1,2.1,1.6,3
				c0.4,1.1,1,1.4,1.4,2.2c0.6,1.7,1.2,3.2,2.1,4.5c0.1,1,0.8,2,1,3l0.8,0.6l-0.3,0.3l0.5,0.5c-0.2,0-0.2,0.1-0.4,0.1
				c1.1,0,0.1,1.2,1.4,1.5c0.5,1.9,1.7,4.3,3.1,6.1c-0.4,0.9,0.1,1.2,0.4,2.1c0.6,1.2,2.2,1.9,2.2,3.6c1.1,0.6,1.6,2.1,2.5,2.9
				l-0.1,0.1c0.6,0,1,2.7,2.2,1.6c-0.7,1.1,1.1,1.5,1.1,2.3c0.8,0.9,1.4,1.7,1.9,2.7c2.7,1.4,2.5,3.8,4.8,5.3
				c0.1,0.3-0.1,0.6,0.3,0.7h0.4c-0.3,0.7,0.6,1.1,0.6,1.6c1,0.5,1.4,2.6,2.5,2.8c-0.4,0.9,1.4,1.5,1.9,2.4h0.4
				c-0.1,0.5,0.5,0.6,0.7,0.6c1.2,1.2,1.7,2.9,2.9,3.7c0,0,0,0,0,0c0,0.2,0.1,0.5,0.4,0.8c0.3-0.4,0.1,0.9,0.6,1.1l0.5,0.5l0.3-0.1
				c1,1.4,2.3,2.4,3.1,3.6l1,1l0.1-0.1c0.1,0.9,1.5,1.8,2.6,2.7c0.1,1.1,1.7,2,2.2,3.3l0.4,0.4l-0.1,0.1c2,2.3,3.7,4.9,5.3,7.3
				c1.5-0.3,0.8,1,1.7,1.1c0.4,0.6,0.2,1.2,1.1,1.9c0.7,1.2,2,2.1,3.1,2.9c0,0.1-0.1,0.4-0.1,0.7l0.7,0.3l-0.1,0.5
				c0.3-0.4,1,0.6,0.9-0.4c0.2,1.2,1,1.9,2.1,2.2l0.1-0.7c0.2,0.5-0.3,1.1,0.6,1.5l0.5-0.1c0.5,1.9,2.2,2.9,3.2,4.3l0.9,0.3h-0.1
				c0.1,0.4,1.4,0.7,1.4,1.6l0.1-0.1c-0.1,0.2,0.7,0.8,1,0.5c-0.1,1.1,1.7,1,1.7,1.9c1.2,0.9,1,1.5,2.3,2.2c0.9,0.6,2.6,1.6,3.8,2.2
				l0.5-0.2c0.4,0.2,0.4,1.4,1,0.7c1.7,1.9,4.6,1.4,6.4,3.6c1.1,0.3,2.7,0.5,3.3,1c0.8-0.7,0.5,1,1.2,0.1c2.1,0,3.5,0.6,5.6,0.6
				l0.5-0.3c1.1,1.1,3.8,0.9,5.2,1.4c1,0.2,2.5,0.9,3.6,0.9c1,0.4,2.3,0.4,3.3,1.4c0.6-1.2,2,1.6,2.6,0.5c1,0.9,1.8,0.9,2.8,1.7
				c1.2,0,2.8,1.7,4.2,1.9c0.1,0.1,0.3,1.1,1.1,0.9l-0.1,0.2c0.4,0.8,0.9-0.4,1.2,0.3c1,1.2,2.5,1.4,3.7,2.1
				c0.5,1.1,2.2,1.2,2.7,2.2c1.2,0.4,2.7,1.6,4.7,2.2c0.3,0.5,1.4,1,1.9,0.7v-0.1c0.4-0.3,0.6,1.4,1.5,0.9c0.2,0.5,2.1,1.5,3.1,1.4
				c0.5,0,0.9,1.1,1.5,0.7c0.1,0.9,0.7-0.1,1.2,0.4c-0.4,0.9,0.8,0.4,1,0.8c1.5,1.7,4.2,1.5,5.3,2.6c1.7,0.6,4.2,1.1,5.6,2.2
				c0.5-0.4,0.6,1.2,1.2,0.3c-0.1,0.2,0.6,0.5,0.8,0.7l0.5-0.5c0.6,0.5,1.2,1.6,2.1,0.7c0.5-0.1,0.5,0.4,0.7,0.6
				c3.1,1.4,5.9,1.5,8.8,2.9l1-0.3c0.1,1.4,1.6,0.4,2.4,0.9l0.4-0.5c0.3,1,1.5,0.5,1.9,1.1c3.5,0.4,4.9-0.4,8.1,0.5v0.3
				c0.7,0,1.7,0.3,2.5,0l-0.3-0.5h0.8l-0.1,0.1c0.4,0.7,1.2,0.7,1.9,0.6l0.5-0.5c0,0.7,1.2,0.5,2.2,0.7c1-0.5,2.4-0.1,3.6-0.2
				c0.6-0.1,1.6,0.1,2.4-0.1c1.5,0.3,2.9,0.6,4.5-0.1c0.5,1,1.1-0.4,1.7,0.1v0.1c0.7,0,1.3,0.1,1.9-0.3l-0.3,0.2
				c1.7,0.6,3.2-0.6,4.8-0.4c0.1-0.5,1,0,1.4-0.4c0.9-0.4,3.6-0.4,5.5-0.4c0.3-1,1.6-0.4,2.1-1c0.8,0.7,1.5-0.9,2.4-0.3
				c0.2-0.5,1.5-1.4,1.5-0.6l0.3-0.4c0,0.5,0.5,0.3,0.7,0.4c0.7-0.1,1.6-1.1,2.2-0.4c2.1-0.1,3.3-1.4,4.7-1.7
				c0.1,0.4,0.5,0.2,0.9,0.2c0.4-1.1,1.6,0.5,2.4-0.7l0.7-0.3c-0.1,0.1-0.1,0.2-0.1,0.3c0.3-0.4,1.1,0.1,1.5-0.5c0,0.1,0,0.1,0,0.2
				c0.7-0.1,1.4-0.4,2.2-0.6c0.6,0.4,1.4-0.9,1.7-0.3c0.7-0.7,1.5,0,2.2-0.6v-0.9c0.1,0.4,0.4,0.8,0.7,0.9c1.9,0.1,2.6-1.7,4.5-1.2
				c0.6-1,1.7-0.4,2-1.1c0.9-0.1,1.2-0.1,2.4-0.4c0.7-0.1,1.2-1,2-0.6c0.5-0.6,1.7-0.4,1.9-1.2c0.6,0.8,1.1-0.1,1.6-0.2v-0.3
				l0.5,0.5c0.5-0.4,0.3-0.9,0.7-1.1c-0.1-0.3,1,0.6,1.2-0.1c0.3-1.7,2,0.1,2.6-1c0.5-1.2,1.9-0.8,2.2-1.7c1.2,0.1,2.2-1.2,3.6-1.6
				l0.3-0.7v0.1c1.6,0.1,4.4-1.7,5.6-2.2c1.5,0.7,1.7-2,3-0.9c1.4-1,3.1-1.1,4.1-2.1c2.1-0.1,3.7-2,5.7-2c0.1-1,1.1,0,1-1
				c0.9,0.2,2-0.1,2.6-0.4c0.6,0.4,0.9-0.5,1.4-0.6c0.6-0.2,2-0.5,2.2-1.2c0.1,0.1-0.1,0.6,0.4,0.6c0.2-0.1,0.1-0.4,0.1-0.6
				c1.4,0.7,1-1.9,2.5-0.8c0.2-0.1,0.6-0.1,0.9-0.5l-0.1-0.5c0.1,0.5,1,0.1,1.5,0.3l0.4-0.7c0.1,0-0.4,0.6,0.4,0.5
				c0-1.2,0.6,0.1,1-0.9c1.7,0.7,2.1-1,4-0.6c0.6-1,1.9-1.1,2.7-1.4c1.5-1.1,3.5-1.4,5-2.4c1-0.1,1.1-1,2.5-0.9
				c0.3-0.1,0.1-0.4,0.1-0.5c0.6,0.5,0.8-1.1,1.4-0.1c0.6-1.1,2-0.7,2.4-1.5l0.4,0.3c0.4-0.1,0.1-0.6,0.5-0.5
				c0.9,0.5,1.2-0.9,2.1-1.1c2-0.5,3.3-1.2,5.1-2.2c0.6-1.2,2.7-0.7,2.7-2.5l0.1,0.6c0.4-0.4,1.6-0.4,1.9-1.4l0.2,0.1l1.5-1.2v0.3
				l1.5-1.4l-0.1-0.1c0.4,0.2,0.7-0.5,1.2-0.4c1.5-2.2,3-2.1,5-4.1c1.7-0.9,3.3-3.1,4-4.2c0.3,0,0.5,0.1,0.6-0.1v-0.4
				c0.5-0.1,1.2-1.2,2.1-1.5c1.1-1.1,1.6-1.5,3.1-1.5c0.6-1.1,1-1.9,2-2.6l0.1,0.1c0.2-1.5,2.6-1.7,3-3.2c1.7-0.6,3.1-3.1,4.7-4.7
				c0.6-0.6,1.9-1.2,1.6-2.4c2,0.6,2.4-2.6,3.6-3c0.3-1.2,1.7-0.9,1.2-2.2l0.6,0.5c0.6-0.5,0.7-1.7,1.2-1.9c0.9-0.7,2-2.5,2.7-3.8
				c0,0,0,0,0,0.1l0.1,0.3c0.6-0.3,0.6-0.9,0.6-1.4l0.3,0.3c0-0.7,0.9-1.1,1.5-1.1c0.9,0.1,1.4-0.4,2.1-0.8
				c-1.1-0.5,0.9-1.4,0.1-2.1c0.6-0.7,0.1-1.6,1-2.2c0.5-0.1,1.5-0.4,2.2-0.5l-0.3-0.4c1.5,1,1.4-1.1,2.2-1.7c0-0.1,0.1-0.4-0.1-0.4
				c1.2-0.9,3-2.1,3.5-3.3c1.5-1.7,0.5-4.3,2.5-5.6c1.4-0.9,1-2.6,2.1-3.6c0-1.7,1-1.5,1.5-3c0.1-0.1,0.1-0.1,0.1-0.1
				c0,0.1-0.2,0.3,0,0.3c0.7-0.1,0.6-0.9,0.9-1.2c1,0.2,0.5-0.9,1-1.1c-0.4-0.7,0.5-1,0.9-1.5l-0.4-0.4c1.5-0.5,2.1-2.2,2.7-3.7
				c-0.8-1.6,1.1-1.6,1.5-3.2c-0.1,0-0.1-0.1-0.3-0.1c0.1-0.9,0.8-1.7,0.5-2.9c0.3,0.1,0.4-0.1,0.5-0.2l-0.1-0.8
				c1-0.2,0.4-1.8,0.9-2.3c0.1-2.1,1.5-3.6,1.4-5l0.1,0.1c1.2-0.6-0.2-1.2,1-2c-0.6-1.1,1.5-1.7,0.8-3c0.9-2,1.8-4.5,3.3-5.7
				c0.4-0.5,1.2-3.1,1.4-4.6c2.4-1.1,0.4-3.5,2.6-4.6c-0.5-1.2,1.1-0.6,0.7-1.9H476c0.2-0.1,0-0.8,0.3-1.1c-0.6-1.7,1.7-2,0.6-3.6
				c2-2.7,1.7-4.7,2.5-7.8c0.9-0.4,0.9-1.9,0.7-2.6c0.4-1.6,1.4-2.6,1.2-3.8c0.6,0.1,0.5-0.7,0.3-1.2c-0.9-0.1,0.4-1.7-0.1-2.5
				l0.5-0.4l-0.4-0.3c1.9-0.7-0.4-3.1,0.7-4.3c0-1,1-2.6-0.3-3.1c1.4,0.1,0.5-1.4,0.9-2c0-0.4-0.5-0.5-0.6-0.9
				c0.6-2,0.4-3.2,0.6-5.7l-0.3-0.1c-0.3-1.9,0.5-3.2-0.1-4.8c0.6-0.6-0.1-2.6,0.1-3.7h-0.4c0.4-2.1-0.7-4.9,0-7.2
				c-0.9-1-0.3-2.5-0.9-4.3c0.3-1.5-1.2-3.1-0.4-4.8c-0.5-0.2-0.4-0.9-0.3-1.1c0.8,0.3,0.8-0.4,0.8-0.7c-0.3,0-1.5-0.4-0.9-1.1
				c0.7-0.2,0.5-0.7,0.4-1.2l-0.7-0.3l0.4-0.5c-0.4-0.9-0.4-1.6,0-2.7c-0.1-0.2-0.7-0.6-0.7-1.1c0.1,0.1,0.6-0.7,0-0.9
				c0.1-1.4,0.7-3.5-0.6-4.3c0.4-0.9-0.3-2.4-0.3-3.3c-0.1-0.1-0.3-0.1-0.5-0.1c0.3-1.2,0.3-1.7,0-3l-0.2-0.3c0.4-0.3,0-0.7-0.1-0.7
				h0.1c-0.5-1.1,0-1.9-0.6-3c-0.3-0.5-0.5-1.9,0-2.6c0-0.9-1-1.4-0.9-2.3h0.1c-0.6-1.7,0.1-4.2-1.7-5.8c0-0.5,0.1-1-0.5-1.2l-0.1,0
				c0.5-0.3-0.1-1.2-0.2-1.5c-0.5-0.6-0.3-2-1.1-2.5c0-0.9-0.3-1.9-0.6-3c-1.5-1.5,0-4-1.7-5.3h0.1c-0.5-1.6-1.2-3-2.5-4.1h-0.5
				l0.5-0.4c-3-2.2-2.5-5.4-5.7-7.3c1.4-2.4-2.4-1.5-1.9-3.8c-0.3-1.4-2-0.9-1.7-2.5c-1.2-1.5,0.4-5.1-2.5-4.8c-0.9-0.7-2-1.4-2-2.4
				c-0.8-0.1-0.6-0.7-1-1.4c0.1,0,0.4-1.1-0.3-1.2l0.3-0.4c-0.1-0.1-0.3-0.1-0.5-0.1c0.9-0.3-0.3-1,0-1.2c0.3,0.1,0.3,0,0.4-0.1
				c-0.1-0.4-0.6-0.5-0.9-0.1l0.1,0.1l-0.5-0.1l-0.3,0.9c-0.5,0.3-1.1-0.3-1.5-0.6c0.3-1.5-1.4,0.4-1.4-1.2c-1.6-1-2.7-3.2-4.3-4.8
				c0-0.8-0.1-2-0.7-2.6c0.8-0.7-0.7-0.6-0.8-1.1c0.7-0.3-0.9-1.2,0.4-1.6c-1-0.5-0.7-2.8-2.2-2.2c0.1-0.4-0.3-0.6-0.5-0.9
				c-0.9,0.4-1.5-0.1-2.1-0.6c-0.1-1-0.8-2.2-1.7-2.7l-0.4,0.4l-0.1-0.8c-1.1,1.5-1.4-0.9-2.6-0.9c-0.3,0.2-0.5,0.2-0.7,0.2
				l-1.9-2.2c-0.3,0.5-0.6,1.4-1.4,0.9c0.2-1-0.9-1-0.4-1.9c-0.4-0.3-1-0.1-1.5-0.3c1,0.1,0.1-0.7,0.4-1.1c-0.9-0.6,0.7-1.1-0.3-1.6
				c0.1,0,0.3-0.1,0.3-0.2l-0.4-0.3l0-0.3c0.6-0.1,0.4,0.6,1.1,0.3c0.1-0.5,0.6-1,0-1.4c1.1,0,0.3-0.6,0.4-1.1l-0.8-0.7
				c0.1,0,0.4-0.1,0.4,0.1c0.8-1.2-0.5-2.6-1-3.7c0.1-0.4,0.1-1.2-0.2-1.5h-0.5v-0.5c-0.5-0.3-1,0.1-1.5,0.1v0.4
				c-0.3,0-0.6-0.1-0.9,0.1v0.3c-2.1,0.2-1.9-3.1-4.3-2.5c-1.7-0.9-3.4-2-5.2-2.9c0-1-3.8-2.6-1.2-3.8c-0.6-0.5-0.5-0.8-1-1.2
				c0.7-1.1-1.2-1.7-0.6-3c-0.9,0.1-2.1-1.1-3-0.7c-0.4,0.5-0.4,1.6-0.6,2c0,0.2-0.4,0.7-0.7,0.6c-0.7-0.1-2.4-0.7-1.9-1.8l-0.5-0.3
				c0.5-0.6-0.8-1-0.9-1.6l0.3-0.4l-0.3-0.3h0.9c0.5-0.9-0.6-0.7-1-1l-0.1,0.1l-0.6-1.1c-0.7,0.3-0.9,1.6-2.1,1.1
				c-1.9,0.1-1.9-2.6-3.7-2.6c-0.9,0-1.9-1-2.7-0.5c0.1-0.6-0.5-0.6-0.9-1l-0.1,0.3c-0.4-0.4-1.4-0.9-1.4-1.5
				c-0.1-1.4,1.7-0.1,2.1-1h0.1c-0.5-0.7-2.2-1.1-2.6-2.2l-1-0.9l-0.1,0.1c-0.2-0.3-0.7-0.6-1.1-0.7l-0.4,0.4
				c-0.5-1.1-1.7-0.9-2.5-0.9c0-0.2-0.2-0.4-0.4-0.5c0.1,0.3-0.7,0.7-0.4,1.2l0.6,1.5c-0.6,0.5-1.1,0-1.7,0.7
				c-1.4-0.5-2.4-1.6-2.7-2.8l-0.7-0.8c-1,0.9-2.5-1.4-3,0.8c-2,0-1.4-1.4-3.2-1.6c-0.5-1.2,0.9-0.9,1.2-1.5c0.6-0.2,1,0.8,1.4-0.2
				c-0.3-1.1-2-0.1-1.9-1.2c-1.4,0-2.4-1.5-3.2-1.2c-0.6-0.5-1.4-2-2.9-1.6c-0.3,0.1,0.3,0.5-0.3,0.6c-0.6,0-0.7-0.9-1.4-1l-0.6,1
				c-0.3-0.3-1.9-1.4-1.6-2.1c-1.6,0.1-0.7-1.6-2.2-1.8c-0.7-0.5-0.9-3.3-2.4-1.7c-0.3,0.5-1.1,1.1-0.9,1.6c0.8-1,1.4,0.6,1.9,0.9
				c0.6,0.4,0.3,1.1,0.4,1.5c-0.5,0.7-1.1,0.4-1.8,0.2c0-1.1-1.6-1-1.1-2.2c0.1,0,0.3-0.3,0.4-0.4c-0.3-0.6-0.5-1.5-1.1-1.9
				l-0.4,0.2c-0.6-1.7-2.4-0.7-2.9-2.4c-1.4-0.5-1.5-2.1-2.6-2.7l-0.6-1l-0.3,0.4l-0.7-0.7l-0.4,0.6c0.3-0.5-0.7-1.2-1.1-1.1
				c0-0.6-2.2-0.5-2-1.7c-1.2,0.4-1.4-2-2.5-1.1c-1.4,0.1-0.3-3.1-1.9-2c-1.1-1-2.5-0.8-3.7-1.7c-1.2-0.7-3-1.7-3.8-2.3
				c-0.1-0.3-0.4-0.5-0.6-0.4l-0.3,0.5c0-1.2-1.4-0.9-2.1-1.4c-0.6-0.3-0.5,1.2-1.2,0.3c-0.1-0.4-0.6-2.3-2-2.6h-0.4l0.1-0.1
				c-1-0.5-2.5,0.2-3.3-1.1v-0.4c-1.9,0.5-3.2-1.4-5.2-1.5c-0.1-0.8-0.7-0.3-0.7-0.6c-0.3,1,0.5,2.2-0.6,3c-1.5-0.3-1-2.1-1.4-3.1
				l-0.6,0.4c-0.1-1-1.5-1-1.7-1.8c-0.5,0.6-1.4,0.5-1.7,0.5c0-0.6-1.4-0.6-1.7-1.5l-1.1,0.5c0.3-0.1,0.1-0.4,0.1-0.6
				c-0.1-0.2-0.4-0.1-0.6-0.1l-0.3,0.5l-0.4-0.6c-0.1,1-1.1,0.4-1.2,1.1c-0.1,0-0.2,0-0.3-0.1c-1.4-0.4-0.4-2.6-2.3-1.9l0.4,0.3
				c-0.9-0.3-2.7,0.2-2.5-1.6c-0.9-0.1-1.2-0.9-1.7-1.5c0.5-0.9-0.9-1.4-1.2-1.5c-0.4-0.3-0.4,0.5-0.7,0.6c0.7,0.1,0.6,1.2,0.5,1.6
				c0.4,0.5-1.1,0.9-0.6,1.7l0.6,0.7l0.5-0.3c0,0.4-0.3,0.8,0.3,1.1c1.1-0.4,2.1,1.6,3.5,1.1c0.1-0.1,0.1-0.2,0.1-0.3
				c0,0.4,0.7,0.6,1,0.7c0.8-0.2,1.6-0.6,2.3-0.4c0.2,0,0.3,0.1,0.5,0.2c0.3,1,1.4,0.5,1.4,1.5c1.2-0.3,0.5,2.2,2.2,2.1
				c0.9,2.2,3.6,0.8,4.9,2.5c0.7,0,1.2,1.5,2.5,0.6c0.6,0.1,1.1,1,1.9,0.6c0,0.9,1.9,1.1,1.9,2.1c0.7-0.4,1.1,0.9,1.7,1
				c1.2,1.6-1.4,3,0.6,3.7c0.6,1.4,3.3,0.6,3.2,2.7c-1.5,0.7-1.5-1.2-3.1-1c-0.5-1.9-2.9-1-3.7-2.5c-1.2-0.4-1.7-0.4-2.4-1.6
				l0.7-1.2c-1.1-1.1-2.6-2-3.8-1.6c-0.1,0.6,0.9,0.6,0.4,1.4c-1.1,0.5-1.9-1-3-1.2l-0.1-0.9c-2,0.9-2-3-4.4-2.2
				c-1,0.2-1.1,0.2-2-0.3c-0.6-1-1-1.7-2.2-2.6c-0.5,0.4-0.6,1.2-1.6,0.9c-0.6-1.9-0.9-2.1-2.6-3.2l-1.2,1.2c-0.5-0.4-1.2-1-1.4-1.5
				c-1.2,0.5-1.4-1.5-2.6-1.4c0.9-2-2.4-2.7-0.5-4.1c0-0.2,1.4,0,1-0.9c-1-0.1-0.2-1.4-1.5-1.5c-0.3,0.5-0.5,0.7-1.1,0.6
				c-0.1-0.6-1-1-1.2-1.6c-0.3,0.5-1.1,0.3-1.6,0.1c-0.5-1.2,1-2-0.1-3.1c0.6-0.5,1.2-1.9,2.4-1.2c0.4-0.7,0.6,0.4,1,0.1
				c-0.3,0-0.1,1.5,0.5,1.9c0,0.3-0.1,0.6,0.1,0.8c2.4-0.8-0.2-2.5,0.4-3.4c-1.4-0.5-2.4-1.7-3.2-2.4c0.1-0.3-0.3-0.3-0.1-0.6
				c-1.2,0.5-1.6-0.6-2.5-1.1l-0.4-0.7h0.2c-0.4-1.5-1.6-2.1-3.2-2.6c-0.5-0.6,0.4-1.4-0.4-1.9c-0.1,0-0.2-1.4-0.9-0.9
				c-1.5-2.2-4.1-3.7-5.7-5.9c-1.5-0.7-3-2.5-3.7-3.6c0.3-0.5-0.3-0.6-0.6-0.7c-0.3-0.1-0.3,0.1-0.4,0.3c-1.1-0.3-0.4-1.6-1.1-2.1
				c0.1-0.5-0.1-1-0.6-1.2c-1.1,0.6-0.8-1.5-1.7-1.2c-2.2-0.5-3.2-3.6-5.3-4.2c0.1-0.8,0.6-1.5-0.5-1.9h-0.3l-0.1-1.4l-0.5,0.1
				c-0.7-1.2-2-2.1-3.2-3l-1.5-0.1c0.1-0.6-1.7-1.2-0.8-2c1.5,0.4,2.2,0.5,3.3,1.7c1.4,0.6,1.5-1.7,2.6-0.4c0.5,0.6,0,1.4,0.5,2
				c0.9-0.1,2.7,1.9,3.7,0.3c1.2,0.6,2.1,2.7,3.7,2.1c1.7,1.1,3.5,0.6,4.8,2c1.1-0.1,3.2,0.7,4.7,1.9c1.1,0,1.9,1,2.7,0.7v-0.4
				c0.5,0,0.7,1.1,1.4,0.5l0.1-0.1c1.1,1,2.6-0.7,3.3,0.9c0.3,0.4,0.3,1.1,0.7,1l0.4-0.4c0.5,1,2.4,0.4,2.9,1.5
				c1.1-0.1,0.4-0.3,1.5,0.4c-0.3,0-0.3,0.4,0,0.4l0.4,0.5l0.4-0.4c0.9,1.2,2.5,1.4,3.5,2c1.2-1.4,0.7,0.7,2.1,0.5
				c1.6,2,4.6,0.9,5.8,3c1.2,0.4,1.7,0.2,2.8,1c2.4-0.9,3.5,2.2,5.6,2c0.4-0.1,1.5,1.2,2,0.2c2.5,1.5,5,2.4,7.4,4
				c1.1-0.8,1.1,1.1,2.1,1.2l1.5,0.3V53c1.7,0.7,3,1.7,5.1,3l1-0.1c-0.1,0.6,0.6,0.6,0.9,0.8l0.6-0.1c0,0.1,0.1,0.3,0.1,0.3
				c0.1,0,0.4,0.1,0.5-0.1c0.6-0.1-0.2,1.7,1.4,1.5l0.5-0.1c-0.3,0.7,0.7,1.1,1.2,1.1L343,59c0.6,0.7,1.5,1.1,2.3,2
				c0.3-0.9,0.6,0.4,1.1,0c0.4,0.3,0.7,0.9,1.1,0.4c0.4,0.7,1.1,1.4,1.9,1.5c1,0.7,1.7,2.4,2.8,2.1c0.6,1.6,2.2,1.1,3.1,2.7l0.5-0.5
				c0.6,1.7,2.2,1.6,3.2,2.2c1.2,0.6,1.4,1.8,2.6,2.1c0.3-0.1,0.1-0.4,0.1-0.6c0.3,0.5,0.7,1.6,1.5,1.1l-0.1,0.1
				c1.5,0,2.2,1.7,3.6,1.4c-0.1,0.3,1,1.5,1.7,1.5c0.6-0.1,1.2,0.7,2.1,0.5v0.3c1.1,0.5,2.1,1.6,3.8,1.9c0.1-0.1,0.2-0.2,0.2-0.3
				c0.1,0.7,1.1,0.6,1.4,1.1c0.9-0.3,1.5,1.4,2.7,0.7c1.7,1,3.3,2,5.3,2c0,0.6,0.7,0,1,0.4l0.4-0.2c0,0.1-0.1,0.2-0.1,0.2
				c1.6,0.3,3.5,3.3,6.1,2.7c0.5,0.9,2.4,0.6,3.1,2c0.1,0.1,1.9,0.6,2.5,0.9c1.7-0.1,3.5,2.1,5.4,3c1.4,1.7,4,1.2,5.3,3.2
				c0.6,2,3,1.2,4.1,2.4l0.4-0.3c0.6,0.7,1.7,1.6,2.6,2.1l0.4-0.4c0.4,1.1,1,0.6,1.7,1.5c1.5,0,2.5,2,3.8,2.2c0.1,1,1.1,0.7,1.7,1.1
				c0.6,0.5,2,1.5,2.6,2.2c0.3-0.1,0.1-0.4,0.1-0.6c0.4,0.3,0.4,1.2,1.2,0.9l1,1.2l-0.1,0.1c0.9-0.4,1.5,0.6,2.4,0.6
				c0,1.2,2.6,0.4,1.7,1.7c0.1,0.6,1.4,0.6,1.6,1.5c0.1,0,0.1-0.2,0.1-0.4c0.1,0.3,0.4,0.1,0.6,0.1c0.5,0.7,1.7,0.9,2.1,1.7
				c0.9,0.4,1.9,3.2,3.8,2.8c2.2,1.2,4,2.7,5.9,3.8h-0.1c0.4,0.6,1.2,1.7,2.2,1.5c0.3,0.9,1.7,1.6,2.5,2.1c0.6,0.3,0.5,1.9,2,1.6
				c0.9,1.7,2.9,0.9,3.4,2.6h0.6l-0.1,0.1c0.1,0.6,0.9,0.6,1.4,0.9c0,0.4-0.1,0.8,0.3,0.9l0.3-0.3l-0.3,0.4c1.1,0.9,1,1,2.4,1.1
				c0.4,0.4-0.1,0.7,0.6,1.1h0.6c0,0.7,0.3,1.5,0.7,1.9l-0.4,0.3c4,1.7,6.7,7.3,10.1,9.5c2.7,3.2,6.8,5.1,8,8.2l0.3-0.3
				c0.2,1,3.1,2.7,3.1,4.6l3.3,4c-0.2,0.5,0.4,1,0.8,1.4l0.6-0.5v0.6c-0.1,0-0.3-0.1-0.4-0.1c-0.2,0.6,1,1.1,0.5,2
				c1.4,0.5,1.9,2.2,2.6,2.6l2.6,2.4c0.1,0,0.3-0.4,0.4-0.3l0.4,0.7l0.1-0.1l1,1l0.3-0.1c-0.4,0.4,0.4,0.5,0.1,1
				c0.6,0.8,1.5-0.4,2.2,0.3c-0.1,0.4,1.1,1.6,1.7,2.3l-0.1,0.1l1,1h-0.1c0,1.4,1.5,1.4,1.4,2.7c-0.4,1.6,2.1,4.3-0.5,5.1
				c0,0.1,0.2,0.7-0.1,1h-0.2c0.4-0.6-0.6-0.9-0.4-1.6h-0.5c0,1,1.2,3.1,2,3.7c0.6-0.6,1.2-1.6,2.5-1.2c0.5,1.4,0.1,2.5,1,3.6
				c-0.6,0.8-0.4,2,0.1,2.9c0.5-0.4,0.3,0.3,0.6,0.1c-0.7,2.6,1.4,2.6,0.7,5.3c0.9,0.6,1,1.4,1,2.1c-1.1,1.1,1.2,2.6-0.3,3.8v0.7
				l-0.1-0.4c-0.4,0.1-0.9,0.3-0.7,0.7c0,1.2,1.1,1.7,1.1,3c-0.5,0.4-0.6,1.9-1.6,1.5c0-0.3-0.9-0.5-0.4-0.9l-0.4-0.4
				c-0.3,0.1-0.1,0.4-0.1,0.6c-0.3-0.1-0.6,0.1-0.9,0.5l0.3,0.4l-1.4,1.2c-1.2-1.4-1.5-2.1-3-3.3c-0.2,0.7,0.3,1.7-0.5,2.1
				c-0.3,0.6,0.5,0.7,0.5,1.2c0.4,0.1,0.5-0.1,0.6-0.4c0,0.1-0.1,0.3-0.1,0.4c0.4,0.5,0.7,0.3,1.2,0.1c0.5,0.9,0.9,0.7,1,1.7
				c0.1,0.1,0.6,0.1,0.8-0.1c1.1,0.8,2-0.5,2.9,0.6l0.5,1.5c-0.9,0.9-3-0.4-2.1,1.4l-0.4-0.4c-0.7,0.6-1,1.1-0.9,2.5
				c2.4,0.1,1,3,1.9,4.7v0.7h0.3c0,0.3,0,0.5-0.3,0.8c-1.6,0-1.9-1.7-2.7-2.1l0.1-0.1c-0.3-0.4-0.6-1-1.1-1c0.5-0.5-0.3-0.6-0.4-1
				c0.5-0.1,0.4-0.9,0-1.1c-0.2-0.7-1.1-0.1-1.1,0c-0.2-0.4-0.2-0.8,0.1-1.1c0.1,0.5,0.6,0.3,0.9,0c0.3-0.5,0.1-1.2-0.1-1.7
				c-0.3,1-2.6,0.4-1.6,1.6c-0.7,1.4-0.4,3.1,0,4.4l-0.5,0.5c0.4,0.5,0.6,1.6,1.5,1.8l0.1-0.1l0.1,0.1c0,0.4-0.5-0.2-0.8,0.4
				c0.1,0.2,0.3,0.2,0.5,0.1c-0.5,0.9,0.9,0.7,1.3,1.3l0.1-0.1c1.2,0.6,0.4,1.7,1,3.2l0.9,2h-0.1c0.9,1.2-0.4,2.1,0.9,3.2
				c0.1-0.3,0-0.5,0.5-0.6c-0.1-0.6-0.6-2,0.5-1.9c0.5,0,0.9,0.6,0.7,1.2c-0.1,1.9,0.6,3.8,0.5,5.8c-1.2-0.3-0.4,1.9-1.9,1.1
				c0-0.3,0-0.4-0.1-0.5c-1,0.5,0.6,0.9-0.6,1.5c-0.1,0.7-0.1,1.9,0.9,2.3c0.4-0.3-0.1-0.6-0.1-0.9c0,0.1,0.5-0.8,1-0.5
				c1.1,0.9,0.4,2,1.2,2.9c-0.3,0.1-0.1,0.4-0.1,0.5l0.1,0.1l0.7-0.6v0.1l0.9-0.1c0.1-0.8-0.3-1.1-0.3-1.7l-0.5,0.3c0,0,0,0,0,0
				c0,0,0-0.1,0-0.1c1-0.6-1.1-1.4-0.8-2.1c0.3,0.8,0.4-1,1-0.2l-0.2-1.2h0.1c-0.6-1.1,0-1.2-0.1-2.6c0.9-0.5,0.7,0.6,1.5,1
				c0.1-0.3,0.3-0.1,0.5-0.1c-0.6,0.6,0,1.5,0.2,2.2c1,0.4-0.4,2,0.8,2.1c-0.4,1.7,0.5,2.2,0,3.8l0.9,0.4l-0.1,0.2
				c0.1,0.3,0.4,0.3,0.6,0.2c-0.2,0.3,0.6,0.5,0.4,0.9l0.5,0.7l-0.3-0.3c0.1,0.6,0,1.6,0.3,2.4c0.4,0.9-0.5,2.7,1,2.8
				c0.1-0.1-0.4,1,0.2,1.4c0,0.3-0.1,0.5-0.4,0.8c1.2,0.6-0.6,1,0.5,1.7c-0.5,1-0.1,3.1-1.5,3.6c-0.6-0.4-0.1,1.4,0.1,1.5
				c0,1,2.7,1.7,1.6,3.3c0.5,0.4,0.1,0.4,0,0.7c-0.2,1.6,0.8,1.9,0.8,3.3c0.4,0.6-1,0.8-0.3,1.4l0.6,0.1l-0.7,0.3l0.4,0.7l0.6-0.3
				c0,0.5,0.9,1.4,0.7,2.3c0.6,1-1,1.1-1,1.6c0-0.1,0-0.4-0.3-0.4l-0.9,0.5c0.1-0.3-0.1-0.4-0.2-0.5h-0.1c0.1,1-0.5,0.4,0,1.6h0.1
				c-0.4,0.1-0.1,0.9,0,1.1h0.1l-0.5,0.3l0.6,0.8c0,0.2,0.5,0.7,0.6,1c0.1,0,0.3,0,0.3-0.1c0,0.1-0.1,0.1-0.1,0.2l0.3,0.3
				c-0.9,0.1,0.3,0.5,0.1,0.9c-0.3-0.1-0.4,0.1-0.5,0.2c0.2,1,0.4,1.9,0.9,2.9c0.4,1.6,0.1,2.2,0,3.7l0.4,1.4
				c-0.1-0.3-0.4-0.1-0.5-0.1c0.4,0,0,0.9,0.4,1.2c0.3,0.1-0.5,0.3-0.3,0.6l0.5,0.5c0.1-0.2,0.3-0.1,0.5-0.1
				c0.1,0.3,0.1,0.5-0.2,0.7l1.2,0.8c0.3,0.2,0.3,1.4,0.6,1.9c0,1.2,0,2.1-0.1,3.4l-1.4,0.2c0.3-0.6-0.5-1.2-0.5-1.6l-0.6-0.4
				l0.5-0.3c-0.3-0.1-0.7-0.5-1-0.1c-1,0.5,0.5,1-0.4,1.6l0.5,1.4c-0.6-0.4-0.9,0.5-1.4,0.6c1,1.7-1.4,4.2,0.3,6.2
				c-0.4-0.4-0.9,0.6-0.7,0.9c0.2,0.4,0.2,0.7,0.6,0.9c-1,1,1.2,2.2,0.5,2.9c-0.9,1.9,0.1,3.3-1.2,4.8c-1,0.4-0.6-0.7-1-1.2
				c1.1-0.9-0.3-2.7,0.6-3.5c-0.6-0.2-0.7,0.6-1.4,0.5l0.6,1.5l-0.4-0.2c0,1.2-2.1,0.2-1.4,2c-0.2,0.1-0.5-0.1-0.7,0.3v0.4
				c-0.1-0.3-0.4-0.4-0.7-0.3c0.9,1.1-0.4,3.7,1.7,3.6c0.9,0.3-0.1,1.1,0.8,1.7h-0.3v0.6c0.7-0.3,1.1-0.1,1.8,0.7
				c0,1.2,0.1,3-1.2,3.7c0.1,0,0.1,0.1,0.4,0.1c-0.4,1-0.6,0.7-0.4,1.7c-0.1,0.3-0.4,0.3-0.3,0.5c0.1,0.1,0.4,0.4,0.6,0.3l0.1-0.1
				l0.1,0.1l-1,0.4c-0.2,0.6,0.1,1.7,0.8,1.8c-0.4,0-0.6,0.4-0.7,0.6c0.5,1.4,0.4,2.7-0.1,4.2l0.4,0.3c-0.6,0.1,0.2,0.7,0.1,1.4
				l-0.9,0.3l0.5,0.6l-0.1-0.1c-0.9,0.5-0.9,0.9-1.2,1.4c0.2,0.6,0.9,1.1,0.5,2.2c-0.9,0.6-0.5,1.4-1.4,1.6l-0.6-0.9
				c-0.4,2.5-2.9,3.8-3,6.3c-0.5,1.7-2.1,2.5-1.6,4.1c-0.3,0.6-1.1,1.6-0.9,2.8c-1.7,1.5-0.9,3.2-2,5.4c-0.3,0.2-0.4,0.9-0.2,1.2
				c-0.1-0.1-0.3-0.2-0.4,0.1l0.4,0.4c-0.8-0.3-0.5,1-0.8,1.1c-0.5,0.3,0.3,1.2-0.2,2l-0.4-0.1c-0.5,0.7-0.1,2-0.9,2.2
				c-0.7,2.4-0.9,2.6-2.2,5c-0.3,0.9-0.4,0.7-0.5,1.7l-0.1-0.1c-0.9,0.1-0.1,0.6-0.7,1l0.6,0.4c-0.9-0.1-1.4,1.2-2.1,1.7
				c1.4,0.6-1.7,1.9-0.9,2.8c-0.1,0.6-1.7,0.9-1.5,2.2c-0.6,0.1-1,0.6-1.2,1.4l-0.1,0.6c-1,1-2.5,2-2.7,3.7l-0.3-0.5
				c-0.7,1.1-1.9,2-2.1,2.8l-1.5,1.6l0.3,0.3c-1,0.4-0.8,1.5-1.9,1.7l0.1,0.1c-0.9,1.2-2,3.2-3.5,4.3c-1,1.7-2,3.3-3.3,4.8
				c-0.6,0.5-0.6,1-1.4,1.5l0.1,0.1c-0.1,0.3-1.6,0.9-1.5,1.7c0.5,1.1-1.2,1.1-1.6,2c-0.6,0.1-0.1,1.4-0.7,1.7l-1,1l0.1,0.1
				c-0.9,0.6-0.6,1.5-1.4,2.2c0,0.6,0.6,0.6,0.1,1.1c-0.6-1-1,0.4-1.5,0.5c0,0.2,0.3,0.4,0.4,0.5c-0.4,0.1-0.7-0.4-1,0.1l0.3,0.5
				c-0.3,0-1.1-0.1-1.2,0.6c-0.9,0.1,0.6,0.7-0.3,1.1c-1.6,0.8-2.6,2.6-3.2,4.2l0.4,0.3c-0.1,0.1-2,0.3-2,1.2
				c-0.3-0.1-0.3,0.1-0.4,0.3l0.4,0.4c-1,0-1.6,0.7-1.9,1.6c-1.2,0-0.5,1.2-1.7,1.7c-1,0.9-2.6,2.5-3.2,3.7
				c-1.1,0.4-1.5,1.5-2.5,2.2c-0.4,0.6-2.1,0.9-2,2.1l-0.3-0.5l-2.1,2c0,0.7-0.7,1.2-1.4,1.6c-0.9,1.5-2.6,1.4-3,3
				c-1.6,0.7-2.1,2-3.5,2.8v0.7c-0.1-0.3-0.4-0.1-0.7-0.1c-0.5,1.6-2.7,1-3,2.8c-1.5,1.1-3,3.1-4.8,4.5c-2.7,0.4-3.6,3.8-5.9,3.7
				c-1.1,2.1-3.4,1.5-4.6,3.7c-1.2-0.5-1.1,1.4-2.2,0.9c-0.7,1.9-2.5,0.6-3.3,2.2c-3.2,0.5-4.6,3.1-7.7,3.6c0.1,1.1-1.6,0.1-1.4,1.2
				c-1.2-1-1.7,1.5-3,0.6c-0.6,0.5-1.5,0.5-2.1,1.4c-0.7,0.1-1.4-0.1-1.6,0.7c-0.1-0.2-0.4-0.1-0.6-0.1l-0.6,0.9
				c-0.5,0.5-1.9-0.4-1.9,0.7l-1.4,0.1c-0.1,0-0.7,0.8-1.2,0.5l-3.3,1.7c0-0.3-0.3-0.3-0.4-0.4c-1.1,1-1.9,1.1-3,1.5
				c-0.5-0.9-1.2,0.1-1.7,0.4c-1.1,1.2-3.5,1.2-4.7,2.2c-2,0.5-3.8,1.9-5.6,2.6c0.1,0,0.2,0.1,0.2,0.1c-0.2-0.1-1-0.3-1.1,0.3
				c-1.1-0.1-2.4,0.2-2.8,0.9l0.1,0.5c-1.7-0.1-2.4,1.2-4.6,1.6c-1.1,1.5-2.6,1-4.1,2.4c-1-0.4-1.2,1-2,0.6v0.4
				c-1.5,0.7-3.5,1.9-4.6,1.9c-0.6,0.9-2.8,2-4.2,2.2v0.4c-1,0-2.2-0.2-2.1,0.9c-1.6,1.4-2.4,1.5-4.5,2.2c-0.7-0.3-0.9,0.4-0.9,0.8
				c-0.3-0.9-1.4,0.2-2.1,0c-0.4,0.7-2.5,0.7-3.2,1.7c-3,0.1-5.3,2.1-8,2.4c-1-0.4-2.2,2-3.7,0.7c-0.4,0.5-1.2,0.3-1.1,1.1
				c-1-0.6-1.1,1-2,0.4c-1.5-0.1-1.1,1.1-2.5,1.1l0.1-0.3c-0.4-0.7-1.1,0.3-1.4,0c-0.1,0.5-0.4,0.4-0.8,0.4c-1-0.4-2,0.4-3.1,0.8
				l-0.4-0.5c-1.9,1.2-3.6,1.2-5.6,2c0-0.3-0.3-0.4-0.4-0.5c-3,0.4-5,2-8.2,2c-1,0.9-2.4-0.5-3,0.6c0-0.3,0.1-0.3,0.3-0.4l-0.3-0.1
				c-0.6,1.7-1.9,0.3-3.1,1.4V504c-0.9-0.1-0.9,0.5-1.9,0.5c-1.1,0.8-2.2,0.3-3,1c-0.5-0.4-1.4,0.1-2-0.2l-0.6,0.6v-0.2
				c-3,0.1-5.8,2.2-8.9,1.7c0,0-0.1,0.1-0.1,0.3c-0.8-0.6-1.6,0.1-2.5-0.1c-0.9,0.6-3,0.6-4.1,1c-1.5-0.9-3.7,0.4-5.1,0.1
				c-0.1,0.1-0.1,0.3,0,0.4c-0.5-0.1-1.3-0.2-0.9,0.6c-0.7-1.4-1.4,0.1-2-1c-1.7,0-3,1.4-5,0l-0.5,0.6l-0.7-0.4l-0.3,0.4
				c0-0.3-0.3-0.3-0.4-0.4c-1.7-0.2-3.2,0.6-4.8-0.4c0.1,0.8-0.9,0.3-0.6,0.9H252l0.1-0.4c-0.4-0.5-1,0.4-1.6-0.1l-0.1,0.3
				c0-0.1,0-0.3-0.1-0.3c-0.5,0.8-1.1-0.7-1.7,0.3l-1.5-0.9c-1.1,0.7-2.6-0.4-4,0.4c-1-1.5-1.5,0.7-2.6-0.5c-0.8,1-1.9-0.1-2.6,0.3
				c-0.9-1-2.5,0.4-3.4-0.9c-0.6,1.1-1.7,0.3-2.3,0.3c-0.9-0.6-1.1-0.4-2.1-0.1c-0.6,0.5-0.9-1.5-1.6-0.5h-1c0.3,0,0.3-0.3,0.3-0.4
				c-1.6,0.1-2.9-0.9-4.3-0.5c-0.1-0.1-0.9-1-1.6-0.4l-0.2-0.2c0.1-0.4,0.5,0.4,0.5-0.3c-1-0.7-2.8,0.1-3.8-1.2
				c-1,0.1-0.6-0.1-1.4-0.3c-0.2,0.1-0.2,0.6-0.7,0.5c-0.6-0.7-1.7-1-2.7-1.5l-0.4,0.9c-1.9-1.1-2.5-2.5-4.8-2.2
				c-0.3-0.6-1.7-0.6-2.3-1.2c-0.8,0-1.9-1.4-3.4-0.9c-0.4-0.5-0.9-0.5-1.2-0.3c-0.1-0.3-0.1-0.5-0.3-0.6l-0.5,0.4
				c-0.7-2.2-3.8-0.9-5.3-3l-0.4,0.4c-0.4-1.1-1.5-1-2.6-1.6c-0.9-0.6-2.2,0.1-3.1-1.1c-1.2-1-3.3-1.1-4.4-2.6
				c-0.5,0.3-0.9-1-1.4-0.4c-1.2-1.2-2.5-0.4-3.5-2c-1.4,0-1.5-2.2-2.6-1.2c-0.9-1.4-2-0.4-2.6-1.5l-0.1,0.1
				c-0.3-0.9-2.8-1.2-3.1-2.5c-1.9-0.1-3.1-1.1-4.4-1.9c-2.4-0.5-4.2-2.4-6.7-3.2c-0.6-1.4-1.9-0.6-2.9-1.5
				c-0.2,0.1-0.1,0.3-0.1,0.5c-1.1-1.9-3-0.9-4.5-2c0.1-1.9-2-0.1-2.6-1.2l-0.2,0.4v-0.1c-1.2,0.4-1.6-0.9-2.7-0.3l0.3-0.1
				c-1-1.2-3-0.6-4-1.6c-0.9,0.2-1.4-1.2-2.3-0.9c-1.6-0.5-3-1.4-4.7-1.5c-0.5-1-1.5-0.9-2.2-1.6c-1.1,0.4-1.6-1.1-2.7-0.7
				c-0.3-1.5-1.7-1.6-2.6-2.1l-0.5,0.4c-0.3-0.3,0-0.9-0.6-1c-1.1,0.7-1.1-1.2-2.2-0.6l0.1-0.1c-1,0.1-0.9-1.4-1.9-1
				c-0.3-0.7-1.2-0.5-1.1-1.2c-0.5-0.5-1.5,0.5-1.2-0.8c-1.6-0.7-2.8-2.4-4.3-2.5h-0.4l0.4-0.5c-1.5,0.3-0.9-1.9-2.2-0.9
				c0.1-1.6-2.3-2.2-3-3.5h-0.5c0.1-0.3-0.1-0.3-0.3-0.4c-0.1-0.1-0.3,0-0.4,0.1c-1.9-1.5-3.7-4.7-6.3-5.8l-0.1-1.4
				c-2,0.5-1.2-2-2.7-2.2c-0.5-1.4-2.5-1.5-2.8-2.6c-0.6-0.8-1.5-1.2-2.2-2.1l-0.1,0.1c-1.9-1.2-2.5-3.1-4-4.9
				c-0.7,0-1.4-1.2-1.7-1.6c-1.6-1.7-3-3-4.2-4.6c-1.4-0.7-1.5-3-3.5-3c0.3-0.6-0.5-1.4-0.9-1.5l-0.1,0.1l-0.7-1l-0.3,0.1
				c-1.1-2.5-3.3-4.8-4.9-7.3c-0.9-1.4-1.9-2.6-3.3-3.6c0.2-0.1,0.1-0.4,0.1-0.5h-0.4c0-0.4-0.1-0.6-0.4-0.8h-0.4l0.1-0.2
				c-1.1-1.6-2.6-2.7-3.5-4.7c-0.9-0.3-1-2.1-2.2-2.4c-0.5-1.4-1.5-2.6-2.5-3.5l-0.1,0.1c-0.9-3.1-4.6-4.3-5.6-7.5l-0.8-0.6
				c0.3,0,0.3-0.4,0-0.4c-1,0.4-0.9-0.9-1.6-0.9c0.4-0.4-0.6-1.1-0.7-2c-1.7-1.1-1.1-2.2-3.1-3.2c0.5-0.4,0.1-0.9,0-1.2
				c-1.2-1-0.8-2.1-1.7-3.1c-1.1,0.1-1.1-1.5-1.9-1.6l0.1-0.3c-0.1-0.1-0.5-0.6-0.9-0.3c0-1.5-0.4-2.8-1.5-3.7c0.5-0.7-1-1-0.3-1.5
				c-0.9,0.3-0.1-0.7-0.7-0.7c-1-0.3-0.4-1.6-1.5-2.2l0.1-0.1c-0.9-1.2-1.5-2.7-2.7-3.8c0.8-2.5-2.6-2.8-2.5-5.4
				c-1.5-2.9-1.7-5.7-3.5-7.9c0.6-1.4-1.6-2.4-0.7-3.5c-0.9-1.4-1-3.2-2.2-4.5c-0.1-1.1-0.9-2.9-1.9-3.7c0.6-0.5,0.1-1.5-0.5-1.6
				c-0.1-1,0.5-2.1-0.9-2.1c0.7-1-0.6-2.1-0.6-3.1l-1.4-3.3c0.6-1.6-0.9-3.2-1-5c-1.6-0.8,0.5-2.2-1-3.5c-0.3-2.4-0.7-4.2-1-6.4
				c-0.1-0.3-0.5-0.1-0.4-0.4l0.3-0.4c-0.4-1,0-2.9-0.6-3.8c-0.7-2.1-0.1-3.3-0.5-5.6h-0.4c0.6-0.4,0.3-1.7,0.4-2.2
				c-0.9-1.4,0.4-3.8-0.4-5.7c-0.3-4.3-0.6-8.9-0.1-13.3l-0.3-0.4c0.7-0.6-0.4-1.5,0.3-2.2c0.4-1,0-2.2,0.3-2.6l-0.3-0.2
				c0.9-1.5-0.1-2.7,0.6-4.5c0.4-1.5,0.5-3,0.4-4.5c0.5-0.4-0.3-1.5,0.3-2.6c0.7-1-0.8-2.5,0.4-3.2c-0.3-2.1-0.1-4.3,0.5-6.7
				c-0.4-2,0.6-4.1,0.4-6.1c0.3-1.5,0.4-3.4,1.2-4.6c-0.6-1.4,0.5-3.1-0.3-4.2c0.8-1.6,0.6-3.1,0.9-4.6c0.7-1.7,0.4-4.1,0.9-5.9
				c0.6-2,0.1-3,1-4.5c-0.6-1.2,1.5-2.4-0.1-3.5c0.6,0.4,0.8-0.6,0.9-1l-0.1-0.7h0.4c-0.4-1.6,0.9-2.6,0.4-4.3
				c0.1-2.1,1.1-3.5,0.9-5.7c0.7-0.9,0.5-3.2,1.4-4.6c0-2.5,1-4,1.5-6.2l0.1-2c1-0.2,0.6-1.9,1.4-2.6l-0.3-0.5
				c0.3,0.1,0.4,0.1,0.6-0.1c0.7-1.9,0-2.8,1.6-4.2c0.1-1.5,0.6-2.2,1.1-3.3l-0.1-1c1.2-0.1,0.6-2.1,1.9-2.7
				c-0.4-0.9,1.1-2.2,0.7-2.8l0.1,0.1c0.6-0.4,0-0.8,0.4-1.2c0.3,0.1,0.5-0.1,0.6-0.3c-0.5-1,1.4-1.9,0.8-3.2c1.2,0.4,0.7-1.9,2-2
				c-0.5-0.9,0.6-1,0.6-2c0.1,0.1,0.8-1.4,1-0.9c0.3-1.7,1.5-2.8,2-4.3c1-0.5,1-1.7,2-2.7c0-0.7-0.6,0.3-0.4-0.6v0.3
				c0.6,0.4,1.1-1.6,1.9-2.4c0.1-0.3-0.1-0.4-0.3-0.6l0.5,0.1c0.9-0.7,1.2-2,1.7-2.7c0.9-0.3,0.6-1.2,0.9-1.9c0,0.1,0.1,0.3,0.1,0.4
				c0.6-0.1,0.3-0.7,0.4-1.1c0.9,0.4,0.4-0.8,0.8-1h-0.1v-0.5h0.1c-0.1,0.3,0.1,0.4,0.2,0.5c1.2-2.9,4.3-4.7,5.6-7.8
				c0.8-1.2,2.2-2.8,2.5-4v0.1c1.7-0.7,1.7-2.9,3.1-4c0.5,0.5,0.5-0.6,0.9-0.5c-0.5-1.1,1.4-0.4,0.7-1.7c2.2-2.5,3.8-4.3,5.8-6.8
				c1.4,0.4,1.1-2,2.6-2.1l-0.3-0.5c1.2,0.1,1.1-1.5,2.1-1.6c0.6-0.4,1.7-0.5,2-1.6l0.3,0.2c1.5-0.4,0.6-2.7,2.2-2.6
				c0.4-1.5,2.1-1.6,1.8-3.3c0.1,0,0.3,0.3,0.4,0.4c0.3-0.3,0.1-0.6,0.1-1l0.4,0.4c1.2-0.4,0.9-2.5,2.3-2.6c0.5-0.2,0.3-1.4,1.2-1
				c0.4-0.9,0.3-2,1.5-2.1c0-1,1.7-1.5,1.2-2.2c1.5-0.1,1.2-1.1,2.1-2.1c0.4-0.6,1.6-0.8,2-1.9c0,0,0,0,0,0c0.1,0.1,0.2,0.1,0.4,0
				c-0.5-1.7,1.7-1.1,1.5-2.7c1-0.1,0.8-1.4,1.4-1.7c0-0.2,0,0.4,0.4,0.4c0.9-0.9,1.1-1.6,1.8-2.6v-0.5c0.8,0.4,1.2-0.7,1.6-1.1
				l-0.1-0.2c0.2,0.1,0.4-0.1,0.6-0.2c-0.3-0.5,1.1-0.9,0.6-1.5c0.6,0.6,1.2-0.5,1.5-1v-0.4l0.1,0.2c2.1-2.6,4-4.1,6.1-6.9
				c1.7-0.4,2.7-2.5,3.7-3.5c0.1-0.1,0.2,0,0.4,0.1c0.1-0.3,0.4-0.4,0.2-0.6l-0.1-0.1c1.1,0,2.5-1.5,3.1-2.6
				c1.4-1.5,4.1-2.2,4.6-4.2c2.1-0.1,2.6-3,4.6-3.2c0.4-0.3,0.5-1.2,1.2-1.1c0.8-0.3,1.4-1.4,2.2-1.4c0.6-0.5,0.6-1.5,1.5-1.2
				c1.2-1.5,4-2.6,4.4-4.2c1.4-0.1,2-1.5,2.9-2.2l0.1,0.1c1.5-0.7,2.2-1.7,3.2-3.1c0.9-0.5,2-0.6,2-1.4c2.1-0.3,1.9-2.6,4-2.8v-0.3
				l0.3,0.1l3.1-2c-0.5-0.4,0.2-0.1,0.1-0.6l-0.5-0.1l0.2-0.1c0,0.5,0.8,0,1.1-0.3c1.5-0.9,2.7-1.6,4.2-2.9c0.1,0.3,0.4,0.1,0.6,0.1
				c0.3-1.4,2.2-0.9,2.4-2.2c0.6,0.4,1.6-0.1,1.6-1v-0.4c1.4,0.9,2.8-1.6,4.2-2.1c1.4-1,3-0.9,3.8-2.5c0.3,0,0.6,0.1,0.8-0.1v-0.4
				c0.7,0.4,1.4-1.1,2.3-0.5c0.4-1.1,2.1-0.9,2.5-2c1.9,0,3.2-2,5.4-2.2c2.4-2,5.2-1.6,7.8-3.1c0.9-0.7,2.7-1.1,3.8-1.4
				c0.2-0.6,1.2-0.2,1.7-0.7c0-0.4,1.1,0.7,1-0.3c1.5-0.4,2.9-1.4,4.7-1c2.1-1.4,4.2-0.1,6.2-1.6c0.9-0.1,1.4,0,2.4-0.1l0.4-0.9
				c1.5,1.9,2.8-1.4,4.7,0c1.1-0.2,2.5-0.1,3.3-0.7c0.4,0.1,1,0,1.1-0.5v0.5c0.2,0.1,0.9-0.4,1.1-0.1v-0.4c1.1,1.5,2.4-0.2,3.5,0.8
				c0.9-0.3,1.9-0.3,3.1-0.3c1-0.6,2.2-0.1,3.2,0.1c0.5-0.2,1.4-0.2,1.7-0.7c1.4,1.1,3.2-1.5,4.6-0.1c1.1-1,2.5,0,3.6-1.1
				c0.9,0.3,2.1-0.4,3.5,0c1-0.7,1.9,0.3,3,0.4c0.6,0.8,0.9,1.6,0.7,2.6c-1,1.2-1.8,3.4-4,3.2l-0.5-0.4l-2.6,0.7
				c0,0.1,0.1,0.1,0.1,0.4c-1.7-0.6-3.3-0.4-5.1-0.3c-1.9,0.7-2.8,1.7-5.1,1.5c0.4,1-0.9,1.1-1.6,1.2c-0.7-0.1-0.9-0.5-1.6,0v0.1
				c-0.6,0.1-1.4-0.4-1.7,0.5c-1.2-0.5-2.6-0.5-3.7,0c-0.7,1.4-1.2,1.2-2.5,1.7l-0.3-0.2l-0.7,0.6c-0.1-0.2-0.3-0.2-0.5-0.2
				c-0.2,0.2-0.2,0.4-0.2,0.6c-1.1-0.3-1.7,0.9-2.8,0.6c-1.9,2-4.1,1.5-5.8,2.8l-0.3-0.4c-1.6,1.9-3.6,1-5.1,3
				c-0.4,0.4-1,0.7-1.4,0.3c-1.9,0.7-3.1,2-4.8,2.2c-2.4,1.6-4.2,3.3-6.6,4.7c-0.8,0.9-0.4,2.8-2.1,2.2c-0.1,0-0.4,0-0.4-0.1
				c-0.7,0.4,0,0.7-0.5,1.1l-1.4,0.6l0.1,0.1c-0.1,1.2-1.9-0.1-2,1.4c-0.1-0.1,0.1-0.9-0.4-0.9c-0.6,0.5,0.1,1,0.1,1.4
				c-0.5,0-1.1,0.5-1.1,1l0.1,0.1c-2,0.1-4.3,1.7-5.1,3.6c-1.1,0.5-1-0.7-1.1-1.4l-0.5,0.5V64c-0.3-0.4-0.4,0.3-0.6,0.3
				c0,1.2-0.4,2.1-0.6,3.3c-1.1-0.6-2.9,0.4-3.7-0.7c-0.9-1.2-1.1,1.1-2.4,0.6c-0.6-0.1-1.1,1.2-2.1,1c-0.1,0.7,0.6,2.1-0.8,1.6
				c-0.1-0.2-0.5-0.8-0.9-0.4c-0.7,0.5-1.6,1.2-2.2,1.9c-0.6-0.1-1.1,0.7-1.7,0.9c-1.7,2.6-5.1,1.5-6.2,4.5c-0.4-0.4-1.2,0.1-1,0.5
				l-0.1-0.1c-0.4,0-0.6,0.6-0.4,0.9l-0.3-0.3c-0.6,0.6-1.2,0.4-1.2,1.2c-0.6,0.4-1.6,0.9-2,1.8v0.6c-0.6,0-0.3-0.5-0.5-0.7
				c-1.2,0.5-1,1.7-2.1,1.9c-0.4,0.2-0.5,0.5-0.9,0.7c0.2,0.3,0.1,0.6,0.1,0.9c-1.9-1.4-1.1,2-3.1,1.7c-0.3,0.5-0.6,1.1-1,1.6
				l-0.2-0.5c-0.3,0.3-0.6,0.3-0.9,0.6l0.4,0.6c-2.5,1.5-3.7,3-5.2,5.1c-0.1-0.1-0.2-0.3-0.4-0.3c-0.9,0.5,0,1.5-1,1.7
				c0.3,2.3-3,1.5-2.3,3.5c-1.5,0.4-1.9,2.2-3.2,3l0.3,0.6c0,0.1-1.1,0.2-1.1,0.1c0.1,1.6-2.4,1.9-2.6,3.4c-0.1-0.1-0.3-0.1-0.4,0.1
				c-0.1,0.1-0.1,0.2-0.1,0.5l-0.1-0.3c-0.5,1.1-2.1,1.5-2.1,3c-0.5-0.3-1,0-1.4,0.4l0.1,0.4c-1,0.1-1,0.5-1.8,1.1
				c0,1-1.1,1-1.5,1.7c-1.2-0.3,0,0.9-1.1,0.7c0,1.4-2.1,2.1-2.2,3.3c-2.1,2.5-4.6,5.6-6.2,8.4c-1,0.9-2.3,1.9-2.5,3.1
				c-1.5,1.6-2.4,3.5-4.1,5.1l-0.1,0.6l-0.1-0.1c-0.6,0.1,0,1-0.7,0.9l-0.1,1c-0.2,0-0.5-0.1-0.7-0.1c0.3,0.9-1.1,0.9-0.6,1.6
				l-0.4-0.3c-1.4,1.6-1.5,3.6-3.3,4.1c0.5,1.7-1.9,2.4-1.4,4.1l-0.1-0.1c-2,0.9-1.5,4-3.3,4.7c0.5,2.3-2,3.7-1.9,6.2v0.6h-0.1v-0.1
				c-0.6-0.1-0.7,1-1,1.5c0.3,0.5-0.6,1.4-0.7,2c-0.1,0.1-0.4,0.3-0.4,0.5l0.2,0.4c-1,1.1-1.6,3.2-2.3,4.5l0.1,0.4
				c0,0-0.1-0.1-0.3-0.1c0.4,0.7-0.3,0.7-0.5,1.5c-0.2,0.8-1.1,1.6-1.5,2.6c-0.6,1.2-1.7,2.4-1.6,3.8c-1.1,0-0.9,1.1-1.6,1.5v1
				c-1,0.1-0.5,1.4-1.1,2c-1.1,1.5-0.1,2.1-1.7,3.2c0,1.6-1.8,2-1.7,3.5c-0.4,1.1-2.5,1.7-1.7,3c-0.5,0.4-0.8,1.6-0.8,1.6
				c0-0.1-0.1-0.1-0.2-0.1c-0.6,0.3-0.1,0.7-0.1,1c-0.6-0.1-0.4,0.5-0.6,0.7l-0.1-0.1c-0.4,1,0.1,1.6-0.5,2.7l-0.2-0.4
				c-0.6,0.5-0.1,2.1-0.9,2.6c-0.1,1-1.1,1.1-1.1,2.2c0.4,1-1.2,2.1-1.5,3.1c0,1.1-0.4,2.5-0.9,3.6l-0.1-0.3
				c0.4,2.1-0.5,2.2-0.7,4.5c-0.1,1.5-1.2,3.1-0.6,5.1l-0.6,0.4c1.5,0.4-0.3,1.7,0.4,2.2c-0.6,0.7-0.9,2.5-0.4,3.3
				c-1,1.2-0.1,2.6-1,3.5c0.3,1.1-0.5,2.6-0.6,3c1-0.1-0.3,1.1,0.9,0.4c-0.4,1-1.2,2-1.1,3.3c0,0.6,0,1.1-0.6,1.6
				c0.3,0.6,0,1.7-0.4,2.5c-0.4,2.2-0.5,5-1.2,7.1l0.3,1.6l-0.5-0.1c0.5,0.7-0.3,1.6,0.2,2.4h0.3c-0.6,1.1-1,2.4-0.1,3.5
				c-1.5,0.3-0.4,2.4-0.5,2.5c0,2.2-0.5,2.7-0.1,4.7c-0.3,0.1-0.1,0.5-0.1,0.6l0.6,0.4c-1.2,1-0.2,1.9-0.4,3.2h-0.1
				c0.3,1.2-0.5,3.2-0.1,4.5c-0.1,1.7-0.6,1.2-0.1,2.9c-0.6,0.2-0.1,0.6,0,0.9c-0.1,0.5-0.6,1.2-0.3,1.6h0.3c-0.1,0.3-0.7,0.7,0,1.1
				c-1.1,0.5,0.1,1.2-0.3,1.7c-1.1,2,0.8,4.1-0.5,6.2c0.4,0.6,0.3,1.5-0.3,2c0.1,0.1,0.4,0.1,0.5,0.1c-0.5,0.6-0.4,1.9-0.1,2.7
				c0.8,0.7-0.4,2.1,0.3,3.2l0.5,0.5C60.5,287.1,59.8,288.1,60.4,289z M511,301.6c-0.4-0.5,0.1-0.9-0.6-1.1v1
				C510.6,301.5,510.8,301.4,511,301.6z M444.2,151.7l0.3-0.6h-0.4c-0.7-0.4,0-0.6-0.7-0.9l-0.8,0.6
				C443,151.8,444.2,150.8,444.2,151.7z M367.3,89.1l-0.5-0.3l0.1,1.4h0.1C367.4,89.9,367,89.3,367.3,89.1z M362.3,78.9
				c0.1-0.3-0.3-0.5-0.5-0.7c0,0,0-0.1,0-0.1c0,0,0,0,0,0.1C361.9,78.4,361.9,79,362.3,78.9z"/>
		</g>
		<g>
		</g>
	</g>
</g>
</svg>
