<?xml version="1.0" encoding="utf-8"?>
<!-- Generator: Adobe Illustrator 22.0.1, SVG Export Plug-In . SVG Version: 6.00 Build 0)  -->
<svg version="1.1" id="Layer_1" xmlns="http://www.w3.org/2000/svg" xmlns:xlink="http://www.w3.org/1999/xlink" x="0px" y="0px"
	 viewBox="0 0 1000 1000" style="enable-background:new 0 0 1000 1000;" xml:space="preserve">
<style type="text/css">
	.st0{fill:#FFFFFF;}
</style>
<g>
	<g id="XMLID_1_">
		<g>
			<path d="M611,361.2c0,0.4,0,0.9-0.5,0.9c-0.5,0-0.7-0.9-0.2-1.1C610.5,360.8,610.9,360.9,611,361.2z"/>
			<path d="M607.2,339c1-0.7,2.1,0.4,2.2,1.6c-0.7,1-1.1,0.3-1.9,0C607.3,340.1,608.2,339.1,607.2,339z"/>
			<path d="M607.5,357.3c0-0.1-0.1-0.3-0.2-0.1c0,0-0.1,0.1-0.2,0.1c0.1-0.1,0.2-0.3,0.3-0.5c-0.4-0.4,0.1-1,0.4-1.4
				c1.6-0.4,0.5,1.7,1.5,2.2l-0.8,0.7c-0.5-0.1-0.9-0.6-1.1-1L607.5,357.3z"/>
			<path d="M607.1,357.4c0,0-0.1,0.1-0.1,0.1C607,357.4,607,357.4,607.1,357.4z"/>
			<path d="M606.9,357.5C606.9,357.5,606.9,357.5,606.9,357.5C606.9,357.5,606.9,357.5,606.9,357.5z"/>
			<path d="M606,356.5l-0.1,0.1l0,0C605.9,356.5,605.9,356.5,606,356.5z"/>
			<path d="M605.2,406.5c0.6,0.8,0.1,1.2,0,2c-0.3,0.1-1,0.4-0.7-0.3c0-0.3,0.1-0.5-0.1-0.8c0,0-0.1,0-0.1,0
				C604.3,407,604.7,406.6,605.2,406.5z"/>
			<path d="M604.9,314.1c-0.7,0-1.7,0-1.6-1c-0.1-0.5-0.1-1.1,0.5-1.2c0.5-0.1,0.7,0.6,1.2,0.4C604.2,312.8,605.4,313.4,604.9,314.1
				z"/>
			<path d="M604.2,407.5C604.2,407.5,604.2,407.5,604.2,407.5C604.2,407.5,604.2,407.5,604.2,407.5
				C604.2,407.5,604.2,407.5,604.2,407.5z"/>
			<path d="M603.4,324c0-0.1,0.1-0.1,0.3-0.2C603.7,323.8,603.6,323.9,603.4,324z"/>
			<path d="M603,351.8c-0.1-0.1,0.1-0.6-0.2-0.5c0.3-0.2-0.3-0.6,0.4-0.6L603,351.8z"/>
			<path d="M602,347.2c0.4,0.6,1.4,1.1,0.8,1.9l-0.4,0.2h0.6v1l-0.7-0.1c0.9,0.1-0.1-0.4,0.6-0.4h-1.4c0.4-0.6-0.4-1.1,0.4-1.5
				c-0.5-0.2-1.1,0.3-1.1,0.8C600.7,347.9,601.3,347.7,602,347.2z"/>
			<polygon points="601.8,408.5 601.6,408.8 601.3,408.5 			"/>
			<path d="M601.3,381.5c0.8,0.3,0.3,0.6,0.6,1.1c-0.1-0.2-0.4-0.1-0.6-0.1V381.5z"/>
			<path d="M601.1,300c0.5-0.5-0.5-1.2,0.4-1.7c1,0,1.2,0.8,1.9,1.4l0.2,1.2C602.7,301.8,601.8,300.1,601.1,300z"/>
			<path d="M601.5,288.3c0.3,0.4-0.3,0.7-0.6,0.9c-0.6,0.3-0.9-0.2-1.1-0.7C599.6,287.3,601.2,287.4,601.5,288.3z"/>
			<path d="M601.5,410.7c-0.3-0.2-0.6-0.2-0.7-0.6l0.2-0.6c0.1,0.3,0.4,0.6,0.1,0.8C601.5,410,601.5,410.5,601.5,410.7z"/>
			<path d="M601.1,409.2l-0.1,0.3C600.9,409.4,600.9,409.3,601.1,409.2z"/>
			<path d="M600.8,412.4c1-0.3-0.5-1.1,0-1.6c-0.1,0.7,1.4,1.1,0.4,1.7L600.8,412.4z"/>
			<path d="M599.1,296.1c-0.8-1.2-1.2-3.1-0.1-4.2c1.1,0.4,1.4-0.4,1.6,0.7l-0.3,0.3c0.8,0.5,1.5,1.2,1.1,2.2
				C600.8,295.6,600,295.8,599.1,296.1z"/>
			<path d="M600.5,285.2c0.1,0.3-0.3,0.7-0.6,0.9c-0.1-0.3-0.4-0.1-0.6-0.1C599.2,285.2,599.9,285,600.5,285.2z"/>
			<path d="M597.8,303.9c-0.5-0.5,0-1.6-1-1.8l1.4-1c0,0.5,0.7,0.4,1,0.1c1,1.5,2.3,2.2,1.7,4.2
				C599.6,305.4,599.1,304.1,597.8,303.9z"/>
			<path d="M599.1,320.5C599,320.8,598.5,320.7,599.1,320.5L599.1,320.5z"/>
			<path d="M598.3,309.7c-0.3-0.3-0.7-0.6-0.4-1c0.4,0,0.6,0.1,0.7,0.4v0.3C598.5,309.3,598.4,309.6,598.3,309.7z"/>
			<path d="M595.2,280l0.2,0.3c0.3,0.1-0.6,0.4-0.7,0.5c0.3-0.4-0.1-0.8-0.5-1.1l0.3,0.1c0.3-0.1,0.1-0.5,0.1-0.8l0.4,0.5
				c0.4-0.6,1.1-1.9,1.7-0.7l-0.7,0.2l0.1,0.5L595.2,280z"/>
			<path d="M594.7,270h0.5c-0.3,0.2-0.1,0.7-0.3,1.1h-0.1L594.7,270z"/>
			<path d="M594.8,289.1c0,0.1-0.1,0.1-0.1,0.1c0,0,0,0,0,0L594.8,289.1z"/>
			<path d="M593.2,438.9c-0.1,0-0.2,0-0.2-0.1C593,438.9,593.1,438.9,593.2,438.9z"/>
			<path d="M591.7,301.8h0.1C591.8,301.8,591.7,301.8,591.7,301.8C591.7,301.8,591.7,301.8,591.7,301.8z"/>
			<path d="M590.5,279.6c0,0.1,0,1.4-1,0.9c-0.1-0.5-0.4-0.6-0.5-1.2l1-0.3c0,0.3,0.2,0.5,0.4,0.6H590.5z"/>
			<path d="M577.8,318.6c0.6-0.6-1.5-1.7-0.1-2.2l-0.1-0.5h0.1l-0.3-0.7c0.4-0.1,0.6,0.1,0.8,0.5c-0.1-0.1-0.3,0-0.4,0.1
				c0.4,0.5,0.9,0.1,1.1,0.7c0,0.1-1.2-1.2-1.1,0.1c-0.2,0.9,1,0.5,0.6,1.4l-0.2-0.4c-0.3,0.1-0.1,0.5-0.1,0.6l0.4,0.4H577.8
				C577.8,318.7,577.8,318.6,577.8,318.6z"/>
			<path d="M577.5,318.7l0.3,0C577.7,318.7,577.5,318.7,577.5,318.7z"/>
			<path d="M567,396.2C567,396.2,567,396.2,567,396.2L567,396.2z"/>
			<path d="M565.5,295.7l0.2-0.1C565.6,295.7,565.5,295.7,565.5,295.7z"/>
			<path d="M535.4,245.1l-0.4-0.2C535.1,244.9,535.3,244.9,535.4,245.1z"/>
			<path d="M534.4,231.2c0.7,0.3,0,0.5,0.7,0.9h0.4l-0.3,0.6c0-0.9-1.2,0.1-1.6-0.9L534.4,231.2z"/>
			<path d="M534.6,243.8C534.6,243.9,534.6,243.9,534.6,243.8c0,0.1-0.1,0.1-0.1,0.1L534.6,243.8z"/>
			<path d="M529.8,233.6l-0.4-0.3l-0.1,0.1c-0.5-0.3-0.7-0.7-1-1.4c1.2-0.5,0.1,1.2,1.2,0.6C529.7,232.9,529.5,233.3,529.8,233.6z"
				/>
			<path d="M528.8,464.9c-0.1,0.1-0.2,0.3-0.3,0.4C528.5,465.1,528.7,465,528.8,464.9z"/>
			<polygon points="527.3,230.6 527.2,231.3 527,230.6 			"/>
			<polygon points="519.2,226.1 519.4,226 519,226.3 518.9,225.8 			"/>
			<path d="M518.7,230.5c0.4,0,0.5,0.5,0.4,0.9c-0.3,0.5-0.6,0-0.9-0.2L518.7,230.5z"/>
			<path d="M512.2,214.6l0.2,0.4c0,0.5-0.4-0.1-0.5-0.1L512.2,214.6z"/>
			<path d="M509.3,220.2c1.1,0.1,2.4,1.1,3.1,0.8c-0.5,1.1,1.2,1.2,1.6,1.9c1.4-0.2,1.9,1,3,0.8c0.5,0.1,1.4,1,1.1,1.6
				c-0.3,0.9,0.9,0.8,0.6,1.5l0.9,1l-0.4,0.4c0.1-0.1,0.2-0.1,0.3-0.1l0,0.3c-0.1,0.4-0.7,0.7-0.5,1.2c-0.6,1-2,0.5-3,0.4l0.1-0.3
				c-1-0.3-1.5-1.5-2.6-1.1c0.7-1.1-0.3-2.6-0.1-3.8c-0.6-0.5-1.1-1.4-1.9-1.4h-0.4c-0.4-0.5-2.4-1.1-2.2-2.4L509.3,220.2z"/>
			<path d="M510.6,212c0.1,0.4-0.4,0.5-0.6,0.6c-0.3-0.1-0.5-0.5-0.1-0.7C510,212.1,510.4,212,510.6,212z"/>
			<path d="M509.4,213.6c0.7,0.6,0.6-0.5,1.2,0.4c0-0.4,0.4-0.7-0.1-1.1c0.6-0.1,1,1.6,1.5,1.1c0.2,0-0.5,0.9-1.1,0.6h-0.6l0.2-0.6
				l-0.7,0.1c0-0.6-0.5,0.3-0.5-0.3L509.4,213.6z"/>
			<path d="M509.5,213.5l-0.1,0.1c0,0,0,0,0,0L509.5,213.5z"/>
			<path d="M503.9,215.7l1.7,2.4c0.2,0.6-0.4,1.5-1,1.5c-1.5-0.9-2.4-1.8-3-3.5C501.9,214.6,503.3,216.4,503.9,215.7z"/>
			<path d="M501.2,212.1c0.1,0.4-0.3,0.5-0.4,0.7c-0.4-0.1-0.7-0.7-0.3-1C501,211.8,501.1,212,501.2,212.1z"/>
			<path d="M494.5,211.6c0.1,0.3-0.1,0.5-0.3,0.7c-1.1-0.5-1.7-0.7-2.8-0.7c-1.1-0.5-0.5-1.7-1-2.5c0.3-0.6,1.2-0.6,1.7-1
				C493.1,209,493.4,210.8,494.5,211.6z"/>
			<path d="M491.5,500.3l0.3,0.3C491.7,500.5,491.6,500.5,491.5,500.3z"/>
			<path d="M486.2,206.9c1.1,0.4,0.3,1.6,0.9,2.1c-0.5,0.6-1.2,0.1-1.7-0.1c-0.4-0.5-0.6-1.2-0.4-2
				C485.4,206.9,485.9,206.7,486.2,206.9z"/>
			<path d="M481,199.9l-2.2-2.1c0.1-0.6,0.9-0.9,1.4-0.6c0.9,0.5,0.6-2.9,1.7-0.9h1.1c0.5,0.3,1.7,0.6,1,1.5l-0.7,0.3
				c0-0.1-0.1-0.1-0.1-0.3c-0.8,1.2,1.6,1,0.4,2.2C482.8,200.8,482,199.1,481,199.9z"/>
			<path d="M479,203.2c0.6,0.5,2.2,0.3,1.9,1.7c-0.6,0.1-1.7,0.9-2-0.4C478.5,204.2,478.3,203.5,479,203.2z"/>
			<path d="M471.2,412.5L471.2,412.5C471.2,412.5,471.2,412.5,471.2,412.5z"/>
			<path class="st0" d="M450.8,189.1c-0.1,0.5-0.6,1.1-1,1.5c-1.2-0.7-3.8-0.7-4.2-2.6c-0.7-1-1.5-1-1.7-2.4c0-1,1.1-0.6,1.6-1
				c0.6,0.4,1.4,0.1,2-0.3c0.7,1.2,2.5,0.1,3.2,1.4c0.5,0,1,0.4,1.2,0.9l0.4-0.5c0.1,0.4,0.5,0.7,0.8,0.7c0.9,0,1,0,1.4,0.5
				c0.3,0.1,0.4,0.5,0.6,0.5c0.5-0.6,1.4,1.1,2,0.1c1.6,0,1,3.1,2.3,1.5c0.4,0.6,1.1,0,1.4,0.9c-0.1,1,0.6,1,1,1.7
				c0.6-0.6,0.5,1.9,1.7,0.8c0,0.5,0.8,0,1.1-0.1c0.9,0.3,0.7,1.4,1.7,0.8c0,1,1.9,1.4,2.2,2.4c0.7-0.5,1.5,1.5,1.9,0.4l0.2,0.4
				l0.5-0.4c0.4,1.2,4,2.4,4.5,5.1c1,0.8,2.1,0.5,2.4,2c-1.9,1.2-3.1-1.6-4.8-1.6c-2-0.1-1.5-3.3-3.1-2.6c-1.2,0.1-1-1-2.1-0.6
				c-0.1-0.6-0.7-0.5-1.5-0.8l-0.4,0.3c-0.5-2.1-2.6-0.4-3.3-2.2c-0.9,1.1-1.9-0.7-3-0.1c-2.7-0.4-3.8-3.8-5.6-4.6
				C454.4,189.5,451.8,190.2,450.8,189.1z"/>
			<path d="M471,396.7c0.1,0,0.1,0.1,0.2,0.2L471,396.7z"/>
			<path d="M465.7,157.8c0.1,0.2,0,0.3,0,0.4C465.6,158.1,465.6,157.9,465.7,157.8z"/>
			<path d="M464,232.4c0.1,0,0.2,0.1,0.1,0.3C464,232.6,464,232.5,464,232.4z"/>
			<path d="M457.8,169.8l0.5,0.3c-0.3,0.3,0.1,0.9-0.3,1.1h-0.1L457.8,169.8z"/>
			<path d="M452.8,159.2c0.2,0.2,0.6,0.3,0.5,0.7C452.9,160,452.9,159.4,452.8,159.2z"/>
			<path d="M452.8,159.2C452.8,159.2,452.8,159.2,452.8,159.2C452.8,159.2,452.8,159.2,452.8,159.2z"/>
			<path d="M449.1,349.3c0.1,0,0.1,0,0,0.2L449.1,349.3z"/>
			<path d="M447.4,329C447.4,329,447.4,329,447.4,329C447.3,329,447.3,329,447.4,329L447.4,329z"/>
			<path d="M446.7,382.9c0.1,0,0.1,0,0.1,0C446.9,382.9,446.8,382.9,446.7,382.9z"/>
			<path d="M442.9,185.4l-0.2,0.3C442.8,185.5,442.8,185.4,442.9,185.4z"/>
			<polygon points="442.4,414.4 442.6,415.5 442.1,414.5 			"/>
			<path d="M441.5,174.3c0.6,0.1,1.1,0.5,1.4,1.1c-0.6,0.1-0.8,1.4-1.5,0.7v-1.2h0.1V174.3z"/>
			<path d="M441.9,186.5c-1.1,0.5-1-1.5-2-0.6c-0.5-0.4-1.6-1.4-0.5-1.7c1.1,0.1,2.5,0.5,3.2,1.6l0.1-0.1
				C442.6,186,442.4,186.6,441.9,186.5z"/>
			<path d="M440.8,430.4c-0.5-0.5-0.3,0.4-0.7,0.4c0.3,0.2,0.9-0.1,0.7,0.5l-1.6,0.3c1.4-0.9-1.1-2.1,1-2.2L440.8,430.4z"/>
			<path d="M437.7,198.3l-0.2,0.1C437.5,198.3,437.6,198.3,437.7,198.3z"/>
			<path d="M437.9,183.8l-0.5,0.5c-0.4-0.1-0.4-0.7,0-0.9C437.7,183.5,438.2,183.4,437.9,183.8z"/>
			<path d="M437.6,229.3c-0.1,0.1-0.2,0.2-0.4,0.3C437.3,229.5,437.4,229.3,437.6,229.3z"/>
			<path d="M436.7,436.4c-0.5,0.1,0-0.9-0.5-1.1C436.8,435.2,436.8,436,436.7,436.4z"/>
			<polygon points="436,453.3 436.2,453.8 435.7,453.3 			"/>
			<path d="M435.6,458.4c-0.4-0.9-0.6-2.7,0.1-3.5l-0.1-0.3c1,0.1,1.4,1.2,1.5,2.2c-0.1,0.5-0.8,0.6-1.1,0.7
				c-0.1,0.1,0.6,1.2-0.1,1.6l0.4,0.3l-0.3-0.1c0,0.1-0.1,0.1-0.1,0.4c0.1,0.1,0.4,0.1,0.5,0.1c-0.6,0.5,0.6,1.4-0.5,1.6v-0.3h-0.6
				V460h0.3c-0.4-0.3,0.1-1.2-0.5-0.9C435.5,458.7,434.9,458.2,435.6,458.4z"/>
			<path d="M432.7,447.2c-0.7-1.6-1.2-3.2-0.1-4.3v-0.5c0.6,0.1,1.4,0.3,1.4,1.1c-0.5,0.7,0.1,0.6,0.1,1.5H434
				c-0.5,0.2,0,0.9,0.2,0.9C433.5,446.1,433.8,447.5,432.7,447.2z"/>
			<path d="M427.8,175.3c-0.1-1.4,1.6-1,1.9-0.4l-0.1,0.1c1.5,0.3,2.4,2.1,4.2,1.4c0.5,0.9,1.1,2.4,1.5,3.3c-1.6,0-2.2-0.7-3.5-1.8
				c-0.2-0.4-0.6-0.3-1-0.3c-0.4,0.9-1.1,0.1-1.6-0.1c0.4-0.9,0.2-1.6-0.8-1.9C428.2,175.7,427.7,175.6,427.8,175.3z"/>
			<path d="M428,326l0.1,0.1l-0.1,0.1C428,326.2,428,326.1,428,326z"/>
			<path d="M420.4,191c0,0.1-0.1,0.1-0.1,0.1C420.3,191.1,420.3,191,420.4,191z"/>
			<path d="M410.6,325.3c-0.1-0.1-0.2-0.3-0.3-0.3c0.2,0.1,0.3,0.1,0.3,0.2L410.6,325.3z"/>
			<path d="M409.1,292.7C409.2,292.7,409.3,292.7,409.1,292.7L409.1,292.7z"/>
			<path d="M403.1,152.7l0.1,0.5l-0.3-0.5C403,152.8,403.1,152.8,403.1,152.7z"/>
			<path d="M403.1,152.6C403.1,152.6,403.1,152.6,403.1,152.6c0.1,0,0,0.1,0,0.1L403.1,152.6z"/>
			<path d="M401.8,503.3c-0.7-0.1,0.3,0.6-0.5,0.5c0.4-0.3-0.1-0.7,0-1C401.7,502.9,401.7,502.9,401.8,503.3z"/>
			<path d="M401.3,217.8v0.3C401.3,218,401.3,217.9,401.3,217.8C401.3,217.8,401.3,217.8,401.3,217.8z"/>
			<path d="M400.6,151.5l0.1-0.6c0.3,0.5,0.8,0.4,1.1,0.1c0-0.4,0-0.1,0.3-0.5c0,0.4-0.1,0.9,0.1,1.1h0.3v0.4h0.6l0.1,0.6
				c-0.9,0.3-0.6-1.1-1.4-1.1v0.5C401.5,151.5,400.8,151.4,400.6,151.5z"/>
			<path d="M399.5,539.6v0.3C399.4,539.7,399.4,539.6,399.5,539.6z"/>
			<path d="M398.5,155.7c0-0.1,0-0.1,0-0.1C398.5,155.6,398.5,155.7,398.5,155.7z"/>
			<path d="M396.9,147.6c0.3,0.1,0.9-0.3,0.5,0.6L396.9,147.6z"/>
			<path d="M396.6,147.3l0.3,0.3C396.7,147.5,396.6,147.5,396.6,147.3z"/>
			<path d="M393.4,541.9c0,0.1-0.1,0.2-0.1,0.2C393.3,542,393.3,542,393.4,541.9z"/>
			<path d="M391.9,281.2c0,0.2,0,0.4-0.1,0.5C391.7,281.6,391.7,281.5,391.9,281.2z"/>
			<path d="M391.9,542.3L391.9,542.3C391.9,542.3,391.9,542.3,391.9,542.3z"/>
			<path d="M385.7,151.9c-0.8-0.9-2.2-1.7-1.9-2.8c1.7,0.5,2.6,1.1,3.1,2.6l-0.2,0.3l0.2,0.4C386.6,152,386.1,151.5,385.7,151.9z"/>
			<path d="M377.7,133.7l0.6-0.4l0.4,0.8c-0.3,0.4-0.5,0.5-0.9,0.5C377.4,134.4,377.4,133.8,377.7,133.7z"/>
			<path d="M373.9,531.1c0.1,0,0.1,0,0.2,0C374,531.1,373.9,531.1,373.9,531.1z"/>
			<path d="M371.7,462.9c0.1,0,0.2-0.1,0.2-0.2c0.1,0.1,0.1,0.2,0.1,0.3C371.9,463.1,371.7,463,371.7,462.9z"/>
			<path d="M371.8,462.3c-0.1,0.2,0.3,0.3,0.2,0.5c-0.1-0.1-0.2-0.2-0.4-0.3L371.8,462.3z"/>
			<path d="M370.1,375h-0.4C369.8,375,370,375,370.1,375z"/>
			<path d="M366,415.9v0.1V415.9C366,415.9,366,415.9,366,415.9z"/>
			<path d="M365.1,424.8c0.1,0,0.2,0.1,0.3,0.1C365.3,424.9,365.2,424.9,365.1,424.8z"/>
			<path d="M364.7,426.3l0.2,0C364.8,426.3,364.8,426.3,364.7,426.3z"/>
			<path class="st0" d="M447.4,329C447.4,329,447.4,329,447.4,329L447.4,329C447.3,329,447.3,329,447.4,329z M442.6,415.5l-0.3-1.1
				l-0.3,0.1L442.6,415.5z M436.7,436.4c0.1-0.5,0.1-1.2-0.5-1.1C436.7,435.6,436.2,436.6,436.7,436.4z M436,453.3h-0.2l0.5,0.5
				L436,453.3z M435,459.1c0.6-0.4,0.1,0.6,0.5,0.9h-0.3v1.2h0.6v0.3c1.1-0.3-0.1-1.1,0.5-1.6c-0.1,0-0.4,0-0.5-0.1
				c0-0.2,0.1-0.2,0.1-0.4l0.3,0.1l-0.4-0.3c0.7-0.4,0-1.5,0.1-1.6c0.4-0.1,1-0.3,1.1-0.7c-0.1-1-0.5-2.1-1.5-2.2l0.1,0.3
				c-0.8,0.7-0.5,2.6-0.1,3.5C434.9,458.2,435.5,458.7,435,459.1z M404.8,477.2c-0.1,1.2,0,1.8-0.1,2.8c0.1,0.5-1,1.4,0,1.7
				l-0.3,0.4c-0.8,0.7,0.3,0.1,0.1,1c-0.1,0.5,0.5,1.5-0.6,1.5l0.4,0.7c-0.2,1.1-0.4,1.5-0.5,2.2c-0.4,1.1,0.1,3.1-0.5,4.1
				c1.1,0.5-0.7,2.2,0.5,3.1l-0.5,0.2c0.8,0.5,0.1,1.1-0.1,1.5h0.4c1-0.7,2.4-2.9,3.1-4.1l0.2,0.3c0.6-0.6,1.5-1.7,1.2-2.7
				c0.1,0,0.1,0.6,0.1,0.3l0.8-1c0.5-1.6,1.2-3.1,2.3-4.6c0.9-0.8,1.9-0.8,3-0.9c0.9,0.1,0.9,1.5,1.9,1.4c0.5-1.4,1.9-2.4,2.7-3.1
				c0.9-1.7,3.1-2.5,3.6-4.3c0.9,0.1,0.7-1.5,1.5-1.2c0.9-2.1,2.8-2.2,4.2-4.6c0.5-1.2,1.6-2.6,1.6-3.7h0.6c0.1-0.3-0.1-0.4-0.4-0.6
				c0.9-0.6,1.5-1.6,1.9-2.6l0.1,0.1c0.3-0.9,0.9-1.5,0-2.2l0.9-0.9c0.1-0.5-0.1-0.9-0.6-1c0.4-0.9-0.1-1.9-0.3-2.7
				c0.6-0.3,0-0.6,0-1c0.9-0.9,0.3-2.6,0.6-3.5c-0.7-1,0.1-1.9-0.1-2.6c1.2-1.1-1.2-3.1,1.2-3.2c0.1-0.4,0-0.5-0.1-0.7l1.1-0.5
				c1.6,0.7,0.4,2.1,1.6,2.8l-0.7,0.6c0.3,0,0.7-0.1,0.7,0.3c-0.5,0-0.2,0.6-0.7,0.6c0,0.3-0.1,0.7,0.3,0.7l-0.3,0.1
				c1.1,0.1,0.6-0.4,1.5-0.6l-0.1,0.4c0.1-0.1,0.1-0.4,0.4-0.4l0.1-1.5c-0.3,0-0.5,0.1-0.7-0.1c0.5,0,0.5-0.5,0.7-0.3
				c0.1-1.5,0.7-3-0.1-4.1l-0.1,0.4c-0.1-0.6-1.4-0.1-0.9-1.1c1.5-2.2-1-4.2-0.4-6.4c-1.6-0.5-1.1,2.6-2.2,3.2
				c-0.5-0.1-1.1,0.3-1.5-0.5c0-0.6,1.2-0.9,0.4-1.2c0.6-0.6,0.7-1,0.4-1.9c1.1-0.7,1.1-2.2,1.7-3.2c0.5-0.4,1.4-0.1,1.6,0.4
				l0.1-0.5h-0.3c-0.7-0.6-1-1.2-1.1-2c0.4-0.3-0.1-1.1,0.6-0.9c0.1-0.5-0.3-1.1,0.2-1.4c0-2,1.1-3.2,1.4-5.1c0.1,0,0.2,0.1,0.4,0.1
				c1.1-2.7,1.2-5.2,2.5-8.3c0.9-0.4,1.1,0.6,1.5,0.9c-0.3,0.4-0.5,0.9-0.1,1.2l0.1-0.1c-0.4-0.5,0.6-1,0.9-0.8
				c-0.4-0.7-0.4-1.7-0.1-2.7l-1.5,0.1c-0.6-1.5-0.2-3.3,0.3-4.8c1.6-0.4,1.1,0.7,2,1.7l-0.5,0.6c-0.1,0.6,0.4,0.4,0.5,0.9l0.1-0.8
				c0.6-0.5-0.1-0.9,0-1.5l0.6,0.1c-0.1-0.6,0.2-0.9,0.6-1.1c-0.2-1-0.2-2.1,0.6-3l-0.4-0.4c0.9-1.6,0.8-3.6,1.2-5.3
				c-1.1-1.4,1-3.3,0.3-4.6h0.1c0-0.6,0.4-1.5-0.3-1.7l0.3-0.4h-0.3c0.1-0.3-0.4-0.8,0-1.1c0.1,0,0.1,0.1,0.3,0.1l-0.5-0.9
				c0.1-0.4,0.4-0.1,0.5-0.3v-0.9h0.4v-1h-0.1v-1.1c1.2-0.4-0.5-1.6-0.7-2.2l0.1-0.1c0,0.1,0.1,0.3,0.3,0.1
				c-0.6-0.9,0.6-1.2,0.5-1.9c-0.2-0.1-0.5,0.1-0.6-0.1c0.3-0.2,0.4-0.5,0.6-0.5v-2c-0.2-0.1-0.4-0.4-0.4-0.8
				c0.1-0.1,0.2-0.1,0.4-0.1c0.1,0,0.1,0,0.1,0c0,0-0.1,0-0.1,0c-0.2-0.1-0.5-0.3-0.4-0.6c1.1-0.7-0.3-2-0.4-3
				c-0.6,1-0.1,1.9-0.6,2.7c-0.5,0.4-0.6,0.5-1.4,0.5c-0.7-2.9,0-6.7,0.1-9.5c-0.2-2.5,1.1-4.2,1.2-6.6c0.5-0.9-0.4-2,0.7-2.2
				c0-1-0.1-1.4,0-2.1c-0.1-0.9,1.4-1.7,0.5-2.6l0.4-0.4c-0.1-0.7,0.9-1.5,0.4-2.2h0.3l0.1-1c1-0.9,0.1-1.6,0.1-2.4
				c0.2,0,0.4-0.1,0.5,0.1c0.6-0.8-0.5-0.8-0.1-1.4l0.6,0.2c-1-0.7,0.3-1.5,0-2h0.1l0.1-1.1c0.1-0.1,0.1-0.2,0-0.2l0,0.2
				c-0.1,0.2-0.5,0.5-0.7,0.1c1-0.7,1-1.6,0.9-2.6c0.9-0.5-0.5-1.9,0.7-2.1c-0.4-1.5,1-3.3,0.1-4.7c0.9-1.4,1.4-3.7,1.5-5
				c-0.1-1.4-0.9-1.4,0.3-2.5c0-0.9,0.4-1.4-0.4-2.1l0.5-0.4c-0.1-0.1-0.4-0.1-0.4-0.4h-0.7c-1.2-0.9-2.6-0.3-3.8-0.7
				c0.1-0.1,0.1-0.2,0.3-0.1c-0.1-0.1-0.2-0.3,0-0.5c-1.1-0.5-0.9,0.1-1.9,0.5c-2.2,1.1-3.1-0.9-5.2-1.2c-0.6-0.3-0.6,1-1.1,0.1
				l0.1-0.1c-0.9,0.1-1.5,0.4-2.2-0.1v0.4c-0.5-1.2-2.6-0.4-3.5-1.2l0.1-0.3c-1-0.1-2.1-0.1-3.1-0.5l-0.9,0.3
				c-0.3-0.1-1.4,0.2-1.7-0.1l0.1-0.1L428,326c0,0.1,0,0.1,0,0.2l-0.3,0.2c-1.1-0.4-3.2-0.6-4.5-0.1c-0.6-0.5-2.1-0.4-3-0.5
				c0.1,0,0.2-0.1,0.2-0.2h-0.4c0,0.2-0.4,0.5-0.6,0.7c-1.1,0-2-0.3-3.1-0.6c-0.4,0.6-1-0.5-1.1,0.4l-0.5-0.5c0-0.3-0.5-0.1-0.6,0.1
				c-0.4-0.6-1.4-0.4-1.7-0.9c-0.6,0.8-1.5-0.2-2.2-0.2l0.4,0.5l-0.1,0.1c-0.1-0.1-0.2-0.2-0.3-0.2c0.1,0.1,0.2,0.2,0.3,0.3l0.1-0.1
				c0.5,0.6-1.3,1.4-0.1,2c0,0.1-0.1,0.2-0.3,0.1l0.3,1.1h-0.1c-0.5,0.3,0.4,1,0.3,1.1l0.3-0.1l0.3,0.4c-0.9,0.9-0.3,3.3-0.5,4.6
				h0.4c0,0.2,0.5,0.5,0.1,0.7h-0.1c-0.4-0.1,0.3,0.4,0.6,0.4l-0.3,0.3c-0.6,0.6-0.5,2.2-0.2,3.2c-0.3,0.2-0.5-0.4-0.5-0.1
				c-0.3,0.6,1.4,1,0.4,1.5c0,0.7-0.3,1.7,0.4,2.3c-1.1,0.9,1.1,1.4-0.1,1.7c0.6,1.2,0,1.5,0.6,2.6c-1,0.9,1.2,1.9,0.5,2.9
				c-0.1,0.7,1.2,2.4,0.1,3.2c0.3,0,0.5,0,0.7,0.3c-1,0.2,0.5,1.4-0.4,1.2c0.3,0.3,0.5,0.9,0.7,1.2l-0.5,0.5c1,1,0.1,1,0.7,1.8h-0.3
				l0.4,3c0,0.4-0.4,0.6,0.1,0.9c0.1,0.3,0.5,0.5,0,0.7c-0.5,0.4,0.2,0.8,0.5,1c-0.3,0.1-0.3,0.4-0.5,0.4c-0.1,0.2-0.5,1.2,0.2,1.5
				c-0.9,2.8,0.1,5.7-0.9,8.4h-0.1l-0.5,3.7c0,0.4,0.7,0.6,0,0.9c0.4,0.3-0.5,1.1,0.3,1.5c0.6,0.8-1.4,1.1-0.6,1
				c-0.3,1.2-0.1,2.5-0.1,3.5c-0.1,0.3-0.4,0.3-0.5,0c-0.1,0.7,0.1,0.6,0.1,1.1c-0.1,0.5,1,0.8,0.1,1.1c-0.1,0.1-0.1,0-0.3-0.1
				c-0.4,0.4,0.1,0.3,0.3,0.6c-0.3,0.3-0.4,0.5-0.4,0.9c0.1,0.5,0.8-0.4,0.8,0.4c-0.1,0.3-0.4,0-0.6,0.1c0.3,1.4,0.1,2.4,0.1,3.8
				c-0.5,1,0.5,1.5-0.3,2.5c0.6,1.2-0.7,2.5,0,4c-1.1,0.6-0.4,2.6-0.1,3.3c0.4,0.9-0.9,1.6,0,2.6c-1,1.1-0.3,2.5-0.3,3.7
				c-0.6-0.6,0.1,0.4-0.5,0.2c0,0.4-0.1,0.8,0.3,0.9c-0.9,1.1-0.4,2.5,0.1,3.5c-1.1,0.6-0.3,2.1-0.7,3c-0.5,0.9-0.6,1.4,0,2.2
				c-0.3,0.1,0.2,1.2-0.4,0.8c0.1,1.1-0.8,2-0.3,3.2c-1.1,0.5-0.7,1.9-0.9,2.8H409c0,0.5-0.5,1.6,0.1,2.2l-0.3,0.3l-0.1-0.1
				c-0.4,1.1-0.4,1.9-0.5,2.7H408c0,0.4,0.6,1.4,0,1.7c0.4,0.6-0.9,1.2,0,1.6c-0.3,0.5,0.1,1.1-0.5,1.4c0,1.2-1,2.7,0,3.1
				c-0.1,0.5-0.6,0.2-1,0.4c-0.3,1.5-0.1,3-0.3,4c0.1,2.1-0.4,3.8,0.3,6.3c-0.3,0-0.3,0.4-0.5,0.3c-0.3,0.9,0.6,1.6-0.1,2.4
				c1.1,3.3-0.1,5.9,0.3,9.5c-1.1,1,1.1,1.5-0.4,2.2c-0.3,1.1-0.1,2.2,0.1,3.2l-0.5,0.5c0.1,0.5-0.3,1.2,0.6,1.5l-0.6,0.5l0.5,0.1
				c-1,1.2,0,2.1-0.7,3c0.1,0,0.4-0.1,0.4,0.1c-0.6,0.3-1,1.6-0.3,1.6c-0.1,0.1-0.5,0.4-0.5,0.6c0.3,0,0.5-0.1,0.6,0.1l-0.6,0.4
				c0.7,1.1,0,2,0.3,2.6H404.8z M401.3,503.8c0.8,0.1-0.2-0.6,0.5-0.5c-0.1-0.4-0.1-0.4-0.5-0.5C401.2,503,401.7,503.5,401.3,503.8z
				 M349.7,523.2c-0.2,0-0.5-0.6-0.7-0.1l-0.7-2.2h0.1c-0.5-2.5,1.7-4.3,2.9-5.4c-0.7-0.4,0.4-1,0.1-1.4c1-0.9,2.2-2.4,2.1-3.6
				l0.5,0.1c0.3-1.7,2-2,1.4-3.6c2,0.6,0.9-2,2.6-2.7c0.8-0.1,1.1-0.5,1.5-0.5l0.5-0.5c0.4,0.6,2.5-1.6,3,0.6c0.4,0,0.4,2.5,1.6,2
				c0-0.1,0.5,0.7,0.9,1c0.9-1.2,1-2.4,1.6-3.7v-0.4c0.3-0.7,1.4-1.2,1-2.6c0.5-0.6,0.1-1.7,1-2.4c-1.2-0.6,1.2-0.5,0-1.4
				c0.4-1.7,1.7-1.9,1-4c1.2-1.1-1.2-3-0.3-4.1c0.9-1.5-1-3.2,0-4.7c-0.5-1.4,0.4-3-0.1-4c0.1-0.9,0.3-1.6,0.4-2.5
				c0.3-0.5,0.3-2.5,0-2.7l0.6,0.1c0.5-0.7-0.3-1.5,0.1-2.2l0.3,0.1c-0.3-0.9,1.1-1.7,0-2.9h0.3l-0.1-0.3c0.5-1,0.1-2.2,0.9-3.1
				c-0.1-0.5,0.1-0.7,0-1.2c-0.3-0.7,0.3-1.5,0.2-2.1h0c0.6-0.3,0.3-0.9,0.4-1.4c-1-0.4-0.1-0.9,0.1-1.2c0.3-2.1,0-4.1,0.8-6.3
				c0.1-0.7-0.9-1,0-1.5l-0.3-0.3c0.1-0.4,0.3-2.4,0.1-3.5c-0.1-2.1,0.4-4.2,0.4-6.7c0.1-0.9-0.4-2.1-0.1-3c0.5-0.9-0.8-2.8-0.1-3.9
				c-0.1,0.1-0.2,0.1-0.3,0.1v-0.3l0.4,0.1c0.7-1-0.3-1.5,0.1-2.3c0-0.6,0.3,0.9,0.6,0c-0.2-1.5-0.6-2.2,0.1-3.7
				c-0.6-0.5,0.5-1.2-0.1-1.7c0.6-0.3,0.4-0.9,0.1-1.1c1.2-1.5,0.1-3.7,1.1-5.1c-0.4-2.5,0.6-4.7,0.9-7.2l-0.1-1.2l0.1,0.1
				c-0.5-0.4,1.4-1.6,0.1-2c0-1.5,0.6-1.9,0.9-3.1l-0.7-0.7c1-0.3,0.6-1.1,1.1-2.1c-0.1-0.1-0.4-0.1-0.5-0.1c1-0.9,0-2,0.9-2.7
				c0-1.1,0.4-1.4,0-2.5c0.9-0.4-0.4-1.4,0.5-2c-0.8-1.1,1.1-1.4,0-2.6c0.9-0.7-0.5-1.7,0.6-2.2c0.1-1,0.3-2.7,0.4-3.6
				c0.5-1.2-0.8-2.5,0.2-3.6c-0.4-0.1-0.4-0.5-0.4-0.9l0.1,0.1c0.4-1.4,0.7-2.7,0.4-4.5h0.1c-0.4-0.9,0.7-1.7,0.1-2.5l0.1,0.1
				l0.3-1.7c0.2-0.9,0.5-0.6,0.7-1.5c-0.3-1,0.4-2.1,0-3.2c0-0.9,1-1.4,0.3-2.4h0.2c0-1.1,0-1.9,0.6-3c-0.2-1.1,0.6-2.2-0.1-3.2
				c0.3-0.3,0.1-0.6,0.1-0.9c0.3,0,0.8-0.6,0.8-1.1c0.1-1.5,0.4-2-0.1-3.6c0.1,0.1,0.1,0.3,0.3,0.3c-0.3-1.1,0.3-3-0.3-4.2
				c0.1,0.1,0.1,0.1,0.3,0.1c-0.1-0.7-0.3-1.4-0.4-2.2c-0.1-0.9,0.9-0.6,0.9-1.5c1.9-2-0.4-5.2,1.6-7.1c0.1-0.6,0.4-1.6,0.5-2.1
				l0.1,0.1c0.3-0.2,0.6-1,0.3-1.5c0-0.6,0-2.2,0.6-2.7c-0.1-0.4-0.1-1.1,0.4-1.6l-1-0.8c1.6-0.9,0.9-3,1.2-4
				c-0.1,0,0.4-2.4-0.5-2.7c0.3,0,0.4,0.3,0.5,0.4l0.3-0.4c-0.3-0.6-1.2-0.5-1.1-1c0.3-0.3,0.5,1,1.1,0.4l-0.8-1.1
				c0.8-0.5,0.4-0.9,1-1.6c-1-0.9,1.1-2-0.6-2.6c1.4-0.8-0.4-0.6,0.6-1.6c-1.2-1.1,1-1,0.3-2.5l-0.3-0.3c0.6-1,0-1.2,0-2.4l-1-0.7
				l-0.1,0.1l-0.9-1c-0.4,0-0.5,0.8-1,0.5l-0.5-1.1l-0.5,0.4c0-0.9-1-0.3-1.2-1.1c-0.6,0.6-1-0.9-1.7-0.1c0-0.9-1.5-0.3-2.2-0.6
				c-0.2,0.4-0.5,0.3-0.9-0.1c-1.4-0.8-3.5-0.4-4.6-1.5c-0.8,0.7-1.5-0.3-2.2-0.3l-1-1.2c0.9-3.1,2.9,1.1,4.2-1
				c-0.1-0.4-0.6-0.4-0.9-0.2c0.1-0.4-0.7-0.8,0-1c0.3-0.3,1.1-0.4,1.4,0.1c-0.1,0.4-0.4,0.6-0.3,1.1c1.5-0.4,3.7-1.5,5.3-2.1
				c1.7-1.6,2.2,2.9,3.7,0.3v-0.9l0.3,0.5c0.6-1.5,0.7-2.6,0.5-4.1l0.1,0.1c0.6-1.9,0-4,1.2-5.7c-0.1-0.9,0.5-1.6,0.1-2.1
				c0.9-0.5,0-2.7,0.7-4.3c-0.4-0.4,0-1.9-0.4-2.4c0.4-1.7-1.4-4.2-0.1-6.6c0.6,0,1.6-0.6,2.4-0.1c0.3,1.1,1.2,0,1.7,1.1
				c0-0.1,1.3,1,1.6,0.5c0.2,0.2,0.5,0.3,0.7,0.5h0.9c-0.1,0-0.1,0.1-0.1,0.3c1.5,0.3,3.6,0.7,5.2,0.1l0.2,0.9
				c0.1-0.5,1.5,1,2.1,0.4l0.3,0.6c0.4-0.1,0.6-0.4,0.5-0.7c0.3,0,0.3-0.3,0.5-0.4l0.1,0.1l-0.4,0.4c0.4,0.6,0.5-0.1,1,0.1
				c0.7,0.8,2.2,0.1,2.5,1.6c0.4-0.2,1.4,0.5,2,0.5c1.2-0.1,1.4,1.2,1.7,2.1c0.6,0.3-1.2,1.4,0,1.6c-0.4,1,0.1,2.1,0.1,2.9
				c-0.1,0-0.1,0-0.1-0.1c-0.1,0-0.1,0.3-0.1,0.4c1,0.3-0.6,1.2,0.1,1.6c0,0.6-0.1,1.6,0.1,2.2H409c-0.1,1.4-0.5,2.9,0.5,3.6
				l-0.2,0.1c0.1,0.3,0.4,0.3,0.5,0.3l0.3-0.4v0.7c-0.7,0.3-0.4,0.9-0.7,1.5l0.6,0.7l0.5-0.4l0.9,0.7c0.2-0.1,0.1-0.4,0.1-0.5
				c0.3-0.1,0.4,0.1,0.5,0.2c0.3-0.7,1,0.4,1.1-0.4c1.2,0.1,2.6-0.1,3.7,0l-0.1-0.1c2-0.3,4.8-0.4,6.6-0.6c1.1,0.6,2.1,0.3,3.1,0.1
				c1.4,0.5,3.4-0.3,4.8-0.5c0.6,0.9,0.9-0.1,1.9,0.5c0.7,0.3,2.1-0.6,2.7,0.5c1-0.9,1.7,1,2.9,0l0.7,0.5c0.1-0.2,0.4-0.2,0.7-0.2
				c0.4,1.2,0.9-0.6,1.5,0.5c1-1,2.6,1.1,3.5-0.3c1,0.4,1.7-0.1,2.6-0.2c1.8,1.5,3.6-0.9,5.2,0.2v-0.1c1.1,1.5,3-0.1,4.7,0.6
				c0.1,0.1,0.3,0.4,0.5,0.3l0.1-0.1c1,0.6,3.2,0.1,4.3,0.5c0.1-0.3,0.4-0.3,0.6-0.4l0.3,0.4c-0.1-0.1-0.3,0-0.3,0.1
				c0.9,0.3,2.2,0.9,3.3,0v-0.5c2.6,0.2,3.1-2.1,5.8-2.2c0.3,0.6,1.1,0.1,1.5,0.5c2.4,2.1,5.2,3.8,5.1,7.3c1.5,0.2,2.6,1.4,3.7,1.9
				l0.1-0.1c0.9,0.7,2.3,3,2.3,4.9l-0.1-0.1c0.1,0.7-1.4,1.4-0.5,2c-0.1,0.1,0,1-0.5,1.4l0.4,0.4c0,1.2-0.4,2.4-0.9,3.5h0.3
				c-0.5,0-0.4,0.9-0.5,1.2h0.3c0.6,1.4-1.2,2.9,0.5,3.7l-0.4,0.3c0.1,0.2,0.4,0.2,0.5,0.2c-0.3,0.4-0.1,1.1-0.1,1.5
				c-1.4,1.5,0.9,5.1-2,6.3l-1.7,0.9l0.1,0.3c-1.1,0.6-3,0.7-3.5,2.4c0.7,0.7-0.6,1.4,0.4,2.1c-0.6,0-0.5,0.3-0.6,0.8
				c0.5,1-0.4,2,0.6,2.5c-1.1,1-0.3,2.7-0.5,4c-0.8,2,0.2,2.9-0.3,4.1c0.3,1.2-0.3,1.4,0.3,2.6h0.2c-0.2,0.6-0.7,1.4-0.1,1.8
				c-0.9,1-0.9,2.6-0.6,3.7c-0.9,2.8,0.3,5.6-1.1,8.4c0.4,1.6-0.6,2.9-0.4,4.5c-0.5,0.4-0.1,1.6-0.9,2c-0.1,1.4-0.3,2.1-0.9,3.6
				c0.4,0,0.3,0.4,0.3,0.7c-0.3,0.4-0.6-0.4-0.5,0.4c0.1,1.1-0.2,3.5-0.6,4.3c-0.6,1.1-0.8,2.2-1.1,3.8c0.1,0.7-0.1,2.1,0.7,2.4
				c-0.5,0.5-0.2,1.5-0.7,2.2c0.5,0.4,0.4,1.2,0.3,1.7h0.3c-0.3,0.1-0.3,0.4-0.5,0.7l0.1,0.1c0,0-0.1,0-0.1,0c0.5,1.1-0.5,2.6,0.5,4
				c-0.4-0.1-0.4,0.4-0.6,0.5c0.9,0.6-0.4,1.7,0.5,2.2h-0.1c-0.4,0.3,0,0.7,0.1,1l-0.5,0.6c0.7,0.7-0.5,2,0.4,2.5l-0.3-0.1
				c-1.5,1.5,1.1,3.5,0.3,5.2h0.1c0,0.1,0.1,0.4-0.3,0.6c0.1,0.1,0.4,0.1,0.5,0.1c-0.8,0.4-0.5,1.4-0.3,1.9h0.1
				c-1.4,0,0.1,1.4-0.6,2.4c0.9,1.1-0.4,2.6,0.5,3.6h-0.3c0.1,0.7-0.1,2-0.3,2.7c0.3,0,0.6,0.1,0.5,0.6l-0.5,0.4
				c0.3,0.6,0.8,0.4,0.5,1h0.1c0,0.1-0.1,0.2-0.1,0.2l-0.6-0.5c-0.4,1.1,0,2.2,0.1,3.3c-0.1,0-0.2,0-0.2-0.1c-0.4,2.1-0.4,5-1.9,6.7
				c1,1.9-0.9,3.1-0.3,5.4c-0.5,0.7-0.5,2.2-0.5,3.2c-1.6,1-2,4.1-3.1,5.3c0.5,0.7-1.1,1-1,1.6c0.3,1.9-0.3,2-0.7,3.7
				c-1.2,1.4-2.1,4.2-1.7,6.1h-0.1c-0.1,2.4,0.4,5.9-0.1,8c0.6,0.4-0.4,0.8,0,1.4c-0.4,0.7,0.1,2.4-0.5,3.1c0.5,0.3-0.4,0.7,0.4,1.2
				c-0.5,0.4-0.4,1.5-0.1,2c0.5,0.5-1,1.4,0.4,1.9c-1.4-0.5-0.1,1.1-0.7,1.7h-0.1c-0.1,1.9,0.2,3.3-0.3,5.2
				c-0.6,0.4-0.1,1.7-1.1,2.2c-0.1,2.8-0.2,3.7-0.2,6.4c-1.6,1.2-1.1,2.1-2.2,3.8l0.1,0.7c-0.1-0.2-0.6-0.1-0.7,0.1
				c-0.6,0.1,0,1.1-0.6,1.1v0.5l-0.1-0.1l-0.5,1.2v-0.1c-1.6,0.5-3.7,2.1-4.6,3.3c-1.2,0.4-1.9,3-3.8,2c-0.2,0.9-2.3-0.1-1.7,1.4
				c-0.1-0.3-0.4-0.3-0.5-0.3c-1.1,1.5-1.9,0.8-3.1,2.5c-0.9-0.5-0.5,1.1-1.4,1.2c0-0.1-0.1-0.1-0.1-0.3c-0.5,0.4-1.4,0.9-2,1
				c-1.1,1-2.4,2.2-4.3,2.6l-0.9,0.6c0-0.4-0.3-0.5-0.4-0.6c-0.7-0.5-2.4,0.3-3,0l0.3,0.6c-1.7-0.9-2.5,2-4.2,1.1
				c-0.4,1.4-2,0.6-3.2,0.6c-0.1-0.4-0.1-0.9-0.6-1.2c-0.4-0.1-1,0.4-0.8,0.6c-1,0.6-2.1-1.1-3,0.4c-0.9,0.3-2.2,0.8-2.5-0.5
				l0.2-0.7c-1.1-0.6-2.8-0.6-3.6-1.4c-0.2,1.5-0.9,2.6-1.9,3.5c-0.5-0.5-2.5-1.6-1.1-2.4c0.6-0.7-0.1-0.7-0.1-1.5l-0.4,0.1l0.2-0.4
				l-0.1-0.1c-1.2,0.1-0.7,3-2.7,1.6c0.9-1.1-0.7-1.4-1-2c1.5-1,0.1-3.2,0.4-4.8l-0.4,0.4c-0.5-0.7,0.9-0.7,0-1.4
				c-0.6,0.6-1.4-0.1-2-0.4c0.2-0.6-0.5-1.2-0.6-1.9c0.1-0.4-0.9-0.5-0.5-1.1c-0.7,0.9-1.8,2.1-1.8,3.5c-0.4,0.4-2,2.1-3,3
				c-0.6,0.5-0.3,2.8-2.2,2l-0.1-0.3c0,1.4-1.2,2.5-0.6,3.6c-0.5,0.1-1,0.7-1.7,0.4c-1-1.1-1,1-1.9-0.5c-1.7-0.6-0.7,1.6-2.2,1.7
				c-0.3,1.1-0.4,1-1,1.9c-0.4-0.5-1,1-1.7,0.4c0.4,1.6-1.6,1.6-1.1,3.3c-1.4,0.3-0.7,2.4-1.9,3.3l-2-0.4c-1.5,1.9-1.5,4-4.3,4
				c-0.4,0-1.2-0.7-1.6,0.1c0,0.2,0.3,0.4,0.1,0.6c-0.2,0.5-0.5-0.2-0.7,0.4c0.1,0.1,0.2,0.1,0.3,0.1c-0.6,0.1-0.8,1.2-1.4,1.4
				l0.1,0.1c-1.1-0.2-2,2.4-3,0.1c0.4-0.5-0.3-1.2-0.7-1.2c0-0.1,0-0.1,0.1-0.3c-0.1-0.2-0.4-0.2-0.5,0v0.5l-0.3-0.4
				c-0.1,0.4-0.5,0.6-0.8,0.9c-1.9-1.6-2.2,1.2-4.3,0.5c-0.3-0.4,0-1.2-0.7-1.2c-0.5-0.3-0.7,0.5-0.9,0.7c-0.5-0.2-0.9-0.5-1.5-0.5
				c-0.1-1.2,2-0.4,2.8-0.7c-3.7,0.4-5.8-1.4-7.9-3.6c-0.6-0.3-0.6,0.4-1,0c0.4-0.4,0-1-0.5-1.1c0,0.3-0.3,0.3-0.4,0.3
				c0.6-1.9-2.1-0.6-2.5-2.2c-0.4,0.3-0.5-0.3-0.9-0.6C349.6,523.5,350,523.3,349.7,523.2z M440.8,431.2c0.1-0.6-0.5-0.3-0.7-0.5
				c0.5,0,0.3-0.9,0.7-0.4l-0.6-1.1c-2.1,0.1,0.4,1.4-1,2.2L440.8,431.2z"/>
			<path d="M359.2,590.1c0,0.1-0.1,0-0.3,0H359.2z"/>
			<path d="M359,590.1h-0.2c0,0,0,0,0-0.1C358.8,590,358.9,590,359,590.1z"/>
			<path d="M346.8,518.8c0,0.3,0.2,0.5,0.5,0.7c0.1-0.1,0.4-0.3,0.2-0.6l0.3,0.2l-0.5,0.7C347,519.9,346.8,519.3,346.8,518.8z"/>
			<path d="M345.1,483.2v1C344.5,484,345.1,483.6,345.1,483.2z"/>
			<path d="M343,333.2C343,333.2,343,333.3,343,333.2c0,0.1-0.1,0-0.1,0H343z"/>
			<path d="M342.6,331.5c0,0.1,0,0.1,0,0.2C342.5,331.5,342.5,331.3,342.6,331.5z"/>
			<path d="M341.4,331.3c0,0,0.1,0.1,0.1,0.2L341.4,331.3L341.4,331.3z"/>
			<path d="M337.3,511c0.3-0.4,0-0.7,0.1-1.1c-0.1-0.1-0.4-0.1-0.5-0.1c1-1.1,2.6,0.8,1.5,1.6C338.2,511,337.4,511.5,337.3,511z"/>
			<path d="M335.2,214.8C335.2,214.8,335.2,214.8,335.2,214.8C335.2,214.8,335.2,214.8,335.2,214.8z"/>
			<path d="M332.4,519.9c1.1,0.6-0.9,0.5-0.2,1.5c-0.5,0-0.8-0.1-0.8-0.5l0.3-0.6c0.3,0.5,0.5,0.1,0.7,0V519.9z"/>
			<path d="M330.1,516.3l-0.2,0.3c0-0.1,0-0.2,0-0.3L330.1,516.3z"/>
			<path d="M329.9,514.7c-0.9-0.4-0.6-1.5-1.4-1.9l1-0.1v-0.1l0.7,0.7c0,0.1-0.5,0.3-0.6,0.9c0.6,0.4,0.7-0.5,1.1-0.7l0.1,0.1
				l0.2-0.3c0.8,0.4-0.4,1-0.1,1.5l-0.6,0.7l0.3,0.1c0.1,0.1-0.4-0.3-0.5,0l-0.3,0.3c0-0.4-0.1-0.8-0.4-0.8
				C329.6,515.1,329.8,515,329.9,514.7z"/>
			<path d="M329.9,515.9c0,0.1,0,0.2,0,0.3l-0.2-0.1L329.9,515.9z"/>
			<path d="M329.3,515.2c0.1,0,0.1,0,0.2,0C329.4,515.2,329.3,515.2,329.3,515.2z"/>
			<path class="st0" d="M309.1,280.1c-0.6,0.9-1.9,1-2.1,2.2c-0.5-0.3-2.4,0.6-2.4-1.1c0.8-2.2,2.5-4.5,3.7-6.1
				c2.2-4,5.4-8.5,6.8-13c0.5,0,0.6-1.4,1-1.9c2.2-3,4-5.6,6.3-7.7c0.7-1.6,2.3-2.8,3.8-4.2l-0.5-0.1c0.9-0.2,1.4-1.9,2.4-2.5v-0.6
				c1.1,0.6,1.2-1.1,1.5-1.5l0.3,0.1c0.9-1.6,2.4-3.5,3-5.4c1-1.9,2.4-3.2,3-5.5c1.1-2.3,2.9-3.8,4.1-6.3c0-0.1,0-0.3-0.1-0.4
				l0.3,0.3c0.4-2,1.7-2.4,2.1-3.7l0.1,0.1c1.2-1.6,1.5-3.6,1.5-5.6c0.6-0.4,0-1.5,0.1-2.2c0-1.6-1.9-0.5-2.9-0.9
				c-1.4,1.2-3.7,0.4-5.1,0.6l-0.5-0.5c-0.1,0.2-0.3,0.2-0.3,0.4c-0.2-0.2-1-0.6-1.5-0.2c0.3-0.2-0.4-0.7-0.6-0.7
				c-0.3,0.5-0.6,0-0.9,0c0-0.3-0.3-0.4-0.4-0.5l-0.4,0.2c-0.3-1-1.9-0.4-2.4-1.5c-1.4,0.1-2.5-0.8-3.5-1.7c0.1-0.2-0.5-1-0.7-0.7
				c1.5-1.6-1.4-2.4-1.6-3.5c-1.2-0.1-1.6-1.1-2.9-0.5c0-1.4-0.3-3.3-1.6-4.7c-0.7-2.4-1.1-5.1-0.1-7.2c0.2-1.7,2.8,0.2,2.2-1.9
				c0.4,0.4,1.2,0.6,1.9,0.4c1.1,0.1,3.1-0.5,3.7,0c2.5,0.4,5.6-1.7,8-1.2c0.9-1.2,2.2-0.1,3.5-0.6c0.7-0.2,2-0.6,2.7-0.2v-0.1
				c1-0.2,2.7-0.2,3.5-1c0.2,0,0.4,0.4,0.6,0.5c1.4,0,1.2-2.1,1.9-3l0.5-0.1c-0.4-2.1,2-3.7,1.7-6.1c0.9-0.5,0.6-2.1,2-1.7
				c0.3,0.6,0.7,0.4,1.1,0.3c1.7,0,2.6,1.6,4.1,1.5c0.1,0.4,1.5,0.2,2.2,0.1c0.3-0.4,1.1-0.6,1.7-0.9l0.9,1.1l0.3-0.1v0.5
				c1.2-1.1,0.9,1.4,2.2,0.7c1.9,0.9,2.2-0.1,3.2,2c-0.3,0.4-0.1,0.9-0.3,1.2c0.8-0.1,0.5,0.4,0.5,0.9c0.9,0.5,1,2.5,2.5,1.5
				c-0.3,0.3,1,0.6,1.2-0.1v0.1c0.6,0.5,1.1-0.7,1.7-0.1c-0.1,0.1,0,0.3,0.1,0.3c0.3,0.1,0.4-0.1,0.6-0.3v0.1c0.7,0.1,1.7,0.6,2.5,0
				c1,1.4,1.7-0.7,2.7-0.2c1.1,0.5,1.6,0.1,2.7,0l1.2,0.1v0.1c2,0.5,3-0.1,4.7,0.4c0.4-0.4,1.6,0.5,2.2-0.2c0,0.4,0.3,0.5,0.4,0.6
				c0.5-0.3,1.2,0.6,1.7-0.1l0.4-0.6c0.2,1.6,1.9,0,2.4,0.9c1.2-0.7,3,0.4,4.1-0.4c1.6,1.5,3.2,0.1,4.3,0.6c1.1-0.1,3.1,0.1,4.4,0.7
				c0.9-1.1,2.2,0.5,3.5,0.1l1.4-0.4l-0.3,0.5c3.3-0.4,4.9,1.2,7.9,1.5c0.3,0.1,0.6,0.3,0.9,0c-0.3,0.6,0.6,0.5,0.7,0.8
				c1,0.7,2.5-0.1,3.5,1.1c0.9-0.4,1,0.6,1.7,0.3c0.1,0.7,1,0.4,1.4,0.7v-0.6c0.2,0.7,1,0.6,1.4,1.1l0.3-0.4
				c0.1,0.4,0.2,0.5,0.6,0.6c0.3-0.5,1,0.6,1.5,0.6c1,1.7,4.3,1.9,6.1,3.1l0.1-0.1c0,0,0,0.1,0,0.1l0.4,0.3l0.3-0.3
				c0.6-0.3,0.1,0.5,0.5,0.6c1.4-0.5,2.1,1.5,3.4,0.9c0.2,0.7,1.4,0.4,1.7,0.6l0.1-0.4c0.7,0.9,2,1.6,3,1.7v-0.5
				c0.3,0.1,0.4,0.3,0.8,0.1c-0.1,0.6-0.1,1,0.4,1.4l1.4,0.1c0.3,0.4-0.5,1,0.1,1.4l0.3-0.1c0.6-0.3,0.6,1,1.1,1.4l0.4-0.5
				c0.6,1.6,3.8,2.2,4.9,3c1.4-0.3,2.5,0,2.8-0.9c1,0,2-0.4,2.6,0.4c0.5,0.9,0.9,2.2,1.7,3.6l0.6-0.3c-0.8,0.4,0,1.1,0,1.9
				c0.2,1.5,0.4,2.2,0.2,4c-0.1,0-0.2-0.1-0.2-0.2l0.1,0.7l-0.1-0.1c-0.3,0.1-0.1,0.5-0.1,0.8c0,0.2,0.3,0.1,0.4,0.1
				c-0.4,0.5-0.5,1-0.4,1.4h0.4c-0.2,0-0.2,0.3-0.4,0.4c0,0.4,0.6,1,0.1,1.2c0,1.5-0.3,2.7,0.7,4h-0.5c-0.2,1.2,0.5,2.6-0.2,3.8
				c1.1,0.9-0.3,2.4,0.1,3.6c-0.6,0.4,0.5,0.7,0.3,0.9h-0.1c0.4,2.2,0.1,4.6,0.1,6.8l0.5,0.3c-1.1,1,0.4,1.9-0.5,2.9l0.2,0.7
				c-1.4,0.6,0.3,1.5-1,2.4c0,1.2-0.9,2.5-0.7,3.3h0.3c-0.6,1.1-0.3,2.2-1.5,3c-0.2,2.2-1.7,2.8-1.9,5.1c-0.6-0.1-0.6,0.5-0.6,1
				l-0.3-0.3c-1.5,1.6-2,3.1-2.1,5.2c-1.6,0.4,0.2,2.4-1.6,2.5c-0.9,1.6-3.2,2.7-3.1,5c-1.1,0.6-2.5,3.2-4.1,3.1
				c-0.1,0.7-1.5,1-1.5,1.9c-0.5,0.4-1.4,0.4-2,0.4c0.1-0.6-0.4-0.1-0.6-0.7c-1.4,0.1-1.1,0.9-1.6,1.5v0.4l-0.2-0.1
				c-0.6,0.1-1.5,2.6-2.7,0.9c-0.4,0.3-1-0.5-1.2,0.3v0.4c-1.4,0.5-3.1,0.1-4.2,1.4c-0.4-0.4-1.2-0.4-1.5,0.1
				c-0.4,0.6,0,1.6-1.1,1.9c-1.4,0.1-3-0.3-3.8-1l-0.4,1l-0.3-0.4c-0.7,1.1-2.1,2.2-3.1,1.4c-1.8,0.5-2.5,1.6-4.2,0.7l-0.4,0.2
				c0.3-0.3-0.2-1.2-0.8-1.2c-1.1-0.5-2.1,1.6-3-0.2c-0.1,0.2-0.5,0.1-0.8,0.4c-0.1-0.4-1.2-1.1-1.7-0.7c-0.9-0.8-0.9-0.4-2-1.2
				c-0.3-0.1-0.5-0.4-0.9-0.3l-0.2,0.6l-0.4-1c-0.8,0.5-1.7-1.2-2.7-1.5l-0.4,0.4l0.1,0.1c0,0.1-0.6-0.4-1.1-0.1V279
				c-1.1-0.4-1.2,1-2.2,1c-0.9-0.1-1.5-1.6-2.2-0.4l-0.1-0.1l0.7-0.5c-0.6-1-2.5,1-2.6-0.7c0.3-1-0.6,0-0.9-0.5
				c-0.5,0.6-1-0.5-1-0.7c-0.3,0-0.5-0.3-0.6-0.4c0.3-0.6-0.3-0.9-0.4-1.6c-0.4,0-1.1-0.9-1.6-0.5c0.5,0.1,0.1,0.5,0.4,0.6h-0.4
				c0.1-0.3,0-0.5-0.3-0.8c-0.6,0.6-0.7-0.2-1.4,0.1c-0.1-0.1-0.1-0.4-0.3-0.5l-0.7,0.7c-0.4-0.2,0.5-0.7-0.3-1
				c-1.1,0.3-1.9,0.9-3,0.6c-0.5,0.1-1.7,0.4-2.4,0.5c0.1-0.4-0.3-0.5-0.4-0.7c-1.2-0.4-1.9,0.9-3.4,0c-0.2-0.6-0.4-1.6-1.4-1.9
				l-0.1,1.1c-1.7,0.1-3.2-0.6-3.8-2.2v-1.4h0.1c-0.4-1.1,0.6-3.1-1.1-3.2c-0.9,1.2-1.9-0.6-2.7-0.6c-0.1-0.4-0.1-0.9,0.1-1.2
				c-0.5,0-1.4-1.2-1.6-0.1c-1.7-0.6-2.4-2.2-4.3-2.2c-1.1-0.9-2.6-1.5-4.1-2.1c-2,0-3.6,0.1-5.6,0.5l-0.9-0.4
				c0.9-1.1,2.7-1.2,4-1.6c1,0.1,1.7-0.3,2.6-0.3c1.5-0.3,3.2-1.1,4.6-0.4c0.6-1.1,0.6,0.5,1.5-0.4c0.8,1.1,1.5-1,2.1,0.3
				c1.2-0.5,2.4,0.9,3.2-0.4c0.6,0.5,1.2,0.1,1.9,0.3v-0.3c1.7,0.1,3.6,0.9,4.9,0.3c1.5,1,3.1,0,4.2,0.7c4.3,0.1,7.5,0.4,11.6,0.3
				c0.9,0.4,3,0.3,3.5-0.4c0.2,0,1.4-0.1,1.9,0.1c0.4-1.2,1.7,0.5,2.1-0.9c1.5,0.6,2.8,0.1,4-0.4c0.6,0.9,2.1-0.4,3.1,0.5
				c0-0.5,1.2-0.3,1.6-0.1c1-0.1,2.4-0.4,3.6-0.4c1-1.2,2,0.4,3.1-0.4l0.4,0.3c1.5-0.4,3-0.9,4-1.6c0.9,1,1.4-0.5,2.1-0.5v0.2
				c1-0.9,3.5-2.1,3.6-2.8c1.1-0.5,1.7-2,3-2.7l-0.5-0.6c0.7,0,0.4-0.1,0.6-0.7l0.1,0.3c0.3-0.3,0.9-1,0.4-1.2
				c1.4,0.1,0.4-1.2,0.9-1.7c-1-0.5,1.5-1.4,0.4-2.5c1-0.7,0-3,1-3.2l-0.5-0.7l0.1,0.1c0.6-0.4,0.3-0.9,0.4-1.4
				c0.3-1.1,0.3-1.6,0.4-3c1.2-0.9-0.5-3.5,1.4-4l-0.5-1.2l0.3,0.3c0.1-0.3,0.1-0.4,0.2-0.6c-0.1-0.2-0.2-0.3-0.4-0.3
				c0.5-0.4,0.6-0.7,0.9-1.3v-1.5c0.1,0,0.3-0.3,0.4-0.4c-0.9-1,1.1-1.9,0.1-3c0.4-0.1,0.8-0.7,0.3-1c-0.1,0.1-0.4,0.1-0.5,0.1v-0.5
				c0.6,0.6,1.1,0.4,1.4-0.4c0-0.3,0.3-0.4,0.1-0.6l-0.3-0.3c0.1,0,0.1-0.1,0.3-0.2c-0.9-0.4-1.2-0.3-1.5-0.8v0.4l-0.3-0.4
				c-0.5,0.9-1-0.4-1.5,0c-1.1-0.6-2.2-0.9-3.6-0.9v0.4c-0.6-0.6-1.5-0.9-2.3-1.1c-0.3,0.7-0.6,0.2-1.1,0.6L429,218l-0.3,0.6
				c0.1-0.6-0.7-0.7-1.1-0.5c-0.5-0.1-1.2,0-1.9-0.4c-1.9-1.1-3.6,0.3-5.7-0.1c0-0.9-0.6-0.2-1-0.6c-1,0.8-2.7-0.1-3.3,0.6
				c-1.2-0.1-2.4-1.4-3.6,0c-0.9-0.6-1.2,0.5-1.9-0.5c-0.6,1.7-2-1-2.9,0.3c-1.1-0.6-2.8,0-4.6-0.1c0-0.1-0.1-0.3-0.1-0.3
				c-0.3,0-0.5,0-0.5,0.3v0.4c-0.1-0.6-1.2-0.4-1,0.2c-0.2-1.5-1.6,0-2.2-1.2c-0.7,0.6-1.7-0.5-2.2,0.5c-0.8,0.3-1.1-0.9-2.1-0.7
				c-0.7,1-1.5-0.1-2.6,0.9c-0.1-0.7-0.7-0.3-1.1-0.4c-0.3,0.4-0.6,0.3-0.9,0.3c-0.1-0.3-0.4-0.5-0.7-0.5l-0.4,0.6
				c-0.4,0-0.5-0.6-1-0.6l-0.4,0.4c-0.8-0.5-1.5-0.2-2.2-0.1v-0.4c-2.6,1.1-6.2-0.6-8.4-0.4c-0.1-0.3-0.3-0.3-0.5-0.3l-0.1,0.6
				c-0.7-1.1-2.2,1.1-2.9-0.7c-0.6,0.5-1-0.3-1.9,0c-0.8,0.5-0.5-0.8-1.1-0.1l-0.5-0.6v0.6l-0.4-0.2c-0.8,0.1,0,1.2-1,1.1
				c-1,2,0,4.6-1.2,6.3l-0.1-0.2c0.1,1-0.7,1.9-1,2.7l-0.2-0.1c0,1.4-1,1.1-0.9,2.4l-0.1-0.1c-0.5,0.1-0.3,1.1-1,0.9
				c-0.3,0.3,0,0.6,0.2,0.7c-0.2-0.1-0.9-0.1-1,0.3l0.1,0.5c-0.4-0.1-0.8,0.4-0.8,0.6c0.5,0.8-0.4,0.6,0.1,1.5l-0.5,0.6
				c0.5,1-1.5,2.1-0.7,3.2l-0.4,0.6l0.3,0.2c-1.7,2.7-2,6.2-4.7,8.9c-0.2,0.6-0.9,1.1-0.5,1.6h-0.3l-0.4,2.1
				c-0.7-0.3-0.5,0.9-0.9,1.1l-0.7,0.9c0.4,0.1,0.3,0.4,0.1,0.6c-0.7-0.4-0.7,0.9-1.1,1.2c0,1.2-0.7,2.2-1.4,3.2
				c-0.1,0.1-0.4,0.2-0.3,0.5c0,0.4-0.6,1.9-1.4,2.2c-0.4,1.4-2.1,1.7-2.7,3.2l-0.1-0.3c-0.6,0.4-0.4,0.4-0.6,1
				c0.3,0.4-0.6-0.6-0.7,0.1c0.1,0.3-0.1,0.6-0.9,0.9c0,1-0.7,0.3-0.9,1.2v0.3h-0.6l-0.1,1c-0.4-0.1-1.1-0.1-1.4,0.2
				c-0.3,0.1-1,0.8-1.5,0.9c-0.9,1.5-3.2,1.1-4.3,3.1c-0.7,1.1-0.9,1.7-2.7,2.1v0.3l-0.3-0.1c-0.5,1.5-2.2,0.6-3.5,1.4
				c-0.5,0.9-0.9-0.4-1.7,0.7c-0.6-0.1-1.7,0.3-2-0.5h-0.6v0.6c0-1.1-1.2-0.3-1.9-0.3c-0.6,0.9-1.5,0.6-2.2,1.2
				c-1.4-0.1-1.7,0.4-2.6-0.3c-0.3-0.9-0.7-0.2-1.2-0.6c-0.9,1.1-2.2-0.1-2.5,0.7c-0.5-0.3-0.6,0-0.8,0.5c0.1,0.3-0.2,0.8-0.7,0.6
				c-0.5,0.6-1-0.9-1.2,0.3l-0.1-0.1C310.6,277.5,310.9,279.9,309.1,280.1z"/>
			<path d="M325,520.3l-0.1-0.6c1.1,0.2,0.4,0.7,0.5,1.5l-1-0.4C324.7,520.7,324.9,520.4,325,520.3z"/>
			<path d="M324.1,519.1l0.6,0.7l-0.5,0.2c0-0.1,0-0.2-0.1-0.2V519.1z"/>
			<path d="M324.2,520.1C324.1,520.3,323.9,520.6,324.2,520.1L324.2,520.1z"/>
			<path d="M322.8,515.8c0.7-0.1-0.1-1.5,0.7-0.6c0.3-0.5,0.8-0.1,1.1-0.3c0.6,0.1,1,1,1.6,1.2c-0.1,0.3-0.5,0.4-0.6,0.7
				c-0.3,0-0.6-0.1-0.7-0.4l-1.4,1.1l-0.7-1.7l-0.3,0.4v-0.6C322.7,515.7,322.8,515.8,322.8,515.8z"/>
			<path d="M317.6,303.7c0,0.1-0.1,0.1-0.1,0.1c0,0,0,0,0,0L317.6,303.7z"/>
			<path d="M299.8,444.1L299.8,444.1l-0.1,0C299.7,444.1,299.8,444.1,299.8,444.1z"/>
			<path d="M297.3,340.2C297.4,340.3,297.4,340.3,297.3,340.2C297.3,340.3,297.3,340.3,297.3,340.2z"/>
			<path d="M295.2,352.1l-0.3,0.3c-0.1,0.1-0.2,0-0.3,0C294.9,352.2,295,352.1,295.2,352.1z"/>
			<path d="M294.6,357.3C294.6,357.3,294.5,357.3,294.6,357.3C294.5,357.3,294.6,357.3,294.6,357.3z"/>
			<path d="M278.3,294.5C278.3,294.5,278.3,294.5,278.3,294.5C278.2,294.6,278.2,294.6,278.3,294.5z"/>
			<path d="M275.2,302.4l0,0.1c0,0,0,0,0,0V302.4z"/>
			<path d="M268.4,499.6C268.4,499.6,268.4,499.6,268.4,499.6C268.2,499.6,268.2,499.6,268.4,499.6z"/>
			<path d="M265,350.3c0,0.1,0.1,0.2,0.1,0.3C265,350.5,265,350.4,265,350.3z"/>
			<path d="M263,235.7l-0.2,0.2C262.9,235.8,263,235.7,263,235.7z"/>
			<path d="M261.2,272.6C261.2,272.6,261.2,272.6,261.2,272.6C261.2,272.6,261.2,272.6,261.2,272.6z"/>
			<path d="M257.5,151.1C257.5,151.2,257.5,151.2,257.5,151.1C257.5,151.1,257.5,151.1,257.5,151.1z"/>
			<path d="M256.5,208.3c-0.1,0.1-0.1,0.2-0.3,0.2C256.3,208.4,256.4,208.3,256.5,208.3z"/>
			<path d="M255.7,305.6l-0.2-0.1c0,0,0,0,0,0L255.7,305.6z"/>
			<path d="M253.9,396.7l0.3,0.1C254,396.8,253.9,396.8,253.9,396.7L253.9,396.7z"/>
			<path d="M253.8,386.7l-0.1,0.3c0,0,0,0,0-0.1v0L253.8,386.7z"/>
			<path d="M253.6,386.9L253.6,386.9L253.6,386.9l-0.2-0.2C253.5,386.7,253.6,386.8,253.6,386.9z"/>
			<path d="M253.4,386.5l0.1,0.1C253.4,386.6,253.4,386.6,253.4,386.5z"/>
			<path d="M253,383h0.1C253.1,383,253.1,383,253,383L253,383C253,383,253,383,253,383z"/>
			<path d="M252.7,498.5l-0.3-0.2l0,0C252.5,498.4,252.6,498.5,252.7,498.5z"/>
			<path class="st0" d="M336.9,509.7c0.1,0,0.4,0,0.5,0.1c-0.1,0.4,0.1,0.7-0.1,1.1c0.1,0.5,0.9,0,1.1,0.4
				C339.5,510.5,337.9,508.6,336.9,509.7z M331.4,520.9c0,0.4,0.3,0.5,0.8,0.5c-0.6-1,1.4-0.9,0.2-1.5v0.4c-0.2,0.1-0.5,0.5-0.7,0
				L331.4,520.9z M329.9,515.9l-0.2,0.2l0.2,0.1c0,0.1,0,0.2,0,0.3l0.2-0.3l-0.3-0.1C329.9,516.1,329.9,516,329.9,515.9z
				 M329.6,514.2c0.1-0.6,0.6-0.7,0.6-0.9l-0.7-0.7v0.1l-1,0.1c0.7,0.4,0.5,1.5,1.4,1.9c-0.1,0.3-0.3,0.4-0.4,0.5
				c-0.1,0-0.1,0-0.2,0c0.1,0,0.1,0,0.2,0c0.3,0,0.4,0.4,0.4,0.8l0.3-0.3c0.1-0.3,0.6,0.1,0.5,0l-0.3-0.1l0.6-0.7
				c-0.3-0.5,0.9-1.1,0.1-1.5l-0.2,0.3l-0.1-0.1C330.4,513.7,330.3,514.5,329.6,514.2z M324.2,520.1
				C323.9,520.6,324.1,520.3,324.2,520.1L324.2,520.1z M324.7,519.9l-0.6-0.7v0.7c0.2,0,0.2,0.1,0.1,0.2L324.7,519.9z M324.9,519.6
				l0.1,0.6c-0.1,0.1-0.4,0.5-0.6,0.5l1,0.4C325.3,520.4,326,519.9,324.9,519.6z M323.6,515.2c-0.9-0.9,0,0.5-0.7,0.6
				c0,0-0.1-0.1-0.3-0.1v0.6l0.3-0.4l0.7,1.7l1.4-1.1c0.1,0.3,0.5,0.4,0.7,0.4c0.1-0.4,0.5-0.5,0.6-0.7c-0.6-0.3-1-1.1-1.6-1.2
				C324.3,515,323.8,514.7,323.6,515.2z M251.5,498.1c-1.4-1.2-4.8-2.2-6.8-3.1c0.1-0.4-0.5-1-1.5-1.1c-1.4,0.5-2.2-2.2-3.2-2.5
				c-0.1-1.4-2.2-0.7-1.5-2.4l0.4-0.4c-0.6-1.4,2.4-2.7,2.6-4.7c-0.3-0.5,0.7-1.2,0.5-1.9c1-1.5,1.1-2.6,1.5-4.1l1.1-0.9l-0.1-0.1
				l0.5-0.6c0-0.9,0.7-1.9,1.1-2.6c0-0.5,0.5-1.1,0-1.2c0.9,0-0.3-1.3,0.7-1.4c-0.5-1.9,0.9-3.6,1.7-4.8c0.4-0.4,1.1-0.3,1.2-1.1
				c0.6,0.3,2.1-0.4,2.2,0c-0.2,0.1-0.1,0.4-0.1,0.6c0.9,0.3,0.7,1.5,1,1.6c-0.3,0-0.3,0.3-0.5,0.4c-0.1,0.4,0.4,0.4,0.5,0.8
				l0.3-0.4c0.1,0.8,1.2,0.3,1,1.2l-0.4,0.3l0.4,0.4c1.2-1.7,0.7-3.6,0.1-5.2c1.1-0.2,0.3-1.7,0.8-2.2c-0.5-0.4-0.1-0.4,0-0.7
				c0.4-1.1-0.1-2.2,0.4-3.6c-0.9-0.5,0.4-2.2-0.3-3.5c0.1,0.2,0.4,0.2,0.5,0c-1-4.2,1.1-6,0.4-9.7h0.1c-0.1-2.5,0.9-4.6,0.4-6.7
				h0.3c0.9-0.8-1.1-1.5,0.1-2.1c-0.4-1.1,0.7-2.6,0-3.5c-0.5-0.6,0.7-1.9-0.1-2.2l0.1-0.5c0.4-0.4,0,0.5,0.4,0.6
				c0.8-1.5-0.1-3.2,0.9-4.9c0.5-1.1-1-2.2,0.1-3.3c-0.1-2-0.2-3.7-0.4-5.8c0.6-0.3-0.1-0.9,0.1-1.5c-1.1-0.5,0.1-1,0-1.6l-0.4-4.2
				c-1,0,0.4-1.2-0.9-0.9l0.1-1.2c1-0.4,0.7-1.9,0.7-2.6c-1-2.1,0.9-1.9-0.4-3.6c0.8-0.7,0.4-2.1,0.9-3l-0.3-1.1l0.1,0.2
				c0.2-0.7,0.1-1-0.1-1.5c0.6-0.7,0-1.9,0.3-2.6c0.9-0.4,0.1-1.6,0.1-2.1c1,0-0.1-1.1,0.5-1.6c-0.3-2.2,1.4-4.2,0.1-6
				c0.9-0.7,0.1-1.5,1-2.1c0.1-1.9,0.8-3.1,1-4.7c0.9-1.7,0.1-2.9,1.1-4.7c-0.3-1.1,0.5-2.1,0.7-3l-0.4-0.3c1.6-1.6-0.3-3.3,1.1-5
				c-0.9-1.1,0.6-2.4,0.8-3.6v-1.6H264c1.1-1.1,0.1-3.7,1.2-5c0.1-0.9,0.2-2.2-0.2-3.2c0,0,0.1,0.1,0.2,0.1c1.6-1.6,0.1-4.2,0.9-6
				c-0.9-1.1,1.1-2.1-0.1-3c1.1-1.6-0.5-4,0.9-5.3c-0.5-3.7,0.9-7.8,0.7-11c0.4,0.1,0.5-0.4,0.4-0.6v-0.5h-0.5
				c0.3-0.3,0.1-1.2-0.3-1.6c-2,0.1-2-1.2-3.5-2.4c0-1.5,0.1-2.2-0.5-3.7l-0.1,0.1c-0.5,0-0.6-1.9-1.2-2.3c0.6-0.4,0.1-1.2,0-1.7
				c-0.3-1.2-1.7-2.2-1.6-3.3c0.3-0.3,1.6-0.6,1.4-1.7v-0.5c0.7-0.1,0.3-1.4,0.4-1.7c1.6-0.3,1.1-2.5,2.7-2.9
				c0.6,0.1,1.7,0.4,2.2-0.1c2,0.4,3.1,0,5,0.7c0-0.7,0.6,0.1,0.9-0.4l2.5,0.4l-0.1-0.6c0.1,0.2,0.4,0,0.6-0.1
				c0-0.1-0.1-0.3-0.1-0.4c0-0.4,0.6,0.2,1-0.4c-0.9-1.6,1.6-1.7,0.7-3.1c0.3,0,0.4-0.4,0.6-0.5c-0.1-1.3,0.7-2.2,0.3-3.5
				c0.1-0.1,0.4-0.6,0.1-0.8c0.7,0.3,0.2-0.3,1-0.6l-0.3-1.1c0.3-0.1,0.6-0.3,0.5-0.6c-0.5-1.5,0.6-2.8,0.9-4
				c-0.1-1.2,1.2-2,0.6-3.2c0.5,0.6,0.9-0.3,1-0.5c-0.1-1.6,1.4-1.6,1.4-2.9c1.9-0.1,3.2-3.1,5.1-2.9v-0.6c0.7,1.6,2.7-0.6,3.6,0.9
				c1.7-1,3.2,1.4,4.3,1c1,0.5,1.5,2.2,1.9,3.1c-0.1,1.4,1.9,3.2,0.5,4.5l0.6,2.2l-0.6,0.1c1.1,0.3,0.2,2,0.7,2.9
				c-0.7,0.3,0.3,0.9,0,1.1c-0.1,2.2,1.2,4.6,1,6.7l0.5,0.3c-0.5,0.7-0.4,2.2-0.1,3.1c0.1-0.1,0.1,0,0.3,0.1l-0.3,0.2
				c0.3,0.6,1.5,1.4,1.7,0.3c0.3,0.6,0.8,0.5,1.4,0.7c0.4-1,0.9,0.3,1.7-0.4c2.9,0.1,5.7,0,8.7-0.3l0.3,0.3c0.1-0.3,0.6-0.4,0.5-0.7
				c0.1,0.4,0.2,0.7,0.7,0.6c0.2-0.9,1,0.6,1.6-0.1c0.4,0.2,0.6,0.2,0.8-0.1c0.1,0.7,1,0.3,1.5,0.4c0.5-0.6,1.6-0.4,2.7-0.4
				c0,0.1,0.3,0.5,0.6,0.4h0.8v-0.3c0.6,0.1,1.7,0.3,2.4-0.1c-0.1,0.1,0.1,0.3,0.2,0.4c1.7-0.5,3.5,0.7,5.2-0.1c1,1,2.8,0.5,3.8,0.7
				c1.7-0.5,4.7,1,6.8,0.5l0.4,0.2c0.7-0.1,0-0.6,0.9-0.5h-0.3c0.3,1.2,1.9,0.4,2.6,1.1c0.7-0.3,1.6-0.4,2,0.3l0.4,0.5l0.5-0.5
				c-0.1,0.7,1-0.1,1.4,0.1c1.1-0.1,2.4,1.1,3.7,0.6c1.4,0.5,3.6,0.6,5.6,1.6c1.4-0.7,1.9,1.6,2.9,0.6c2.4,1.1,5.6,1.1,7.5,3.5
				c0.4,1.1,0,2.2,0.3,3.2c-0.6,0-1,0.4-0.7,1.1c-1.4-0.1-2.5,0.5-3.5,1.1c1,1.1-0.6,0.3-0.3,1.5c-1.2,0-1.5,0-2.2,0.6
				c0.8,1.1,0.5,2.6,0.8,3.8c0,0.1,0,0.4-0.3,0.5c0.9,0.3,0.4,0.6,1.2,0.4c1.2,0.6-1.7,2.2-0.3,3c-0.5,0.9,0.1,2,0.5,2.9
				c1,0,0-1.1,1-1.1l-0.6-0.8c1.9,0.4,0.5-3.2,2.4-1.1c0,0.4,0.1,0.7-0.1,1.1l0.4,0.4l0.2-0.1c0.1,0.6-0.2,2-0.4,3h0.5
				c-0.1,1.2-0.4,2.9-0.5,4.3c0.7,0.8,0.6,3.2,0.1,4.6c0.5,1,0.4,2,0.6,2.5c-1,1.4,0.5,3.2-0.4,4.3c-0.4,0.9,0.1,1.9-0.5,3
				c0.5,0.8-0.4,1.7,0.1,2.6c-1.7,1.6,1.5,2.1-0.3,3.5c0.5,1,0.3,1.5,0.8,2.5c0.1,1.2,0.1,1.2-0.1,2.3c0.4,1.5-0.2,2.5,0.9,3.8
				c0.3,2-0.9,2.4-0.1,3.7l0.4,0.1c-0.3,0.3-0.9,0.7-0.4,1.2c0.1,0.3,0.2,1.1,0.2,1.5c0.6,0.9-1.4,1.5,0.1,2.2
				c-0.1,0.1-0.3,0.4-0.3,0.6h0.2c-0.5,0.1-0.5,0.6-0.2,1.1l-0.1-0.1c-0.1,0.4,0.7,1.5-0.3,1.7c1.4,0.4,0.1,1.6,0,2
				c0.5,2.2-0.7,5-0.1,6.8c0.1,1.1-0.9,3.2,0.1,4.8c-0.7,0.1-0.1,1.1-0.5,1.7l0.4,0.1l-0.6,0.4c0.7,0.4-0.6,2.2,1,3.1
				c-0.4-0.1-0.5,0.2-0.8,0.4l0.3,0.7c-0.1-0.1-0.3-0.1-0.5-0.1c0.6,1.1-1,2.3-0.3,3.1c-0.6,0.7,0,1.5-0.6,2.2
				c0,2.1-0.5,3.2-0.4,4.7c-0.5,0.1-0.5,1-0.4,1.5c0.9,0.5-0.3,0.7-0.4,1.1c0.5,1.7-1.1,3.2-0.4,4.8h-0.1l0.1,0.8
				c-0.6,0.4-0.5,2.4-0.6,3.3c0.5,0.4,0,1.6-0.1,1.9c0.3,0.9-0.4,1-0.3,1.9l-0.1-0.1c-0.2,0.6-0.3,1.7,0.2,2
				c-0.3-0.1-0.6-0.2-0.9,0.2c-0.1,0.4,0.1,1.2,0.4,1.3l-0.5,0.1c-0.4,1.2,0.1,2.4-1.1,3.2c0.5,0.6,0.1,1,0.5,1.6
				c-1.5,1.5-0.8,4.7-2,6.6l0.5,1.5c-0.9,1.2-0.7,1.7-0.9,2.9c0,0-0.9,0.6-0.4,1c0.6,0.2,0.1,0.9-0.1,1.1c0.1,1.4-0.1,2.2-0.5,3.6
				c0,0-0.1,0.1-0.1,0.3c0.3,0.4,0.5-0.1,0.6-0.1c-0.1,0.3,0.3,0.3,0.3,0.4c0.4,0-0.4,0.1-0.4-0.1c-1.1,1.6,0.4,2.8-0.5,4.6l0.6,0.4
				l-0.1,0.4v-0.1c-1.1,0.4,0,2.6-0.9,3.6c0.9,0.9-0.9,0.9,0,2h-0.4c0.3,1,0.3,2.6,0,3.3c-0.5,0.5-0.3,1.9-0.7,2.6
				c-0.3,1.2,0.5,1.1,0.4,2.5h-0.3v1c-0.1,0-0.3,0.3-0.4,0.4c-0.4,0.5,0.6,1.1-0.4,1.4c0.2,0,0.2,0.3,0.2,0.4
				c-0.1,0-0.2-0.1-0.4-0.1c0.5,0.9-0.1,1.2-0.1,2.1h0.3c0.4,2.9-1.7,2.6-1,6c0,1-1.1,1.7-0.3,2.6c0.1,1.2-1,1.8-0.3,3
				c-0.9-0.1-0.3,1-0.9,1.2l0.5,0.9h-0.4c-0.6,1.5,0.6,2.7-0.3,4.3c0.1,0.6,0.4,1.6,0.3,2.7c-0.7,0.6,0.4,0.5-0.4,1.1l0.4,0.9
				l-0.3-0.3c-0.3,0.7-0.1,1.6-0.1,2.4l-0.5,0.4c0.1,0.5,0.3,1.6-0.4,2.2c0.1,0.4-0.9,1.9-0.3,2.2c-0.2,1-1.5,2.2-0.9,3.5
				c-0.8,1-0.8,3-1.7,4c0.5,0.7-0.5,0.9-0.5,1.5l0.4,0.3c-1.4-0.3-1,1.2-1.2,2.2l-0.5-0.5c-0.8,0.6,0.4,0.9,0,1.4
				c0.4-0.1,0.5,0.1,0.6,0.4l-0.6,0.1c0.1-0.3-0.1-0.5-0.3-0.6c-1.6,0.6-0.6,2.1-2.1,2.7c-0.5,1.1-2.2,2.1-1.6,3.7l-0.8-0.6
				c0.3,1.4-1.4,0.6-1.6,1.9v-0.1l-0.9,0.5v-0.5c-0.5,0.5-1.5,0.4-2.2,0.5c-0.3,0.5,0.1,1.6-0.6,2.1c0.3-0.4-0.9,0.4-1.2,0.7
				c0.1,0.8-1.1,0.4-1.6,0.9c-0.9-0.1-1.1,1.2-2.4,1.1c-0.7,0.6-1.1-2-2.3-0.9h-0.9v-0.3l-1,0.3c-0.9-1.1,0.9-3.3-1-3.7
				c-1-0.2-2.2,1.2-2.9-0.1c-0.4,0.5-0.4,1.5-1.4,0.9c-1.4-0.3-0.9-1.2-2-1.1c-0.6-0.5-1.1-0.4-1.9-0.2c-0.4,0.5,0.7,1,0.1,1.5
				c-1.4,0.6-0.5-2-2.2-1.5c-0.4-0.6,0.4-1.4,1-1.5c0.7,0.3,1.1-0.4,1.6-0.9l-0.9-0.9c-0.7,0.7-1.5-1-1.7,0.1
				c-0.4,0.1-1,0.5-1.5,0.1c-0.1-0.6,0.2-0.7,0.7-1.2c0-1.1-2.2-0.6-1-1.9l-0.3-0.7c-1.4-0.4-1.5,2.4-2.9,0.7
				c-0.1,0.3-0.4,0.1-0.5,0.1v-0.1c-0.5,0.1-0.1,0.9-0.7,1.2c0.4,0.9,0.4,0.3,0.4,1.1c-1.1,0-1,1.6-2.5,1.2c-1-1.4-2-0.3-3.1,0
				c-0.3-0.9-2.1-0.7-3.1-1.4l-0.7,0.7c-0.1-0.3-0.4-0.5-0.6-0.7c-0.9,0.6-1.1-1.1-1.9-0.7c-3.3,0-5.2,2.1-7.9,0.9
				c0-0.6,0.7-1.1,1.2-1.2l2.2-1.7c-0.1-0.1-0.4-0.1-0.5-0.1c1.1-1.7-3.1-2.7-0.7-4.7h0.1c0-0.7,0-1.9,0.6-2.4
				c0.3,0,0.4-0.3,0.6-0.4c0-0.7,1-1.7,0.9-2.4l1-0.9c0.4-0.5,0.5-2.2,1.7-2c0.3-0.6,0.9-0.7,1-1.6c2.2-0.9,3.8-2.7,5.1-4.7
				c0.2-0.5,1-0.3,1.1-1c-0.3-0.1-0.1-0.5-0.1-0.8l0.1,0.3c0.9-0.6,0.5-1.5,1.2-2.1c0.9-1.1,1.2-2.6,2.1-4.1c0-0.6,0.4-1.4,0.9-1.9
				c1,0.1,2.7-1,3.6,0.2c0.9,0.5,1.4,2.2,1.6,2.7h0.9l-0.2,0.2c0.9,0.5,0.9,1.1,2.1,0.9l-0.3-0.4c0.6-0.3,0.3-1.2,1-1.1
				c0.1-0.6,0.5-1.6,1-2c0.6-0.7,0.5-2,1.2-2.8c0-0.3-0.3-0.5-0.4-0.6c1.1-1.2,0.4-1.7,1.6-3.5c0-2.8,1.9-5.6,1.9-7.8
				c1.1-0.9,0.2-1.7,0.7-3c0.6-1.8,1.1-3.5,0.9-5.2c0.1-0.6,0.2,0,0.6,0c-0.5-0.5,1-2-0.1-2.4c0.9,0,0.4-0.5,0.7-1.1
				c0-0.5-0.4-0.9,0.3-1.1c-0.4-1.5,1.2-2.5,0.3-3.6c0.3,0,0.4,0,0.5-0.1c0.1-0.4-0.1-0.5-0.2-0.6c1-1.4,0.4-2.7,1-4.2
				c0.2-1,0.2-2,0-2.8c-0.1-0.9,0.5-0.4,0.7-1.1v-2h-0.1c0.1-0.1,0.6-0.7,0-0.9c-0.1-1.2,1.7-2.5,0.4-3.5c0.7-0.5,0.5-1.6,1-2.6
				c-0.5-0.9,0.5-2.7,0.4-4.3c0.4-2.2,0.6-3.7,0.9-6.1h0.4c-0.5-1,0.5-2.5,0-3.3c0.6,0.1,0.5-0.8,0.6-1c-0.4-1-0.1-1-0.4-1.7h0.8
				c-0.3-1.2,0.6-2.5-0.1-3.5c0-1.2,0.9-2.4,0.5-4.3c0.7-0.5,0.4-1.4,0.3-2.2l-0.1,0.1c-0.6-1.2,0-0.4,0.3-1.2
				c-0.4-1.4,0.7-3.7,0-5.2c0.3-1.7,0.3-3,0.5-4.4c-0.1-2.5,0.1-6.1-0.1-8.4c0.1-0.6-0.4-1.6,0.3-1.9c-0.6-1.5,0.5-2,0-3.5
				c0.1-0.8-0.3-3,0-4.1c0.7-2-0.4-4.6,0.5-6.7c-0.5-1.4,0.3-2.2,0-3.3h0.3c-0.6-2.2,0.5-5,0.1-7.1c0.7-1.1,0.2-2.9,0.6-4.1
				l-0.5-0.2c1.1-1.1-0.3-3,0.6-4.3c0.3-0.4,0.1-0.9,0.1-1.4l-0.5-0.4c0.7-0.6,0.7-2.4,1.1-3.5c0-0.3-0.3-0.1-0.4-0.1l0.5-0.7
				c-1-1.5,1-2,0.4-3.6c0.1-1.7,0.4-2,0.6-3.8h-0.4l0.5-0.4c-0.5-0.4,1.1-1,0.1-1.6c-0.2-0.5,1.1-0.9,0.5-1.6
				c0.9-0.5,0.4-1.6,0.5-2.5c0,0.2,1-0.5,0.6-0.6c-0.4-0.5,0.9-0.6,0-1.1c1.1-0.6,1-2,0.9-2.9c0.1,0,0.3,0.1,0.4-0.1
				c-0.3-0.7-0.6-1-0.7-1.5c0.1,0.2,0.2,0.3,0.4,0.4c0.3-0.1,0.5-0.6,0.1-0.7c-0.3-0.5-0.9-0.3-1.4-0.4l-0.3,0.3
				c-0.3-0.4-1.2,0.5-1.8,0.2v0.1c-0.1,0.1-1.2-0.1-1.6,0.1v-0.1c-1.2-0.7-3.1,0.4-4.3-0.6c-0.5,0.9-0.9-0.1-1.4-0.2
				c-0.2,0.1-0.1,0.2-0.1,0.5c-0.7-1-1.9,0.7-2.2-0.6l-0.5,0.4c-0.4,0.1-0.8-1-1.4-0.2c-0.7,0.1-1.6-0.5-2.5,0.1
				c0.1-1-0.6-0.3-1-0.7c-0.9,0.1-1.7,0-2.7-0.4c-0.5-0.3-2.2,0.4-2.8,0c-1.1-0.5-3.3,0.2-5.1,0v0.2c-1.1-0.7-2.6,0.1-3.7-0.1
				c-1.1-0.3-2.5,1.1-3.5,0.4c-1,1-1.7-0.6-2.6,0.4l0.1-0.4c-0.8,0.5-1.9-0.1-2.6-0.4l-0.4,0.6c-0.1-0.4-0.8,0-0.9-0.5
				c-0.1,0.1-0.4,0.4-0.3,0.6c-0.4-0.5-0.7,0.1-0.9,0c-0.3,0.6,0.4,0.1,0.4,0.4c-0.4,0.1-0.5,1.4-1,2l0.1,1h0.3v0.4
				c-0.5,0-0.8-0.3-0.9,0.4c0.6,1-0.5,1.7-0.1,2.2c0.1,1.6-1.5,1.7-0.8,2.8c0,0.1,0,0.3-0.1,0.5c-0.2,0-0.7,0-0.6,0.4
				c0.7,1.1-1.1,1.2-0.5,2.5c1.1,0.5-1.1,0.6,0,1.2c-0.1,1-1.5,1-0.9,2.1c-1.2,1.7-0.7,3.8-0.9,5.7c0.1,0.1,0.1,0.2,0.2,0.2
				c-0.4,0.3-0.7,0.9-0.7,1.3c-0.4,0.6,0.1,1.1,0.3,1.9l0.4-0.2c-0.5,0.5-0.8,1.7-0.1,2.1c-0.2,0-0.4,0.1-0.5-0.1l-0.1,0.1
				c1,0.5-0.1,0.6,0,1.5c0.8,0.6,0.5,1.6,0.5,2.4h-0.1c0.4,0.4-0.6,1.4,0.5,1.2v0.2h-0.5c0.5,1.1-0.1,2.5,0.7,3
				c-0.7,2.4,0,4.8-0.3,7.4c0.9-0.6,0.3,0.7,0.6,1c-0.3,1-0.1,2.2-0.1,3.3c0.6,0.6,0.1,1.5,0.2,2.2c0.4,1.2,0.5,2.2,0.6,3.7
				c-0.1-0.1-0.7,1.1-0.2,1.5h0.2c0.1,0.3-0.1,0.3-0.2,0.4c1.6,1.4-1.5,2.7,0.4,3.7c-0.1,1.6,0,2.6,0.5,4.2l-0.5,0.1
				c0.6,0.6-0.1,1.2,0.7,1.5c-0.6,0.9-0.1,2,0.3,2.9l0.4,0.1h-0.3c0.4,1-0.5,1.5,0.6,2.3c-0.4,0.5-0.6,1.2-0.4,2
				c0.4,0.3,0.6,0.7,0.4,1c-0.1,0.3,0,0.3,0.1,0.4h0.3c-0.7,0.7,0.1,1.7,0.5,2.8h-0.1c0.5,1.2-0.3,2.8,0.9,4.1
				c-0.5,0.9,0.9,2,0.4,2.9h0.3v0.3h-0.3l0.6,1.5c-0.5,0.1-0.1,0.9-0.3,1.2l0.6,0.1c-0.9,0.8,0.3,1.6-0.5,2.2
				c0.5,1.7,0.2,3.8,0.5,5.3l0.3,2.6h0.3c-0.9,1,0,1.6-0.4,2.6c-0.5,0.4,0.4,1.2-0.4,1.5c0.4,1.7-0.1,3.2-0.4,5.1
				c-0.4,1.1-0.1,2.7,0.3,3.8c-0.7,0.3-0.5,2.2-0.9,3.6h0.1v1.1c0,0-0.2-0.1-0.2-0.2c0.3,2.1-1.5,5.3-0.6,7.7c-0.9,1,0.5,3-0.6,3.7
				c0.1,0.5-1,1.9-0.1,2.4c-0.1,0.3-0.4,0.5-0.6,0.8c0.6,0.5-0.4,1.2,0.1,2.3v0.6c-0.1,0-0.4,0-0.4,0.1c-0.1,0.6,0.4,0.1,0.4,0.5
				c-0.9,1.2-0.4,3.3-1.1,4.7c0.4,0.6,0.6,0.9,0.3,1.5c-0.4,0.3,0.1,1.1-0.3,1.5c0.1,0.6-0.3,0.9-0.5,1.5c-0.4,0.1-0.4,1.1,0,1.6
				H296c0.1,0.9-0.5,2.4,0.3,2.7c-1.4,0.4-0.3,2.1-1,3.1c0.2,0.5,0.9,1.1,0.2,1.5c-0.1,0-0.1,0-0.2-0.1c-0.5,0.9-0.5,1.9,0.1,2.5
				c-0.7,0.7-0.5,2.5-0.7,3.6l0.4,0.4c-1-0.4-1,1.1-1.2,1.6l0.1,0.1c-0.4,0.1-1.5,1.2-1,1.6c-0.9,0.4-1.2,1.4-2.3,1.6
				c-1.4,1.6-1.2,3.8-3.3,5c-0.4,2.5-2.5-0.6-3.2,1.7c-0.5,0.6-1.4,0.1-1.6-0.3l-0.4,0.5l-0.3-0.4c-0.2,0.1-0.1,0.4-0.1,0.5
				c-0.4,0-0.9-0.1-0.7,0.3v0.4l-0.4-0.4c-0.4,1.1-1.5,0.4-2.2,0.5c-0.5-0.3-1.1,0.3-1.5-0.7c-0.4,0-1.4,0.1-1,0.7v0.4
				c-0.5,1-2.1-0.2-2.9,1c-0.6-0.4-1.2-0.1-1.7-0.2v0.5l-0.3-0.1c-0.2,0.6-0.9,0.4-1.2,0.9c-1.4,0.5-1.5-1.1-1.4-1.9
				c0.1,0,0.3,0,0.3,0.2c0-1-0.4-1.2-0.9-2c-0.5-0.4-1.4,0.1-2.1-0.5c-0.5,0.6-1.1,1-1,1.9c-0.6,0.5-1.6,0.7-2.6,0.9l-0.1,0.1
				c-0.9,0-0.4-1-0.1-1.6c-0.7-1.1-2-1-3-1.7l-0.3,0.4c0-0.1-0.1-0.4,0.1-0.4c-0.5-0.3-1.1-0.4-1.5,0.3c-0.9-1-0.9,0.5-1.6,0.5
				c-1.2-0.5-2-0.4-2.8,0.4l-0.4,0.4c-0.3-0.2-0.7-0.3-1,0L251.5,498.1z M345.1,484.2v-1C345.1,483.6,344.5,484,345.1,484.2z"/>
			<path d="M230.1,243.7C230.1,243.7,230.1,243.7,230.1,243.7l-0.3-0.3C230,243.4,230.1,243.6,230.1,243.7z"/>
			<polygon points="229.1,470.1 229.2,470.6 229,470.6 			"/>
			<path d="M221.8,317.8C221.8,317.8,221.8,317.8,221.8,317.8l-0.1-0.2C221.7,317.7,221.8,317.7,221.8,317.8z"/>
			<path d="M218.6,246.9c0.2,0.1,0.4,0.4,0,0.5V246.9z"/>
			<path d="M218.6,246.8L218.6,246.8C218.5,246.8,218.4,246.8,218.6,246.8z"/>
			<path class="st0" d="M214.1,277.5c-0.6-0.6-0.7,0.9-1.2-0.1c-1.5,0.8-1.1,0.9-2.8,1.2c0.3,1.5-1.5,0.6-2,1.1
				c-1.1,0.2-2.2,0.9-3.3,0.5c-0.6,0.4-1.6-0.3-2.1,0.6c-1.7-2-4.8,1.2-5.7-1.5c-0.3-0.1-0.4-0.5-0.6-0.5v0.6
				c-1.1-2.2-0.5-4.2-2.6-6.1c0.4-0.7,0.3-1.6,0-2.6l-0.4-0.4c-0.3-2.2-0.1-4-0.9-5.8c0-0.7,0.3-1.6,1-2c1.1-1.4,3.1-2.4,4.3-4
				c0.9,0.5,0.9-1,1.7-0.9c1-1.5,2.5-2.1,3.5-3.6c1.4-0.4,2.5-1,3.6-1.7c2.1-0.9,4.5-1.9,6.3-2.9v0.1c0.4,0.4,1.1,0.1,1.2-0.5
				c0.4-0.1,1.2,0,1.6-0.5c0.1,0.2,0.5,0.2,0.7,0.1c0.6-0.5,0-0.6,0.7-0.9l-0.1,0.1c0.5,0.5,0.9-0.4,1.5-0.1v-0.6l0.9,0.6l0.3-0.5
				c0.2,0.4,1.4-0.7,1.8-0.1c1-0.8,2.6-1,3.7-1.5l-0.4-0.4c1.1,1.1,2.5-0.7,3.5-0.5c0.1-0.2,0.4-0.5,0.3-0.7
				c0.5-0.3,0.5,0.3,0.6,0.4c0.2-0.3,1-0.6,0.9-1c0.7-0.5,0.1-0.5,0.7-1.1h-0.4l0.6-0.3c-0.9-1.2,0.3-1.2,0.1-2.3
				c0.3,0,0.5,0,0.7-0.4c0.1-0.5-0.6-0.5-0.7-0.7c1-0.8-0.3-2.5,1-2.7c0-1.1,0.1-1.8-0.1-2.6c0.8-1.1,0.4-3,1-4l-0.4-0.1
				c1.4-2.2,0.8-5.1,1.7-7.3c-0.4-0.5-0.1-1.1,0-1.5c-0.5-0.1-0.4-1.5-0.1-2l0.3-0.3c-0.9-0.5,0.9-0.3,0.4-1.1v-2.6
				c0,0,0.1,0.1,0.3,0.1c-0.4-2.4,1-3.5,0.9-5.7c0.1-2.6,0.7-5.1,2.5-7.6c0.5-1.5,0.6-3.1,1.6-4.6l0.1-1.6l0.3,0.2
				c0.6-1.8,2-3.5,2.7-5.6c1-0.4,1.1-1.7,1.6-2.6c-0.4-0.6,0.3-1.1,0.4-1.6c1.6,0,1.6-3.2,3.2-1.2h0.5l-0.5,1.4c1.2,0,1,2,2.5,1.5
				v0.5l1,0.1l-0.4,0.6c1.2,0.6,2.2,1.9,3.1,1.5c0.4,0.4,1.2,0.5,2,0.9c1.4-0.1,2.5,0.3,4,0.5c1.6,0.6-0.4,1.6,0,2.6
				c0,0.8-1.1,2.4-0.9,3.4c-0.1-0.1-0.3,0-0.4,0c-0.4,0.1-0.1,0.5-0.3,0.7l0.4,0.3c-1,0-0.7,1.1-1.2,1.6c0.4,0.7-1.1,2.8-1.6,4.3
				c0.6,1-1,0.3-0.2,1.2c-0.1,0.6,0.9,1.6-0.4,2c0,0.4-0.1,0.6,0.1,0.7c0,0,0.1,0,0.1,0c-0.5,0.5,0.9,1.7,1.1,1.8
				c-0.8,0.7,0.1,1.2,0.2,2.4c1.4,1,0.3,2.7,1.7,3.8c-0.3,0-0.3,0.1-0.4,0.1c-0.1,0.5,0.4,0.5,0.5,0.6h0.3c-1.5,1.1,1.1,1.7-0.1,2.8
				c0.2,0.3,0.4,0.5,0.1,0.7c0.4,0.3,0.9,0.5,0.9,1h-0.3c0-0.1-0.1-0.1-0.1-0.2c-0.9,0.6,0.4,1.4-0.5,2c0.7,1.2,0.4,2.1,0.5,3.3
				l0.4,0.4l-0.3,0.3l0.5,0.6c-0.2,0-0.2,0.2-0.2,0.4c0.1,0.2,0.4,0.2,0.5,0.2c0,0.2,0.1,1.3,0.6,1c-0.4,0.6-0.4,1.5-0.4,2.4
				l0.5-0.4c-0.4,0.9,0.5,0.7,0.5,1.7l-0.5-0.3c0.4,0.9,0.5,2.4,0.6,3.2l0.4-0.5c-0.2,0.3-0.3,0.6-0.3,0.9c0.9,0,2.4,1.2,3,0
				c1.1,0.1,2,0.5,3,0.1c0.7,0.7,1.6,0,2.3,0.7c0.7-0.4,2.1,0.4,2.6-0.7c0,0.3,0.3,0.4,0.4,0.6c1.1-0.8,1.5-0.6,2.7-0.8v-0.2
				c0.4,0.4,1.5,0.6,2.1,0c-0.1,0.2,0.1,0.4,0.3,0.5c0.6,0.1,1.2,0,2-0.3c0.2,0.4,1.9,0.4,2.5,0.5c-0.1,0.3,0.1,0.4,0.3,0.5l1.1-0.3
				c0.1,1.5,0.8-0.4,1.5,0.4c0.5,0.4,1.1,0.1,1.6-0.3c0.9,0.6,1.2-0.6,2.2-0.6c1.1-0.4,1.9,0.3,2.8,0.5c1.2,1.2-0.6,3.1,0.4,4.6
				l-0.1-0.1c-0.4,1-0.5,1.5-0.6,2.5c1.2,0.4-0.2,1,0.3,1.4c-0.5,0.3-0.4,1.2-0.4,1.6c0.1,2.2-2.1,4.2-0.4,6.7
				c-0.7,1.6,0,3.2-0.6,5.1c1.4,1.2-0.9,2.4,0.3,3.8c-0.5,1.1-0.5,3.5-2.4,3.6c0.4,1-0.4,1.4-1.2,1.7c-1.5-0.3-3.8-0.6-5,0.7
				c-0.8,0.1-1.4,0.3-2.1,0.8l-0.6-0.3c-0.3,1.2-2.8,0.7-3.6,0.9c-0.5,0-1-0.4-1.7-0.1l-0.5,0.7c-0.2-0.6-0.7-0.1-1,0
				c-0.9-0.4-2,0-2.3,0.3c-0.9-0.7-2,0.1-2.9,0c0.1,1.4-1.2-0.1-2,0.1c-1,0.6-2.1-0.1-2.6,1.2l-1-0.9l-0.2,0.2l-0.3-0.4
				c-0.4,0.5-1.2,0.2-1.1,0.8c-0.1-0.2-1-0.4-1.5,0.1c0.4,0.3,0.5,0.7,0.9,1c-0.8-0.5-0.9,0.4-1.1,0.7c-0.4,1.4,0,2.7-0.5,3.6
				c0,0.5-0.6,1.6,0.4,1.5c-0.6,0.9-0.8,2.5-1.1,2.7c0.6,0.9-0.6,1,0,2.2c0.4,1.4-1.5,1.6-0.7,3.1c0.1-0.1,0.1-0.2,0.4-0.1
				c0.3,0.5-1.5,0.9-0.5,1.6c0.1,1-1.4,2.5,0,3.3c-0.9,0.7-0.3,1.5-0.5,2.2h0.4c-0.1,0.5-1.2,1.9-0.1,2.2c0,0.9-0.7,1-0.5,1.7
				l-0.1-0.3c-0.5,0.4,0.1,0.6,0.1,1h0.1v0.3l-0.4-0.3c-0.4,1.5,0.6,2.7-0.6,4.5c0,0.4,0.9,1.6-0.4,1.6l0.2,0.1
				c-0.4,0.4,0.3,0.6,0.2,1l-0.6,0.3c0.4,1.4,0,2-0.6,3.1c0.4,1,0.5,2.5,0.6,3.3h-0.5c0.3,1.4,0.1,2.5,0.8,3
				c0.1,0.3-0.8,0.1-0.4,0.7c0,0.5,0.4,0.3,0.4,0.6c-0.5,0-0.8,1.1-0.3,1.9c0.1,0.1,0.5,0.1,0.6,0.4l-0.5,0.6c0,0.4,0-0.1-0.1-0.1
				c-0.7,0.8,0.9,1,0.6,1.7l-0.5-0.1c-0.1,0.9-0.1,2,0.4,2.9c-0.7,0.3,0,0.6-0.2,1.1l0.6,0.4c-0.3,0.2-0.9,0.5-0.6,1h0.4
				c-0.5,1.1,0.3,1.7-0.1,3h0.4c-0.5,1.2-0.3,2.4-0.1,3.6h0.1c0,0.9,0,0.9,0.1,1.7l-0.1-0.1c-0.4,0.2,0,0.7,0.1,0.7H256
				c-0.5,2.1,0,6.4-1,8.1c0.7,2.7,0.4,4.6-0.6,7.3c0.5,0.9,0.1,2.5,0.9,3.8l-0.7,0.9l0.4,0.4h-0.3c-0.6,1.6-0.1,4.1-0.1,6.1
				l-0.7,0.7l0.6,0.6c-0.3,0.1-0.1,0.7,0,0.8l-0.7,0.7c0.8,0-0.2,0.4,0.3,0.7c-0.7,0-0.1,0.7-0.3,1l0.5,0.1
				c-0.7,1.5-0.5,3.2-0.7,4.8c1.4,0.7-1,1.7,0.2,2.7c-0.9,0.6,0,1.5-0.2,2.1v0.9c-1,0.6,0.4,0.4-0.5,1.4c0.5,1.1,0.3,1.9,0,2.7
				l0.5,0.4l-0.3-0.1c-0.4,0.3-0.3,0.8-0.1,0.9h0c0.4,1.1-0.4,1.7,0.7,2.7c-0.8,0.1,0.2,0.6-0.4,0.9c-1.2,0.5,0.2,1.4-0.3,2.2
				c0.3,0.4-0.4,0.8,0,1.1h0.5c0,0.9-0.5,2-0.1,3c-1,0.4,0.9,1.1-0.1,1.7c0.6,0.9-0.7,1.6,0.5,2.1l-0.7,0.7l0.3,0.4c0,0-0.1,0-0.1,0
				c-0.4,0.5-0.1,1.1,0.2,1.5h0.3l-0.3,0.5c-0.1-0.1-0.1-0.3-0.2-0.1c0.2,1,0,2.1,0.1,3.1c0.1,0.1,0.7-0.1,0.6,0.5
				c-0.3-0.1-0.5-0.1-0.6-0.4c-0.6,1.6,1,2.2-0.6,3.1c0.9,2.1-0.5,3.7,0,5.6l0.3,2.1H253c-0.1,0.5,0,1-0.2,1.7
				c0.2,0.4,0.5-0.1,0.6-0.1c0,0.4,0.5,0.8,0.1,1.1l-0.4-0.5c-0.5,0.1-0.6,0.8-0.5,1.2c0.1,0.3,0.3,0.5,0.5,0.5l0.4-0.3
				c-0.1,0.3-0.6,0.6-0.1,1h-0.8c-0.4,1.6,0.4,5.2,0.1,5.9c-0.5,0.4-0.5,1.6-0.6,2.2c0.4,0.5,0,1.1-0.3,1.5l0.5,1.5
				c-0.1,0.7-1.2,2.3-0.4,3.5c-0.4,1-1,1.6-0.7,2.6c-0.5,0.8-1.1,1.5-0.6,2.2c-1-0.4-0.6,1.1-0.9,1.6c-0.1,0.3,0.1,0.4,0.2,0.5
				l-0.7,0.6l0.6,0.7c-0.1,0-0.3-0.1-0.3-0.1c-0.5,2-0.1,1.5-1.1,3.7c1.1,0.9-0.6,1.7-0.6,2.2c0.1,0.4-0.1,1,0.4,1.5
				c-0.2-0.1-0.9-0.5-1.1,0.3c0.7,0.7-0.3,1.7-0.4,2.7c-0.1,0-0.4-0.1-0.5,0.1l0.5,0.7l-0.4-0.4c-0.7,0.9-1,2.4-0.9,3.5
				c-0.4,0-0.3,0.5-0.3,0.8c-0.4-0.4-1,0.1-1.2,0.6c1,1.2-1.5,0.6-0.7,1.9c-0.5,1.5-1.1,2.9-0.9,4.1l-0.1-0.1
				c-0.1,0.6-0.5,1.1,0.1,1.7c-1.2-0.1,0.3,1-0.9,1.2c0,0.4,0.2,0.7,0.6,1c-1.2,0.7-0.1,3.3-2.2,3.8l-1.7,0.8l-0.1-0.4
				c-0.4,1.1-2.8,0.5-2.6,2.2c-0.5,0.1-0.7,0.6-1.2,0.3c0-0.4,0.1-1-0.5-1c-0.1,0.5-0.9,0.5-1.2,0.9c-1-1.1-1.9,1-2.7-0.4
				c-0.1-0.9-0.2-2-0.9-2.2h0.3l-0.1-0.5l-0.1,0.5c-0.1,0-0.3,0-0.5,0c0.1,0.7-2.1,2.1-0.7,2.7c-0.7,0.1-1.2,1.2-2.2,0.9
				c-0.2-0.3-0.4-0.5-0.7-0.9l-0.7,0.7c0.4,0.6-0.7,1.1-1,1.6c-1.4-0.1-0.5-2.7-2-2.4c-1.6-0.3-0.4,2.4-2.2,1.7
				c-1.2-1.2-0.9-2.7-2.2-3.3l-0.1,0.1l-0.9-1c-0.7-0.4-2,0.4-2.2-1c-0.4-0.5-0.4-1.7-0.4-2.7c-1.6-1-1.6-4.3-2.7-5.8
				c-1.1-2.2-1.1-3.6-2.1-6.1c-0.5-1.2,0.3-3.2-0.7-4.8c-0.1-0.5-0.3-2.2-0.7-3c0.5-0.5-0.4-1.5,0-1.9c-0.3,0-0.4-0.3-0.5-0.4
				c0.3,0,0.3-0.5,0.6-0.7c0.1-0.4-0.6-1.2-0.1-1.7c-0.8-1.7,0-4.8,0-6.4c-0.4-0.5,0.1-2.2,0-3.1c0.5-5.8,1.4-10.6,1.5-16.3
				c0.4-1.5,0.4-4.3,0.6-5.9c0.3-2.5,0.6-4.1,0.7-6.7c0.8-0.9,0.8-1.7,0.5-2.7l0,0c0.4-0.9,0.5-2.7,1.1-3.9c0.6-1.1-0.7-2.4,0.4-3.2
				c-0.3-2.5,1.2-4.1,1.1-6.6h0.1c-0.7-0.5,0.8-1.6,0.3-2.5l0.5-0.5c-0.3-0.8,0.5-2.2,0.5-3.1c1.1-0.7-0.6-2.1,0.9-2.9
				c0.1-1.6,0.3-3.2,0.6-4.7h-0.4c-0.5-1.1,1.7-1.4,0.4-2.2c0.2-0.3,0.5-0.3,0.7-0.5c0.3-0.6-0.7-1.6,0.3-2l-0.5-0.5
				c0.3,0,0.4-0.3,0.5-0.4c-1-1.5,1.2-2.5,0.1-3.8c0.5-0.6-0.4-1.1,0.4-1.5h-0.4c1.4-1.7-0.3-3.5,1.2-5.3c-0.9-0.9,0.7-1.8-0.1-2.7
				c0.4-1.5,0.4-4.9,0.8-7.1h0.1c-0.4-1.6,1-4.4,0.6-6.7c0.9-0.6,0.6-2.9,0.9-3.7c-0.1-0.6,0-0.9,0.2-1.5c-0.9-1.1,1.1-2.5,0-3.5
				c1.2-1.4,0-3.3,1.1-5c-0.9-0.5,0.3-1.2-0.5-1.7l0.5-0.5l-0.4-0.2c0,0.7-0.3-0.9,0-1.4c0.6-1.5,0-1.7,0.5-3.2
				c-0.4-0.9,0.1-1.9,0-2.4c0.3,0,0.3-0.3,0.4-0.4c0.1-0.2,0-0.3-0.1-0.4c0.2-1-0.1-1.8,0-2.8c0.6-0.9-0.6-2,0.5-3
				c-0.6-2,0.5-1.9-0.1-3.6l0.1,0.1c0.5-0.7-0.5-2.6,0.8-3.2c0.5-3,0-5.3,1.1-8.1c-0.9-0.5,0.4-0.6,0.3-1.2c-0.7-2.5,0.5-5,0.1-7.2
				c0.6-1-0.6-2.1,0.4-3.2l-0.2-0.9h0.1c0.6-0.7-0.5-2.8,0.4-3v-0.4h0.3c0.5-0.9-0.5-2.1,0.3-2.5h-0.4c0.9-0.1,0-0.7,0.7-1.1
				l-0.5-0.4c0.3-0.3,0.5-0.9,0.1-1.1c1,0,0.2-0.9,0.5-1.2l-0.5-0.9c-0.5,0.6-1.9,0.5-2.6,1.2c-0.9,0-1.6,0-2.4,0.4
				c-1.1,1-4-0.7-5,1.1c-0.2,0-0.2-0.3-0.5-0.4C215.1,277.3,214,276.6,214.1,277.5z"/>
			<path d="M218,186.8c0,0.1,0,0.4-0.1,0.5c-0.1-0.3-0.1-0.5-0.1-0.7C217.8,186.6,217.9,186.7,218,186.8z"/>
			<path d="M216,248.4c-0.1,0.2-0.1,0.3-0.2,0.4c0,0,0,0,0,0L216,248.4z"/>
			<path d="M209.8,401.9l0.2-0.3C209.9,401.7,209.9,401.8,209.8,401.9z"/>
			<path d="M197.4,467.3c0.1,0.1,0,0.2-0.1,0.2C197.4,467.4,197.4,467.3,197.4,467.3z"/>
			<path d="M194.2,182.3l0.1,0.2C194.3,182.4,194.2,182.4,194.2,182.3z"/>
			<path d="M187.4,190.9c-0.1,0-0.1-0.1-0.2-0.1C187.3,190.8,187.3,190.9,187.4,190.9z"/>
			<path d="M187.2,190.8c0,0-0.1,0-0.2,0v-0.4C187.1,190.6,187.1,190.7,187.2,190.8z"/>
			<path d="M152.4,376.8l-0.1,0.1C152.2,376.8,152.2,376.7,152.4,376.8z"/>
			<path class="st0" d="M603.1,350.7c-0.7,0,0,0.4-0.4,0.6c0.3-0.1,0.1,0.4,0.2,0.5L603.1,350.7z M601.6,408.8l0.3-0.4h-0.5
				L601.6,408.8z M600.7,349c0-0.5,0.6-1,1.1-0.8c-0.7,0.4,0,0.9-0.4,1.5h1.4c-0.7,0,0.3,0.5-0.6,0.4l0.7,0.1v-1h-0.6l0.4-0.2
				c0.6-0.8-0.4-1.2-0.8-1.9C601.3,347.7,600.7,347.9,600.7,349z M600.7,410.1c0.1,0.4,0.5,0.4,0.7,0.6c0-0.2,0-0.7-0.4-0.4
				c0.3-0.2,0-0.6-0.1-0.8l0.1-0.3c-0.2,0.1-0.2,0.2-0.1,0.3L600.7,410.1z M600.8,410.8c-0.5,0.5,1,1.4,0,1.6l0.4,0.1
				C602.2,411.9,600.7,411.6,600.8,410.8z M594.7,270l0.1,1.1h0.1c0.1-0.4,0-0.9,0.3-1.1H594.7z M594.7,280.7c0.1-0.1,1-0.4,0.7-0.5
				l-0.2-0.3l0.9-0.5l-0.1-0.5l0.7-0.2c-0.6-1.1-1.4,0.1-1.7,0.7l-0.4-0.5c0,0.3,0.1,0.6-0.1,0.8l-0.3-0.1
				C594.5,280,594.9,280.3,594.7,280.7z M590.5,279.6h-0.1c-0.1-0.1-0.4-0.4-0.4-0.6l-1,0.3c0.1,0.6,0.4,0.7,0.5,1.2
				C590.5,281,590.5,279.7,590.5,279.6z M577.7,318.7l-0.3,0C577.5,318.7,577.7,318.7,577.7,318.7z M577.7,316.4
				c-1.4,0.5,0.7,1.6,0.1,2.2c0,0,0,0.1-0.1,0.1l0.7-0.1l-0.4-0.4c0-0.1-0.1-0.5,0.1-0.6l0.2,0.4c0.4-0.9-0.9-0.5-0.6-1.4
				c-0.1-1.4,1.1,0,1.1-0.1c-0.3-0.6-0.7-0.3-1.1-0.7c0.1-0.1,0.3-0.3,0.4-0.1c-0.1-0.4-0.4-0.6-0.8-0.5l0.3,0.7h-0.1L577.7,316.4z
				 M527.2,231.3l0.1-0.7H527L527.2,231.3z M529.8,233.6c-0.2-0.3-0.1-0.6-0.2-0.9c-1.1,0.6,0-1.1-1.2-0.6c0.3,0.6,0.5,1.1,1,1.4
				l0.1-0.1L529.8,233.6z M512,214.9c0.1,0,0.5,0.6,0.5,0.1l-0.2-0.4L512,214.9z M509.9,211.9c-0.4,0.3-0.1,0.6,0.1,0.7
				c0.3-0.1,0.7-0.3,0.6-0.6C510.4,212,510,212.1,509.9,211.9z M510.5,212.9c0.5,0.4,0.1,0.7,0.1,1.1c-0.6-0.9-0.5,0.2-1.2-0.4
				l0.1-0.1l-0.1,0.1c0,0,0,0,0,0l-0.1,0.2c0,0.5,0.5-0.4,0.5,0.3l0.7-0.1l-0.2,0.6h0.6c0.6,0.3,1.4-0.6,1.1-0.6
				C511.5,214.5,511.1,212.8,510.5,212.9z M401.8,151c-0.4,0.2-0.9,0.4-1.1-0.1l-0.1,0.6c0.3-0.1,1,0,1.1,0.5v-0.5
				c0.8,0,0.5,1.4,1.4,1.1l0,0.1c0,0.1-0.1,0.1-0.2,0l0.3,0.5l-0.1-0.5c0,0,0.1-0.1,0.1-0.1c0,0,0,0-0.1,0L403,152h-0.6v-0.4h-0.3
				c-0.3-0.2-0.1-0.7-0.1-1.1C401.8,150.9,401.8,150.6,401.8,151z M396.9,147.6l-0.3-0.3C396.6,147.5,396.7,147.5,396.9,147.6z
				 M396.9,147.6l0.5,0.6C397.7,147.3,397.2,147.6,396.9,147.6z M151.4,370c-0.4,1.7-0.6,3.5,0.8,5.6c0.2,0.6-0.5,0.7,0,1.4l0.1,0
				c0,0.1,0.1,0.5-0.3,0.5l0.1,0.4h-0.2c-0.3,1.1,1,1.1,0,2.1c0.4,1.1,0.4,2,0.6,3c-0.2,0-0.2,0.1-0.4,0.1c1.1,1.2-0.4,2.9,0.8,4.2
				c-0.3,0.9-0.8,1.5-0.3,2.2l0.7,0.5c-0.5,0.2-0.4,0.9-0.1,1.2l0.4-0.1c-0.7,0.4,0.1,1-0.1,1.4c0.3-0.1,0.3,0.1,0.5,0.3
				c-0.4,2.1,0.1,3.3,0.5,5.1c0.2,0.6,0.9,2.7,1.2,3.7c0.4,0.4,0.3,1.4,1,1.2c-0.1,2.5,1.4,4.2,2.7,5.8c-0.1,0-0.3,0.1-0.1,0.2
				l0.3,0.3l0.4-0.3c-1.1,1.1,1.5,1.4,0.5,2.4c-0.4-0.1,0.2,1,0.6,0.6c0,0.6-0.3,1.5,0.7,1.6c0.3,1,1.1,2.1,1.6,3
				c0.4,1.1,1,1.4,1.4,2.2c0.6,1.7,1.2,3.2,2.1,4.5c0.1,1,0.8,2,1,3l0.8,0.6l-0.3,0.3l0.5,0.5c-0.2,0-0.2,0.1-0.4,0.1
				c1.1,0,0.1,1.2,1.4,1.5c0.5,1.9,1.7,4.3,3.1,6.1c-0.4,0.9,0.1,1.2,0.4,2.1c0.6,1.2,2.2,1.9,2.2,3.6c1.1,0.6,1.6,2.1,2.5,2.9
				l-0.1,0.1c0.6,0,1,2.7,2.2,1.6c-0.7,1.1,1.1,1.5,1.1,2.3c0.8,0.9,1.4,1.7,1.9,2.7c2.7,1.4,2.5,3.8,4.8,5.3
				c0.1,0.3-0.1,0.6,0.3,0.7h0.4c-0.3,0.7,0.6,1.1,0.6,1.6c1,0.5,1.4,2.6,2.5,2.8c-0.4,0.9,1.4,1.5,1.9,2.4h0.4
				c-0.1,0.5,0.5,0.6,0.7,0.6c1.2,1.2,1.7,2.9,2.9,3.7c0,0,0,0,0.1,0c0,0.2,0.1,0.5,0.4,0.8c0.3-0.4,0.1,0.9,0.6,1.1l0.5,0.5
				l0.3-0.1c1,1.4,2.3,2.4,3.1,3.6l1,1l0.1-0.1c0.1,0.9,1.5,1.8,2.6,2.7c0.1,1.1,1.7,2,2.2,3.3l0.4,0.4l-0.1,0.1
				c2,2.3,3.7,4.9,5.3,7.3c1.5-0.3,0.8,1,1.7,1.1c0.4,0.6,0.2,1.2,1.1,1.9c0.7,1.2,2,2.1,3.1,2.9c0,0.1-0.1,0.4-0.1,0.7l0.7,0.3
				l-0.1,0.5c0.3-0.4,1,0.6,0.9-0.4c0.2,1.2,1,1.9,2.1,2.2l0.1-0.7c0.2,0.5-0.3,1.1,0.6,1.5l0.5-0.1c0.5,1.9,2.2,2.9,3.2,4.3
				l0.9,0.3h-0.1c0.1,0.4,1.4,0.7,1.4,1.6l0.1-0.1c-0.1,0.2,0.7,0.8,1,0.5c-0.1,1.1,1.7,1,1.7,1.9c1.2,0.9,1,1.5,2.3,2.2
				c0.9,0.6,2.6,1.6,3.8,2.2l0.5-0.2c0.4,0.2,0.4,1.4,1,0.7c1.7,1.9,4.6,1.4,6.4,3.6c1.1,0.3,2.7,0.5,3.3,1c0.8-0.7,0.5,1,1.2,0.1
				c2.1,0,3.5,0.6,5.6,0.6l0.5-0.3c1.1,1.1,3.8,0.9,5.2,1.4c1,0.2,2.5,0.9,3.6,0.9c1,0.4,2.4,0.4,3.3,1.4c0.6-1.2,2,1.6,2.6,0.5
				c1,0.9,1.9,0.9,2.8,1.7c1.2,0,2.9,1.7,4.2,1.9c0.1,0.1,0.3,1.1,1.1,0.9l-0.1,0.2c0.4,0.8,0.9-0.4,1.2,0.3c1,1.2,2.5,1.4,3.7,2.1
				c0.5,1.1,2.2,1.2,2.7,2.2c1.2,0.4,2.7,1.6,4.7,2.2c0.3,0.5,1.4,1,1.9,0.7v-0.1c0.4-0.3,0.6,1.4,1.5,0.9c0.2,0.5,2.1,1.5,3.1,1.4
				c0.5,0,0.9,1.1,1.5,0.7c0.1,0.9,0.7-0.1,1.2,0.4c-0.4,0.9,0.8,0.4,1,0.8c1.5,1.7,4.2,1.5,5.3,2.6c1.7,0.6,4.2,1.1,5.6,2.2
				c0.5-0.4,0.6,1.2,1.2,0.3c-0.1,0.2,0.6,0.5,0.8,0.7l0.5-0.5c0.6,0.5,1.2,1.6,2.1,0.7c0.5-0.1,0.5,0.4,0.7,0.6
				c3.1,1.4,5.9,1.5,8.8,2.8l1-0.3c0.1,1.4,1.6,0.4,2.3,0.9l0.4-0.5c0.3,1,1.5,0.5,1.9,1.1c3.5,0.4,5-0.4,8,0.5v0.3
				c0.7,0,1.7,0.3,2.5,0l-0.3-0.5h0.8l-0.1,0.1c0.4,0.7,1.2,0.7,1.9,0.6l0.5-0.5c0,0.7,1.2,0.5,2.2,0.7c1-0.5,2.4-0.1,3.6-0.2
				c0.6-0.1,1.6,0.1,2.4-0.1c1.5,0.3,2.9,0.6,4.5-0.1c0.5,1,1.1-0.4,1.7,0.1v0.1c0.7,0,1.3,0.1,1.9-0.3l-0.3,0.2
				c1.7,0.6,3.2-0.6,4.8-0.4c0.1-0.5,1,0,1.4-0.4c0.9-0.4,3.6-0.4,5.5-0.4c0.3-1,1.6-0.4,2.1-1c0.8,0.7,1.5-0.9,2.4-0.3
				c0.2-0.5,1.5-1.4,1.5-0.6l0.3-0.4c0,0.5,0.5,0.3,0.7,0.4c0.7-0.1,1.6-1.1,2.2-0.4c2.1-0.1,3.3-1.4,4.7-1.7
				c0.1,0.4,0.5,0.2,0.9,0.2c0.4-1.1,1.6,0.5,2.4-0.7l0.7-0.3c-0.1,0.1-0.1,0.2-0.1,0.3c0.3-0.5,1.1,0.1,1.5-0.5c0,0,0,0.1,0,0.2
				c0.7-0.1,1.4-0.4,2.2-0.6c0.6,0.4,1.4-0.9,1.7-0.3c0.7-0.7,1.5,0,2.2-0.6v-0.9c0.1,0.3,0.4,0.8,0.7,0.9c1.9,0.1,2.6-1.7,4.5-1.2
				c0.6-1,1.7-0.4,2-1.1c0.9-0.1,1.2-0.1,2.4-0.4c0.7-0.1,1.2-1,2-0.6c0.5-0.6,1.7-0.4,1.9-1.2c0.6,0.8,1.1-0.1,1.6-0.2v-0.3
				l0.5,0.5c0.5-0.4,0.3-0.9,0.7-1.1c-0.1-0.3,1,0.6,1.2-0.1c0.3-1.7,2,0.1,2.6-1c0.5-1.2,1.9-0.8,2.2-1.7c1.2,0.1,2.2-1.2,3.6-1.6
				l0.3-0.7v0.1c1.6,0.1,4.4-1.7,5.6-2.2c1.5,0.7,1.7-2,3-0.9c1.4-1,3.1-1.1,4.1-2.1c2.1-0.1,3.7-2,5.7-2c0.1-1,1.1,0,1-1
				c0.9,0.2,2-0.1,2.6-0.4c0.6,0.4,0.9-0.5,1.4-0.6c0.6-0.2,2-0.5,2.2-1.2c0.1,0.1-0.1,0.6,0.4,0.6c0.2-0.1,0.1-0.4,0.1-0.6
				c1.4,0.7,1-1.9,2.5-0.8c0.2-0.1,0.6-0.1,0.9-0.5l-0.1-0.5c0.1,0.5,1,0.1,1.5,0.3l0.4-0.7c0.1,0-0.4,0.6,0.4,0.5
				c0-1.2,0.6,0.1,1-0.9c1.7,0.7,2.1-1,4-0.6c0.6-1,1.9-1.1,2.7-1.4c1.5-1.1,3.5-1.4,5-2.4c1-0.1,1.1-1,2.5-0.9
				c0.3-0.1,0.1-0.4,0.1-0.5c0.6,0.5,0.8-1.1,1.4-0.1c0.6-1.1,2-0.7,2.4-1.5l0.4,0.3c0.4-0.1,0.1-0.6,0.5-0.5
				c0.9,0.5,1.2-0.9,2.1-1.1c2-0.5,3.3-1.2,5.1-2.2c0.6-1.2,2.7-0.7,2.7-2.5l0.1,0.6c0.4-0.4,1.6-0.4,1.9-1.4l0.2,0.1l1.5-1.2v0.3
				l1.5-1.4l-0.1-0.1c0.4,0.2,0.7-0.5,1.2-0.4c1.5-2.2,3-2.1,5-4.1c1.7-0.9,3.3-3.1,4-4.2c0.3,0,0.5,0.1,0.6-0.1v-0.4
				c0.5-0.1,1.2-1.2,2.1-1.5c1.1-1.1,1.6-1.5,3.1-1.5c0.6-1.1,1-1.9,2-2.6l0.1,0.1c0.2-1.5,2.6-1.7,3-3.2c1.7-0.6,3.1-3.1,4.7-4.7
				c0.6-0.6,1.9-1.2,1.6-2.4c2,0.6,2.3-2.6,3.6-3c0.3-1.2,1.7-0.9,1.2-2.2l0.6,0.5c0.6-0.5,0.7-1.7,1.2-1.9c0.9-0.7,2-2.5,2.7-3.8
				c0,0,0,0,0,0.1l0.1,0.3c0.6-0.3,0.6-0.9,0.6-1.4l0.3,0.3c0-0.7,0.9-1.1,1.5-1.1c0.9,0.1,1.4-0.4,2.1-0.8
				c-1.1-0.5,0.9-1.4,0.1-2.1c0.6-0.7,0.1-1.6,1-2.2c0.5-0.1,1.5-0.4,2.2-0.5l-0.3-0.4c1.5,1,1.4-1.1,2.2-1.7c0-0.1,0.1-0.4-0.1-0.4
				c1.2-0.9,3-2.1,3.5-3.3c1.5-1.7,0.5-4.3,2.5-5.6c1.4-0.9,1-2.6,2.1-3.6c0-1.7,1-1.5,1.5-3c0-0.1,0.1-0.1,0.1-0.1
				c0,0.1-0.2,0.3,0,0.3c0.7-0.1,0.6-0.9,0.9-1.2c1,0.2,0.5-0.9,1-1.1c-0.4-0.7,0.5-1,0.9-1.5l-0.4-0.4c1.5-0.5,2.1-2.2,2.7-3.7
				c-0.8-1.6,1.1-1.6,1.5-3.2c-0.1,0-0.1-0.1-0.3-0.1c0.1-0.9,0.8-1.7,0.5-2.9c0.3,0.1,0.4-0.1,0.5-0.2l-0.1-0.8
				c1-0.2,0.4-1.8,0.9-2.3c0.1-2.1,1.5-3.6,1.4-5l0.1,0.1c1.2-0.6-0.2-1.2,1-2c-0.6-1.1,1.5-1.7,0.8-3c0.9-2,1.8-4.5,3.3-5.7
				c0.4-0.5,1.2-3.1,1.4-4.6c2.3-1.1,0.4-3.5,2.6-4.6c-0.5-1.2,1.1-0.6,0.7-1.9H567c0.2-0.1-0.1-0.8,0.3-1.1c-0.6-1.7,1.7-2,0.6-3.6
				c2-2.7,1.7-4.7,2.5-7.8c0.9-0.4,0.9-1.9,0.7-2.6c0.4-1.6,1.4-2.6,1.2-3.8c0.6,0.1,0.5-0.7,0.3-1.2c-0.9-0.1,0.4-1.7-0.1-2.5
				l0.5-0.4l-0.4-0.3c1.8-0.7-0.4-3.1,0.7-4.3c0-1,1-2.6-0.3-3.1c1.4,0.1,0.5-1.4,0.9-2c0-0.4-0.5-0.5-0.6-0.9
				c0.6-2,0.4-3.2,0.6-5.7l-0.3-0.1c-0.3-1.9,0.5-3.2-0.1-4.8c0.6-0.6-0.1-2.6,0.1-3.7h-0.4c0.4-2.1-0.7-4.9,0-7.2
				c-0.9-1-0.3-2.5-0.9-4.3c0.3-1.5-1.2-3.1-0.4-4.8c-0.5-0.2-0.4-0.9-0.3-1.1c0.8,0.3,0.8-0.4,0.8-0.7c-0.3,0-1.5-0.4-0.9-1.1
				c0.7-0.2,0.5-0.7,0.4-1.2l-0.7-0.3l0.4-0.5c-0.4-0.9-0.4-1.6,0-2.7c-0.1-0.2-0.7-0.6-0.7-1.1c0.1,0.1,0.6-0.7,0-0.9
				c0.1-1.4,0.7-3.5-0.6-4.3c0.4-0.9-0.3-2.4-0.3-3.4c-0.1-0.1-0.3-0.1-0.5-0.1c0.3-1.2,0.3-1.7,0-3l-0.2-0.3c0.4-0.3,0-0.7-0.1-0.7
				h0.1c-0.5-1.1,0-1.9-0.6-3c-0.3-0.5-0.5-1.9,0-2.6c0-0.9-1-1.4-0.9-2.4h0.1c-0.6-1.7,0.1-4.2-1.7-5.8c0-0.5,0.1-1-0.5-1.2l-0.2,0
				c0.5-0.3-0.1-1.2-0.2-1.5c-0.5-0.6-0.3-2-1.1-2.5c0-0.9-0.3-1.9-0.6-3c-1.5-1.5,0-4-1.7-5.3h0.1c-0.5-1.6-1.2-3-2.5-4.1h-0.5
				l0.5-0.4c-3-2.2-2.5-5.4-5.7-7.3c1.4-2.4-2.3-1.5-1.8-3.8c-0.3-1.4-2-0.9-1.7-2.5c-1.2-1.5,0.4-5.1-2.5-4.8c-0.9-0.7-2-1.4-2-2.4
				c-0.8-0.1-0.6-0.7-1-1.4c0.1,0,0.4-1.1-0.3-1.2l0.3-0.4c-0.1-0.1-0.3-0.1-0.5-0.1c0.9-0.3-0.3-1,0-1.2c0.3,0.1,0.3,0,0.4-0.1
				c-0.1-0.4-0.6-0.5-0.9-0.1l0.1,0.1l-0.5-0.1l-0.3,0.9c-0.5,0.3-1.1-0.3-1.5-0.6c0.3-1.5-1.4,0.4-1.4-1.2c-1.6-1-2.7-3.2-4.3-4.8
				c0-0.8-0.1-2-0.7-2.6c0.8-0.7-0.7-0.6-0.8-1.1c0.7-0.3-0.9-1.2,0.4-1.6c-1-0.5-0.7-2.8-2.2-2.2c0.1-0.4-0.3-0.6-0.5-0.9
				c-0.9,0.4-1.5-0.1-2.1-0.6c-0.1-1-0.8-2.2-1.7-2.7l-0.4,0.4l-0.1-0.8c-1.1,1.5-1.4-0.9-2.6-0.9c-0.3,0.2-0.5,0.2-0.7,0.2
				l-1.9-2.2c-0.3,0.5-0.6,1.4-1.4,0.9c0.2-1-0.9-1-0.4-1.9c-0.4-0.3-1-0.1-1.5-0.3c1,0.1,0.1-0.7,0.4-1.1c-0.9-0.6,0.7-1.1-0.3-1.6
				c0.1,0,0.3-0.1,0.3-0.2l-0.4-0.3l0-0.3c0.6-0.1,0.4,0.6,1.2,0.3c0.1-0.5,0.6-1,0-1.4c1.1,0,0.3-0.6,0.4-1.1l-0.8-0.7
				c0.1,0,0.4-0.1,0.4,0.1c0.8-1.2-0.5-2.6-1-3.7c0.1-0.4,0.1-1.2-0.2-1.5h-0.5v-0.5c-0.5-0.3-1,0.1-1.5,0.1v0.4
				c-0.3,0-0.6-0.1-0.9,0.1v0.3c-2.1,0.2-1.9-3.1-4.3-2.5c-1.7-0.9-3.3-2-5.2-2.9c0-1-3.8-2.6-1.2-3.8c-0.6-0.5-0.5-0.8-1-1.2
				c0.7-1.1-1.2-1.7-0.6-3c-0.9,0.1-2.1-1.1-3-0.7c-0.4,0.5-0.4,1.6-0.6,2c0,0.2-0.4,0.7-0.7,0.6c-0.7-0.1-2.4-0.7-1.9-1.8l-0.5-0.3
				c0.5-0.6-0.8-1-0.9-1.6l0.3-0.4l-0.3-0.3h0.9c0.5-0.9-0.6-0.7-1-1l-0.1,0.1l-0.6-1.1c-0.7,0.3-0.9,1.6-2.1,1.1
				c-1.9,0.1-1.9-2.6-3.7-2.6c-0.9,0-1.9-1-2.7-0.5c0.1-0.6-0.5-0.6-0.9-1l-0.1,0.3c-0.4-0.4-1.4-0.9-1.4-1.5
				c-0.1-1.4,1.7-0.1,2.1-1h0.1c-0.5-0.7-2.2-1.1-2.6-2.2l-1-0.9l-0.1,0.1c-0.2-0.3-0.7-0.6-1.1-0.7l-0.4,0.4
				c-0.5-1.1-1.7-0.9-2.5-0.9c0-0.2-0.2-0.4-0.4-0.5c0.1,0.3-0.7,0.7-0.4,1.2l0.6,1.5c-0.6,0.5-1.1,0-1.7,0.7
				c-1.4-0.5-2.4-1.6-2.7-2.8l-0.7-0.8c-1,0.9-2.5-1.4-3,0.8c-2,0-1.4-1.4-3.2-1.6c-0.5-1.2,0.9-0.9,1.2-1.5c0.6-0.2,1,0.8,1.4-0.2
				c-0.3-1.1-2-0.1-1.9-1.2c-1.4,0-2.4-1.5-3.2-1.2c-0.6-0.5-1.4-2-2.9-1.6c-0.3,0.1,0.3,0.5-0.3,0.6c-0.6,0-0.7-0.9-1.4-1l-0.6,1
				c-0.3-0.3-1.9-1.4-1.6-2.1c-1.6,0.1-0.7-1.6-2.2-1.9c-0.7-0.5-0.9-3.3-2.4-1.7c-0.3,0.5-1.1,1.1-0.9,1.6c0.8-1,1.4,0.6,1.9,0.9
				c0.6,0.4,0.3,1.1,0.4,1.5c-0.5,0.7-1.1,0.4-1.8,0.2c0-1.1-1.6-1-1.1-2.2c0.1,0,0.3-0.3,0.4-0.4c-0.3-0.6-0.5-1.5-1.1-1.9
				l-0.4,0.2c-0.6-1.7-2.4-0.7-2.9-2.4c-1.4-0.5-1.5-2.1-2.6-2.7l-0.6-1l-0.3,0.4l-0.7-0.7l-0.4,0.6c0.3-0.5-0.7-1.2-1.1-1.1
				c0-0.6-2.2-0.5-2-1.7c-1.2,0.4-1.4-2-2.5-1.1c-1.4,0.1-0.3-3.1-1.9-2c-1.1-1-2.5-0.8-3.7-1.7c-1.2-0.7-3-1.7-3.8-2.3
				c-0.1-0.3-0.4-0.5-0.6-0.4l-0.3,0.5c0-1.2-1.4-0.9-2.1-1.4c-0.6-0.3-0.5,1.2-1.2,0.3c-0.1-0.4-0.6-2.4-2-2.6h-0.4l0.1-0.1
				c-1-0.5-2.5,0.2-3.3-1.1v-0.4c-1.9,0.5-3.2-1.4-5.2-1.5c-0.1-0.8-0.7-0.3-0.7-0.6c-0.3,1,0.5,2.2-0.6,3c-1.5-0.3-1-2.1-1.4-3.1
				l-0.6,0.4c-0.1-1-1.5-1-1.7-1.8c-0.5,0.6-1.4,0.5-1.7,0.5c0-0.6-1.4-0.6-1.7-1.5l-1.1,0.5c0.3-0.1,0.1-0.4,0.1-0.6
				c-0.1-0.2-0.4-0.1-0.6-0.1l-0.3,0.5l-0.4-0.6c-0.1,1-1.1,0.4-1.2,1.1c-0.1,0-0.2,0-0.3-0.1c-1.4-0.5-0.4-2.6-2.3-1.9l0.4,0.3
				c-0.9-0.3-2.7,0.2-2.5-1.6c-0.9-0.1-1.2-0.9-1.7-1.5c0.5-0.9-0.9-1.4-1.2-1.5c-0.4-0.3-0.4,0.5-0.7,0.6c0.7,0.1,0.6,1.2,0.5,1.6
				c0.4,0.5-1.1,0.9-0.6,1.7l0.6,0.7l0.5-0.3c0,0.4-0.3,0.8,0.3,1.1c1.1-0.4,2.1,1.6,3.5,1.1c0.1-0.1,0.1-0.2,0.1-0.3
				c0,0.4,0.7,0.6,1,0.7c0.8-0.2,1.6-0.6,2.3-0.4c0.2,0,0.3,0.1,0.5,0.2c0.3,1,1.4,0.5,1.4,1.5c1.2-0.3,0.5,2.2,2.2,2.1
				c0.9,2.2,3.6,0.8,4.9,2.5c0.7,0,1.2,1.5,2.5,0.6c0.6,0.1,1.1,1,1.9,0.6c0,0.9,1.9,1.1,1.9,2.1c0.7-0.4,1.1,0.9,1.7,1
				c1.2,1.6-1.4,3,0.6,3.7c0.6,1.4,3.3,0.6,3.2,2.7c-1.5,0.7-1.5-1.2-3.1-1c-0.5-1.9-2.9-1-3.7-2.5c-1.2-0.4-1.7-0.4-2.4-1.6
				l0.7-1.2c-1.1-1.1-2.6-2-3.8-1.6c-0.1,0.6,0.9,0.6,0.4,1.4c-1.1,0.5-1.9-1-3-1.2l-0.1-0.9c-2,0.9-2-3-4.4-2.2
				c-1,0.2-1.1,0.2-2-0.3c-0.6-1-1-1.7-2.2-2.6c-0.5,0.4-0.6,1.2-1.6,0.9c-0.6-1.9-0.9-2.1-2.6-3.2l-1.2,1.2c-0.5-0.4-1.2-1-1.4-1.5
				c-1.2,0.5-1.4-1.5-2.6-1.4c0.9-2-2.4-2.7-0.5-4.1c0-0.2,1.4,0,1-0.9c-1-0.1-0.2-1.4-1.5-1.5c-0.3,0.5-0.5,0.7-1.1,0.6
				c-0.1-0.6-1-1-1.2-1.6c-0.3,0.5-1.1,0.3-1.6,0.1c-0.5-1.2,1-2-0.1-3.1c0.6-0.5,1.2-1.9,2.4-1.2c0.4-0.7,0.6,0.4,1,0.1
				c-0.3,0-0.1,1.5,0.5,1.9c0,0.3-0.1,0.6,0.1,0.8c2.4-0.8-0.2-2.5,0.4-3.4c-1.4-0.5-2.4-1.7-3.2-2.3c0.1-0.3-0.3-0.3-0.1-0.6
				c-1.2,0.5-1.6-0.6-2.5-1.1l-0.4-0.7h0.2c-0.4-1.5-1.6-2.1-3.2-2.6c-0.5-0.6,0.4-1.4-0.4-1.9c-0.1,0-0.2-1.4-0.9-0.9
				c-1.5-2.2-4.1-3.7-5.7-5.9c-1.5-0.7-3-2.5-3.7-3.6c0.3-0.5-0.3-0.6-0.6-0.7c-0.3-0.1-0.3,0.1-0.4,0.3c-1.1-0.3-0.4-1.6-1.1-2.1
				c0.1-0.5-0.1-1-0.6-1.2c-1.1,0.6-0.8-1.5-1.7-1.2c-2.2-0.5-3.2-3.6-5.3-4.2c0.1-0.8,0.6-1.5-0.5-1.9h-0.3l-0.1-1.4l-0.5,0.1
				c-0.7-1.2-2-2.1-3.2-3l-1.5-0.1c0.1-0.6-1.7-1.2-0.8-2c1.5,0.4,2.2,0.5,3.3,1.7c1.4,0.6,1.5-1.7,2.6-0.4c0.5,0.6,0,1.4,0.5,2
				c0.9-0.1,2.7,1.9,3.7,0.3c1.2,0.6,2.1,2.7,3.7,2.1c1.7,1.1,3.5,0.6,4.8,2c1.1-0.1,3.2,0.7,4.7,1.9c1.1,0,1.9,1,2.7,0.7v-0.4
				c0.5,0,0.7,1.1,1.4,0.5l0.1-0.1c1.1,1,2.6-0.7,3.3,0.9c0.3,0.4,0.3,1.1,0.7,1l0.4-0.4c0.5,1,2.4,0.4,2.9,1.5
				c1.1-0.1,0.4-0.3,1.5,0.4c-0.3,0-0.3,0.4,0,0.4l0.4,0.5l0.4-0.4c0.9,1.2,2.5,1.4,3.5,2c1.2-1.4,0.7,0.7,2.1,0.5
				c1.6,2,4.6,0.9,5.8,3c1.2,0.4,1.7,0.2,2.8,1c2.4-0.9,3.5,2.2,5.6,2c0.4-0.1,1.5,1.2,2,0.2c2.5,1.5,5,2.4,7.4,4
				c1.1-0.8,1.1,1.1,2.1,1.2l1.5,0.3V134c1.7,0.7,3,1.7,5.1,3l1-0.1c-0.1,0.6,0.6,0.6,0.9,0.8l0.6-0.1c0,0.1,0.1,0.3,0.1,0.3
				c0.1,0,0.4,0.1,0.5-0.1c0.6-0.1-0.2,1.7,1.4,1.5l0.5-0.1c-0.3,0.7,0.7,1.1,1.2,1.1l0.5-0.1c0.6,0.7,1.5,1.1,2.3,2
				c0.3-0.9,0.6,0.4,1.1,0c0.4,0.3,0.7,0.9,1.1,0.4c0.4,0.7,1.1,1.4,1.9,1.5c1,0.7,1.7,2.4,2.8,2.1c0.6,1.6,2.2,1.1,3.1,2.7l0.5-0.5
				c0.6,1.7,2.2,1.6,3.2,2.2c1.2,0.6,1.4,1.9,2.6,2.1c0.3-0.1,0.1-0.4,0.1-0.6c0.3,0.5,0.7,1.6,1.5,1.1l-0.1,0.1
				c1.5,0,2.2,1.7,3.6,1.4c-0.1,0.3,1,1.5,1.7,1.5c0.6-0.1,1.2,0.7,2.1,0.5v0.3c1.1,0.5,2.1,1.6,3.8,1.9c0.1-0.1,0.2-0.2,0.2-0.3
				c0.1,0.7,1.1,0.6,1.4,1.1c0.9-0.3,1.5,1.4,2.7,0.7c1.7,1,3.3,2,5.3,2c0,0.6,0.7,0,1,0.4l0.4-0.2c0,0.1-0.1,0.2-0.1,0.2
				c1.6,0.3,3.5,3.4,6.1,2.7c0.5,0.9,2.4,0.6,3.1,2c0.1,0.1,1.9,0.6,2.5,0.9c1.7-0.1,3.5,2.1,5.4,3c1.4,1.7,4,1.2,5.3,3.2
				c0.6,2,3,1.2,4.1,2.4l0.4-0.3c0.6,0.7,1.7,1.6,2.6,2.1l0.4-0.4c0.4,1.1,1,0.6,1.7,1.5c1.5,0,2.5,2,3.8,2.2c0.1,1,1.1,0.7,1.7,1.1
				c0.6,0.5,2,1.5,2.6,2.2c0.3-0.1,0.1-0.4,0.1-0.6c0.4,0.3,0.4,1.2,1.2,0.9l1,1.2l-0.1,0.1c0.9-0.4,1.5,0.6,2.3,0.6
				c0,1.2,2.6,0.4,1.7,1.7c0.1,0.6,1.4,0.6,1.6,1.5c0.1,0,0.1-0.2,0.1-0.4c0.1,0.3,0.4,0.1,0.6,0.1c0.5,0.7,1.7,0.9,2.1,1.7
				c0.9,0.4,1.9,3.2,3.8,2.8c2.2,1.2,4,2.7,5.9,3.8h-0.1c0.4,0.6,1.2,1.7,2.2,1.5c0.3,0.9,1.7,1.6,2.5,2.1c0.6,0.3,0.5,1.9,2,1.6
				c0.9,1.7,2.9,0.9,3.4,2.6h0.6l-0.1,0.1c0.1,0.6,0.9,0.6,1.4,0.9c0,0.4-0.1,0.8,0.3,0.9l0.3-0.3l-0.3,0.4c1.1,0.9,1,1,2.4,1.1
				c0.4,0.4-0.1,0.7,0.6,1.1h0.6c0,0.7,0.3,1.5,0.7,1.9l-0.4,0.3c4,1.7,6.7,7.3,10.1,9.5c2.7,3.2,6.8,5.1,8.1,8.2l0.3-0.3
				c0.2,1,3.1,2.7,3.1,4.6l3.3,4c-0.2,0.5,0.4,1,0.8,1.4l0.6-0.5v0.6c-0.1,0-0.3-0.1-0.4-0.1c-0.2,0.6,1,1.1,0.5,2
				c1.4,0.5,1.9,2.2,2.6,2.6l2.6,2.4c0.1,0,0.3-0.4,0.4-0.3l0.4,0.7l0.1-0.1l1,1l0.3-0.1c-0.4,0.4,0.4,0.5,0.1,1
				c0.6,0.8,1.5-0.4,2.2,0.3c-0.1,0.4,1.1,1.6,1.7,2.3l-0.1,0.1l1,1h-0.1c0,1.4,1.5,1.4,1.4,2.7c-0.4,1.6,2.1,4.3-0.5,5.1
				c0,0.1,0.2,0.7-0.1,1h-0.2c0.4-0.6-0.6-0.9-0.4-1.6h-0.5c0,1,1.2,3.1,2,3.7c0.6-0.6,1.2-1.6,2.5-1.2c0.5,1.4,0.1,2.5,1,3.6
				c-0.6,0.8-0.4,2,0.1,2.8c0.5-0.4,0.3,0.3,0.6,0.1c-0.7,2.6,1.4,2.6,0.7,5.3c0.9,0.6,1,1.4,1,2.1c-1.1,1.1,1.2,2.6-0.3,3.8v0.7
				l-0.1-0.4c-0.4,0.1-0.9,0.3-0.7,0.7c0,1.2,1.1,1.7,1.1,3c-0.5,0.4-0.6,1.9-1.6,1.5c0-0.3-0.9-0.5-0.4-0.9l-0.4-0.4
				c-0.3,0.1-0.1,0.4-0.1,0.6c-0.3-0.1-0.6,0.1-0.9,0.5l0.3,0.4l-1.4,1.2c-1.2-1.4-1.5-2.1-3-3.3c-0.2,0.7,0.3,1.7-0.5,2.1
				c-0.3,0.6,0.5,0.7,0.5,1.2c0.4,0.1,0.5-0.1,0.6-0.4c0,0.1-0.1,0.3-0.1,0.4c0.4,0.5,0.7,0.3,1.2,0.1c0.5,0.9,0.9,0.7,1,1.7
				c0.1,0.1,0.6,0.1,0.8-0.1c1.1,0.8,2-0.5,2.9,0.6l0.5,1.5c-0.9,0.9-3-0.4-2.1,1.4l-0.4-0.4c-0.7,0.6-1,1.1-0.9,2.5
				c2.4,0.1,1,3,1.9,4.7v0.7h0.3c0,0.3,0,0.5-0.3,0.8c-1.6,0-1.9-1.7-2.7-2.1l0.1-0.1c-0.3-0.4-0.6-1-1.1-1c0.5-0.5-0.3-0.6-0.4-1
				c0.5-0.1,0.4-0.9,0-1.1c-0.2-0.7-1.1-0.1-1.1,0c-0.2-0.4-0.2-0.9,0.1-1.1c0.1,0.5,0.6,0.3,0.9,0c0.3-0.5,0.1-1.2-0.1-1.7
				c-0.3,1-2.6,0.4-1.6,1.6c-0.7,1.4-0.4,3.1,0,4.5l-0.5,0.5c0.4,0.5,0.6,1.6,1.5,1.9l0.1-0.1l0.1,0.1c0,0.4-0.5-0.2-0.8,0.4
				c0.1,0.2,0.3,0.2,0.5,0.1c-0.5,0.9,0.9,0.7,1.3,1.3l0.1-0.1c1.2,0.6,0.4,1.7,1,3.2l0.9,2h-0.1c0.9,1.2-0.4,2.1,0.9,3.2
				c0.1-0.3,0-0.5,0.5-0.6c-0.1-0.6-0.6-2,0.5-1.9c0.5,0,0.9,0.6,0.7,1.2c-0.1,1.9,0.6,3.8,0.5,5.8c-1.2-0.3-0.4,1.9-1.9,1.1
				c0-0.3,0-0.4-0.1-0.5c-1,0.5,0.6,0.9-0.6,1.5c-0.1,0.7-0.1,1.9,0.9,2.4c0.4-0.3-0.1-0.6-0.1-0.9c0,0.1,0.5-0.8,1-0.5
				c1.1,0.9,0.4,2,1.2,2.9c-0.3,0.1-0.1,0.4-0.1,0.5l0.1,0.1l0.7-0.6v0.1l0.9-0.1c0.1-0.8-0.3-1.1-0.3-1.7l-0.5,0.3c0,0,0,0,0,0
				c0,0,0-0.1,0-0.1c1-0.6-1.1-1.4-0.8-2.1c0.3,0.8,0.4-1,1-0.2l-0.2-1.2h0.1c-0.6-1.1,0-1.2-0.1-2.6c0.9-0.5,0.7,0.6,1.5,1
				c0.1-0.3,0.3-0.1,0.5-0.1c-0.6,0.6,0,1.5,0.2,2.2c1,0.4-0.4,2,0.8,2.1c-0.4,1.7,0.5,2.2,0,3.8l0.9,0.4l-0.1,0.2
				c0.1,0.3,0.4,0.3,0.6,0.2c-0.2,0.3,0.6,0.5,0.4,0.9l0.5,0.7l-0.3-0.3c0.1,0.6,0,1.6,0.3,2.4c0.4,0.9-0.5,2.7,1,2.8
				c0.1-0.1-0.4,1,0.2,1.4c0,0.3-0.1,0.5-0.4,0.8c1.2,0.6-0.6,1,0.5,1.7c-0.5,1-0.1,3.1-1.5,3.6c-0.6-0.4-0.1,1.4,0.1,1.5
				c0,1,2.7,1.7,1.6,3.3c0.5,0.4,0.1,0.4,0,0.7c-0.2,1.6,0.8,1.9,0.8,3.3c0.4,0.6-1,0.8-0.3,1.4l0.6,0.1l-0.7,0.3l0.4,0.7l0.6-0.3
				c0,0.5,0.9,1.4,0.7,2.3c0.6,1-1,1.1-1,1.6c0-0.1,0-0.4-0.3-0.4l-0.9,0.5c0.1-0.3-0.1-0.4-0.2-0.5h-0.1c0.1,1-0.5,0.4,0,1.6h0.1
				c-0.4,0.1-0.1,0.9,0,1.1h0.1l-0.5,0.3l0.6,0.8c0,0.2,0.5,0.7,0.6,1c0.1,0,0.3,0,0.3-0.1c0,0.1-0.1,0.1-0.1,0.2l0.3,0.3
				c-0.9,0.1,0.3,0.5,0.1,0.9c-0.3-0.1-0.4,0.1-0.5,0.2c0.2,1,0.4,1.9,0.9,2.9c0.4,1.6,0.1,2.2,0,3.7l0.4,1.4
				c-0.1-0.3-0.4-0.1-0.5-0.1c0.4,0,0,0.9,0.4,1.2c0.3,0.1-0.5,0.3-0.3,0.6l0.5,0.5c0.1-0.2,0.3-0.1,0.5-0.1
				c0.1,0.3,0.1,0.5-0.2,0.7l1.2,0.8c0.3,0.2,0.3,1.4,0.6,1.9c0,1.2,0,2.1-0.1,3.4l-1.4,0.2c0.3-0.6-0.5-1.2-0.5-1.6l-0.6-0.4
				l0.5-0.3c-0.3-0.1-0.7-0.5-1-0.1c-1,0.5,0.5,1-0.4,1.6l0.5,1.4c-0.6-0.4-0.9,0.5-1.4,0.6c1,1.7-1.4,4.2,0.3,6.2
				c-0.4-0.4-0.9,0.6-0.7,0.9c0.2,0.4,0.2,0.7,0.6,0.9c-1,1,1.2,2.2,0.5,2.9c-0.9,1.9,0.1,3.3-1.2,4.8c-1,0.4-0.6-0.7-1-1.2
				c1.1-0.9-0.3-2.7,0.6-3.5c-0.6-0.2-0.7,0.6-1.4,0.5l0.6,1.5l-0.4-0.2c0,1.2-2.1,0.2-1.4,2c-0.2,0.1-0.5-0.1-0.7,0.3v0.4
				c-0.1-0.3-0.4-0.4-0.7-0.3c0.9,1.1-0.4,3.7,1.7,3.6c0.9,0.3-0.1,1.1,0.8,1.7h-0.3v0.6c0.7-0.3,1.1-0.1,1.8,0.7
				c0,1.2,0.1,3-1.2,3.7c0.1,0,0.1,0.1,0.4,0.1c-0.4,1-0.6,0.7-0.4,1.7c-0.1,0.3-0.4,0.3-0.3,0.5c0.1,0.1,0.4,0.4,0.6,0.3l0.1-0.1
				l0.1,0.1l-1,0.4c-0.2,0.6,0.1,1.7,0.8,1.8c-0.4,0-0.6,0.4-0.7,0.6c0.5,1.4,0.4,2.7-0.1,4.2l0.4,0.3c-0.6,0.1,0.2,0.7,0.1,1.4
				l-0.9,0.3l0.5,0.6l-0.1-0.1c-0.9,0.5-0.9,0.9-1.2,1.4c0.2,0.6,0.9,1.1,0.5,2.2c-0.9,0.6-0.5,1.4-1.4,1.6l-0.6-0.9
				c-0.4,2.5-2.8,3.8-3,6.3c-0.5,1.7-2.1,2.5-1.6,4.1c-0.3,0.6-1.1,1.6-0.9,2.8c-1.7,1.5-0.9,3.2-2,5.4c-0.3,0.2-0.4,0.9-0.2,1.2
				c-0.1-0.1-0.3-0.2-0.4,0.1l0.4,0.4c-0.8-0.3-0.5,1-0.8,1.1c-0.5,0.3,0.3,1.2-0.2,2l-0.4-0.1c-0.5,0.7-0.1,2-0.9,2.2
				c-0.7,2.4-0.9,2.6-2.2,5c-0.3,0.9-0.4,0.7-0.5,1.7l-0.1-0.1c-0.9,0.1-0.1,0.6-0.7,1l0.6,0.4c-0.9-0.1-1.4,1.2-2.1,1.7
				c1.4,0.6-1.7,1.9-0.9,2.8c-0.1,0.6-1.7,0.9-1.5,2.2c-0.6,0.1-1,0.6-1.2,1.4l-0.1,0.6c-1,1-2.5,2-2.7,3.7l-0.3-0.5
				c-0.7,1.1-1.9,2-2.1,2.8l-1.5,1.6l0.3,0.3c-1,0.4-0.8,1.5-1.9,1.7l0.1,0.1c-0.9,1.2-2,3.2-3.5,4.3c-1,1.7-2,3.3-3.3,4.8
				c-0.6,0.5-0.6,1-1.4,1.5l0.1,0.1c-0.1,0.3-1.6,0.9-1.5,1.7c0.5,1.1-1.2,1.1-1.6,2c-0.6,0.1-0.1,1.4-0.7,1.7l-1,1l0.1,0.1
				c-0.9,0.6-0.6,1.5-1.4,2.2c0,0.6,0.6,0.6,0.1,1.1c-0.6-1-1,0.4-1.5,0.5c0,0.2,0.3,0.4,0.4,0.5c-0.4,0.1-0.7-0.4-1,0.1l0.3,0.5
				c-0.3,0-1.1-0.1-1.2,0.6c-0.9,0.1,0.6,0.7-0.3,1.1c-1.6,0.8-2.6,2.6-3.2,4.2l0.4,0.3c-0.1,0.1-2,0.3-2,1.2
				c-0.3-0.1-0.3,0.1-0.4,0.3l0.4,0.4c-1,0-1.6,0.7-1.9,1.6c-1.2,0-0.5,1.2-1.7,1.7c-1,0.9-2.6,2.5-3.2,3.7
				c-1.1,0.4-1.5,1.5-2.5,2.2c-0.4,0.6-2.1,0.9-2,2.1l-0.3-0.5l-2.1,2c0,0.7-0.7,1.2-1.4,1.6c-0.9,1.5-2.6,1.4-3,3
				c-1.6,0.7-2.1,2-3.5,2.8v0.7c-0.1-0.3-0.4-0.1-0.7-0.1c-0.5,1.6-2.7,1-3,2.8c-1.5,1.1-3,3.1-4.8,4.5c-2.7,0.4-3.6,3.8-5.9,3.7
				c-1.1,2.1-3.3,1.5-4.6,3.7c-1.2-0.5-1.1,1.4-2.2,0.9c-0.7,1.9-2.5,0.6-3.3,2.2c-3.2,0.5-4.6,3.1-7.7,3.6c0.1,1.1-1.6,0.1-1.4,1.2
				c-1.2-1-1.7,1.5-3,0.6c-0.6,0.5-1.5,0.5-2.1,1.4c-0.7,0.1-1.4-0.1-1.6,0.7c-0.1-0.2-0.4-0.1-0.6-0.1l-0.6,0.9
				c-0.5,0.5-1.9-0.4-1.9,0.7l-1.4,0.1c-0.1,0-0.7,0.8-1.2,0.5l-3.3,1.7c0-0.3-0.3-0.3-0.4-0.4c-1.1,1-1.9,1.1-3,1.5
				c-0.5-0.9-1.2,0.1-1.7,0.4c-1.1,1.2-3.5,1.2-4.7,2.2c-2,0.5-3.8,1.9-5.6,2.6c0.1,0,0.2,0.1,0.2,0.1c-0.2-0.1-1-0.3-1.1,0.3
				c-1.1-0.1-2.4,0.2-2.8,0.9l0.1,0.5c-1.7-0.1-2.4,1.2-4.6,1.6c-1.1,1.5-2.6,1-4.1,2.4c-1-0.4-1.2,1-2,0.6v0.4
				c-1.5,0.7-3.5,1.9-4.6,1.9c-0.6,0.9-2.8,2-4.2,2.2v0.4c-1,0-2.2-0.2-2.1,0.9c-1.6,1.4-2.4,1.5-4.5,2.2c-0.7-0.3-0.9,0.4-0.9,0.8
				c-0.3-0.9-1.4,0.2-2.1,0c-0.4,0.7-2.5,0.7-3.2,1.7c-3,0.1-5.3,2.1-8,2.4c-1-0.4-2.2,2-3.7,0.7c-0.4,0.5-1.2,0.3-1.1,1.1
				c-1-0.6-1.1,1-2,0.4c-1.5-0.1-1.1,1.1-2.5,1.1l0.1-0.3c-0.4-0.7-1.1,0.3-1.4,0c-0.1,0.5-0.4,0.4-0.8,0.4c-1-0.4-2,0.4-3.1,0.8
				l-0.4-0.5c-1.9,1.2-3.6,1.2-5.6,2c0-0.3-0.3-0.4-0.4-0.5c-3,0.4-5,2-8.2,2c-1,0.9-2.4-0.5-3,0.6c0-0.3,0.1-0.3,0.3-0.4l-0.3-0.1
				c-0.6,1.7-1.9,0.3-3.1,1.4V585c-0.9-0.1-0.9,0.5-1.9,0.5c-1.1,0.8-2.2,0.3-3,1c-0.5-0.4-1.4,0.1-2-0.2l-0.6,0.6v-0.2
				c-3,0.1-5.8,2.2-8.9,1.7c0,0-0.1,0.1-0.1,0.3c-0.8-0.6-1.6,0.1-2.5-0.1c-0.9,0.6-3,0.6-4.1,1c-1.5-0.9-3.7,0.4-5.1,0.1
				c-0.1,0.1-0.1,0.3,0,0.4c-0.5-0.1-1.3-0.2-0.9,0.6c-0.7-1.4-1.4,0.1-2-1c-1.7,0-3,1.4-5,0l-0.5,0.6l-0.7-0.4l-0.3,0.4
				c0-0.3-0.3-0.3-0.4-0.4c-1.7-0.2-3.2,0.6-4.8-0.4c0.1,0.8-0.9,0.3-0.6,0.9H343l0.1-0.4c-0.4-0.5-1,0.4-1.6-0.1l-0.1,0.3
				c0-0.1,0-0.3-0.1-0.3c-0.5,0.8-1.1-0.7-1.7,0.3l-1.5-0.9c-1.1,0.7-2.6-0.4-4,0.4c-1-1.5-1.5,0.7-2.6-0.5c-0.8,1-1.9-0.1-2.6,0.3
				c-0.9-1-2.5,0.4-3.4-0.9c-0.6,1.1-1.7,0.3-2.4,0.3c-0.9-0.6-1.1-0.4-2.1-0.1c-0.6,0.5-0.9-1.5-1.6-0.5h-1c0.3,0,0.3-0.3,0.3-0.4
				c-1.6,0.1-2.8-0.9-4.3-0.5c-0.1-0.1-0.9-1-1.6-0.4l-0.2-0.2c0.1-0.4,0.5,0.4,0.5-0.3c-1-0.7-2.9,0.1-3.8-1.2
				c-1,0.1-0.6-0.1-1.4-0.3c-0.2,0.1-0.2,0.6-0.7,0.5c-0.6-0.7-1.7-1-2.7-1.5l-0.4,0.9c-1.9-1.1-2.5-2.5-4.8-2.2
				c-0.3-0.6-1.7-0.6-2.4-1.2c-0.8,0-1.9-1.4-3.3-0.9c-0.4-0.5-0.9-0.5-1.2-0.3c-0.1-0.3-0.1-0.5-0.3-0.6l-0.5,0.4
				c-0.7-2.2-3.8-0.9-5.3-3l-0.4,0.4c-0.4-1.1-1.5-1-2.6-1.6c-0.9-0.6-2.2,0.1-3.1-1.1c-1.2-1-3.3-1.1-4.4-2.6
				c-0.5,0.3-0.9-1-1.4-0.4c-1.2-1.2-2.5-0.4-3.5-2c-1.4,0-1.5-2.2-2.6-1.2c-0.9-1.4-2-0.4-2.6-1.5l-0.1,0.1
				c-0.3-0.9-2.9-1.2-3.1-2.5c-1.9-0.1-3.1-1.1-4.5-1.8c-2.4-0.5-4.2-2.4-6.7-3.2c-0.6-1.4-1.9-0.6-2.9-1.5
				c-0.2,0.1-0.1,0.3-0.1,0.5c-1.1-1.9-3-0.9-4.5-2c0.1-1.9-2-0.1-2.6-1.2l-0.2,0.4v-0.1c-1.2,0.4-1.6-0.9-2.7-0.3l0.3-0.1
				c-1-1.2-3-0.6-4-1.6c-0.9,0.2-1.4-1.2-2.3-0.9c-1.6-0.5-3-1.4-4.7-1.5c-0.5-1-1.5-0.9-2.2-1.6c-1.1,0.4-1.6-1.1-2.7-0.7
				c-0.3-1.5-1.7-1.6-2.6-2.1l-0.5,0.4c-0.3-0.3,0-0.9-0.6-1c-1.1,0.7-1.1-1.2-2.2-0.6l0.1-0.1c-1,0.1-0.9-1.4-1.8-1
				c-0.3-0.7-1.2-0.5-1.1-1.2c-0.5-0.5-1.5,0.5-1.2-0.8c-1.6-0.7-2.9-2.4-4.3-2.5h-0.4l0.4-0.5c-1.5,0.3-0.9-1.8-2.2-0.9
				c0.1-1.6-2.4-2.2-3-3.5h-0.5c0.1-0.3-0.1-0.3-0.3-0.4c-0.1-0.1-0.3,0-0.4,0.1c-1.9-1.5-3.7-4.7-6.3-5.8l-0.1-1.4
				c-2,0.5-1.2-2-2.7-2.2c-0.5-1.4-2.5-1.5-2.9-2.6c-0.6-0.8-1.5-1.2-2.2-2.1l-0.1,0.1c-1.9-1.2-2.5-3.1-4-5c-0.7,0-1.4-1.2-1.7-1.6
				c-1.6-1.7-3-3-4.2-4.6c-1.4-0.7-1.5-3-3.5-3c0.3-0.6-0.5-1.4-0.9-1.5l-0.1,0.1l-0.7-1l-0.3,0.1c-1.1-2.5-3.3-4.8-4.9-7.3
				c-0.9-1.4-1.9-2.6-3.3-3.6c0.2-0.1,0.1-0.4,0.1-0.5h-0.4c0-0.4-0.1-0.6-0.4-0.8h-0.4l0.1-0.2c-1.1-1.6-2.6-2.7-3.5-4.7
				c-0.9-0.3-1-2.1-2.2-2.4c-0.5-1.4-1.5-2.6-2.5-3.5l-0.1,0.1c-0.9-3.1-4.6-4.3-5.6-7.5l-0.8-0.6c0.3,0,0.3-0.4,0-0.4
				c-1,0.4-0.9-0.9-1.6-0.9c0.4-0.4-0.6-1.1-0.7-2c-1.7-1.1-1.1-2.2-3.1-3.2c0.5-0.4,0.1-0.9,0-1.2c-1.2-1-0.8-2.1-1.7-3.1
				c-1.1,0.1-1.1-1.5-1.9-1.6l0.1-0.3c-0.1-0.1-0.5-0.6-0.9-0.3c0-1.5-0.4-2.8-1.5-3.7c0.5-0.7-1-1-0.3-1.5
				c-0.9,0.3-0.1-0.7-0.7-0.7c-1-0.3-0.4-1.6-1.5-2.2l0.1-0.1c-0.9-1.2-1.5-2.7-2.7-3.8c0.8-2.5-2.6-2.8-2.5-5.4
				c-1.5-2.9-1.7-5.7-3.5-7.9c0.6-1.4-1.6-2.4-0.7-3.5c-0.9-1.4-1-3.2-2.2-4.5c-0.1-1.1-0.9-2.9-1.9-3.7c0.6-0.5,0.1-1.5-0.5-1.6
				c-0.1-1,0.5-2.1-0.9-2.1c0.7-1-0.6-2.1-0.6-3.1l-1.4-3.3c0.6-1.6-0.9-3.2-1-5c-1.6-0.8,0.5-2.2-1-3.5c-0.3-2.4-0.7-4.2-1-6.4
				c-0.1-0.3-0.5-0.1-0.4-0.4l0.3-0.4c-0.4-1,0-2.9-0.6-3.8c-0.7-2.1-0.1-3.3-0.5-5.6h-0.4c0.6-0.4,0.3-1.7,0.4-2.2
				c-0.9-1.4,0.4-3.8-0.4-5.7c-0.3-4.3-0.6-8.9-0.1-13.3l-0.3-0.4c0.7-0.6-0.4-1.5,0.3-2.2c0.4-1,0-2.2,0.3-2.6l-0.3-0.2
				c0.9-1.5-0.1-2.7,0.6-4.5c0.4-1.5,0.5-3,0.4-4.5c0.5-0.4-0.3-1.5,0.3-2.6c0.7-1-0.8-2.5,0.4-3.2c-0.3-2.1-0.1-4.3,0.5-6.7
				c-0.4-2,0.6-4.1,0.4-6.1c0.3-1.5,0.4-3.4,1.2-4.6c-0.6-1.4,0.5-3.1-0.3-4.2c0.8-1.6,0.6-3.1,0.9-4.6c0.7-1.7,0.4-4.1,0.9-5.9
				c0.6-2,0.1-3,1-4.5c-0.6-1.2,1.5-2.3-0.1-3.5c0.6,0.4,0.8-0.6,0.9-1l-0.1-0.7h0.4c-0.4-1.6,0.9-2.6,0.4-4.3
				c0.1-2.1,1.1-3.5,0.9-5.7c0.7-0.9,0.5-3.2,1.4-4.6c0-2.5,1-4,1.5-6.2l0.1-2c1-0.2,0.6-1.9,1.4-2.6l-0.3-0.5
				c0.3,0.1,0.4,0.1,0.6-0.1c0.7-1.9,0-2.8,1.6-4.2c0.1-1.5,0.6-2.2,1.1-3.4l-0.1-1c1.2-0.1,0.6-2.1,1.9-2.7
				c-0.4-0.9,1.1-2.2,0.7-2.9l0.1,0.1c0.6-0.4,0-0.8,0.4-1.2c0.3,0.1,0.5-0.1,0.6-0.3c-0.5-1,1.4-1.9,0.8-3.2c1.2,0.4,0.7-1.9,2-2
				c-0.5-0.9,0.6-1,0.6-2c0.1,0.1,0.8-1.4,1-0.9c0.3-1.7,1.5-2.8,2-4.3c1-0.5,1-1.7,2-2.7c0-0.7-0.6,0.3-0.4-0.6v0.3
				c0.6,0.4,1.1-1.6,1.9-2.4c0.1-0.3-0.1-0.4-0.3-0.6l0.5,0.1c0.9-0.7,1.2-2,1.7-2.7c0.9-0.3,0.6-1.2,0.9-1.9c0,0.1,0.1,0.3,0.1,0.4
				c0.6-0.1,0.3-0.7,0.4-1.1c0.9,0.4,0.4-0.8,0.8-1h-0.1v-0.5h0.1c-0.1,0.3,0.1,0.4,0.2,0.5c1.2-2.9,4.3-4.7,5.6-7.8
				c0.8-1.2,2.2-2.8,2.5-4v0.1c1.7-0.7,1.7-2.9,3.1-4c0.5,0.5,0.5-0.6,0.9-0.5c-0.5-1.1,1.4-0.4,0.7-1.7c2.2-2.5,3.8-4.3,5.8-6.8
				c1.4,0.4,1.1-2,2.6-2.1l-0.3-0.5c1.2,0.1,1.1-1.5,2.1-1.6c0.6-0.4,1.7-0.5,2-1.6l0.3,0.3c1.5-0.4,0.6-2.7,2.2-2.6
				c0.4-1.5,2.1-1.6,1.9-3.3c0.1,0,0.3,0.3,0.4,0.4c0.3-0.3,0.1-0.6,0.1-1l0.4,0.4c1.2-0.4,0.9-2.5,2.4-2.6c0.5-0.2,0.3-1.4,1.2-1
				c0.4-0.9,0.3-2,1.5-2.1c0-1,1.7-1.5,1.2-2.2c1.5-0.1,1.2-1.1,2.1-2.1c0.4-0.6,1.6-0.8,2-1.9c0,0,0,0,0,0c0.1,0.1,0.2,0.1,0.4,0
				c-0.5-1.7,1.7-1.1,1.5-2.7c1-0.1,0.8-1.4,1.4-1.7c0-0.2,0,0.4,0.4,0.4c0.9-0.9,1.1-1.6,1.8-2.6v-0.5c0.8,0.4,1.2-0.7,1.6-1.1
				l-0.1-0.2c0.2,0.1,0.4-0.1,0.6-0.2c-0.3-0.5,1.1-0.9,0.6-1.5c0.6,0.6,1.2-0.5,1.5-1v-0.4l0.1,0.2c2.1-2.6,4-4.1,6.1-6.9
				c1.7-0.4,2.7-2.5,3.7-3.5c0.1-0.1,0.2,0,0.4,0.1c0.1-0.3,0.4-0.4,0.2-0.6l-0.1-0.1c1.1,0,2.5-1.5,3.1-2.6
				c1.4-1.5,4.1-2.2,4.6-4.2c2.1-0.1,2.6-3,4.6-3.2c0.4-0.3,0.5-1.2,1.2-1.1c0.8-0.3,1.4-1.4,2.2-1.4c0.6-0.5,0.6-1.5,1.5-1.2
				c1.2-1.5,4-2.6,4.4-4.2c1.4-0.1,2-1.5,2.9-2.2l0.1,0.1c1.5-0.7,2.2-1.7,3.2-3.1c0.9-0.5,2-0.6,2-1.4c2.1-0.3,1.9-2.6,4-2.8v-0.3
				l0.3,0.1l3.1-2c-0.5-0.4,0.2-0.1,0.1-0.6l-0.5-0.1l0.2-0.1c0,0.5,0.8,0,1.1-0.3c1.5-0.9,2.7-1.6,4.2-2.9c0.1,0.3,0.4,0.1,0.6,0.1
				c0.3-1.4,2.2-0.9,2.4-2.2c0.6,0.4,1.6-0.1,1.6-1v-0.4c1.4,0.9,2.8-1.6,4.2-2.1c1.4-1,3-0.9,3.8-2.5c0.3,0,0.6,0.1,0.8-0.1v-0.4
				c0.7,0.4,1.4-1.1,2.4-0.5c0.4-1.1,2.1-0.9,2.5-2c1.9,0,3.2-2,5.4-2.2c2.4-2,5.2-1.6,7.8-3.1c0.9-0.7,2.7-1.1,3.8-1.4
				c0.2-0.6,1.2-0.2,1.7-0.7c0-0.4,1.1,0.7,1-0.3c1.5-0.4,2.9-1.4,4.7-1c2.1-1.4,4.2-0.1,6.2-1.6c0.9-0.1,1.4,0,2.4-0.1l0.4-0.9
				c1.5,1.9,2.8-1.4,4.7,0c1.1-0.2,2.5-0.1,3.3-0.7c0.4,0.1,1,0,1.1-0.5v0.5c0.2,0.1,0.9-0.4,1.1-0.1v-0.4c1.1,1.5,2.4-0.2,3.5,0.8
				c0.9-0.3,1.9-0.3,3.1-0.3c1-0.6,2.2-0.1,3.2,0.1c0.5-0.2,1.4-0.2,1.7-0.7c1.4,1.1,3.2-1.5,4.6-0.1c1.1-1,2.5,0,3.6-1.1
				c0.9,0.3,2.1-0.4,3.5,0c1-0.7,1.9,0.3,3,0.4c0.6,0.8,0.9,1.6,0.7,2.6c-1,1.2-1.9,3.3-4,3.2l-0.5-0.4l-2.6,0.7
				c0,0.1,0.1,0.1,0.1,0.4c-1.7-0.6-3.3-0.4-5.1-0.3c-1.9,0.7-2.8,1.7-5.1,1.5c0.4,1-0.9,1.1-1.6,1.2c-0.7-0.1-0.9-0.5-1.6,0v0.1
				c-0.6,0.1-1.4-0.4-1.7,0.5c-1.2-0.5-2.6-0.5-3.7,0c-0.7,1.4-1.2,1.2-2.5,1.7l-0.3-0.2l-0.7,0.6c-0.1-0.2-0.3-0.2-0.5-0.2
				c-0.2,0.2-0.2,0.4-0.2,0.6c-1.1-0.3-1.7,0.9-2.9,0.6c-1.9,2-4.1,1.5-5.8,2.8l-0.3-0.4c-1.6,1.9-3.6,1-5.1,3
				c-0.4,0.4-1,0.7-1.4,0.3c-1.9,0.7-3.1,2-4.8,2.2c-2.4,1.6-4.2,3.3-6.6,4.7c-0.8,0.9-0.4,2.8-2.1,2.2c-0.1,0-0.4,0-0.4-0.1
				c-0.7,0.4,0,0.7-0.5,1.1l-1.4,0.6l0.1,0.1c-0.1,1.2-1.9-0.1-2,1.4c-0.1-0.1,0.1-0.9-0.4-0.9c-0.6,0.5,0.1,1,0.1,1.4
				c-0.5,0-1.1,0.5-1.1,1l0.1,0.1c-2,0.1-4.3,1.7-5.1,3.6c-1.1,0.5-1-0.7-1.1-1.4l-0.5,0.5V145c-0.3-0.4-0.4,0.3-0.6,0.3
				c0,1.2-0.4,2.1-0.6,3.3c-1.1-0.6-2.9,0.4-3.7-0.7c-0.9-1.2-1.1,1.1-2.4,0.6c-0.6-0.1-1.1,1.2-2.1,1c-0.1,0.7,0.6,2.1-0.8,1.6
				c-0.1-0.1-0.5-0.8-0.9-0.4c-0.7,0.5-1.6,1.2-2.2,1.9c-0.6-0.1-1.1,0.7-1.7,0.9c-1.7,2.6-5.1,1.5-6.2,4.5c-0.4-0.4-1.2,0.1-1,0.5
				l-0.1-0.1c-0.4,0-0.6,0.6-0.4,0.9l-0.3-0.3c-0.6,0.6-1.2,0.4-1.2,1.2c-0.6,0.4-1.6,0.9-2,1.9v0.6c-0.6,0-0.3-0.5-0.5-0.7
				c-1.2,0.5-1,1.7-2.1,1.9c-0.4,0.2-0.5,0.5-0.9,0.7c0.2,0.3,0.1,0.6,0.1,0.9c-1.9-1.4-1.1,2-3.1,1.7c-0.3,0.5-0.6,1.1-1,1.6
				l-0.2-0.5c-0.3,0.3-0.6,0.3-0.9,0.6l0.4,0.6c-2.5,1.5-3.7,3-5.2,5.1c-0.1-0.1-0.2-0.3-0.4-0.3c-0.9,0.5,0,1.5-1,1.7
				c0.3,2.3-3,1.5-2.3,3.5c-1.5,0.4-1.9,2.2-3.2,3l0.3,0.6c0,0.1-1.1,0.2-1.1,0.1c0.1,1.6-2.4,1.9-2.6,3.4c-0.1-0.1-0.3-0.1-0.4,0.1
				c-0.1,0.1-0.1,0.2-0.1,0.5l-0.1-0.3c-0.5,1.1-2.1,1.5-2.1,3c-0.5-0.3-1,0-1.4,0.4l0.1,0.4c-1,0.1-1,0.5-1.8,1.1
				c0,1-1.1,1-1.5,1.7c-1.2-0.3,0,0.9-1.1,0.7c0,1.4-2.1,2.1-2.2,3.3c-2.1,2.5-4.6,5.6-6.2,8.4c-1,0.9-2.4,1.9-2.5,3.1
				c-1.5,1.6-2.4,3.5-4.1,5.1l-0.1,0.6l-0.1-0.1c-0.6,0.1,0,1-0.7,0.9l-0.1,1c-0.2,0-0.5-0.1-0.7-0.1c0.3,0.9-1.1,0.9-0.6,1.6
				l-0.4-0.3c-1.4,1.6-1.5,3.6-3.3,4.1c0.5,1.7-1.9,2.4-1.4,4.1l-0.1-0.1c-2,0.9-1.5,4-3.3,4.7c0.5,2.3-2,3.7-1.9,6.2v0.6h-0.1v-0.1
				c-0.6-0.1-0.7,1-1,1.5c0.3,0.5-0.6,1.4-0.7,2c-0.1,0.1-0.4,0.3-0.4,0.5l0.2,0.4c-1,1.1-1.6,3.2-2.4,4.5l0.1,0.4
				c0,0-0.1-0.1-0.3-0.1c0.4,0.7-0.3,0.7-0.5,1.5c-0.2,0.8-1.1,1.6-1.5,2.6c-0.6,1.2-1.7,2.4-1.6,3.8c-1.1,0-0.9,1.1-1.6,1.5v1
				c-1,0.1-0.5,1.4-1.1,2c-1.1,1.5-0.1,2.1-1.7,3.2c0,1.6-1.8,2-1.7,3.5c-0.4,1.1-2.5,1.7-1.7,3c-0.5,0.4-0.8,1.6-0.8,1.6
				c0-0.1-0.1-0.1-0.2-0.1c-0.6,0.3-0.1,0.7-0.1,1c-0.6-0.1-0.4,0.5-0.6,0.7l-0.1-0.1c-0.4,1,0.1,1.6-0.5,2.7l-0.2-0.4
				c-0.6,0.5-0.1,2.1-0.9,2.6c-0.1,1-1.1,1.1-1.1,2.2c0.4,1-1.2,2.1-1.5,3.1c0,1.1-0.4,2.5-0.9,3.6l-0.1-0.3
				c0.4,2.1-0.5,2.2-0.7,4.5c-0.1,1.5-1.2,3.1-0.6,5.1l-0.6,0.4c1.5,0.4-0.3,1.7,0.4,2.2c-0.6,0.7-0.9,2.5-0.4,3.3
				c-1,1.2-0.1,2.6-1,3.5c0.3,1.1-0.5,2.6-0.6,3c1-0.1-0.3,1.1,0.9,0.4c-0.4,1-1.2,2-1.1,3.3c0,0.6,0,1.1-0.6,1.6
				c0.3,0.6,0,1.7-0.4,2.5c-0.4,2.2-0.5,5-1.2,7.1l0.3,1.6l-0.5-0.1c0.5,0.7-0.3,1.6,0.2,2.4h0.3c-0.6,1.1-1,2.4-0.1,3.5
				c-1.5,0.3-0.4,2.4-0.5,2.5c0,2.2-0.5,2.7-0.1,4.7c-0.3,0.1-0.1,0.5-0.1,0.6l0.6,0.4c-1.2,1-0.2,1.9-0.4,3.2h-0.1
				c0.3,1.2-0.5,3.2-0.1,4.5c-0.1,1.7-0.6,1.2-0.1,2.9c-0.6,0.2-0.1,0.6,0,0.9c-0.1,0.5-0.6,1.2-0.3,1.6h0.3c-0.1,0.3-0.7,0.7,0,1.1
				c-1.1,0.5,0.1,1.2-0.3,1.7c-1.1,2,0.8,4.1-0.5,6.2c0.4,0.6,0.3,1.5-0.3,2c0.1,0.1,0.4,0.1,0.5,0.1c-0.5,0.6-0.4,1.9-0.1,2.7
				c0.8,0.7-0.4,2.1,0.3,3.2l0.5,0.5C151.5,368.1,150.8,369.1,151.4,370z M602,382.6c-0.4-0.5,0.1-0.9-0.6-1.1v1
				C601.6,382.5,601.8,382.4,602,382.6z M535.2,232.7l0.3-0.6h-0.4c-0.7-0.4,0-0.6-0.7-0.9l-0.8,0.6
				C534,232.8,535.2,231.8,535.2,232.7z M458.3,170.1l-0.5-0.3l0.1,1.4h0.1C458.4,170.9,458,170.3,458.3,170.1z M453.3,159.9
				c0.1-0.3-0.3-0.5-0.5-0.7c0,0,0-0.1,0-0.1c0,0,0,0,0,0.1C452.9,159.4,452.9,160,453.3,159.9z"/>
		</g>
		<g>
		</g>
	</g>
</g>
</svg>
