<?xml version="1.0" encoding="utf-8"?>
<!-- Generator: Adobe Illustrator 22.0.1, SVG Export Plug-In . SVG Version: 6.00 Build 0)  -->
<svg version="1.1" id="Layer_1" xmlns="http://www.w3.org/2000/svg" xmlns:xlink="http://www.w3.org/1999/xlink" x="0px" y="0px"
	 viewBox="0 0 1000 1000" style="enable-background:new 0 0 1000 1000;" xml:space="preserve">
<style type="text/css">
	.st0{fill:#FFFFFF;}
</style>
<path d="M488.6,64.1c2.5,1.1,2.7-3.1,4.7-0.7c0.9,1.1,0,2.5,0.9,3.6c1.6-0.2,4.9,3.4,6.7,0.4c2.2,1.1,3.8,4.9,6.7,3.8
	c3.1,2,6.3,1.1,8.7,3.6c2-0.2,5.8,1.3,8.5,3.4c2,0,3.4,1.8,4.9,1.3v-0.7c0.9,0,1.3,2,2.5,0.9l0.9-0.9l-0.7,0.7
	c2,1.8,4.7-1.3,6.1,1.6c0.4,0.7,0.4,2,1.3,1.8l0.7-0.7c0.9,1.8,4.3,0.7,5.2,2.7c2-0.2,0.7-0.4,2.7,0.7c-0.4,0-0.4,0.7,0,0.7l0.7,0.9
	l0.7-0.7c1.6,2.2,4.5,2.5,6.3,3.6c2.2-2.5,1.3,1.3,3.8,0.9c2.9,3.6,8.3,1.6,10.5,5.4c2.2,0.7,3.1,0.4,5.2,1.8
	c4.3-1.6,6.3,4,10.1,3.6c0.7-0.2,2.7,2.2,3.6,0.4c4.5,2.7,9,4.3,13.4,7.2c2-1.3,2,2,3.8,2.2l2.7,0.4v-0.2c3.1,1.3,5.4,3.1,9.2,5.4
	l1.8-0.2c-0.2,1.1,1.1,1.1,1.6,1.3l1.1-0.2c0,0.2,0.2,0.4,0.2,0.4c0.2,0,0.7,0.2,0.9-0.2c1.1-0.2-0.4,3.1,2.5,2.7l0.9-0.2
	c-0.4,1.3,1.3,2,2.2,2l0.9-0.2c1.1,1.3,2.7,2,4.3,3.6c0.4-1.6,1.1,0.7,2,0c0.7,0.4,1.3,1.6,2,0.7c0.7,1.3,2,2.5,3.4,2.7
	c1.8,1.3,3.1,4.3,5.2,3.8c1.1,2.9,4,2,5.6,4.9l0.9-0.9c1.1,3.1,4,2.9,5.8,4c2.2,1.1,2.5,3.4,4.7,3.8c0.4-0.2,0.2-0.7,0.2-1.1
	c0.4,0.9,1.3,2.9,2.7,2l-0.2,0.2c2.7,0,4,3.1,6.5,2.5c-0.2,0.4,1.8,2.7,3.1,2.7c1.1-0.2,2.2,1.3,3.8,0.9v0.4c2,0.9,3.8,2.9,6.9,3.4
	c0.2-0.4,0.7-0.7,0.4-1.3c-0.4,2,1.8,1.6,2.5,2.7c1.6-0.4,2.7,2.5,4.9,1.3c3.1,1.8,6.1,3.6,9.6,3.6c0,1.1,1.3,0,1.8,0.7l0.7-0.4
	c0,0.2-0.2,0.4-0.2,0.4c2.9,0.4,6.3,6.1,11,4.9c0.9,1.6,4.3,1.1,5.6,3.6c0.2,0.2,3.4,1.1,4.5,1.6c3.1-0.2,6.3,3.8,9.9,5.4
	c2.5,3.1,7.2,2.2,9.6,5.8c1.1,3.6,5.4,2.2,7.4,4.3l0.7-0.4c1.1,1.3,3.1,2.9,4.7,3.8l0.7-0.7c0.7,2,1.8,1.1,3.1,2.7
	c2.7,0,4.5,3.6,6.9,4c0.2,1.8,2,1.3,3.1,2c1.1,0.9,3.6,2.7,4.7,4c0.4-0.2,0.2-0.7,0.2-1.1c0.7,0.4,0.7,2.2,2.2,1.6l1.8,2.2l-0.2,0.2
	c1.6-0.7,2.7,1.1,4.3,1.1c0,2.2,4.7,0.7,3.1,3.1c0.2,1.1,2.5,1.1,2.9,2.7c0.2,0,0.2-0.4,0.2-0.7c0.2,0.4,0.7,0.2,1.1,0.2
	c0.9,1.3,3.1,1.6,3.8,3.1c1.6,0.7,3.4,5.8,6.9,5.2c4,2.2,7.2,4.9,10.8,6.9H816c0.7,1.1,2.2,3.1,4,2.7c0.4,1.6,3.1,2.9,4.5,3.8
	c1.1,0.4,0.9,3.4,3.6,2.9c1.6,3.1,5.2,1.6,6.1,4.7h1.1l-0.2,0.2c0.2,1.1,1.6,1.1,2.5,1.6c0,0.7-0.2,1.3,0.4,1.6l0.4-0.4l-0.4,0.7
	c2,1.6,1.8,1.8,4.3,2c0.7,0.7-0.2,1.3,1.1,2h1.1c0,1.3,0.4,2.7,1.3,3.4l-0.7,0.4c7.2,3.1,12.1,13.2,18.4,17.3
	c4.9,5.8,12.3,9.2,14.6,14.8l0.4-0.4c0.4,1.8,5.6,4.9,5.6,8.3l6.1,7.2c-0.4,0.9,0.7,1.8,1.3,2.5l1.1-0.9v1.1c-0.2,0-0.4-0.2-0.7-0.2
	c-0.4,1.1,1.8,2,0.9,3.6c2.5,0.9,3.4,4,4.7,4.7l4.7,4.3c0.2,0,0.4-0.7,0.7-0.4l0.7,1.3l0.2-0.2l1.8,1.8l0.4-0.2
	c-0.7,0.7,0.7,0.9,0.2,1.8c1.1,1.3,2.7-0.7,4,0.4c-0.2,0.7,2,2.9,3.1,4.3l-0.2,0.2l1.8,1.8h-0.2c0,2.5,2.7,2.5,2.5,4.9
	c-0.7,2.9,3.8,7.8-0.9,9.2c0,0.2,0.4,1.3-0.2,1.8h-0.4c0.7-1.1-1.1-1.6-0.7-2.9h-0.9c0,1.8,2.2,5.6,3.6,6.7c1.1-1.1,2.2-2.9,4.5-2.2
	c0.9,2.5,0.2,4.5,1.8,6.5c-1.1,1.3-0.7,3.6,0.2,5.2c0.9-0.7,0.4,0.4,1.1,0.2c-1.3,4.7,2.5,4.7,1.3,9.6c1.6,1.1,1.8,2.5,1.8,3.8
	c-2,2,2.2,4.7-0.4,6.9v1.3l-0.2-0.7c-0.7,0.2-1.6,0.4-1.3,1.3c0,2.2,2,3.1,2,5.4c-0.9,0.7-1.1,3.4-2.9,2.7c0-0.4-1.6-0.9-0.7-1.6
	l-0.7-0.7c-0.4,0.2-0.2,0.7-0.2,1.1c-0.4-0.2-1.1,0.2-1.6,0.9l0.4,0.7l-2.5,2.2c-2.2-2.5-2.7-3.8-5.4-6.1c-0.4,1.3,0.4,3.1-0.9,3.8
	c-0.4,1.1,0.9,1.3,0.9,2.2c0.7,0.2,0.9-0.2,1.1-0.7c0,0.2-0.2,0.4-0.2,0.7c0.7,0.9,1.3,0.4,2.2,0.2c0.9,1.6,1.6,1.3,1.8,3.1
	c0.2,0.2,1.3,0.2,1.6-0.4l-0.2,0.2c2,1.6,3.6-0.9,5.4,1.1l0.9,2.7c-1.6,1.6-5.4-0.7-3.8,2.5l-0.7-0.7c-1.3,1.1-1.8,2-1.6,4.5
	c4.3,0.2,1.8,5.4,3.4,8.5v1.3h0.4c0,0.4,0,0.9-0.4,1.3c-2.9,0-3.4-3.1-4.9-3.8l0.2-0.2c-0.4-0.7-1.1-1.8-2-1.8
	c0.9-0.9-0.4-1.1-0.7-1.8c0.9-0.2,0.7-1.6,0-2c-0.4-1.3-2.2,0-2,0c-0.4-0.7-0.4-1.6,0.2-2c0.2,0.9,1.1,0.4,1.6,0
	c0.4-0.9,0.2-2.2-0.2-3.1c-0.4,1.8-4.7,0.7-2.9,2.9c-1.3,2.5-0.7,5.6,0,8.1l-0.9,0.9c0.7,0.9,1.1,2.9,2.7,3.4l0.2-0.2l0.2,0.2
	c0,0.7-0.9-0.4-1.3,0.7c0.2,0.4,0.9,0.2,1.1,0.2h-0.2c-0.9,1.6,1.6,1.3,2.2,2.5l0.2-0.2c2.2,1.1,0.7,3.1,1.8,5.8l1.6,3.6h-0.2
	c1.6,2.2-0.7,3.8,1.6,5.8c0.2-0.4,0-0.9,0.9-1.1c-0.2-1.1-1.1-3.6,0.9-3.4c0.9,0,1.6,1.1,1.3,2.2c-0.2,3.4,1.1,6.9,0.9,10.5
	c-2.2-0.4-0.7,3.4-3.4,2c0-0.4,0-0.7-0.2-0.9c-1.8,0.9,1.1,1.6-1.1,2.7c-0.2,1.3-0.2,3.4,1.6,4.3c0.7-0.4-0.2-1.1-0.2-1.6
	c0,0.2,0.9-1.3,1.8-0.9c2,1.6,0.7,3.6,2.2,5.2c-0.4,0.2-0.2,0.7-0.2,0.9l0.2,0.2l1.3-1.1v0.2l1.6-0.2c0.2-1.3-0.4-2-0.4-3.1
	l-0.9,0.4c-1.3,0.4,0,0.7,0-0.2c1.8-1.1-2-2.5-1.3-3.8c0.4,1.3,0.7-1.8,1.8-0.4l-0.4-2.2h0.2c-1.1-2,0-2.2-0.2-4.7
	c1.6-0.9,1.3,1.1,2.7,1.8c0.2-0.4,0.4-0.2,0.9-0.2c-1.1,1.1,0,2.7,0.4,4c1.8,0.7-0.7,3.6,1.3,3.8c-0.7,3.1,0.9,4,0,6.9l1.6,0.7
	l-0.2,0.4c0.4,1.1,1.8-0.2,1.6,0c-1.6,0.7,0.7,1.1,0.2,2l0.9,1.3l-0.4-0.4c0.2,1.1,0,2.9,0.4,4.3c0.7,1.6-0.9,4.9,1.8,5.2
	c0.2-0.2-0.7,1.8,0.4,2.5c0,0.4-0.2,0.9-0.7,1.3c2.2,1.1-1.1,1.8,0.9,3.1c-0.9,1.8-0.2,5.6-2.7,6.5c-1.1-0.7-0.2,2.5,0.2,2.7
	c0,1.8,4.9,3.1,2.9,6.1c0.9,0.7,0.2,0.7,0,1.3c-0.4,2.9,1.3,3.4,1.3,6.1c0.7,1.1-1.8,1.3-0.4,2.5l1.1,0.2l-1.3,0.4l0.7,1.3l1.1-0.4
	c0,0.9,1.6,2.5,1.3,4.3c1.1,1.8-1.8,2-1.8,2.9c0-0.2,0-0.7-0.4-0.7l-1.6,0.9c0.2-0.4-0.2-0.7-0.4-0.9H941c0.2,1.8-0.9,0.7,0,2.9h0.2
	c-0.7,0.2-0.2,1.6,0,2h0.2l-0.9,0.4l1.1,1.6l0.2-0.2c-0.9,0,0.7,1.3,0.9,2c0.9,0,1.1-0.7,1.6-1.3c-0.7-0.7,0.2-1.8,0.7-2.5
	c2.9-0.7,0.9,3.1,2.7,4l-1.3,1.3c-0.9-0.2-1.6-1.1-2-1.8l0.2-0.2c0-0.2-0.2-0.4-0.4-0.2c-0.2,0.2-0.9,0.4-0.9,0.9l0.4,0.4
	c-1.6,0.2,0.4,0.9,0.2,1.6c-0.4-0.2-0.7,0.2-0.9,0.4c0.4,1.8,0.7,3.4,1.6,5.2c0.7,2.9,0.2,4,0,6.7l0.7,2.5c-0.2-0.4-0.7-0.2-0.9-0.2
	c0.7,0,0,1.6,0.7,2.2c0.4,0.2-0.9,0.4-0.4,1.1l0.9,0.9c0.2-0.4,0.4-0.2,0.9-0.2c0.2,0.4,0.2,0.9-0.4,1.3l2.2,1.3
	c0.4,0.4,0.4,2.5,1.1,3.4c0,2.2,0,3.8-0.2,6.1l-2.5,0.4c0.4-1.1-0.9-2.2-0.9-2.9l-1.1-0.7l0.9-0.4c-0.4-0.2-1.3-0.9-1.8-0.2
	c-1.8,0.9,0.9,1.8-0.7,2.9l0.9,2.5c-1.1-0.7-1.6,0.9-2.5,1.1c1.8,3.1-2.5,7.6,0.4,11.2c-0.7-0.7-1.6,1.1-1.3,1.6
	c0.4,0.7,0.4,1.3,1.1,1.6c-1.8,1.8,2.2,4,0.9,5.2c-1.6,3.4,0.2,6.1-2.2,8.7c-1.8,0.7-1.1-1.3-1.8-2.2c2-1.6-0.4-4.9,1.1-6.3
	c-1.1-0.4-1.3,1.1-2.5,0.9l1.1,2.7l-0.7-0.4c0,2.2-3.8,0.4-2.5,3.6c-0.4,0.2-0.9-0.2-1.3,0.4v0.7c-0.2-0.4-0.7-0.7-1.3-0.4
	c1.6,2-0.7,6.7,3.1,6.5c1.6,0.4-0.2,2,1.3,3.1h-0.4v1.1c1.3-0.4,2-0.2,3.4,1.3c0,2.2,0.2,5.4-2.2,6.7c0.2,0,0.2,0.2,0.7,0.2
	c-0.7,1.8-1.1,1.3-0.7,3.1c-0.2,0.4-0.7,0.4-0.4,0.9c0.2,0.2,0.7,0.7,1.1,0.4l0.2-0.2l0.2,0.2l-1.8,0.7c-0.4,1.1,0.2,3.1,1.6,3.4
	c0.2-0.9,0.9-1.6,1.8-1.8c1.1,1.3,0.2,2.2,0,3.6c-0.4,0.2-1.8,0.7-1.3-0.4c0-0.4,0.2-0.9-0.2-1.3c-0.9-0.2-1.3,0.7-1.6,1.1
	c0.9,2.5,0.7,4.9-0.2,7.6l0.7,0.4c-1.1,0.2,0.4,1.3,0.2,2.5l-1.6,0.4l0.9,1.1l-0.2-0.2c-1.6,0.9-1.6,1.6-2.2,2.5
	c0.4,1.1,1.6,2,0.9,4c-1.6,1.1-0.9,2.5-2.5,2.9l-1.1-1.6c-0.7,4.5-5.2,6.9-5.4,11.4c-0.9,3.1-3.8,4.5-2.9,7.4
	c-0.4,1.1-2,2.9-1.6,5.2c-3.1,2.7-1.6,5.8-3.6,9.9c-0.7,0.4-0.9,2.5,0,2.2c-0.4,0-0.9-0.7-1.1,0l0.7,0.7c-1.3-0.4-0.9,1.8-1.3,2
	c-0.9,0.4,0.4,2.2-0.4,3.6l-0.7-0.2c-0.9,1.3-0.2,3.6-1.6,4c-1.3,4.3-1.6,4.7-4,9c-0.4,1.6-0.7,1.3-0.9,3.1l-0.2-0.2
	c-1.6,0.2-0.2,1.1-1.3,1.8l1.1,0.7c-1.6-0.2-2.5,2.2-3.8,3.1c2.5,1.1-3.1,3.4-1.6,5.2c-0.2,1.1-3.1,1.6-2.7,4
	c-1.1,0.2-1.8,1.1-2.2,2.5l-0.2,1.1c-1.8,1.8-4.5,3.6-4.9,6.7l-0.4-0.9c-1.3,2-3.4,3.6-3.8,5.2l-2.7,2.9l0.4,0.4
	c-1.8,0.7-1.3,2.7-3.4,3.1l0.2,0.2c-1.6,2.2-3.6,5.8-6.3,7.8c-1.8,3.1-3.6,6.1-6.1,8.7c-1.1,0.9-1.1,1.8-2.5,2.7l0.2,0.2
	c-0.2,0.4-2.9,1.6-2.7,3.1c0.9,2-2.2,2-2.9,3.6c-1.1,0.2-0.2,2.5-1.3,3.1l-1.8,1.8l0.2,0.2c-1.6,1.1-1.1,2.7-2.5,4
	c0,1.1,1.1,1.1,0.2,2c-1.1-1.8-1.8,0.7-2.7,0.9c0,0.4,0.4,0.7,0.7,0.9c-0.7,0.2-1.3-0.7-1.8,0.2l0.4,0.9c-0.4,0-2-0.2-2.2,1.1
	c-1.6,0.2,1.1,1.3-0.4,2c-2.9,1.3-4.7,4.7-5.8,7.6l0.7,0.4c-0.2,0.2-3.6,0.4-3.6,2.2c-0.4-0.2-0.4,0.2-0.7,0.4l0.7,0.7
	c-1.8,0-2.9,1.3-3.4,2.9c-2.2,0-0.9,2.2-3.1,3.1c-1.8,1.6-4.7,4.5-5.8,6.7c-2,0.7-2.7,2.7-4.5,4c-0.7,1.1-3.8,1.6-3.6,3.8l-0.4-0.9
	l-3.8,3.6c0,1.3-1.3,2.2-2.5,2.9c-1.6,2.7-4.7,2.5-5.4,5.4c-2.9,1.3-3.8,3.6-6.3,5.2v1.3c-0.2-0.4-0.7-0.2-1.3-0.2
	c-0.9,2.9-4.9,1.8-5.4,5.2c-2.7,2-5.4,5.6-8.7,8.1c-4.9,0.7-6.5,6.9-10.8,6.7c-2,3.8-6.1,2.7-8.3,6.7c-2.2-0.9-2,2.5-4,1.6
	c-1.3,3.4-4.5,1.1-6.1,4c-5.8,0.9-8.3,5.6-13.9,6.5c0.2,2-2.9,0.2-2.5,2.2c-2.2-1.8-3.1,2.7-5.4,1.1c-1.1,0.9-2.7,0.9-3.8,2.5
	c-1.3,0.2-2.5-0.2-2.9,1.3c-0.2-0.4-0.7-0.2-1.1-0.2l-1.1,1.6c-0.9,0.9-3.4-0.7-3.4,1.3l-2.5,0.2c-0.2,0-1.3,1.3-2.2,0.9l-6.1,3.1
	c0-0.4-0.4-0.4-0.7-0.7c-2,1.8-3.4,2-5.4,2.7c-0.9-1.6-2.2,0.2-3.1,0.7c-2,2.2-6.3,2.2-8.5,4c-3.6,0.9-6.9,3.4-10.1,4.7
	c1.8,0.9-1.1-0.9-1.6,0.7c-2-0.2-4.3,0.4-5.2,1.6l0.2,0.9c-3.1-0.2-4.3,2.2-8.3,2.9c-2,2.7-4.7,1.8-7.4,4.3
	c-1.8-0.7-2.2,1.8-3.6,1.1v0.7c-2.7,1.3-6.3,3.4-8.3,3.4c-1.1,1.6-5.2,3.6-7.6,4v0.7c-1.8,0-4-0.4-3.8,1.6c-2.9,2.5-4.3,2.7-8.1,4
	c-1.3-0.7-1.8,0.9-1.6,1.6c-0.4-2-2.5,0.2-3.8-0.2c-0.7,1.3-4.5,1.3-5.8,3.1c-5.4,0.2-9.6,3.8-14.6,4.3c-1.8-0.7-4,3.6-6.7,1.3
	c-0.7,0.9-2.2,0.4-2,2c-1.8-1.1-2,1.8-3.6,0.7c-2.7-0.2-2,2-4.5,2l0.2-0.4c-0.7-1.3-2,0.4-2.5,0c-0.2,0.9-0.7,0.7-1.3,0.7
	c-1.8-0.7-3.6,0.7-5.6,1.3l-0.7-0.9c-3.4,2.2-6.5,2.2-10.1,3.6c0-0.4-0.4-0.7-0.7-0.9c-5.4,0.7-9,3.6-14.8,3.6
	c-1.8,1.6-4.3-0.9-5.4,1.1c0-0.4,0.2-0.4,0.4-0.7l-0.4-0.2c-1.1,3.1-3.4,0.4-5.6,2.5v-0.9c-1.6-0.2-1.6,0.9-3.4,0.9
	c-2,1.3-4,0.4-5.4,1.8c-0.9-0.7-2.5,0.2-3.6-0.4l-1.1,1.1v-0.4c-5.4,0.2-10.5,4-16.1,3.1c0,0-0.2,0.2-0.2,0.4
	c-1.3-1.1-2.9,0.2-4.5-0.2c-1.6,1.1-5.4,1.1-7.4,1.8c-2.7-1.6-6.7,0.7-9.2,0.2c-0.2,0.2-0.2,0.7,0,0.9h0.9c0.2,0.4-3.6-1.3-2.7,0.9
	c-1.3-2.5-2.5,0.2-3.6-1.8c-3.1,0-5.4,2.5-9,0l-0.9,1.1l-1.3-0.7l-0.4,0.7c0-0.4-0.4-0.4-0.7-0.7c-3.1-0.4-5.8,1.1-8.7-0.7
	c0.2,1.3-1.6,0.4-1.1,1.6h-0.9l0.2-0.7c-0.7-0.9-1.8,0.7-2.9-0.2l-0.2,0.4c0-0.2,0-0.4-0.2-0.4c-0.9,1.3-2-1.3-3.1,0.4l-2.7-1.6
	c-2,1.3-4.7-0.7-7.2,0.7c-1.8-2.7-2.7,1.3-4.7-0.9c-1.3,1.8-3.4-0.2-4.7,0.4c-1.6-1.8-4.5,0.7-6.1-1.6c-1.1,2-3.1,0.4-4.3,0.4
	c-1.6-1.1-2-0.7-3.8-0.2c-1.1,0.9-1.6-2.7-2.9-0.9h-1.8c0.4,0,0.4-0.4,0.4-0.7c-2.9,0.2-5.2-1.6-7.8-0.9c-0.2-0.2-1.6-1.8-2.9-0.7
	l-0.4-0.4c0.2-0.7,0.9,0.7,0.9-0.4c-1.8-1.3-5.2,0.2-6.9-2.2c-1.8,0.2-1.1-0.2-2.5-0.4c-0.4,0.2-0.4,1.1-1.3,0.9
	c-1.1-1.3-3.1-1.8-4.9-2.7l-0.7,1.6c-3.4-2-4.5-4.5-8.7-4c-0.4-1.1-3.1-1.1-4.3-2.2c-1.3,0-3.4-2.5-6.1-1.6
	c-0.7-0.9-1.6-0.9-2.2-0.4c-0.2-0.4-0.2-0.9-0.4-1.1l-0.9,0.7c-1.3-4-6.9-1.6-9.6-5.4l-0.7,0.7c-0.7-2-2.7-1.8-4.7-2.9
	c-1.6-1.1-4,0.2-5.6-2c-2.2-1.8-6.1-2-8.1-4.7c-0.9,0.4-1.6-1.8-2.5-0.7c-2.2-2.2-4.5-0.7-6.3-3.6c-2.5,0-2.7-4-4.7-2.2
	c-1.6-2.5-3.6-0.7-4.7-2.7l-0.2,0.2c-0.4-1.6-5.2-2.2-5.6-4.5c-3.4-0.2-5.6-2-8.1-3.4c-4.3-0.9-7.6-4.3-12.1-5.8
	c-1.1-2.5-3.4-1.1-5.2-2.7c-0.4,0.2-0.2,0.4-0.2,0.9c-2-3.4-5.4-1.6-8.1-3.6c0.2-3.4-3.6-0.2-4.7-2.2l-0.4,0.7v-0.2
	c-2.2,0.7-2.9-1.6-4.9-0.4l0.4-0.2c-1.8-2.2-5.4-1.1-7.2-2.9c-1.6,0.4-2.5-2.2-4.3-1.6c-2.9-0.9-5.4-2.5-8.5-2.7
	c-0.9-1.8-2.7-1.6-4-2.9c-2,0.7-2.9-2-4.9-1.3c-0.4-2.7-3.1-2.9-4.7-3.8l-0.9,0.7c-0.4-0.4,0-1.6-1.1-1.8c-2,1.3-2-2.2-4-1.1
	l0.2-0.2c-1.8,0.2-1.6-2.5-3.4-1.8c-0.4-1.3-2.2-0.9-2-2.2c-0.9-0.9-2.7,0.9-2.2-1.3c-2.9-1.3-5.2-4.3-7.8-4.5H221l0.7-0.9
	c-2.7,0.4-1.6-3.4-4-1.6c0.2-2.9-4.3-4-5.4-6.3h-0.9c0.2-0.4-0.2-0.4-0.4-0.7c-0.2-0.2-0.4,0-0.7,0.2c-3.4-2.7-6.7-8.5-11.4-10.5
	l-0.2-2.5c-3.6,0.9-2.2-3.6-4.9-4c-0.9-2.5-4.5-2.7-5.2-4.7c-1.1-1.3-2.7-2.2-4-3.8l-0.2,0.2c-3.4-2.2-4.5-5.6-7.2-9
	c-1.3,0-2.5-2.2-3.1-2.9c-2.9-3.1-5.4-5.4-7.6-8.3c-2.5-1.3-2.7-5.4-6.3-5.4c0.4-1.1-0.9-2.5-1.6-2.7l-0.2,0.2l-1.3-1.8l-0.4,0.2
	c-2-4.5-6.1-8.7-9-13.2c-1.6-2.5-3.4-4.7-6.1-6.5c0.4-0.2,0.2-0.7,0.2-0.9h-0.7c0-0.7-0.2-1.1-0.7-1.3h-0.7l0.2-0.4
	c-2-2.9-4.7-4.9-6.3-8.5c-1.6-0.4-1.8-3.8-4-4.3c-0.9-2.5-2.7-4.7-4.5-6.3l-0.2,0.2c-1.6-5.6-8.3-7.8-10.1-13.7l-1.3-1.1
	c0.4,0,0.4-0.7,0-0.7c-1.8,0.7-1.6-1.6-2.9-1.6c0.7-0.7-1.1-2-1.3-3.6c-3.1-2-2-4-5.6-5.8c0.9-0.7,0.2-1.6,0-2.2
	c-2.2-1.8-1.3-3.8-3.1-5.6c-2,0.2-2-2.7-3.4-2.9l0.2-0.4c-0.2-0.2-0.9-1.1-1.6-0.4c0-2.7-0.7-5.2-2.7-6.7c0.9-1.3-1.8-1.8-0.4-2.7
	c-1.6,0.4-0.2-1.3-1.3-1.3c-1.8-0.4-0.7-2.9-2.7-4l0.2-0.2c-1.6-2.2-2.7-4.9-4.9-6.9c1.3-4.5-4.7-5.2-4.5-9.9
	c-2.7-5.2-3.1-10.3-6.3-14.3c1.1-2.5-2.9-4.3-1.3-6.3c-1.6-2.5-1.8-5.8-4-8.1c-0.2-2-1.6-5.2-3.4-6.7c1.1-0.9,0.2-2.7-0.9-2.9
	c-0.2-1.8,0.9-3.8-1.6-3.8c1.3-1.8-1.1-3.8-1.1-5.6l-2.5-6.1c1.1-2.9-1.6-5.8-1.8-9c-2.9-1.3,0.9-4-1.8-6.3
	c-0.4-4.3-1.3-7.6-1.8-11.7c-0.2-0.4-0.9-0.2-0.7-0.7l0.4-0.7c-0.7-1.8,0-5.2-1.1-6.9c-1.3-3.8-0.2-6.1-0.9-10.1h-0.7
	c1.1-0.7,0.4-3.1,0.7-4c-1.6-2.5,0.7-6.9-0.7-10.3c-0.4-7.8-1.1-16.1-0.2-24l-0.4-0.7c1.3-1.1-0.7-2.7,0.4-4c0.7-1.8,0-4,0.4-4.7
	l-0.4-0.4c1.6-2.7-0.2-4.9,1.1-8.1c0.7-2.7,0.9-5.4,0.7-8.1c0.9-0.7-0.4-2.7,0.4-4.7c1.3-1.8-1.3-4.5,0.7-5.8
	c-0.4-3.8-0.2-7.8,0.9-12.1c-0.7-3.6,1.1-7.4,0.7-11c0.4-2.7,0.7-6.1,2.2-8.3c-1.1-2.5,0.9-5.6-0.4-7.6c1.3-2.9,1.1-5.6,1.6-8.3
	c1.3-3.1,0.7-7.4,1.6-10.8c1.1-3.6,0.2-5.4,1.8-8.1c-1.1-2.2,2.7-4.3-0.2-6.3c1.1,0.7,1.3-1.1,1.6-1.8l-0.2-1.3h0.7
	c-0.7-2.9,1.6-4.7,0.7-7.8c0.2-3.8,2-6.3,1.6-10.3c1.3-1.6,0.9-5.8,2.5-8.3c0-4.5,1.8-7.2,2.7-11.2l0.2-3.6c1.8-0.4,1.1-3.4,2.5-4.7
	l-0.4-0.9c0.4,0.2,0.7,0.2,1.1-0.2c1.3-3.4,0-5.2,2.9-7.6c0.2-2.7,1.1-4,2-6.1l-0.2-1.8c2.2-0.2,1.1-3.8,3.4-4.9
	c-0.7-1.6,2-4,1.3-5.2l0.2,0.2c1.1-0.7,0-1.3,0.7-2.2c0.4,0.2,0.9-0.2,1.1-0.4c-0.9-1.8,2.5-3.4,1.3-5.8c2.2,0.7,1.3-3.4,3.6-3.6
	c-0.9-1.6,1.1-1.8,1.1-3.6c0.2,0.2,1.3-2.5,1.8-1.6c0.4-3.1,2.7-5.2,3.6-7.8c1.8-0.9,1.8-3.1,3.6-4.9c0-1.3-1.1,0.4-0.7-1.1v0.4
	c1.1,0.7,2-2.9,3.4-4.3c0.2-0.4-0.2-0.7-0.4-1.1l0.9,0.2c1.6-1.3,2.2-3.6,3.1-4.9c1.6-0.4,1.1-2.2,1.6-3.4c0,0.2,0.2,0.4,0.2,0.7
	c1.1-0.2,0.4-1.3,0.7-2c1.6,0.7,0.7-1.3,1.3-1.8h-0.2v-0.9h0.2c-0.2,0.4,0.2,0.7,0.4,0.9c2.2-5.2,7.8-8.5,10.1-14.1
	c1.3-2.2,4-5.2,4.5-7.2v0.2c3.1-1.3,3.1-5.2,5.6-7.2c0.9,0.9,0.9-1.1,1.6-0.9c-0.9-2,2.5-0.7,1.3-3.1c4-4.5,6.9-7.8,10.5-12.3
	c2.5,0.7,2-3.6,4.7-3.8l-0.4-0.9c2.2,0.2,2-2.7,3.8-2.9c1.1-0.7,3.1-0.9,3.6-2.9l0.4,0.4c2.7-0.7,1.1-4.9,4-4.7
	c0.7-2.7,3.8-2.9,3.4-6.1c0.2,0,0.4,0.4,0.7,0.7c0.4-0.4,0.2-1.1,0.2-1.8l0.7,0.7c2.2-0.7,1.6-4.5,4.3-4.7c0.9-0.4,0.4-2.5,2.2-1.8
	c0.7-1.6,0.4-3.6,2.7-3.8c0-1.8,3.1-2.7,2.2-4c2.7-0.2,2.2-2,3.8-3.8c0.7-1.1,2.9-1.3,3.6-3.4c-0.2-0.2-0.2-0.4-0.7-0.2v-0.7
	c0.2,0.7,0.7,1.1,1.3,0.9c-0.9-3.1,3.1-2,2.7-4.9c1.8-0.2,1.3-2.5,2.5-3.1c0-0.4,0,0.7,0.7,0.7c1.6-1.6,2-2.9,3.4-4.7V202
	c1.3,0.7,2.2-1.3,2.9-2l-0.4-0.7c0.2,0.7,0.9,0.2,1.3,0c-0.4-0.9,2-1.6,1.1-2.7c1.1,1.1,2.2-0.9,2.7-1.8v-0.7l0.2,0.4
	c3.8-4.7,7.2-7.4,11-12.5c3.1-0.7,4.9-4.5,6.7-6.3c0.2-0.2,0.4,0,0.7,0.2c0.2-0.4,0.7-0.7,0.4-1.1l-0.2-0.2c2,0,4.5-2.7,5.6-4.7
	c2.5-2.7,7.4-4,8.3-7.6c3.8-0.2,4.7-5.4,8.3-5.8c0.7-0.4,0.9-2.2,2.2-2c1.3-0.4,2.5-2.5,4-2.5c1.1-0.9,1.1-2.7,2.7-2.2
	c2.2-2.7,7.2-4.7,8.1-7.6c2.5-0.2,3.6-2.7,5.2-4l0.2,0.2c2.7-1.3,4-3.1,5.8-5.6c1.6-0.9,3.6-1.1,3.6-2.5c3.8-0.4,3.4-4.7,7.2-5.2
	v-0.4l0.4,0.2l5.6-3.6c-0.9-0.7,0.4-0.2,0.2-1.1l-0.9-0.2l0.4-0.2c0,0.9,1.3,0,2-0.4c2.7-1.6,4.9-2.9,7.6-5.2
	c0.2,0.4,0.7,0.2,1.1,0.2c0.4-2.5,4-1.6,4.3-4c1.1,0.7,2.9-0.2,2.9-1.8v-0.7c2.5,1.6,5.2-2.9,7.6-3.8c2.5-1.8,5.4-1.6,6.9-4.5
	c0.4,0,1.1,0.2,1.3-0.2v-0.7c1.3,0.7,2.5-2,4.3-0.9c0.7-2,3.8-1.6,4.5-3.6c3.4,0,5.8-3.6,9.9-4c4.3-3.6,9.4-2.9,14.1-5.6
	c1.6-1.3,4.9-2,6.9-2.5c0.4-1.1,2.2-0.4,3.1-1.3c0-0.7,2,1.3,1.8-0.4c2.7-0.7,5.2-2.5,8.5-1.8c3.8-2.5,7.6-0.2,11.2-2.9
	c1.6-0.2,2.5,0,4.3-0.2l0.7-1.6c2.7,3.4,5.2-2.5,8.5,0c2-0.4,4.5-0.2,6.1-1.3c0.7,0.2,1.8,0,2-0.9v0.9c0.4,0.2,1.6-0.7,2-0.2v-0.7
	c2,2.7,4.3-0.4,6.3,1.3c1.6-0.4,3.4-0.4,5.6-0.4c1.8-1.1,4-0.2,5.8,0.2c0.9-0.4,2.5-0.4,3.1-1.3c2.5,2,5.8-2.7,8.3-0.2
	c2-1.8,4.5,0,6.5-2c1.6,0.4,3.8-0.7,6.3,0c1.8-1.3,3.4,0.4,5.4,0.7c1.1,1.3,1.6,2.9,1.3,4.7c-1.8,2.2-3.4,6.1-7.2,5.8l-0.9-0.7
	l-4.7,1.3c0,0.2,0.2,0.2,0.2,0.7c-3.1-1.1-6.1-0.7-9.2-0.4c-3.4,1.3-5.2,3.1-9.2,2.7c0.7,1.8-1.6,2-2.9,2.2c-1.3-0.2-1.6-0.9-2.9,0
	v0.2c-1.1,0.2-2.5-0.7-3.1,0.9c-2.2-0.9-4.7-0.9-6.7,0c-1.3,2.5-2.2,2.2-4.5,3.1l-0.4-0.4l-1.3,1.1c-0.2-0.4-0.4-0.4-0.9-0.4
	c-0.4,0.4-0.4,0.9-0.4,1.3v-0.2c-2-0.4-3.1,1.6-5.2,1.1c-3.4,3.6-7.4,2.7-10.5,5.2l-0.4-0.7c-2.9,3.4-6.5,1.8-9.2,5.4
	c-0.7,0.7-1.8,1.3-2.5,0.4c-3.4,1.3-5.6,3.6-8.7,4c-4.3,2.9-7.6,6.1-11.9,8.5c-1.3,1.6-0.7,5.2-3.8,4c-0.2,0-0.7,0-0.7-0.2
	c-1.3,0.7,0,1.3-0.9,2l-2.5,1.1l0.2,0.2c-0.2,2.2-3.4-0.2-3.6,2.5c-0.2-0.2,0.2-1.6-0.7-1.6c-1.1,0.9,0.2,1.8,0.2,2.5
	c-0.9,0-2,0.9-2,1.8l0.2,0.2c-3.6,0.2-7.8,3.1-9.2,6.5c-2,0.9-1.8-1.3-2-2.5l-0.9,0.9v-1.3c-0.4-0.7-0.7,0.4-1.1,0.4
	c0,2.2-0.7,3.8-1.1,6.1c-2-1.1-5.2,0.7-6.7-1.3c-1.6-2.2-2,2-4.3,1.1c-1.1-0.2-2,2.2-3.8,1.8c-0.2,1.3,1.1,3.8-1.6,2.9
	c0.4,0.7-0.7-1.6-1.6-0.7c-1.3,0.9-2.9,2.2-4,3.4c-1.1-0.2-2,1.3-3.1,1.6c-3.1,4.7-9.2,2.7-11.2,8.1c-0.7-0.7-2.2,0.2-1.8,0.9
	l-0.2-0.2c-0.7,0-1.1,1.1-0.7,1.6l-0.4-0.4c-1.1,1.1-2.2,0.7-2.2,2.2c-1.1,0.7-2.9,1.6-3.6,3.4v1.1c-1.1,0-0.4-0.9-0.9-1.3
	c-2.2,0.9-1.8,3.1-3.8,3.4c-0.7,0.4-0.9,0.9-1.6,1.3c0.4,0.4,0.2,1.1,0.2,1.6c-3.4-2.5-2,3.6-5.6,3.1c-0.4,0.9-1.1,2-1.8,2.9
	l-0.4-0.9c-0.4,0.4-1.1,0.4-1.6,1.1l0.7,1.1c-4.5,2.7-6.7,5.4-9.4,9.2c-0.2-0.2-0.4-0.4-0.7-0.4c-1.6,0.9,0,2.7-1.8,3.1
	c0.4,4.3-5.4,2.7-4.3,6.3c-2.7,0.7-3.4,4-5.8,5.4l0.4,1.1c0,0.2-2,0.4-2,0.2c0.2,3.4-5.8,3.6-4.5,7.4c0.2-0.2,0.2-0.7,0.2-0.9
	c-0.2-0.2-0.7-0.9-1.1-0.2c-0.2,0.2-0.2,0.4-0.2,0.9l-0.2-0.4c-0.9,2-3.8,2.7-3.8,5.4c-0.9-0.4-1.8,0-2.5,0.7l0.2,0.7
	c-1.8,0.2-1.8,0.9-3.4,2c0,1.8-2,1.8-2.7,3.1c-2.2-0.4,0,1.6-2,1.3c0,2.5-3.8,3.8-4,6.1c-3.8,4.5-8.3,10.1-11.2,15.2
	c-1.8,1.6-4.3,3.4-4.5,5.6c-2.7,2.9-4.3,6.3-7.4,9.2l-0.2,1.1l-0.2-0.2c-1.1,0.2,0,1.8-1.3,1.6l-0.2,1.8c-0.4,0-0.9-0.2-1.3-0.2
	c0.4,1.6-2,1.6-1.1,2.9l-0.7-0.4c-2.5,2.9-2.7,6.5-6.1,7.4c0.9,3.1-3.4,4.3-2.5,7.4l-0.2-0.2c-3.6,1.6-2.7,7.2-6.1,8.5
	c0.9,4.3-3.6,6.7-3.4,11.2h-0.2h0.2v1.1h-0.2v-0.2c-1.1-0.2-1.3,1.8-1.8,2.7c0.4,0.9-1.1,2.5-1.3,3.6c-0.2,0.2-0.7,0.4-0.7,0.9
	l0.4,0.7c-1.8,2-2.9,5.8-4.3,8.1l0.2,0.7c0,0-0.2-0.2-0.4-0.2c0.7,1.3-0.4,1.3-0.9,2.7c-0.4,1.3-2,2.9-2.7,4.7
	c-1.1,2.2-3.1,4.3-2.9,6.9c-2,0-1.6,2-2.9,2.7v1.8c-1.8,0.2-0.9,2.5-2,3.6c-2,2.7-0.2,3.8-3.1,5.8c0,2.9-3.4,3.6-3.1,6.3
	c-0.7,2-4.5,3.1-3.1,5.4c-0.9,0.7-1.3,2.9-1.3,2.9c0-0.2-0.2-0.2-0.4-0.2c-1.1,0.4-0.2,1.3-0.2,1.8c-1.1-0.2-0.7,0.9-1.1,1.3
	l-0.2-0.2c-0.7,1.8,0.2,2.9-0.9,4.9l-0.4-0.7c-1.1,0.9-0.2,3.8-1.6,4.7c-0.2,1.8-2,2-2,4c0.7,1.8-2.2,3.8-2.7,5.6
	c0,2-0.7,4.5-1.6,6.5l-0.2-0.4c0.7,3.8-0.9,4-1.3,8.1c-0.2,2.7-2.2,5.6-1.1,9.2l-1.1,0.7c2.7,0.7-0.4,3.1,0.7,4
	c-1.1,1.3-1.6,4.5-0.7,6.1c-1.8,2.2-0.2,4.7-1.8,6.3c0.4,2-0.9,4.7-1.1,5.4c1.8-0.2-0.4,2,1.6,0.7c-0.7,1.8-2.2,3.6-2,6.1
	c0,1.1,0,2-1.1,2.9c0.4,1.1,0,3.1-0.7,4.5c-0.7,4-0.9,9-2.2,12.8l0.4,2.9l-0.9-0.2c0.9,1.3-0.4,2.9,0.4,4.3h0.4
	c-1.1,2-1.8,4.3-0.2,6.3c-2.7,0.4-0.7,4.3-0.9,4.5c0,4-0.9,4.9-0.2,8.5c-0.4,0.2-0.2,0.9-0.2,1.1l1.1,0.7c-2.2,1.8-0.4,3.4-0.7,5.8
	h-0.2c0.4,2.2-0.9,5.8-0.2,8.1c-0.2,3.1-1.1,2.2-0.2,5.2c-1.1,0.4-0.2,1.1,0,1.6c-0.2,0.9-1.1,2.2-0.4,2.9h0.4c-0.2,0.4-1.3,1.3,0,2
	c-2,0.9,0.2,2.2-0.4,3.1c-2,3.6,1.3,7.4-0.9,11.2c0.7,1.1,0.4,2.7-0.4,3.6c0.2,0.2,0.7,0.2,0.9,0.2c-0.9,1.1-0.7,3.4-0.2,4.9
	c1.3,1.3-0.7,3.8,0.4,5.8l0.9,0.9c-0.4,0.7-1.8,2.5-0.7,4c-0.7,3.1-1.1,6.3,1.3,10.1c0.4,1.1-0.9,1.3,0,2.5l0.4-0.2
	c-0.7-0.2,0.2,0.9-0.9,1.1l0.2,0.7h-0.4c-0.4,2,1.8,2,0,3.8c0.7,2,0.7,3.6,1.1,5.4c-0.4,0-0.4,0.2-0.7,0.2c2,2.2-0.7,5.2,1.3,7.6
	c-0.4,1.6-1.3,2.7-0.4,4l1.3,0.9c-0.9,0.4-0.7,1.6-0.2,2.2l0.7-0.2c-1.3,0.7,0.2,1.8-0.2,2.5c0.4-0.2,0.4,0.2,0.9,0.4
	c-0.7,3.8,0.2,6.1,0.9,9.2c0.4,1.1,1.6,4.9,2.2,6.7c0.7,0.7,0.4,2.5,1.8,2.2c-0.2,4.5,2.5,7.6,4.9,10.5c-0.2,0-0.4,0.2-0.2,0.4
	l0.4,0.4l0.7-0.4c-2,2,2.7,2.5,0.9,4.3c-0.7-0.2,0.4,1.8,1.1,1.1c0,1.1-0.4,2.7,1.3,2.9c0.4,1.8,2,3.8,2.9,5.4c0.7,2,1.8,2.5,2.5,4
	c1.1,3.1,2.2,5.8,3.8,8.1c0.2,1.8,1.3,3.6,1.8,5.4l1.3,1.1l-0.4,0.4l0.9,0.9c-0.4,0-0.4,0.2-0.7,0.2c2,0,0.2,2.2,2.5,2.7
	c0.9,3.4,3.1,7.8,5.6,11c-0.7,1.6,0.2,2.2,0.7,3.8c1.1,2.2,4,3.4,4,6.5c2,1.1,2.9,3.8,4.5,5.2l-0.2,0.2c1.1,0,1.8,4.9,4,2.9
	c-1.3,2,2,2.7,2,4.3c1.3,1.6,2.5,3.1,3.4,4.9c4.9,2.5,4.5,6.9,8.7,9.6c0.2,0.4-0.2,1.1,0.4,1.3h0.7c-0.4,1.3,1.1,2,1.1,2.9
	c1.8,0.9,2.5,4.7,4.5,5.2c-0.7,1.6,2.5,2.7,3.4,4.3h0.7c-0.2,0.9,0.9,1.1,1.3,1.1c2.2,2.2,3.1,5.2,5.2,6.7c0.2,0,0.4-0.2,0.2-0.4
	c-0.2,0.2-0.2,1.1,0.7,1.8c0.4-0.7,0.2,1.6,1.1,2l0.9,0.9l0.4-0.2c1.8,2.5,4.3,4.3,5.6,6.5l1.8,1.8l0.2-0.2c0.2,1.6,2.7,3.4,4.7,4.9
	c0.2,2,3.1,3.6,4,6.1l0.7,0.7l-0.2,0.2c3.6,4.3,6.7,9,9.6,13.2c2.7-0.4,1.3,1.8,3.1,2c0.7,1.1,0.4,2.2,2,3.4
	c1.3,2.2,3.6,3.8,5.6,5.2c0,0.2-0.2,0.7-0.2,1.3l1.3,0.4l-0.2,0.9c0.4-0.7,1.8,1.1,1.6-0.7c0.4,2.2,1.8,3.4,3.8,4l0.2-1.3
	c0.4,0.9-0.4,2,1.1,2.7l0.9-0.2c0.9,3.4,4,5.2,5.8,7.8l1.6,0.4h-0.2c0.2,0.7,2.5,1.3,2.5,2.9l0.2-0.2c-0.4,0.2,1.1,1.6,1.8,0.9
	c-0.2,2,3.1,1.8,3.1,3.4c2.2,1.6,1.8,2.7,4.3,4c1.6,1.1,4.7,2.9,6.9,4l0.9-0.4c0.7,0.4,0.7,2.5,1.8,1.3c3.1,3.4,8.3,2.5,11.7,6.5
	c2,0.4,4.9,0.9,6.1,1.8c1.3-1.3,0.9,1.8,2.2,0.2c3.8,0,6.3,1.1,10.1,1.1l0.9-0.4c2,2,6.9,1.6,9.4,2.5c1.8,0.4,4.5,1.6,6.5,1.6
	c1.8,0.7,4.3,0.7,6.1,2.5c1.1-2.2,3.6,2.9,4.7,0.9c1.8,1.6,3.4,1.6,5.2,3.1c2.2,0,5.2,3.1,7.6,3.4c0.2,0.2,0.4,2,2,1.6l-0.2,0.4
	c0.7,1.3,1.6-0.7,2.2,0.4c1.8,2.2,4.5,2.5,6.7,3.8c0.9,2,4,2.2,4.9,4c2.2,0.7,4.9,2.9,8.5,4c0.4,0.9,2.5,1.8,3.4,1.3v-0.2
	c0.7-0.4,1.1,2.5,2.7,1.6c0.4,0.9,3.8,2.7,5.6,2.5c0.9,0,1.6,2,2.7,1.3c0.2,1.6,1.3-0.2,2.2,0.7c-0.7,1.6,1.3,0.7,1.8,1.3
	c2.7,3.1,7.6,2.7,9.6,4.7c3.1,1.1,7.6,2,10.1,4c0.9-0.7,1.1,2.2,2.2,0.4c-0.4,0.4,0.9,0.9,1.3,1.3l0.9-0.9c1.1,0.9,2.2,2.9,3.8,1.3
	c0.9-0.2,0.9,0.7,1.3,1.1c5.6,2.5,10.8,2.7,15.9,5.2l1.8-0.4c0.2,2.5,2.9,0.7,4.3,1.6l0.7-0.9c0.4,1.8,2.7,0.9,3.4,2
	c6.3,0.7,9-0.7,14.6,0.9v0.4c1.3,0,3.1,0.4,4.5,0l-0.4-0.9h1.3l-0.2,0.2c0.7,1.3,2.2,1.3,3.4,1.1l0.9-0.9c0,1.3,2.2,0.9,4,1.3
	c1.8-0.9,4.3-0.2,6.5-0.4c1.1-0.2,2.9,0.2,4.3-0.2c2.7,0.4,5.2,1.1,8.1-0.2c0.9,1.8,2-0.7,3.1,0.2v0.2c1.3,0,2.5,0.2,3.8-0.9
	l-0.9,0.7c3.1,1.1,5.8-1.1,8.7-0.7c0.2-0.9,1.8,0,2.5-0.7c1.6-0.7,6.5-0.7,9.9-0.7c0.4-1.8,2.9-0.7,3.8-1.8c1.3,1.3,2.7-1.6,4.3-0.4
	c0.4-0.9,2.7-2.5,2.7-1.1l0.4-0.7c0,0.9,0.9,0.4,1.3,0.7c1.3-0.2,2.9-2,4-0.7c3.8-0.2,6.1-2.5,8.5-3.1c0.2,0.7,0.9,0.4,1.6,0.4
	c0.7-2,2.9,0.9,4.3-1.3l1.3-0.7c-0.2,0-0.2,0.4-0.2,0.7c0.7-0.9,2.2,0.4,2.9-1.3c-0.2,0.2-0.2,0.4-0.2,0.7c1.3-0.2,2.5-0.7,4-1.1
	c1.1,0.7,2.5-1.6,3.1-0.4c1.3-1.3,2.7,0,4-1.1V846c-0.2,0.4,0.4,2,1.3,2.2c3.4,0.2,4.7-3.1,8.1-2.2c1.1-1.8,3.1-0.7,3.6-2
	c1.6-0.2,2.2-0.2,4.3-0.7c1.3-0.2,2.2-1.8,3.6-1.1c0.9-1.1,3.1-0.7,3.4-2.2c1.1,1.3,2-0.2,2.9-0.4V839l0.9,0.9
	c0.9-0.7,0.4-1.6,1.3-2c-0.2-0.4,1.8,1.1,2.2-0.2c0.4-3.1,3.6,0.2,4.7-1.8c0.9-2.2,3.4-1.3,4-3.1c2.2,0.2,4-2.2,6.5-2.9l0.4-1.3v0.2
	c2.9,0.2,8.1-3.1,10.1-4c2.7,1.3,3.1-3.6,5.4-1.6c2.5-1.8,5.6-2,7.4-3.8c3.8-0.2,6.7-3.6,10.3-3.6c0.2-1.8,2,0,1.8-1.8
	c1.6,0.4,3.6-0.2,4.7-0.7c1.1,0.7,1.6-0.9,2.5-1.1c1.1-0.4,3.6-0.9,4-2.2c0.2,0.2-0.2,1.1,0.7,1.1c0.4-0.2,0.2-0.7,0.2-1.1
	c2.5,1.3,1.8-3.4,4.5-1.3c0.4-0.2,1.1-0.2,1.6-0.9l-0.2-0.9c0.2,0.9,1.8,0.2,2.7,0.4l0.7-1.3c0.2,0-0.7,1.1,0.7,0.9
	c0-2.2,1.1,0.2,1.8-1.6c3.1,1.3,3.8-1.8,7.2-1.1c1.1-1.8,3.4-2,4.9-2.5c2.7-2,6.3-2.5,9-4.3c1.8-0.2,2-1.8,4.5-1.6
	c0.4-0.2,0.2-0.7,0.2-0.9c1.1,0.9,1.3-2,2.5-0.2c1.1-2,3.6-1.3,4.3-2.7l0.7,0.4c0.7-0.2,0.2-1.1,0.9-0.9c1.6,0.9,2.2-1.6,3.8-2
	c3.6-0.9,6.1-2.2,9.2-4c1.1-2.2,4.9-1.3,4.9-4.5l0.2,1.1c0.7-0.7,2.9-0.7,3.4-2.5l0.4,0.2l2.7-2.2v0.4l2.7-2.5l-0.7-0.7
	c1.1,1.6,1.6-0.4,2.7-0.2c2.7-4,5.4-3.8,9-7.4c3.1-1.6,6.1-5.6,7.2-7.6c0.4,0,0.9,0.2,1.1-0.2v-0.7c0.9-0.2,2.2-2.2,3.8-2.7
	c2-2,2.9-2.7,5.6-2.7c1.1-2,1.8-3.4,3.6-4.7l0.2,0.2c0.4-2.7,4.7-3.1,5.4-5.8c3.1-1.1,5.6-5.6,8.5-8.5c1.1-1.1,3.4-2.2,2.9-4.3
	c3.6,1.1,4.3-4.7,6.5-5.4c0.4-2.2,3.1-1.6,2.2-4l1.1,0.9c1.1-0.9,1.3-3.1,2.2-3.4c1.8-1.3,4-5.4,5.4-7.6c-0.2,0.2-0.7,0.4-0.4,0.9
	l0.2,0.4c1.1-0.4,1.1-1.6,1.1-2.5l0.4,0.4c0-1.3,1.6-2,2.7-2c1.6,0.2,2.5-0.7,3.8-1.3c-2-0.9,1.6-2.5,0.2-3.8c1.1-1.3,0.2-2.9,1.8-4
	c0.9-0.2,2.7-0.7,4-0.9l-0.4-0.7c2.7,1.8,2.5-2,4-3.1c0-0.2,0.2-0.7-0.2-0.7c2.2-1.6,5.4-3.8,6.3-6.1c2.7-3.1,0.9-7.8,4.5-10.1
	c2.5-1.6,1.8-4.7,3.8-6.5c0-3.1,1.8-2.7,2.7-5.4c0.7-0.7-0.4,0.4,0.2,0.4c1.3-0.2,1.1-1.6,1.6-2.2c1.8,0.4,0.9-1.6,1.8-2
	c-0.7-1.3,0.9-1.8,1.6-2.7l-0.7-0.7c2.7-0.9,3.8-4,4.9-6.7c-1.3-2.9,2-2.9,2.7-5.8c-0.2,0-0.2-0.2-0.4-0.2c0.2-1.6,1.3-3.1,0.9-5.2
	c0.4,0.2,0.7-0.2,0.9-0.4l-0.2-1.3c1.8-0.4,0.7-3.4,1.6-4.3c0.2-3.8,2.7-6.5,2.5-9l0.2,0.2c2.2-1.1-0.4-2.2,1.8-3.6
	c-1.1-2,2.7-3.1,1.3-5.4c1.6-3.6,3.4-8.1,6.1-10.3c0.7-0.9,2.2-5.6,2.5-8.3c4.3-2,0.7-6.3,4.7-8.3c-0.9-2.2,2-1.1,1.3-3.4h-0.7
	c0.7,0.2,0-1.3,0.7-2c-1.1-3.1,3.1-3.6,1.1-6.5c3.6-4.9,3.1-8.5,4.5-14.1c1.6-0.7,1.6-3.4,1.3-4.7c0.7-2.9,2.5-4.7,2.2-6.9
	c1.1,0.2,0.9-1.3,0.4-2.2c-1.6-0.2,0.7-3.1-0.2-4.5l0.9-0.7l-0.7-0.4c3.4-1.3-0.7-5.6,1.3-7.8c0-1.8,1.8-4.7-0.4-5.6
	c2.5,0.2,0.9-2.5,1.6-3.6c0-0.7-0.9-0.9-1.1-1.6c1.1-3.6,0.7-5.8,1.1-10.3l-0.4-0.2c-0.4-3.4,0.9-5.8-0.2-8.7
	c1.1-1.1-0.2-4.7,0.2-6.7h-0.7c0.7-3.8-1.3-9,0-13c-1.6-1.8-0.4-4.5-1.6-7.8c0.4-2.7-2.2-5.6-0.7-8.7c-0.9-0.4-0.7-1.6-0.4-2
	c1.3,0.4,1.3-0.7,1.3-1.3c-0.4,0-2.7-0.7-1.6-2c1.3-0.4,0.9-1.3,0.7-2.2l-1.3-0.4l0.7-0.9c-0.7-1.6-0.7-2.9,0-4.9
	c-0.2-0.4-1.3-1.1-1.3-2c0,0.4,1.1-1.1,0-1.6c0.2-2.5,1.3-6.3-1.1-7.8c0.7-1.6-0.4-4.3-0.4-6.1c-0.2-0.2-0.4-0.2-0.9-0.2
	c0.4-2.2,0.4-3.1,0-5.4l-0.4-0.4c0.7-0.4,0-1.3-0.2-1.3h0.2c-0.9-2,0-3.4-1.1-5.4c-0.4-0.9-0.9-3.4,0-4.7c0-1.6-1.8-2.5-1.6-4.3h0.2
	c-1.1-3.1,0.2-7.6-3.1-10.5c0-0.9,0.2-1.8-0.9-2.2l-0.7,0.2c1.6-0.2,0.2-2.2,0-2.9c-0.9-1.1-0.4-3.6-2-4.5c0-1.6-0.4-3.4-1.1-5.4
	c-2.7-2.7,0-7.2-3.1-9.6h0.2c-0.9-2.9-2.2-5.4-4.5-7.4H857l0.9-0.7c-5.4-4-4.5-9.9-10.3-13.2c2.5-4.3-4.3-2.7-3.4-6.9
	c-0.4-2.5-3.6-1.6-3.1-4.5c-2.2-2.7,0.7-9.2-4.5-8.7c-1.6-1.3-3.6-2.5-3.6-4.3c-1.3-0.2-1.1-1.3-1.8-2.5c0.2,0,0.7-2-0.4-2.2
	l0.4-0.7c-0.2-0.2-0.4-0.2-0.9-0.2c1.6-0.4-0.4-1.8,0-2.2c0.4,0.2,0.4,0,0.7-0.2c-0.2-0.7-1.1-0.9-1.6-0.2l0.2,0.2l-0.9-0.2
	l-0.4,1.6c-0.9,0.4-2-0.4-2.7-1.1c0.4-2.7-2.5,0.7-2.5-2.2c-2.9-1.8-4.9-5.8-7.8-8.7c0-1.8-0.2-4.5-2-5.2l0.7,0.4
	c1.6-1.3-1.6-1.1-1.3-2.2l-0.2,0.2c1.8-0.4-1.6-2.2,0.9-2.9c-1.8-0.9-1.3-5.2-4-4c0.2-0.7-0.4-1.1-0.9-1.6c-1.6,0.7-2.7-0.2-3.8-1.1
	c-0.2-1.8-1.3-4-3.1-4.9l-0.7,0.7l-0.2-1.3c-2,2.7-2.5-1.6-4.7-1.6c-0.4,0.4-0.9,0.4-1.3,0.4l-3.4-4c-0.4,0.9-1.1,2.5-2.5,1.6
	c0.4-1.8-1.6-1.8-0.7-3.4c-0.7-0.4-1.8-0.2-2.7-0.4c1.8,0.2,0.2-1.3,0.7-2c-1.6-1.1,1.3-2-0.4-2.9c0.2,0,0.4-0.2,0.4-0.4l-0.7-0.4
	c-0.2,0.7-1.3,1.3-0.9,2.2c-1.1,1.8-3.6,0.9-5.4,0.7l0.2-0.4c-1.8-0.4-2.7-2.7-4.7-2c1.3-2-0.4-4.7-0.2-6.9c-1.1-0.9-2-2.5-3.4-2.5
	h-0.7c-0.7-0.9-4.3-2-4-4.3l0.4-1.3c2,0.2,4.3,2,5.6,1.3c-0.9,2,2.2,2.2,2.9,3.4c2.5-0.4,3.4,1.8,5.4,1.3c0.9,0.2,2.5,1.8,2,2.9
	c-0.4,1.6,1.6,1.3,1.1,2.7l1.6,1.8l-0.7,0.7c1.8-0.7,1.1,1.1,2.7,0.4c0.2-0.9,1.1-1.8,0-2.5c2,0,0.4-1.1,0.7-2l-1.3-1.3
	c0.2,0,0.7-0.2,0.7,0.2c1.3-2.2-0.9-4.7-1.8-6.7c0.2-0.7,0.2-2.2-0.4-2.7h-0.9v-0.9c-0.9-0.4-1.8,0.2-2.7,0.2v0.7
	c-0.4,0-1.1-0.2-1.6,0.2v0.4c-3.8,0.4-3.4-5.6-7.8-4.5c-3.1-1.6-6.1-3.6-9.4-5.2c0-1.8-6.9-4.7-2.2-6.9c-1.1-0.9-0.9-1.3-1.8-2.2
	c1.3-2-2.2-3.1-1.1-5.4c-1.6,0.2-3.8-2-5.4-1.3c-0.7,0.9-0.7,2.9-1.1,3.6c0,0.4-0.7,1.3-1.3,1.1c-1.3-0.2-4.3-1.3-3.4-3.4l-0.9-0.4
	c0.9-1.1-1.3-1.8-1.6-2.9l0.4-0.7l-0.4-0.4h1.6c0.9-1.6-1.1-1.3-1.8-1.8l-0.2,0.2l-1.1-2c-1.3,0.4-1.6,2.9-3.8,2
	c-3.4,0.2-3.4-4.7-6.7-4.7c-1.6,0-3.4-1.8-4.9-0.9c0.2-1.1-0.9-1.1-1.6-1.8l-0.2,0.4c-0.7-0.7-2.5-1.6-2.5-2.7
	c-0.2-2.5,3.1-0.2,3.8-1.8h0.2c-0.9-1.3-4-2-4.7-4l-1.8-1.6l-0.2,0.2c-0.4-0.4-1.3-1.1-2-1.3l-0.7,0.7c-0.9-2-3.1-1.6-4.5-1.6
	c0-0.4-0.4-0.7-0.7-0.9c0.2,0.4-1.3,1.3-0.7,2.2l1.1,2.7c-1.1,0.9-2,0-3.1,1.3c-2.5-0.9-4.3-2.9-4.9-5.2l-1.3-1.3
	c-1.8,1.6-4.5-2.5-5.4,1.3c-3.6,0-2.5-2.5-5.8-2.9c-0.9-2.2,1.6-1.6,2.2-2.7c1.1-0.4,1.8,1.3,2.5-0.4c-0.4-2-3.6-0.2-3.4-2.2
	c-2.5,0-4.3-2.7-5.8-2.2c-1.1-0.9-2.5-3.6-5.2-2.9c-0.4,0.2,0.4,0.9-0.4,1.1c-1.1,0-1.3-1.6-2.5-1.8l-1.1,1.8
	c-0.4-0.4-3.4-2.5-2.9-3.8c-2.9,0.2-1.3-2.9-4-3.4c-1.3-0.9-1.6-6.1-4.3-3.1c-0.4,0.9-2,2-1.6,2.9c1.3-1.8,2.5,1.1,3.4,1.6
	c1.1,0.7,0.4,2,0.7,2.7c-0.9,1.3-2,0.7-3.4,0.4c0-2-2.9-1.8-2-4c0.2,0,0.4-0.4,0.7-0.7c-0.4-1.1-0.9-2.7-2-3.4l-0.7,0.4
	c-1.1-3.1-4.3-1.3-5.2-4.3c-2.5-0.9-2.7-3.8-4.7-4.9l-1.1-1.8l-0.4,0.7l-1.3-1.3l-0.7,1.1c0.4-0.9-1.3-2.2-2-2c0-1.1-4-0.9-3.6-3.1
	c-2.2,0.7-2.5-3.6-4.5-2c-2.5,0.2-0.4-5.6-3.4-3.6c-2-1.8-4.5-1.3-6.7-3.1c-2.2-1.3-5.4-3.1-6.9-4.3c-0.2-0.4-0.7-0.9-1.1-0.7
	l-0.4,0.9c0-2.2-2.5-1.6-3.8-2.5c-1.1-0.4-0.9,2.2-2.2,0.4c-0.2-0.7-1.1-4.3-3.6-4.7h-0.7l0.2-0.2c-1.8-0.9-4.5,0.4-6.1-2v-0.7
	c-3.4,0.9-5.8-2.5-9.4-2.7c-0.2-1.3-1.3-0.4-1.3-1.1c-0.4,1.8,0.9,4-1.1,5.4c-2.7-0.4-1.8-3.8-2.5-5.6l-1.1,0.7
	c-0.2-1.8-2.7-1.8-3.1-3.4c-0.9,1.1-2.5,0.9-3.1,0.9c0-1.1-2.5-1.1-3.1-2.7l-2,0.9c0.4-0.2,0.2-0.7,0.2-1.1
	c-0.2-0.4-0.7-0.2-1.1-0.2l-0.4,0.9l-0.7-1.1c-0.2,1.8-2,0.7-2.2,2c-3.1-0.4-0.9-4.9-4.7-3.6l0.7,0.4c-1.6-0.4-4.9,0.4-4.5-2.9
	c-1.6-0.2-2.2-1.6-3.1-2.7c0.9-1.6-1.6-2.5-2.2-2.7c-0.7-0.4-0.7,0.9-1.3,1.1c1.3,0.2,1.1,2.2,0.9,2.9c0.7,0.9-2,1.6-1.1,3.1
	l1.1,1.3l0.9-0.4c0,0.7-0.4,1.3,0.4,2c2-0.7,3.8,2.9,6.3,2c0.2-0.2,0.2-0.7,0.2-0.9c-0.2,0.9,1.1,1.3,1.8,1.6
	c1.8-0.4,3.6-1.3,4.9-0.4c0.4,1.8,2.5,0.9,2.5,2.7c2.2-0.4,0.9,4,4,3.8c1.6,4,6.5,1.3,9,4.5c1.3,0,2.2,2.7,4.5,1.1
	c1.1,0.2,2,1.8,3.4,1.1c0,1.6,3.4,2,3.4,3.8c1.3-0.7,2,1.6,3.1,1.8c2.2,2.9-2.5,5.4,1.1,6.7c1.1,2.5,6.1,1.1,5.8,4.9
	c-2.7,1.3-2.7-2.2-5.6-1.8c-0.9-3.4-5.2-1.8-6.7-4.5c-2.2-0.7-3.1-0.7-4.3-2.9l1.3-2.2c-2-2-4.7-3.6-6.9-2.9
	c-0.2,1.1,1.6,1.1,0.7,2.5c-2,0.9-3.4-1.8-5.4-2.2l-0.2-1.6c-3.6,1.6-3.6-5.4-8.1-4c-1.8,0.4-2,0.4-3.6-0.4c-1.1-1.8-1.8-3.1-4-4.7
	c-0.9,0.7-1.1,2.2-2.9,1.6c-1.1-3.4-1.6-3.8-4.7-5.8l-2.2,2.2c-0.9-0.7-2.2-1.8-2.5-2.7c-2.2,0.9-2.5-2.7-4.7-2.5
	c1.6-3.6-4.3-4.9-0.9-7.4c0-0.4,2.5,0,1.8-1.6c-1.8-0.2-0.4-2.5-2.7-2.7c-0.4,0.9-0.9,1.3-2,1.1c-0.2-1.1-1.8-1.8-2.2-2.9
	c-0.4,0.9-2,0.4-2.9,0.2c-0.9-2.2,1.8-3.6-0.2-5.6c1.1-0.9,2.2-3.4,4.3-2.2c0.7-1.3,1.1,0.7,1.8,0.2c-0.4,0-0.2,2.7,0.9,3.4
	c0,0.4-0.2,1.1,0.2,1.3c4.3-1.3-0.4-4.5,0.7-6.1c-2.5-0.9-4.3-3.1-5.8-4.3c0.2-0.4-0.4-0.4-0.2-1.1c-2.2,0.9-2.9-1.1-4.5-2l-0.7-1.3
	h0.4c-0.7-2.7-2.9-3.8-5.8-4.7c-0.9-1.1,0.7-2.5-0.7-3.4c-0.2,0-0.4-2.5-1.6-1.6c-2.7-4-7.4-6.7-10.3-10.8c-2.7-1.3-5.4-4.5-6.7-6.5
	c0.4-0.9-0.4-1.1-1.1-1.3c-0.4-0.2-0.4,0.2-0.7,0.4c-2-0.4-0.7-2.9-2-3.8c0.2-0.9-0.2-1.8-1.1-2.2c-2,1.1-1.3-2.7-3.1-2.2
	c-4-0.9-5.8-6.5-9.6-7.6c0.2-1.3,1.1-2.7-0.9-3.4h-0.4l-0.2-2.5l-0.9,0.2c-1.3-2.2-3.6-3.8-5.8-5.4l-2.7-0.2
	c0.2-1.1-3.1-2.2-1.3-3.6C485.2,61.7,486.6,61.9,488.6,64.1z"/>
<path d="M530.3,111.9c-0.4,0.7-0.9,0.9-1.6,0.9c-0.7-0.2-0.7-1.3-0.2-1.6l1.1-0.7L530.3,111.9z"/>
<path class="st0" d="M564.1,137.4l-1.3-1.6C563,137.2,565,135.4,564.1,137.4z"/>
<path d="M545.3,143.7l-0.4,0.4l0.4,0.7c-0.7-0.4-1.6-1.3-2.2-0.7c-1.3-1.6-4-3.1-3.4-5.2C542.8,139.9,544.4,141,545.3,143.7z"/>
<path class="st0" d="M572.9,143.7h0.4v0.7h1.1l0.2,2.2l-0.4-0.9c0.2,0.2,0.4,0,0.4-0.2c-1.8,0.7-1.1-2-2.7-2v0.9
	c-0.2-0.9-1.6-1.1-2-0.9l0.2-1.1c0.4,0.9,1.3,0.7,2,0.2c0-0.7,0-0.2,0.4-0.9C572.6,142.3,572.4,143.2,572.9,143.7z"/>
<path class="st0" d="M665.4,158.7c-0.9,0.2-0.7-1.3-0.9-1.3C664.7,157.8,665.6,158,665.4,158.7z"/>
<path class="st0" d="M598.2,173l0.9,0.7L598.2,173z"/>
<path class="st0" d="M674.4,177.1c-0.4,0.4,0.2,1.6-0.4,2h-0.2l-0.2-2.5L674.4,177.1z"/>
<path d="M622.6,185.8l-0.2,0.2c2.7,0.4,4.3,3.8,7.6,2.5c0.9,1.6,2,4.3,2.7,6.1c-2.9,0-4-1.3-6.3-3.4c-0.4-0.7-1.1-0.4-1.8-0.4
	c-0.7,1.6-2,0.2-2.9-0.2c0.7-1.6,0.4-2.9-1.3-3.4c-0.4,0.2-1.3,0-1.1-0.7C619,184,622.2,184.7,622.6,185.8z"/>
<path d="M646.6,186.7c-1.1,0.2-1.3,2.5-2.7,1.3v-2.2h0.2v-1.1C645.2,184.9,646.1,185.6,646.6,186.7z"/>
<path d="M482.1,193.2c3.1,0,4.7,2.9,7.4,2.7c0.2,0.7,2.7,0.4,4,0.2c0.4-0.7,2-1.1,3.1-1.6l1.6,2l0.4-0.2v0.9c2.2-2,1.6,2.5,4,1.3
	c3.4,1.6,4-0.2,5.8,3.6c-0.4,0.7-0.2,1.6-0.4,2.2c1.3-0.2,0.9,0.7,0.9,1.6c1.6,0.9,1.8,4.5,4.5,2.7c-0.4,0.4,1.8,1.1,2.2-0.2v0.2
	c1.1,0.9,2-1.3,3.1-0.2c-0.2,0.2,0,0.4,0.2,0.4c0.4,0.2,0.7-0.2,1.1-0.4v0.2c1.3,0.2,3.1,1.1,4.5,0c1.8,2.5,3.1-1.3,4.9-0.4
	c2,0.9,2.9,0.2,4.9,0l2.2,0.2v0.2c3.6,0.9,5.4-0.2,8.5,0.7c0.7-0.7,2.9,0.9,4-0.4c0,0.7,0.4,0.9,0.7,1.1c0.9-0.4,2.2,1.1,3.1-0.2
	l0.7-1.1c0.4,2.9,3.4,0,4.3,1.6c2.2-1.3,5.4,0.7,7.4-0.7c2.9,2.7,5.8,0.2,7.8,1.1c2-0.2,5.6,0.2,8.1,1.3c1.6-2,4,0.9,6.3,0.2
	l2.5-0.7l-0.4,0.9c6.1-0.7,9,2.2,14.3,2.7c0.7,0.2,1.3,0.7,1.8-0.2c-1.1,1.3,0.9,1.1,1.1,1.8c1.8,1.3,4.5-0.2,6.3,2
	c1.6-0.7,1.8,1.1,3.1,0.4c0.2,1.3,1.8,0.7,2.5,1.3v-1.1c0.4,1.3,1.8,1.1,2.5,2l0.4-0.7c0.2,0.7,0.4,0.9,1.1,1.1
	c0.4-0.9,1.8,1.1,2.7,1.1c1.8,3.1,7.8,3.4,11,5.6l0.7-0.4c-0.2,0-0.4,0.2-0.4,0.4l0.7,0.4l0.4-0.4c1.1-0.4,0.2,0.9,0.9,1.1
	c2.5-0.9,3.8,2.7,6.1,1.6c0.4,1.3,2.5,0.7,3.1,1.1l0.2-0.7c1.3,1.6,3.6,2.9,5.4,3.1V234c0.4,0.2,0.7,0.4,1.3,0.2
	c-0.2,1.1-0.2,1.8,0.7,2.5l2.5,0.2c0.4,0.7-0.9,1.8,0.2,2.5l0.4-0.2c1.1-0.4,1.1,1.8,2,2.5l0.7-0.9c1.1,2.9,6.9,4,9,5.4
	c2.5-0.4,4.5,0,5.2-1.6c1.8,0,3.6-0.7,4.7,0.7c0.9,1.6,1.6,4,3.1,6.5l1.1-0.4c-1.3,0.7,0,2,0,3.4c0.4,2.7,0.7,4,0.4,7.2
	c-0.2,0-0.4-0.2-0.4-0.4l0.2,1.3l-0.2-0.2c-0.4,0.2-0.2,0.9-0.2,1.3c0,0.4,0.4,0.2,0.7,0.2c-0.7,0.9-0.9,1.8-0.7,2.5h0.7
	c-0.4,0-0.4,0.4-0.7,0.7c0,0.7,1.1,1.8,0.2,2.2c0,2.7-0.4,4.9,1.3,7.2h-0.9c-0.4,2.2,0.9,4.7-0.4,6.9c2.2,1.8-0.9,4.7,0.4,6.9
	c0.2-0.2,0-0.4-0.2-0.4c-1.1,0.7,0.9,1.3,0.4,1.6h-0.2c0.7,4,0.2,8.3,0.2,12.3l0.9,0.4c-2,1.8,0.7,3.4-0.9,5.2l0.4,1.3
	c-2.5,1.1,0.4,2.7-1.8,4.3c0,2.2-1.6,4.5-1.3,6.1h0.4c-1.1,2-0.4,4-2.7,5.4c-0.4,4-3.1,5.2-3.4,9.2c-1.1-0.2-1.1,0.9-1.1,1.8
	l-0.4-0.4c-2.7,2.9-3.6,5.6-3.8,9.4c-2.9,0.7,0.4,4.3-2.9,4.5c-1.6,2.9-5.8,4.9-5.6,9c-2,1.1-4.5,5.8-7.4,5.6
	c-0.2,1.3-2.7,1.8-2.7,3.4c-0.9,0.7-2.5,0.7-3.6,0.7c0.2-1.1-0.7-0.2-1.1-1.3c-2.5,0.2-2,1.6-2.9,2.7v0.7l-0.4-0.2
	c-1.1,0.2-2.7,4.7-4.9,1.6c-0.7,0.4-1.8-0.9-2.2,0.4v0.7c-2.5,0.9-5.6,0.2-7.6,2.5c-0.7-0.7-2.2-0.7-2.7,0.2c-0.7,1.1,0,2.9-2,3.4
	c-2.5,0.2-5.4-0.4-6.9-1.8l-0.7,1.8l-0.4-0.7c-1.3,2-3.8,4-5.6,2.5c-3.4,0.9-4.5,2.9-7.6,1.3l-0.9,0.4c0.9-0.2,0-2.2-1.3-2.2
	c-2-0.9-3.8,2.9-5.4-0.4c-0.2,0.4-0.9,0.2-1.3,0.7c-0.2-0.7-2.2-2-3.1-1.3c-1.6-1.3-1.6-0.7-3.6-2.2c-0.4-0.2-0.9-0.7-1.6-0.4
	l-0.4,1.1l-0.7-1.8c-1.3,0.9-3.1-2.2-4.9-2.7l-0.7,0.7l0.2,0.2c0,0.2-1.1-0.7-2-0.2v-0.7c-2-0.7-2.2,1.8-4,1.8
	c-1.6-0.2-2.7-2.9-4-0.7l-0.2-0.2l1.3-0.9c-1.1-1.8-4.5,1.8-4.7-1.3c0.4-1.8-1.1,0-1.6-0.9c-0.9,1.1-1.8-0.9-1.8-1.3
	c-0.4,0-0.9-0.4-1.1-0.7c0.4-1.1-0.4-1.6-0.7-2.9c-0.7,0-2-1.6-2.9-0.9c0.9,0.2,0.2,0.9,0.7,1.1h-0.7c0.2-0.4,0-0.9-0.4-1.3
	c-1.1,1.1-1.3-0.4-2.5,0.2c-0.2-0.2-0.2-0.7-0.4-0.9l-1.3,1.3c-0.7-0.4,0.9-1.3-0.4-1.8c-2,0.4-3.4,1.6-5.4,1.1
	c-0.9,0.2-3.1,0.7-4.3,0.9c0.2-0.7-0.4-0.9-0.7-1.3c-2.2-0.7-3.4,1.6-6.1,0c-0.4-1.1-0.7-2.9-2.5-3.4l-0.2,2c-3.1,0.2-5.8-1.1-6.9-4
	v-2.5h0.2c-0.7-2,1.1-5.6-2-5.8c-1.6,2.2-3.4-1.1-4.9-1.1c-0.2-0.7-0.2-1.6,0.2-2.2c-0.9,0-2.5-2.2-2.9-0.2c-3.1-1.1-4.3-4-7.8-4
	c-2-1.6-4.7-2.7-7.4-3.8c-3.6,0-6.5,0.2-10.1,0.9l-1.6-0.7c1.6-2,4.9-2.2,7.2-2.9c1.8,0.2,3.1-0.4,4.7-0.4c2.7-0.4,5.8-2,8.3-0.7
	c1.1-2,1.1,0.9,2.7-0.7c1.3,2,2.7-1.8,3.8,0.4c2.2-0.9,4.3,1.6,5.8-0.7c1.1,0.9,2.2,0.2,3.4,0.4v-0.4c3.1,0.2,6.5,1.6,9,0.4
	c2.7,1.8,5.6,0,7.6,1.3c7.8,0.2,13.7,0.7,21.1,0.4c1.6,0.7,5.4,0.4,6.3-0.7c0.4,0,2.5-0.2,3.4,0.2c0.7-2.2,3.1,0.9,3.8-1.6
	c2.7,1.1,5.2,0.2,7.2-0.7c1.1,1.6,3.8-0.7,5.6,0.9c0-0.9,2.2-0.4,2.9-0.2c1.8-0.2,4.3-0.7,6.5-0.7c1.8-2.2,3.6,0.7,5.6-0.7l0.7,0.4
	c2.7-0.7,5.4-1.6,7.2-2.9c1.6,1.8,2.5-0.9,3.8-0.9v0.4c1.8-1.6,6.3-3.8,6.5-5.2c2-0.9,3.1-3.6,5.4-4.9l-0.9-1.1
	c1.3,0,0.7-0.2,1.1-1.3l0.2,0.4c0.4-0.4,1.6-1.8,0.7-2.2c2.5,0.2,0.7-2.2,1.6-3.1c-1.8-0.9,2.7-2.5,0.7-4.5c1.8-1.3,0-5.4,1.8-5.8
	l-0.9-1.3l0.2,0.2c1.1-0.7,0.4-1.6,0.7-2.5c0.4-2,0.4-2.9,0.7-5.4c2.2-1.6-0.9-6.3,2.5-7.2l-0.9-2.2l0.4,0.4
	c0.2-0.4,0.2-0.7,0.4-1.1c-0.2-0.9-1.1-0.4-1.3,0c1.3-0.9,1.8-1.3,2.2-2.9v-2.7c0.2,0,0.4-0.4,0.7-0.7c-1.6-1.8,2-3.4,0.2-5.4
	c0.7-0.2,1.3-1.3,0.4-1.8c-0.2,0.2-0.7,0.2-0.9,0.2v-0.9c1.1,1.1,2,0.7,2.5-0.7c0-0.4,0.4-0.7,0.2-1.1l-0.4-0.4
	c0.2,0,0.2-0.2,0.4-0.4c-1.6-0.7-2.2-0.4-2.7-1.3v0.7l-0.4-0.7c-0.9,1.6-1.8-0.7-2.7,0c-2-1.1-4-1.6-6.5-1.6v0.7
	c-1.1-1.1-2.7-1.6-4.3-2c-0.4,1.3-1.1,0.4-2,1.1l-1.6-1.1l-0.4,1.1c0.2-1.1-1.3-1.3-2-0.9c-0.9-0.2-2.2,0-3.4-0.7
	c-3.4-2-6.5,0.4-10.3-0.2c0-1.6-1.1-0.4-1.8-1.1c-1.8,1.3-4.9-0.2-6.1,1.1c-2.2-0.2-4.3-2.5-6.5,0c-1.6-1.1-2.2,0.9-3.4-0.9
	c-1.1,3.1-3.6-1.8-5.2,0.4c-2-1.1-5.2,0-8.3-0.2c0-0.2-0.2-0.4-0.2-0.4c-0.4,0-0.9,0-0.9,0.4v0.7c-0.2-1.1-2.2-0.7-1.8,0.4v0.4
	c0-3.6-2.9-0.4-4-2.7c-1.3,1.1-3.1-0.9-4,0.9c-1.3,0.4-2-1.6-3.8-1.3c-1.3,1.8-2.7-0.2-4.7,1.6c-0.2-1.3-1.3-0.4-2-0.7
	c-0.4,0.7-1.1,0.4-1.6,0.4c-0.2-0.4-0.7-0.9-1.3-0.9l-0.7,1.1c-0.7,0-0.9-1.1-1.8-1.1l-0.7,0.7c-1.3-0.9-2.7-0.4-4-0.2v-0.7
	c-4.7,2-11.2-1.1-15.2-0.7c-0.2-0.4-0.4-0.4-0.9-0.4l-0.2,1.1c-1.3-2-4,2-5.2-1.3c-1.1,0.9-1.8-0.4-3.4,0c-1.3,0.9-0.9-1.3-2-0.2
	l-0.9-1.1v1.1l-0.7-0.4c-1.3,0.2,0,2.2-1.8,2c-1.8,3.6,0,8.3-2.2,11.4l-0.2-0.4c0.2,1.8-1.3,3.4-1.8,4.9l-0.4-0.2
	c0,2.5-1.8,2-1.6,4.3l-0.2-0.2c-0.9,0.2-0.4,2-1.8,1.6c-0.4,0.4,0,1.1,0.4,1.3c-0.4-0.2-1.6-0.2-1.8,0.4l0.2,0.9
	c-0.7-0.2-1.3,0.7-1.3,1.1c0.9,1.3-0.7,1.1,0.2,2.7l-0.9,1.1c0.9,1.8-2.7,3.8-1.3,5.8l-0.7,1.1l0.4,0.4c-3.1,4.9-3.6,11.2-8.5,16.1
	c-0.4,1.1-1.6,2-0.9,2.9h-0.4l-0.7,3.8c-1.3-0.4-0.9,1.6-1.6,2l-1.3,1.6c0.7,0.2,0.4,0.7,0.2,1.1c-1.3-0.7-1.3,1.6-2,2.2
	c0,2.2-1.3,4-2.5,5.8c-0.2,0.2-0.7,0.4-0.4,0.9c0,0.7-1.1,3.4-2.5,4c-0.7,2.5-3.8,3.1-4.9,5.8l-0.2-0.4c-1.1,0.7-0.7,0.7-1.1,1.8
	c0.4,0.7-1.1-1.1-1.3,0.2c0.2,0.4-0.2,1.1-1.6,1.6c0,1.8-1.3,0.4-1.6,2.2v0.4h-1.1l-0.2,1.8c-0.7-0.2-2-0.2-2.5,0.4
	c-0.4,0.2-1.8,1.3-2.7,1.6c-1.6,2.7-5.8,2-7.8,5.6c-1.3,2-1.6,3.1-4.9,3.8v0.4l-0.4-0.2c-0.9,2.7-4,1.1-6.3,2.5
	c-0.9,1.6-1.6-0.7-3.1,1.3c-1.1-0.2-3.1,0.4-3.6-0.9h-1.1v1.1c0-2-2.2-0.4-3.4-0.4c-1.1,1.6-2.7,1.1-4,2.2c-2.5-0.2-3.1,0.7-4.7-0.4
	c-0.4-1.6-1.3-0.4-2.2-1.1c-1.6,2-4-0.2-4.5,1.3c-0.9-0.4-1.1,0-1.3,0.9c0.2,0.4-0.4,1.3-1.3,1.1c-0.9,1.1-1.8-1.6-2.2,0.4l-0.2-0.2
	c-3.1,0.7-2.5,4.9-5.8,5.4c-1.1,1.6-3.4,1.8-3.8,4c-0.9-0.4-4.3,1.1-4.3-2c1.3-4,4.5-8.1,6.7-11c4-7.2,9.9-15.5,12.3-23.5
	c0.9,0,1.1-2.5,1.8-3.4c4-5.4,7.2-10.1,11.4-13.9c1.3-2.9,4.3-5.2,6.9-7.6l-0.9-0.2c1.6-0.4,2.5-3.4,4.3-4.5v-1.1
	c2,1.1,2.2-2,2.7-2.7l0.4,0.2c1.6-2.9,4.3-6.3,5.4-9.9c1.8-3.4,4.3-5.8,5.4-9.9c2-4.3,5.2-6.9,7.4-11.4c0-0.2,0-0.4-0.2-0.7l0.4,0.4
	c0.7-3.6,3.1-4.3,3.8-6.7l0.2,0.2c2.2-2.9,2.7-6.5,2.7-10.1c1.1-0.7,0-2.7,0.2-4c0-2.9-3.4-0.9-5.2-1.6c-2.5,2.2-6.7,0.7-9.2,1.1
	l-0.9-0.9c-0.2,0.4-0.7,0.4-0.4,0.9c0.2-0.2-1.8-1.3-2.7-0.4c0.4-0.4-0.7-1.3-1.1-1.3c-0.4,0.9-1.1,0-1.6,0c0-0.4-0.4-0.7-0.7-0.9
	l-0.7,0.4c-0.4-1.8-3.4-0.7-4.3-2.7c-2.5,0.2-4.5-1.3-6.3-3.1c0.2-0.4-0.9-1.8-1.3-1.3c2.7-2.9-2.5-4.3-2.9-6.3
	c-2.2-0.2-2.9-2-5.2-0.9c0-2.5-0.4-6.1-2.9-8.5c-1.3-4.3-2-9.2-0.2-13c0.4-3.1,5.2,0.4,4-3.4c0.7,0.7,2.2,1.1,3.4,0.7
	c2,0.2,5.6-0.9,6.7,0c4.5,0.7,10.1-3.1,14.6-2.2c1.6-2.2,4-0.2,6.3-1.1c1.3-0.4,3.6-1.1,4.9-0.4v-0.2c1.8-0.4,4.9-0.4,6.3-1.8
	c0.4,0,0.7,0.7,1.1,0.9c2.5,0,2.2-3.8,3.4-5.4l0.9-0.2c-0.7-3.8,3.6-6.7,3.1-11c1.6-0.9,1.1-3.8,3.6-3.1
	C480.5,193.9,481.4,193.4,482.1,193.2z"/>
<path d="M637.6,202l-0.9,0.9c-0.7-0.2-0.7-1.3,0-1.6C637.2,201.5,638.1,201.3,637.6,202z"/>
<path d="M295.4,203.5l-0.9,2.5c2.2,0,1.8,3.6,4.5,2.7v0.9l1.8,0.2l-0.7,1.1c2.2,1.1,4,3.4,5.6,2.7c0.7,0.7,2.2,0.9,3.6,1.6
	c2.5-0.2,4.5,0.4,7.2,0.9c2.9,1.1-0.7,2.9,0,4.7c0,1.6-2,4.5-1.6,6.3c0-0.4-0.4-0.2-0.7-0.2c-0.7,0.2-0.2,0.9-0.4,1.3l0.7,0.4
	c-1.8,0-1.3,2-2.2,2.9c0.7,1.3-2,5.2-2.9,7.8c1.1,1.8-1.8,0.4-0.4,2.2c-0.2,1.1,1.6,2.9-0.7,3.6c0,0.7-0.2,1.1,0.2,1.3
	c0.4,0.2,0.4,0,0.7-0.2c-2,0.7,1.1,3.4,1.6,3.6c-1.3,1.3,0.2,2.2,0.4,4.3c2.5,1.8,0.4,4.9,3.1,6.9c-0.4,0-0.4,0.2-0.7,0.2
	c-0.2,0.9,0.7,0.9,0.9,1.1h0.4c-2.7,2,2,3.1-0.2,5.2c0.4,0.4,0.7,0.9,0.2,1.3c0.7,0.4,1.6,0.9,1.6,1.8h-0.4c0-0.2-0.2-0.2-0.2-0.4
	c-1.6,1.1,0.7,2.5-0.9,3.6c1.3,2.2,0.7,3.8,0.9,6.1l0.7,0.7l-0.4,0.4l0.9,1.1c-0.4,0-0.4,0.4-0.4,0.7c0.2,0.4,0.7,0.4,0.9,0.4
	c0-0.4,0,2.5,1.1,1.8c-0.7,1.1-0.7,2.7-0.7,4.3l0.9-0.7c-0.7,1.6,0.9,1.3,0.9,3.1l-0.9-0.4c0.7,1.6,0.9,4.3,1.1,5.8l1.1-1.3
	c-0.7,0.7-0.9,1.3-0.9,2.2c1.6,0,4.3,2.2,5.4,0c2,0.2,3.6,0.9,5.4,0.2c1.3,1.3,2.9,0,4.3,1.3c1.3-0.7,3.8,0.7,4.7-1.3
	c0,0.4,0.4,0.7,0.7,1.1c2-1.3,2.7-1.1,4.9-1.3v-0.4c0.7,0.7,2.7,1.1,3.8,0c-0.2,0.4,0.2,0.7,0.4,0.9c1.1,0.2,2.2,0,3.6-0.4
	c0.4,0.7,3.4,0.7,4.5,0.9c-0.2,0.4,0.2,0.7,0.4,0.9l2-0.4c0.2,2.7,1.3-0.7,2.7,0.7c0.9,0.7,2,0.2,2.9-0.4c1.6,1.1,2.2-1.1,4-1.1
	c2-0.7,3.4,0.4,5.2,0.9c2.2,2.2-1.1,5.6,0.7,8.3l-0.2-0.2c-0.7,1.8-0.9,2.7-1.1,4.5c2.2,0.7-0.4,1.8,0.4,2.5
	c-0.9,0.4-0.7,2.2-0.7,2.9c0.2,4-3.8,7.6-0.7,12.1c-1.3,2.9,0,5.8-1.1,9.2c2.5,2.2-1.6,4.3,0.4,6.9c-0.9,2-0.9,6.3-4.3,6.5
	c0.7,1.8-0.7,2.5-2.2,3.1c-2.7-0.4-6.9-1.1-9,1.3c-1.3,0.2-2.5,0.4-3.8,1.3l-1.1-0.4c-0.4,2.2-5.2,1.3-6.5,1.6
	c-0.9,0-1.8-0.7-3.1-0.2l-0.9,1.3c-0.4-1.1-1.3-0.2-1.8,0c-1.6-0.7-3.6,0-4.3,0.4c-1.6-1.3-3.6,0.2-5.2,0c0.2,2.5-2.2-0.2-3.6,0.2
	c-1.8,1.1-3.8-0.2-4.7,2.2l-1.8-1.6l-0.4,0.4l-0.4-0.7c-0.7,0.9-2.2,0.2-2,1.6c0.2-0.4-1.8-1.1-2.7,0c0.7,0.4,0.9,1.3,1.6,1.8
	c-1.3-0.9-1.6,0.7-2,1.3c-0.7,2.5,0,4.9-0.9,6.5c0,0.9-1.1,2.9,0.7,2.7c-1.1,1.6-1.3,4.5-2,4.9c1.1,1.6-1.1,1.8,0,4
	c0.7,2.5-2.7,2.9-1.3,5.6c0.2-0.2,0.2-0.4,0.7-0.2c0.4,0.9-2.7,1.6-0.9,2.9c0.2,1.8-2.5,4.5,0,6.1c-1.6,1.3-0.4,2.7-0.9,4h0.7
	c-0.2,0.9-2.2,3.4-0.2,4c0,1.6-1.3,1.8-0.9,3.1l-0.2-0.4c-0.9,0.7,0.2,1.1,0.2,1.8h0.2v0.4l-0.7-0.4c-0.7,2.7,1.1,4.9-1.1,8.1
	c0,0.7,1.6,2.9-0.7,2.9l0.7,0.4l-0.2-0.2c-0.9,0.7,0.4,1.1,0.2,1.8l-1.1,0.4c0.7,2.5,0,3.6-1.1,5.6c0.7,1.8,0.9,4.5,1.1,6.1h-0.9
	c0.4,2.5,0.2,4.5,1.3,5.4c0.2,0.4-1.3,0.2-0.7,1.3c0,0.9,0.7,0.4,0.7,1.1c-0.9,0-1.3,2-0.4,3.4c0.2,0.2,0.9,0.2,1.1,0.7l-0.9,1.1
	c0,0.7,0-0.2-0.2-0.2c-1.3,1.3,1.6,1.8,1.1,3.1l-0.9-0.2c-0.2,1.6-0.2,3.6,0.7,5.2c-1.3,0.4,0,1.1-0.4,2l1.1,0.7
	c-0.4,0.4-1.6,0.9-1.1,1.8h0.7c-0.9,2,0.4,3.1-0.2,5.4h0.7c-0.9,2.2-0.4,4.3-0.2,6.5h0.2c0,1.6,0,1.6,0.2,3.1l-0.2-0.2
	c-0.7,0.4,0,1.3,0.2,1.3h-0.2c-0.9,3.8,0,11.7-1.8,14.6c1.3,4.9,0.7,8.3-1.1,13.2c0.9,1.6,0.2,4.5,1.6,6.9l-1.3,1.6l0.7,0.7h-0.4
	c-1.1,2.9-0.2,7.4-0.2,11l-1.3,1.3l1.1,1.1c-0.7,0.2,0,1.6,0,1.3l-1.3,1.3c1.3,0-0.4,0.7,0.4,1.3c-1.3,0-0.2,1.3-0.4,1.8l0.9,0.2
	c-1.3,2.7-0.9,5.8-1.3,8.7c2.5,1.3-1.8,3.1,0.4,4.9c-1.6,1.1,0,2.7-0.4,3.8v1.6c-1.8,1.1,0.7,0.7-0.9,2.5c0.9,2,0.4,3.4,0,4.9
	l0.9,0.7l-0.4-0.2c-0.9,0.7-0.2,2,0,1.6h-0.2c0.7,2-0.7,3.1,1.3,4.9c-1.3,0.2,0.4,1.1-0.7,1.6l0.4,0.7l0.2-0.4l-0.2,0.7
	c0.2-0.4-0.4-0.7-0.4-0.9c-2.2,0.9,0.4,2.5-0.4,4c0.4,0.7-0.7,1.3,0,2h0.9c0,1.6-0.9,3.6-0.2,5.4c-1.8,0.7,1.6,2-0.2,3.1
	c1.1,1.8-1.6,3.1,1.3,4l-0.4-0.2l-1.3,1.3l1.1,1.3c-0.2-0.2-0.4-0.7-0.7-0.7c-0.7,0.9-0.2,2,0.4,2.7h0.4L304,593
	c-0.2-0.2-0.2-0.4-0.4-0.2c0.4,1.8,0,3.8,0.2,5.6c0.2,0.2,1.3-0.2,1.1,0.9c-0.4-0.2-0.9-0.2-1.1-0.7c-1.1,2.9,1.8,4-1.1,5.6
	c1.6,3.8-0.9,6.7,0,10.1l0.4,3.8h-0.2c-0.2,0.9,0,1.8-0.4,3.1c0.4,0.7,0.9-0.2,1.1-0.2c0,0.7,0.9,1.3,0.2,2l-0.7-0.9
	c-0.9,0.2-1.1,1.3-0.9,2.2c0.2,0.4,0.4,0.9,0.9,0.9l0.7-0.4c-0.2,0.4-1.1,1.1-0.2,1.8h-1.3c-0.7,2.9,0.7,9.4,0.2,10.8
	c-0.9,0.7-0.9,2.9-1.1,4c0.7,0.9,0,2-0.4,2.7l0.9,2.7c-0.2,1.3-2.2,4.3-0.7,6.3c-0.7,1.8-1.8,2.9-1.3,4.7c-0.9,1.3-2,2.7-1.1,4
	c-1.8-0.7-1.1,2-1.6,2.9c-0.2,0.4,0.2,0.7,0.4,0.9l-1.3,1.1l1.1,1.3c-0.2,0-0.4-0.2-0.4-0.2c-0.9,3.6-0.2,2.7-2,6.7
	c2,1.6-1.1,3.1-1.1,4c0.2,0.7-0.2,1.8,0.7,2.7c0.7,0.4-1.6-1.3-2,0.4c1.3,1.3-0.4,3.1-0.7,4.9c-0.2,0-0.7-0.2-0.9,0.2l0.9,1.3
	l-0.7-0.7c-1.3,1.6-1.8,4.3-1.6,6.3c-0.7,0-0.4,0.9-0.4,1.3c-0.7-0.7-1.8,0.2-2.2,1.1c1.8,2.2-2.7,1.1-1.3,3.4
	c-0.9,2.7-2,5.2-1.6,7.4l-0.2-0.2c-0.2,1.1-0.9,2,0.2,3.1c-2.2-0.2,0.4,1.8-1.6,2.2c0,0.7,0.4,1.3,1.1,1.8c-2.2,1.3-0.2,6.1-4,6.9
	l-3.1,1.3l-0.2-0.7c-0.7,2-5.2,0.9-4.7,4c-0.9,0.2-1.3,1.1-2.2,0.4c0-0.7,0.2-1.8-0.9-1.8c-0.2,0.9-1.6,0.9-2.2,1.6
	c-1.8-2-3.4,1.8-4.9-0.7c-0.2-2-0.4-4.5-2.5-4c0.2,1.3-3.8,3.8-1.3,4.9c-1.3,0.2-2.2,2.2-4,1.6c-0.4-0.4-0.7-0.9-1.3-1.6l-1.3,1.3
	c0.7,1.1-1.3,2-1.8,2.9c-2.5-0.2-0.9-4.9-3.6-4.3c-2.9-0.4-0.7,4.3-4,3.1c-2.2-2.2-1.6-4.9-4-6.1l-0.2,0.2l-1.6-1.8
	c-1.3-0.7-3.6,0.7-4-1.8c-0.7-0.9-0.7-3.1-0.7-4.9c-2.9-1.8-2.9-7.8-4.9-10.5c-2-4-2-6.5-3.8-11c-0.9-2.2,0.4-5.8-1.3-8.7
	c-0.2-0.9-0.4-4-1.3-5.4c0.9-0.9-0.7-2.7,0-3.4c-0.4,0-0.7-0.4-0.9-0.7c0.4,0,0.4-0.9,1.1-1.3c0.2-0.7-1.1-2.2-0.2-3.1
	c-1.3-3.1,0-8.7,0-11.7c-0.7-0.9,0.2-4,0-5.6c0.9-10.5,2.5-19.3,2.7-29.6c0.7-2.7,0.7-7.8,1.1-10.8c0.4-4.5,1.1-7.4,1.3-12.1
	c1.3-1.6,1.3-3.1,0.9-4.9l-0.4,0.7c1.1-1.1,1.1-5.2,2.5-7.6c1.1-2-1.3-4.3,0.7-5.8c-0.4-4.5,2.2-7.4,2-11.9h0.2
	c-1.3-0.9,1.3-2.9,0.4-4.5l0.9-0.9c-0.4-1.3,0.9-4,0.9-5.6c2-1.3-1.1-3.8,1.6-5.2c0.2-2.9,0.4-5.8,1.1-8.5h-0.7
	c-0.9-2,3.1-2.5,0.7-4c0.4-0.4,0.9-0.4,1.3-0.9c0.4-1.1-1.3-2.9,0.4-3.6l-0.9-0.9c0.4,0,0.7-0.4,0.9-0.7c-1.8-2.7,2.2-4.5,0.2-6.9
	c0.9-1.1-0.7-2,0.7-2.7H237c2.5-3.1-0.4-6.3,2.2-9.6c-1.6-1.6,1.3-3.4-0.2-4.9c0.7-2.7,0.7-9,1.3-12.8h0.2
	c-0.7-2.9,1.8-8.1,1.1-12.1c1.6-1.1,1.1-5.2,1.6-6.7c-0.2-1.1,0-1.6,0.4-2.7c-1.6-2,2-4.5,0-6.3c2.2-2.5,0-6.1,2-9
	c-1.6-0.9,0.4-2.2-0.9-3.1l-0.2,0.2l1.1-1.1l-0.7-0.4c0,1.3-0.4-1.6,0-2.5c1.1-2.7,0-3.1,0.9-5.8c-0.7-1.6,0.2-3.4,0-4.3
	c0.4,0,0.4-0.4,0.7-0.7c0.2-0.4-0.2-0.7-0.4-1.1l0.2,0.4c0.4-1.8-0.2-3.4,0-5.2c1.1-1.6-1.1-3.6,0.9-5.4c-1.1-3.6,0.9-3.4-0.2-6.5
	l0.2,0.2c0.9-1.3-0.9-4.7,1.3-5.8c0.9-5.4,0-9.6,2-14.6c-1.6-0.9,0.7-1.1,0.4-2.2c-1.3-4.5,0.9-9,0.2-13c1.1-1.8-1.1-3.8,0.7-5.8
	l-0.4-1.6h0.2c1.1-1.3-0.9-5.2,0.7-5.4v-0.7h0.4c0.9-1.6-0.9-3.8,0.4-4.5h-0.7c1.6-0.2,0-1.3,1.3-2l-0.9-0.7c0.4-0.4,0.9-1.6,0.2-2
	c1.8,0,0.4-1.6,0.9-2.2l-0.9-1.6c-0.9,1.1-3.4,0.9-4.7,2.2c-1.6,0-2.9,0-4.3,0.7c-2,1.8-7.2-1.3-9,2c-0.4,0-0.4-0.4-0.9-0.7
	c-0.2,1.1-2.2,0-2,1.6c-1.1-1.1-1.3,1.6-2.2-0.2c-2.7,1.3-2,1.6-5.2,2.2c0.4,2.7-2.7,1.1-3.6,2c-2,0.4-4,1.6-6.1,0.9
	c-1.1,0.7-2.9-0.4-3.8,1.1c-3.1-3.6-8.7,2.2-10.3-2.7c-0.4-0.2-0.7-0.9-1.1-0.9v1.1c-2-4-0.9-7.6-4.7-11c0.7-1.3,0.4-2.9,0-4.7
	l-0.7-0.7c-0.4-4-0.2-7.2-1.6-10.5c0-1.3,0.4-2.9,1.8-3.6c2-2.5,5.6-4.3,7.8-7.2c1.6,0.9,1.6-1.8,3.1-1.6c1.8-2.7,4.5-3.8,6.3-6.5
	c2.5-0.7,4.5-1.8,6.5-3.1c3.8-1.6,8.1-3.4,11.4-5.2v0.2c0.7,0.7,2,0.2,2.2-0.9c0.9-0.2,2.9,0,3.4-1.6l-0.4,0.7
	c0.2,0.4,0.9,0.4,1.3,0.2c1.1-0.9,0-1.1,1.3-1.6l-0.2,0.2c0.9,0.9,1.6-0.7,2.7-0.2V316c-0.9-0.2,1.3,0.7,0,1.1l1.6,1.1l0.4-0.9
	c0.4,0.7,2.5-1.3,3.4-0.2c1.8-1.3,4.7-1.8,6.7-2.7l-0.7-0.7c2,2,4.5-1.3,6.3-0.9c0.2-0.4,0.7-0.9,0.4-1.3c0.9-0.4,0.9,0.4,1.1,0.7
	c0.4-0.7,2.7-1.3,1.1-2.5l0.4,0.7c1.3-0.9,0.2-0.9,1.3-2h-0.7l1.1-0.4c-1.6-2.2,0.4-2.2,0.2-4.3c0.4,0,0.9,0,1.3-0.7
	c0.2-0.9-1.1-0.9-1.3-1.3c1.8-1.3-0.4-4.5,1.8-4.9c0-2,0.2-3.4-0.2-4.7c1.3-2,0.7-5.4,1.8-7.2l-0.7-0.2c2.5-4,1.3-9.2,3.1-13.2
	c-0.7-0.9-0.2-2,0-2.7c-0.9-0.2-0.7-2.7-0.2-3.6l0.4-0.4c-1.6-0.9,1.6-0.4,0.7-2V258c0,0,0.2,0.2,0.4,0.2c-0.7-4.3,1.8-6.3,1.6-10.3
	c0.2-4.7,1.3-9.2,4.5-13.7c0.9-2.7,1.1-5.6,2.9-8.3l0.2-2.9l0.4,0.4c1.1-3.4,3.6-6.3,4.9-10.1c1.8-0.7,2-3.1,2.9-4.7
	c-0.7-1.1,0.4-2,0.7-2.9c2.9,0,2.9-5.8,5.8-2.2H295.4z"/>
<path d="M646.1,205.5l0.4-0.7c-0.4,0-0.4,2.2-1.8,2c-2,0.9-1.8-2.7-3.6-1.1c-0.9-0.7-2.9-2.5-0.9-3.1
	C642.3,202.8,644.8,203.5,646.1,205.5z"/>
<path d="M660.7,205.5c0.9,0,1.8,0.7,2.2,1.6l0.7-0.9c0.2,0.7,0.9,1.3,1.3,1.3c1.6,0,1.8,0,2.5,0.9c0.4,0.2,0.7,0.9,1.1,0.9
	c0.9-1.1,2.5,2,3.6,0.2c2.9,0,1.8,5.6,4.3,2.7c0.7,1.1,2,0,2.5,1.6c-0.2,1.8,1.1,1.8,1.8,3.1c1.1-1.1,0.9,3.4,3.1,1.3
	c0,0.9,1.3,0,2-0.2c1.6,0.4,1.3,2.5,3.1,1.3c0,1.8,3.4,2.5,4,4.3c1.3-0.9,2.7,2.7,3.4,0.7l0.4,0.7l0.9-0.7c0.7,2.2,7.2,4.3,8.1,9.2
	c1.8,1.3,3.8,0.9,4.3,3.6c-3.4,2.2-5.6-2.9-8.7-2.9c-3.6-0.2-2.7-6.1-5.6-4.7c-2.2,0.2-1.8-1.8-3.8-1.1c-0.2-1.1-1.3-0.9-2.7-1.3
	l-0.7,0.4c-0.9-3.8-4.7-0.7-6.1-4c-1.6,2-3.4-1.3-5.4-0.2c-4.9-0.7-6.9-6.9-10.1-8.3c0.4-2.7-4.3-1.3-6.1-3.4
	c-0.2,0.9-1.1,2-1.8,2.7c-2.2-1.3-6.9-1.3-7.6-4.7c-1.3-1.8-2.7-1.8-3.1-4.3c0-1.8,2-1.1,2.9-1.8c1.1,0.7,2.5,0.2,3.6-0.4
	C656.2,205.3,659.4,203.3,660.7,205.5z"/>
<path d="M719.2,224.6c0.9,0.4,3.1,1.1,1.8,2.7l-1.3,0.4c0-0.2-0.2-0.2-0.2-0.4c-1.3,2.2,2.9,1.8,0.7,4c-1.3,1.3-2.7-1.6-4.5-0.2
	l-4-3.8c0.2-1.1,1.6-1.6,2.5-1.1c1.6,0.9,1.1-5.2,3.1-1.6H719.2z"/>
<path d="M715.4,240.3c-1.1,0.2-3.1,1.6-3.6-0.7c-0.7-0.7-1.1-2,0.2-2.5C713.1,238,716.1,237.6,715.4,240.3z"/>
<path d="M726.6,247.7c-0.9,1.1-2.2,0.2-3.1-0.2c-0.7-0.9-1.1-2.2-0.7-3.6c0.7,0,1.6-0.4,2.2,0C727,244.5,725.5,246.8,726.6,247.7z"
	/>
<path d="M740,252.4c0.2,0.4-0.2,0.9-0.4,1.3c-2-0.9-3.1-1.3-5.2-1.3c-2-0.9-0.9-3.1-1.8-4.5c0.4-1.1,2.2-1.1,3.1-1.8
	C737.6,247.7,738,250.8,740,252.4z"/>
<path d="M752.1,253.3c0.2,0.7-0.4,0.9-0.7,1.3c-0.7-0.2-1.3-1.3-0.4-1.8C751.7,252.6,751.9,253,752.1,253.3z"/>
<path class="st0" d="M769.2,253c0.2,0.7-0.7,0.9-1.1,1.1c-0.4-0.2-0.9-0.9-0.2-1.3C768,253.3,768.7,253,769.2,253z"/>
<path class="st0" d="M771.6,256.6c0.4,0-0.9,1.6-2,1.1h-1.1l0.4-1.1l-1.3,0.2c0-1.1-0.9,0.4-0.9-0.4l0.4-0.7l-0.2,0.2
	c1.3,1.1,1.1-0.9,2.2,0.7c0-0.7,0.7-1.3-0.2-2C770.1,254.4,770.7,257.5,771.6,256.6z"/>
<path class="st0" d="M772.5,258.4c0,0.9-0.7-0.2-0.9-0.2l0.4-0.4L772.5,258.4z"/>
<path d="M760.2,264c0.4,1.1-0.7,2.7-1.8,2.7c-2.7-1.6-4.3-3.4-5.4-6.3c0.4-2.7,2.9,0.4,4-0.7L760.2,264z"/>
<polygon points="785.1,278.4 784.4,278.8 784.2,277.9 784.6,278.6 "/>
<path d="M784.4,288c-0.4,0.9-1.1,0-1.6-0.4l0.9-1.1C784.4,286.4,784.6,287.3,784.4,288z"/>
<polygon class="st0" points="799.2,288 798.7,286.7 799.4,286.7 "/>
<path class="st0" d="M813.5,289.3h0.7l-0.4,1.1c0-1.6-2.2,0.2-2.9-1.6l1.3-1.1C813.5,288.2,812.2,288.7,813.5,289.3z"/>
<path class="st0" d="M803.5,290.5c0.2,0.4,0,1.1,0.4,1.6l-0.7-0.4l-0.2,0.2c-0.9-0.4-1.3-1.3-1.8-2.5
	C803.5,288.4,801.4,291.6,803.5,290.5z"/>
<path class="st0" d="M922.2,357.9c-0.4,0.4-0.2,1.3-0.4,2h-0.2l-0.2-2H922.2z"/>
<path d="M373.7,372.9c3.1-1.8,5.8,2.5,7.8,1.8c1.8,0.9,2.7,4,3.4,5.6c-0.2,2.5,3.4,5.8,0.9,8.1l1.1,4l-1.1,0.2
	c2,0.4,0.4,3.6,1.3,5.2c-1.3,0.4,0.4,1.6,0,2c-0.2,4,2.2,8.3,1.8,12.1l0.9,0.4c-0.9,1.3-0.7,4-0.2,5.6c0.2-0.2,0.2,0,0.4,0.2
	l-0.4,0.4c0.4,1.1,2.7,2.5,3.1,0.4c0.4,1.1,1.3,0.9,2.5,1.3c0.7-1.8,1.6,0.4,3.1-0.7c5.2,0.2,10.3,0,15.7-0.4l0.4,0.4
	c0.2-0.4,1.1-0.7,0.9-1.3c0.2,0.7,0.4,1.3,1.3,1.1c0.4-1.8,2,1.3,3.1-0.4l-0.2,0.2c0.7,0.4,1.1,0.4,1.6-0.2c0.2,1.3,1.8,0.4,2.7,0.7
	c0.9-1.1,2.9-0.7,4.9-0.7c0,0.2,0.4,0.9,1.1,0.7h1.3v-0.4c1.1,0.2,3.1,0.4,4.3-0.2c-0.2,0.2,0.2,0.4,0.4,0.7
	c3.1-0.9,6.3,1.3,9.4-0.2c1.8,1.8,5.2,0.9,6.9,1.3c3.1-0.9,8.5,1.8,12.3,0.9l0.7,0.4c1.3-0.2,0-1.1,1.6-0.9h-0.4
	c0.4,2.2,3.4,0.7,4.7,2c1.3-0.4,2.9-0.7,3.6,0.4l0.7,0.9l0.9-0.9c-0.2,1.3,1.8-0.2,2.5,0.2c2-0.2,4.3,2,6.7,1.1
	c2.5,0.9,6.5,1.1,10.1,2.9c2.5-1.3,3.4,2.9,5.2,1.1c4.3,2,10.1,2,13.7,6.3c0.7,2,0,4,0.4,5.8c-1.1,0-1.8,0.7-1.3,2
	c-2.5-0.2-4.5,0.9-6.3,2c1.8,2-1.1,0.4-0.4,2.7c-2.2,0-2.7,0-4,1.1c1.3,2,0.9,4.7,1.3,6.9c0,0.2,0,0.7-0.4,0.9
	c1.6,0.4,0.7,1.1,2.2,0.7c2.2,1.1-3.1,4-0.4,5.4c-0.9,1.6,0.2,3.6,0.9,5.2c1.8,0,0-2,1.8-2l-1.1-1.3c3.4,0.7,0.9-5.8,4.3-2
	c0,0.7,0.2,1.3-0.2,2l0.7,0.7l0.4-0.2c0.2,1.1-0.4,3.6-0.7,5.4h0.9c-0.2,2.2-0.7,5.2-0.9,7.8c1.3,1.3,1.1,5.8,0.2,8.3
	c0.9,1.8,0.7,3.6,1.1,4.5c-1.8,2.5,0.9,5.8-0.7,7.8c-0.7,1.6,0.2,3.4-0.9,5.4c0.9,1.3-0.7,3.1,0.2,4.7c-3.1,2.9,2.7,3.8-0.4,6.3
	c0.9,1.8,0.4,2.7,1.3,4.5c0.2,2.2,0.2,2.2-0.2,4.3c0.7,2.7-0.4,4.5,1.6,6.9c0.4,3.6-1.6,4.3-0.2,6.7l0.7,0.2
	c-0.4,0.4-1.6,1.3-0.7,2.2c0.2,0.4,0.4,2,0.4,2.7c1.1,1.6-2.5,2.7,0.2,4c-0.2,0.2-0.4,0.7-0.4,1.1h1.1c-1.6-0.2-1.6,0.9-1.1,2
	l-0.2-0.2c-0.2,0.7,1.3,2.7-0.4,3.1c2.5,0.7,0.2,2.9,0,3.6c0.9,4-1.3,9-0.2,12.3c0.2,2-1.6,5.8,0.2,8.7c-1.3,0.2-0.2,2-0.9,3.1
	l0.7,0.2l-1.1,0.7c1.3,0.7-1.1,4,1.8,5.6c-0.7-0.2-0.9,0.4-1.3,0.7l0.4,1.3c-0.2-0.2-0.4-0.2-0.9-0.2c1.1,2-1.8,4.3-0.4,5.6
	c-1.1,1.3,0,2.7-1.1,4c0,3.8-0.9,5.8-0.7,8.5c-0.9,0.2-0.9,1.8-0.7,2.7c1.6,0.9-0.4,1.3-0.7,2c0.9,3.1-2,5.8-0.7,8.7h-0.2l0.2,1.6
	v-0.2c-1.1,0.7-0.9,4.3-1.1,6.1c0.9,0.7,0,2.9-0.2,3.4c0.4,1.6-0.7,1.8-0.4,3.4l-0.2-0.2c-0.4,1.3-0.4,3.6,0.9,3.8
	c-0.7-0.2-1.3-0.9-2,0.2c-0.2,0.9,0.2,2.7,1.1,2.2l-1.3,0.2c-0.7,2.2,0.2,4.3-2,5.8c0.9,1.1,0.2,1.8,0.9,2.9
	c-2.7,2.7-1.3,8.5-3.6,11.9l0.9,2.7c-1.6,2.2-1.3,3.1-1.6,5.2c0,0-1.6,1.1-0.7,1.8c1.1,0.4,0.2,1.6-0.2,2c0.2,2.5-0.2,4-0.9,6.5
	c0,0-0.2,0.2-0.2,0.4c0.4,0.7,0.9-0.2,1.1-0.2c-0.2,0.4,0.4,0.4,0.4,0.7c0.7,0-0.7,0.2-0.7-0.2c-2,2.9,0.7,5.2-0.9,8.3l1.1,0.7
	l-0.2,0.7V690c-2,0.7,0,4.7-1.6,6.5c1.6,1.6-1.6,1.6,0,3.6h-0.7c0.4,1.8,0.4,4.7,0,6.1c-0.9,0.9-0.4,3.4-1.3,4.7
	c-0.4,2.2,0.9,2,0.7,4.5h-0.4v1.8c-0.2,0-0.4,0.4-0.7,0.7c-0.7,0.9,1.1,2-0.7,2.5c0.4,0,0.4,0.4,0.4,0.7c-0.2,0-0.4-0.2-0.7-0.2
	c0.9,1.6-0.2,2.2-0.2,3.8h0.4c0.7,5.2-3.1,4.7-1.8,10.8c0,1.8-2,3.1-0.4,4.7c0.2,2.2-1.8,3.4-0.4,5.4c-1.6-0.2-0.4,1.8-1.6,2.2
	l0.9,1.6h-0.7c-1.1,2.7,1.1,4.9-0.4,7.8c0.2,1.1,0.7,2.9,0.4,4.9c-1.3,1.1,0.7,0.9-0.7,2l0.7,1.6l-0.4-0.4c-0.4,1.3-0.2,2.9-0.2,4.3
	l-0.9,0.7c0.2,0.9,0.4,2.9-0.7,4c0.2,0.7-1.6,3.4-0.4,4c-0.4,1.8-2.7,4-1.6,6.3c-1.3,1.8-1.3,5.4-3.1,7.2c0.9,1.3-0.9,1.6-0.9,2.7
	l0.7,0.4c-2.5-0.4-1.8,2.2-2.2,4l-0.9-0.9c-1.3,1.1,0.7,1.6,0,2.5c0.7-0.2,0.9,0.2,1.1,0.7l-1.1,0.2c0.2-0.4-0.2-0.9-0.4-1.1
	c-2.9,1.1-1.1,3.8-3.8,4.9c-0.9,2-4,3.8-2.9,6.7l-1.3-1.1c0.4,2.5-2.5,1.1-2.9,3.4v-0.2l-1.6,0.9v-0.9c-0.9,0.9-2.7,0.7-4,0.9
	c-0.4,0.9,0.2,2.9-1.1,3.8c0.4-0.7-1.6,0.7-2.2,1.3c0.2,1.3-2,0.7-2.9,1.6c-1.6-0.2-2,2.2-4.3,2c-1.3,1.1-2-3.6-4.3-1.6h-1.6v-0.4
	l-1.8,0.4c-1.6-2,1.6-6.1-1.8-6.7c-1.8-0.4-4,2.2-5.2-0.2c-0.7,0.9-0.7,2.7-2.5,1.6c-2.5-0.4-1.6-2.2-3.6-2c-1.1-0.9-2-0.7-3.4-0.4
	c-0.7,0.9,1.3,1.8,0.2,2.7c-2.5,1.1-0.9-3.6-4-2.7c-0.7-1.1,0.7-2.5,1.8-2.7c1.3,0.4,2-0.7,2.9-1.6l-1.6-1.6
	c-1.3,1.3-2.7-1.8-3.1,0.2c-0.7,0.2-1.8,0.9-2.7,0.2c-0.2-1.1,0.4-1.3,1.3-2.2c0-2-4-1.1-1.8-3.4l-0.4-1.3c-2.5-0.7-2.7,4.3-5.2,1.3
	c-0.2,0.4-0.7,0.2-0.9,0.2V803c-0.9,0.2-0.2,1.6-1.3,2.2c0.7,1.6,0.7,0.4,0.7,2c-2,0-1.8,2.9-4.5,2.2c-1.8-2.5-3.6-0.4-5.6,0
	c-0.4-1.6-3.8-1.3-5.6-2.5l-1.3,1.3c-0.2-0.4-0.7-0.9-1.1-1.3c-1.6,1.1-2-2-3.4-1.3c-6.1,0-9.4,3.8-14.3,1.6c0-1.1,1.3-2,2.2-2.2
	l4-3.1c-0.2-0.2-0.7-0.2-0.9-0.2c2-3.1-5.6-4.9-1.3-8.5h0.2c0-1.3,0-3.4,1.1-4.3c0.4,0,0.7-0.4,1.1-0.7c0-1.3,1.8-3.1,1.6-4.3
	l1.8-1.6c0.7-0.9,0.9-4,3.1-3.6c0.4-1.1,1.6-1.3,1.8-2.9c4-1.6,6.9-4.9,9.2-8.5c0.4-0.9,1.8-0.4,2-1.8c-0.4-0.2-0.2-0.9-0.2-1.3
	l0.2,0.4c1.6-1.1,0.9-2.7,2.2-3.8c1.6-2,2.2-4.7,3.8-7.4c0-1.1,0.7-2.5,1.6-3.4c1.8,0.2,4.9-1.8,6.5,0.4c1.6,0.9,2.5,4,2.9,4.9h1.6
	l-0.4,0.4c1.6,0.9,1.6,2,3.8,1.6l-0.4-0.7c1.1-0.4,0.4-2.2,1.8-2c0.2-1.1,0.9-2.9,1.8-3.6c1.1-1.3,0.9-3.6,2.2-5.2
	c0-0.4-0.4-0.9-0.7-1.1c2-2.2,0.7-3.1,2.9-6.3c0-5.2,3.4-10.1,3.4-14.1c2-1.6,0.4-3.1,1.3-5.4c1.1-3.4,2-6.3,1.6-9.4
	c0.2-1.1,0.4,0,1.1,0c-0.9-0.9,1.8-3.6-0.2-4.3c1.6,0,0.7-0.9,1.3-2c0-0.9-0.7-1.6,0.4-2c-0.7-2.7,2.2-4.5,0.4-6.5
	c0.4,0,0.7,0,0.9-0.2c0.2-0.7-0.2-0.9-0.4-1.1c1.8-2.5,0.7-4.9,1.8-7.6c0.4-1.8,0.4-3.6,0-5.2c-0.2-1.6,0.9-0.7,1.3-2v-3.6h-0.2
	c-0.4,0.4,1.3-1.1,0-1.6c-0.2-2.2,3.1-4.5,0.7-6.3c1.3-0.9,0.9-2.9,1.8-4.7c-0.9-1.6,0.9-4.9,0.7-7.8c0.7-4,1.1-6.7,1.6-11h0.7
	c-0.9-1.8,0.9-4.5,0-6.1c1.1,0.2,0.9-1.3,1.1-1.8c-0.7-1.8-0.2-1.8-0.7-3.1h1.3c-0.4-2.2,1.1-4.5-0.2-6.3c0-2.2,1.6-4.3,0.9-7.8
	c1.3-0.9,0.7-2.5,0.4-4l-0.2,0.2c-1.1-2.2,0-0.7,0.4-2.2c-0.7-2.5,1.3-6.7,0-9.4c0.4-3.1,0.4-5.4,0.9-8.1c-0.2-4.5,0.2-11-0.2-15.2
	c0.2-1.1-0.7-2.9,0.4-3.4c-1.1-2.7,0.9-3.6,0-6.3c0.2-1.3-0.4-5.4,0-7.4c1.3-3.6-0.7-8.3,0.9-12.1c-0.9-2.5,0.4-4,0-6.1h0.4
	c-1.1-4,0.9-9,0.2-12.8c1.3-2,0.4-5.2,1.1-7.4l-0.9-0.4c2-2-0.4-5.4,1.1-7.8c0.4-0.7,0.2-1.6,0.2-2.5l-0.9-0.7
	c1.3-1.1,1.3-4.3,2-6.3c0-0.4-0.4-0.2-0.7-0.2l0.9-1.3c-1.8-2.7,1.8-3.6,0.7-6.5c0.2-3.1,0.7-3.6,1.1-6.9h-0.7l0.9-0.7
	c-0.9-0.7,2-1.8,0.2-2.9c-0.4-0.9,2-1.6,0.9-2.9c1.6-0.9,0.7-2.9,0.9-4.5c0,0.4,1.8-0.9,1.1-1.1c-0.7-0.9,1.6-1.1,0-2
	c2-1.1,1.8-3.8,1.6-5.4h-0.2c-0.7-0.4,0.7,0.7,0.9,0c-0.7-1.3-1.3-2-1.3-3.1c-0.4-0.4,0.2,0.9,0.7,1.1c0.4-0.2,0.9-1.1,0.2-1.3
	c-0.4-0.9-1.6-0.4-2.5-0.7l-0.7,0.7l0.2,0.2c-0.2-1.3-2.2,0.7-3.4,0v0.2c-0.2,0.2-2.2-0.2-2.9,0.2v-0.2c-2.2-1.3-5.6,0.7-7.8-1.1
	c-0.9,1.6-1.6-0.2-2.5-0.4c-0.4,0.2-0.2,0.4-0.2,0.9c-1.3-1.8-3.4,1.3-4-1.1l-0.9,0.7c-0.7,0.2-1.3-1.8-2.5-0.4
	c-1.3,0.2-2.9-0.9-4.5,0.2c0.2-1.8-1.1-0.4-1.8-1.3c-1.6,0.2-3.1,0-4.9-0.7c-0.9-0.4-4,0.7-5.2,0c-2-0.9-6.1,0.4-9.2,0v0.4
	c-2-1.3-4.7,0.2-6.7-0.2s-4.5,2-6.3,0.7c-1.8,1.8-3.1-1.1-4.7,0.7l0.2-0.7c-1.3,0.9-3.4-0.2-4.7-0.7l-0.7,1.1
	c-0.2-0.7-1.3,0-1.6-0.9c-0.2,0.2-0.7,0.7-0.4,1.1c-0.7-0.9-1.3,0.2-1.6,0c-0.4,1.1,0.7,0.2,0.7,0.7c-0.7,0.2-0.9,2.5-1.8,3.6
	l0.2,1.8h0.4v0.7c-0.9,0-1.3-0.4-1.6,0.7c1.1,1.8-0.9,3.1-0.2,4c0.2,2.9-2.7,3.1-1.3,5.2c0,0.2,0,0.7-0.2,0.9c0.7,0-1.3-0.2-1.1,0.7
	c1.3,2-2,2.2-0.9,4.5c2,0.9-2,1.1,0,2.2c-0.2,1.8-2.7,1.8-1.6,3.8c-2.2,3.1-1.3,6.9-1.6,10.3c0.2,0.2,0.4,0.7,0.9,0.4l0.4-0.4
	c-1.1,0-2.2,1.8-2.2,2.7c-0.7,1.1,0.2,2,0.4,3.4l0.7-0.4c-0.9,0.9-1.6,3.4,0,3.8c-0.2-0.2-0.9,0.2-1.1-0.2l-0.2,0.2
	c1.8,0.9-0.2,1.1,0,2.7c1.3,1.1,0.9,2.9,0.9,4.3h-0.2c0.7,0.7-1.1,2.5,0.9,2.2v0.4h-0.9c0.9,2-0.2,4.5,1.3,5.4
	c-1.3,4.3,0,8.7-0.4,13.4c1.6-1.1,0.4,1.3,1.1,1.8c-0.4,1.8-0.2,4-0.2,6.1c1.1,1.1,0.2,2.7,0.4,4c0.7,2.2,0.9,4,1.1,6.7
	c-0.2-0.2-1.3,2-0.4,2.7h0.4c0.2,0.4-0.2,0.4-0.4,0.7c2.9,2.5-2.7,4.9,0.7,6.7c-0.2,2.9,0,4.7,0.9,7.6l-0.9,0.2
	c1.1,1.1-0.2,2.2,1.3,2.7c-1.1,1.6-0.2,3.6,0.4,5.2l0.7,0.2h-0.4c0.7,1.8-0.9,2.7,1.1,4.3c-0.7,0.9-1.1,2.2-0.7,3.6
	c0.7,0.4,1.1,1.3,0.7,1.8c-0.2,0.4,0,0.4,0.2,0.7h0.4c-1.3,1.3,0.2,3.1,0.9,5.2h-0.2c0.9,2.2-0.4,5.2,1.6,7.4
	c-0.9,1.6,1.6,3.6,0.7,5.2h0.4v0.4h-0.4l1.1,2.7c-0.9,0.2-0.2,1.6-0.4,2.2l1.1,0.2c-1.6,1.3,0.4,2.9-0.9,4c0.9,3.1,0.4,6.9,0.9,9.6
	l0.4,4.7h0.4c-1.6,1.8,0,2.9-0.7,4.7c-0.9,0.7,0.7,2.2-0.7,2.7c0.7,3.1-0.2,5.8-0.7,9.2c-0.7,2-0.2,4.9,0.4,6.9
	c-1.3,0.4-0.9,4-1.6,6.5h0.2v2h-0.2c0.7,0-0.2,0-0.2-0.4c0.7,3.8-2.7,9.6-1.1,14.1c-1.6,1.8,0.9,5.4-1.1,6.7
	c0.2,0.9-1.8,3.4-0.2,4.3c-0.2,0.4-0.7,0.9-1.1,1.3c1.1,0.9-0.7,2.2,0.2,4.3v1.1c-0.2,0-0.7,0-0.7,0.2c-0.2,1.1,0.7,0.2,0.7,0.9
	c-1.6,2.2-0.7,6.1-2,8.5c0.7,1.1,1.1,1.6,0.4,2.7c-0.7,0.4,0.2,2-0.4,2.7c0.2,1.1-0.4,1.6-0.9,2.7c-0.7,0.2-0.7,2,0,2.9h-0.2
	c0.2,1.6-0.9,4.3,0.4,4.9c-2.5,0.7-0.4,3.8-1.8,5.6c0.4,0.9,1.6,2,0.4,2.7c-0.2,0-0.2,0-0.4-0.2c-0.9,1.6-0.9,3.4,0.2,4.5
	c-1.3,1.3-0.9,4.5-1.3,6.5l0.7,0.7c-1.8-0.7-1.8,2-2.2,2.9l0.2,0.2c-0.7,0.2-2.7,2.2-1.8,2.9c-1.6,0.7-2.2,2.5-4.3,2.9
	c-2.5,2.9-2.2,6.9-6.1,9c-0.7,4.5-4.5-1.1-5.8,3.1c-0.9,1.1-2.5,0.2-2.9-0.4l-0.7,0.9l-0.4-0.7c-0.4,0.2-0.2,0.7-0.2,0.9
	c-0.7,0-1.6-0.2-1.3,0.4v0.7l-0.7-0.7c-0.7,2-2.7,0.7-4,0.9c-0.9-0.4-2,0.4-2.7-1.3c-0.7,0-2.5,0.2-1.8,1.3v0.7
	c-0.9,1.8-3.8-0.4-5.2,1.8c-1.1-0.7-2.2-0.2-3.1-0.4v0.9l-0.4-0.2c-0.4,1.1-1.6,0.7-2.2,1.6c-2.5,0.9-2.7-2-2.5-3.6
	c-0.7,0.2,0.4-0.2,0.4,0.4c0-1.8-0.7-2.2-1.6-3.6c-0.9-0.7-2.5,0.2-3.8-0.9c-0.9,1.1-2,1.8-1.8,3.4c-1.1,0.9-2.9,1.3-4.7,1.6
	l-0.2,0.2c-1.6,0-0.7-1.8-0.2-2.9c-1.3-2-3.6-1.8-5.4-3.1l-0.4,0.7c0-0.2-0.2-0.7,0.2-0.7c-0.9-0.4-2-0.7-2.7,0.4
	c-1.6-1.8-1.6,0.9-2.9,0.9c-2.2-0.9-3.6-0.7-5.2,0.7l-0.7,0.7l0.7,0.4c-0.7-0.4-1.6-1.3-2.5-0.4l0.2-0.4c-2.5-2.2-8.7-4-12.3-5.6
	c0.2-0.7-0.9-1.8-2.7-2c-2.5,0.9-4-4-5.8-4.5c-0.2-2.5-4-1.3-2.7-4.3l0.7-0.7c-1.1-2.5,4.3-4.9,4.7-8.5c-0.4-0.9,1.3-2.2,0.9-3.4
	c1.8-2.7,2-4.7,2.7-7.4l2-1.6l-0.2-0.2l0.9-1.1c0-1.6,1.3-3.4,2-4.7c0-0.9,1.1-2.2-0.2-2.2c2,0.2-0.4-2.2,1.6-2.5
	c-0.9-3.4,1.6-6.5,3.1-8.7c0.7-0.7,2-0.4,2.2-2c1.1,0.4,3.8-0.7,4,0c-0.4,0.2-0.2,0.7-0.2,1.1c1.6,0.4,1.3,2.7,1.8,2.9
	c-0.4,0-0.4,0.4-0.9,0.7c-0.2,0.7,0.7,0.7,0.9,1.3l0.4-0.7c0.2,1.3,2.2,0.4,1.8,2.2l-0.7,0.4l0.7,0.7c2.2-3.1,1.3-6.5,0.2-9.4
	c2-0.4,0.4-3.1,1.3-4c-0.9-0.7-0.2-0.7,0-1.3c0.7-2-0.2-4,0.7-6.5c-1.6-0.9,0.7-4-0.4-6.3c0.2,0.4,0.7,0.4,0.9,0
	c-1.8-7.6,2-10.8,0.7-17.5h0.2c-0.2-4.5,1.6-8.3,0.7-12.1h0.4c1.6-1.3-2-2.7,0.2-3.8c-0.7-2,1.3-4.7,0-6.3c-0.9-1.1,1.3-3.4-0.2-4
	l0.2-0.9c0.7-0.7,0,0.9,0.7,1.1c1.3-2.7-0.2-5.8,1.6-9c0.9-2-1.8-4,0.2-6.1c-0.2-3.6-0.4-6.7-0.7-10.5c1.1-0.4-0.2-1.6,0.2-2.7
	c-2-0.9,0.2-1.8,0-2.9l-0.7-7.6c-1.8,0,0.7-2.2-1.6-1.6l0.2-2.2c1.8-0.7,1.3-3.4,1.3-4.7c-1.8-3.8,1.6-3.4-0.7-6.5
	c1.3-1.3,0.7-3.8,1.6-5.4l-0.4-2l0.2,0.4c0.4-1.3,0.2-1.8-0.2-2.7c1.1-1.3,0-3.4,0.4-4.7c1.6-0.7,0.2-2.9,0.2-3.8
	c1.8,0-0.2-2,0.9-2.9c-0.4-4,2.5-7.6,0.2-10.8c1.6-1.3,0.2-2.7,1.8-3.8c0.2-3.4,1.3-5.6,1.8-8.5c1.6-3.1,0.2-5.2,2-8.5
	c-0.4-2,0.9-3.8,1.3-5.4l-0.7-0.4c2.9-2.9-0.4-6.1,2-9c-1.6-2,1.1-4.3,1.3-6.5v-2.9h-0.2c2-2,0.2-6.7,2.2-9c0.2-1.8,0.4-4.5-0.4-6.3
	c0,0.4,0.2,0.4,0.4,0.7c2.9-2.9,0.2-7.6,1.6-10.8c-1.6-2,2-3.8-0.2-5.4c2-2.9-0.9-7.2,1.6-9.6c-0.9-6.7,1.6-14.1,1.3-19.9
	c0.7,0.2,0.9-0.7,0.7-1.1v-0.9h-0.9c0.4-0.4,0.2-2.2-0.4-2.9c-3.6,0.2-3.6-2.2-6.3-4.3c0-2.7,0.2-4-0.9-6.7l-0.2,0.2
	c-0.9,0-1.1-3.4-2.2-4.3c1.1-0.7,0.2-2.2,0-3.1c-0.4-2.2-3.1-4-2.9-6.1c0.4-0.4,2.9-1.1,2.5-3.1v-0.9c1.3-0.2,0.4-2.5,0.7-3.1
	c2.9-0.4,2-4.5,4.9-5.2c1.1,0.2,3.1,0.7,4-0.2c3.6,0.7,5.6,0,9,1.3c0-1.3,1.1,0.2,1.6-0.7l4.5,0.7l-0.2-1.3v0.2
	c0.2,0.4,0.7,0,1.1-0.2c0-0.2-0.2-0.4-0.2-0.7c0-0.7,1.1,0.4,1.8-0.7c-1.6-2.9,2.9-3.1,1.3-5.6c0.4,0,0.7-0.7,1.1-0.9
	c-0.2-2.5,1.3-4,0.4-6.5c-0.4,0.7,1.3-0.9,0-1.6c1.6,0.9,0.4-0.4,2-0.9l-0.4-2c0.4-0.2,1.1-0.4,0.9-1.1c-0.9-2.7,1.1-5.2,1.6-7.2
	c-0.2-2.2,2.2-3.6,1.1-5.8c0.9,1.1,1.6-0.4,1.8-0.9c-0.2-2.9,2.5-2.9,2.5-5.2c3.4-0.2,5.8-5.6,9.2-5.2v-1.1
	C368.5,374.3,372.1,370.2,373.7,372.9z"/>
<path class="st0" d="M924.9,373.8l-1.3,0.4l0.2,0.9l-1.6,0.9l0.4,0.4c0.4,0.2-1.1,0.7-1.3,0.9c0.4-0.7-0.2-1.3-0.9-2l0.4,0.2
	c0.4-0.2,0.2-0.9,0.2-1.3l0.7,0.9C922.4,374,923.8,371.8,924.9,373.8z"/>
<path class="st0" d="M913.5,375.4h0.2c0-0.2,0.2,2.7-1.8,1.6c-0.2-0.9-0.7-1.1-0.9-2.2l1.8-0.4C912.8,374.7,913.3,375.2,913.5,375.4
	z"/>
<path d="M551.1,378.3c0-0.2,3.4,2.7,3.1,0c-0.9,1.1,0.7,1.1,1.1,1.8h1.6c-0.2,0-0.2,0.2-0.2,0.4c2.7,0.4,6.5,1.3,9.4,0.2l0.4,1.6
	c0.2-0.9,2.7,1.8,3.8,0.7l0.4,1.1c0.7-0.2,1.1-0.7,0.9-1.3c0.4,0,0.4-0.4,0.9-0.7l0.2,0.2l-0.7,0.7c0.7,1.1,0.9-0.2,1.8,0.2
	c1.3,1.3,4,0.2,4.5,2.9c0.7-0.4,2.5,0.9,3.6,0.9c2.2-0.2,2.5,2.2,3.1,3.8c1.1,0.4-2.2,2.5,0,2.9c-0.7,1.8,0.2,3.8,0.2,5.4
	c0.7,0-0.2,0-0.2-0.2c-0.2,0-0.2,0.4-0.2,0.7c1.8,0.4-1.1,2.2,0.2,2.9c0,1.1-0.2,2.9,0.2,4h-0.2c-0.2,2.5-0.9,5.2,0.9,6.5l-0.4,0.2
	c0.2,0.4,0.7,0.4,0.9,0.4l0.4-0.7v1.3c-1.3,0.4-0.7,1.6-1.3,2.7l1.1,1.3l0.9-0.7l1.6,1.3c0.4-0.2,0.2-0.7,0.2-0.9
	c0.4-0.2,0.7,0.2,0.9,0.4c0.4-1.3,1.8,0.7,2-0.7c2.2,0.2,4.7-0.2,6.7,0l-0.2-0.2c3.6-0.4,8.7-0.7,11.9-1.1c2,1.1,3.8,0.4,5.6,0.2
	c2.5,0.9,6.1-0.4,8.7-0.9c1.1,1.6,1.6-0.2,3.4,0.9c1.3,0.4,3.8-1.1,4.9,0.9c1.8-1.6,3.1,1.8,5.2,0l1.3,0.9c0.2-0.4,0.7-0.4,1.3-0.4
	c0.7,2.2,1.6-1.1,2.7,0.9c1.8-1.8,4.7,2,6.3-0.4c1.8,0.7,3.1-0.2,4.7-0.4c3.4,2.7,6.5-1.6,9.4,0.4v-0.2c2,2.7,5.4-0.2,8.5,1.1
	c0.2,0.2,0.4,0.7,0.9,0.4l0.2-0.2c1.8,1.1,5.8,0.2,7.8,0.9c0.2-0.4,0.7-0.4,1.1-0.7l0.4,0.7c-0.2-0.2-0.4,0-0.4,0.2
	c1.6,0.4,4,1.6,6.1,0V420c4.7,0.4,5.6-3.8,10.5-4c0.4,1.1,2,0.2,2.7,0.9c4.3,3.8,9.4,6.9,9.2,13.2c2.7,0.4,4.7,2.5,6.7,3.4l0.2-0.2
	c1.6,1.3,4.3,5.4,4.3,9l-0.2-0.2c0.2,1.3-2.5,2.5-0.9,3.6c-0.2,0.2,0,1.8-0.9,2.5l0.7,0.7c0,2.2-0.7,4.3-1.6,6.3h0.4
	c-0.9,0-0.7,1.6-0.9,2.2h0.4c1.1,2.5-2.2,5.2,0.9,6.7l-0.7,0.4c0.2,0.4,0.7,0.4,0.9,0.4c-0.4,0.7-0.2,2-0.2,2.7
	c-2.5,2.7,1.6,9.2-3.6,11.4l-3.1,1.6l0.2,0.4c-2,1.1-5.4,1.3-6.3,4.3c1.3,1.3-1.1,2.5,0.7,3.8c-1.1,0-0.9,0.4-1.1,1.3
	c0.9,1.8-0.7,3.6,1.1,4.5c-2,1.8-0.4,4.9-0.9,7.2c-1.3,3.6,0.4,5.2-0.4,7.4c0.4,2.2-0.4,2.5,0.4,4.7h0.4c-0.4,1.1-1.3,2.5-0.2,3.4
	c-1.6,1.8-1.6,4.7-1.1,6.7c-1.6,5.2,0.4,10.1-2,15.2c0.7,2.9-1.1,5.2-0.7,8.1c-0.9,0.7-0.2,2.9-1.6,3.6c-0.2,2.5-0.4,3.8-1.6,6.5
	c0.7,0,0.4,0.7,0.4,1.3c-0.4,0.7-1.1-0.7-0.9,0.7c0.2,2-0.4,6.3-1.1,7.8c-1.1,2-1.3,4-2,6.9c0.2,1.3-0.2,3.8,1.3,4.3
	c-0.9,0.9-0.4,2.7-1.3,4c0.9,0.7,0.7,2.2,0.4,3.1h0.4c-0.4,0.2-0.4,0.7-0.9,1.3l0.7,0.4c-0.2-0.2-0.2-0.4-0.7-0.2
	c0.9,2-0.9,4.7,0.9,7.2c-0.7-0.2-0.7,0.7-1.1,0.9c1.6,1.1-0.7,3.1,0.9,4h-0.2c-0.7,0.4,0,1.3,0.2,1.8l-0.9,1.1
	c1.3,1.3-0.9,3.6,0.7,4.5l-0.4-0.2c-2.7,2.7,2,6.3,0.4,9.4h0.2c-0.2-0.2,0.4,0.7-0.7,1.1c0.2,0.2,0.7,0.2,0.9,0.2
	c-1.3,0.7-0.9,2.5-0.4,3.4h0.2c-2.5,0,0.2,2.5-1.1,4.3c1.6,2-0.7,4.7,0.9,6.5h-0.4c0.2,1.3-0.2,3.6-0.4,4.9c0.4,0,1.1,0.2,0.9,1.1
	l-0.9,0.7c0.4,1.1,1.3,0.7,0.9,1.8h0.2c0,0.2-0.2,0.4-0.2,0.4l-1.1-0.9c-0.7,2,0,4,0.2,6.1c-0.2,0-0.4,0-0.4-0.2
	c-0.7,3.8-0.7,9-3.4,12.1c1.8,3.4-1.6,5.6-0.4,9.9c-0.9,1.3-0.9,4-0.9,5.8c-2.9,1.8-3.6,7.4-5.6,9.6c0.9,1.3-2,1.8-1.8,2.9
	c0.4,3.4-0.4,3.6-1.3,6.7c-2.2,2.5-3.8,7.6-3.1,11h-0.2c-0.2,4.3,0.7,10.8-0.2,14.6c1.1,0.7-0.7,1.3,0,2.5c-0.7,1.3,0.2,4.3-0.9,5.6
	c0.9,0.4-0.7,1.3,0.7,2.2c-0.9,0.7-0.7,2.7-0.2,3.6c0.9,0.9-1.8,2.5,0.7,3.4c-2.5-0.9-0.2,2-1.3,3.1H678c-0.2,3.4,0.4,6.1-0.4,9.4
	c-1.1,0.7-0.2,3.1-2,4c-0.2,5.2-0.4,6.7-0.4,11.7c-2.9,2.2-2,3.8-4,6.9l0.2,1.3c-0.2-0.4-1.1-0.2-1.3,0.2c-1.1,0.2,0,2-1.1,2v0.9
	l-0.2-0.2l-0.9,2.2v-0.2c-2.9,0.9-6.7,3.8-8.3,6.1c-2.2,0.7-3.4,5.4-6.9,3.6c-0.4,1.6-4.3-0.2-3.1,2.5c-0.2-0.4-0.7-0.4-0.9-0.4
	c-2,2.7-3.4,1.3-5.6,4.5c-1.6-0.9-0.9,2-2.5,2.2c0-0.2-0.2-0.2-0.2-0.4c-0.9,0.7-2.5,1.6-3.6,1.8c-2,1.8-4.3,4-7.8,4.7l-1.6,1.1
	c0-0.7-0.4-0.9-0.7-1.1c-1.3-0.9-4.3,0.4-5.4,0l0.4,1.1c-3.1-1.6-4.5,3.6-7.6,2c-0.7,2.5-3.6,1.1-5.8,1.1c-0.2-0.7-0.2-1.6-1.1-2.2
	c-0.7-0.2-1.8,0.7-1.3,1.1c-1.8,1.1-3.8-2-5.4,0.7c-1.6,0.4-4,1.3-4.5-0.9l0.4-1.3c-2-1.1-5.2-1.1-6.5-2.5c-0.4,2.7-1.6,4.7-3.4,6.3
	c-0.9-0.9-4.5-2.9-2-4.3c1.1-1.3-0.2-1.3-0.2-2.7l-0.7,0.2l0.4-0.7l-0.2-0.2c-2.2,0.2-1.3,5.4-4.9,2.9c1.6-2-1.3-2.5-1.8-3.6
	c2.7-1.8,0.2-5.8,0.7-8.7l-0.7,0.7c-0.9-1.3,1.6-1.3,0-2.5c-1.1,1.1-2.5-0.2-3.6-0.7c0.4-1.1-0.9-2.2-1.1-3.4c0.2-0.7-1.6-0.9-0.9-2
	c-1.3,1.6-3.4,3.8-3.4,6.3c-0.7,0.7-3.6,3.8-5.4,5.4c-1.1,0.9-0.4,5.2-4,3.6l-0.2-0.4c0,2.5-2.2,4.5-1.1,6.5
	c-0.9,0.2-1.8,1.3-3.1,0.7c-1.8-2-1.8,1.8-3.4-0.9c-3.1-1.1-1.3,2.9-4,3.1c-0.4,2-0.7,1.8-1.8,3.4c-0.7-0.9-1.8,1.8-3.1,0.7
	c0.7,2.9-2.9,2.9-2,6.1c-2.5,0.4-1.3,4.3-3.4,6.1l-3.6-0.7c-2.7,3.4-2.7,7.2-7.8,7.2c-0.7,0-2.2-1.3-2.9,0.2c0,0.4,0.4,0.7,0.2,1.1
	c-0.4,0.9-0.9-0.4-1.3,0.7c0.2,0.4,0.9,0,1.1,0.2c-1.6-0.4-1.8,2-3.1,2.5l0.2,0.2c-2-0.4-3.6,4.3-5.4,0.2c0.7-0.9-0.4-2.2-1.3-2.2
	c0-0.2,0-0.2,0.2-0.4c-0.2-0.4-0.7-0.4-0.9,0v0.9l-0.4-0.7c-0.2,0.7-0.9,1.1-1.3,1.6c-3.4-2.9-4,2.2-7.8,0.9c-0.4-0.7,0-2.2-1.3-2.2
	c-0.9-0.4-1.3,0.9-1.6,1.3c-0.9-0.4-1.6-0.9-2.7-0.9c-0.2-2.2,3.6-0.7,5.2-1.3c-6.7,0.7-10.5-2.5-14.3-6.5c-1.1-0.4-1.1,0.7-1.8,0
	c0.7-0.7,0-1.8-0.9-2c0,0.4-0.4,0.4-0.7,0.4c1.1-3.4-3.8-1.1-4.5-4c-0.7,0.4-0.9-0.4-1.6-1.1c-0.2-0.4,0.7-0.7,0-0.9
	c-0.4,0-0.9-1.1-1.3-0.2l-1.3-4h0.2c-0.9-4.5,3.1-7.8,5.2-9.9c-1.3-0.7,0.7-1.8,0.2-2.5c1.8-1.6,4-4.3,3.8-6.5l0.9,0.2
	c0.4-3.1,3.6-3.6,2.5-6.5c3.6,1.1,1.6-3.6,4.7-4.9c1.3-0.2,2-0.9,2.7-0.9l0.9-0.9c0.7,1.1,4.5-2.9,5.4,1.1c0.7,0,0.7,4.5,2.9,3.6
	c0-0.2,0.9,1.3,1.6,1.8c1.6-2.2,1.8-4.3,2.9-6.7v-0.7c0.4-1.3,2.5-2.2,1.8-4.7c0.9-1.1,0.2-3.1,1.8-4.3c-2.2-1.1,2.2-0.9,0-2.5
	c0.7-3.1,3.1-3.4,1.8-7.2c2.2-2-2.2-5.4-0.4-7.4c1.6-2.7-1.8-5.8,0-8.5c-0.9-2.5,0.7-5.4-0.2-7.2c0.2-1.6,0.4-2.9,0.7-4.5
	c0.4-0.9,0.4-4.5,0-4.9l1.1,0.2c0.9-1.3-0.4-2.7,0.2-4l0.4,0.2c-0.4-1.6,2-3.1,0-5.2h0.4l-0.2-0.4c0.9-1.8,0.2-4,1.6-5.6
	c-0.2-0.9,0.2-1.3,0-2.2c-0.7-1.8,1.6-3.6-0.4-4.9l0.4-0.4c-0.7,0.4,0.9,0.9-0.2,1.3c0,0.2,0.4,0.2,0.7,0.2c1.1-0.4,0.4-1.6,0.7-2.5
	c-1.8-0.7-0.2-1.6,0.2-2.2c0.4-3.8,0-7.4,1.3-11.4c0.2-1.3-1.6-1.8,0-2.7l-0.4-0.4c0.2-0.7,0.4-4.3,0.2-6.3
	c-0.2-3.8,0.7-7.6,0.7-12.1c0.2-1.6-0.7-3.8-0.2-5.4c0.9-1.6-1.6-5.2,0-7.2c0,0.2-0.4,0.2-0.7,0.2v-0.4l0.7,0.2
	c1.3-1.8-0.4-2.7,0.2-4.3c0-1.1,0.4,1.6,1.1,0c-0.4-2.7-1.1-4,0.2-6.7c-1.1-0.9,0.9-2.2-0.2-3.1c1.1-0.4,0.7-1.6,0.2-2
	c2.2-2.7,0.2-6.7,2-9.2c-0.7-4.5,1.1-8.5,1.6-13l-0.2-2.2l0.2,0.2c-0.9-0.7,2.5-2.9,0.2-3.6c0-2.7,1.1-3.4,1.6-5.6l-1.3-1.3
	c1.8-0.4,1.1-2,2-3.8c-0.2-0.2-0.7-0.2-0.9-0.2c1.8-1.6,0-3.6,1.6-4.9c0-2,0.7-2.5,0-4.5c1.6-0.7-0.7-2.5,0.9-3.6
	c-1.3-2,2-2.5,0-4.7c1.6-1.3-0.9-3.1,1.1-4c0.2-1.8,0.4-4.9,0.7-6.5c0.9-2.2-1.3-4.5,0.4-6.5c-0.7-0.2-0.7-0.9-0.7-1.6l0.2,0.2
	c0.7-2.5,1.3-4.9,0.7-8.1h0.2c-0.7-1.6,1.3-3.1,0.2-4.5l0.2,0.2l0.4-3.1c0.4-1.6,0.9-1.1,1.3-2.7c-0.4-1.8,0.7-3.8,0-5.8
	c0-1.6,1.8-2.5,0.4-4.3h0.4c0-2,0-3.4,1.1-5.4c-0.4-2,1.1-4-0.2-5.8c0.4-0.4,0.2-1.1,0.2-1.6c0.4,0,1.3-1.1,1.3-2
	c0.2-2.7,0.7-3.6-0.2-6.5c0.2,0.2,0.2,0.4,0.4,0.4c-0.4-2,0.4-5.4-0.4-7.6c0.2,0.2,0.2,0.2,0.4,0.2c-0.2-1.3-0.4-2.5-0.7-4
	s1.6-1.1,1.6-2.7c3.4-3.6-0.7-9.4,2.9-12.8c0.2-1.1,0.7-2.9,0.9-3.8l0.2,0.2c0.4-0.4,1.1-1.8,0.4-2.7c0-1.1,0-4,1.1-4.9
	c-0.2-0.7-0.2-2,0.7-2.9l-1.8-1.3c2.9-1.6,1.6-5.4,2.2-7.2c-0.2,0,0.7-4.3-0.9-4.9c0.4,0,0.7,0.4,0.9,0.7l0.4-0.7
	c-0.4-1.1-2.2-0.9-2-1.8c0.4-0.4,0.9,1.8,2,0.7l-1.3-2c1.3-0.9,0.7-1.6,1.8-2.9c-1.8-1.6,2-3.6-1.1-4.7c2.5-1.3-0.7-1.1,1.1-2.9
	c-2.2-2,1.8-1.8,0.4-4.5l-0.4-0.4c1.1-1.8,0-2.2,0-4.3l-1.8-1.3l-0.2,0.2l-1.6-1.8c-0.7,0-0.9,1.3-1.8,0.9l-0.9-2l-0.9,0.7
	c0-1.6-1.8-0.4-2.2-2c-1.1,1.1-1.8-1.6-3.1-0.2c0-1.6-2.7-0.4-4-1.1c-0.4,0.7-0.9,0.4-1.6-0.2c-2.5-1.3-6.3-0.7-8.3-2.7
	c-1.3,1.3-2.7-0.4-4-0.4l-1.8-2.2c1.6-5.6,5.2,2,7.6-1.8c-0.2-0.7-1.1-0.7-1.6-0.4c0.2-0.7-1.3-1.3,0-1.8c0.4-0.4,2-0.7,2.5,0.2
	c-0.2,0.7-0.7,1.1-0.4,2c2.7-0.7,6.7-2.7,9.6-3.8c3.1-2.9,4,5.2,6.7,0.4v-1.6l0.4,0.9c1.1-2.7,1.3-4.7,0.9-7.4l0.2,0.2
	c1.1-3.4,0-7.2,2.2-10.3c-0.2-1.6,0.9-2.9,0.2-3.8c1.6-0.9,0-4.9,1.3-7.8c-0.7-0.7,0-3.4-0.7-4.3c0.7-3.1-2.5-7.6-0.2-11.9
	c1.1,0,2.9-1.1,4.3-0.2C548.4,378.3,550.2,376.3,551.1,378.3z"/>
<path d="M931.9,385.5c0.2,0.4-0.4,1.3-1.1,1.6c-0.2-0.4-0.7-0.2-1.1-0.2C929.6,385.5,930.7,385.3,931.9,385.5z"/>
<path d="M933.6,391.1c0.4,0.7-0.4,1.3-1.1,1.6c-1.1,0.4-1.6-0.4-2-1.3C930.3,389.3,933.2,389.5,933.6,391.1z"/>
<path d="M932.1,398.9l-0.4,0.4c1.3,0.9,2.7,2.2,2,4c-1.1,0.9-2.7,1.3-4.3,1.8c-1.3-2.2-2.2-5.6-0.2-7.6
	C931.2,398.3,931.6,396.9,932.1,398.9z"/>
<path d="M937,411.7l0.4,2.2c-1.6,1.6-3.1-1.3-4.5-1.6c0.9-0.9-0.9-2.2,0.7-3.1C935.4,409.2,935.9,410.6,937,411.7z"/>
<path d="M929.4,414.4c1.8,2.7,4.3,4,3.1,7.6c-2.2,0-3.1-2.2-5.6-2.7c-0.9-0.9,0-2.9-1.8-3.4l2.5-1.8
	C927.6,415.1,928.9,414.8,929.4,414.4z"/>
<path d="M928.5,428.7v0.4c-0.2,0-0.4,0.4-0.7,0.7c-0.4-0.4-1.3-1.1-0.7-1.8C927.8,428.1,928.3,428.3,928.5,428.7z"/>
<path d="M940.1,434.6c-1.6,0.9,0.7,2-0.2,3.4c-1.3,0-3.1,0-2.9-1.8c-0.2-0.9-0.2-2,0.9-2.2C938.8,433.7,939.2,435,940.1,434.6z"/>
<path class="st0" d="M891.5,440.6c-0.2-0.2-0.4,0-0.7,0.2c0.7,0.9,1.6,0.2,2,1.3c0,0.2-2.2-2.2-2,0.2c-0.4,1.6,1.8,0.9,1.1,2.5
	l-0.4-0.7c-0.4,0.2-0.2,0.9-0.2,1.1l0.7,0.7l-1.8,0.2c0.2,0,0.7,0,0.7-0.2c1.1-1.1-2.7-3.1-0.2-4l-0.2-0.9h0.2l-0.4-1.3
	C890.8,439.5,891.3,439.9,891.5,440.6z"/>
<path class="st0" d="M591.7,457.2c0.7,0.9,2.5,0.4,3.1,1.6c0.2-0.4,1.1-0.7,1.1-0.2l0.9,0.9c0.2-1.6,1.3,0.4,2-0.7
	c2,0.7,3.6,1.1,5.6,1.1c0.4-0.4,1.1-0.9,1.1-1.3h0.7c0,0.2-0.2,0.4-0.4,0.4c1.6,0.2,4.3,0,5.4,0.9c2.2-0.9,6.1-0.4,8.1,0.2l0.7-0.4
	l-0.2-0.2c-0.2,0.9,2.5,0.2,3.1,0.4l1.6-0.4c1.8,0.7,3.8,0.7,5.6,0.9l-0.2,0.4c1.6,1.6,5.4,0,6.3,2.2v-0.7c1.3,0.9,2.5,0.4,4,0.2
	l-0.2,0.2c0.9,1.6,0.9-0.7,2-0.2c3.8,0.7,5.4,4.3,9.4,2.2c1.8-0.7,1.3-1.8,3.4-0.9c-0.7,0.4,0.2,1.1,0,0.9c-0.4-0.2-0.4,0-0.7,0.2
	c2.2,0.9,4.7-0.2,6.9,1.3h1.3c0,0.4,0.4,0.4,0.7,0.7l-0.9,0.7c1.3,1.3,0.7,2.2,0.7,3.8c-2,2-0.7,2-0.4,4.5c-0.2,2.2-1.1,6.5-2.7,9
	c1.6,2.5-0.9,5.8-0.2,8.5c-2.2,0.4,0.2,2.9-1.3,3.8c0.2,1.8,0.2,3.4-1.6,4.7c0.7,1.1,1.8-0.7,1.3-0.4l-0.2,2.2h-0.2
	c0.4,0.9-1.8,2.2,0,3.6l-1.1-0.4c-0.7,1.1,1.3,1.1,0.2,2.5c-0.2-0.4-0.4-0.2-0.9-0.2c0,1.3,1.6,2.7-0.2,4.3l-0.2,1.8h-0.4
	c0.9,1.3-0.9,2.7-0.7,4l-0.7,0.7c1.6,1.6-1.1,3.1-0.9,4.7c-0.2,1.3,0,2,0,3.8c-2,0.4-0.4,2.5-1.3,4c-0.2,4.3-2.7,7.4-2.2,11.9
	c-0.2,5.2-1.6,12.1-0.2,17.3c1.3,0,1.6-0.2,2.5-0.9c0.9-1.6,0-3.1,1.1-4.9c0.2,1.8,2.7,4,0.7,5.4c-0.4,0.9,0.9,1.3,0.9,1.1
	c-0.2,0-0.7,0-0.9,0.2c0,0.7,0.2,1.1,0.7,1.3v3.6c-0.4,0-0.7,0.4-1.1,0.9c0.2,0.4,0.7,0,1.1,0.2c0.2,1.1-2,1.8-0.9,3.4
	c-0.2,0.2-0.4,0-0.4-0.2l-0.2,0.2c0.4,1.1,3.6,3.4,1.3,4v2h0.2v1.8h-0.7v1.6c-0.2,0.2-0.7-0.2-0.9,0.4l0.9,1.6
	c-0.2,0-0.2-0.2-0.4-0.2c-0.7,0.7,0.2,1.6,0,2h0.4l-0.4,0.7c1.1,0.4,0.4,2,0.4,3.1h-0.2c1.3,2.2-2.5,5.8-0.4,8.3
	c-0.9,3.1-0.7,6.7-2.2,9.6l0.7,0.7c-1.6,1.6-1.6,3.6-1.1,5.4c-0.7,0.4-1.3,0.9-1.1,2l-1.1-0.2c-0.2,1.1,1.1,1.8,0,2.7l-0.2,1.3
	c-0.2-0.9-1.1-0.4-0.9-1.6l0.9-1.1c-1.6-1.8-0.7-3.8-3.6-3.1c-0.9,2.7-1.6,6.1-0.4,8.7l2.7-0.2c-0.4,1.8-0.4,3.6,0.2,4.9
	c-0.4-0.4-2.2,0.4-1.6,1.3l-0.2,0.2c-0.7-0.7-0.2-1.6,0.2-2.2c-0.7-0.4-1.1-2.2-2.7-1.6c-2.2,5.6-2.5,10.1-4.5,15
	c-0.2,0-0.4-0.2-0.7-0.2c-0.4,3.4-2.5,5.6-2.5,9.2c-0.9,0.4-0.2,1.6-0.4,2.5c-1.3-0.4-0.4,1.1-1.1,1.6c0.2,1.3,0.7,2.5,2,3.6h0.4
	l-0.2,0.9c-0.4-0.9-2-1.3-2.9-0.7c-1.1,1.8-1.1,4.5-3.1,5.8c0.7,1.6,0.4,2.2-0.7,3.4c1.6,0.7-0.7,1.1-0.7,2.2
	c0.7,1.3,1.8,0.7,2.7,0.9c2-1.1,1.1-6.7,4-5.8c-1.1,4,3.4,7.6,0.7,11.7c-0.9,1.8,1.3,0.9,1.6,2l0.2-0.7c1.6,2,0.4,4.7,0.2,7.4
	c-0.4-0.4-0.4,0.4-1.3,0.4c0.4,0.4,0.9,0.2,1.3,0.2l-0.2,2.7c-0.4,0-0.4,0.4-0.7,0.7l0.2-0.7c-1.6,0.4-0.7,1.3-2.7,1.1l0.4-0.2
	c-0.7,0-0.4-0.9-0.4-1.3c0.9,0,0.4-1.1,1.3-1.1c0-0.7-0.9-0.4-1.3-0.4l1.3-1.1c-2.2-1.3,0-3.8-2.9-5.2l-2,0.9
	c0.2,0.4,0.4,0.7,0.2,1.3c-4.5,0.2,0,3.8-2.2,5.8c0.4,1.3-1.1,2.9,0.2,4.7c-0.7,1.6,0.4,4.7-1.1,6.3c0,0.7,1.1,1.3,0,1.8
	c0.2,1.6,1.1,3.4,0.4,4.9c0.9,0.2,1.3,0.9,1.1,1.8l-1.6,1.6c1.6,1.3,0.4,2.5,0,4l-0.2-0.2c-0.7,1.8-1.8,3.6-3.4,4.7
	c0.4,0.4,0.9,0.7,0.7,1.1h-1.1c0,2-2,4.5-2.9,6.7c-2.5,4.3-6.1,4.5-7.6,8.3c-1.3-0.4-1.1,2.5-2.7,2.2c-0.9,3.4-4.9,4.7-6.5,7.8
	c-1.6,1.3-4,3.1-4.9,5.6c-1.8,0.2-1.8-2.2-3.4-2.5c-2,0.2-3.8,0.2-5.4,1.6c-2,2.7-3.4,5.4-4.3,8.3l-1.3,1.8c0,0.7,0-0.4-0.2-0.4
	c0.4,1.8-1.1,3.8-2.2,4.9l-0.4-0.4c-1.3,2.2-3.8,6.1-5.6,7.4h-0.7c0.4-0.7,1.6-1.8,0.2-2.7l0.9-0.4c-2.2-1.6,1.1-4.7-0.9-5.6
	c1.1-1.8,0.2-5.4,0.9-7.4c0.2-1.3,0.4-2,0.9-4l-0.7-1.3c2,0,0.9-1.8,1.1-2.7c0.2-1.6-1.6-0.4-0.2-1.8l0.4-0.7
	c-1.8-0.7,0.2-2.2,0-3.1c0.2-1.8,0-2.9,0.2-5.2h0.4c-0.4-1.1,0.9-2.7-0.4-4.7l1.1-0.7c-0.2-0.4-0.7-0.2-1.1-0.2
	c0-0.4,0.7-0.9,0.9-1.1c-1.3,0-0.7-2.5,0.4-2.9c0-0.4-0.4-0.2-0.7-0.2c1.3-1.6-0.4-3.1,1.3-5.4l-0.9-0.2l1.1-0.9
	c-1.6-0.4-0.9-1.8-1.1-2.7l0.9-0.9c-0.4-1.8-0.7-3.8-0.2-5.8c2.7-1.3-1.3-2.2,0.7-4c-0.7-6.5,1.6-11.2-0.4-17.3
	c1.3-1.3-0.2-2.7,0.2-4.3c0.4,0.2,0.4-0.4,0.9-0.4c-1.1-4.5-0.2-7.6-0.4-11.4c0.2-1.8,0-4.5,0.4-7.2c0.7-0.2,1.6,0.2,1.8-0.7
	c-1.8-0.7,0-3.4,0-5.6c1.1-0.4,0.4-1.6,0.9-2.5c-1.6-0.7,0.7-1.8,0-2.9c1.1-0.7,0-2.5,0-3.1h0.4c0.2-1.6,0.2-2.9,0.9-4.9l0.2,0.2
	l0.4-0.4c-1.1-1.1-0.2-3.1-0.2-4h0.2c0.2-1.8-0.4-4.3,1.6-5.2c-0.9-2.2,0.7-3.8,0.4-5.8c1.1,0.9,0.2-1.1,0.7-1.3
	c-1.1-1.6-0.9-2.5,0-4c0.9-1.6-0.7-4.3,1.3-5.4c-0.9-1.8-1.8-4.3-0.2-6.3c-0.7-0.2-0.4-0.9-0.4-1.6c1.1,0.2-0.2-1.6,0.9-0.4
	c0-2.2-1.3-4.7,0.4-6.7c-1.6-1.8,0.7-3.1,0-4.7c-0.4-1.3-1.8-4.9,0.2-6.1c-1.3-2.7,1.1-4.9,0-7.2c1.3-1.8-0.4-2.7,0.4-4.5
	c0-2.7,0.2-4.5-0.2-6.9c0.4-0.2,0.9,0.2,1.1-0.2c0-1.3-1.1,0.2-1.3-0.7c0-0.7,0.2-1.1,0.7-1.6c-0.2-0.7-1.1-0.4-0.4-1.1
	c0.2,0.2,0.2,0.4,0.4,0.2c1.6-0.7-0.4-1.1-0.2-2c0-0.9-0.4-0.7-0.2-2c0.2,0.4,0.7,0.4,0.9,0c0-1.8-0.2-4,0.2-6.3
	c-1.3,0.2,2.2-0.4,1.1-1.8c-1.3-0.7,0.2-2.2-0.4-2.7c1.3-0.4,0-0.9,0-1.6l0.9-6.7h0.2c1.8-4.9,0-10.1,1.6-15.2
	c-1.3-0.4-0.7-2.2-0.4-2.7c0.4,0,0.4-0.4,0.9-0.7c-0.4-0.4-1.8-1.1-0.9-1.8c0.9-0.4,0.2-0.9,0-1.3c-0.9-0.4-0.2-0.9-0.2-1.6
	l-0.7-5.4h0.4c-1.1-1.6,0.4-1.6-1.3-3.4l0.9-0.9c-0.4-0.7-0.9-1.8-1.3-2.2c1.6,0.2-1.1-1.8,0.7-2.2c-0.4-0.4-0.9-0.4-1.3-0.4
	c2-1.6-0.4-4.5-0.2-5.8c1.3-1.8-2.7-3.6-0.9-5.2c-1.1-2,0-2.5-1.1-4.7c2.2-0.7-1.8-1.6,0.2-3.1c-1.1-1.1-0.7-2.9-0.7-4.3
	c1.8-0.9-1.1-1.6-0.7-2.7c0-0.4,0.4,0.7,0.9,0.2c-0.4-1.8-0.7-4.7,0.4-5.8l0.4-0.4c-0.7,0-1.8-0.9-1.1-0.7h0.2
	c0.7-0.4-0.2-0.9-0.2-1.3h-0.7c0.4-2.2-0.7-6.7,0.9-8.3l-0.4-0.7l-0.4,0.2c0.2-0.2-1.3-1.6-0.4-2h0.2l-0.4-2c0.2,0.2,0.4,0,0.4-0.2
	c-2.7-1.1,2.2-2.9-0.7-4c0.2,0,0.4,0.4,0.7,0.7l0.2-0.4l-0.7-0.9C589,456.7,590.6,458.5,591.7,457.2z"/>
<path d="M948,485.9c-1.3,1.8-2,0.4-3.4,0c-0.4-0.9,1.1-2.7-0.7-2.9C945.7,481.6,947.8,483.6,948,485.9z"/>
<path class="st0" d="M935.9,501.1l-0.7,0.4h1.1v1.8l-1.3-0.2c1.6,0.2-0.2-0.7,1.1-0.7h-2.5c0.7-1.1-0.7-2,0.7-2.7
	c-0.9-0.4-2,0.4-2,1.3c0-2,1.1-2.5,2.2-3.4C935.2,498.9,937,499.8,935.9,501.1z"/>
<path class="st0" d="M936.3,506c-0.2-0.2,0.2-1.3-0.7-0.9c1.1-0.2-0.4-1.1,0.9-1.1L936.3,506z"/>
<path d="M950.9,523.1c0,0.7,0,1.6-0.9,1.6s-1.3-1.6-0.4-2C950,522.4,950.7,522.6,950.9,523.1z"/>
<path d="M652,524.2l0.2,1.6L652,524.2z"/>
<path class="st0" d="M934.5,561.8c-0.2-0.4-0.7-0.2-1.1-0.2v-1.8C934.8,560.3,933.9,560.9,934.5,561.8z"/>
<polygon class="st0" points="933.9,609.3 933.4,608.7 934.3,608.7 "/>
<path class="st0" d="M933,612c0.7-0.7,0.7,0.2,0.7,0.7c-0.4-0.4-1.1-0.4-1.3-1.1l0.7-1.6C931.9,610.2,933.9,611.4,933,612z"/>
<path class="st0" d="M933.2,616.1l-0.7-0.2c1.8-0.4-0.9-2,0-2.9C932.3,614.3,935,614.9,933.2,616.1z"/>
<polygon class="st0" points="645.2,619.6 645.7,619.4 646.1,621.4 "/>
<path class="st0" d="M642.8,648.3c-0.9-0.9-0.4,0.7-1.3,0.7c0.4,0.4,1.6-0.2,1.3,0.9l-2.9,0.4c2.5-1.6-2-3.8,1.8-4L642.8,648.3z"/>
<path class="st0" d="M635.4,659.3c-0.9,0.2,0-1.6-0.9-2C635.6,657.1,635.6,658.4,635.4,659.3z"/>
<path d="M630.5,672.1c-0.9,1.3,0.2,1.1,0.2,2.7h-0.2c-0.9,0.4,0.2,1.8,0.4,1.6c-1.3,0.4-0.7,2.9-2.7,2.5c-1.3-2.9-2.2-5.8-0.2-7.8
	v-0.9C629.1,670.3,630.5,670.5,630.5,672.1z"/>
<polygon class="st0" points="634.5,690.7 633.6,689.8 634,689.8 "/>
<path class="st0" d="M636.1,696.3c-0.2,0.9-1.3,1.1-2,1.3c-0.2,0.2,1.1,2.2-0.2,2.9l0.7,0.4l-0.4-0.2c0,0.2-0.2,0.2-0.2,0.7
	c0.2,0.2,0.7,0.2,0.9,0.2c-1.1,0.9,1.1,2.5-0.9,2.9v-0.4h-1.1v-2.2h0.4c-0.7-0.4,0.2-2.2-0.9-1.6c0.9-0.7-0.2-1.6,1.1-1.3
	c-0.7-1.6-1.1-4.9,0.2-6.3l-0.2-0.4C635.2,692.5,635.8,694.5,636.1,696.3z"/>
<polygon class="st0" points="259.4,721.2 259.6,720.3 259.8,721.2 "/>
<path class="st0" d="M469.6,745.8c-1.1-0.4,0-1.1,0-1.8V745.8z"/>
<path class="st0" d="M572.2,780.3c-1.3-0.2,0.4,1.1-0.9,0.9c0.7-0.4-0.2-1.3,0-1.8C572,779.6,572,779.6,572.2,780.3z"/>
<path class="st0" d="M457.5,794.9c-0.4-0.7-1.8,0.2-2-0.7c0.4-0.7,0-1.3,0.2-2c-0.2-0.2-0.7-0.2-0.9-0.2
	C456.6,790,459.5,793.3,457.5,794.9z"/>
<path class="st0" d="M442.7,798.5c0,0.2-0.9,0.4-1.1,1.6c1.1,0.7,1.3-0.9,2-1.3l0.2,0.2l0.4-0.4c1.3,0.7-0.7,1.8-0.2,2.7l-1.1,1.3
	l0.4,0.2c0.2,0.2-0.7-0.4-0.9,0l-0.9,0.9l0.9,0.2l-0.4,0.4c0-0.7,0-2.9-1.1-2.5c0.4,0,0.9-0.2,1.1-0.9c-1.6-0.7-1.1-2.7-2.5-3.4
	l1.8-0.2v-0.2L442.7,798.5z"/>
<path class="st0" d="M435.5,803.6c-0.2,0.4-0.9,0.7-1.1,1.3c-0.4,0-1.1-0.2-1.3-0.7l-2.5,2l-1.3-3.1l-0.4,0.7v-1.1
	c0.2,0,0.4,0.2,0.4,0.2c1.3-0.2-0.2-2.7,1.3-1.1c0.4-0.9,1.3-0.2,2-0.4C433.7,801.6,434.4,803.2,435.5,803.6z"/>
<path d="M473.6,809.7c0.2-0.2,0.9-0.7,0.2-1.1l0.7,0.4l-0.9,1.3c-0.7,0-0.9-1.1-0.9-2C472.7,808.8,473.1,809.2,473.6,809.7z"/>
<path class="st0" d="M431.7,810.8c-0.9,1.3,0.7-0.4-0.2-0.4V809l1.1,1.3L431.7,810.8z"/>
<path class="st0" d="M433.9,812.6l-1.8-0.7c0.4,0,0.9-0.7,1.1-0.9l-0.2-1.1C435.1,810.3,433.7,811.2,433.9,812.6z"/>
<path class="st0" d="M446,813c-0.9,0-1.3-0.2-1.3-0.9l0.4-1.1c0.4,0.9,0.9,0.2,1.3,0v-0.7C448.5,811.5,444.9,811.2,446,813z"/>
</svg>
