<?xml version="1.0" encoding="utf-8"?>
<!-- Generator: Adobe Illustrator 22.0.1, SVG Export Plug-In . SVG Version: 6.00 Build 0)  -->
<svg version="1.1" id="Layer_1" xmlns="http://www.w3.org/2000/svg" xmlns:xlink="http://www.w3.org/1999/xlink" x="0px" y="0px"
	 viewBox="0 0 1000 1000" style="enable-background:new 0 0 1000 1000;" xml:space="preserve">
<style type="text/css">
	.st0{fill:#FFFFFF;}
</style>
<g>
	<g id="XMLID_1_">
		<g>
			<path class="st0" d="M983.1,525.3c0,0.7,0,1.7-1,1.7c-1,0-1.4-1.7-0.5-2.2C982.1,524.5,982.9,524.8,983.1,525.3z"/>
			<path class="st0" d="M980,485.4c-1.4,1.9-2.2,0.5-3.6,0c-0.5-1,1.2-2.9-0.7-3.1C977.6,480.8,979.7,483,980,485.4z"/>
			<path class="st0" d="M976.4,517.8c0-0.2-0.2-0.5-0.5-0.2c-0.1,0.1-0.3,0.2-0.5,0.3c0.3-0.3,0.5-0.7,0.7-1.1
				c-0.7-0.7,0.2-1.9,0.7-2.6c3.1-0.7,1,3.4,2.9,4.3l-1.4,1.4c-1-0.2-1.7-1.2-2.2-1.9L976.4,517.8z"/>
			<path d="M975.4,517.9c-0.1,0.1-0.1,0.1-0.2,0.1C975.3,518,975.3,518,975.4,517.9z"/>
			<path d="M973.5,516.1l-0.2,0.2l0-0.1v0C973.2,516.2,973.3,516.1,973.5,516.1z"/>
			<path class="st0" d="M971.8,613.1c1.2,1.4,0.2,2.4,0,3.8c-0.5,0.2-1.9,0.7-1.4-0.5c0-0.5,0.2-1-0.2-1.4c-0.1,0-0.2,0-0.2,0
				C970.2,614.1,970.9,613.4,971.8,613.1z"/>
			<path class="st0" d="M971.6,430.4c-1.7,1,0.7,2.2-0.2,3.6c-1.4,0-3.4,0-3.1-1.9c-0.2-1-0.2-2.2,1-2.4
				C970.1,429.4,970.6,430.9,971.6,430.4z"/>
			<path d="M969.9,615C969.9,615,969.9,615,969.9,615c-0.1,0-0.1,0-0.1,0C969.8,615,969.8,615,969.9,615z"/>
			<path d="M968.9,452.7C969,452.7,969,452.7,968.9,452.7C968.9,452.7,968.9,452.7,968.9,452.7z"/>
			<path class="st0" d="M968.2,405.9l0.5,2.4c-1.7,1.7-3.4-1.4-4.8-1.7c1-1-1-2.4,0.7-3.4C966.5,403.3,967,404.7,968.2,405.9z"/>
			<path d="M968.4,453.1c0.1-0.1,0.3-0.2,0.5-0.3C968.8,452.8,968.6,453,968.4,453.1z"/>
			<path class="st0" d="M967.7,504.8l-0.2,2.2c-0.2-0.2,0.1-1.2-0.4-1.1C967.6,505.6,966.5,504.8,967.7,504.8z"/>
			<path class="st0" d="M966.8,506c0.1-0.1,0.2-0.1,0.3-0.1C967,506,966.9,506,966.8,506z"/>
			<path class="st0" d="M964.6,503.1c0.7-1.2-0.7-2.2,0.7-2.9c-1-0.5-2.2,0.5-2.2,1.4c0-2.2,1.2-2.6,2.4-3.6
				c0.7,1.2,2.6,2.2,1.4,3.6l-0.7,0.5h1.2v1.9l-1.4-0.2c1.7,0.2-0.2-0.7,1.2-0.7H964.6z"/>
			<polygon class="st0" points="965.3,617 964.8,617.7 964.4,617 			"/>
			<path class="st0" d="M964.4,564.6c1.4,0.5,0.6,1.1,1.1,2c-0.3-0.3-0.7-0.1-1.1-0.1V564.6z"/>
			<path class="st0" d="M963.4,621.5c-0.2,1.4,2.6,2.2,0.7,3.4l-0.7-0.2C965.3,624.2,962.5,622.5,963.4,621.5z"/>
			<path class="st0" d="M964.6,383.8c0.5,0.7-0.5,1.4-1.2,1.7c-1.2,0.5-1.7-0.5-2.2-1.4C961,381.9,964.1,382.1,964.6,383.8z"/>
			<path class="st0" d="M962.5,392.7c1.4,1,2.9,2.4,2.2,4.3c-1.2,1-2.9,1.4-4.6,1.9c-1.4-2.4-2.4-6-0.2-8.2c2.2,0.7,2.6-0.7,3.1,1.4
				L962.5,392.7z"/>
			<path class="st0" d="M964,620.5c0.6-0.5,0.6,0.4,0.6,0.8c-0.5-0.5-1.2-0.5-1.4-1.2l0.5-1.1C963.9,619.5,964.4,620,964,620.5z"/>
			<path class="st0" d="M963.9,618.4l-0.3,0.6C963.5,618.7,963.4,618.5,963.9,618.4z"/>
			<path class="st0" d="M960,408.8c1.9,2.9,4.6,4.3,3.4,8.2c-2.4,0-3.4-2.4-6-2.9c-1-1,0-3.1-1.9-3.6l2.7-1.9
				C958.1,409.5,959.6,409.3,960,408.8z"/>
			<path class="st0" d="M962.7,377.8c0.2,0.5-0.5,1.4-1.2,1.7c-0.2-0.5-0.7-0.2-1.2-0.2C960.3,377.8,961.5,377.6,962.7,377.8z"/>
			<path d="M960,446.3C959.8,446.9,958.8,446.7,960,446.3L960,446.3z"/>
			<path class="st0" d="M958.4,425.4c-0.5-0.5-1.5-1.2-0.7-1.9c0.7,0,1.2,0.2,1.5,0.7v0.5C958.8,424.6,958.6,425.1,958.4,425.4z"/>
			<path class="st0" d="M951.4,348.3h1c-0.5,0.5-0.2,1.4-0.5,2.2h-0.2L951.4,348.3z"/>
			<path class="st0" d="M950.9,367.2c0.5-0.2,0.2-1,0.2-1.4l0.7,1c0.7-1.2,2.2-3.6,3.4-1.4l-1.4,0.5l0.2,1l-1.7,1l0.5,0.5
				c0.5,0.2-1.2,0.7-1.4,1c0.5-0.7-0.2-1.4-1-2.2L950.9,367.2z"/>
			<path d="M951.4,385.7l0.2-0.2C951.6,385.6,951.5,385.7,951.4,385.7C951.4,385.8,951.4,385.7,951.4,385.7z"/>
			<path d="M948.5,676.1c-0.2,0-0.4,0-0.5-0.2C948.2,676,948.4,676.1,948.5,676.1z"/>
			<path d="M945.6,410h0.2C945.8,410,945.7,410,945.6,410C945.6,410,945.6,410,945.6,410z"/>
			<path d="M945.2,398.2C945.2,398.2,945.2,398.2,945.2,398.2C945.1,398.2,945.1,398.2,945.2,398.2z"/>
			<path class="st0" d="M943.2,367c0,0.2,0.1,2.8-1.9,1.7c-0.2-1-0.7-1.2-1-2.4l1.9-0.5c0,0.5,0.5,1,0.7,1.2H943.2z"/>
			<path class="st0" d="M918,435.9c0.7-0.2,1.2,0.2,1.4,1c-0.2-0.2-0.5,0-0.7,0.2c0.7,1,1.7,0.2,2.2,1.4c0,0.2-2.4-2.4-2.2,0.2
				c-0.5,1.7,1.9,1,1.2,2.6l-0.5-0.7c-0.5,0.2-0.2,1-0.2,1.2l0.7,0.7l-1.3,0.2c0.1,0,0.1-0.1,0.1-0.2c1.2-1.2-2.9-3.4-0.2-4.3
				l-0.2-1h0.2L918,435.9z"/>
			<path class="st0" d="M918,442.9l0.6-0.1C918.5,442.9,918.2,442.9,918,442.9z"/>
			<path d="M897.6,593.2h0.2C897.8,593.2,897.7,593.2,897.6,593.2z"/>
			<path d="M894.7,398.2l0.5-0.1C895.1,398.1,894.9,398.2,894.7,398.2z"/>
			<path d="M836.4,300C836.4,300,836.4,300,836.4,300l-0.7-0.5C835.9,299.6,836.2,299.8,836.4,300z"/>
			<path class="st0" d="M836.1,276c0-1.7-2.4,0.2-3.1-1.7l1.4-1.2c1.4,0.5,0,1,1.4,1.7h0.7L836.1,276z"/>
			<path d="M834.9,297.6c0,0.1,0,0.1,0,0.2c-0.1,0-0.1,0.1-0.2,0.1L834.9,297.6z"/>
			<path class="st0" d="M825.6,277.7l-0.7-0.5l-0.2,0.2c-1-0.5-1.4-1.4-1.9-2.7c2.4-1,0.2,2.4,2.4,1.2
				C825.3,276.5,825.1,277.2,825.6,277.7z"/>
			<path d="M823.6,726.5c-0.2,0.3-0.3,0.6-0.5,0.9C823,726.9,823.4,726.7,823.6,726.5z"/>
			<polygon class="st0" points="820.8,271.9 820.5,273.3 820,271.9 			"/>
			<path class="st0" d="M804,264.2l1.7,1.9l-0.7,0.7c0.3-0.1,0.5-0.1,0.7-0.2l0,0.6c-0.2,0.7-1.4,1.4-1,2.4c-1.2,1.9-3.8,1-5.8,0.7
				l0.2-0.5c-1.9-0.5-2.9-2.9-5-2.2c1.4-2.2-0.5-5-0.2-7.4c-1.2-1-2.2-2.6-3.6-2.6h-0.7c-0.7-1-4.6-2.2-4.3-4.6l0.5-1.4
				c2.2,0.2,4.6,2.2,6,1.4c-1,2.2,2.4,2.4,3.1,3.6c2.6-0.5,3.6,1.9,5.8,1.4c1,0.2,2.6,1.9,2.2,3.1C802.3,263,804.4,262.8,804,264.2z
				"/>
			<polygon points="804.7,263.5 804.4,262.5 804.9,263.3 805.4,263 			"/>
			<path class="st0" d="M804.7,273.3c-0.5,1-1.2,0-1.7-0.5l1-1.2C804.7,271.6,804.9,272.6,804.7,273.3z"/>
			<path class="st0" d="M791.5,240.9l0.5,0.7c0,1-0.7-0.2-1-0.2L791.5,240.9z"/>
			<path class="st0" d="M788.3,235.9c0.2,0.7-0.7,1-1.2,1.2c-0.5-0.2-1-1-0.2-1.4C787.1,236.1,787.9,235.9,788.3,235.9z"/>
			<path class="st0" d="M786.2,238.8L786,239c0,0,0,0,0,0L786.2,238.8z"/>
			<path class="st0" d="M788.1,237.6c1.2-0.2,1.9,3.1,2.9,2.2c0.5,0-1,1.7-2.2,1.2h-1.2l0.5-1.2l-1.4,0.2c0-1.2-1,0.5-1-0.5l0.3-0.4
				c1.4,1.1,1.2-1,2.4,0.7C788.3,239,789.1,238.3,788.1,237.6z"/>
			<path class="st0" d="M778.7,247.6c0.5,1.2-0.7,2.9-1.9,2.9c-2.9-1.7-4.6-3.6-5.8-6.7c0.5-2.9,3.1,0.5,4.3-0.7L778.7,247.6z"/>
			<path class="st0" d="M770.1,236.1c0.2,0.7-0.5,1-0.7,1.4c-0.7-0.2-1.4-1.4-0.5-1.9C769.6,235.4,769.8,235.9,770.1,236.1z"/>
			<path class="st0" d="M752.6,228.4c1.9,1.7,2.4,5,4.6,6.7c0.2,0.5-0.2,1-0.5,1.4c-2.2-1-3.4-1.4-5.5-1.4c-2.2-1-1-3.4-1.9-4.8
				C749.7,229.1,751.6,229.1,752.6,228.4z"/>
			<path d="M751.4,795.2l0.6,0.6C751.8,795.6,751.6,795.5,751.4,795.2z"/>
			<path class="st0" d="M741,226c2.2,0.7,0.5,3.1,1.7,4.1c-1,1.2-2.4,0.2-3.4-0.2c-0.7-1-1.2-2.4-0.7-3.8
				C739.3,226,740.3,225.6,741,226z"/>
			<path class="st0" d="M731,212.3l-4.3-4.1c0.2-1.2,1.7-1.7,2.6-1.2c1.7,1,1.2-5.5,3.4-1.7h2.2c1,0.5,3.4,1.2,1.9,2.9l-1.4,0.5
				c0-0.3-0.2-0.3-0.2-0.5c-1.4,2.4,3.1,1.9,0.7,4.3C734.3,214,732.9,210.9,731,212.3z"/>
			<path class="st0" d="M727.1,218.8c1.2,1,4.3,0.5,3.6,3.4c-1.2,0.2-3.4,1.7-3.8-0.7C726.2,220.7,725.7,219.3,727.1,218.8z"/>
			<path class="st0" d="M710.3,205.1l0.5,0.7l1-0.7c0.7,2.4,7.7,4.6,8.6,9.8c1.9,1.4,4.1,1,4.6,3.8c-3.6,2.4-6-3.1-9.4-3.1
				c-3.8-0.2-2.9-6.5-6-5c-2.4,0.2-1.9-1.9-4.1-1.2c-0.2-1.2-1.4-1-2.9-1.5l-0.7,0.5c-1-4.1-5-0.7-6.5-4.3c-1.7,2.2-3.6-1.4-5.8-0.2
				c-5.3-0.7-7.4-7.4-10.8-8.9c0.5-2.9-4.6-1.4-6.5-3.6c-0.2,1-1.2,2.2-1.9,2.9c-2.4-1.4-7.4-1.4-8.2-5.1c-1.4-1.9-2.9-1.9-3.4-4.6
				c0-1.9,2.2-1.2,3.1-1.9c1.2,0.7,2.6,0.2,3.8-0.5c1.4,2.4,4.8,0.2,6.2,2.6c1,0,1.9,0.7,2.4,1.7l0.7-1c0.2,0.7,1,1.4,1.4,1.4
				c1.7,0,1.9,0,2.6,1c0.5,0.2,0.7,1,1.2,1c1-1.2,2.6,2.2,3.8,0.2c3.1,0,1.9,6,4.6,2.9c0.7,1.2,2.2,0,2.6,1.7
				c-0.2,1.9,1.2,1.9,1.9,3.4c1.2-1.2,1,3.6,3.4,1.4c0,1,1.4,0,2.2-0.2c1.7,0.5,1.4,2.6,3.4,1.4c0,1.9,3.6,2.6,4.3,4.6
				C708.1,203.4,709.6,207.3,710.3,205.1z"/>
			<path d="M712,624.9L712,624.9C711.9,624.8,711.9,624.8,712,624.9z"/>
			<path d="M711.5,594.1c0.3-0.1,0.3,0.1,0.5,0.3L711.5,594.1z"/>
			<path d="M701.5,906.9c0,0-0.1,0-0.1,0C701.4,906.8,701.5,906.8,701.5,906.9z"/>
			<path d="M701.2,130.7c0.1,0.3,0.1,0.6,0,0.8C701.1,131.3,701.1,131,701.2,130.7z"/>
			<path d="M697.8,275.5c0.2,0,0.4,0.3,0.2,0.5C698,275.8,697.9,275.7,697.8,275.5z"/>
			<path class="st0" d="M685.8,154l1,0.5c-0.5,0.5,0.2,1.7-0.5,2.2H686L685.8,154z"/>
			<path class="st0" d="M676.3,133.5c0.3,0.4,1.1,0.6,0.9,1.3C676.4,135,676.4,133.9,676.3,133.5z"/>
			<path class="st0" d="M676.3,133.5c0,0-0.1-0.1-0.1-0.1C676.2,133.3,676.3,133.4,676.3,133.5z"/>
			<path class="st0" d="M669,502.5l0-0.3C669.2,502.1,669.1,502.3,669,502.5z"/>
			<path class="st0" d="M665.6,462.8C665.7,462.9,665.7,462.9,665.6,462.8C665.6,462.8,665.6,462.8,665.6,462.8z"/>
			<path class="st0" d="M664.7,567.3c0,0.1-0.1,0.1-0.3,0C664.5,567.3,664.6,567.3,664.7,567.3z"/>
			<path class="st0" d="M654.3,162.6c1.2,0.2,2.2,1,2.6,2.2c-1.2,0.2-1.4,2.6-2.9,1.4v-2.4h0.2V162.6z"/>
			<path d="M656.6,184.8c0.1-0.3,0.2-0.5,0.4-0.5L656.6,184.8z"/>
			<polygon class="st0" points="656,628.5 656.5,630.7 655.5,628.8 			"/>
			<path class="st0" d="M655.1,186.4c-2.2,1-1.9-2.9-3.8-1.2c-1-0.7-3.1-2.6-1-3.4c2.2,0.2,4.8,1,6.2,3.1l0.1-0.2
				C656.4,185.5,656,186.6,655.1,186.4z"/>
			<path class="st0" d="M649.8,661.7c2.6-1.7-2.2-4.1,1.9-4.3l1.2,2.2c-1-1-0.5,0.7-1.4,0.7c0.5,0.5,1.7-0.2,1.4,1L649.8,661.7z"/>
			<path class="st0" d="M646.4,180.4c0.5,0.2,1.4,0,1,0.7l-1,1C645.7,181.8,645.7,180.6,646.4,180.4z"/>
			<path d="M646.9,209.2l-0.4,0.3C646.5,209.4,646.7,209.2,646.9,209.2z"/>
			<path d="M646.7,269.4c-0.2,0.2-0.5,0.4-0.8,0.5C646.1,269.7,646.4,269.5,646.7,269.4z"/>
			<path class="st0" d="M644,669.1c1.2-0.2,1.2,1.2,1,2.2C644,671.5,645,669.6,644,669.1z"/>
			<polygon class="st0" points="643.5,703.9 644,704.9 643.1,703.9 			"/>
			<path class="st0" d="M642.6,716.9c-0.7-0.5,0.2-2.4-1-1.7c1-0.7-0.2-1.7,1.2-1.4c-0.7-1.7-1.2-5.3,0.2-6.7l-0.2-0.5
				c1.9,0.2,2.6,2.4,2.9,4.3c-0.2,1-1.4,1.2-2.2,1.4c-0.2,0.2,1.2,2.4-0.2,3.1l0.7,0.5l-0.5-0.2c0,0.2-0.2,0.2-0.2,0.7
				c0.2,0.2,0.7,0.2,1,0.2c-1.2,1,1.2,2.6-1,3.1v-0.5h-1.2v-2.4H642.6z"/>
			<path class="st0" d="M638.8,691.7c-0.3,0.4-0.7,0.7-1.5,0.5c-1.4-3.1-2.4-6.3-0.2-8.4v-1c1.2,0.2,2.6,0.5,2.6,2.2
				c-1,1.4,0.2,1.2,0.2,2.9h-0.2c-0.9,0.4,0.1,1.7,0.4,1.7C639.3,689.9,639.2,691,638.8,691.7z"/>
			<path class="st0" d="M635.4,169.6c-0.5-0.7-1.2-0.5-1.9-0.5c-0.7,1.7-2.2,0.2-3.1-0.2c0.7-1.7,0.5-3.1-1.4-3.6
				c-0.5,0.2-1.4,0-1.2-0.7c-0.2-2.6,3.1-1.9,3.6-0.7l-0.2,0.2c2.9,0.5,4.6,4.1,8.2,2.6c1,1.7,2.2,4.6,2.9,6.5
				C639,173.2,637.8,171.8,635.4,169.6z"/>
			<path class="st0" d="M628.4,457.3l-0.1,0.1c-0.1-0.1-0.1-0.2-0.1-0.3L628.4,457.3z"/>
			<path d="M613,195.4c0-0.1,0.1-0.2,0.3-0.4C613.2,195.2,613.1,195.3,613,195.4z"/>
			<path class="st0" d="M593.8,455c0.3,0.1,0.5,0.3,0.6,0.4l-0.1,0.2C594.1,455.4,594,455.1,593.8,455z"/>
			<path d="M591.4,392.4C591.7,392.5,591.9,392.5,591.4,392.4L591.4,392.4z"/>
			<path class="st0" d="M579.8,120.8l0.1,1l-0.5-1C579.6,121,579.7,120.9,579.8,120.8z"/>
			<path class="st0" d="M579.8,120.6c0,0,0.1,0,0.1,0c0,0.1,0,0.2-0.1,0.2L579.8,120.6z"/>
			<path class="st0" d="M577.3,800.9c-1.4-0.2,0.5,1.2-1,1c0.7-0.5-0.2-1.4,0-1.9C577,800.2,577,800.2,577.3,800.9z"/>
			<path d="M576.3,247.2v0.5c0-0.2,0-0.4,0-0.6C576.3,247.1,576.3,247.1,576.3,247.2z"/>
			<path d="M576.3,247.1c0-0.1,0-0.2,0-0.3C576.3,246.9,576.3,247,576.3,247.1z"/>
			<path class="st0" d="M575.1,117.2c0.5,1,1.4,0.7,2.2,0.2c0-0.7,0-0.2,0.5-1c0,0.7-0.2,1.7,0.2,2.2h0.5v0.7h1.2l0.1,1.2
				c-1.8,0.6-1.1-2.2-2.8-2.2v1c-0.2-1-1.7-1.2-2.2-1L575.1,117.2z"/>
			<path d="M572.7,871.3v0.6C572.6,871.6,572.6,871.4,572.7,871.3z"/>
			<path d="M570.8,126.8c0-0.1,0-0.2,0-0.4C570.8,126.5,570.8,126.6,570.8,126.8z"/>
			<path class="st0" d="M567.7,110.9c0.7,0.1,1.6-0.5,0.9,1.1L567.7,110.9z"/>
			<path class="st0" d="M567.2,110.3l0.5,0.6C567.4,110.8,567.2,110.7,567.2,110.3z"/>
			<path d="M560.9,875.9c-0.1,0.2-0.1,0.3-0.2,0.4C560.7,876.2,560.8,876,560.9,875.9z"/>
			<path d="M558,370.1c0,0.5,0,0.8-0.1,1C557.7,370.9,557.7,370.6,558,370.1z"/>
			<path d="M558,876.6l-0.1,0.1C558,876.6,558,876.6,558,876.6z"/>
			<path d="M549.9,103.6C549.8,103.6,549.8,103.6,549.9,103.6C549.8,103.6,549.8,103.6,549.9,103.6z"/>
			<path class="st0" d="M548,119.2l0.5,0.7c-0.7-0.5-1.7-1.4-2.4-0.7c-1.4-1.7-4.3-3.4-3.6-5.5c3.4,1,5,2.2,6,5L548,119.2z"/>
			<path class="st0" d="M530.4,83.9l1.2-0.7l0.7,1.4c-0.5,0.7-1,1-1.7,1C530,85.3,530,84.1,530.4,83.9z"/>
			<path d="M523.1,854.9c0.2,0,0.3,0,0.4,0.1C523.3,854.9,523.2,854.9,523.1,854.9z"/>
			<path d="M519.3,722.3c0.1,0.2,0.2,0.3,0.2,0.5c-0.3,0-0.6,0-0.6-0.2C519.2,722.5,519.3,722.4,519.3,722.3z"/>
			<path d="M519,721.4c-0.2,0.3,0.5,0.6,0.4,1c-0.1-0.2-0.4-0.4-0.7-0.7L519,721.4z"/>
			<path d="M515.8,552.1h-0.7C515.3,552.1,515.5,552.1,515.8,552.1z"/>
			<path d="M507.9,631.4v0.2V631.4C507.8,631.4,507.8,631.4,507.9,631.4z"/>
			<path d="M506.6,648.9c-0.2,0-0.4-0.1-0.5-0.2C506.3,648.8,506.5,648.9,506.6,648.9z"/>
			<path d="M505.3,651.6l0.4-0.1C505.5,651.6,505.4,651.7,505.3,651.6z"/>
			<path class="st0" d="M664.7,567.3c-0.1,0-0.2,0-0.3,0C664.5,567.3,664.7,567.3,664.7,567.3z M655.5,628.8l1,1.9l-0.5-2.2
				L655.5,628.8z M645,671.3c0.2-1,0.2-2.4-1-2.2C645,669.6,644,671.5,645,671.3z M643.5,703.9h-0.5l1,1L643.5,703.9z M641.6,715.2
				c1.2-0.7,0.3,1.2,1,1.7h-0.5v2.4h1.2v0.5c2.2-0.5-0.2-2.2,1-3.1c-0.2,0-0.7,0-1-0.2c0-0.5,0.2-0.5,0.2-0.7l0.5,0.2l-0.7-0.5
				c1.4-0.7,0-2.9,0.2-3.1c0.7-0.2,1.9-0.5,2.2-1.4c-0.2-1.9-1-4.1-2.9-4.3l0.2,0.5c-1.5,1.4-1,5-0.2,6.7
				C641.4,713.5,642.6,714.5,641.6,715.2z M583,745.2c1.4,2.2,0,3.8,0.5,5H583c-0.2,2.4,0,3.6-0.2,5.5c0.2,1-1.9,2.6,0,3.4l-0.5,0.7
				c-1.4,1.4,0.5,0.2,0.2,1.9c-0.2,1,1,2.9-1.2,2.9l0.7,1.4c-0.5,2.2-0.7,2.9-1,4.3c-0.7,2.2,0.2,6-1,7.9c2.2,1-1.4,4.3,1,6l-1,0.5
				c1.4,1,0.2,2.2-0.2,2.9h0.7c1.9-1.4,4.6-5.5,6-7.9l0.5,0.5c1.2-1.2,2.9-3.4,2.4-5.3c0.2,0,0.2,1.2,0.2,0.5l1.4-1.9
				c1-3.1,2.4-6,4.6-8.9c1.7-1.4,3.6-1.4,5.8-1.7c1.7,0.2,1.7,2.9,3.6,2.6c1-2.6,3.6-4.6,5.3-6c1.7-3.4,6-4.8,7-8.4
				c1.7,0.2,1.4-2.9,2.9-2.4c1.7-4.1,5.5-4.3,8.2-8.9c1-2.4,3.1-5,3.1-7.2h1.2c0.2-0.5-0.2-0.7-0.7-1.2c1.7-1.2,2.9-3.1,3.6-5
				l0.2,0.2c0.5-1.7,1.7-2.9,0-4.3l1.7-1.7c0.2-1-0.2-1.7-1.2-1.9c0.7-1.7-0.2-3.6-0.5-5.3c1.2-0.5,0-1.2,0-1.9
				c1.7-1.7,0.5-5,1.2-6.7c-1.4-1.9,0.2-3.6-0.2-5c2.4-2.2-2.4-6,2.4-6.2c0.2-0.7,0-1-0.2-1.4l2.2-1c3.1,1.5,0.7,4.1,3.1,5.5
				l-1.4,1.2c0.5,0,1.4-0.2,1.4,0.5c-1,0-0.5,1.2-1.4,1.2c0,0.5-0.2,1.4,0.5,1.4l-0.5,0.2c2.2,0.2,1.2-0.7,2.9-1.2l-0.2,0.7
				c0.2-0.2,0.2-0.7,0.7-0.7l0.2-2.9c-0.5,0-1,0.2-1.4-0.2c1,0,1-1,1.4-0.5c0.2-2.9,1.4-5.8-0.2-7.9l-0.2,0.7
				c-0.2-1.2-2.6-0.2-1.7-2.2c2.9-4.3-1.9-8.2-0.7-12.5c-3.1-1-2.2,5-4.3,6.3c-0.6-0.1-1.2,0-1.8-0.1c-0.4-0.1-0.8-0.3-1.1-0.9
				c0-1.2,2.4-1.7,0.7-2.4c1.2-1.2,1.4-1.9,0.7-3.6c2.2-1.4,2.2-4.3,3.4-6.2c1-0.7,2.7-0.2,3.1,0.7l0.2-1H644
				c-1.4-1.2-1.9-2.4-2.2-3.8c0.7-0.5-0.3-2.2,1.2-1.7c0.2-1-0.5-2.2,0.5-2.6c0-3.8,2.2-6.3,2.6-9.8c0.2,0,0.5,0.2,0.7,0.2
				c2.2-5.3,2.4-10.1,4.8-16.1c1.7-0.7,2.2,1.2,2.9,1.7c-0.5,0.7-1,1.7-0.2,2.4l0.2-0.2c-0.7-1,1.2-1.9,1.7-1.4
				c-0.7-1.4-0.7-3.4-0.2-5.3l-2.9,0.2c-1.2-2.9-0.5-6.5,0.5-9.4c3.1-0.7,2.2,1.4,3.8,3.4l-1,1.2c-0.2,1.2,0.7,0.7,1,1.7l0.2-1.4
				c1.2-1-0.2-1.7,0-2.9l1.2,0.2c-0.2-1.2,0.5-1.7,1.2-2.2c-0.5-1.9-0.5-4.1,1.2-5.8l-0.7-0.7c1.7-3.1,1.4-7,2.4-10.3
				c-2.2-2.6,1.9-6.5,0.5-8.9h0.2c0-1.2,0.7-2.9-0.5-3.4l0.5-0.7h-0.5c0.2-0.5-0.7-1.5,0-2.2c0.2,0,0.2,0.2,0.5,0.2l-1-1.7
				c0.2-0.7,0.7-0.2,1-0.5V586h0.7v-1.9h-0.2v-2.2c2.4-0.7-1-3.1-1.4-4.3l0.2-0.2c0,0.2,0.2,0.5,0.5,0.2c-1.2-1.7,1.2-2.4,1-3.6
				c-0.5-0.2-1,0.2-1.2-0.2c0.5-0.5,0.7-1,1.2-1V569c-0.5-0.2-0.7-0.7-0.7-1.4c0.1-0.2,0.4-0.2,0.6-0.2c-0.4-0.1-0.9-0.6-0.6-1.2
				c2.2-1.4-0.5-3.8-0.7-5.8c-1.2,1.9-0.2,3.6-1.2,5.3c-1,0.7-1.2,1-2.6,1c-1.5-5.5,0-13,0.2-18.5c-0.5-4.8,2.2-8.2,2.4-12.7
				c1-1.7-0.7-3.8,1.4-4.3c0-1.9-0.2-2.6,0-4.1c-0.2-1.7,2.6-3.4,1-5l0.7-0.7c-0.2-1.4,1.7-2.9,0.7-4.3h0.5l0.2-1.9
				c1.9-1.7,0.2-3.1,0.2-4.6c0.5,0,0.7-0.2,1,0.2c1.2-1.4-1-1.4-0.2-2.6l1.2,0.5c-1.9-1.4,0.5-2.9,0-3.8h0.2l0.2-2.1
				c0.2-0.2,0.2-0.4,0-0.3l0,0.3c-0.3,0.4-1,0.9-1.4,0.2c1.9-1.4,1.9-3.1,1.7-5c1.7-1-1-3.6,1.4-4.1c-0.7-2.9,1.9-6.5,0.2-9.1
				c1.7-2.6,2.6-7.2,2.9-9.6c-0.2-2.6-1.7-2.6,0.5-4.8c0-1.7,0.7-2.6-0.7-4.1l1-0.7c-0.2-0.2-0.7-0.2-0.7-0.7h-1.4
				c-2.4-1.7-5-0.5-7.4-1.4c0.2-0.2,0.2-0.5,0.7-0.3c0.1,0.1,0.1,0.1,0,0c0,0,0,0,0,0c-0.2-0.2-0.5-0.6,0-0.9c-2.2-1-1.7,0.2-3.6,1
				c-4.3,2.2-6-1.7-10.1-2.4c-1.2-0.5-1.2,1.9-2.2,0.2l0.2-0.2c-1.7,0.2-2.9,0.7-4.3-0.2v0.7c-1-2.4-5-0.7-6.7-2.4l0.2-0.5
				c-1.9-0.2-4.1-0.2-6-1l-1.7,0.5c-0.6-0.2-2.8,0.3-3.3-0.1l0.1-0.1l-0.2-0.2c0,0.1,0,0.3,0.1,0.3l-0.6,0.4
				c-2.2-0.7-6.3-1.2-8.7-0.2c-1.2-1-4.1-0.7-5.8-1c0.2,0,0.5-0.2,0.5-0.5H613c0,0.5-0.7,1-1.2,1.4c-2.2,0-3.9-0.5-6-1.2
				c-0.7,1.2-1.9-1-2.2,0.7l-1-1c0-0.5-1-0.2-1.2,0.2c-0.7-1.2-2.6-0.7-3.4-1.7c-1.2,1.4-2.9-0.5-4.3-0.5l0.7,1l-0.1,0.3
				c-0.1-0.2-0.3-0.3-0.6-0.4c0.2,0.1,0.4,0.5,0.5,0.6l0.1-0.2c1.1,1.2-2.6,2.8-0.1,3.8c0,0.2-0.2,0.5-0.5,0.2l0.5,2.2h-0.2
				c-1,0.5,0.7,1.9,0.5,2.2l0.5-0.2l0.5,0.7c-1.7,1.7-0.5,6.5-1,8.9h0.7c0,0.5,1,1,0.2,1.4h-0.2c-0.7-0.2,0.5,0.7,1.2,0.7l-0.5,0.5
				c-1.2,1.2-1,4.3-0.5,6.2c-0.5,0.5-1-0.7-1-0.2c-0.5,1.2,2.6,1.9,0.7,2.9c0,1.4-0.5,3.4,0.7,4.6c-2.2,1.7,2.2,2.6-0.2,3.4
				c1.2,2.4,0,2.9,1.2,5c-1.9,1.7,2.4,3.6,1,5.5c-0.2,1.4,2.4,4.6,0.2,6.3c0.5,0,1,0,1.4,0.5c-1.9,0.5,1,2.6-0.7,2.4
				c0.5,0.5,1,1.7,1.4,2.4l-1,1c1.9,1.9,0.2,1.9,1.4,3.6h-0.5l0.7,5.8c0,0.7-0.7,1.2,0.2,1.7c0.2,0.5,1,1,0,1.4
				c-1,0.7,0.5,1.4,1,1.9c-0.5,0.2-0.5,0.7-1,0.7c-0.2,0.5-1,2.4,0.5,2.9c-1.7,5.5,0.2,11-1.7,16.3h-0.2l-1,7.2c0,0.7,1.4,1.2,0,1.7
				c0.7,0.5-1,2.2,0.5,2.9c1.2,1.4-2.6,2.2-1.2,1.9c-0.5,2.4-0.2,4.8-0.2,6.7c-0.2,0.5-0.7,0.5-1,0c-0.2,1.4,0.2,1.2,0.2,2.2
				c-0.2,1,1.9,1.4,0.2,2.2c-0.2,0.2-0.2,0-0.5-0.2c-0.7,0.7,0.2,0.5,0.5,1.2c-0.5,0.5-0.7,1-0.7,1.7c0.2,1,1.4-0.7,1.4,0.7
				c-0.2,0.5-0.7,0-1.2,0.2c0.5,2.6,0.2,4.6,0.2,7.4c-1,1.9,1,2.9-0.5,4.8c1.2,2.4-1.4,4.8,0,7.7c-2.2,1.2-0.7,5-0.2,6.5
				c0.7,1.7-1.7,3.1,0,5.1c-1.9,2.2-0.5,4.8-0.5,7.2c-1.2-1.2,0.2,0.7-1,0.5c0,0.7-0.2,1.4,0.5,1.7c-1.7,2.2-0.7,4.8,0.2,6.7
				c-2.2,1.2-0.5,4.1-1.4,5.8s-1.2,2.6,0,4.3c-0.5,0.2,0.5,2.4-0.7,1.4c0.2,2.2-1.4,3.8-0.5,6.3c-2.2,1-1.4,3.6-1.7,5.5h-0.2
				c0,1-1,3.1,0.2,4.3l-0.5,0.5l-0.2-0.2c-0.7,2.2-0.7,3.6-1,5.3h-0.5c0,0.7,1.2,2.6,0,3.4c0.7,1.2-1.7,2.4,0,3.1
				c-0.5,1,0.2,2.2-1,2.6c0,2.4-1.9,5.3,0,6c-0.2,1-1.2,0.5-1.9,0.7c-0.5,2.9-0.2,5.8-0.5,7.7c0.2,4.1-0.7,7.4,0.5,12.3
				c-0.5,0-0.5,0.7-1,0.5c-0.5,1.7,1.2,3.1-0.2,4.6c2.2,6.5-0.2,11.5,0.5,18.5c-2.2,1.9,2.2,2.9-0.7,4.3c-0.5,2.2-0.2,4.3,0.2,6.3
				l-1,1c0.2,1-0.5,2.4,1.2,2.9l-1.2,1l1,0.2c-1.9,2.4,0,4.1-1.4,5.8c0.2,0,0.7-0.2,0.7,0.2c-1.2,0.5-1.9,3.1-0.5,3.1
				c-0.2,0.2-1,0.7-1,1.2c0.5,0,1-0.2,1.2,0.2L583,745.2z M577.3,804.5c0.2-0.7-1.7-1-1-2.2c-1.5,1.7-3.6,4.1-3.6,6.7
				c-0.7,0.7-3.8,4.1-5.8,5.8c-1.2,1-0.5,5.5-4.3,3.8l-0.2-0.5c0,2.6-2.4,4.8-1.2,7c-1,0.2-1.9,1.4-3.4,0.7c-1.9-2.2-1.9,1.9-3.6-1
				c-3.4-1.2-1.4,3.1-4.3,3.4c-0.5,2.2-0.7,1.9-1.9,3.6c-0.7-1-1.9,1.9-3.4,0.7c0.7,3.1-3.1,3.1-2.2,6.5c-2.7,0.5-1.5,4.6-3.6,6.5
				l-3.8-0.7c-2.9,3.6-2.9,7.7-8.4,7.7c-0.7,0-2.4-1.4-3.1,0.2c0,0.5,0.5,0.7,0.2,1.2c-0.5,1-1-0.5-1.4,0.7c0.1,0.2,0.3,0.2,0.6,0.2
				c-1.1,0.3-1.5,2.3-2.7,2.7l0.2,0.2c-2.2-0.5-3.8,4.6-5.8,0.2c0.7-1-0.5-2.4-1.4-2.4c0-0.2,0-0.2,0.2-0.5c-0.2-0.5-0.7-0.5-1,0v1
				l-0.5-0.7c-0.2,0.7-1,1.2-1.4,1.7c-3.6-3.1-4.3,2.4-8.4,1c-0.5-0.7,0-2.4-1.4-2.4c-1-0.5-1.4,1-1.7,1.4c-1-0.5-1.7-1-2.9-1
				c-0.2-2.4,3.8-0.7,5.5-1.4c-7.2,0.7-11.3-2.6-15.4-7c-1.2-0.5-1.2,0.7-1.9,0c0.7-0.7,0-1.9-1-2.2c0,0.5-0.5,0.5-0.7,0.5
				c1.2-3.6-4.1-1.2-4.8-4.3c-0.7,0.5-1-0.5-1.7-1.2c-0.2-0.5,0.7-0.7,0-1c-0.5,0-1-1.2-1.5-0.2l-1.4-4.3h0.2
				c-1-4.8,3.4-8.4,5.5-10.6c-1.4-0.7,0.7-1.9,0.2-2.6c1.9-1.7,4.3-4.6,4.1-7l1,0.2c0.5-3.4,3.8-3.8,2.6-7c3.8,1.2,1.7-3.8,5.1-5.3
				c1.4-0.2,2.2-1,2.9-1l1-1c0.7,1.2,4.8-3.1,5.8,1.2c0.7,0,0.7,4.8,3.1,3.8c0-0.2,1,1.4,1.7,1.9c1.7-2.4,1.9-4.6,3.1-7.2V800
				c0.5-1.4,2.6-2.4,1.9-5c1-1.2,0.2-3.4,1.9-4.6c-2.4-1.2,2.4-1,0-2.6c0.7-3.4,3.4-3.6,1.9-7.7c2.4-2.2-2.4-5.8-0.5-7.9
				c1.7-2.9-1.9-6.2,0-9.1c-1-2.6,0.7-5.8-0.2-7.7c0.2-1.7,0.5-3.1,0.7-4.8c0.5-1,0.5-4.8,0-5.3l1.2,0.2c1-1.4-0.5-2.9,0.2-4.3
				l0.5,0.2c-0.5-1.7,2.2-3.4,0-5.5h0.5l-0.2-0.5c1-1.9,0.2-4.3,1.7-6c-0.2-1,0.2-1.4,0-2.4c-0.5-1.4,0.6-2.9,0.4-4.1h0.1
				c1.2-0.5,0.5-1.7,0.7-2.6c-1.9-0.7-0.2-1.7,0.2-2.4c0.5-4.1,0-7.9,1.4-12.3c0.2-1.4-1.7-1.9,0-2.9l-0.5-0.5
				c0.2-0.7,0.5-4.6,0.2-6.7c-0.2-4.1,0.7-8.2,0.7-13c0.2-1.7-0.7-4.1-0.2-5.8c0.9-1.6-1.5-5.4-0.1-7.5c-0.2,0.1-0.4,0.1-0.6,0.1
				v-0.5l0.7,0.2c1.4-1.9-0.5-2.9,0.2-4.6c0-1.2,0.5,1.7,1.2,0c-0.5-2.9-1.2-4.3,0.2-7.2c-1.2-1,1-2.4-0.2-3.4
				c1.2-0.5,0.7-1.7,0.2-2.2c2.4-2.9,0.2-7.2,2.2-9.8c-0.7-4.8,1.2-9.1,1.7-13.9l-0.2-2.4l0.1,0.1c-0.6-0.8,2.6-3.1,0.3-3.8
				c0-2.9,1.2-3.6,1.7-6l-1.4-1.4c1.9-0.5,1.2-2.2,2.2-4.1c-0.2-0.2-0.7-0.2-1-0.2c1.9-1.7,0-3.9,1.7-5.3c0-2.2,0.7-2.6,0-4.8
				c1.7-0.7-0.7-2.6,1-3.8c-1.4-2.2,2.2-2.6,0-5c1.7-1.4-1-3.4,1.2-4.3c0.2-1.9,0.5-5.3,0.7-7c1-2.4-1.4-4.8,0.5-7
				c-0.7-0.2-0.7-1-0.7-1.7l0.2,0.2c0.7-2.6,1.4-5.3,0.7-8.6h0.2c-0.7-1.7,1.4-3.4,0.2-4.8l0.2,0.2l0.5-3.4c0.5-1.7,1-1.2,1.4-2.9
				c-0.5-1.9,0.7-4.1,0-6.2c0-1.7,1.9-2.6,0.5-4.6h0.5c0-2.2,0-3.6,1.2-5.8c-0.5-2.2,1.2-4.3-0.2-6.2c0.5-0.5,0.2-1.2,0.2-1.7
				c0.5,0,1.4-1.2,1.4-2.2c0.2-2.9,0.7-3.8-0.2-7c0.2,0.2,0.2,0.5,0.5,0.5c-0.5-2.2,0.5-5.8-0.5-8.2c0.2,0.2,0.2,0.2,0.5,0.2
				c-0.2-1.4-0.5-2.6-0.7-4.3s1.7-1.2,1.7-2.9c3.6-3.8-0.7-10.1,3.1-13.7c0.2-1.2,0.7-3.1,1-4.1l0.2,0.2c0.5-0.5,1.2-1.9,0.5-2.9
				c0-1.2,0-4.3,1.2-5.3c-0.2-0.7-0.2-2.2,0.7-3.1l-1.9-1.4c3.1-1.7,1.7-5.8,2.4-7.7c-0.2,0,0.7-4.6-1-5.3c0.5,0,0.7,0.5,1,0.7
				l0.5-0.7c-0.5-1.2-2.4-1-2.2-1.9c0.5-0.5,1,1.9,2.2,0.7l-1.4-2.2c1.4-1,0.7-1.7,1.9-3.1c-1.9-1.7,2.2-3.8-1.2-5
				c2.6-1.4-0.7-1.2,1.2-3.1c-2.4-2.2,1.9-1.9,0.5-4.8l-0.5-0.5c1.2-1.9,0-2.4,0-4.6l-1.9-1.4l-0.2,0.2l-1.7-1.9c-0.7,0-1,1.4-1.9,1
				l-1-2.2l-1,0.7c0-1.7-1.9-0.5-2.4-2.2c-1.2,1.2-1.9-1.7-3.4-0.2c0-1.7-2.9-0.5-4.3-1.2c-0.5,0.7-1,0.5-1.7-0.2
				c-2.6-1.4-6.7-0.7-8.9-2.9c-1.4,1.4-2.9-0.5-4.3-0.5l-1.9-2.4c1.7-6,5.5,2.2,8.2-1.9c-0.2-0.7-1.2-0.7-1.7-0.5
				c0.2-0.7-1.4-1.4,0-1.9c0.5-0.5,2.2-0.7,2.6,0.2c-0.2,0.7-0.7,1.2-0.5,2.2c2.9-0.7,7.2-2.9,10.3-4.1c3.4-3.1,4.3,5.5,7.2,0.5
				v-1.7l0.5,1c1.2-2.9,1.4-5,1-7.9l0.2,0.2c1.2-3.6,0-7.7,2.4-11c-0.2-1.7,1-3.1,0.2-4.1c1.7-1,0-5.3,1.4-8.4
				c-0.7-0.7,0-3.6-0.7-4.6c0.7-3.4-2.6-8.2-0.2-12.7c1.2,0,3.1-1.2,4.6-0.2c0.5,2.2,2.4,0,3.4,2.2c0-0.2,2.6,2,3.2,1
				c0.3,0.4,1.1,0.5,1.4,1h1.7c-0.2,0-0.2,0.2-0.2,0.5c2.9,0.5,7,1.4,10.1,0.2l0.5,1.7c0.2-1,2.9,1.9,4.1,0.7l0.5,1.2
				c0.7-0.2,1.2-0.7,1-1.4c0.5,0,0.5-0.5,1-0.7l0.2,0.2l-0.7,0.7c0.7,1.2,1-0.2,1.9,0.3c1.4,1.4,4.3,0.2,4.8,3.1
				c0.7-0.5,2.6,1,3.8,1c2.4-0.2,2.6,2.4,3.4,4.1c1.2,0.5-2.4,2.6,0,3.1c-0.7,1.9,0.2,4,0.2,5.7c-0.1,0-0.2-0.1-0.2-0.2
				c-0.2,0-0.2,0.5-0.2,0.7c1.9,0.5-1.2,2.4,0.2,3.1c0,1.2-0.2,3.1,0.2,4.3h-0.2c-0.2,2.6-1,5.5,1,7l-0.5,0.2c0.2,0.5,0.7,0.5,1,0.5
				l0.5-0.7v1.5c-1.4,0.5-0.7,1.7-1.4,2.9l1.2,1.4l1-0.7l1.7,1.4c0.5-0.2,0.2-0.7,0.2-1c0.5-0.2,0.7,0.2,1,0.5
				c0.5-1.4,1.9,0.7,2.2-0.7c2.4,0.2,5-0.2,7.2,0l-0.2-0.2c3.8-0.5,9.4-0.7,12.7-1.2c2.2,1.2,4.1,0.5,6,0.2c2.7,1,6.5-0.5,9.4-1
				c1.2,1.7,1.7-0.2,3.6,1c1.4,0.5,4.1-1.2,5.3,1c1.9-1.7,3.4,1.9,5.5,0l1.4,1c0.2-0.5,0.7-0.5,1.4-0.5c0.7,2.4,1.7-1.2,2.9,1
				c1.9-1.9,5.1,2.2,6.7-0.5c1.9,0.7,3.4-0.2,5-0.5c3.6,2.9,7-1.7,10.1,0.5v-0.2c2.2,2.9,5.8-0.2,9.1,1.2c0.2,0.2,0.5,0.7,1,0.5
				l0.2-0.2c1.9,1.2,6.3,0.2,8.4,1c0.2-0.5,0.7-0.5,1.2-0.7l0.5,0.7c-0.2-0.2-0.5,0-0.5,0.2c1.7,0.5,4.3,1.7,6.5,0v-1
				c5,0.5,6-4.1,11.3-4.3c0.5,1.2,2.2,0.2,2.9,1c4.6,4.1,10.1,7.4,9.9,14.2c2.9,0.5,5,2.6,7.2,3.6l0.2-0.2c1.7,1.4,4.6,5.8,4.6,9.6
				l-0.2-0.2c0.2,1.4-2.6,2.6-1,3.9c-0.2,0.2,0,1.9-1,2.6l0.7,0.7c0,2.4-0.7,4.6-1.7,6.7h0.5c-1,0-0.7,1.7-1,2.4h0.5
				c1.2,2.6-2.4,5.5,1,7.2l-0.7,0.5c0.2,0.5,0.7,0.5,1,0.5c-0.5,0.7-0.2,2.2-0.2,2.9c-2.6,2.9,1.7,9.9-3.8,12.3l-3.4,1.7l0.2,0.5
				c-2.2,1.2-5.8,1.4-6.7,4.6c1.4,1.4-1.2,2.6,0.7,4.1c-1.2,0-1,0.5-1.2,1.4c1,1.9-0.7,3.9,1.2,4.8c-2.2,1.9-0.5,5.3-1,7.7
				c-1.4,3.8,0.5,5.5-0.5,7.9c0.5,2.4-0.5,2.6,0.5,5h0.5c-0.5,1.2-1.4,2.6-0.2,3.6c-1.7,1.9-1.7,5-1.2,7.2
				c-1.7,5.5,0.5,10.8-2.2,16.3c0.7,3.1-1.2,5.5-0.7,8.6c-1,0.7-0.2,3.1-1.7,3.8c-0.2,2.6-0.5,4.1-1.7,7c0.7,0,0.5,0.7,0.5,1.4
				c-0.5,0.7-1.2-0.7-1,0.7c0.2,2.2-0.5,6.7-1.2,8.4c-1.2,2.2-1.4,4.3-2.2,7.5c0.2,1.4-0.2,4.1,1.4,4.6c-1,1-0.5,2.9-1.4,4.3
				c1,0.7,0.7,2.4,0.5,3.4h0.5c-0.5,0.2-0.5,0.7-1,1.4l0.2,0.2c-0.1,0-0.1,0-0.2,0.1c1,2.2-1,5,1,7.7c-0.7-0.2-0.7,0.7-1.2,1
				c1.7,1.2-0.7,3.4,1,4.3h-0.2c-0.7,0.5,0,1.5,0.2,1.9l-1,1.2c1.4,1.4-1,3.8,0.7,4.8l-0.5-0.2c-2.9,2.9,2.2,6.7,0.5,10.1h0.2
				c0,0.2,0.3,0.8-0.7,1.2c0.2,0.2,0.7,0.2,1,0.2c-1.4,0.7-1,2.6-0.5,3.6h0.2c-2.6,0,0.2,2.6-1.2,4.6c1.7,2.2-0.7,5,1,7h-0.5
				c0.2,1.5-0.2,3.9-0.5,5.3c0.5,0,1.2,0.2,1,1.2l-1,0.7c0.5,1.2,1.4,0.7,1,1.9h0.2c0,0.2-0.2,0.5-0.2,0.5l-1.2-1
				c-0.7,2.2,0,4.3,0.2,6.5c-0.2,0-0.5,0-0.5-0.2c-0.7,4.1-0.7,9.6-3.6,13c1.9,3.6-1.7,6-0.5,10.6c-1,1.4-1,4.3-1,6.2
				c-3.1,1.9-3.8,7.9-6,10.3c1,1.4-2.2,1.9-1.9,3.1c0.5,3.6-0.5,3.8-1.4,7.2c-2.4,2.7-4.1,8.2-3.4,11.8h-0.2
				c-0.2,4.6,0.7,11.5-0.2,15.6c1.2,0.7-0.7,1.4,0,2.6c-0.7,1.4,0.2,4.6-1,6c1,0.5-0.7,1.4,0.7,2.4c-1,0.7-0.7,2.9-0.3,3.8
				c1,1-1.9,2.6,0.7,3.6c-2.6-1-0.2,2.2-1.4,3.4h-0.2c-0.2,3.6,0.5,6.5-0.5,10.1c-1.2,0.7-0.2,3.4-2.2,4.3
				c-0.2,5.5-0.5,7.2-0.5,12.5c-3.1,2.4-2.2,4.1-4.3,7.4l0.2,1.5c-0.2-0.5-1.2-0.3-1.4,0.2c-1.2,0.2,0,2.2-1.2,2.2v1l-0.2-0.2
				l-1,2.4v-0.2c-3.1,1-7.2,4.1-8.9,6.5c-2.4,0.7-3.6,5.8-7.4,3.8c-0.5,1.7-4.6-0.2-3.4,2.7c-0.2-0.5-0.7-0.5-1-0.5
				c-2.2,2.9-3.6,1.4-6,4.8c-1.7-1-1,2.2-2.6,2.4c0-0.2-0.2-0.2-0.2-0.5c-1,0.7-2.6,1.7-3.8,1.9c-2.2,1.9-4.6,4.3-8.4,5l-1.7,1.2
				c0-0.7-0.5-1-0.7-1.2c-1.4-1-4.6,0.5-5.8,0l0.5,1.2c-3.4-1.7-4.8,3.8-8.2,2.2c-0.7,2.6-3.8,1.2-6.2,1.2c-0.2-0.7-0.2-1.7-1.2-2.4
				c-0.7-0.2-1.9,0.7-1.4,1.2c-1.9,1.2-4.1-2.2-5.8,0.7c-1.7,0.5-4.3,1.4-4.8-1l0.5-1.5c-2.2-1.2-5.5-1.2-7-2.6
				c-0.5,2.9-1.7,5-3.6,6.7c-1-1-4.8-3.1-2.2-4.6c1.2-1.4-0.2-1.4-0.2-2.9l-0.7,0.2l0.5-0.7l-0.2-0.2c-2.4,0.2-1.4,5.8-5.3,3.1
				c1.7-2.2-1.4-2.6-1.9-3.8c2.9-1.9,0.2-6.2,0.7-9.4l-0.7,0.7c-1-1.4,1.7-1.4,0-2.6c-1.2,1.2-2.6-0.2-3.8-0.7
				C578.9,806.9,577.5,805.7,577.3,804.5z M576.3,801.9c1.4,0.2-0.5-1.2,1-1c-0.2-0.7-0.2-0.7-1-1
				C576.1,800.5,577,801.4,576.3,801.9z M652.9,661.2c0.2-1.2-1-0.5-1.4-1c1,0,0.5-1.7,1.4-0.7l-1.2-2.2c-4.1,0.2,0.7,2.6-1.9,4.3
				L652.9,661.2z"/>
			<path d="M494.6,969.3c0.1,0.1-0.2,0.1-0.5,0H494.6z"/>
			<path d="M494.1,969.3h-0.4c0,0-0.1-0.1-0.1-0.1C493.8,969.2,494,969.2,494.1,969.3z"/>
			<path d="M471.8,831.2l0.7,0.5l-1,1.4c-0.7,0-1-1.2-1-2.2c0,0.5,0.5,1,1,1.4C471.8,832.2,472.5,831.7,471.8,831.2z"/>
			<path class="st0" d="M467.3,762v1.9C466.1,763.5,467.3,762.8,467.3,762z"/>
			<path d="M463.2,471c0,0,0,0.1,0,0.1c-0.4-0.1-0.7-0.4-0.3-0.1H463.2z"/>
			<path d="M462.5,467.6c0,0.1,0,0.3,0,0.4C462.3,467.6,462.2,467.4,462.5,467.6z"/>
			<path d="M460.2,467.3c0.1,0.1,0.1,0.2,0.1,0.3l-0.2-0.2L460.2,467.3z"/>
			<path class="st0" d="M451.4,813.4c1.9-2.2,5,1.4,2.9,3.1c-0.5-0.7-1.9,0.2-2.2-0.7c0.5-0.7,0-1.4,0.2-2.2
				C452.1,813.4,451.7,813.4,451.4,813.4z"/>
			<path class="st0" d="M574.8,366.8l1.5-1c-1.2-1.9-4.8,1.9-5-1.4c0.5-1.9-1.2,0-1.7-1c-1,1.2-1.9-1-1.9-1.4c-0.5,0-1-0.5-1.2-0.7
				c0.5-1.2-0.5-1.7-0.7-3.1c-0.7,0-2.2-1.7-3.1-1c1,0.2,0.2,1,0.7,1.2h-0.7c0.2-0.5,0-1-0.5-1.4c-1.2,1.2-1.4-0.5-2.6,0.2
				c-0.2-0.2-0.2-0.7-0.5-1l-1.5,1.4c-0.7-0.5,1-1.4-0.5-1.9c-2.2,0.5-3.6,1.7-5.8,1.2c-1,0.2-3.4,0.7-4.6,1c0.2-0.7-0.5-1-0.7-1.4
				c-2.4-0.7-3.6,1.7-6.5,0c-0.5-1.2-0.7-3.1-2.6-3.6l-0.2,2.2c-3.4,0.2-6.2-1.2-7.4-4.3V348h0.2c-0.7-2.2,1.2-6-2.2-6.3
				c-1.7,2.4-3.6-1.2-5.3-1.2c-0.2-0.7-0.2-1.7,0.2-2.4c-1,0-2.6-2.4-3.1-0.2c-3.4-1.2-4.6-4.3-8.4-4.3c-2.2-1.7-5-2.9-7.9-4.1
				c-3.8,0-7,0.2-10.8,1l-1.7-0.7c1.7-2.2,5.3-2.4,7.7-3.1c1.9,0.2,3.4-0.5,5-0.5c2.9-0.5,6.3-2.2,8.9-0.7c1.2-2.2,1.2,1,2.9-0.7
				c1.4,2.2,2.9-1.9,4.1,0.5c2.4-1,4.6,1.7,6.3-0.7c1.2,1,2.4,0.2,3.6,0.5v-0.5c3.4,0.2,7,1.7,9.6,0.5c2.9,1.9,6,0,8.2,1.5
				c8.4,0.2,14.6,0.7,22.6,0.5c1.7,0.7,5.8,0.5,6.7-0.7c0.5,0,2.6-0.2,3.6,0.2c0.7-2.4,3.4,1,4.1-1.7c2.9,1.2,5.5,0.2,7.7-0.7
				c1.2,1.7,4.1-0.7,6,1c0-1,2.4-0.5,3.1-0.2c1.9-0.2,4.6-0.7,7-0.7c1.9-2.4,3.8,0.7,6-0.7l0.7,0.5c2.9-0.7,5.8-1.7,7.7-3.1
				c1.7,1.9,2.6-1,4.1-1v0.5c1.9-1.7,6.7-4.1,7-5.5c2.2-1,3.4-3.8,5.8-5.3l-1-1.2c1.4,0,0.7-0.2,1.2-1.4l0.2,0.5
				c0.5-0.5,1.7-1.9,0.7-2.4c2.7,0.2,0.7-2.4,1.7-3.4c-1.9-1,2.9-2.6,0.7-4.8c1.9-1.4,0-5.8,1.9-6.3l-1-1.4l0.2,0.2
				c1.2-0.7,0.5-1.7,0.7-2.6c0.5-2.2,0.5-3.1,0.7-5.8c2.4-1.7-1-6.7,2.6-7.7l-1-2.4l0.5,0.5c0.2-0.5,0.2-0.7,0.5-1.2
				c-0.1-0.5-0.4-0.6-0.7-0.5c0.9-0.7,1.3-1.2,1.6-2.6V264c0.2,0,0.5-0.5,0.7-0.7c-1.7-1.9,2.2-3.6,0.2-5.8c0.7-0.2,1.4-1.4,0.5-1.9
				c-0.2,0.2-0.7,0.2-1,0.2v-1c1.2,1.2,2.2,0.7,2.6-0.7c0-0.5,0.5-0.7,0.2-1.2l-0.5-0.5c0.2,0,0.2-0.2,0.5-0.5
				c-1.7-0.7-2.4-0.5-2.9-1.4v0.7l-0.5-0.7c-1,1.7-1.9-0.7-2.9,0c-2.2-1.2-4.3-1.7-7-1.7v0.7c-1.2-1.2-2.9-1.7-4.6-2.2
				c-0.5,1.4-1.2,0.5-2.2,1.2l-1.7-1.2l-0.5,1.2c0.2-1.2-1.4-1.4-2.2-1c-1-0.2-2.4,0-3.6-0.7c-3.6-2.2-7,0.5-11-0.2
				c0-1.7-1.2-0.5-1.9-1.2c-1.9,1.4-5.3-0.2-6.5,1.2c-2.4-0.2-4.6-2.6-7,0c-1.7-1.2-2.4,1-3.6-1c-1.2,3.4-3.9-1.9-5.5,0.5
				c-2.2-1.2-5.5,0-8.9-0.2c0-0.2-0.2-0.5-0.2-0.5c-0.5,0-1,0-1,0.5v0.7c-0.2-1.1-1.9-0.8-2,0.1c-0.5-2.4-3.2,0.2-4.3-2
				c-1.4,1.2-3.4-1-4.3,1c-1.4,0.5-2.2-1.7-4.1-1.4c-1.4,1.9-2.9-0.2-5,1.7c-0.3-1.4-1.5-0.5-2.2-0.7c-0.5,0.7-1.2,0.5-1.7,0.5
				c-0.2-0.5-0.7-1-1.4-1l-0.7,1.2c-0.7,0-1-1.2-1.9-1.2l-0.7,0.7c-1.4-1-2.9-0.5-4.3-0.2v-0.7c-5,2.2-12-1.2-16.3-0.7
				c-0.2-0.5-0.5-0.5-1-0.5l-0.2,1.2c-1.4-2.2-4.3,2.2-5.5-1.4c-1.2,1-1.9-0.5-3.6,0c-1.4,1-1-1.4-2.2-0.2l-1-1.2v1.2l-0.7-0.5
				c-1.4,0.2,0,2.4-1.9,2.2c-1.9,3.8,0,8.9-2.4,12.2l-0.2-0.5c0.2,1.9-1.4,3.6-1.9,5.3l-0.5-0.2c0,2.6-1.9,2.2-1.7,4.6l-0.2-0.2
				c-1,0.2-0.5,2.2-1.9,1.7c-0.5,0.5,0,1.2,0.5,1.4c-0.5-0.2-1.7-0.2-1.9,0.5l0.2,1c-0.7-0.2-1.4,0.7-1.4,1.2c1,1.4-0.7,1.2,0.2,2.9
				l-1,1.2c1,1.9-2.9,4.1-1.4,6.2l-0.7,1.2l0.5,0.5c-3.4,5.3-3.8,12-9.1,17.3c-0.5,1.2-1.7,2.2-1,3.1h-0.5l-0.7,4.1
				c-1.4-0.5-1,1.7-1.7,2.2l-1.4,1.7c0.7,0.2,0.5,0.7,0.2,1.2c-1.4-0.7-1.4,1.7-2.2,2.4c0,2.4-1.4,4.3-2.6,6.2
				c-0.2,0.2-0.7,0.5-0.5,1c0,0.7-1.2,3.6-2.6,4.3c-0.7,2.6-4.1,3.4-5.3,6.2l-0.2-0.5c-1.2,0.7-0.7,0.7-1.2,1.9
				c0.5,0.7-1.2-1.2-1.4,0.2c0.2,0.5-0.2,1.2-1.7,1.7c0,1.9-1.4,0.5-1.7,2.4v0.5h-1.2l-0.2,1.9c-0.7-0.2-2.2-0.2-2.6,0.5
				c-0.5,0.3-1.9,1.5-2.9,1.7c-1.7,2.9-6.3,2.2-8.4,6c-1.4,2.2-1.7,3.4-5.3,4.1v0.5l-0.5-0.2c-1,2.9-4.3,1.2-6.7,2.6
				c-1,1.7-1.7-0.7-3.4,1.4c-1.2-0.2-3.4,0.5-3.8-1h-1.2v1.2c0-2.2-2.4-0.5-3.6-0.5c-1.2,1.7-2.9,1.2-4.3,2.4
				c-2.6-0.2-3.4,0.7-5-0.5c-0.5-1.7-1.4-0.5-2.4-1.2c-1.7,2.2-4.3-0.2-4.8,1.5c-1-0.5-1.2,0-1.5,1c0.2,0.5-0.5,1.4-1.4,1.2
				c-1,1.2-1.9-1.7-2.4,0.5l-0.2-0.2c-3.4,0.7-2.6,5.3-6.2,5.8c-1.2,1.7-3.6,1.9-4.1,4.3c-1-0.5-4.6,1.2-4.6-2.2
				c1.4-4.3,4.8-8.6,7.2-11.8c4.3-7.7,10.6-16.6,13.2-25.2c1,0,1.2-2.6,1.9-3.6c4.3-5.8,7.7-10.8,12.2-14.9c1.4-3.1,4.6-5.5,7.4-8.2
				l-1-0.2c1.7-0.5,2.6-3.6,4.6-4.8v-1.2c2.2,1.2,2.4-2.2,2.9-2.9l0.5,0.2c1.7-3.1,4.6-6.7,5.8-10.6c1.9-3.6,4.6-6.2,5.8-10.6
				c2.2-4.6,5.5-7.4,7.9-12.3c0-0.2,0-0.4-0.2-0.6l0.4,0.4c0.7-3.8,3.4-4.6,4.1-7.2l0.2,0.2c2.4-3.1,2.9-7,2.9-10.8
				c1.2-0.7,0-2.9,0.2-4.3c0-3.1-3.6-1-5.5-1.7c-2.6,2.4-7.2,0.7-9.9,1.2l-1-1c-0.2,0.4-0.6,0.5-0.5,0.8c-0.4-0.4-2-1.1-2.8-0.3
				c0.5-0.5-0.7-1.4-1.2-1.4c-0.5,1-1.2,0-1.7,0c0-0.5-0.5-0.7-0.7-1l-0.7,0.5c-0.5-1.9-3.6-0.7-4.6-2.9c-2.6,0.2-4.8-1.4-6.7-3.4
				c0.2-0.5-1-1.9-1.4-1.4c2.9-3.1-2.6-4.6-3.1-6.7c-2.4-0.2-3.1-2.2-5.5-1c0-2.6-0.5-6.5-3.1-9.1c-1.4-4.6-2.2-9.9-0.2-13.9
				c0.5-3.4,5.5,0.5,4.3-3.6c0.7,0.7,2.4,1.2,3.6,0.7c2.2,0.2,6-1,7.2,0c4.8,0.7,10.8-3.4,15.6-2.4c1.7-2.4,4.3-0.2,6.7-1.2
				c1.4-0.5,3.8-1.2,5.3-0.5v-0.2c1.9-0.5,5.3-0.5,6.7-1.9c0.5,0,0.7,0.7,1.2,1c2.6,0,2.4-4.1,3.6-5.8l1-0.2
				c-0.7-4.1,3.9-7.2,3.4-11.8c1.7-1,1.2-4.1,3.9-3.4c0.5,1.2,1.4,0.7,2.2,0.5c3.4,0,5,3.1,7.9,2.9c0.2,0.7,2.9,0.5,4.3,0.2
				c0.5-0.7,2.2-1.2,3.4-1.7l1.7,2.2l0.5-0.3v1c2.4-2.2,1.7,2.6,4.3,1.4c3.6,1.7,4.3-0.2,6.3,3.8c-0.5,0.7-0.2,1.7-0.5,2.4
				c1.4-0.2,1,0.7,1,1.7c1.7,1,1.9,4.8,4.8,2.9c-0.5,0.5,1.9,1.2,2.4-0.2v0.2c1.2,1,2.2-1.4,3.4-0.2c-0.2,0.2,0,0.5,0.2,0.5
				c0.5,0.2,0.7-0.2,1.2-0.5v0.2c1.4,0.2,3.4,1.2,4.8,0c1.9,2.6,3.4-1.4,5.3-0.5c2.2,1,3.1,0.2,5.3,0l2.4,0.2v0.2
				c3.8,1,5.8-0.2,9.1,0.7c0.7-0.7,3.1,1,4.3-0.5c0,0.7,0.5,1,0.7,1.2c1-0.5,2.4,1.2,3.4-0.2l0.7-1.2c0.5,3.1,3.6,0,4.6,1.7
				c2.4-1.4,5.8,0.7,7.9-0.7c3.1,2.9,6.3,0.2,8.4,1.2c2.2-0.2,6,0.2,8.6,1.4c1.7-2.2,4.3,1,6.7,0.3l2.6-0.7l-0.5,1
				c6.5-0.7,9.6,2.4,15.4,2.9c0.6,0.2,1.2,0.6,1.7,0.1c-0.5,1,1.2,0.9,1.5,1.6c1.9,1.4,4.8-0.2,6.7,2.2c1.7-0.7,1.9,1.2,3.4,0.5
				c0.2,1.4,1.9,0.7,2.7,1.4v-1.2c0.5,1.4,1.9,1.2,2.6,2.2l0.5-0.7c0.2,0.7,0.5,1,1.2,1.2c0.5-1,1.9,1.2,2.9,1.2
				c1.9,3.4,8.4,3.6,11.8,6l0.3-0.2c0,0.1,0,0.1,0,0.2l0.7,0.5l0.5-0.5c1.2-0.5,0.2,1,1,1.2c2.6-1,4.1,2.9,6.5,1.7
				c0.5,1.4,2.6,0.7,3.4,1.2l0.2-0.7c1.4,1.7,3.8,3.1,5.8,3.4v-1c0.5,0.2,0.7,0.5,1.4,0.2c-0.2,1.2-0.2,1.9,0.7,2.6l2.6,0.2
				c0.5,0.7-1,1.9,0.2,2.6l0.5-0.2c1.2-0.5,1.2,1.9,2.2,2.6l0.7-1c1.2,3.1,7.5,4.3,9.6,5.8c2.6-0.5,4.8,0,5.5-1.7
				c1.9,0,3.8-0.7,5,0.7c1,1.7,1.7,4.3,3.4,7l1.2-0.5c-1.4,0.7,0,2.2,0,3.6c0.5,2.9,0.7,4.3,0.5,7.7c-0.2,0-0.4-0.2-0.5-0.4l0.2,1.3
				l-0.2-0.2c-0.5,0.2-0.2,1-0.2,1.4c0,0.5,0.5,0.2,0.7,0.2c-0.7,1-1,1.9-0.7,2.6h0.7c-0.5,0-0.5,0.5-0.7,0.7c0,0.7,1.2,1.9,0.2,2.4
				c0,2.9-0.5,5.3,1.4,7.7h-1c-0.5,2.4,1,5-0.5,7.4c2.2,1.8-0.5,4.6,0.3,7c0,0,0,0,0,0c-1.2,0.7,1,1.4,0.5,1.7H698
				c0.7,4.3,0.2,8.9,0.2,13.2l1,0.5c-2.2,1.9,0.7,3.6-1,5.5l0.5,1.4c-2.6,1.2,0.5,2.9-1.9,4.6c0,2.4-1.7,4.8-1.4,6.5h0.5
				c-1.2,2.2-0.5,4.3-2.9,5.8c-0.5,4.3-3.4,5.5-3.6,9.8c-1.2-0.2-1.2,1-1.2,1.9l-0.5-0.5c-2.9,3.1-3.8,6-4.1,10.1
				c-3.1,0.7,0.5,4.6-3.1,4.8c-1.7,3.1-6.3,5.3-6,9.6c-2.2,1.2-4.8,6.2-7.9,6c-0.2,1.4-2.9,1.9-2.9,3.6c-1,0.7-2.6,0.7-3.8,0.7
				c0.2-1.2-0.7-0.2-1.2-1.4c-2.6,0.2-2.2,1.7-3.1,2.9v0.7l-0.5-0.2c-1.2,0.2-2.9,5-5.3,1.7c-0.7,0.5-1.9-1-2.4,0.5v0.7
				c-2.6,1-6,0.2-8.2,2.6c-0.7-0.7-2.4-0.7-2.9,0.2c-0.7,1.2,0,3.1-2.2,3.6c-2.6,0.2-5.8-0.5-7.4-1.9L626,372l-0.5-0.7
				c-1.5,2.2-4.1,4.3-6,2.6c-3.6,1-4.8,3.1-8.2,1.4l-0.8,0.4c0.6-0.5-0.3-2.3-1.6-2.3c-2.2-1-4.1,3.1-5.8-0.5
				c-0.2,0.5-1,0.2-1.4,0.7c-0.2-0.7-2.4-2.2-3.4-1.4c-1.7-1.4-1.7-0.7-3.8-2.4c-0.5-0.2-1-0.7-1.7-0.5l-0.5,1.2l-0.7-1.9
				c-1.5,1-3.4-2.4-5.3-2.9l-0.7,0.7l0.2,0.2c0,0.2-1.2-0.7-2.2-0.2v-0.7c-2.2-0.7-2.4,1.9-4.3,1.9c-1.7-0.2-2.9-3.1-4.3-0.7
				L574.8,366.8z"/>
			<path d="M448,241.2c0.1,0.1,0.1,0.1,0.1,0.2C448,241.3,448,241.3,448,241.2z"/>
			<path class="st0" d="M441.1,833.8c0.5,1,1,0.2,1.5,0v-0.7c2.2,1.2-1.7,1-0.5,2.9c-1,0-1.5-0.2-1.5-1L441.1,833.8z"/>
			<path d="M440.9,688.3C440.8,688.3,440.8,688.3,440.9,688.3C440.8,688.3,440.8,688.3,440.9,688.3L440.9,688.3z"/>
			<path d="M440.8,688.4C440.8,688.4,440.8,688.4,440.8,688.4L440.8,688.4z"/>
			<path class="st0" d="M438.2,826.2l-0.5,0.5c0-0.1,0-0.4,0-0.6L438.2,826.2z"/>
			<path class="st0" d="M438.2,824.9l-0.5,0.5c-0.1-0.7-0.3-1.5-0.8-1.5c0.3-0.1,0.7-0.4,0.8-0.9c-1.7-0.7-1.2-2.9-2.6-3.6l1.9-0.2
				v-0.2l1.4,1.4c0,0.2-1,0.5-1.2,1.7c1.2,0.7,1.4-1,2.2-1.4l0.2,0.2l0.5-0.5c1.4,0.7-0.7,1.9-0.2,2.9l-1.2,1.4l0.5,0.2
				C439.4,825.2,438.5,824.5,438.2,824.9z"/>
			<path class="st0" d="M437.7,826l-0.5-0.1l0.4-0.4C437.7,825.7,437.7,825.9,437.7,826z"/>
			<path class="st0" d="M436.5,824c0.1,0,0.3-0.1,0.4,0C436.8,824,436.6,824,436.5,824z"/>
			<path class="st0" d="M428.1,832.6c2.2,0.5,0.7,1.4,1,2.9l-1.9-0.7c0.5,0,1-0.7,1.2-1L428.1,832.6z"/>
			<path class="st0" d="M425.5,824c0.5-1,1.4-0.2,2.2-0.5c1.2,0.2,1.9,1.9,3.1,2.4c-0.2,0.5-1,0.7-1.2,1.4c-0.5,0-1.2-0.2-1.4-0.7
				l-2.6,2.2l-1.4-3.4l-0.5,0.7v-1.2c0.2,0,0.5,0.3,0.5,0.3C425.5,824.9,423.8,822.3,425.5,824z"/>
			<path class="st0" d="M426.5,831.7l1.2,1.4l-0.9,0.5c0.1-0.2,0-0.5-0.3-0.5V831.7z"/>
			<path class="st0" d="M426.7,833.6C426.6,834,426,834.5,426.7,833.6L426.7,833.6z"/>
			<path d="M413.7,414.1l0.2-0.2C413.9,413.9,413.8,414,413.7,414.1C413.8,414.1,413.7,414.1,413.7,414.1z"/>
			<path class="st0" d="M452.1,815.8c0.2,1,1.7,0,2.2,0.7c2.2-1.7-1-5.3-2.9-3.1c0.2,0,0.7,0,1,0.2
				C452.1,814.4,452.6,815.1,452.1,815.8z M437.3,822.1c0.2-1.2,1.2-1.4,1.2-1.7l-1.4-1.4v0.2l-1.9,0.2c1.4,0.7,1,2.9,2.6,3.6
				c-0.2,0.5-0.5,0.8-0.8,0.9c-0.1,0-0.2,0-0.4,0c0.1,0,0.2,0,0.4,0c0.5,0.1,0.7,0.8,0.8,1.5l-0.4,0.4l0.5,0.1c0,0.2,0,0.5,0,0.6
				l0.5-0.5l-0.5-0.1c0-0.2,0-0.4,0-0.6l0.5-0.5c0.2-0.5,1.2,0.3,1,0l-0.5-0.2l1.2-1.4c-0.5-1,1.7-2.2,0.2-2.9l-0.5,0.5l-0.2-0.2
				C438.7,821.1,438.5,822.8,437.3,822.1z M427.6,823.5c-0.7,0.2-1.7-0.5-2.2,0.5c-1.7-1.7,0,1-1.4,1.2c0,0-0.2-0.3-0.5-0.3v1.2
				l0.5-0.7l1.4,3.4l2.6-2.2c0.2,0.5,1,0.7,1.4,0.7c0.2-0.7,1-1,1.2-1.4C429.6,825.4,428.9,823.7,427.6,823.5z M428.4,833.8
				c-0.2,0.2-0.7,1-1.2,1l1.9,0.7c-0.2-1.4,1.2-2.4-1-2.9L428.4,833.8z M426.7,833.6C426,834.5,426.6,834,426.7,833.6l1-0.5
				l-1.2-1.4v1.4C426.8,833.1,426.8,833.3,426.7,833.6L426.7,833.6z M296,659.3c0.7-0.7,0,1,0.7,1.2c1.4-2.9-0.2-6.3,1.7-9.6
				c1-2.2-1.9-4.3,0.2-6.5c-0.2-3.8-0.5-7.2-0.7-11.3c1.2-0.5-0.2-1.7,0.2-2.9c-2.2-1,0.2-1.9,0-3.1l-0.7-8.2
				c-1.9,0,0.7-2.4-1.7-1.7l0.2-2.4c1.9-0.7,1.4-3.6,1.4-5c-1.9-4.1,1.7-3.6-0.7-7c1.4-1.4,0.7-4.1,1.7-5.8l-0.5-2.2l0.2,0.5
				c0.5-1.4,0.2-1.9-0.2-2.9c1.2-1.5,0-3.6,0.5-5c1.7-0.7,0.2-3.1,0.2-4.1c1.9,0-0.2-2.2,1-3.1c-0.5-4.3,2.6-8.2,0.2-11.5
				c1.7-1.4,0.2-2.9,1.9-4.1c0.2-3.6,1.4-6,1.9-9.1c1.7-3.4,0.2-5.5,2.2-9.1c-0.5-2.2,1-4.1,1.4-5.8l-0.7-0.5
				c3.1-3.1-0.5-6.5,2.2-9.6c-1.7-2.2,1.2-4.6,1.4-7v-3.1H310c2.2-2.2,0.2-7.2,2.4-9.6c0.2-1.8,0.4-4.3-0.3-6.2
				c0.1,0.1,0.2,0.1,0.3,0.2c3.1-3.1,0.2-8.2,1.7-11.5c-1.7-2.2,2.2-4.1-0.2-5.8c2.2-3.1-1-7.7,1.7-10.3c-1-7.2,1.7-15.1,1.4-21.4
				c0.7,0.2,1-0.7,0.7-1.2v-1h-1c0.5-0.5,0.2-2.4-0.5-3.1c-3.8,0.2-3.8-2.4-6.7-4.6c0-2.9,0.2-4.3-1-7.2l-0.3,0.2
				c-1,0-1.2-3.6-2.4-4.6c1.2-0.7,0.2-2.4,0-3.4c-0.5-2.4-3.4-4.3-3.1-6.5c0.5-0.5,3.1-1.2,2.6-3.4v-1c1.4-0.2,0.5-2.6,0.7-3.4
				c3.1-0.5,2.2-4.8,5.3-5.5c1.2,0.2,3.4,0.7,4.3-0.2c3.8,0.7,6,0,9.6,1.4c0-1.4,1.2,0.2,1.7-0.7l4.8,0.7l-0.2-1.1
				c0.3,0.3,0.7-0.1,1.1-0.3c0-0.2-0.2-0.5-0.2-0.7c0-0.7,1.2,0.5,1.9-0.7c-1.7-3.1,3.1-3.4,1.4-6c0.5,0,0.7-0.7,1.2-1
				c-0.2-2.6,1.4-4.3,0.5-6.8c0.3-0.3,0.9-1.2,0.1-1.7c1.5,0.8,0.4-0.6,2-1l-0.5-2.2c0.5-0.2,1.2-0.5,1-1.2c-1-2.9,1.2-5.5,1.7-7.7
				c-0.3-2.4,2.4-3.8,1.2-6.2c1,1.2,1.7-0.5,1.9-1c-0.2-3.1,2.6-3.1,2.6-5.5c3.6-0.2,6.2-6,9.8-5.5v-1.2c1.5,3.1,5.3-1.2,7,1.7
				c3.4-1.9,6.2,2.6,8.4,1.9c1.9,1,2.9,4.3,3.6,6c-0.2,2.6,3.6,6.3,1,8.7l1.2,4.3l-1.2,0.2c2.2,0.5,0.5,3.8,1.4,5.5
				c-1.4,0.5,0.5,1.7,0,2.2c-0.2,4.3,2.4,8.9,1.9,13l1,0.5c-1,1.4-0.7,4.3-0.2,6c0.2-0.2,0.2,0,0.5,0.2l-0.5,0.5
				c0.5,1.2,2.9,2.6,3.4,0.5c0.5,1.2,1.4,1,2.6,1.4c0.7-1.9,1.7,0.5,3.4-0.7c5.5,0.2,11.1,0,16.8-0.5l0.5,0.5c0.2-0.5,1.2-0.7,1-1.4
				c0.2,0.7,0.5,1.4,1.4,1.2c0.4-1.8,2,1.1,3.2-0.2c0.7,0.5,1.2,0.4,1.6-0.3c0.2,1.4,1.9,0.5,2.9,0.7c1-1.2,3.1-0.7,5.3-0.7
				c0,0.2,0.5,1,1.2,0.7h1.4v-0.5c1.2,0.2,3.4,0.5,4.6-0.2c-0.2,0.2,0.2,0.5,0.5,0.7c3.4-1,6.7,1.4,10.1-0.2c1.9,1.9,5.5,1,7.5,1.4
				c3.4-1,9.1,1.9,13.2,1l0.7,0.5c1.4-0.2,0-1.2,1.7-1h-0.5c0.5,2.4,3.6,0.7,5,2.2c1.4-0.5,3.1-0.7,3.8,0.5l0.7,1l1-1
				c-0.2,1.4,1.9-0.2,2.6,0.2c2.2-0.2,4.6,2.2,7.2,1.2c2.6,1,7,1.2,10.8,3.1c2.6-1.4,3.6,3.1,5.5,1.2c4.6,2.2,10.8,2.2,14.6,6.7
				c0.7,2.2,0,4.3,0.5,6.2c-1.2,0-1.9,0.7-1.4,2.2c-2.6-0.2-4.8,1-6.7,2.2c1.9,2.2-1.2,0.5-0.5,2.9c-2.4,0-2.9,0-4.3,1.2
				c1.4,2.2,1,5,1.4,7.4c0,0.2,0,0.7-0.5,1c1.7,0.5,0.7,1.2,2.4,0.7c2.4,1.2-3.4,4.3-0.5,5.8c-1,1.7,0.2,3.8,1,5.5
				c1.9,0,0-2.2,1.9-2.2l-1.2-1.4c3.6,0.7,1-6.3,4.6-2.2c0,0.7,0.2,1.4-0.2,2.2l0.7,0.7l0.5-0.2c0.2,1.2-0.5,3.8-0.7,5.8h1
				c-0.2,2.4-0.7,5.5-1,8.4c1.4,1.4,1.2,6.2,0.2,8.9c1,1.9,0.7,3.8,1.2,4.8c-1.9,2.6,1,6.3-0.7,8.4c-0.7,1.7,0.2,3.6-1,5.8
				c1,1.4-0.7,3.4,0.2,5c-3.4,3.1,2.9,4.1-0.5,6.7c1,1.9,0.5,2.9,1.4,4.8c0.2,2.4,0.2,2.4-0.2,4.6c0.7,2.9-0.5,4.8,1.7,7.4
				c0.5,3.8-1.7,4.6-0.2,7.2l0.7,0.2c-0.5,0.5-1.7,1.5-0.7,2.4c0.2,0.5,0.5,2.2,0.5,2.9c1.2,1.7-2.6,2.9,0.2,4.3
				c-0.2,0.2-0.5,0.7-0.5,1.2h0.5c-1,0.2-0.9,1.2-0.5,2.2l-0.2-0.2c-0.2,0.7,1.4,2.9-0.5,3.4c2.6,0.7,0.2,3.1,0,3.9
				c1,4.3-1.4,9.6-0.2,13.2c0.2,2.2-1.7,6.3,0.2,9.4c-1.4,0.2-0.2,2.2-1,3.4l0.7,0.2l-1.2,0.7c1.4,0.7-1.2,4.3,1.9,6
				c-0.7-0.2-1,0.5-1.4,0.7l0.5,1.4c-0.2-0.2-0.5-0.2-1-0.2c1.2,2.2-1.9,4.6-0.5,6c-1.2,1.4,0,2.9-1.2,4.3c0,4.1-1,6.3-0.7,9.1
				c-1,0.2-1,1.9-0.7,2.9c1.7,1-0.5,1.4-0.7,2.2c1,3.4-2.2,6.3-0.7,9.4h-0.2l0.2,1.5c-1.2,0.8-0.9,4.6-1.2,6.5c1,0.7,0,3.1-0.2,3.6
				c0.5,1.7-0.7,1.9-0.5,3.6l-0.2-0.2c-0.4,1.2-0.5,3.1,0.4,3.8c-0.5-0.2-1.1-0.4-1.6,0.5c-0.2,0.8,0.1,2.3,0.8,2.5l-1,0.2
				c-0.7,2.4,0.2,4.6-2.2,6.2c1,1.2,0.2,1.9,1,3.1c-2.9,2.9-1.4,9.1-3.8,12.7l1,2.9c-1.7,2.4-1.4,3.4-1.7,5.5c0,0-1.7,1.2-0.7,1.9
				c1.2,0.5,0.2,1.7-0.2,2.2c0.2,2.6-0.2,4.3-1,7c0,0-0.2,0.2-0.2,0.5c0.5,0.7,1-0.2,1.2-0.2c-0.2,0.5,0.5,0.5,0.5,0.7
				c0.7,0-0.7,0.2-0.7-0.2c-2.2,3.1,0.7,5.5-1,8.9l1.2,0.7l-0.2,0.7v-0.2c-2.2,0.7,0,5-1.7,7c1.7,1.7-1.7,1.7,0,3.8h-0.7
				c0.5,1.9,0.5,5,0,6.5c-1,1-0.5,3.6-1.4,5c-0.5,2.4,1,2.2,0.7,4.8h-0.5v1.9c-0.2,0-0.5,0.5-0.7,0.7c-0.7,1,1.2,2.2-0.7,2.6
				c0.5,0,0.5,0.5,0.5,0.7c-0.2,0-0.5-0.2-0.7-0.2c1,1.7-0.2,2.4-0.2,4.1h0.5c0.7,5.5-3.4,5-1.9,11.5c0,1.9-2.2,3.4-0.5,5
				c0.2,2.4-1.9,3.6-0.5,5.8c-1.7-0.2-0.5,1.9-1.7,2.4l1,1.7h-0.7c-1.2,2.9,1.2,5.3-0.5,8.4c0.2,1.2,0.7,3.1,0.5,5.3
				c-1.4,1.2,0.7,1-0.7,2.2l0.7,1.7l-0.5-0.5c-0.5,1.4-0.2,3.1-0.2,4.6l-1,0.7c0.2,1,0.5,3.1-0.7,4.3c0.2,0.7-1.7,3.6-0.5,4.3
				c-0.5,1.9-2.9,4.3-1.7,6.7c-1.4,1.9-1.4,5.8-3.4,7.7c1,1.4-1,1.7-1,2.9l0.7,0.5c-2.6-0.5-1.9,2.4-2.4,4.3l-1-1
				c-1.4,1.2,0.7,1.7,0,2.6c0.7-0.2,1,0.2,1.2,0.7l-1.2,0.2c0.2-0.5-0.2-1-0.5-1.2c-3.1,1.2-1.2,4.1-4.1,5.3c-1,2.2-4.3,4.1-3.1,7.2
				l-1.4-1.2c0.5,2.6-2.6,1.2-3.1,3.6v-0.2l-1.7,1v-1c-1,1-2.9,0.7-4.3,1c-0.5,1,0.2,3.1-1.2,4.1c0.5-0.7-1.7,0.7-2.4,1.4
				c0.2,1.4-2.2,0.7-3.1,1.7c-1.7-0.2-2.2,2.4-4.6,2.2c-1.4,1.2-2.2-3.8-4.6-1.7h-1.7v-0.5l-1.9,0.5c-1.7-2.2,1.7-6.5-1.9-7.2
				c-1.9-0.5-4.3,2.4-5.5-0.2c-0.7,1-0.7,2.9-2.6,1.7c-2.6-0.5-1.7-2.4-3.8-2.2c-1.2-1-2.2-0.7-3.6-0.5c-0.7,1,1.4,1.9,0.2,2.9
				c-2.6,1.2-1-3.8-4.3-2.9c-0.7-1.2,0.7-2.6,1.9-2.9c1.4,0.5,2.2-0.7,3.1-1.7l-1.7-1.7c-1.4,1.4-2.9-1.9-3.4,0.2
				c-0.7,0.2-1.9,1-2.9,0.2c-0.2-1.2,0.5-1.4,1.4-2.4c0-2.2-4.3-1.2-1.9-3.6l-0.5-1.5c-2.6-0.7-2.9,4.6-5.5,1.5
				c-0.2,0.5-0.7,0.2-1,0.2v-0.2c-1,0.2-0.2,1.7-1.4,2.4c0.7,1.7,0.7,0.5,0.7,2.2c-2.2,0-1.9,3.1-4.8,2.4c-1.9-2.6-3.8-0.5-6,0
				c-0.5-1.7-4.1-1.4-6-2.6l-1.4,1.4c-0.2-0.5-0.7-1-1.2-1.4c-1.7,1.2-2.2-2.2-3.6-1.4c-6.5,0-10.1,4.1-15.4,1.7
				c0-1.2,1.4-2.2,2.4-2.4l4.3-3.4c-0.2-0.2-0.7-0.2-1-0.2c2.2-3.4-6-5.3-1.4-9.1h0.2c0-1.4,0-3.6,1.2-4.6c0.5,0,0.7-0.5,1.2-0.7
				c0-1.5,1.9-3.4,1.7-4.6l1.9-1.7c0.7-1,1-4.3,3.4-3.8c0.5-1.2,1.7-1.4,1.9-3.1c4.3-1.7,7.4-5.3,9.9-9.1c0.5-1,1.9-0.5,2.2-1.9
				c-0.5-0.2-0.2-1-0.2-1.4l0.2,0.5c1.7-1.2,1-2.9,2.4-4.1c1.7-2.2,2.4-5,4.1-7.9c0-1.2,0.7-2.6,1.7-3.6c1.9,0.2,5.3-1.9,7,0.5
				c1.7,1,2.6,4.3,3.1,5.3h1.7l-0.5,0.5c1.7,1,1.7,2.2,4.1,1.7l-0.5-0.7c1.2-0.5,0.5-2.4,1.9-2.2c0.2-1.2,1-3.1,1.9-3.8
				c1.2-1.4,1-3.8,2.4-5.5c0-0.5-0.5-1-0.7-1.2c2.2-2.4,0.7-3.4,3.1-6.7c0-5.5,3.6-10.8,3.6-15.1c2.2-1.7,0.5-3.4,1.4-5.8
				c1.2-3.6,2.2-6.7,1.7-10.1c0.2-1.2,0.5,0,1.2,0c-1-1,1.9-3.8-0.2-4.6c1.7,0,0.7-1,1.4-2.2c0-1-0.7-1.7,0.5-2.2
				c-0.7-2.9,2.4-4.8,0.5-7c0.5,0,0.7,0,1-0.2c0.2-0.7-0.2-1-0.5-1.2c1.9-2.6,0.7-5.3,1.9-8.2c0.5-1.9,0.5-3.8,0-5.5
				c-0.2-1.7,1-0.7,1.4-2.2v-3.9h-0.2c0.3-0.3,1.1-1.3,0-1.7c-0.2-2.4,3.4-4.8,0.7-6.7c1.4-1,1-3.1,1.9-5.1c-1-1.7,1-5.3,0.7-8.4
				c0.7-4.3,1.2-7.2,1.7-11.8h0.7c-1-1.9,1-4.8,0-6.5c1.2,0.2,1-1.4,1.2-1.9c-0.7-1.9-0.2-1.9-0.7-3.4h1.4c-0.5-2.4,1.2-4.8-0.2-6.7
				c0-2.4,1.7-4.6,1-8.4c1.4-1,0.7-2.6,0.5-4.3l-0.2,0.2c-1.2-2.4,0-0.7,0.5-2.4c-0.7-2.6,1.4-7.2,0-10.1c0.5-3.4,0.5-5.8,1-8.6
				c-0.2-4.8,0.2-11.8-0.2-16.3c0.2-1.2-0.7-3.1,0.5-3.6c-1.2-2.9,1-3.8,0-6.7c0.2-1.5-0.5-5.8,0-7.9c1.4-3.8-0.7-8.9,1-13
				c-1-2.6,0.5-4.3,0-6.5h0.5c-1.2-4.3,1-9.6,0.2-13.7c1.4-2.2,0.5-5.5,1.2-7.9l-1-0.5c2.2-2.2-0.5-5.8,1.2-8.4
				c0.5-0.7,0.2-1.7,0.2-2.6l-1-0.7c1.4-1.2,1.4-4.6,2.2-6.7c0-0.5-0.5-0.2-0.7-0.2l1-1.4c-1.9-2.9,1.9-3.8,0.7-7
				c0.2-3.4,0.7-3.8,1.2-7.4h-0.7l1-0.7c-1-0.7,2.2-1.9,0.2-3.1c-0.5-1,2.2-1.7,1-3.1c1.7-1,0.7-3.1,1-4.8c0,0.5,1.9-1,1.2-1.2
				c-0.7-1,1.7-1.2,0-2.2c2.1-1.2,1.9-3.9,1.7-5.6c0.3,0.1,0.6,0.2,0.7-0.1c-0.6-1.3-1.3-2-1.4-3c0.2,0.3,0.5,0.7,0.7,0.8
				c0.5-0.2,1-1.2,0.2-1.4c-0.5-1-1.7-0.5-2.6-0.7l-0.6,0.6c-0.5-0.7-2.4,1-3.5,0.3v0.2c-0.2,0.2-2.4-0.2-3.1,0.2v-0.2
				c-2.4-1.4-6,0.7-8.4-1.2c-1,1.7-1.7-0.2-2.6-0.5c-0.5,0.2-0.2,0.5-0.2,1c-1.4-1.9-3.6,1.4-4.3-1.2l-1,0.7
				c-0.7,0.2-1.4-1.9-2.6-0.5c-1.4,0.2-3.1-1-4.8,0.2c0.2-1.9-1.2-0.5-1.9-1.4c-1.7,0.2-3.4,0-5.3-0.7c-1-0.5-4.3,0.7-5.5,0
				c-2.2-1-6.5,0.5-9.9,0v0.5c-2.2-1.4-5,0.2-7.2-0.2c-2.2-0.5-4.8,2.2-6.7,0.7c-1.9,1.9-3.4-1.2-5.1,0.7l0.2-0.7
				c-1.4,1-3.6-0.2-5-0.7l-0.7,1.2c-0.2-0.7-1.4,0-1.7-1c-0.2,0.2-0.7,0.7-0.5,1.2c-0.7-1-1.4,0.2-1.7,0c-0.5,1.2,0.7,0.2,0.7,0.7
				c-0.7,0.2-1,2.6-1.9,3.8l0.2,1.9h0.5v0.7c-1,0-1.4-0.5-1.7,0.7c1.2,1.9-1,3.4-0.2,4.3c0.2,3.1-2.9,3.4-1.5,5.5
				c0,0.2,0,0.7-0.2,0.9c-0.4,0-1.4,0.1-1.2,0.8c1.4,2.2-2.2,2.4-1,4.8c2.2,1-2.2,1.2,0,2.4c-0.2,1.9-2.9,1.9-1.7,4.1
				c-2.4,3.4-1.4,7.4-1.7,11c0.1,0.1,0.3,0.3,0.4,0.4c-0.8,0.6-1.4,1.8-1.4,2.5c-0.7,1.2,0.2,2.2,0.5,3.6l0.7-0.5
				c-0.9,0.9-1.6,3.5-0.1,4c-0.3-0.1-0.9,0.2-1.1-0.2l-0.2,0.2c1.9,1-0.2,1.2,0,2.9c1.4,1.2,1,3.1,1,4.6h-0.2c0.7,0.7-1.2,2.6,1,2.4
				v0.5h-1c1,2.2-0.2,4.8,1.4,5.8c-1.4,4.6,0,9.4-0.5,14.4c1.7-1.2,0.5,1.4,1.2,1.9c-0.5,1.9-0.2,4.3-0.2,6.5
				c1.2,1.2,0.2,2.9,0.5,4.3c0.7,2.4,1,4.3,1.2,7.2c-0.2-0.2-1.4,2.2-0.5,2.9h0.5c0.2,0.5-0.2,0.5-0.5,0.7c3.1,2.6-2.9,5.3,0.7,7.2
				c-0.2,3.1,0,5,1,8.2l-1,0.2c1.2,1.2-0.2,2.4,1.4,2.9c-1.2,1.7-0.2,3.8,0.5,5.5l0.7,0.2h-0.5c0.7,1.9-1,2.9,1.2,4.6
				c-0.7,1-1.2,2.4-0.7,3.8c0.7,0.5,1.2,1.4,0.7,1.9c-0.2,0.5,0,0.5,0.2,0.7h0.5c-1.5,1.5,0.2,3.4,1,5.5h-0.2c1,2.4-0.5,5.5,1.7,7.9
				c-1,1.7,1.7,3.8,0.7,5.5h0.5v0.5h-0.5l1.2,2.9c-1,0.2-0.2,1.7-0.5,2.4l1.2,0.2c-1.7,1.4,0.5,3.1-1,4.3c1,3.4,0.5,7.5,1,10.3
				l0.5,5h0.5c-1.7,1.9,0,3.1-0.7,5c-1,0.7,0.7,2.4-0.7,2.9c0.7,3.4-0.2,6.2-0.7,9.8c-0.7,2.2-0.2,5.3,0.5,7.5c-1.4,0.5-1,4.3-1.7,7
				h0.2v2.1c-0.1,0-0.4-0.1-0.5-0.3c0.6,4.1-2.9,10.3-1.2,15c-1.7,1.9,1,5.8-1.2,7.2c0.2,1-1.9,3.6-0.2,4.6c-0.2,0.5-0.7,1-1.2,1.4
				c1.2,1-0.7,2.4,0.3,4.6v1.2c-0.3,0-0.7,0-0.7,0.2c-0.2,1.2,0.7,0.2,0.7,1c-1.7,2.4-0.7,6.5-2.2,9.1c0.7,1.2,1.2,1.7,0.5,2.9
				c-0.7,0.5,0.2,2.2-0.5,2.9c0.2,1.2-0.5,1.7-1,2.9c-0.7,0.2-0.7,2.2,0,3.1h-0.2c0.2,1.7-1,4.6,0.5,5.3c-2.6,0.7-0.5,4.1-1.9,6
				c0.5,1,1.7,2.2,0.5,2.9c-0.2,0-0.2,0-0.5-0.2c-1,1.7-1,3.6,0.2,4.8c-1.4,1.4-1,4.8-1.4,7l0.7,0.7c-1.9-0.7-1.9,2.2-2.4,3.1
				l0.2,0.2c-0.7,0.2-2.9,2.4-1.9,3.1c-1.7,0.7-2.4,2.7-4.6,3.1c-2.6,3.1-2.4,7.4-6.5,9.6c-0.7,4.8-4.8-1.2-6.2,3.4
				c-1,1.2-2.6,0.2-3.1-0.5l-0.7,1l-0.5-0.7c-0.5,0.2-0.2,0.7-0.2,1c-0.7,0-1.7-0.2-1.4,0.5v0.7l-0.7-0.7c-0.7,2.2-2.9,0.7-4.3,1
				c-1-0.5-2.2,0.5-2.9-1.5c-0.7,0-2.6,0.3-1.9,1.5v0.7c-1,1.9-4.1-0.5-5.5,1.9c-1.2-0.7-2.4-0.2-3.4-0.5v1l-0.5-0.2
				c-0.5,1.2-1.7,0.7-2.4,1.7c-2.6,1-2.9-2.1-2.6-3.8c0.2,0,0.5,0.1,0.5,0.4c0-1.9-0.7-2.4-1.7-3.9c-1-0.7-2.6,0.2-4.1-1
				c-1,1.2-2.2,1.9-1.9,3.6c-1.2,1-3.1,1.4-5,1.7l-0.2,0.2c-1.7,0-0.7-1.9-0.2-3.1c-1.4-2.2-3.8-1.9-5.8-3.4l-0.5,0.7
				c0-0.2-0.2-0.7,0.2-0.7c-1-0.5-2.2-0.7-2.9,0.5c-1.7-1.9-1.7,1-3.1,1c-2.4-1-3.9-0.7-5.5,0.7l-0.7,0.7c-0.6-0.4-1.3-0.7-1.9,0
				l0.2-0.5c-2.6-2.4-9.4-4.3-13.2-6c0.2-0.7-1-1.9-2.9-2.2c-2.6,1-4.3-4.3-6.2-4.8c-0.2-2.6-4.3-1.4-2.9-4.6l0.7-0.7
				c-1.2-2.6,4.6-5.3,5-9.1c-0.5-1,1.4-2.4,1-3.6c1.9-2.9,2.2-5,2.9-7.9l2.2-1.7L272,750l1-1.2c0-1.7,1.4-3.6,2.2-5
				c0-0.9,1.1-2.2,0-2.4c1.7,0-0.7-2.4,1.4-2.7c-1-3.6,1.7-7,3.4-9.4c0.7-0.7,2.2-0.5,2.4-2.2c1.2,0.5,4.1-0.7,4.3,0
				c-0.5,0.2-0.2,0.7-0.2,1.2c1.7,0.5,1.4,2.9,1.9,3.1c-0.5,0-0.5,0.5-1,0.7c-0.2,0.7,0.7,0.7,1,1.4l0.5-0.7
				c0.2,1.4,2.4,0.5,1.9,2.4l-0.7,0.5l0.7,0.7c2.4-3.4,1.4-7,0.2-10.1c2.2-0.5,0.5-3.4,1.5-4.3c-1-0.7-0.2-0.7,0-1.4
				c0.7-2.2-0.2-4.3,0.7-7c-1.7-1,0.7-4.3-0.5-6.7c0.2,0.5,0.7,0.5,1,0c-1.9-8.2,2.2-11.5,0.7-18.7h0.2c-0.2-4.8,1.7-8.9,0.7-13h0.5
				c1.7-1.5-2.2-2.9,0.2-4.1c-0.7-2.2,1.4-5,0-6.7c-1-1.2,1.4-3.6-0.2-4.3L296,659.3z M467.3,764V762
				C467.3,762.8,466.1,763.5,467.3,764z M442.1,836c-1.2-1.9,2.6-1.7,0.5-2.9v0.7c-0.5,0.2-1,1-1.5,0l-0.5,1.2
				C440.6,835.8,441.1,836,442.1,836z"/>
			<path d="M408.4,875.4c0,0,0,0.1-0.1,0.1C408.4,875.5,408.4,875.4,408.4,875.4z"/>
			<path d="M379.4,686.1C379.4,686.1,379.4,686.1,379.4,686.1L379.4,686.1z"/>
			<path d="M379.4,686.1L379.4,686.1l-0.2,0C379.3,686.1,379.3,686.1,379.4,686.1z"/>
			<path d="M374.6,484.6C374.8,484.6,374.8,484.7,374.6,484.6C374.6,484.6,374.6,484.6,374.6,484.6z"/>
			<path d="M370.5,507.7l-0.5,0.5c-0.2,0.1-0.4,0.1-0.6,0C369.8,507.9,370.1,507.7,370.5,507.7z"/>
			<path d="M369.3,517.8c-0.1,0-0.1,0-0.1-0.1C369.2,517.8,369.3,517.8,369.3,517.8z"/>
			<path d="M337.6,395.8c0,0,0,0.1,0,0.1C337.5,396,337.5,396,337.6,395.8z"/>
			<path d="M331.6,411.5C331.6,411.5,331.6,411.5,331.6,411.5l-0.1-0.3L331.6,411.5z"/>
			<path d="M318.4,793.7C318.4,793.8,318.4,793.8,318.4,793.7C318.1,793.8,318,793.8,318.4,793.7z"/>
			<path d="M311.9,504.1c0.1,0.2,0.1,0.3,0.2,0.5C312,504.5,311.9,504.4,311.9,504.1z"/>
			<path d="M308,281.7l-0.4,0.5C307.7,282.1,307.9,281.9,308,281.7z"/>
			<path d="M304.4,353.4c0,0.1,0,0.1,0,0.2C304.4,353.5,304.4,353.4,304.4,353.4z"/>
			<path d="M297.3,117.7C297.4,117.9,297.4,117.9,297.3,117.7C297.3,117.7,297.3,117.7,297.3,117.7L297.3,117.7z"/>
			<path d="M295.3,228.7c-0.2,0.2-0.2,0.4-0.5,0.3C294.9,228.9,295.1,228.8,295.3,228.7z"/>
			<path d="M293.9,417.4l-0.3-0.2c0,0,0,0,0,0L293.9,417.4z"/>
			<path d="M291.2,532C291.2,532,291.2,532,291.2,532L291.2,532z"/>
			<path d="M290.3,594.2l0.5,0.2C290.6,594.3,290.4,594.3,290.3,594.2L290.3,594.2z"/>
			<path d="M290,574.7l-0.2,0.6c0-0.1,0-0.1,0-0.2L290,574.7z"/>
			<path d="M289.8,575.4l0-0.1C289.8,575.3,289.8,575.4,289.8,575.4z"/>
			<path d="M289.8,575.1L289.8,575.1l-0.4-0.5C289.6,574.8,289.8,575,289.8,575.1z"/>
			<path d="M289.8,596.7l-0.2-0.3C289.6,596.5,289.7,596.6,289.8,596.7z"/>
			<path d="M289.3,574.5l0.1,0.2C289.4,574.6,289.3,574.5,289.3,574.5z"/>
			<path d="M288.6,567.5h0.2C288.8,567.6,288.7,567.6,288.6,567.5C288.6,567.5,288.6,567.5,288.6,567.5z"/>
			<path d="M288.1,791.8l-0.7-0.5l0,0C287.7,791.5,287.9,791.7,288.1,791.8z"/>
			<path d="M279.6,694.8C279.6,694.8,279.5,694.8,279.6,694.8c-0.1-0.1-0.1-0.1-0.1-0.1C279.5,694.8,279.5,694.8,279.6,694.8z"/>
			<path d="M244.3,297.3C244.2,297.3,244.2,297.3,244.3,297.3l-0.6-0.7C244,296.9,244.2,297.1,244.3,297.3z"/>
			<polygon class="st0" points="242.3,736.6 242.5,737.5 242,737.5 			"/>
			<path d="M228.1,441.1c0,0,0,0.1,0,0.1l-0.2-0.5C227.9,440.9,228,441,228.1,441.1z"/>
			<path class="st0" d="M242.5,737.5l-0.2-1l-0.2,1H242.5z M297.3,382.4c0.2-0.2,0.2-0.5,0.7-0.2c0.5,1-2.9,1.7-1,3.1
				c0.2,1.9-2.6,4.8,0,6.5c-1.7,1.5-0.5,2.9-1,4.3h0.7c-0.2,1-2.4,3.6-0.2,4.3c0,1.7-1.4,1.9-1,3.4l-0.2-0.5c-1,0.7,0.2,1.2,0.2,1.9
				h0.2v0.5l-0.7-0.5c-0.7,2.9,1.2,5.3-1.2,8.6c0,0.7,1.7,3.1-0.7,3.1l0.4,0.3c-0.9,0.7,0.5,1.2,0.3,1.9l-1.2,0.5
				c0.7,2.6,0,3.8-1.2,6c0.7,1.9,1,4.8,1.2,6.5h-1c0.5,2.6,0.3,4.8,1.5,5.8c0.2,0.5-1.5,0.2-0.7,1.4c0,1,0.7,0.5,0.7,1.2
				c-1,0-1.5,2.2-0.5,3.6c0.2,0.2,1,0.2,1.2,0.7l-1,1.2c0,0.7,0-0.2-0.2-0.2c-1.5,1.4,1.7,1.9,1.2,3.4l-1-0.2
				c-0.2,1.7-0.2,3.8,0.7,5.5c-1.4,0.5,0,1.2-0.5,2.2l1.2,0.7c-0.5,0.5-1.7,1-1.2,1.9h0.7c-1,2.2,0.5,3.4-0.2,5.8h0.7
				c-1,2.4-0.5,4.6-0.2,7h0.2c0,1.7,0,1.7,0.2,3.4l-0.2-0.3c-0.7,0.5,0,1.5,0.2,1.5h-0.2c-1,4.1,0,12.5-1.9,15.6
				c1.4,5.3,0.7,8.9-1.2,14.2c1,1.7,0.2,4.8,1.7,7.4l-1.4,1.7l0.7,0.7h-0.5c-1.2,3.1-0.2,7.9-0.2,11.8l-1.4,1.4l1.2,1.2
				c-0.6,0.2-0.1,1.4,0,1.5l-1.4,1.4c1.4,0-0.5,0.7,0.5,1.4c-1.4,0-0.2,1.4-0.5,1.9l1,0.2c-1.4,2.9-1,6.3-1.4,9.4
				c2.6,1.4-1.9,3.4,0.5,5.3c-1.7,1.2,0,2.9-0.5,4.1v1.7c-1.9,1.2,0.7,0.7-1,2.7c1,2.2,0.5,3.6,0,5.3l1,0.7l-0.5-0.2
				c-0.7,0.5-0.5,1.5-0.2,1.7c0.7,2.1-0.7,3.3,1.4,5.2c-1.4,0.2,0.5,1.2-0.7,1.7c-2.4,1,0.5,2.7-0.5,4.3c0.5,0.7-0.7,1.4,0,2.2h1
				c0,1.7-1,3.8-0.2,5.8c-1.9,0.7,1.7,2.2-0.2,3.4c1.1,1.8-1.3,3.2,0.9,4.1l-1.4,1.4l0.7,0.8c-0.1,0-0.1-0.1-0.2-0.1
				c-0.7,1-0.2,2.2,0.5,2.9h0.5l-0.5,1c-0.2-0.2-0.2-0.5-0.5-0.2c0.5,1.9,0,4.1,0.2,6c0.2,0.2,1.4-0.2,1.2,1c-0.5-0.2-1-0.2-1.2-0.7
				c-1.2,3.1,1.9,4.3-1.2,6c1.7,4.1-1,7.2,0,10.8l0.5,4.1h-0.2c-0.2,1,0,1.9-0.5,3.4c0.5,0.7,1-0.2,1.2-0.2c0,0.7,1,1.4,0.2,2.2
				l-0.7-1c-1,0.2-1.2,1.4-1,2.4c0.2,0.5,0.5,1,1,1l0.7-0.5c-0.2,0.5-1.2,1.2-0.2,1.9h-1.4c-0.7,3.1,0.7,10.1,0.2,11.5
				c-1,0.7-1,3.1-1.2,4.3c0.7,1,0,2.2-0.5,2.9l1,2.9c-0.2,1.5-2.4,4.6-0.7,6.7c-0.7,1.9-1.9,3.1-1.4,5c-1,1.4-2.2,2.9-1.2,4.3
				c-1.9-0.7-1.2,2.2-1.7,3.1c-0.2,0.5,0.2,0.7,0.5,1l-1.4,1.2l1.2,1.4c-0.2,0-0.5-0.2-0.5-0.2c-1,3.8-0.2,2.9-2.2,7.2
				c2.2,1.7-1.2,3.4-1.2,4.3c0.2,0.7-0.2,1.9,0.7,2.9c-0.4-0.3-1.8-0.9-2.1,0.5c1.4,1.4-0.5,3.4-0.7,5.3c-0.2,0-0.7-0.2-1,0.2l1,1.4
				l-0.7-0.7c-1.5,1.7-1.9,4.6-1.7,6.7c-0.7,0-0.5,1-0.5,1.5c-0.7-0.7-1.9,0.2-2.4,1.2c1.9,2.4-2.9,1.2-1.4,3.6
				c-1,2.9-2.2,5.5-1.7,7.9l-0.2-0.2c-0.2,1.2-1,2.2,0.2,3.4c-2.4-0.2,0.5,1.9-1.7,2.4c0,0.7,0.5,1.4,1.2,1.9
				c-2.4,1.4-0.2,6.5-4.3,7.4l-3.4,1.4l-0.2-0.7c-0.7,2.2-5.5,1-5.1,4.3c-1,0.2-1.4,1.2-2.4,0.5c0-0.7,0.2-1.9-1-1.9
				c-0.2,1-1.7,1-2.4,1.7c-1.9-2.2-3.6,1.9-5.3-0.7c-0.2-2.2-0.5-4.8-2.6-4.3c0.2,1.4-4.1,4.1-1.4,5.3c-1.4,0.2-2.4,2.4-4.3,1.7
				c-0.5-0.5-0.7-1-1.4-1.7l-1.4,1.4c0.7,1.2-1.4,2.2-1.9,3.1c-2.6-0.2-1-5.3-3.8-4.6c-3.1-0.5-0.7,4.6-4.3,3.4
				c-2.4-2.4-1.7-5.3-4.3-6.5l-0.2,0.2l-1.7-1.9c-1.4-0.7-3.8,0.7-4.3-1.9c-0.7-1-0.7-3.4-0.7-5.3c-3.1-1.9-3.1-8.4-5.3-11.3
				c-2.2-4.3-2.2-7-4.1-11.8c-1-2.4,0.5-6.2-1.4-9.4c-0.2-1-0.5-4.3-1.4-5.8c1-1-0.7-2.9,0-3.6c-0.5,0-0.7-0.5-1-0.7
				c0.5,0,0.5-1,1.2-1.4c0.2-0.7-1.2-2.4-0.2-3.4c-1.4-3.4,0-9.4,0-12.5c-0.7-1,0.2-4.3,0-6c1-11.3,2.6-20.7,2.9-31.7
				c0.7-2.9,0.7-8.4,1.2-11.5c0.5-4.8,1.2-7.9,1.4-13c1.4-1.7,1.4-3.4,1-5.3l-0.1,0.1c0.8-1.7,1-5.2,2.2-7.5
				c1.2-2.2-1.4-4.6,0.7-6.3c-0.5-4.8,2.4-7.9,2.2-12.7h0.2c-1.4-1,1.4-3.1,0.5-4.8l1-1c-0.5-1.4,1-4.3,1-6c2.2-1.4-1.2-4.1,1.7-5.5
				c0.2-3.1,0.5-6.3,1.2-9.1h-0.7c-1-2.2,3.4-2.6,0.7-4.3c0.5-0.5,1-0.5,1.4-1c0.5-1.2-1.4-3.1,0.5-3.8l-1-1c0.5,0,0.7-0.5,1-0.7
				c-1.9-2.9,2.4-4.8,0.2-7.4c1-1.2-0.7-2.2,0.7-2.9H218c2.6-3.4-0.5-6.7,2.4-10.3c-1.7-1.7,1.4-3.6-0.2-5.3
				c0.7-2.9,0.7-9.6,1.4-13.7h0.2c-0.7-3.1,1.9-8.6,1.2-13c1.7-1.2,1.2-5.5,1.7-7.2c-0.2-1.2,0-1.7,0.5-2.9c-1.7-2.2,2.2-4.8,0-6.7
				c2.4-2.6,0-6.5,2.2-9.6c-1.7-1,0.5-2.4-1-3.4l1-1l-0.7-0.5c0,1.4-0.5-1.7,0-2.6c1.2-2.9,0-3.4,1-6.2c-0.7-1.7,0.2-3.6,0-4.6
				c0.5,0,0.5-0.5,0.7-0.7c0.2-0.3,0-0.6-0.2-0.8c0.4-1.9-0.3-3.5,0-5.4c1.2-1.7-1.2-3.8,1-5.8c-1.2-3.8,1-3.6-0.2-7l0.2,0.2
				c1-1.4-1-5,1.4-6.2c1-5.8,0-10.3,2.2-15.6c-1.7-1,0.7-1.2,0.5-2.4c-1.4-4.8,1-9.6,0.2-13.9c1.2-1.9-1.2-4.1,0.7-6.2l-0.5-1.7h0.2
				c1.2-1.4-1-5.5,0.7-5.8v-0.7h0.5c1-1.7-1-4.1,0.5-4.8h-0.7c1.7-0.2,0-1.4,1.4-2.2l-1-0.7c0.5-0.5,1-1.7,0.2-2.2
				c1.9,0,0.5-1.7,1-2.4l-1-1.7c-1,1.2-3.6,1-5,2.4c-1.7,0-3.1,0-4.6,0.7c-2.2,1.9-7.7-1.5-9.6,2.2c-0.5,0-0.5-0.5-1-0.7
				c-0.2,1.2-2.4,0-2.2,1.7c-1.2-1.2-1.4,1.7-2.4-0.2c-2.9,1.4-2.2,1.7-5.5,2.4c0.5,2.9-2.9,1.2-3.8,2.2c-2.2,0.5-4.3,1.7-6.5,1
				c-1.2,0.7-3.1-0.5-4.1,1.2c-3.4-3.8-9.4,2.4-11-2.9c-0.5-0.2-0.7-1-1.2-1v1.2c-2.2-4.3-1-8.2-5-11.8c0.7-1.4,0.5-3.1,0-5
				l-0.7-0.7c-0.5-4.3-0.2-7.7-1.7-11.3c0-1.4,0.5-3.1,1.9-3.8c2.2-2.6,6-4.6,8.4-7.7c1.7,1,1.7-1.9,3.4-1.7c1.9-2.9,4.8-4.1,6.7-7
				c2.6-0.7,4.8-1.9,7-3.4c4.1-1.7,8.6-3.6,12.3-5.5v0.2c0.7,0.7,2.2,0.2,2.4-1c0.8-0.2,2.3-0.1,3.2-0.9c0.3,0.4,0.9,0.4,1.4,0.2
				c1.2-1,0-1.2,1.4-1.7L219,306c1,1,1.7-0.7,2.9-0.2v-1.2l1.7,1.2l0.5-1c0.5,0.7,2.6-1.4,3.6-0.2c1.9-1.4,5-1.9,7.2-2.9l-0.7-0.7
				c2.2,2.2,4.8-1.4,6.7-1c0.2-0.5,0.7-1,0.5-1.4c1-0.5,1,0.5,1.2,0.7c0.4-0.6,2-1.2,1.8-2c1.3-0.9,0.2-0.9,1.4-2.1h-0.7l1.2-0.5
				c-1.7-2.4,0.5-2.4,0.2-4.6c0.5,0,1,0,1.4-0.7c0.2-1-1.2-1-1.4-1.4c1.9-1.4-0.5-4.8,1.9-5.3c0-2.2,0.2-3.6-0.2-5
				c1.4-2.2,0.7-5.8,1.9-7.7l-0.7-0.2c2.6-4.3,1.4-9.8,3.4-14.2c-0.7-1-0.2-2.2,0-2.9c-1-0.2-0.7-2.9-0.2-3.8l0.5-0.5
				c-1.7-1,1.7-0.5,0.7-2.2v-5.1c0,0,0.2,0.2,0.5,0.2c-0.7-4.6,1.9-6.7,1.7-11c0.2-5.1,1.4-9.9,4.8-14.7c1-2.9,1.2-6,3.1-8.9
				l0.2-3.1l0.5,0.5c1.2-3.6,3.8-6.7,5.3-10.8c1.9-0.7,2.2-3.4,3.1-5c-0.7-1.2,0.5-2.2,0.7-3.1c3.1,0,3.1-6.2,6.3-2.4h1l-1,2.6
				c2.4,0,1.9,3.8,4.8,2.9v1l1.9,0.2l-0.7,1.2c2.4,1.2,4.3,3.6,6,2.9c0.7,0.7,2.4,1,3.9,1.7c2.6-0.2,4.8,0.5,7.7,1
				c3.1,1.2-0.7,3.1,0,5c0,1.6-2,4.6-1.7,6.6c-0.1-0.3-0.5-0.1-0.7-0.1c-0.7,0.2-0.2,1-0.5,1.4l0.7,0.5c-1.9,0-1.4,2.2-2.4,3.1
				c0.7,1.4-2.2,5.5-3.1,8.4c1.2,1.9-1.9,0.5-0.5,2.4c-0.2,1.2,1.7,3.1-0.7,3.9c0,0.7-0.2,1.2,0.2,1.4c0.1,0,0.1,0.1,0.2,0.1
				c-0.9,1,1.8,3.3,2.2,3.5c-1.4,1.4,0.2,2.4,0.5,4.6c2.6,1.9,0.5,5.3,3.4,7.4c-0.5,0-0.5,0.2-0.7,0.2c-0.2,1,0.7,1,1,1.2h0.5
				c-2.9,2.2,2.2,3.4-0.2,5.5c0.5,0.5,0.7,1,0.2,1.4c0.7,0.5,1.7,1,1.7,1.9h-0.5c0-0.2-0.2-0.2-0.2-0.5c-1.7,1.2,0.7,2.6-1,3.8
				c1.4,2.4,0.7,4.1,1,6.5l0.7,0.7l-0.5,0.5l1,1.2c-0.5,0-0.5,0.5-0.5,0.7c0.2,0.5,0.7,0.5,1,0.5c0,0.4,0.2,2.5,1.2,1.9
				c-0.7,1.2-0.7,2.9-0.7,4.6l1-0.7c-0.7,1.7,1,1.5,1,3.4l-1-0.5c0.7,1.7,1,4.6,1.2,6.2l0.8-0.9c-0.4,0.6-0.5,1.1-0.5,1.9
				c1.7,0,4.6,2.4,5.8,0c2.2,0.2,3.8,1,5.8,0.2c1.4,1.4,3.1,0,4.6,1.4c1.4-0.7,4.1,0.7,5.1-1.4c0,0.5,0.5,0.7,0.7,1.2
				c2.2-1.4,2.9-1.2,5.3-1.4v-0.5c0.7,0.7,2.9,1.2,4.1,0c-0.2,0.5,0.2,0.7,0.5,1c1.2,0.2,2.4,0,3.9-0.5c0.5,0.7,3.6,0.7,4.8,1
				c-0.2,0.5,0.2,0.7,0.5,1l2.2-0.5c0.2,2.9,1.4-0.7,2.9,0.7c1,0.7,2.2,0.2,3.1-0.5c1.7,1.2,2.4-1.2,4.3-1.2c2.2-0.7,3.6,0.5,5.5,1
				c2.4,2.4-1.2,6,0.7,8.9l-0.2-0.2c-0.7,1.9-1,2.9-1.2,4.8c2.4,0.7-0.5,1.9,0.5,2.6c-1,0.5-0.7,2.4-0.7,3.1c0.2,4.3-4.1,8.2-0.7,13
				c-1.4,3.1,0,6.2-1.2,9.8c2.6,2.4-1.7,4.6,0.5,7.4c-1,2.2-1,6.7-4.6,7c0.7,1.9-0.7,2.6-2.4,3.4c-2.9-0.5-7.4-1.2-9.6,1.4
				c-1.4,0.2-2.6,0.5-4.1,1.4l-1.2-0.5c-0.5,2.4-5.5,1.4-7,1.7c-1,0-1.9-0.7-3.4-0.2l-1,1.4c-0.5-1.2-1.4-0.2-1.9,0
				c-1.7-0.7-3.9,0-4.6,0.5c-1.7-1.4-3.8,0.2-5.5,0c0.2,2.6-2.4-0.2-3.8,0.2c-1.9,1.2-4.1-0.2-5,2.4l-1.9-1.7l-0.5,0.5l-0.5-0.7
				c-0.7,0.9-2.2,0.3-2.2,1.5c-0.3-0.4-2-0.9-2.9,0.2c0.7,0.5,1,1.4,1.7,1.9c-1.4-1-1.7,0.7-2.2,1.4c-0.7,2.6,0,5.3-1,7
				c0,1-1.2,3.1,0.7,2.9c-1.2,1.7-1.4,4.8-2.2,5.3c1.2,1.7-1.2,1.9,0,4.3C299.4,379,295.8,379.5,297.3,382.4z"/>
			<path d="M221.8,303.5c0.3,0.3,0.9,0.7,0,1V303.5z"/>
			<path d="M221.8,303.4v0.2C221.6,303.4,221.5,303.3,221.8,303.4z"/>
			<path d="M220.6,186.9c0,0.2,0,0.7-0.2,1c-0.2-0.5-0.2-1-0.2-1.4C220.4,186.6,220.5,186.8,220.6,186.9z"/>
			<path d="M216.8,306.5c-0.1,0.3-0.2,0.6-0.4,0.8c0,0,0,0,0,0L216.8,306.5z"/>
			<path d="M204.8,604.3l0.4-0.6C205.1,603.9,204.9,604.1,204.8,604.3z"/>
			<path d="M180.8,731c0.2,0.2,0.1,0.4-0.1,0.5C180.6,731.3,180.7,731.1,180.8,731z"/>
			<path d="M174.5,178.2l0.2,0.3C174.6,178.5,174.6,178.4,174.5,178.2z"/>
			<path d="M160.9,194.7c0.2,0,0.2,0.1,0.3,0.3C161.1,194.9,161,194.9,160.9,194.7z"/>
			<path d="M160.9,194.7c-0.1,0-0.2,0-0.3,0.1v-0.7C160.7,194.3,160.8,194.6,160.9,194.7z"/>
			<path d="M93.4,555.5l-0.3,0.2C93.1,555.5,93.1,555.4,93.4,555.5z"/>
			<path class="st0" d="M676.3,133.5c0-0.1,0-0.1-0.1-0.1C676.2,133.4,676.3,133.4,676.3,133.5z M676.3,133.5
				c0.1,0.4,0.1,1.5,0.9,1.3C677.4,134.1,676.6,133.9,676.3,133.5z M967.7,504.8c-1.3,0-0.1,0.8-0.7,1.1c-0.1,0-0.2,0-0.3,0.1
				c0.1,0,0.2-0.1,0.3-0.1c0.5-0.1,0.2,0.9,0.4,1.1L967.7,504.8z M963.4,621.5c-1,1,1.9,2.6,0,3.1l0.7,0.2
				C966,623.7,963.2,623,963.4,621.5z M964.6,621.3c0-0.5,0-1.3-0.6-0.8c0.4-0.4-0.1-1-0.4-1.4l0.3-0.6c-0.5,0.1-0.4,0.3-0.3,0.6
				l-0.5,1.1C963.4,620.8,964.1,620.8,964.6,621.3z M964.4,617l0.5,0.7l0.5-0.7H964.4z M965.5,566.6c-0.5-0.9,0.3-1.6-1.1-2v1.9
				C964.8,566.5,965.2,566.4,965.5,566.6z M965.3,500.3c-1.4,0.7,0,1.7-0.7,2.9h2.6c-1.4,0,0.5,1-1.2,0.7l1.4,0.2v-1.9h-1.2l0.7-0.5
				c1.2-1.4-0.7-2.4-1.4-3.6c-1.2,1-2.4,1.4-2.4,3.6C963.2,500.8,964.4,499.8,965.3,500.3z M567.7,110.9l-0.5-0.6
				C567.2,110.7,567.4,110.8,567.7,110.9z M567.7,110.9l0.9,1.1C569.3,110.4,568.3,111,567.7,110.9z M786.9,235.6
				c-0.7,0.5-0.2,1.2,0.2,1.4c0.5-0.2,1.4-0.5,1.2-1.2C787.9,235.9,787.1,236.1,786.9,235.6z M951.2,365.8c0,0.5,0.2,1.2-0.2,1.4
				l-0.5-0.2c0.7,0.7,1.4,1.4,1,2.2c0.2-0.2,1.9-0.7,1.4-1l-0.5-0.5l1.7-1l-0.2-1l1.4-0.5c-1.2-2.2-2.6,0.2-3.4,1.4L951.2,365.8z
				 M952.4,348.3h-1l0.2,2.2h0.2C952.1,349.7,951.9,348.7,952.4,348.3z M943.2,367H943c-0.2-0.2-0.7-0.7-0.7-1.2l-1.9,0.5
				c0.2,1.2,0.7,1.4,1,2.4C943.3,369.8,943.3,367.2,943.2,367z M918.7,438.8c-0.2-2.6,2.2,0,2.2-0.2c-0.5-1.2-1.4-0.5-2.2-1.4
				c0.2-0.2,0.5-0.5,0.7-0.2c-0.2-0.7-0.7-1.2-1.4-1l0.5,1.4h-0.2l0.2,1c-2.6,1,1.4,3.1,0.2,4.3c0,0.1,0,0.1-0.1,0.2l-0.6,0.1
				c0.2,0,0.4,0,0.6-0.1l1.3-0.2l-0.7-0.7c0-0.3-0.2-1,0.2-1.2l0.5,0.7C920.7,439.8,918.3,440.5,918.7,438.8z M820.5,273.3l0.2-1.4
				H820L820.5,273.3z M822.7,274.8c0.5,1.2,1,2.2,1.9,2.7l0.2-0.2l0.7,0.5c-0.5-0.5-0.2-1.2-0.5-1.7
				C822.9,277.2,825.1,273.8,822.7,274.8z M791,239.7c-1,1-1.7-2.4-2.9-2.2c1,0.7,0.3,1.4,0.2,2.1c-1.2-1.6-1,0.4-2.4-0.7l0.2-0.3
				l-0.2,0.2c0,0,0,0,0,0l-0.3,0.4c0,1,1-0.7,1,0.5l1.4-0.2l-0.5,1.2h1.2C790,241.4,791.5,239.7,791,239.7z M791.5,240.9l-0.5,0.5
				c0.2,0,1,1.2,1,0.2L791.5,240.9z M577.3,117.5c-0.7,0.5-1.7,0.7-2.2-0.2l-0.3,1.2c0.5-0.2,1.9,0,2.2,1v-1c1.6,0,1,2.8,2.8,2.2
				l0,0.2c-0.1,0.1-0.2,0.2-0.4,0l0.5,1l-0.1-1c0.1,0,0.1-0.1,0.1-0.2c0,0-0.1,0-0.1,0l-0.1-1.2h-1.2v-0.7H578
				c-0.5-0.5-0.2-1.4-0.2-2.2C577.3,117.2,577.3,116.8,577.3,117.5z M297.3,117.7c-0.2-0.4-1-1.4-1.7-0.7c-1.4,1-3.1,2.4-4.3,3.6
				c-1.2-0.2-2.2,1.4-3.4,1.7c-3.4,5.1-9.8,2.9-12,8.6c-0.7-0.7-2.4,0.2-1.9,1l-0.2-0.2c-0.7,0-1.2,1.2-0.7,1.7l-0.5-0.5
				c-1.2,1.2-2.4,0.7-2.4,2.4c-1.2,0.7-3.1,1.7-3.8,3.6v1.2c-1.2,0-0.5-1-1-1.4c-2.4,1-1.9,3.4-4.1,3.6c-0.7,0.5-1,1-1.7,1.4
				c0.5,0.5,0.2,1.2,0.2,1.7c-3.6-2.6-2.2,3.8-6,3.4c-0.5,1-1.2,2.2-1.9,3.1l-0.5-1c-0.5,0.5-1.2,0.5-1.7,1.2l0.7,1.2
				c-4.8,2.9-7.2,5.8-10.1,9.9c-0.2-0.2-0.5-0.5-0.7-0.5c-1.7,1,0,2.9-1.9,3.4c0.5,4.6-5.8,2.9-4.6,6.7c-2.9,0.7-3.6,4.3-6.2,5.8
				l0.5,1.2c0,0.2-2.2,0.5-2.2,0.2c0.2,3.1-4.7,3.7-5,6.5c-0.2-0.2-0.5-0.2-0.8,0.2c-0.2,0.2-0.2,0.5-0.2,1l-0.2-0.5
				c-1,2.2-4.1,2.9-4.1,5.8c-1-0.5-1.9,0-2.6,0.7l0.2,0.7c-1.9,0.2-1.9,1-3.6,2.2c0,1.9-2.2,1.9-2.9,3.4c-2.4-0.5,0,1.7-2.2,1.4
				c0,2.6-4.1,4.1-4.3,6.5c-4.1,4.8-8.9,10.8-12,16.3c-1.9,1.7-4.6,3.6-4.8,6c-2.9,3.1-4.6,6.7-7.9,9.8l-0.2,1.2l-0.2-0.2
				c-1.2,0.2,0,1.9-1.4,1.7l-0.2,1.9c-0.5,0-1-0.2-1.4-0.2c0.5,1.7-2.2,1.7-1.2,3.1l-0.7-0.5c-2.6,3.1-2.9,7-6.5,7.9
				c1,3.4-3.6,4.6-2.6,7.9l-0.2-0.2c-3.9,1.7-2.9,7.7-6.5,9.1c1,4.6-3.8,7.2-3.6,12v1.2h-0.2v-0.2c-1.2-0.2-1.4,1.9-1.9,2.9
				c0.5,1-1.2,2.6-1.4,3.8c-0.2,0.2-0.7,0.5-0.7,1l0.5,0.7c-1.9,2.2-3.1,6.2-4.6,8.6l0.2,0.7c0-0.1-0.3-0.2-0.5-0.2
				c0.7,1.4-0.5,1.4-1,2.9s-2.2,3.1-2.9,5c-1.2,2.4-3.4,4.6-3.1,7.4c-2.2,0-1.7,2.2-3.1,2.9v1.9c-1.9,0.2-1,2.6-2.2,3.9
				c-2.2,2.9-0.2,4.1-3.4,6.2c0,3.1-3.6,3.8-3.4,6.7c-0.7,2.2-4.8,3.4-3.4,5.8c-1,0.7-1.4,3.1-1.4,3.1c0-0.2-0.2-0.2-0.5-0.2
				c-1.2,0.5-0.2,1.4-0.2,1.9c-1.2-0.2-0.7,1-1.2,1.4l-0.2-0.2c-0.7,1.9,0.2,3.1-1,5.3l-0.5-0.7c-1.2,1-0.2,4.1-1.7,5.1
				c-0.2,1.9-2.2,2.2-2.2,4.3c0.7,1.9-2.4,4.1-2.9,6c0,2.2-0.7,4.8-1.7,7l-0.2-0.5c0.7,4.1-1,4.3-1.4,8.6c-0.2,2.9-2.4,6-1.2,9.9
				l-1.2,0.7c2.9,0.7-0.5,3.4,0.7,4.3c-1.2,1.4-1.7,4.8-0.7,6.5c-1.9,2.4-0.2,5.1-1.9,6.7c0.5,2.2-1,5-1.2,5.8
				c1.9-0.2-0.5,2.2,1.7,0.7c-0.7,1.9-2.4,3.8-2.2,6.5c0,1.2,0,2.2-1.2,3.1c0.5,1.2,0,3.4-0.7,4.8c-0.7,4.3-1,9.6-2.4,13.7l0.5,3.1
				l-1-0.2c1,1.4-0.5,3.1,0.5,4.6h0.5c-1.2,2.2-1.9,4.6-0.2,6.7c-2.9,0.5-0.7,4.6-1,4.8c0,4.3-1,5.3-0.2,9.1c-0.5,0.2-0.2,1-0.2,1.2
				l1.2,0.7c-2.4,1.9-0.5,3.6-0.7,6.2h-0.2c0.5,2.4-1,6.2-0.2,8.6c-0.3,3.4-1.2,2.4-0.3,5.5c-1.2,0.5-0.2,1.2,0,1.7
				c-0.2,1-1.2,2.4-0.5,3.1h0.5c-0.2,0.5-1.4,1.4,0,2.2c-2.2,1,0.3,2.4-0.5,3.4c-2.2,3.8,1.4,7.9-1,12c0.7,1.2,0.5,2.9-0.5,3.8
				c0.2,0.2,0.7,0.2,1,0.2c-1,1.2-0.7,3.6-0.2,5.3c1.4,1.4-0.7,4.1,0.5,6.2l1,1c-0.5,0.7-1.9,2.6-0.7,4.3c-0.7,3.4-1.2,6.7,1.4,10.8
				c0.5,1.2-1,1.4,0,2.6l0.2-0.1c0,0.3,0.1,0.9-0.7,1l0.2,0.7h-0.5c-0.5,2.2,1.9,2.2,0,4.1c0.7,2.2,0.7,3.8,1.2,5.8
				c-0.5,0-0.5,0.2-0.7,0.2c2.2,2.4-0.7,5.5,1.4,8.2c-0.5,1.7-1.4,2.9-0.5,4.3l1.4,1c-1,0.5-0.7,1.7-0.2,2.4l0.7-0.2
				c-1.4,0.7,0.2,1.9-0.2,2.6c0.5-0.2,0.5,0.2,1,0.5c-0.7,4.1,0.2,6.5,1,9.9c0.5,1.2,1.7,5.3,2.4,7.2c0.7,0.7,0.5,2.6,1.9,2.4
				c-0.2,4.8,2.6,8.2,5.3,11.3c-0.2,0-0.5,0.2-0.2,0.5l0.5,0.5l0.7-0.5c-2.2,2.2,2.9,2.6,1,4.6c-0.7-0.2,0.5,1.9,1.2,1.2
				c0,1.2-0.5,2.9,1.4,3.1c0.5,1.9,2.2,4.1,3.1,5.8c0.7,2.2,1.9,2.6,2.6,4.3c1.2,3.4,2.4,6.3,4.1,8.7c0.2,1.9,1.4,3.8,1.9,5.8
				l1.4,1.2l-0.5,0.5l1,1c-0.5,0-0.5,0.2-0.7,0.2c2.2,0,0.2,2.4,2.7,2.9c1,3.6,3.4,8.4,6,11.8c-0.7,1.7,0.2,2.4,0.7,4.1
				c1.2,2.4,4.3,3.6,4.3,7c2.2,1.2,3.1,4.1,4.8,5.5l-0.2,0.2c1.2,0,1.9,5.3,4.3,3.1c-1.4,2.2,2.2,2.9,2.2,4.6
				c1.4,1.7,2.6,3.4,3.6,5.3c5.3,2.6,4.8,7.4,9.4,10.3c0.2,0.5-0.2,1.2,0.5,1.4h0.7c-0.5,1.4,1.2,2.2,1.2,3.1c1.9,1,2.6,5,4.8,5.5
				c-0.7,1.7,2.6,2.9,3.6,4.6h0.7c-0.2,1,1,1.2,1.4,1.2c2.4,2.4,3.4,5.5,5.5,7.2c0,0,0.1,0,0.1,0c0,0.4,0.2,1,0.9,1.5
				c0.5-0.7,0.2,1.7,1.2,2.2l1,1l0.5-0.2c1.9,2.6,4.6,4.6,6,7l1.9,1.9l0.2-0.2c0.2,1.7,2.9,3.6,5,5.3c0.2,2.2,3.4,3.8,4.3,6.5
				l0.7,0.7l-0.2,0.2c3.8,4.6,7.2,9.6,10.3,14.2c2.9-0.5,1.4,1.9,3.4,2.2c0.7,1.2,0.5,2.4,2.2,3.6c1.4,2.4,3.8,4.1,6,5.5
				c0,0.2-0.2,0.7-0.2,1.4l1.4,0.5l-0.2,1c0.5-0.7,1.9,1.2,1.7-0.7c0.5,2.4,1.9,3.6,4.1,4.3l0.2-1.4c0.5,1-0.5,2.2,1.2,2.9l1-0.2
				c1,3.6,4.3,5.5,6.2,8.4l1.7,0.5h-0.2c0.2,0.7,2.7,1.4,2.7,3.1l0.2-0.2c-0.2,0.3,1.3,1.6,2,0.9c-0.2,2.2,3.4,1.9,3.4,3.6
				c2.4,1.7,1.9,2.9,4.6,4.3c1.7,1.2,5.1,3.1,7.4,4.3l1-0.5c0.7,0.5,0.7,2.6,1.9,1.4c3.4,3.6,8.9,2.6,12.5,7c2.2,0.5,5.3,1,6.5,1.9
				c1.4-1.5,1,1.9,2.4,0.2c4.1,0,6.7,1.2,10.8,1.2l1-0.5c2.2,2.2,7.4,1.7,10.1,2.6c1.9,0.5,4.8,1.7,7,1.7c1.9,0.7,4.6,0.7,6.5,2.6
				c1.2-2.4,3.8,3.1,5,1c1.9,1.7,3.6,1.7,5.5,3.4c2.4,0,5.5,3.4,8.2,3.6c0.2,0.2,0.5,2.2,2.2,1.7l-0.2,0.5c0.7,1.4,1.7-0.7,2.4,0.5
				c1.9,2.4,4.8,2.6,7.2,4.1c1,2.2,4.3,2.4,5.3,4.3c2.4,0.7,5.3,3.1,9.1,4.3c0.5,1,2.6,1.9,3.6,1.4v-0.2c0.7-0.5,1.2,2.7,2.9,1.7
				c0.5,1,4.1,2.9,6,2.6c1,0,1.7,2.2,2.9,1.4c0.2,1.7,1.4-0.2,2.4,0.7c-0.7,1.7,1.4,0.7,1.9,1.4c2.9,3.4,8.2,2.9,10.3,5
				c3.4,1.2,8.2,2.2,10.8,4.3c0.9-0.7,1.2,2.3,2.3,0.6c-0.2,0.4,1.1,0.9,1.5,1.3l1-1c1.2,1,2.4,3.1,4.1,1.4c1-0.2,1,0.7,1.4,1.2
				c6,2.6,11.5,2.9,17.1,5.5l1.9-0.5c0.2,2.6,3.1,0.7,4.6,1.7l0.7-1c0.5,1.9,2.9,1,3.6,2.2c6.7,0.7,9.6-0.7,15.6,1v0.5
				c1.4,0,3.4,0.5,4.8,0l-0.5-1h1.4l-0.2,0.2c0.7,1.4,2.4,1.4,3.6,1.2l1-1c0,1.4,2.4,1,4.3,1.4c1.9-1,4.6-0.2,7-0.5
				c1.2-0.2,3.1,0.2,4.6-0.2c2.9,0.5,5.5,1.2,8.6-0.2c1,1.9,2.2-0.7,3.4,0.2v0.2c1.3,0,2.4,0.2,3.7-0.7l-0.5,0.4
				c3.4,1.2,6.2-1.2,9.4-0.7c0.2-1,1.9,0,2.6-0.7c1.7-0.7,7-0.7,10.6-0.7c0.5-1.9,3.1-0.7,4.1-1.9c1.4,1.4,2.9-1.7,4.6-0.5
				c0.5-1,2.9-2.6,2.9-1.2l0.5-0.7c0,1,1,0.5,1.4,0.7c1.4-0.2,3.1-2.2,4.3-0.7c4.1-0.2,6.5-2.6,9.1-3.4c0.2,0.7,1,0.5,1.7,0.5
				c0.7-2.2,3.1,1,4.6-1.4l1.3-0.7c-0.1,0.1-0.1,0.5-0.1,0.7c0.7-0.9,2.1,0.2,2.9-1c0,0.1,0,0.2,0,0.3c1.4-0.2,2.6-0.7,4.3-1.2
				c1.2,0.7,2.6-1.7,3.4-0.5c1.4-1.4,2.9,0,4.3-1.2v-1.8c0.2,0.7,0.7,1.6,1.4,1.8c3.6,0.2,5-3.4,8.7-2.4c1.2-1.9,3.4-0.7,3.8-2.2
				c1.7-0.2,2.4-0.2,4.6-0.7c1.5-0.2,2.4-1.9,3.9-1.2c1-1.2,3.4-0.7,3.6-2.4c1.2,1.4,2.2-0.2,3.1-0.5v-0.5l1,1
				c1-0.7,0.5-1.7,1.4-2.2c-0.2-0.5,1.9,1.2,2.4-0.2c0.5-3.4,3.9,0.2,5-1.9c1-2.4,3.6-1.4,4.3-3.4c2.4,0.2,4.3-2.4,7-3.1l0.5-1.4
				v0.2c3.1,0.2,8.7-3.4,10.8-4.3c2.9,1.4,3.4-3.8,5.8-1.7c2.7-1.9,6-2.2,7.9-4.1c4.1-0.2,7.2-3.8,11-3.8c0.2-1.9,2.2,0,1.9-1.9
				c1.7,0.5,3.8-0.2,5-0.7c1.2,0.7,1.7-1,2.6-1.2c1.2-0.5,3.8-1,4.3-2.4c0.2,0.2-0.2,1.2,0.7,1.2c0.5-0.2,0.2-0.7,0.2-1.2
				c2.7,1.4,1.9-3.6,4.8-1.4c0.5-0.2,1.2-0.2,1.7-1l-0.2-1c0.2,1,1.9,0.2,2.9,0.5l0.7-1.4c0.2,0-0.7,1.2,0.7,1
				c0-2.4,1.2,0.2,1.9-1.7c3.4,1.4,4.1-1.9,7.7-1.2c1.2-1.9,3.6-2.2,5.3-2.7c2.9-2.2,6.7-2.6,9.6-4.6c1.9-0.2,2.2-1.9,4.8-1.7
				c0.5-0.2,0.2-0.7,0.2-1c1.2,1,1.4-2.2,2.6-0.2c1.2-2.2,3.8-1.4,4.6-2.9l0.7,0.5c0.7-0.2,0.2-1.2,1-1c1.7,1,2.4-1.7,4.1-2.2
				c3.8-1,6.5-2.4,9.8-4.3c1.2-2.4,5.3-1.4,5.3-4.8l0.2,1.2c0.7-0.7,3.1-0.7,3.6-2.6l0.5,0.2l2.9-2.4v0.5l2.9-2.6l-0.2-0.2
				c0.8,0.5,1.3-1,2.3-0.8c2.9-4.3,5.8-4.1,9.6-7.9c3.4-1.7,6.5-6,7.7-8.2c0.5,0,1,0.2,1.2-0.2v-0.7c1-0.2,2.4-2.4,4.1-2.9
				c2.2-2.2,3.1-2.9,6-2.9c1.2-2.2,1.9-3.6,3.8-5l0.2,0.2c0.5-2.9,5-3.4,5.8-6.2c3.4-1.2,6-6,9.1-9.1c1.2-1.2,3.6-2.4,3.1-4.6
				c3.9,1.2,4.6-5,7-5.8c0.5-2.4,3.4-1.7,2.4-4.3l1.2,1c1.2-1,1.4-3.4,2.4-3.6c1.7-1.3,3.8-4.8,5.3-7.3c0,0,0,0.1,0,0.1l0.2,0.5
				c1.2-0.5,1.2-1.7,1.2-2.6l0.5,0.5c0-1.5,1.7-2.2,2.9-2.2c1.7,0.2,2.6-0.7,4.1-1.4c-2.2-1,1.7-2.6,0.2-4.1
				c1.2-1.4,0.2-3.1,1.9-4.3c1-0.2,2.9-0.7,4.3-1l-0.5-0.7c2.9,1.9,2.6-2.2,4.3-3.4c0-0.2,0.2-0.7-0.2-0.7c2.4-1.7,5.8-4.1,6.7-6.5
				c2.9-3.4,1-8.4,4.8-10.8c2.6-1.7,1.9-5,4.1-7c0-3.4,1.9-2.9,2.9-5.8c0.7-0.7-0.5,0.5,0.2,0.5c1.4-0.2,1.2-1.7,1.7-2.4
				c1.9,0.5,1-1.7,1.9-2.2c-0.7-1.4,1-1.9,1.7-2.9l-0.7-0.7c2.9-1,4.1-4.3,5.3-7.2c-1.4-3.1,2.2-3.1,2.9-6.3c-0.2,0-0.2-0.2-0.5-0.2
				c0.2-1.7,1.4-3.4,1-5.5c0.5,0.2,0.7-0.2,1-0.5l-0.3-1.4c1.9-0.5,0.7-3.6,1.7-4.6c0.2-4.1,2.9-7,2.6-9.6l0.2,0.2
				c2.4-1.2-0.5-2.4,1.9-3.8c-1.2-2.2,2.9-3.4,1.4-5.8c1.7-3.8,3.6-8.7,6.5-11c0.7-1,2.4-6,2.6-8.9c4.6-2.2,0.7-6.7,5-8.9
				c-1-2.4,2.2-1.2,1.4-3.6h-0.5c0.3-0.2-0.1-1.5,0.5-2.2c-1.2-3.4,3.4-3.8,1.2-7c3.8-5.3,3.4-9.1,4.8-15.1c1.7-0.7,1.7-3.6,1.4-5
				c0.7-3.1,2.6-5,2.4-7.4c1.2,0.2,1-1.4,0.5-2.4c-1.7-0.2,0.7-3.4-0.2-4.8l1-0.7l-0.7-0.5c3.6-1.4-0.7-6,1.4-8.4c0-1.9,1.9-5-0.5-6
				c2.6,0.2,1-2.6,1.7-3.8c0-0.7-1-1-1.2-1.7c1.2-3.8,0.7-6.3,1.2-11l-0.5-0.2c-0.5-3.6,1-6.2-0.2-9.4c1.2-1.2-0.2-5,0.2-7.2h-0.7
				c0.7-4.1-1.4-9.6,0-13.9c-1.7-1.9-0.5-4.8-1.7-8.4c0.5-2.9-2.4-6-0.7-9.4c-1-0.5-0.7-1.7-0.5-2.2c1.4,0.5,1.4-0.7,1.4-1.4
				c-0.5,0-2.9-0.7-1.7-2.2c1.5-0.5,1-1.4,0.7-2.4l-1.4-0.5l0.7-1c-0.7-1.7-0.7-3.1,0-5.3c-0.2-0.5-1.4-1.2-1.4-2.2
				c0,0.5,1.2-1.2,0-1.7c0.2-2.6,1.4-6.7-1.2-8.4c0.7-1.7-0.5-4.6-0.5-6.5c-0.2-0.2-0.5-0.2-1-0.2c0.5-2.4,0.5-3.4,0-5.8l-0.5-0.5
				c0.7-0.5,0-1.4-0.2-1.4h0.2c-1-2.2,0-3.6-1.2-5.8c-0.5-1-1-3.6,0-5c0-1.7-1.9-2.6-1.7-4.6h0.2c-1.2-3.4,0.2-8.2-3.4-11.3
				c0-1,0.2-1.9-1-2.4l-0.3,0.1c0.9-0.6-0.2-2.3-0.5-3c-1-1.2-0.5-3.9-2.2-4.8c0-1.7-0.5-3.6-1.2-5.8c-2.9-2.9,0-7.7-3.4-10.3h0.2
				c-1-3.1-2.4-5.8-4.8-7.9h-1l1-0.7c-5.8-4.3-4.8-10.6-11-14.2c2.6-4.6-4.6-2.9-3.6-7.4c-0.5-2.6-3.8-1.7-3.4-4.8
				c-2.4-2.9,0.7-9.8-4.8-9.4c-1.7-1.4-3.8-2.6-3.8-4.6c-1.4-0.2-1.2-1.4-1.9-2.6c0.2,0,0.7-2.2-0.5-2.4l0.5-0.7
				c-0.2-0.2-0.5-0.2-1-0.2c1.7-0.5-0.5-1.9,0-2.4c0.5,0.2,0.5,0,0.7-0.2c-0.2-0.7-1.2-1-1.7-0.2l0.2,0.2l-1-0.2l-0.5,1.7
				c-1,0.5-2.2-0.5-2.9-1.2c0.5-2.9-2.6,0.7-2.6-2.4c-3.1-1.9-5.3-6.3-8.4-9.4c0-1.6-0.2-4-1.4-5.1c1.5-1.4-1.4-1.2-1.5-2.2
				c1.3-0.6-1.8-2.4,0.7-3c-1.9-1-1.4-5.5-4.3-4.3c0.2-0.7-0.5-1.2-1-1.7c-1.7,0.7-2.9-0.2-4.1-1.2c-0.2-1.9-1.4-4.3-3.4-5.3
				l-0.7,0.7l-0.2-1.4c-2.2,2.9-2.6-1.7-5-1.7c-0.5,0.5-1,0.5-1.4,0.5l-3.6-4.3c-0.5,1-1.2,2.6-2.6,1.7c0.5-1.9-1.7-1.9-0.7-3.6
				c-0.7-0.5-1.9-0.2-2.9-0.5c1.9,0.2,0.2-1.4,0.7-2.2c-1.7-1.2,1.4-2.2-0.5-3.1c0.2,0,0.5-0.2,0.5-0.5l-0.7-0.5l0-0.6
				c1.1-0.1,0.8,1.3,2.2,0.6c0.2-1,1.2-1.9,0-2.6c2.2,0,0.5-1.2,0.7-2.2l-1.5-1.4c0.2,0,0.7-0.2,0.7,0.2c1.5-2.4-1-5-1.9-7.2
				c0.2-0.7,0.2-2.4-0.5-2.9h-1v-1c-1-0.5-1.9,0.2-2.9,0.2v0.7c-0.5,0-1.2-0.2-1.7,0.2v0.5c-4.1,0.5-3.6-6-8.4-4.8
				c-3.4-1.7-6.5-3.8-10.1-5.5c0-1.9-7.5-5-2.4-7.4c-1.2-1-1-1.4-1.9-2.4c1.4-2.2-2.4-3.4-1.2-5.8c-1.7,0.2-4.1-2.2-5.8-1.4
				c-0.7,1-0.7,3.1-1.2,3.8c0,0.5-0.7,1.4-1.4,1.2c-1.4-0.2-4.6-1.4-3.6-3.6l-1-0.5c1-1.2-1.4-1.9-1.7-3.1l0.5-0.7l-0.5-0.5h1.7
				c1-1.7-1.2-1.4-1.9-1.9l-0.2,0.2l-1.2-2.2c-1.5,0.5-1.7,3.1-4.1,2.2c-3.6,0.2-3.6-5-7.2-5c-1.7,0-3.6-1.9-5.3-1
				c0.2-1.2-1-1.2-1.7-1.9l-0.2,0.5c-0.7-0.7-2.6-1.7-2.6-2.9c-0.2-2.6,3.4-0.2,4.1-1.9h0.2c-1-1.4-4.3-2.2-5-4.3l-1.9-1.7l-0.2,0.2
				c-0.5-0.5-1.4-1.2-2.2-1.4l-0.7,0.7c-1-2.2-3.4-1.7-4.8-1.7c0-0.5-0.5-0.7-0.7-1c0.2,0.5-1.4,1.4-0.7,2.4l1.2,2.9
				c-1.2,1-2.2,0-3.4,1.4c-2.6-1-4.6-3.1-5.3-5.5l-1.4-1.4c-1.9,1.7-4.8-2.6-5.8,1.4c-3.8,0-2.6-2.6-6.3-3.1c-1-2.4,1.7-1.7,2.4-2.9
				c1.2-0.5,1.9,1.4,2.6-0.5c-0.5-2.2-3.8-0.2-3.6-2.4c-2.6,0-4.6-2.9-6.2-2.4c-1.2-1-2.6-3.8-5.5-3.1c-0.5,0.2,0.5,1-0.5,1.2
				c-1.2,0-1.4-1.7-2.6-1.9l-1.2,1.9c-0.5-0.5-3.6-2.6-3.1-4.1c-3.1,0.2-1.4-3.1-4.3-3.6c-1.4-1-1.7-6.5-4.6-3.4
				c-0.5,1-2.2,2.2-1.7,3.1c1.4-1.9,2.6,1.2,3.6,1.7c1.2,0.7,0.5,2.2,0.7,2.9c-1,1.4-2.2,0.7-3.6,0.5c0-2.2-3.1-1.9-2.2-4.3
				c0.2,0,0.5-0.5,0.7-0.7c-0.5-1.2-1-2.9-2.2-3.6l-0.7,0.5c-1.2-3.4-4.6-1.4-5.5-4.6c-2.6-1-2.9-4.1-5-5.3l-1.2-1.9l-0.5,0.7
				l-1.4-1.4l-0.7,1.2c0.5-1-1.5-2.4-2.2-2.2c0-1.2-4.3-1-3.8-3.4c-2.4,0.7-2.6-3.8-4.8-2.2c-2.6,0.2-0.5-6-3.6-3.8
				c-2.2-1.9-4.8-1.4-7.2-3.4c-2.4-1.4-5.8-3.4-7.4-4.6c-0.2-0.5-0.7-1-1.2-0.7l-0.5,1c0-2.4-2.6-1.7-4.1-2.6
				c-1.2-0.5-1,2.4-2.4,0.5c-0.2-0.7-1.2-4.6-3.8-5.1h-0.7l0.2-0.2c-1.9-1-4.8,0.5-6.5-2.2v-0.7c-3.6,1-6.3-2.6-10.1-2.9
				c-0.2-1.4-1.4-0.5-1.4-1.2c-0.5,1.9,1,4.3-1.2,5.8c-2.9-0.5-1.9-4.1-2.6-6l-1.2,0.7c-0.2-1.9-2.9-1.9-3.4-3.6c-1,1.2-2.6,1-3.4,1
				c0-1.2-2.6-1.2-3.4-2.9l-2.2,1c0.5-0.2,0.2-0.7,0.2-1.2c-0.2-0.5-0.7-0.2-1.2-0.2l-0.5,1l-0.7-1.2c-0.2,1.9-2.2,0.7-2.4,2.2
				c-0.2,0-0.3-0.1-0.5-0.1c-2.6-0.9-0.7-5.1-4.5-3.7l0.7,0.5c-1.7-0.5-5.3,0.5-4.8-3.1c-1.7-0.2-2.4-1.7-3.4-2.9
				c1-1.7-1.7-2.6-2.4-2.9c-0.7-0.5-0.7,1-1.4,1.2c1.4,0.2,1.2,2.4,1,3.1c0.7,1-2.2,1.7-1.2,3.4l1.2,1.4l1-0.5
				c0,0.7-0.5,1.4,0.5,2.2c2.2-0.7,4.1,3.1,6.7,2.2c0.1-0.1,0.2-0.4,0.2-0.6c0.2,0.7,1.3,1.1,1.9,1.3c1.6-0.4,3.1-1.1,4.4-0.8
				c0.3,0,0.6,0.2,0.9,0.3c0.5,1.9,2.6,1,2.6,2.9c2.4-0.5,1,4.3,4.3,4.1c1.7,4.3,7,1.4,9.6,4.8c1.4,0,2.4,2.9,4.8,1.2
				c1.2,0.2,2.2,1.9,3.6,1.2c0,1.7,3.6,2.2,3.6,4.1c1.4-0.7,2.2,1.7,3.4,1.9c2.4,3.1-2.6,5.8,1.2,7.2c1.2,2.6,6.5,1.2,6.2,5.3
				c-2.9,1.4-2.9-2.4-6-1.9c-1-3.6-5.5-1.9-7.2-4.8c-2.4-0.7-3.4-0.7-4.6-3.1l1.4-2.4c-2.2-2.2-5-3.8-7.4-3.1
				c-0.2,1.2,1.7,1.2,0.7,2.6c-2.2,1-3.6-1.9-5.8-2.4l-0.2-1.7c-3.8,1.7-3.8-5.8-8.6-4.3c-1.9,0.5-2.2,0.5-3.8-0.5
				c-1.2-1.9-1.9-3.4-4.3-5c-1,0.7-1.2,2.4-3.1,1.7c-1.2-3.6-1.7-4.1-5-6.2l-2.4,2.4c-1-0.7-2.4-1.9-2.6-2.9c-2.4,1-2.6-2.9-5-2.6
				c1.7-3.8-4.6-5.3-1-7.9c0-0.5,2.6,0,1.9-1.7c-1.9-0.2-0.5-2.6-2.9-2.9c-0.5,1-1,1.4-2.2,1.2c-0.2-1.2-1.9-1.9-2.4-3.1
				c-0.5,1-2.2,0.5-3.1,0.2c-1-2.4,1.9-3.8-0.2-6c1.2-1,2.4-3.6,4.6-2.4c0.7-1.4,1.1,0.5,1.8,0.3c-0.3,0.4-0.1,2.9,1.1,3.6
				c0,0.5-0.2,1.2,0.2,1.4c4.6-1.4-0.5-4.8,0.7-6.5c-2.6-1-4.6-3.4-6.2-4.6c0.2-0.5-0.5-0.5-0.2-1.2c-2.4,1-3.1-1.2-4.8-2.2
				l-0.7-1.4h0.5c-0.7-2.9-3.1-4.1-6.2-5.1c-1-1.2,0.7-2.6-0.7-3.6c-0.2,0-0.5-2.6-1.7-1.7c-2.9-4.3-7.9-7.2-11-11.5
				c-2.9-1.4-5.8-4.8-7.2-7c0.5-1-0.5-1.2-1.2-1.4c-0.5-0.2-0.5,0.2-0.7,0.5c-2.2-0.5-0.7-3.1-2.2-4.1c0.2-1-0.2-1.9-1.2-2.4
				c-2.2,1.2-1.4-2.9-3.4-2.4c-4.3-1-6.2-7-10.3-8.2c0.2-1.4,1.2-2.9-1-3.6H493l-0.2-2.7l-1,0.2c-1.4-2.4-3.8-4.1-6.3-5.8l-2.9-0.2
				c0.2-1.2-3.4-2.4-1.4-3.8c2.9,0.7,4.3,1,6.5,3.4c2.6,1.2,2.9-3.4,5.1-0.7c1,1.2,0,2.6,1,3.8c1.7-0.2,5.3,3.6,7.2,0.5
				c2.4,1.2,4.1,5.3,7.2,4.1c3.4,2.2,6.7,1.2,9.4,3.8c2.2-0.2,6.2,1.4,9.1,3.6c2.2,0,3.6,1.9,5.3,1.4v-0.7c1,0,1.4,2.2,2.6,1
				l0.2-0.2c2.2,1.9,5-1.4,6.5,1.7c0.5,0.7,0.5,2.2,1.5,1.9l0.7-0.7c1,1.9,4.6,0.7,5.5,2.9c2.2-0.2,0.7-0.5,2.9,0.7
				c-0.5,0-0.5,0.7,0,0.7l0.7,1l0.7-0.7c1.7,2.4,4.8,2.7,6.7,3.9c2.4-2.7,1.4,1.4,4.1,1c3.1,3.8,8.9,1.7,11.3,5.8
				c2.4,0.7,3.4,0.5,5.5,1.9c4.6-1.7,6.7,4.3,10.8,3.8c0.7-0.2,2.9,2.4,3.8,0.5c4.8,2.9,9.6,4.6,14.4,7.7c2.2-1.4,2.2,2.2,4.1,2.4
				l2.9,0.5v-0.2c3.4,1.4,5.8,3.4,9.8,5.8l1.9-0.2c-0.2,1.2,1.2,1.2,1.7,1.4l1.2-0.2c0,0.2,0.2,0.5,0.2,0.5c0.2,0,0.7,0.2,1-0.2
				c1.2-0.2-0.5,3.4,2.6,2.9l1-0.2c-0.5,1.4,1.4,2.2,2.4,2.2l1-0.2c1.2,1.4,2.9,2.2,4.6,3.8c0.5-1.7,1.2,0.7,2.2,0
				c0.7,0.5,1.4,1.7,2.2,0.7c0.7,1.4,2.2,2.6,3.6,2.9c1.9,1.4,3.4,4.6,5.5,4.1c1.2,3.1,4.3,2.2,6,5.3l1-1c1.2,3.4,4.3,3.1,6.2,4.3
				c2.4,1.2,2.6,3.6,5.1,4.1c0.5-0.2,0.2-0.7,0.2-1.2c0.5,1,1.4,3.1,2.9,2.2l-0.2,0.2c2.9,0,4.3,3.4,7,2.6c-0.2,0.5,1.9,2.9,3.4,2.9
				c1.2-0.2,2.4,1.4,4.1,1v0.5c2.2,1,4.1,3.1,7.4,3.6c0.1-0.3,0.3-0.4,0.4-0.7c0.2,1.3,2.1,1.1,2.7,2.1c1.7-0.5,2.9,2.6,5.3,1.4
				c3.4,1.9,6.5,3.8,10.3,3.8c0,1.2,1.4,0,1.9,0.7l0.7-0.5c0,0.2-0.2,0.5-0.2,0.5c3.1,0.5,6.7,6.5,11.8,5.3c1,1.7,4.6,1.2,6,3.8
				c0.2,0.2,3.6,1.2,4.8,1.7c3.4-0.2,6.7,4.1,10.6,5.8c2.6,3.4,7.7,2.4,10.3,6.3c1.2,3.8,5.8,2.4,7.9,4.6l0.7-0.5
				c1.2,1.4,3.4,3.1,5,4.1l0.7-0.7c0.7,2.2,1.9,1.2,3.4,2.9c2.9,0,4.8,3.8,7.4,4.3c0.2,1.9,2.2,1.4,3.4,2.2c1.2,1,3.8,2.9,5,4.3
				c0.5-0.2,0.2-0.7,0.2-1.2c0.7,0.5,0.7,2.4,2.4,1.7l1.9,2.4l-0.2,0.2c1.7-0.7,2.9,1.2,4.6,1.2c0,2.4,5.1,0.7,3.4,3.4
				c0.2,1.2,2.6,1.2,3.1,2.9c0.2,0,0.2-0.5,0.2-0.7c0.2,0.5,0.7,0.2,1.2,0.2c1,1.4,3.4,1.7,4.1,3.4c1.7,0.7,3.6,6.2,7.5,5.5
				c4.3,2.4,7.7,5.3,11.5,7.4h-0.2c0.7,1.2,2.4,3.4,4.3,2.9c0.5,1.7,3.4,3.1,4.8,4.1c1.2,0.5,1,3.6,3.8,3.1c1.7,3.4,5.5,1.7,6.5,5
				h1.2l-0.2,0.2c0.2,1.2,1.7,1.2,2.6,1.7c0,0.7-0.2,1.4,0.5,1.7l0.5-0.5l-0.5,0.7c2.2,1.7,1.9,1.9,4.6,2.2c0.7,0.7-0.2,1.4,1.2,2.2
				h1.2c0,1.4,0.5,2.9,1.4,3.6l-0.7,0.5c7.7,3.4,13,14.2,19.7,18.5c5.3,6.2,13.2,9.8,15.6,15.8l0.5-0.5c0.5,1.9,6,5.3,6,8.9l6.5,7.7
				c-0.5,1,0.7,1.9,1.4,2.6l1.2-1v1.2c-0.2,0-0.5-0.2-0.7-0.2c-0.5,1.2,1.9,2.2,1,3.9c2.6,1,3.6,4.3,5,5l5,4.6
				c0.2,0,0.5-0.7,0.7-0.5l0.7,1.4l0.2-0.2l1.9,1.9l0.5-0.2c-0.7,0.7,0.7,1,0.2,1.9c1.2,1.5,2.9-0.7,4.3,0.5
				c-0.2,0.7,2.2,3.1,3.4,4.6l-0.2,0.2l1.9,1.9h-0.2c0,2.6,2.9,2.6,2.6,5.3c-0.7,3.1,4.1,8.4-1,9.8c0,0.2,0.5,1.4-0.2,1.9h-0.5
				c0.7-1.2-1.2-1.7-0.7-3.1h-1c0,1.9,2.4,6,3.8,7.2c1.2-1.2,2.4-3.1,4.8-2.4c1,2.6,0.2,4.8,1.9,7c-1.2,1.5-0.7,3.9,0.2,5.5
				c1-0.7,0.5,0.5,1.2,0.2c-1.4,5,2.7,5,1.4,10.3c1.7,1.2,1.9,2.6,1.9,4.1c-2.2,2.2,2.4,5-0.5,7.4v1.4l-0.2-0.7
				c-0.7,0.2-1.7,0.5-1.5,1.4c0,2.4,2.2,3.4,2.2,5.8c-1,0.7-1.2,3.6-3.1,2.9c0-0.5-1.7-1-0.7-1.7l-0.7-0.7c-0.5,0.2-0.2,0.7-0.2,1.2
				c-0.5-0.2-1.2,0.2-1.7,1l0.5,0.7l-2.6,2.4c-2.4-2.6-2.9-4.1-5.8-6.5c-0.5,1.4,0.5,3.4-1,4.1c-0.5,1.2,1,1.4,1,2.4
				c0.7,0.2,1-0.2,1.2-0.7c0,0.2-0.2,0.5-0.2,0.7c0.7,1,1.4,0.5,2.4,0.2c1,1.7,1.7,1.4,1.9,3.4c0.2,0.2,1.1,0.2,1.5-0.2
				c2.1,1.6,3.8-1,5.7,1.2l1,2.9c-1.7,1.7-5.8-0.7-4.1,2.7l-0.7-0.7c-1.4,1.2-1.9,2.2-1.7,4.8c4.6,0.2,1.9,5.8,3.6,9.1v1.4h0.5
				c0,0.5,0,1-0.5,1.4c-3.1,0-3.6-3.4-5.3-4.1l0.2-0.2c-0.5-0.7-1.2-1.9-2.2-1.9c1-1-0.5-1.2-0.7-1.9c1-0.2,0.7-1.7,0-2.2
				c-0.5-1.3-2.1-0.2-2.2,0c-0.5-0.7-0.5-1.7,0.3-2.1c0.2,1,1.2,0.5,1.7,0c0.5-1,0.2-2.4-0.2-3.4c-0.5,1.9-5,0.7-3.1,3.1
				c-1.4,2.6-0.7,6,0,8.6l-1,1c0.7,1,1.2,3.1,2.9,3.6l0.2-0.2l0.2,0.2c0,0.7-1-0.5-1.4,0.7c0.2,0.4,0.6,0.3,0.9,0.3
				c-0.9,1.6,1.7,1.4,2.4,2.6l0.2-0.2c2.4,1.2,0.7,3.4,1.9,6.2l1.7,3.8h-0.2c1.7,2.4-0.7,4.1,1.7,6.3c0.2-0.5,0-1,1-1.2
				c-0.2-1.2-1.2-3.9,1-3.6c1,0,1.7,1.2,1.4,2.4c-0.2,3.6,1.2,7.4,1,11.3c-2.4-0.5-0.7,3.6-3.6,2.2c0-0.5,0-0.7-0.2-1
				c-1.9,1,1.2,1.7-1.2,2.9c-0.2,1.4-0.2,3.6,1.7,4.6c0.7-0.5-0.2-1.2-0.2-1.7c0,0.2,1-1.4,1.9-1c2.2,1.7,0.7,3.8,2.4,5.5
				c-0.5,0.2-0.2,0.7-0.2,1l0.2,0.2l1.4-1.2v0.2l1.7-0.2c0.2-1.4-0.5-2.2-0.5-3.4l-1,0.5c0,0,0,0,0,0c0-0.1,0-0.2,0-0.3
				c1.9-1.2-2.2-2.6-1.4-4.1c0.5,1.4,0.7-1.9,1.9-0.5L960,439h0.2c-1.2-2.2,0-2.4-0.2-5c1.7-1,1.4,1.2,2.9,1.9
				c0.2-0.5,0.5-0.2,1-0.2c-1.2,1.2,0,2.9,0.5,4.3c1.9,0.7-0.7,3.9,1.4,4.1c-0.7,3.4,1,4.3,0,7.4l1.7,0.7l-0.2,0.5
				c0.3,0.6,0.8,0.5,1.1,0.3c-0.4,0.5,1.2,1,0.8,1.8l1,1.4l-0.5-0.5c0.2,1.2,0,3.1,0.5,4.6c0.7,1.7-1,5.3,1.9,5.5
				c0.2-0.2-0.7,1.9,0.5,2.6c0,0.5-0.2,1-0.7,1.4c2.4,1.2-1.2,1.9,1,3.4c-1,1.9-0.2,6-2.9,7c-1.2-0.7-0.2,2.6,0.2,2.9
				c0,1.9,5.3,3.4,3.1,6.5c1,0.7,0.2,0.7,0,1.4c-0.5,3.1,1.4,3.6,1.4,6.5c0.7,1.2-1.9,1.4-0.5,2.6l1.2,0.2L974,501l0.7,1.4l1.2-0.5
				c0,1,1.7,2.6,1.4,4.6c1.2,1.9-1.9,2.2-1.9,3.1c0-0.2,0-0.7-0.5-0.7l-1.7,1c0.2-0.5-0.2-0.7-0.5-1h-0.2c0.2,1.9-1,0.7,0,3.1h0.2
				c-0.7,0.2-0.2,1.7,0,2.2h0.2l-1,0.5l1.2,1.6v0c0,0.4,1.1,1.4,1.3,2c0.3,0,0.5-0.1,0.7-0.2c-0.1,0.1-0.2,0.3-0.2,0.4l0.5,0.5
				c-1.7,0.2,0.5,1,0.2,1.7c-0.5-0.2-0.7,0.2-1,0.5c0.5,1.9,0.7,3.6,1.7,5.5c0.7,3.1,0.2,4.3,0,7.2l0.7,2.6c-0.2-0.5-0.7-0.2-1-0.2
				c0.7,0,0,1.7,0.7,2.4c0.5,0.2-1,0.5-0.5,1.2l1,1c0.2-0.5,0.5-0.2,1-0.2c0.2,0.5,0.2,1-0.5,1.5l2.4,1.4c0.5,0.5,0.5,2.6,1.2,3.6
				c0,2.4,0,4.1-0.2,6.5l-2.6,0.5c0.5-1.2-1-2.4-1-3.1l-1.2-0.7l1-0.5c-0.5-0.2-1.4-1-1.9-0.2c-1.9,1,1,1.9-0.7,3.1l1,2.6
				c-1.2-0.7-1.7,1-2.6,1.2c1.9,3.4-2.6,8.2,0.5,12c-0.7-0.7-1.7,1.2-1.4,1.7c0.5,0.7,0.5,1.4,1.2,1.7c-1.9,1.9,2.4,4.3,1,5.5
				c-1.7,3.6,0.2,6.5-2.4,9.4c-1.9,0.7-1.2-1.4-1.9-2.4c2.2-1.7-0.5-5.3,1.2-6.7c-1.2-0.5-1.4,1.2-2.6,1l1.2,2.9l-0.7-0.5
				c0,2.4-4.1,0.5-2.6,3.8c-0.5,0.2-1-0.2-1.4,0.5v0.7c-0.2-0.5-0.7-0.7-1.4-0.5c1.7,2.2-0.7,7.2,3.4,7c1.7,0.5-0.2,2.2,1.4,3.4
				h-0.5v1.2c1.4-0.5,2.2-0.2,3.6,1.4c0,2.4,0.2,5.8-2.4,7.2c0.2,0,0.2,0.2,0.7,0.2c-0.7,1.9-1.2,1.4-0.7,3.4
				c-0.2,0.5-0.7,0.5-0.5,1c0.2,0.2,0.7,0.7,1.2,0.5l0.2-0.2l0.2,0.2l-1.9,0.7c-0.5,1.2,0.2,3.2,1.5,3.6c-0.7,0-1.1,0.8-1.3,1.2
				c1,2.6,0.7,5.3-0.2,8.2l0.7,0.5c-1.2,0.3,0.5,1.4,0.2,2.6l-1.7,0.5l1,1.2l-0.2-0.2c-1.7,1-1.7,1.7-2.4,2.6c0.5,1.2,1.7,2.2,1,4.3
				c-1.7,1.2-1,2.6-2.6,3.1l-1.2-1.7c-0.7,4.8-5.5,7.5-5.8,12.3c-1,3.4-4.1,4.8-3.1,7.9c-0.5,1.2-2.2,3.1-1.7,5.5
				c-3.4,2.9-1.7,6.2-3.8,10.6c-0.6,0.4-0.8,1.8-0.5,2.3c-0.3-0.2-0.6-0.3-0.7,0.2l0.7,0.7c-1.4-0.5-1,1.9-1.4,2.2
				c-1,0.5,0.5,2.4-0.5,3.8l-0.7-0.2c-1,1.4-0.2,3.8-1.7,4.3c-1.4,4.6-1.7,5-4.3,9.6c-0.5,1.7-0.7,1.4-1,3.4l-0.2-0.2
				c-1.7,0.2-0.2,1.2-1.4,1.9l1.2,0.7c-1.7-0.2-2.6,2.4-4.1,3.4c2.6,1.2-3.4,3.6-1.7,5.5c-0.2,1.2-3.4,1.7-2.9,4.3
				c-1.2,0.2-1.9,1.2-2.4,2.6l-0.2,1.2c-1.9,1.9-4.8,3.8-5.3,7.2l-0.5-1c-1.4,2.2-3.6,3.8-4.1,5.5l-2.9,3.1l0.5,0.5
				c-1.9,0.7-1.4,2.9-3.6,3.4l0.2,0.2c-1.7,2.4-3.8,6.3-6.7,8.4c-1.9,3.4-3.8,6.5-6.5,9.4c-1.2,1-1.2,1.9-2.6,2.9l0.2,0.2
				c-0.2,0.5-3.1,1.7-2.9,3.4c1,2.2-2.4,2.2-3.1,3.8c-1.2,0.2-0.2,2.6-1.4,3.4l-1.9,1.9l0.2,0.2c-1.7,1.2-1.2,2.9-2.6,4.3
				c0,1.2,1.2,1.2,0.2,2.2c-1.2-1.9-1.9,0.7-2.9,1c0,0.5,0.5,0.7,0.7,1c-0.7,0.2-1.4-0.7-1.9,0.2l0.5,1c-0.5,0-2.2-0.2-2.4,1.2
				c-1.7,0.2,1.2,1.4-0.5,2.2c-3.1,1.4-5,5-6.3,8.2l0.7,0.5c-0.2,0.2-3.8,0.5-3.8,2.4c-0.5-0.2-0.5,0.2-0.7,0.5l0.7,0.7
				c-1.9,0-3.1,1.4-3.6,3.1c-2.4,0-1,2.4-3.4,3.4c-1.9,1.7-5,4.8-6.3,7.2c-2.2,0.7-2.9,2.9-4.8,4.3c-0.7,1.2-4.1,1.7-3.8,4.1l-0.5-1
				l-4.1,3.8c0,1.4-1.4,2.4-2.6,3.1c-1.7,2.9-5,2.6-5.8,5.8c-3.1,1.4-4.1,3.8-6.7,5.5v1.4c-0.2-0.5-0.7-0.2-1.4-0.2
				c-1,3.1-5.3,1.9-5.8,5.5c-2.9,2.2-5.8,6-9.4,8.6c-5.3,0.7-7,7.4-11.5,7.2c-2.2,4.1-6.5,2.9-8.9,7.2c-2.4-1-2.2,2.6-4.3,1.7
				c-1.4,3.6-4.8,1.2-6.5,4.3c-6.3,1-8.9,6-14.9,7c0.2,2.2-3.1,0.2-2.6,2.4c-2.4-1.9-3.4,2.9-5.8,1.2c-1.2,1-2.9,1-4.1,2.6
				c-1.4,0.2-2.6-0.2-3.1,1.4c-0.2-0.5-0.7-0.2-1.2-0.2l-1.2,1.7c-1,1-3.6-0.7-3.6,1.4l-2.6,0.2c-0.2,0-1.4,1.4-2.4,1l-6.5,3.4
				c0-0.5-0.5-0.5-0.7-0.7c-2.2,1.9-3.6,2.2-5.8,2.9c-1-1.7-2.4,0.2-3.4,0.7c-2.2,2.4-6.7,2.4-9.1,4.3c-3.8,1-7.5,3.6-10.8,5
				c0.2,0.1,0.3,0.1,0.4,0.2c-0.5-0.2-1.8-0.5-2.1,0.5c-2.2-0.2-4.6,0.5-5.5,1.7l0.2,1c-3.4-0.2-4.6,2.4-8.9,3.1
				c-2.2,2.9-5,1.9-7.9,4.6c-1.9-0.7-2.4,1.9-3.8,1.2v0.7c-2.9,1.4-6.7,3.6-8.9,3.6c-1.2,1.7-5.5,3.9-8.2,4.3v0.7
				c-1.9,0-4.3-0.5-4.1,1.7c-3.1,2.6-4.6,2.9-8.6,4.3c-1.4-0.7-1.9,1-1.7,1.7c-0.5-2.2-2.6,0.2-4.1-0.2c-0.7,1.4-4.8,1.4-6.2,3.4
				c-5.8,0.2-10.3,4.1-15.6,4.6c-1.9-0.7-4.3,3.8-7.2,1.4c-0.7,1-2.4,0.5-2.2,2.2c-1.9-1.2-2.2,1.9-3.8,0.7
				c-2.9-0.2-2.2,2.2-4.8,2.2l0.2-0.5c-0.7-1.4-2.2,0.5-2.6,0c-0.2,1-0.7,0.7-1.4,0.7c-1.9-0.7-3.9,0.7-6,1.4l-0.7-1
				c-3.6,2.4-7,2.4-10.8,3.8c0-0.5-0.5-0.7-0.7-1c-5.8,0.7-9.6,3.8-15.9,3.8c-1.9,1.7-4.6-1-5.8,1.2c0-0.5,0.2-0.5,0.5-0.7l-0.5-0.2
				c-1.2,3.4-3.6,0.5-6,2.7v-1c-1.7-0.2-1.7,1-3.6,1c-2.2,1.4-4.3,0.5-5.8,1.9c-1-0.7-2.6,0.2-3.8-0.5l-1.2,1.2v-0.5
				c-5.8,0.2-11.3,4.3-17.3,3.4c0,0-0.2,0.2-0.2,0.5c-1.4-1.2-3.1,0.2-4.8-0.2c-1.7,1.2-5.8,1.2-7.9,1.9c-2.9-1.7-7.2,0.7-9.8,0.2
				c-0.2,0.2-0.2,0.6-0.1,0.8c-1.1-0.2-2.4-0.4-1.8,1.1c-1.4-2.6-2.6,0.2-3.8-1.9c-3.4,0-5.8,2.6-9.6,0l-1,1.2l-1.4-0.7l-0.5,0.7
				c0-0.5-0.5-0.5-0.7-0.7c-3.4-0.5-6.2,1.2-9.4-0.7c0.2,1.4-1.7,0.5-1.2,1.7h-1l0.2-0.7c-0.7-1-1.9,0.7-3.1-0.2l-0.2,0.5
				c0-0.2,0-0.5-0.2-0.5c-1,1.4-2.2-1.4-3.4,0.5l-2.9-1.7c-2.2,1.4-5-0.7-7.7,0.7c-1.9-2.9-2.9,1.4-5-1c-1.4,1.9-3.6-0.2-5,0.5
				c-1.7-1.9-4.8,0.7-6.5-1.7c-1.2,2.2-3.4,0.5-4.6,0.5c-1.7-1.2-2.2-0.7-4.1-0.2c-1.2,1-1.7-2.9-3.1-1h-1.9c0.5,0,0.5-0.5,0.5-0.7
				c-3.1,0.2-5.5-1.7-8.4-1c-0.2-0.2-1.7-1.9-3.1-0.7l-0.5-0.5c0.2-0.7,1,0.7,1-0.5c-1.9-1.4-5.5,0.2-7.4-2.4
				c-1.9,0.2-1.2-0.2-2.6-0.5c-0.5,0.2-0.5,1.2-1.4,1c-1.2-1.4-3.4-1.9-5.3-2.9l-0.7,1.7c-3.6-2.2-4.8-4.8-9.4-4.3
				c-0.5-1.2-3.4-1.2-4.6-2.4c-1.4,0-3.6-2.6-6.5-1.7c-0.7-1-1.7-1-2.4-0.5c-0.2-0.5-0.2-1-0.5-1.2l-1,0.7
				c-1.4-4.3-7.5-1.7-10.3-5.8l-0.7,0.7c-0.7-2.2-2.9-1.9-5-3.1c-1.7-1.2-4.3,0.3-6-2.2c-2.4-1.9-6.5-2.2-8.6-5
				c-1,0.5-1.7-1.9-2.6-0.7c-2.4-2.4-4.8-0.7-6.7-3.8c-2.6,0-2.9-4.3-5-2.4c-1.7-2.7-3.8-0.7-5-2.9l-0.2,0.2c-0.5-1.7-5.5-2.4-6-4.8
				c-3.6-0.2-6-2.2-8.6-3.6c-4.6-1-8.2-4.6-13-6.2c-1.2-2.7-3.6-1.2-5.5-2.9c-0.5,0.2-0.2,0.5-0.2,1c-2.2-3.6-5.8-1.7-8.7-3.8
				c0.2-3.6-3.8-0.2-5-2.4l-0.5,0.7v-0.2c-2.3,0.7-3-1.4-5-0.6l0.2-0.1c-1.9-2.4-5.8-1.2-7.7-3.1c-1.7,0.5-2.6-2.4-4.6-1.7
				c-3.1-1-5.8-2.6-9.1-2.9c-1-1.9-2.9-1.7-4.3-3.1c-2.2,0.7-3.1-2.2-5.3-1.4c-0.5-2.9-3.4-3.1-5.1-4.1l-1,0.7
				c-0.5-0.5,0-1.7-1.2-1.9c-2.2,1.4-2.2-2.4-4.3-1.2l0.2-0.2c-1.9,0.2-1.7-2.6-3.6-1.9c-0.5-1.4-2.4-1-2.2-2.4c-1-1-2.9,1-2.4-1.4
				c-3.1-1.4-5.5-4.6-8.4-4.8h-0.7l0.7-1c-2.9,0.5-1.7-3.6-4.3-1.7c0.2-3.1-4.6-4.3-5.8-6.7h-1c0.2-0.5-0.2-0.5-0.5-0.7
				s-0.5,0-0.7,0.2c-3.6-2.9-7.2-9.1-12.2-11.3l-0.2-2.6c-3.9,1-2.4-3.8-5.3-4.3c-1-2.6-4.8-2.9-5.5-5c-1.2-1.4-2.9-2.4-4.3-4.1
				l-0.2,0.2c-3.6-2.4-4.8-6-7.7-9.6c-1.4,0-2.6-2.4-3.4-3.1c-3.1-3.4-5.8-5.8-8.2-8.9c-2.6-1.4-2.9-5.8-6.7-5.8
				c0.5-1.2-1-2.6-1.7-2.9l-0.2,0.2l-1.4-1.9l-0.5,0.2c-2.2-4.8-6.5-9.4-9.6-14.2c-1.7-2.6-3.6-5-6.5-7c0.5-0.2,0.2-0.7,0.2-1h-0.7
				c0-0.7-0.2-1.2-0.7-1.4h-0.7l0.2-0.5c-2.2-3.1-5-5.3-6.7-9.1c-1.7-0.5-1.9-4.1-4.3-4.6c-1-2.6-2.9-5-4.8-6.7l-0.2,0.2
				c-1.7-6-8.9-8.4-10.8-14.7l-1.4-1.2c0.5,0,0.5-0.7,0-0.7c-1.9,0.7-1.7-1.7-3.1-1.7c0.7-0.7-1.2-2.2-1.4-3.8
				c-3.4-2.2-2.2-4.3-6-6.2c1-0.7,0.3-1.7,0-2.4c-2.4-1.9-1.4-4.1-3.4-6c-2.2,0.2-2.2-2.9-3.6-3.1l0.2-0.5c-0.2-0.2-1-1.2-1.7-0.5
				c0-2.9-0.7-5.5-2.9-7.2c1-1.4-1.9-1.9-0.5-2.9c-1.7,0.5-0.2-1.4-1.4-1.4c-1.9-0.5-0.7-3.1-2.9-4.3l0.2-0.2
				c-1.7-2.4-2.9-5.3-5.3-7.4c1.4-4.8-5-5.5-4.8-10.6c-2.9-5.5-3.4-11-6.7-15.4c1.2-2.6-3.1-4.6-1.5-6.7c-1.7-2.6-1.9-6.3-4.3-8.7
				c-0.2-2.2-1.7-5.5-3.6-7.2c1.2-1,0.2-2.9-1-3.1c-0.2-1.9,1-4.1-1.7-4.1c1.4-1.9-1.2-4.1-1.2-6l-2.6-6.5c1.2-3.1-1.7-6.3-1.9-9.6
				c-3.1-1.4,1-4.3-1.9-6.7c-0.5-4.6-1.4-8.2-1.9-12.5c-0.2-0.5-1-0.2-0.7-0.7l0.5-0.7c-0.7-1.9,0-5.5-1.2-7.5
				c-1.4-4.1-0.2-6.5-1-10.8h-0.7c1.2-0.7,0.5-3.4,0.7-4.3c-1.7-2.6,0.7-7.4-0.7-11c-0.5-8.4-1.2-17.3-0.2-25.7l-0.5-0.7
				c1.4-1.2-0.7-2.9,0.5-4.3c0.7-1.9,0-4.3,0.5-5l-0.5-0.5c1.7-2.9-0.2-5.3,1.2-8.7c0.7-2.9,1-5.8,0.7-8.6c1-0.7-0.5-2.9,0.5-5.1
				c1.4-1.9-1.4-4.8,0.7-6.2c-0.5-4.1-0.2-8.4,1-13c-0.7-3.8,1.2-7.9,0.7-11.8c0.5-2.9,0.7-6.5,2.4-8.9c-1.2-2.6,1-6-0.5-8.2
				c1.4-3.1,1.2-6,1.7-8.9c1.4-3.4,0.7-7.9,1.7-11.5c1.2-3.8,0.2-5.8,1.9-8.6c-1.2-2.4,2.9-4.6-0.2-6.7c1.2,0.7,1.4-1.2,1.7-1.9
				l-0.2-1.4h0.7c-0.7-3.1,1.7-5,0.7-8.4c0.2-4.1,2.2-6.7,1.7-11c1.4-1.7,1-6.3,2.6-8.9c0-4.8,1.9-7.7,2.9-12l0.2-3.9
				c1.9-0.5,1.2-3.6,2.7-5l-0.5-1c0.5,0.2,0.7,0.2,1.2-0.2c1.4-3.6,0-5.5,3.1-8.2c0.2-2.9,1.2-4.3,2.2-6.5l-0.2-1.9
				c2.4-0.2,1.2-4.1,3.6-5.3c-0.7-1.7,2.2-4.3,1.4-5.5l0.2,0.2c1.2-0.7,0-1.4,0.7-2.4c0.5,0.2,1-0.2,1.2-0.5c-1-1.9,2.6-3.6,1.4-6.2
				c2.4,0.7,1.4-3.6,3.9-3.8c-1-1.7,1.2-1.9,1.2-3.9c0.2,0.2,1.4-2.6,1.9-1.7c0.5-3.4,2.9-5.5,3.8-8.4c1.9-1,1.9-3.4,3.8-5.3
				c0-1.4-1.2,0.5-0.7-1.2v0.5c1.2,0.7,2.2-3.1,3.6-4.6c0.2-0.5-0.2-0.7-0.5-1.2l1,0.2c1.7-1.4,2.4-3.8,3.4-5.3
				c1.7-0.5,1.2-2.4,1.7-3.6c0,0.2,0.2,0.5,0.2,0.7c1.2-0.2,0.5-1.5,0.7-2.2c1.7,0.7,0.7-1.4,1.4-1.9h-0.2v-1h0.2
				c-0.2,0.5,0.2,0.7,0.5,1c2.4-5.5,8.4-9.1,10.8-15.1c1.4-2.4,4.3-5.5,4.8-7.7v0.2c3.4-1.4,3.4-5.5,6-7.7c1,1,1-1.2,1.7-1
				c-1-2.2,2.6-0.7,1.4-3.4c4.3-4.8,7.4-8.4,11.3-13.2c2.6,0.7,2.2-3.8,5-4.1l-0.5-1c2.4,0.2,2.2-2.9,4.1-3.1c1.2-0.7,3.4-1,3.8-3.1
				l0.5,0.5c2.9-0.7,1.2-5.3,4.3-5.1c0.7-2.9,4.1-3.1,3.6-6.5c0.2,0,0.5,0.5,0.7,0.7c0.5-0.5,0.2-1.2,0.2-1.9l0.7,0.7
				c2.4-0.7,1.7-4.8,4.6-5c1-0.5,0.5-2.6,2.4-1.9c0.7-1.7,0.5-3.9,2.9-4.1c0-1.9,3.4-2.9,2.4-4.3c2.9-0.2,2.4-2.2,4.1-4.1
				c0.7-1.2,3.1-1.4,3.9-3.6c0,0,0,0,0,0c0.2,0.1,0.5,0.1,0.8,0c-1-3.4,3.4-2.2,2.9-5.3c1.9-0.2,1.4-2.6,2.6-3.4
				c0-0.5,0,0.7,0.7,0.7c1.7-1.7,2.2-3.1,3.6-5v-1c1.4,0.7,2.4-1.4,3.1-2.2l-0.3-0.4c0.3,0.2,0.9-0.1,1.3-0.3
				c-0.5-1,2.2-1.7,1.2-2.9c1.2,1.2,2.4-1,2.9-1.9v-0.7l0.2,0.5c4.1-5,7.7-7.9,11.8-13.4c3.4-0.7,5.3-4.8,7.2-6.7
				c0.2-0.2,0.5,0,0.7,0.2c0.2-0.5,0.7-0.7,0.5-1.2l-0.2-0.2c2.2,0,4.8-2.9,6-5c2.7-2.9,7.9-4.3,8.9-8.2c4.1-0.2,5-5.8,8.9-6.2
				c0.7-0.5,1-2.4,2.4-2.2c1.4-0.5,2.6-2.6,4.3-2.6c1.2-1,1.2-2.9,2.9-2.4c2.4-2.9,7.7-5,8.6-8.2c2.6-0.2,3.8-2.9,5.5-4.3l0.2,0.2
				c2.9-1.4,4.3-3.4,6.2-6c1.7-1,3.8-1.2,3.8-2.6c4.1-0.5,3.6-5,7.7-5.5v-0.5l0.5,0.2l6-3.8c-1-0.7,0.5-0.2,0.2-1.2l-1-0.2L272,93
				c0,1,1.4,0,2.2-0.5c2.9-1.7,5.3-3.1,8.2-5.5c0.2,0.5,0.7,0.2,1.2,0.2c0.5-2.6,4.3-1.7,4.6-4.3c1.2,0.7,3.1-0.2,3.1-1.9v-0.7
				c2.7,1.7,5.5-3.1,8.2-4.1c2.6-1.9,5.8-1.7,7.4-4.8c0.5,0,1.2,0.2,1.4-0.2v-0.7c1.4,0.7,2.6-2.2,4.6-1c0.7-2.2,4.1-1.7,4.8-3.8
				c3.6,0,6.2-3.8,10.6-4.3c4.6-3.9,10.1-3.1,15.1-6c1.7-1.4,5.3-2.2,7.4-2.6c0.5-1.2,2.4-0.5,3.4-1.4c0-0.7,2.2,1.4,1.9-0.5
				c2.9-0.7,5.5-2.6,9.1-1.9c4.1-2.6,8.2-0.2,12-3.1c1.7-0.2,2.6,0,4.6-0.2l0.7-1.7c2.9,3.6,5.5-2.6,9.1,0c2.2-0.5,4.8-0.2,6.5-1.4
				c0.7,0.2,1.9,0,2.2-1v1c0.5,0.2,1.7-0.7,2.2-0.3v-0.7c2.2,2.9,4.6-0.5,6.7,1.5c1.7-0.5,3.6-0.5,6-0.5c1.9-1.2,4.3-0.3,6.2,0.2
				c1-0.5,2.6-0.5,3.4-1.5c2.6,2.2,6.3-2.9,8.9-0.2c2.2-1.9,4.8,0,7-2.2c1.7,0.5,4.1-0.7,6.7,0c1.9-1.4,3.6,0.5,5.8,0.7
				c1.2,1.4,1.7,3.1,1.4,5c-1.9,2.4-3.6,6.5-7.7,6.2l-1-0.7l-5,1.4c0,0.2,0.2,0.2,0.2,0.7c-3.4-1.2-6.5-0.7-9.8-0.5
				c-3.6,1.4-5.5,3.4-9.9,2.9c0.7,1.9-1.7,2.2-3.1,2.4c-1.4-0.2-1.7-1-3.1,0v0.2c-1.2,0.2-2.6-0.7-3.4,1c-2.4-1-5-1-7.2,0
				c-1.4,2.7-2.4,2.4-4.8,3.4l-0.5-0.5l-1.4,1.2c-0.2-0.5-0.5-0.5-1-0.5c-0.5,0.5-0.5,1-0.5,1.4V63c-2.2-0.5-3.4,1.7-5.5,1.2
				c-3.6,3.8-7.9,2.9-11.3,5.5l-0.5-0.7c-3.1,3.6-7,1.9-9.9,5.8c-0.7,0.7-1.9,1.4-2.6,0.5c-3.6,1.5-6,3.8-9.4,4.3
				c-4.6,3.1-8.2,6.5-12.7,9.1c-1.4,1.7-0.7,5.5-4.1,4.3c-0.2,0-0.7,0-0.7-0.2c-1.4,0.7,0,1.4-1,2.2l-2.6,1.2l0.2,0.2
				c-0.2,2.4-3.6-0.2-3.8,2.6c-0.2-0.2,0.2-1.7-0.7-1.7c-1.2,1,0.2,1.9,0.2,2.6c-1,0-2.2,1-2.2,1.9l0.2,0.2c-3.8,0.2-8.4,3.4-9.9,7
				c-2.2,1-1.9-1.5-2.2-2.7l-1,1v-1.4c-0.5-0.7-0.7,0.5-1.2,0.5c0,2.4-0.7,4.1-1.2,6.5c-2.2-1.2-5.5,0.7-7.2-1.4
				c-1.7-2.4-2.2,2.2-4.6,1.2c-1.2-0.2-2.2,2.4-4.1,1.9C298.7,116,300.1,118.7,297.3,117.7L297.3,117.7z M836.1,276l0.5-1.2h-0.7
				c-1.4-0.7,0-1.2-1.4-1.7l-1.4,1.2C833.7,276.2,836.1,274.3,836.1,276z M686.8,154.5l-1-0.5l0.2,2.6h0.2
				C687,156.1,686.3,154.9,686.8,154.5z"/>
		</g>
		<g>
		</g>
	</g>
</g>
</svg>
