<?xml version="1.0" encoding="utf-8"?>
<!-- Generator: Adobe Illustrator 22.0.1, SVG Export Plug-In . SVG Version: 6.00 Build 0)  -->
<svg version="1.1" id="Layer_1" xmlns="http://www.w3.org/2000/svg" xmlns:xlink="http://www.w3.org/1999/xlink" x="0px" y="0px"
	 viewBox="0 0 1000 1000" style="enable-background:new 0 0 1000 1000;" xml:space="preserve">
<style type="text/css">
	.st0{fill:#FFFFFF;}
</style>
<path d="M244.6,4.7c1.4,0.6,1.5-1.7,2.6-0.4c0.5,0.6,0,1.4,0.5,2c0.9-0.1,2.7,1.9,3.7,0.2c1.2,0.6,2.1,2.7,3.7,2.1
	c1.7,1.1,3.5,0.6,4.8,2c1.1-0.1,3.2,0.7,4.7,1.9c1.1,0,1.9,1,2.7,0.7v-0.4c0.5,0,0.7,1.1,1.4,0.5l0.5-0.5l-0.4,0.4
	c1.1,1,2.6-0.7,3.3,0.9c0.2,0.4,0.2,1.1,0.7,1l0.4-0.4c0.5,1,2.4,0.4,2.8,1.5c1.1-0.1,0.4-0.2,1.5,0.4c-0.2,0-0.2,0.4,0,0.4l0.4,0.5
	l0.4-0.4c0.9,1.2,2.5,1.4,3.5,2c1.2-1.4,0.7,0.7,2.1,0.5c1.6,2,4.6,0.9,5.8,3c1.2,0.4,1.7,0.2,2.8,1c2.4-0.9,3.5,2.2,5.6,2
	c0.4-0.1,1.5,1.2,2,0.2c2.5,1.5,5,2.4,7.4,4c1.1-0.7,1.1,1.1,2.1,1.2l1.5,0.2V31c1.7,0.7,3,1.7,5.1,3l1-0.1
	c-0.1,0.6,0.6,0.6,0.9,0.7l0.6-0.1c0,0.1,0.1,0.2,0.1,0.2c0.1,0,0.4,0.1,0.5-0.1c0.6-0.1-0.2,1.7,1.4,1.5l0.5-0.1
	c-0.2,0.7,0.7,1.1,1.2,1.1L323,37c0.6,0.7,1.5,1.1,2.4,2c0.2-0.9,0.6,0.4,1.1,0c0.4,0.2,0.7,0.9,1.1,0.4c0.4,0.7,1.1,1.4,1.9,1.5
	c1,0.7,1.7,2.4,2.8,2.1c0.6,1.6,2.2,1.1,3.1,2.7l0.5-0.5c0.6,1.7,2.2,1.6,3.2,2.2c1.2,0.6,1.4,1.9,2.6,2.1c0.2-0.1,0.1-0.4,0.1-0.6
	c0.2,0.5,0.7,1.6,1.5,1.1l-0.1,0.1c1.5,0,2.2,1.7,3.6,1.4c-0.1,0.2,1,1.5,1.7,1.5c0.6-0.1,1.2,0.7,2.1,0.5v0.2
	c1.1,0.5,2.1,1.6,3.8,1.9c0.1-0.2,0.4-0.4,0.2-0.7c-0.2,1.1,1,0.9,1.4,1.5c0.9-0.2,1.5,1.4,2.7,0.7c1.7,1,3.3,2,5.3,2
	c0,0.6,0.7,0,1,0.4l0.4-0.2c0,0.1-0.1,0.2-0.1,0.2c1.6,0.2,3.5,3.3,6.1,2.7c0.5,0.9,2.4,0.6,3.1,2c0.1,0.1,1.9,0.6,2.5,0.9
	c1.7-0.1,3.5,2.1,5.4,3c1.4,1.7,4,1.2,5.3,3.2c0.6,2,3,1.2,4.1,2.4l0.4-0.2c0.6,0.7,1.7,1.6,2.6,2.1l0.4-0.4c0.4,1.1,1,0.6,1.7,1.5
	c1.5,0,2.5,2,3.8,2.2c0.1,1,1.1,0.7,1.7,1.1c0.6,0.5,2,1.5,2.6,2.2c0.2-0.1,0.1-0.4,0.1-0.6c0.4,0.2,0.4,1.2,1.2,0.9l1,1.2l-0.1,0.1
	c0.9-0.4,1.5,0.6,2.4,0.6c0,1.2,2.6,0.4,1.7,1.7c0.1,0.6,1.4,0.6,1.6,1.5c0.1,0,0.1-0.2,0.1-0.4c0.1,0.2,0.4,0.1,0.6,0.1
	c0.5,0.7,1.7,0.9,2.1,1.7c0.9,0.4,1.9,3.2,3.8,2.8c2.2,1.2,4,2.7,5.9,3.8h-0.1c0.4,0.6,1.2,1.7,2.2,1.5c0.2,0.9,1.7,1.6,2.5,2.1
	c0.6,0.2,0.5,1.9,2,1.6c0.9,1.7,2.8,0.9,3.3,2.6h0.6l-0.1,0.1c0.1,0.6,0.9,0.6,1.4,0.9c0,0.4-0.1,0.7,0.2,0.9l0.2-0.2l-0.2,0.4
	c1.1,0.9,1,1,2.4,1.1c0.4,0.4-0.1,0.7,0.6,1.1h0.6c0,0.7,0.2,1.5,0.7,1.9l-0.4,0.2c4,1.7,6.7,7.3,10.2,9.5c2.7,3.2,6.8,5.1,8,8.2
	l0.2-0.2c0.2,1,3.1,2.7,3.1,4.6l3.3,4c-0.2,0.5,0.4,1,0.7,1.4l0.6-0.5v0.6c-0.1,0-0.2-0.1-0.4-0.1c-0.2,0.6,1,1.1,0.5,2
	c1.4,0.5,1.9,2.2,2.6,2.6l2.6,2.4c0.1,0,0.2-0.4,0.4-0.2l0.4,0.7l0.1-0.1l1,1l0.2-0.1c-0.4,0.4,0.4,0.5,0.1,1
	c0.6,0.7,1.5-0.4,2.2,0.2c-0.1,0.4,1.1,1.6,1.7,2.4l-0.1,0.1l1,1h-0.1c0,1.4,1.5,1.4,1.4,2.7c-0.4,1.6,2.1,4.3-0.5,5.1
	c0,0.1,0.2,0.7-0.1,1h-0.2c0.4-0.6-0.6-0.9-0.4-1.6h-0.5c0,1,1.2,3.1,2,3.7c0.6-0.6,1.2-1.6,2.5-1.2c0.5,1.4,0.1,2.5,1,3.6
	c-0.6,0.7-0.4,2,0.1,2.8c0.5-0.4,0.2,0.2,0.6,0.1c-0.7,2.6,1.4,2.6,0.7,5.3c0.9,0.6,1,1.4,1,2.1c-1.1,1.1,1.2,2.6-0.2,3.8v0.7
	l-0.1-0.4c-0.4,0.1-0.9,0.2-0.7,0.7c0,1.2,1.1,1.7,1.1,3c-0.5,0.4-0.6,1.9-1.6,1.5c0-0.2-0.9-0.5-0.4-0.9l-0.4-0.4
	c-0.2,0.1-0.1,0.4-0.1,0.6c-0.2-0.1-0.6,0.1-0.9,0.5l0.2,0.4l-1.4,1.2c-1.2-1.4-1.5-2.1-3-3.3c-0.2,0.7,0.2,1.7-0.5,2.1
	c-0.2,0.6,0.5,0.7,0.5,1.2c0.4,0.1,0.5-0.1,0.6-0.4c0,0.1-0.1,0.2-0.1,0.4c0.4,0.5,0.7,0.2,1.2,0.1c0.5,0.9,0.9,0.7,1,1.7
	c0.1,0.1,0.7,0.1,0.9-0.2l-0.1,0.1c1.1,0.9,2-0.5,3,0.6l0.5,1.5c-0.9,0.9-3-0.4-2.1,1.4l-0.4-0.4c-0.7,0.6-1,1.1-0.9,2.5
	c2.4,0.1,1,3,1.9,4.7v0.7h0.2c0,0.2,0,0.5-0.2,0.7c-1.6,0-1.9-1.7-2.7-2.1l0.1-0.1c-0.2-0.4-0.6-1-1.1-1c0.5-0.5-0.2-0.6-0.4-1
	c0.5-0.1,0.4-0.9,0-1.1c-0.2-0.7-1.2,0-1.1,0c-0.2-0.4-0.2-0.9,0.1-1.1c0.1,0.5,0.6,0.2,0.9,0c0.2-0.5,0.1-1.2-0.1-1.7
	c-0.2,1-2.6,0.4-1.6,1.6c-0.7,1.4-0.4,3.1,0,4.5l-0.5,0.5c0.4,0.5,0.6,1.6,1.5,1.9l0.1-0.1l0.1,0.1c0,0.4-0.5-0.2-0.7,0.4
	c0.1,0.2,0.5,0.1,0.6,0.1h-0.1c-0.5,0.9,0.9,0.7,1.2,1.4l0.1-0.1c1.2,0.6,0.4,1.7,1,3.2l0.9,2h-0.1c0.9,1.2-0.4,2.1,0.9,3.2
	c0.1-0.2,0-0.5,0.5-0.6c-0.1-0.6-0.6-2,0.5-1.9c0.5,0,0.9,0.6,0.7,1.2c-0.1,1.9,0.6,3.8,0.5,5.8c-1.2-0.2-0.4,1.9-1.9,1.1
	c0-0.2,0-0.4-0.1-0.5c-1,0.5,0.6,0.9-0.6,1.5c-0.1,0.7-0.1,1.9,0.9,2.4c0.4-0.2-0.1-0.6-0.1-0.9c0,0.1,0.5-0.7,1-0.5
	c1.1,0.9,0.4,2,1.2,2.8c-0.2,0.1-0.1,0.4-0.1,0.5l0.1,0.1l0.7-0.6v0.1l0.9-0.1c0.1-0.7-0.2-1.1-0.2-1.7l-0.5,0.2
	c-0.7,0.2,0,0.4,0-0.1c1-0.6-1.1-1.4-0.7-2.1c0.2,0.7,0.4-1,1-0.2l-0.2-1.2h0.1c-0.6-1.1,0-1.2-0.1-2.6c0.9-0.5,0.7,0.6,1.5,1
	c0.1-0.2,0.2-0.1,0.5-0.1c-0.6,0.6,0,1.5,0.2,2.2c1,0.4-0.4,2,0.7,2.1c-0.4,1.7,0.5,2.2,0,3.8l0.9,0.4l-0.1,0.2c0.2,0.6,1-0.1,0.9,0
	c-0.9,0.4,0.4,0.6,0.1,1.1l0.5,0.7l-0.2-0.2c0.1,0.6,0,1.6,0.2,2.4c0.4,0.9-0.5,2.7,1,2.8c0.1-0.1-0.4,1,0.2,1.4
	c0,0.2-0.1,0.5-0.4,0.7c1.2,0.6-0.6,1,0.5,1.7c-0.5,1-0.1,3.1-1.5,3.6c-0.6-0.4-0.1,1.4,0.1,1.5c0,1,2.7,1.7,1.6,3.3
	c0.5,0.4,0.1,0.4,0,0.7c-0.2,1.6,0.7,1.9,0.7,3.3c0.4,0.6-1,0.7-0.2,1.4l0.6,0.1l-0.7,0.2l0.4,0.7l0.6-0.2c0,0.5,0.9,1.4,0.7,2.4
	c0.6,1-1,1.1-1,1.6c0-0.1,0-0.4-0.2-0.4l-0.9,0.5c0.1-0.2-0.1-0.4-0.2-0.5h-0.1c0.1,1-0.5,0.4,0,1.6h0.1c-0.4,0.1-0.1,0.9,0,1.1h0.1
	l-0.5,0.2l0.6,0.9l0.1-0.1c-0.5,0,0.4,0.7,0.5,1.1c0.5,0,0.6-0.4,0.9-0.7c-0.4-0.4,0.1-1,0.4-1.4c1.6-0.4,0.5,1.7,1.5,2.2l-0.7,0.7
	c-0.5-0.1-0.9-0.6-1.1-1l0.1-0.1c0-0.1-0.1-0.2-0.2-0.1c-0.1,0.1-0.5,0.2-0.5,0.5l0.2,0.2c-0.9,0.1,0.2,0.5,0.1,0.9
	c-0.2-0.1-0.4,0.1-0.5,0.2c0.2,1,0.4,1.9,0.9,2.8c0.4,1.6,0.1,2.2,0,3.7l0.4,1.4c-0.1-0.2-0.4-0.1-0.5-0.1c0.4,0,0,0.9,0.4,1.2
	c0.2,0.1-0.5,0.2-0.2,0.6l0.5,0.5c0.1-0.2,0.2-0.1,0.5-0.1c0.1,0.2,0.1,0.5-0.2,0.7l1.2,0.7c0.2,0.2,0.2,1.4,0.6,1.9
	c0,1.2,0,2.1-0.1,3.3l-1.4,0.2c0.2-0.6-0.5-1.2-0.5-1.6l-0.6-0.4l0.5-0.2c-0.2-0.1-0.7-0.5-1-0.1c-1,0.5,0.5,1-0.4,1.6l0.5,1.4
	c-0.6-0.4-0.9,0.5-1.4,0.6c1,1.7-1.4,4.2,0.2,6.2c-0.4-0.4-0.9,0.6-0.7,0.9c0.2,0.4,0.2,0.7,0.6,0.9c-1,1,1.2,2.2,0.5,2.8
	c-0.9,1.9,0.1,3.3-1.2,4.8c-1,0.4-0.6-0.7-1-1.2c1.1-0.9-0.2-2.7,0.6-3.5c-0.6-0.2-0.7,0.6-1.4,0.5l0.6,1.5l-0.4-0.2
	c0,1.2-2.1,0.2-1.4,2c-0.2,0.1-0.5-0.1-0.7,0.2v0.4c-0.1-0.2-0.4-0.4-0.7-0.2c0.9,1.1-0.4,3.7,1.7,3.6c0.9,0.2-0.1,1.1,0.7,1.7h-0.2
	v0.6c0.7-0.2,1.1-0.1,1.9,0.7c0,1.2,0.1,3-1.2,3.7c0.1,0,0.1,0.1,0.4,0.1c-0.4,1-0.6,0.7-0.4,1.7c-0.1,0.2-0.4,0.2-0.2,0.5
	c0.1,0.1,0.4,0.4,0.6,0.2l0.1-0.1l0.1,0.1l-1,0.4c-0.2,0.6,0.1,1.7,0.9,1.9c0.1-0.5,0.5-0.9,1-1c0.6,0.7,0.1,1.2,0,2
	c-0.2,0.1-1,0.4-0.7-0.2c0-0.2,0.1-0.5-0.1-0.7c-0.5-0.1-0.7,0.4-0.9,0.6c0.5,1.4,0.4,2.7-0.1,4.2l0.4,0.2c-0.6,0.1,0.2,0.7,0.1,1.4
	l-0.9,0.2l0.5,0.6l-0.1-0.1c-0.9,0.5-0.9,0.9-1.2,1.4c0.2,0.6,0.9,1.1,0.5,2.2c-0.9,0.6-0.5,1.4-1.4,1.6l-0.6-0.9
	c-0.4,2.5-2.8,3.8-3,6.3c-0.5,1.7-2.1,2.5-1.6,4.1c-0.2,0.6-1.1,1.6-0.9,2.8c-1.7,1.5-0.9,3.2-2,5.4c-0.4,0.2-0.5,1.4,0,1.2
	c-0.2,0-0.5-0.4-0.6,0l0.4,0.4c-0.7-0.2-0.5,1-0.7,1.1c-0.5,0.2,0.2,1.2-0.2,2l-0.4-0.1c-0.5,0.7-0.1,2-0.9,2.2
	c-0.7,2.4-0.9,2.6-2.2,5c-0.2,0.9-0.4,0.7-0.5,1.7l-0.1-0.1c-0.9,0.1-0.1,0.6-0.7,1l0.6,0.4c-0.9-0.1-1.4,1.2-2.1,1.7
	c1.4,0.6-1.7,1.9-0.9,2.8c-0.1,0.6-1.7,0.9-1.5,2.2c-0.6,0.1-1,0.6-1.2,1.4l-0.1,0.6c-1,1-2.5,2-2.7,3.7l-0.2-0.5
	c-0.7,1.1-1.9,2-2.1,2.8l-1.5,1.6l0.2,0.2c-1,0.4-0.7,1.5-1.9,1.7l0.1,0.1c-0.9,1.2-2,3.2-3.5,4.3c-1,1.7-2,3.3-3.3,4.8
	c-0.6,0.5-0.6,1-1.4,1.5l0.1,0.1c-0.1,0.2-1.6,0.9-1.5,1.7c0.5,1.1-1.2,1.1-1.6,2c-0.6,0.1-0.1,1.4-0.7,1.7l-1,1l0.1,0.1
	c-0.9,0.6-0.6,1.5-1.4,2.2c0,0.6,0.6,0.6,0.1,1.1c-0.6-1-1,0.4-1.5,0.5c0,0.2,0.2,0.4,0.4,0.5c-0.4,0.1-0.7-0.4-1,0.1l0.2,0.5
	c-0.2,0-1.1-0.1-1.2,0.6c-0.9,0.1,0.6,0.7-0.2,1.1c-1.6,0.7-2.6,2.6-3.2,4.2l0.4,0.2c-0.1,0.1-2,0.2-2,1.2c-0.2-0.1-0.2,0.1-0.4,0.2
	l0.4,0.4c-1,0-1.6,0.7-1.9,1.6c-1.2,0-0.5,1.2-1.7,1.7c-1,0.9-2.6,2.5-3.2,3.7c-1.1,0.4-1.5,1.5-2.5,2.2c-0.4,0.6-2.1,0.9-2,2.1
	l-0.2-0.5l-2.1,2c0,0.7-0.7,1.2-1.4,1.6c-0.9,1.5-2.6,1.4-3,3c-1.6,0.7-2.1,2-3.5,2.8v0.7c-0.1-0.2-0.4-0.1-0.7-0.1
	c-0.5,1.6-2.7,1-3,2.8c-1.5,1.1-3,3.1-4.8,4.5c-2.7,0.4-3.6,3.8-5.9,3.7c-1.1,2.1-3.3,1.5-4.6,3.7c-1.2-0.5-1.1,1.4-2.2,0.9
	c-0.7,1.9-2.5,0.6-3.3,2.2c-3.2,0.5-4.6,3.1-7.7,3.6c0.1,1.1-1.6,0.1-1.4,1.2c-1.2-1-1.7,1.5-3,0.6c-0.6,0.5-1.5,0.5-2.1,1.4
	c-0.7,0.1-1.4-0.1-1.6,0.7c-0.1-0.2-0.4-0.1-0.6-0.1l-0.6,0.9c-0.5,0.5-1.9-0.4-1.9,0.7l-1.4,0.1c-0.1,0-0.7,0.7-1.2,0.5l-3.3,1.7
	c0-0.2-0.2-0.2-0.4-0.4c-1.1,1-1.9,1.1-3,1.5c-0.5-0.9-1.2,0.1-1.7,0.4c-1.1,1.2-3.5,1.2-4.7,2.2c-2,0.5-3.8,1.9-5.6,2.6
	c1,0.5-0.6-0.5-0.9,0.4c-1.1-0.1-2.4,0.2-2.8,0.9l0.1,0.5c-1.7-0.1-2.4,1.2-4.6,1.6c-1.1,1.5-2.6,1-4.1,2.4c-1-0.4-1.2,1-2,0.6v0.4
	c-1.5,0.7-3.5,1.9-4.6,1.9c-0.6,0.9-2.8,2-4.2,2.2v0.4c-1,0-2.2-0.2-2.1,0.9c-1.6,1.4-2.4,1.5-4.5,2.2c-0.7-0.4-1,0.5-0.9,0.9
	c-0.2-1.1-1.4,0.1-2.1-0.1c-0.4,0.7-2.5,0.7-3.2,1.7c-3,0.1-5.3,2.1-8,2.4c-1-0.4-2.2,2-3.7,0.7c-0.4,0.5-1.2,0.2-1.1,1.1
	c-1-0.6-1.1,1-2,0.4c-1.5-0.1-1.1,1.1-2.5,1.1l0.1-0.2c-0.4-0.7-1.1,0.2-1.4,0c-0.1,0.5-0.4,0.4-0.7,0.4c-1-0.4-2,0.4-3.1,0.7
	l-0.4-0.5c-1.9,1.2-3.6,1.2-5.6,2c0-0.2-0.2-0.4-0.4-0.5c-3,0.4-5,2-8.2,2c-1,0.9-2.4-0.5-3,0.6c0-0.2,0.1-0.2,0.2-0.4l-0.2-0.1
	c-0.6,1.7-1.9,0.2-3.1,1.4V482c-0.9-0.1-0.9,0.5-1.9,0.5c-1.1,0.7-2.2,0.2-3,1c-0.5-0.4-1.4,0.1-2-0.2l-0.6,0.6v-0.2
	c-3,0.1-5.8,2.2-8.9,1.7c0,0-0.1,0.1-0.1,0.2c-0.7-0.6-1.6,0.1-2.5-0.1c-0.9,0.6-3,0.6-4.1,1c-1.5-0.9-3.7,0.4-5.1,0.1
	c-0.1,0.1-0.1,0.4,0,0.5h0.5c0.1,0.2-2-0.7-1.5,0.5c-0.7-1.4-1.4,0.1-2-1c-1.7,0-3,1.4-5,0l-0.5,0.6l-0.7-0.4l-0.2,0.4
	c0-0.2-0.2-0.2-0.4-0.4c-1.7-0.2-3.2,0.6-4.8-0.4c0.1,0.7-0.9,0.2-0.6,0.9H232l0.1-0.4c-0.4-0.5-1,0.4-1.6-0.1l-0.1,0.2
	c0-0.1,0-0.2-0.1-0.2c-0.5,0.7-1.1-0.7-1.7,0.2l-1.5-0.9c-1.1,0.7-2.6-0.4-4,0.4c-1-1.5-1.5,0.7-2.6-0.5c-0.7,1-1.9-0.1-2.6,0.2
	c-0.9-1-2.5,0.4-3.3-0.9c-0.6,1.1-1.7,0.2-2.4,0.2c-0.9-0.6-1.1-0.4-2.1-0.1c-0.6,0.5-0.9-1.5-1.6-0.5h-1c0.2,0,0.2-0.2,0.2-0.4
	c-1.6,0.1-2.8-0.9-4.3-0.5c-0.1-0.1-0.9-1-1.6-0.4l-0.2-0.2c0.1-0.4,0.5,0.4,0.5-0.2c-1-0.7-2.8,0.1-3.8-1.2c-1,0.1-0.6-0.1-1.4-0.2
	c-0.2,0.1-0.2,0.6-0.7,0.5c-0.6-0.7-1.7-1-2.7-1.5l-0.4,0.9c-1.9-1.1-2.5-2.5-4.8-2.2c-0.2-0.6-1.7-0.6-2.4-1.2
	c-0.7,0-1.9-1.4-3.3-0.9c-0.4-0.5-0.9-0.5-1.2-0.2c-0.1-0.2-0.1-0.5-0.2-0.6l-0.5,0.4c-0.7-2.2-3.8-0.9-5.3-3l-0.4,0.4
	c-0.4-1.1-1.5-1-2.6-1.6c-0.9-0.6-2.2,0.1-3.1-1.1c-1.2-1-3.3-1.1-4.5-2.6c-0.5,0.2-0.9-1-1.4-0.4c-1.2-1.2-2.5-0.4-3.5-2
	c-1.4,0-1.5-2.2-2.6-1.2c-0.9-1.4-2-0.4-2.6-1.5l-0.1,0.1c-0.2-0.9-2.8-1.2-3.1-2.5c-1.9-0.1-3.1-1.1-4.5-1.9
	c-2.4-0.5-4.2-2.4-6.7-3.2c-0.6-1.4-1.9-0.6-2.8-1.5c-0.2,0.1-0.1,0.2-0.1,0.5c-1.1-1.9-3-0.9-4.5-2c0.1-1.9-2-0.1-2.6-1.2l-0.2,0.4
	v-0.1c-1.2,0.4-1.6-0.9-2.7-0.2l0.2-0.1c-1-1.2-3-0.6-4-1.6c-0.9,0.2-1.4-1.2-2.4-0.9c-1.6-0.5-3-1.4-4.7-1.5
	c-0.5-1-1.5-0.9-2.2-1.6c-1.1,0.4-1.6-1.1-2.7-0.7c-0.2-1.5-1.7-1.6-2.6-2.1l-0.5,0.4c-0.2-0.2,0-0.9-0.6-1
	c-1.1,0.7-1.1-1.2-2.2-0.6l0.1-0.1c-1,0.1-0.9-1.4-1.9-1c-0.2-0.7-1.2-0.5-1.1-1.2c-0.5-0.5-1.5,0.5-1.2-0.7
	c-1.6-0.7-2.8-2.4-4.3-2.5h-0.4l0.4-0.5c-1.5,0.2-0.9-1.9-2.2-0.9c0.1-1.6-2.4-2.2-3-3.5h-0.5c0.1-0.2-0.1-0.2-0.2-0.4
	c-0.1-0.1-0.2,0-0.4,0.1c-1.9-1.5-3.7-4.7-6.3-5.8l-0.1-1.4c-2,0.5-1.2-2-2.7-2.2c-0.5-1.4-2.5-1.5-2.8-2.6
	c-0.6-0.7-1.5-1.2-2.2-2.1l-0.1,0.1c-1.9-1.2-2.5-3.1-4-5c-0.7,0-1.4-1.2-1.7-1.6c-1.6-1.7-3-3-4.2-4.6c-1.4-0.7-1.5-3-3.5-3
	c0.2-0.6-0.5-1.4-0.9-1.5l-0.1,0.1l-0.7-1l-0.2,0.1c-1.1-2.5-3.3-4.8-5-7.3c-0.9-1.4-1.9-2.6-3.3-3.6c0.2-0.1,0.1-0.4,0.1-0.5h-0.4
	c0-0.4-0.1-0.6-0.4-0.7h-0.4l0.1-0.2c-1.1-1.6-2.6-2.7-3.5-4.7c-0.9-0.2-1-2.1-2.2-2.4c-0.5-1.4-1.5-2.6-2.5-3.5l-0.1,0.1
	c-0.9-3.1-4.6-4.3-5.6-7.6l-0.7-0.6c0.2,0,0.2-0.4,0-0.4c-1,0.4-0.9-0.9-1.6-0.9c0.4-0.4-0.6-1.1-0.7-2c-1.7-1.1-1.1-2.2-3.1-3.2
	c0.5-0.4,0.1-0.9,0-1.2c-1.2-1-0.7-2.1-1.7-3.1c-1.1,0.1-1.1-1.5-1.9-1.6l0.1-0.2c-0.1-0.1-0.5-0.6-0.9-0.2c0-1.5-0.4-2.8-1.5-3.7
	c0.5-0.7-1-1-0.2-1.5c-0.9,0.2-0.1-0.7-0.7-0.7c-1-0.2-0.4-1.6-1.5-2.2l0.1-0.1c-0.9-1.2-1.5-2.7-2.7-3.8c0.7-2.5-2.6-2.8-2.5-5.4
	c-1.5-2.8-1.7-5.7-3.5-7.9c0.6-1.4-1.6-2.4-0.7-3.5c-0.9-1.4-1-3.2-2.2-4.5c-0.1-1.1-0.9-2.8-1.9-3.7c0.6-0.5,0.1-1.5-0.5-1.6
	c-0.1-1,0.5-2.1-0.9-2.1c0.7-1-0.6-2.1-0.6-3.1L7,310.4c0.6-1.6-0.9-3.2-1-5c-1.6-0.7,0.5-2.2-1-3.5c-0.2-2.4-0.7-4.2-1-6.4
	c-0.1-0.2-0.5-0.1-0.4-0.4l0.2-0.4c-0.4-1,0-2.8-0.6-3.8c-0.7-2.1-0.1-3.3-0.5-5.6H2.4c0.6-0.4,0.2-1.7,0.4-2.2
	c-0.9-1.4,0.4-3.8-0.4-5.7c-0.2-4.3-0.6-8.9-0.1-13.2L2,263.9c0.7-0.6-0.4-1.5,0.2-2.2c0.4-1,0-2.2,0.2-2.6l-0.2-0.2
	c0.9-1.5-0.1-2.7,0.6-4.5c0.4-1.5,0.5-3,0.4-4.5c0.5-0.4-0.2-1.5,0.2-2.6c0.7-1-0.7-2.5,0.4-3.2c-0.2-2.1-0.1-4.3,0.5-6.7
	c-0.4-2,0.6-4.1,0.4-6.1c0.2-1.5,0.4-3.3,1.2-4.6c-0.6-1.4,0.5-3.1-0.2-4.2c0.7-1.6,0.6-3.1,0.9-4.6c0.7-1.7,0.4-4.1,0.9-5.9
	c0.6-2,0.1-3,1-4.5c-0.6-1.2,1.5-2.4-0.1-3.5c0.6,0.4,0.7-0.6,0.9-1l-0.1-0.7h0.4c-0.4-1.6,0.9-2.6,0.4-4.3c0.1-2.1,1.1-3.5,0.9-5.7
	c0.7-0.9,0.5-3.2,1.4-4.6c0-2.5,1-4,1.5-6.2l0.1-2c1-0.2,0.6-1.9,1.4-2.6l-0.2-0.5c0.2,0.1,0.4,0.1,0.6-0.1c0.7-1.9,0-2.8,1.6-4.2
	c0.1-1.5,0.6-2.2,1.1-3.3l-0.1-1c1.2-0.1,0.6-2.1,1.9-2.7c-0.4-0.9,1.1-2.2,0.7-2.8l0.1,0.1c0.6-0.4,0-0.7,0.4-1.2
	c0.2,0.1,0.5-0.1,0.6-0.2c-0.5-1,1.4-1.9,0.7-3.2c1.2,0.4,0.7-1.9,2-2c-0.5-0.9,0.6-1,0.6-2c0.1,0.1,0.7-1.4,1-0.9
	c0.2-1.7,1.5-2.8,2-4.3c1-0.5,1-1.7,2-2.7c0-0.7-0.6,0.2-0.4-0.6v0.2c0.6,0.4,1.1-1.6,1.9-2.4c0.1-0.2-0.1-0.4-0.2-0.6l0.5,0.1
	c0.9-0.7,1.2-2,1.7-2.7c0.9-0.2,0.6-1.2,0.9-1.9c0,0.1,0.1,0.2,0.1,0.4c0.6-0.1,0.2-0.7,0.4-1.1c0.9,0.4,0.4-0.7,0.7-1h-0.1v-0.5
	h0.1c-0.1,0.2,0.1,0.4,0.2,0.5c1.2-2.8,4.3-4.7,5.6-7.8c0.7-1.2,2.2-2.8,2.5-4v0.1c1.7-0.7,1.7-2.8,3.1-4c0.5,0.5,0.5-0.6,0.9-0.5
	c-0.5-1.1,1.4-0.4,0.7-1.7c2.2-2.5,3.8-4.3,5.8-6.8c1.4,0.4,1.1-2,2.6-2.1l-0.2-0.5c1.2,0.1,1.1-1.5,2.1-1.6c0.6-0.4,1.7-0.5,2-1.6
	L61,106c1.5-0.4,0.6-2.7,2.2-2.6c0.4-1.5,2.1-1.6,1.9-3.3c0.1,0,0.2,0.2,0.4,0.4c0.2-0.2,0.1-0.6,0.1-1l0.4,0.4
	c1.2-0.4,0.9-2.5,2.4-2.6c0.5-0.2,0.2-1.4,1.2-1c0.4-0.9,0.2-2,1.5-2.1c0-1,1.7-1.5,1.2-2.2c1.5-0.1,1.2-1.1,2.1-2.1
	c0.4-0.6,1.6-0.7,2-1.9c-0.1-0.1-0.1-0.2-0.4-0.1v-0.4c0.1,0.4,0.4,0.6,0.7,0.5c-0.5-1.7,1.7-1.1,1.5-2.7c1-0.1,0.7-1.4,1.4-1.7
	c0-0.2,0,0.4,0.4,0.4c0.9-0.9,1.1-1.6,1.9-2.6v-0.5c0.7,0.4,1.2-0.7,1.6-1.1l-0.2-0.4c0.1,0.4,0.5,0.1,0.7,0
	c-0.2-0.5,1.1-0.9,0.6-1.5c0.6,0.6,1.2-0.5,1.5-1v-0.4l0.1,0.2c2.1-2.6,4-4.1,6.1-6.9c1.7-0.4,2.7-2.5,3.7-3.5
	c0.1-0.1,0.2,0,0.4,0.1c0.1-0.2,0.4-0.4,0.2-0.6l-0.1-0.1c1.1,0,2.5-1.5,3.1-2.6c1.4-1.5,4.1-2.2,4.6-4.2c2.1-0.1,2.6-3,4.6-3.2
	c0.4-0.2,0.5-1.2,1.2-1.1c0.7-0.2,1.4-1.4,2.2-1.4c0.6-0.5,0.6-1.5,1.5-1.2c1.2-1.5,4-2.6,4.5-4.2c1.4-0.1,2-1.5,2.8-2.2l0.1,0.1
	c1.5-0.7,2.2-1.7,3.2-3.1c0.9-0.5,2-0.6,2-1.4c2.1-0.2,1.9-2.6,4-2.8v-0.2l0.2,0.1l3.1-2c-0.5-0.4,0.2-0.1,0.1-0.6l-0.5-0.1l0.2-0.1
	c0,0.5,0.7,0,1.1-0.2c1.5-0.9,2.7-1.6,4.2-2.8c0.1,0.2,0.4,0.1,0.6,0.1c0.2-1.4,2.2-0.9,2.4-2.2c0.6,0.4,1.6-0.1,1.6-1v-0.4
	c1.4,0.9,2.8-1.6,4.2-2.1c1.4-1,3-0.9,3.8-2.5c0.2,0,0.6,0.1,0.7-0.1v-0.4c0.7,0.4,1.4-1.1,2.4-0.5c0.4-1.1,2.1-0.9,2.5-2
	c1.9,0,3.2-2,5.4-2.2c2.4-2,5.2-1.6,7.8-3.1c0.9-0.7,2.7-1.1,3.8-1.4c0.2-0.6,1.2-0.2,1.7-0.7c0-0.4,1.1,0.7,1-0.2
	c1.5-0.4,2.8-1.4,4.7-1c2.1-1.4,4.2-0.1,6.2-1.6c0.9-0.1,1.4,0,2.4-0.1l0.4-0.9c1.5,1.9,2.8-1.4,4.7,0c1.1-0.2,2.5-0.1,3.3-0.7
	c0.4,0.1,1,0,1.1-0.5v0.5c0.2,0.1,0.9-0.4,1.1-0.1V8.7c1.1,1.5,2.4-0.2,3.5,0.7c0.9-0.2,1.9-0.2,3.1-0.2c1-0.6,2.2-0.1,3.2,0.1
	c0.5-0.2,1.4-0.2,1.7-0.7c1.4,1.1,3.2-1.5,4.6-0.1c1.1-1,2.5,0,3.6-1.1c0.9,0.2,2.1-0.4,3.5,0c1-0.7,1.9,0.2,3,0.4
	c0.6,0.7,0.9,1.6,0.7,2.6c-1,1.2-1.9,3.3-4,3.2l-0.5-0.4l-2.6,0.7c0,0.1,0.1,0.1,0.1,0.4c-1.7-0.6-3.3-0.4-5.1-0.2
	c-1.9,0.7-2.8,1.7-5.1,1.5c0.4,1-0.9,1.1-1.6,1.2c-0.7-0.1-0.9-0.5-1.6,0v0.1c-0.6,0.1-1.4-0.4-1.7,0.5c-1.2-0.5-2.6-0.5-3.7,0
	c-0.7,1.4-1.2,1.2-2.5,1.7l-0.2-0.2l-0.7,0.6c-0.1-0.2-0.2-0.2-0.5-0.2c-0.2,0.2-0.2,0.5-0.2,0.7v-0.1c-1.1-0.2-1.7,0.9-2.8,0.6
	c-1.9,2-4.1,1.5-5.8,2.8l-0.2-0.4c-1.6,1.9-3.6,1-5.1,3c-0.4,0.4-1,0.7-1.4,0.2c-1.9,0.7-3.1,2-4.8,2.2c-2.4,1.6-4.2,3.3-6.6,4.7
	c-0.7,0.9-0.4,2.8-2.1,2.2c-0.1,0-0.4,0-0.4-0.1c-0.7,0.4,0,0.7-0.5,1.1l-1.4,0.6l0.1,0.1c-0.1,1.2-1.9-0.1-2,1.4
	c-0.1-0.1,0.1-0.9-0.4-0.9c-0.6,0.5,0.1,1,0.1,1.4c-0.5,0-1.1,0.5-1.1,1l0.1,0.1c-2,0.1-4.3,1.7-5.1,3.6c-1.1,0.5-1-0.7-1.1-1.4
	l-0.5,0.5V42c-0.2-0.4-0.4,0.2-0.6,0.2c0,1.2-0.4,2.1-0.6,3.3c-1.1-0.6-2.8,0.4-3.7-0.7c-0.9-1.2-1.1,1.1-2.4,0.6
	c-0.6-0.1-1.1,1.2-2.1,1c-0.1,0.7,0.6,2.1-0.9,1.6c0.2,0.4-0.4-0.9-0.9-0.4c-0.7,0.5-1.6,1.2-2.2,1.9c-0.6-0.1-1.1,0.7-1.7,0.9
	c-1.7,2.6-5.1,1.5-6.2,4.5c-0.4-0.4-1.2,0.1-1,0.5l-0.1-0.1c-0.4,0-0.6,0.6-0.4,0.9l-0.2-0.2c-0.6,0.6-1.2,0.4-1.2,1.2
	c-0.6,0.4-1.6,0.9-2,1.9v0.6c-0.6,0-0.2-0.5-0.5-0.7c-1.2,0.5-1,1.7-2.1,1.9c-0.4,0.2-0.5,0.5-0.9,0.7c0.2,0.2,0.1,0.6,0.1,0.9
	c-1.9-1.4-1.1,2-3.1,1.7c-0.2,0.5-0.6,1.1-1,1.6l-0.2-0.5c-0.2,0.2-0.6,0.2-0.9,0.6l0.4,0.6c-2.5,1.5-3.7,3-5.2,5.1
	c-0.1-0.1-0.2-0.2-0.4-0.2c-0.9,0.5,0,1.5-1,1.7c0.2,2.4-3,1.5-2.4,3.5c-1.5,0.4-1.9,2.2-3.2,3l0.2,0.6c0,0.1-1.1,0.2-1.1,0.1
	c0.1,1.9-3.2,2-2.5,4.1c0.1-0.1,0.1-0.4,0.1-0.5c-0.1-0.1-0.4-0.5-0.6-0.1c-0.1,0.1-0.1,0.2-0.1,0.5l-0.1-0.2
	c-0.5,1.1-2.1,1.5-2.1,3c-0.5-0.2-1,0-1.4,0.4l0.1,0.4c-1,0.1-1,0.5-1.9,1.1c0,1-1.1,1-1.5,1.7c-1.2-0.2,0,0.9-1.1,0.7
	c0,1.4-2.1,2.1-2.2,3.3c-2.1,2.5-4.6,5.6-6.2,8.4c-1,0.9-2.4,1.9-2.5,3.1c-1.5,1.6-2.4,3.5-4.1,5.1l-0.1,0.6l-0.1-0.1
	c-0.6,0.1,0,1-0.7,0.9l-0.1,1c-0.2,0-0.5-0.1-0.7-0.1c0.2,0.9-1.1,0.9-0.6,1.6l-0.4-0.2c-1.4,1.6-1.5,3.6-3.3,4.1
	c0.5,1.7-1.9,2.4-1.4,4.1l-0.1-0.1c-2,0.9-1.5,4-3.3,4.7c0.5,2.4-2,3.7-1.9,6.2h-0.1h0.1v0.6h-0.1v-0.1c-0.6-0.1-0.7,1-1,1.5
	c0.2,0.5-0.6,1.4-0.7,2c-0.1,0.1-0.4,0.2-0.4,0.5l0.2,0.4c-1,1.1-1.6,3.2-2.4,4.5l0.1,0.4c0,0-0.1-0.1-0.2-0.1
	c0.4,0.7-0.2,0.7-0.5,1.5c-0.2,0.7-1.1,1.6-1.5,2.6c-0.6,1.2-1.7,2.4-1.6,3.8c-1.1,0-0.9,1.1-1.6,1.5v1c-1,0.1-0.5,1.4-1.1,2
	c-1.1,1.5-0.1,2.1-1.7,3.2c0,1.6-1.9,2-1.7,3.5c-0.4,1.1-2.5,1.7-1.7,3c-0.5,0.4-0.7,1.6-0.7,1.6c0-0.1-0.1-0.1-0.2-0.1
	c-0.6,0.2-0.1,0.7-0.1,1c-0.6-0.1-0.4,0.5-0.6,0.7l-0.1-0.1c-0.4,1,0.1,1.6-0.5,2.7l-0.2-0.4c-0.6,0.5-0.1,2.1-0.9,2.6
	c-0.1,1-1.1,1.1-1.1,2.2c0.4,1-1.2,2.1-1.5,3.1c0,1.1-0.4,2.5-0.9,3.6l-0.1-0.2c0.4,2.1-0.5,2.2-0.7,4.5c-0.1,1.5-1.2,3.1-0.6,5.1
	l-0.6,0.4c1.5,0.4-0.2,1.7,0.4,2.2c-0.6,0.7-0.9,2.5-0.4,3.3c-1,1.2-0.1,2.6-1,3.5c0.2,1.1-0.5,2.6-0.6,3c1-0.1-0.2,1.1,0.9,0.4
	c-0.4,1-1.2,2-1.1,3.3c0,0.6,0,1.1-0.6,1.6c0.2,0.6,0,1.7-0.4,2.5c-0.4,2.2-0.5,5-1.2,7.1l0.2,1.6l-0.5-0.1c0.5,0.7-0.2,1.6,0.2,2.4
	h0.2c-0.6,1.1-1,2.4-0.1,3.5c-1.5,0.2-0.4,2.4-0.5,2.5c0,2.2-0.5,2.7-0.1,4.7c-0.2,0.1-0.1,0.5-0.1,0.6l0.6,0.4
	c-1.2,1-0.2,1.9-0.4,3.2h-0.1c0.2,1.2-0.5,3.2-0.1,4.5c-0.1,1.7-0.6,1.2-0.1,2.8c-0.6,0.2-0.1,0.6,0,0.9c-0.1,0.5-0.6,1.2-0.2,1.6
	h0.2c-0.1,0.2-0.7,0.7,0,1.1c-1.1,0.5,0.1,1.2-0.2,1.7c-1.1,2,0.7,4.1-0.5,6.2c0.4,0.6,0.2,1.5-0.2,2c0.1,0.1,0.4,0.1,0.5,0.1
	c-0.5,0.6-0.4,1.9-0.1,2.7c0.7,0.7-0.4,2.1,0.2,3.2l0.5,0.5c-0.2,0.4-1,1.4-0.4,2.2c-0.4,1.7-0.6,3.5,0.7,5.6c0.2,0.6-0.5,0.7,0,1.4
	l0.2-0.1c-0.4-0.1,0.1,0.5-0.5,0.6l0.1,0.4h-0.2c-0.2,1.1,1,1.1,0,2.1c0.4,1.1,0.4,2,0.6,3c-0.2,0-0.2,0.1-0.4,0.1
	c1.1,1.2-0.4,2.8,0.7,4.2c-0.2,0.9-0.7,1.5-0.2,2.2l0.7,0.5c-0.5,0.2-0.4,0.9-0.1,1.2l0.4-0.1c-0.7,0.4,0.1,1-0.1,1.4
	c0.2-0.1,0.2,0.1,0.5,0.2c-0.4,2.1,0.1,3.3,0.5,5.1c0.2,0.6,0.9,2.7,1.2,3.7c0.4,0.4,0.2,1.4,1,1.2c-0.1,2.5,1.4,4.2,2.7,5.8
	c-0.1,0-0.2,0.1-0.1,0.2l0.2,0.2l0.4-0.2c-1.1,1.1,1.5,1.4,0.5,2.4c-0.4-0.1,0.2,1,0.6,0.6c0,0.6-0.2,1.5,0.7,1.6
	c0.2,1,1.1,2.1,1.6,3c0.4,1.1,1,1.4,1.4,2.2c0.6,1.7,1.2,3.2,2.1,4.5c0.1,1,0.7,2,1,3l0.7,0.6l-0.2,0.2l0.5,0.5
	c-0.2,0-0.2,0.1-0.4,0.1c1.1,0,0.1,1.2,1.4,1.5c0.5,1.9,1.7,4.3,3.1,6.1c-0.4,0.9,0.1,1.2,0.4,2.1c0.6,1.2,2.2,1.9,2.2,3.6
	c1.1,0.6,1.6,2.1,2.5,2.8l-0.1,0.1c0.6,0,1,2.7,2.2,1.6c-0.7,1.1,1.1,1.5,1.1,2.4c0.7,0.9,1.4,1.7,1.9,2.7c2.7,1.4,2.5,3.8,4.8,5.3
	c0.1,0.2-0.1,0.6,0.2,0.7h0.4c-0.2,0.7,0.6,1.1,0.6,1.6c1,0.5,1.4,2.6,2.5,2.8c-0.4,0.9,1.4,1.5,1.9,2.4h0.4
	c-0.1,0.5,0.5,0.6,0.7,0.6c1.2,1.2,1.7,2.8,2.8,3.7c0.1,0,0.2-0.1,0.1-0.2c-0.1,0.1-0.1,0.6,0.4,1c0.2-0.4,0.1,0.9,0.6,1.1l0.5,0.5
	l0.2-0.1c1,1.4,2.4,2.4,3.1,3.6l1,1l0.1-0.1c0.1,0.9,1.5,1.9,2.6,2.7c0.1,1.1,1.7,2,2.2,3.3l0.4,0.4l-0.1,0.1c2,2.4,3.7,5,5.3,7.3
	c1.5-0.2,0.7,1,1.7,1.1c0.4,0.6,0.2,1.2,1.1,1.9c0.7,1.2,2,2.1,3.1,2.8c0,0.1-0.1,0.4-0.1,0.7l0.7,0.2l-0.1,0.5
	c0.2-0.4,1,0.6,0.9-0.4c0.2,1.2,1,1.9,2.1,2.2l0.1-0.7c0.2,0.5-0.2,1.1,0.6,1.5l0.5-0.1c0.5,1.9,2.2,2.8,3.2,4.3l0.9,0.2h-0.1
	c0.1,0.4,1.4,0.7,1.4,1.6l0.1-0.1c-0.2,0.1,0.6,0.9,1,0.5c-0.1,1.1,1.7,1,1.7,1.9c1.2,0.9,1,1.5,2.4,2.2c0.9,0.6,2.6,1.6,3.8,2.2
	l0.5-0.2c0.4,0.2,0.4,1.4,1,0.7c1.7,1.9,4.6,1.4,6.4,3.6c1.1,0.2,2.7,0.5,3.3,1c0.7-0.7,0.5,1,1.2,0.1c2.1,0,3.5,0.6,5.6,0.6
	l0.5-0.2c1.1,1.1,3.8,0.9,5.2,1.4c1,0.2,2.5,0.9,3.6,0.9c1,0.4,2.4,0.4,3.3,1.4c0.6-1.2,2,1.6,2.6,0.5c1,0.9,1.9,0.9,2.8,1.7
	c1.2,0,2.8,1.7,4.2,1.9c0.1,0.1,0.2,1.1,1.1,0.9l-0.1,0.2c0.4,0.7,0.9-0.4,1.2,0.2c1,1.2,2.5,1.4,3.7,2.1c0.5,1.1,2.2,1.2,2.7,2.2
	c1.2,0.4,2.7,1.6,4.7,2.2c0.2,0.5,1.4,1,1.9,0.7v-0.1c0.4-0.2,0.6,1.4,1.5,0.9c0.2,0.5,2.1,1.5,3.1,1.4c0.5,0,0.9,1.1,1.5,0.7
	c0.1,0.9,0.7-0.1,1.2,0.4c-0.4,0.9,0.7,0.4,1,0.7c1.5,1.7,4.2,1.5,5.3,2.6c1.7,0.6,4.2,1.1,5.6,2.2c0.5-0.4,0.6,1.2,1.2,0.2
	c-0.2,0.2,0.5,0.5,0.7,0.7l0.5-0.5c0.6,0.5,1.2,1.6,2.1,0.7c0.5-0.1,0.5,0.4,0.7,0.6c3.1,1.4,5.9,1.5,8.8,2.8l1-0.2
	c0.1,1.4,1.6,0.4,2.4,0.9l0.4-0.5c0.2,1,1.5,0.5,1.9,1.1c3.5,0.4,5-0.4,8,0.5v0.2c0.7,0,1.7,0.2,2.5,0l-0.2-0.5h0.7l-0.1,0.1
	c0.4,0.7,1.2,0.7,1.9,0.6l0.5-0.5c0,0.7,1.2,0.5,2.2,0.7c1-0.5,2.4-0.1,3.6-0.2c0.6-0.1,1.6,0.1,2.4-0.1c1.5,0.2,2.8,0.6,4.5-0.1
	c0.5,1,1.1-0.4,1.7,0.1v0.1c0.7,0,1.4,0.1,2.1-0.5l-0.5,0.4c1.7,0.6,3.2-0.6,4.8-0.4c0.1-0.5,1,0,1.4-0.4c0.9-0.4,3.6-0.4,5.4-0.4
	c0.2-1,1.6-0.4,2.1-1c0.7,0.7,1.5-0.9,2.4-0.2c0.2-0.5,1.5-1.4,1.5-0.6l0.2-0.4c0,0.5,0.5,0.2,0.7,0.4c0.7-0.1,1.6-1.1,2.2-0.4
	c2.1-0.1,3.3-1.4,4.7-1.7c0.1,0.4,0.5,0.2,0.9,0.2c0.4-1.1,1.6,0.5,2.4-0.7l0.7-0.4c-0.1,0-0.1,0.2-0.1,0.4c0.4-0.5,1.2,0.2,1.6-0.7
	c-0.1,0.1-0.1,0.2-0.1,0.4c0.7-0.1,1.4-0.4,2.2-0.6c0.6,0.4,1.4-0.9,1.7-0.2c0.7-0.7,1.5,0,2.2-0.6v-1.2c-0.1,0.2,0.2,1.1,0.7,1.2
	c1.9,0.1,2.6-1.7,4.5-1.2c0.6-1,1.7-0.4,2-1.1c0.9-0.1,1.2-0.1,2.4-0.4c0.7-0.1,1.2-1,2-0.6c0.5-0.6,1.7-0.4,1.9-1.2
	c0.6,0.7,1.1-0.1,1.6-0.2v-0.2l0.5,0.5c0.5-0.4,0.2-0.9,0.7-1.1c-0.1-0.2,1,0.6,1.2-0.1c0.2-1.7,2,0.1,2.6-1
	c0.5-1.2,1.9-0.7,2.2-1.7c1.2,0.1,2.2-1.2,3.6-1.6l0.2-0.7v0.1c1.6,0.1,4.5-1.7,5.6-2.2c1.5,0.7,1.7-2,3-0.9c1.4-1,3.1-1.1,4.1-2.1
	c2.1-0.1,3.7-2,5.7-2c0.1-1,1.1,0,1-1c0.9,0.2,2-0.1,2.6-0.4c0.6,0.4,0.9-0.5,1.4-0.6c0.6-0.2,2-0.5,2.2-1.2
	c0.1,0.1-0.1,0.6,0.4,0.6c0.2-0.1,0.1-0.4,0.1-0.6c1.4,0.7,1-1.9,2.5-0.7c0.2-0.1,0.6-0.1,0.9-0.5l-0.1-0.5c0.1,0.5,1,0.1,1.5,0.2
	l0.4-0.7c0.1,0-0.4,0.6,0.4,0.5c0-1.2,0.6,0.1,1-0.9c1.7,0.7,2.1-1,4-0.6c0.6-1,1.9-1.1,2.7-1.4c1.5-1.1,3.5-1.4,5-2.4
	c1-0.1,1.1-1,2.5-0.9c0.2-0.1,0.1-0.4,0.1-0.5c0.6,0.5,0.7-1.1,1.4-0.1c0.6-1.1,2-0.7,2.4-1.5l0.4,0.2c0.4-0.1,0.1-0.6,0.5-0.5
	c0.9,0.5,1.2-0.9,2.1-1.1c2-0.5,3.3-1.2,5.1-2.2c0.6-1.2,2.7-0.7,2.7-2.5l0.1,0.6c0.4-0.4,1.6-0.4,1.9-1.4l0.2,0.1l1.5-1.2v0.2
	l1.5-1.4l-0.4-0.4c0.6,0.9,0.9-0.2,1.5-0.1c1.5-2.2,3-2.1,5-4.1c1.7-0.9,3.3-3.1,4-4.2c0.2,0,0.5,0.1,0.6-0.1v-0.4
	c0.5-0.1,1.2-1.2,2.1-1.5c1.1-1.1,1.6-1.5,3.1-1.5c0.6-1.1,1-1.9,2-2.6l0.1,0.1c0.2-1.5,2.6-1.7,3-3.2c1.7-0.6,3.1-3.1,4.7-4.7
	c0.6-0.6,1.9-1.2,1.6-2.4c2,0.6,2.4-2.6,3.6-3c0.2-1.2,1.7-0.9,1.2-2.2l0.6,0.5c0.6-0.5,0.7-1.7,1.2-1.9c1-0.7,2.2-3,3-4.2
	c-0.1,0.1-0.4,0.2-0.2,0.5l0.1,0.2c0.6-0.2,0.6-0.9,0.6-1.4l0.2,0.2c0-0.7,0.9-1.1,1.5-1.1c0.9,0.1,1.4-0.4,2.1-0.7
	c-1.1-0.5,0.9-1.4,0.1-2.1c0.6-0.7,0.1-1.6,1-2.2c0.5-0.1,1.5-0.4,2.2-0.5l-0.2-0.4c1.5,1,1.4-1.1,2.2-1.7c0-0.1,0.1-0.4-0.1-0.4
	c1.2-0.9,3-2.1,3.5-3.3c1.5-1.7,0.5-4.3,2.5-5.6c1.4-0.9,1-2.6,2.1-3.6c0-1.7,1-1.5,1.5-3c0.4-0.4-0.2,0.2,0.1,0.2
	c0.7-0.1,0.6-0.9,0.9-1.2c1,0.2,0.5-0.9,1-1.1c-0.4-0.7,0.5-1,0.9-1.5l-0.4-0.4c1.5-0.5,2.1-2.2,2.7-3.7c-0.7-1.6,1.1-1.6,1.5-3.2
	c-0.1,0-0.1-0.1-0.2-0.1c0.1-0.9,0.7-1.7,0.5-2.8c0.2,0.1,0.4-0.1,0.5-0.2l-0.1-0.7c1-0.2,0.4-1.9,0.9-2.4c0.1-2.1,1.5-3.6,1.4-5
	l0.1,0.1c1.2-0.6-0.2-1.2,1-2c-0.6-1.1,1.5-1.7,0.7-3c0.9-2,1.9-4.5,3.3-5.7c0.4-0.5,1.2-3.1,1.4-4.6c2.4-1.1,0.4-3.5,2.6-4.6
	c-0.5-1.2,1.1-0.6,0.7-1.9h-0.4c0.4,0.1,0-0.7,0.4-1.1c-0.6-1.7,1.7-2,0.6-3.6c2-2.7,1.7-4.7,2.5-7.8c0.9-0.4,0.9-1.9,0.7-2.6
	c0.4-1.6,1.4-2.6,1.2-3.8c0.6,0.1,0.5-0.7,0.2-1.2c-0.9-0.1,0.4-1.7-0.1-2.5l0.5-0.4l-0.4-0.2c1.9-0.7-0.4-3.1,0.7-4.3
	c0-1,1-2.6-0.2-3.1c1.4,0.1,0.5-1.4,0.9-2c0-0.4-0.5-0.5-0.6-0.9c0.6-2,0.4-3.2,0.6-5.7l-0.2-0.1c-0.2-1.9,0.5-3.2-0.1-4.8
	c0.6-0.6-0.1-2.6,0.1-3.7h-0.4c0.4-2.1-0.7-5,0-7.2c-0.9-1-0.2-2.5-0.9-4.3c0.2-1.5-1.2-3.1-0.4-4.8c-0.5-0.2-0.4-0.9-0.2-1.1
	c0.7,0.2,0.7-0.4,0.7-0.7c-0.2,0-1.5-0.4-0.9-1.1c0.7-0.2,0.5-0.7,0.4-1.2l-0.7-0.2l0.4-0.5c-0.4-0.9-0.4-1.6,0-2.7
	c-0.1-0.2-0.7-0.6-0.7-1.1c0,0.2,0.6-0.6,0-0.9c0.1-1.4,0.7-3.5-0.6-4.3c0.4-0.9-0.2-2.4-0.2-3.3c-0.1-0.1-0.2-0.1-0.5-0.1
	c0.2-1.2,0.2-1.7,0-3l-0.2-0.2c0.4-0.2,0-0.7-0.1-0.7h0.1c-0.5-1.1,0-1.9-0.6-3c-0.2-0.5-0.5-1.9,0-2.6c0-0.9-1-1.4-0.9-2.4h0.1
	c-0.6-1.7,0.1-4.2-1.7-5.8c0-0.5,0.1-1-0.5-1.2l-0.4,0.1c0.9-0.1,0.1-1.2,0-1.6c-0.5-0.6-0.2-2-1.1-2.5c0-0.9-0.2-1.9-0.6-3
	c-1.5-1.5,0-4-1.7-5.3h0.1c-0.5-1.6-1.2-3-2.5-4.1h-0.5l0.5-0.4c-3-2.2-2.5-5.4-5.7-7.3c1.4-2.4-2.4-1.5-1.9-3.8
	c-0.2-1.4-2-0.9-1.7-2.5c-1.2-1.5,0.4-5.1-2.5-4.8c-0.9-0.7-2-1.4-2-2.4c-0.7-0.1-0.6-0.7-1-1.4c0.1,0,0.4-1.1-0.2-1.2l0.2-0.4
	c-0.1-0.1-0.2-0.1-0.5-0.1c0.9-0.2-0.2-1,0-1.2c0.2,0.1,0.2,0,0.4-0.1c-0.1-0.4-0.6-0.5-0.9-0.1l0.1,0.1l-0.5-0.1l-0.2,0.9
	c-0.5,0.2-1.1-0.2-1.5-0.6c0.2-1.5-1.4,0.4-1.4-1.2c-1.6-1-2.7-3.2-4.3-4.8c0-1-0.1-2.5-1.1-2.8l0.4,0.2c0.9-0.7-0.9-0.6-0.7-1.2
	l-0.1,0.1c1-0.2-0.9-1.2,0.5-1.6c-1-0.5-0.7-2.8-2.2-2.2c0.1-0.4-0.2-0.6-0.5-0.9c-0.9,0.4-1.5-0.1-2.1-0.6c-0.1-1-0.7-2.2-1.7-2.7
	l-0.4,0.4l-0.1-0.7c-1.1,1.5-1.4-0.9-2.6-0.9c-0.2,0.2-0.5,0.2-0.7,0.2l-1.9-2.2c-0.2,0.5-0.6,1.4-1.4,0.9c0.2-1-0.9-1-0.4-1.9
	c-0.4-0.2-1-0.1-1.5-0.2c1,0.1,0.1-0.7,0.4-1.1c-0.9-0.6,0.7-1.1-0.2-1.6c0.1,0,0.2-0.1,0.2-0.2l-0.4-0.2c-0.1,0.4-0.7,0.7-0.5,1.2
	c-0.6,1-2,0.5-3,0.4l0.1-0.2c-1-0.2-1.5-1.5-2.6-1.1c0.7-1.1-0.2-2.6-0.1-3.8c-0.6-0.5-1.1-1.4-1.9-1.4h-0.4
	c-0.4-0.5-2.4-1.1-2.2-2.4l0.2-0.7c1.1,0.1,2.4,1.1,3.1,0.7c-0.5,1.1,1.2,1.2,1.6,1.9c1.4-0.2,1.9,1,3,0.7c0.5,0.1,1.4,1,1.1,1.6
	c-0.2,0.9,0.9,0.7,0.6,1.5l0.9,1l-0.4,0.4c1-0.4,0.6,0.6,1.5,0.2c0.1-0.5,0.6-1,0-1.4c1.1,0,0.2-0.6,0.4-1.1l-0.7-0.7
	c0.1,0,0.4-0.1,0.4,0.1c0.7-1.2-0.5-2.6-1-3.7c0.1-0.4,0.1-1.2-0.2-1.5h-0.5v-0.5c-0.5-0.2-1,0.1-1.5,0.1v0.4
	c-0.2,0-0.6-0.1-0.9,0.1v0.2c-2.1,0.2-1.9-3.1-4.3-2.5c-1.7-0.9-3.3-2-5.2-2.8c0-1-3.8-2.6-1.2-3.8c-0.6-0.5-0.5-0.7-1-1.2
	c0.7-1.1-1.2-1.7-0.6-3c-0.9,0.1-2.1-1.1-3-0.7c-0.4,0.5-0.4,1.6-0.6,2c0,0.2-0.4,0.7-0.7,0.6c-0.7-0.1-2.4-0.7-1.9-1.9l-0.5-0.2
	c0.5-0.6-0.7-1-0.9-1.6l0.2-0.4l-0.2-0.2h0.9c0.5-0.9-0.6-0.7-1-1l-0.1,0.1l-0.6-1.1c-0.7,0.2-0.9,1.6-2.1,1.1
	c-1.9,0.1-1.9-2.6-3.7-2.6c-0.9,0-1.9-1-2.7-0.5c0.1-0.6-0.5-0.6-0.9-1l-0.1,0.2c-0.4-0.4-1.4-0.9-1.4-1.5c-0.1-1.4,1.7-0.1,2.1-1
	h0.1c-0.5-0.7-2.2-1.1-2.6-2.2l-1-0.9l-0.1,0.1c-0.2-0.2-0.7-0.6-1.1-0.7l-0.4,0.4c-0.5-1.1-1.7-0.9-2.5-0.9c0-0.2-0.2-0.4-0.4-0.5
	c0.1,0.2-0.7,0.7-0.4,1.2l0.6,1.5c-0.6,0.5-1.1,0-1.7,0.7c-1.4-0.5-2.4-1.6-2.7-2.8l-0.7-0.7c-1,0.9-2.5-1.4-3,0.7
	c-2,0-1.4-1.4-3.2-1.6c-0.5-1.2,0.9-0.9,1.2-1.5c0.6-0.2,1,0.7,1.4-0.2c-0.2-1.1-2-0.1-1.9-1.2c-1.4,0-2.4-1.5-3.2-1.2
	c-0.6-0.5-1.4-2-2.8-1.6c-0.2,0.1,0.2,0.5-0.2,0.6c-0.6,0-0.7-0.9-1.4-1l-0.6,1c-0.2-0.2-1.9-1.4-1.6-2.1c-1.6,0.1-0.7-1.6-2.2-1.9
	c-0.7-0.5-0.9-3.3-2.4-1.7c-0.2,0.5-1.1,1.1-0.9,1.6c0.7-1,1.4,0.6,1.9,0.9c0.6,0.4,0.2,1.1,0.4,1.5c-0.5,0.7-1.1,0.4-1.9,0.2
	c0-1.1-1.6-1-1.1-2.2c0.1,0,0.2-0.2,0.4-0.4c-0.2-0.6-0.5-1.5-1.1-1.9l-0.4,0.2c-0.6-1.7-2.4-0.7-2.8-2.4c-1.4-0.5-1.5-2.1-2.6-2.7
	l-0.6-1l-0.2,0.4l-0.7-0.7l-0.4,0.6c0.2-0.5-0.7-1.2-1.1-1.1c0-0.6-2.2-0.5-2-1.7c-1.2,0.4-1.4-2-2.5-1.1c-1.4,0.1-0.2-3.1-1.9-2
	c-1.1-1-2.5-0.7-3.7-1.7c-1.2-0.7-3-1.7-3.8-2.4c-0.1-0.2-0.4-0.5-0.6-0.4l-0.2,0.5c0-1.2-1.4-0.9-2.1-1.4c-0.6-0.2-0.5,1.2-1.2,0.2
	c-0.1-0.4-0.6-2.4-2-2.6h-0.4l0.1-0.1c-1-0.5-2.5,0.2-3.3-1.1v-0.4c-1.9,0.5-3.2-1.4-5.2-1.5c-0.1-0.7-0.7-0.2-0.7-0.6
	c-0.2,1,0.5,2.2-0.6,3c-1.5-0.2-1-2.1-1.4-3.1l-0.6,0.4c-0.1-1-1.5-1-1.7-1.9c-0.5,0.6-1.4,0.5-1.7,0.5c0-0.6-1.4-0.6-1.7-1.5
	l-1.1,0.5c0.2-0.1,0.1-0.4,0.1-0.6c-0.1-0.2-0.4-0.1-0.6-0.1l-0.2,0.5l-0.4-0.6c-0.1,1-1.1,0.4-1.2,1.1c-1.7-0.2-0.5-2.7-2.6-2
	l0.4,0.2c-0.9-0.2-2.7,0.2-2.5-1.6c-0.9-0.1-1.2-0.9-1.7-1.5c0.5-0.9-0.9-1.4-1.2-1.5c-0.4-0.2-0.4,0.5-0.7,0.6
	c0.7,0.1,0.6,1.2,0.5,1.6c0.4,0.5-1.1,0.9-0.6,1.7l0.6,0.7l0.5-0.2c0,0.4-0.2,0.7,0.2,1.1c1.1-0.4,2.1,1.6,3.5,1.1
	c0.1-0.1,0.1-0.4,0.1-0.5c-0.1,0.5,0.6,0.7,1,0.9c1-0.2,2-0.7,2.7-0.2c0.2,1,1.4,0.5,1.4,1.5c1.2-0.2,0.5,2.2,2.2,2.1
	c0.9,2.2,3.6,0.7,5,2.5c0.7,0,1.2,1.5,2.5,0.6c0.6,0.1,1.1,1,1.9,0.6c0,0.9,1.9,1.1,1.9,2.1c0.7-0.4,1.1,0.9,1.7,1
	c1.2,1.6-1.4,3,0.6,3.7c0.6,1.4,3.3,0.6,3.2,2.7c-1.5,0.7-1.5-1.2-3.1-1c-0.5-1.9-2.8-1-3.7-2.5c-1.2-0.4-1.7-0.4-2.4-1.6l0.7-1.2
	c-1.1-1.1-2.6-2-3.8-1.6c-0.1,0.6,0.9,0.6,0.4,1.4c-1.1,0.5-1.9-1-3-1.2l-0.1-0.9c-2,0.9-2-3-4.5-2.2c-1,0.2-1.1,0.2-2-0.2
	c-0.6-1-1-1.7-2.2-2.6c-0.5,0.4-0.6,1.2-1.6,0.9c-0.6-1.9-0.9-2.1-2.6-3.2l-1.2,1.2c-0.5-0.4-1.2-1-1.4-1.5
	c-1.2,0.5-1.4-1.5-2.6-1.4c0.9-2-2.4-2.7-0.5-4.1c0-0.2,1.4,0,1-0.9c-1-0.1-0.2-1.4-1.5-1.5c-0.2,0.5-0.5,0.7-1.1,0.6
	c-0.1-0.6-1-1-1.2-1.6c-0.2,0.5-1.1,0.2-1.6,0.1c-0.5-1.2,1-2-0.1-3.1c0.6-0.5,1.2-1.9,2.4-1.2c0.4-0.7,0.6,0.4,1,0.1
	c-0.2,0-0.1,1.5,0.5,1.9c0,0.2-0.1,0.6,0.1,0.7c2.4-0.7-0.2-2.5,0.4-3.3c-1.4-0.5-2.4-1.7-3.2-2.4c0.1-0.2-0.2-0.2-0.1-0.6
	c-1.2,0.5-1.6-0.6-2.5-1.1l-0.4-0.7h0.2c-0.4-1.5-1.6-2.1-3.2-2.6c-0.5-0.6,0.4-1.4-0.4-1.9c-0.1,0-0.2-1.4-0.9-0.9
	c-1.5-2.2-4.1-3.7-5.7-5.9c-1.5-0.7-3-2.5-3.7-3.6c0.2-0.5-0.2-0.6-0.6-0.7c-0.2-0.1-0.2,0.1-0.4,0.2c-1.1-0.2-0.4-1.6-1.1-2.1
	c0.1-0.5-0.1-1-0.6-1.2c-1.1,0.6-0.7-1.5-1.7-1.2c-2.2-0.5-3.2-3.6-5.3-4.2c0.1-0.7,0.6-1.5-0.5-1.9h-0.2l-0.1-1.4L246.7,8
	c-0.7-1.2-2-2.1-3.2-3L242,4.9c0.1-0.6-1.7-1.2-0.7-2C242.8,3.3,243.5,3.4,244.6,4.7z"/>
<path d="M267.6,31c-0.2,0.4-0.5,0.5-0.9,0.5c-0.4-0.1-0.4-0.7-0.1-0.9l0.6-0.4L267.6,31z"/>
<path class="st0" d="M286.3,45.1l-0.7-0.9C285.7,45,286.8,44,286.3,45.1z"/>
<path d="M275.9,48.6l-0.2,0.2l0.2,0.4c-0.4-0.2-0.9-0.7-1.2-0.4c-0.7-0.9-2.2-1.7-1.9-2.8C274.6,46.5,275.4,47.1,275.9,48.6z"/>
<path class="st0" d="M291.2,48.6h0.2V49h0.6l0.1,1.2l-0.2-0.5c0.1,0.1,0.2,0,0.2-0.1c-1,0.4-0.6-1.1-1.5-1.1V49
	c-0.1-0.5-0.9-0.6-1.1-0.5l0.1-0.6c0.2,0.5,0.7,0.4,1.1,0.1c0-0.4,0-0.1,0.2-0.5C291,47.9,290.9,48.4,291.2,48.6z"/>
<path class="st0" d="M342.3,56.9c-0.5,0.1-0.4-0.7-0.5-0.7C341.9,56.4,342.4,56.5,342.3,56.9z"/>
<path class="st0" d="M305.2,64.8l0.5,0.4L305.2,64.8z"/>
<path class="st0" d="M347.2,67c-0.2,0.2,0.1,0.9-0.2,1.1h-0.1l-0.1-1.4L347.2,67z"/>
<path d="M318.7,71.9l-0.1,0.1c1.5,0.2,2.4,2.1,4.2,1.4c0.5,0.9,1.1,2.4,1.5,3.3c-1.6,0-2.2-0.7-3.5-1.9c-0.2-0.4-0.6-0.2-1-0.2
	c-0.4,0.9-1.1,0.1-1.6-0.1c0.4-0.9,0.2-1.6-0.7-1.9c-0.2,0.1-0.7,0-0.6-0.4C316.7,70.9,318.4,71.3,318.7,71.9z"/>
<path d="M331.9,72.4c-0.6,0.1-0.7,1.4-1.5,0.7v-1.2h0.1v-0.6C331.2,71.4,331.6,71.8,331.9,72.4z"/>
<path d="M241,76c1.7,0,2.6,1.6,4.1,1.5c0.1,0.4,1.5,0.2,2.2,0.1c0.2-0.4,1.1-0.6,1.7-0.9l0.9,1.1l0.2-0.1v0.5
	c1.2-1.1,0.9,1.4,2.2,0.7c1.9,0.9,2.2-0.1,3.2,2c-0.2,0.4-0.1,0.9-0.2,1.2c0.7-0.1,0.5,0.4,0.5,0.9c0.9,0.5,1,2.5,2.5,1.5
	c-0.2,0.2,1,0.6,1.2-0.1v0.1c0.6,0.5,1.1-0.7,1.7-0.1c-0.1,0.1,0,0.2,0.1,0.2c0.2,0.1,0.4-0.1,0.6-0.2v0.1c0.7,0.1,1.7,0.6,2.5,0
	c1,1.4,1.7-0.7,2.7-0.2c1.1,0.5,1.6,0.1,2.7,0l1.2,0.1v0.1c2,0.5,3-0.1,4.7,0.4c0.4-0.4,1.6,0.5,2.2-0.2c0,0.4,0.2,0.5,0.4,0.6
	c0.5-0.2,1.2,0.6,1.7-0.1l0.4-0.6c0.2,1.6,1.9,0,2.4,0.9c1.2-0.7,3,0.4,4.1-0.4c1.6,1.5,3.2,0.1,4.3,0.6c1.1-0.1,3.1,0.1,4.5,0.7
	c0.9-1.1,2.2,0.5,3.5,0.1l1.4-0.4l-0.2,0.5c3.3-0.4,5,1.2,7.9,1.5c0.4,0.1,0.7,0.4,1-0.1c-0.6,0.7,0.5,0.6,0.6,1
	c1,0.7,2.5-0.1,3.5,1.1c0.9-0.4,1,0.6,1.7,0.2c0.1,0.7,1,0.4,1.4,0.7v-0.6c0.2,0.7,1,0.6,1.4,1.1l0.2-0.4c0.1,0.4,0.2,0.5,0.6,0.6
	c0.2-0.5,1,0.6,1.5,0.6c1,1.7,4.3,1.9,6.1,3.1l0.4-0.2c-0.1,0-0.2,0.1-0.2,0.2l0.4,0.2l0.2-0.2c0.6-0.2,0.1,0.5,0.5,0.6
	c1.4-0.5,2.1,1.5,3.3,0.9c0.2,0.7,1.4,0.4,1.7,0.6l0.1-0.4c0.7,0.9,2,1.6,3,1.7v-0.5c0.2,0.1,0.4,0.2,0.7,0.1
	c-0.1,0.6-0.1,1,0.4,1.4l1.4,0.1c0.2,0.4-0.5,1,0.1,1.4l0.2-0.1c0.6-0.2,0.6,1,1.1,1.4l0.4-0.5c0.6,1.6,3.8,2.2,5,3
	c1.4-0.2,2.5,0,2.8-0.9c1,0,2-0.4,2.6,0.4c0.5,0.9,0.9,2.2,1.7,3.6l0.6-0.2c-0.7,0.4,0,1.1,0,1.9c0.2,1.5,0.4,2.2,0.2,4
	c-0.1,0-0.2-0.1-0.2-0.2l0.1,0.7l-0.1-0.1c-0.2,0.1-0.1,0.5-0.1,0.7c0,0.2,0.2,0.1,0.4,0.1c-0.4,0.5-0.5,1-0.4,1.4h0.4
	c-0.2,0-0.2,0.2-0.4,0.4c0,0.4,0.6,1,0.1,1.2c0,1.5-0.2,2.7,0.7,4h-0.5c-0.2,1.2,0.5,2.6-0.2,3.8c1.2,1-0.5,2.6,0.2,3.8
	c0.1-0.1,0-0.2-0.1-0.2c-0.6,0.4,0.5,0.7,0.2,0.9h-0.1c0.4,2.2,0.1,4.6,0.1,6.8l0.5,0.2c-1.1,1,0.4,1.9-0.5,2.8l0.2,0.7
	c-1.4,0.6,0.2,1.5-1,2.4c0,1.2-0.9,2.5-0.7,3.3h0.2c-0.6,1.1-0.2,2.2-1.5,3c-0.2,2.2-1.7,2.8-1.9,5.1c-0.6-0.1-0.6,0.5-0.6,1
	l-0.2-0.2c-1.5,1.6-2,3.1-2.1,5.2c-1.6,0.4,0.2,2.4-1.6,2.5c-0.9,1.6-3.2,2.7-3.1,5c-1.1,0.6-2.5,3.2-4.1,3.1
	c-0.1,0.7-1.5,1-1.5,1.9c-0.5,0.4-1.4,0.4-2,0.4c0.1-0.6-0.4-0.1-0.6-0.7c-1.4,0.1-1.1,0.9-1.6,1.5v0.4l-0.2-0.1
	c-0.6,0.1-1.5,2.6-2.7,0.9c-0.4,0.2-1-0.5-1.2,0.2v0.4c-1.4,0.5-3.1,0.1-4.2,1.4c-0.4-0.4-1.2-0.4-1.5,0.1c-0.4,0.6,0,1.6-1.1,1.9
	c-1.4,0.1-3-0.2-3.8-1l-0.4,1l-0.2-0.4c-0.7,1.1-2.1,2.2-3.1,1.4c-1.9,0.5-2.5,1.6-4.2,0.7l-0.5,0.2c0.5-0.1,0-1.2-0.7-1.2
	c-1.1-0.5-2.1,1.6-3-0.2c-0.1,0.2-0.5,0.1-0.7,0.4c-0.1-0.4-1.2-1.1-1.7-0.7c-0.9-0.7-0.9-0.4-2-1.2c-0.2-0.1-0.5-0.4-0.9-0.2
	l-0.2,0.6l-0.4-1c-0.7,0.5-1.7-1.2-2.7-1.5l-0.4,0.4l0.1,0.1c0,0.1-0.6-0.4-1.1-0.1V176c-1.1-0.4-1.2,1-2.2,1
	c-0.9-0.1-1.5-1.6-2.2-0.4l-0.1-0.1l0.7-0.5c-0.6-1-2.5,1-2.6-0.7c0.2-1-0.6,0-0.9-0.5c-0.5,0.6-1-0.5-1-0.7c-0.2,0-0.5-0.2-0.6-0.4
	c0.2-0.6-0.2-0.9-0.4-1.6c-0.4,0-1.1-0.9-1.6-0.5c0.5,0.1,0.1,0.5,0.4,0.6h-0.4c0.1-0.2,0-0.5-0.2-0.7c-0.6,0.6-0.7-0.2-1.4,0.1
	c-0.1-0.1-0.1-0.4-0.2-0.5l-0.7,0.7c-0.4-0.2,0.5-0.7-0.2-1c-1.1,0.2-1.9,0.9-3,0.6c-0.5,0.1-1.7,0.4-2.4,0.5
	c0.1-0.4-0.2-0.5-0.4-0.7c-1.2-0.4-1.9,0.9-3.3,0c-0.2-0.6-0.4-1.6-1.4-1.9l-0.1,1.1c-1.7,0.1-3.2-0.6-3.8-2.2v-1.4h0.1
	c-0.4-1.1,0.6-3.1-1.1-3.2c-0.9,1.2-1.9-0.6-2.7-0.6c-0.1-0.4-0.1-0.9,0.1-1.2c-0.5,0-1.4-1.2-1.6-0.1c-1.7-0.6-2.4-2.2-4.3-2.2
	c-1.1-0.9-2.6-1.5-4.1-2.1c-2,0-3.6,0.1-5.6,0.5l-0.9-0.4c0.9-1.1,2.7-1.2,4-1.6c1,0.1,1.7-0.2,2.6-0.2c1.5-0.2,3.2-1.1,4.6-0.4
	c0.6-1.1,0.6,0.5,1.5-0.4c0.7,1.1,1.5-1,2.1,0.2c1.2-0.5,2.4,0.9,3.2-0.4c0.6,0.5,1.2,0.1,1.9,0.2v-0.2c1.7,0.1,3.6,0.9,5,0.2
	c1.5,1,3.1,0,4.2,0.7c4.3,0.1,7.6,0.4,11.6,0.2c0.9,0.4,3,0.2,3.5-0.4c0.2,0,1.4-0.1,1.9,0.1c0.4-1.2,1.7,0.5,2.1-0.9
	c1.5,0.6,2.8,0.1,4-0.4c0.6,0.9,2.1-0.4,3.1,0.5c0-0.5,1.2-0.2,1.6-0.1c1-0.1,2.4-0.4,3.6-0.4c1-1.2,2,0.4,3.1-0.4l0.4,0.2
	c1.5-0.4,3-0.9,4-1.6c0.9,1,1.4-0.5,2.1-0.5v0.2c1-0.9,3.5-2.1,3.6-2.8c1.1-0.5,1.7-2,3-2.7l-0.5-0.6c0.7,0,0.4-0.1,0.6-0.7l0.1,0.2
	c0.2-0.2,0.9-1,0.4-1.2c1.4,0.1,0.4-1.2,0.9-1.7c-1-0.5,1.5-1.4,0.4-2.5c1-0.7,0-3,1-3.2l-0.5-0.7l0.1,0.1c0.6-0.4,0.2-0.9,0.4-1.4
	c0.2-1.1,0.2-1.6,0.4-3c1.2-0.9-0.5-3.5,1.4-4l-0.5-1.2l0.2,0.2c0.1-0.2,0.1-0.4,0.2-0.6c-0.1-0.5-0.6-0.2-0.7,0
	c0.7-0.5,1-0.7,1.2-1.6v-1.5c0.1,0,0.2-0.2,0.4-0.4c-0.9-1,1.1-1.9,0.1-3c0.4-0.1,0.7-0.7,0.2-1c-0.1,0.1-0.4,0.1-0.5,0.1v-0.5
	c0.6,0.6,1.1,0.4,1.4-0.4c0-0.2,0.2-0.4,0.1-0.6l-0.2-0.2c0.1,0,0.1-0.1,0.2-0.2c-0.9-0.4-1.2-0.2-1.5-0.7v0.4l-0.2-0.4
	c-0.5,0.9-1-0.4-1.5,0c-1.1-0.6-2.2-0.9-3.6-0.9v0.4c-0.6-0.6-1.5-0.9-2.4-1.1c-0.2,0.7-0.6,0.2-1.1,0.6L318,115l-0.2,0.6
	c0.1-0.6-0.7-0.7-1.1-0.5c-0.5-0.1-1.2,0-1.9-0.4c-1.9-1.1-3.6,0.2-5.7-0.1c0-0.9-0.6-0.2-1-0.6c-1,0.7-2.7-0.1-3.3,0.6
	c-1.2-0.1-2.4-1.4-3.6,0c-0.9-0.6-1.2,0.5-1.9-0.5c-0.6,1.7-2-1-2.8,0.2c-1.1-0.6-2.8,0-4.6-0.1c0-0.1-0.1-0.2-0.1-0.2
	c-0.2,0-0.5,0-0.5,0.2v0.4c-0.1-0.6-1.2-0.4-1,0.2v0.2c0-2-1.6-0.2-2.2-1.5c-0.7,0.6-1.7-0.5-2.2,0.5c-0.7,0.2-1.1-0.9-2.1-0.7
	c-0.7,1-1.5-0.1-2.6,0.9c-0.1-0.7-0.7-0.2-1.1-0.4c-0.2,0.4-0.6,0.2-0.9,0.2c-0.1-0.2-0.4-0.5-0.7-0.5l-0.4,0.6
	c-0.4,0-0.5-0.6-1-0.6l-0.4,0.4c-0.7-0.5-1.5-0.2-2.2-0.1v-0.4c-2.6,1.1-6.2-0.6-8.4-0.4c-0.1-0.2-0.2-0.2-0.5-0.2l-0.1,0.6
	c-0.7-1.1-2.2,1.1-2.8-0.7c-0.6,0.5-1-0.2-1.9,0c-0.7,0.5-0.5-0.7-1.1-0.1l-0.5-0.6v0.6l-0.4-0.2c-0.7,0.1,0,1.2-1,1.1
	c-1,2,0,4.6-1.2,6.3l-0.1-0.2c0.1,1-0.7,1.9-1,2.7l-0.2-0.1c0,1.4-1,1.1-0.9,2.4l-0.1-0.1c-0.5,0.1-0.2,1.1-1,0.9
	c-0.2,0.2,0,0.6,0.2,0.7c-0.2-0.1-0.9-0.1-1,0.2l0.1,0.5c-0.4-0.1-0.7,0.4-0.7,0.6c0.5,0.7-0.4,0.6,0.1,1.5l-0.5,0.6
	c0.5,1-1.5,2.1-0.7,3.2l-0.4,0.6l0.2,0.2c-1.7,2.7-2,6.2-4.7,8.9c-0.2,0.6-0.9,1.1-0.5,1.6h-0.2l-0.4,2.1c-0.7-0.2-0.5,0.9-0.9,1.1
	l-0.7,0.9c0.4,0.1,0.2,0.4,0.1,0.6c-0.7-0.4-0.7,0.9-1.1,1.2c0,1.2-0.7,2.2-1.4,3.2c-0.1,0.1-0.4,0.2-0.2,0.5c0,0.4-0.6,1.9-1.4,2.2
	c-0.4,1.4-2.1,1.7-2.7,3.2l-0.1-0.2c-0.6,0.4-0.4,0.4-0.6,1c0.2,0.4-0.6-0.6-0.7,0.1c0.1,0.2-0.1,0.6-0.9,0.9c0,1-0.7,0.2-0.9,1.2
	v0.2h-0.6l-0.1,1c-0.4-0.1-1.1-0.1-1.4,0.2c-0.2,0.1-1,0.7-1.5,0.9c-0.9,1.5-3.2,1.1-4.3,3.1c-0.7,1.1-0.9,1.7-2.7,2.1v0.2l-0.2-0.1
	c-0.5,1.5-2.2,0.6-3.5,1.4c-0.5,0.9-0.9-0.4-1.7,0.7c-0.6-0.1-1.7,0.2-2-0.5h-0.6v0.6c0-1.1-1.2-0.2-1.9-0.2
	c-0.6,0.9-1.5,0.6-2.2,1.2c-1.4-0.1-1.7,0.4-2.6-0.2c-0.2-0.9-0.7-0.2-1.2-0.6c-0.9,1.1-2.2-0.1-2.5,0.7c-0.5-0.2-0.6,0-0.7,0.5
	c0.1,0.2-0.2,0.7-0.7,0.6c-0.5,0.6-1-0.9-1.2,0.2l-0.1-0.1c-1.7,0.4-1.4,2.7-3.2,3c-0.6,0.9-1.9,1-2.1,2.2c-0.5-0.2-2.4,0.6-2.4-1.1
	c0.7-2.2,2.5-4.5,3.7-6.1c2.2-4,5.4-8.5,6.8-13c0.5,0,0.6-1.4,1-1.9c2.2-3,4-5.6,6.3-7.7c0.7-1.6,2.4-2.8,3.8-4.2l-0.5-0.1
	c0.9-0.2,1.4-1.9,2.4-2.5v-0.6c1.1,0.6,1.2-1.1,1.5-1.5l0.2,0.1c0.9-1.6,2.4-3.5,3-5.4c1-1.9,2.4-3.2,3-5.4c1.1-2.4,2.8-3.8,4.1-6.3
	c0-0.1,0-0.2-0.1-0.4l0.2,0.2c0.4-2,1.7-2.4,2.1-3.7l0.1,0.1c1.2-1.6,1.5-3.6,1.5-5.6c0.6-0.4,0-1.5,0.1-2.2c0-1.6-1.9-0.5-2.8-0.9
	c-1.4,1.2-3.7,0.4-5.1,0.6l-0.5-0.5c-0.1,0.2-0.4,0.2-0.2,0.5c0.1-0.1-1-0.7-1.5-0.2c0.2-0.2-0.4-0.7-0.6-0.7c-0.2,0.5-0.6,0-0.9,0
	c0-0.2-0.2-0.4-0.4-0.5l-0.4,0.2c-0.2-1-1.9-0.4-2.4-1.5c-1.4,0.1-2.5-0.7-3.5-1.7c0.1-0.2-0.5-1-0.7-0.7c1.5-1.6-1.4-2.4-1.6-3.5
	c-1.2-0.1-1.6-1.1-2.8-0.5c0-1.4-0.2-3.3-1.6-4.7c-0.7-2.4-1.1-5.1-0.1-7.2c0.2-1.7,2.8,0.2,2.2-1.9c0.4,0.4,1.2,0.6,1.9,0.4
	c1.1,0.1,3.1-0.5,3.7,0c2.5,0.4,5.6-1.7,8-1.2c0.9-1.2,2.2-0.1,3.5-0.6c0.7-0.2,2-0.6,2.7-0.2v-0.1c1-0.2,2.7-0.2,3.5-1
	c0.2,0,0.4,0.4,0.6,0.5c1.4,0,1.2-2.1,1.9-3l0.5-0.1c-0.4-2.1,2-3.7,1.7-6.1c0.9-0.5,0.6-2.1,2-1.7C240.2,76.3,240.7,76.1,241,76z"
	/>
<path d="M326.9,80.8l-0.5,0.5c-0.4-0.1-0.4-0.7,0-0.9C326.7,80.5,327.2,80.4,326.9,80.8z"/>
<path d="M137.9,81.7l-0.5,1.4c1.2,0,1,2,2.5,1.5V85l1,0.1l-0.4,0.6c1.2,0.6,2.2,1.9,3.1,1.5c0.4,0.4,1.2,0.5,2,0.9
	c1.4-0.1,2.5,0.2,4,0.5c1.6,0.6-0.4,1.6,0,2.6c0,0.9-1.1,2.5-0.9,3.5c0-0.2-0.2-0.1-0.4-0.1c-0.4,0.1-0.1,0.5-0.2,0.7l0.4,0.2
	c-1,0-0.7,1.1-1.2,1.6c0.4,0.7-1.1,2.8-1.6,4.3c0.6,1-1,0.2-0.2,1.2c-0.1,0.6,0.9,1.6-0.4,2c0,0.4-0.1,0.6,0.1,0.7s0.2,0,0.4-0.1
	c-1.1,0.4,0.6,1.9,0.9,2c-0.7,0.7,0.1,1.2,0.2,2.4c1.4,1,0.2,2.7,1.7,3.8c-0.2,0-0.2,0.1-0.4,0.1c-0.1,0.5,0.4,0.5,0.5,0.6h0.2
	c-1.5,1.1,1.1,1.7-0.1,2.8c0.2,0.2,0.4,0.5,0.1,0.7c0.4,0.2,0.9,0.5,0.9,1h-0.2c0-0.1-0.1-0.1-0.1-0.2c-0.9,0.6,0.4,1.4-0.5,2
	c0.7,1.2,0.4,2.1,0.5,3.3l0.4,0.4l-0.2,0.2l0.5,0.6c-0.2,0-0.2,0.2-0.2,0.4c0.1,0.2,0.4,0.2,0.5,0.2c0-0.2,0,1.4,0.6,1
	c-0.4,0.6-0.4,1.5-0.4,2.4l0.5-0.4c-0.4,0.9,0.5,0.7,0.5,1.7l-0.5-0.2c0.4,0.9,0.5,2.4,0.6,3.2l0.6-0.7c-0.4,0.4-0.5,0.7-0.5,1.2
	c0.9,0,2.4,1.2,3,0c1.1,0.1,2,0.5,3,0.1c0.7,0.7,1.6,0,2.4,0.7c0.7-0.4,2.1,0.4,2.6-0.7c0,0.2,0.2,0.4,0.4,0.6
	c1.1-0.7,1.5-0.6,2.7-0.7v-0.2c0.4,0.4,1.5,0.6,2.1,0c-0.1,0.2,0.1,0.4,0.2,0.5c0.6,0.1,1.2,0,2-0.2c0.2,0.4,1.9,0.4,2.5,0.5
	c-0.1,0.2,0.1,0.4,0.2,0.5l1.1-0.2c0.1,1.5,0.7-0.4,1.5,0.4c0.5,0.4,1.1,0.1,1.6-0.2c0.9,0.6,1.2-0.6,2.2-0.6
	c1.1-0.4,1.9,0.2,2.8,0.5c1.2,1.2-0.6,3.1,0.4,4.6l-0.1-0.1c-0.4,1-0.5,1.5-0.6,2.5c1.2,0.4-0.2,1,0.2,1.4c-0.5,0.2-0.4,1.2-0.4,1.6
	c0.1,2.2-2.1,4.2-0.4,6.7c-0.7,1.6,0,3.2-0.6,5.1c1.4,1.2-0.9,2.4,0.2,3.8c-0.5,1.1-0.5,3.5-2.4,3.6c0.4,1-0.4,1.4-1.2,1.7
	c-1.5-0.2-3.8-0.6-5,0.7c-0.7,0.1-1.4,0.2-2.1,0.7l-0.6-0.2c-0.2,1.2-2.8,0.7-3.6,0.9c-0.5,0-1-0.4-1.7-0.1l-0.5,0.7
	c-0.2-0.6-0.7-0.1-1,0c-0.9-0.4-2,0-2.4,0.2c-0.9-0.7-2,0.1-2.8,0c0.1,1.4-1.2-0.1-2,0.1c-1,0.6-2.1-0.1-2.6,1.2l-1-0.9l-0.2,0.2
	l-0.2-0.4c-0.4,0.5-1.2,0.1-1.1,0.9c0.1-0.2-1-0.6-1.5,0c0.4,0.2,0.5,0.7,0.9,1c-0.7-0.5-0.9,0.4-1.1,0.7c-0.4,1.4,0,2.7-0.5,3.6
	c0,0.5-0.6,1.6,0.4,1.5c-0.6,0.9-0.7,2.5-1.1,2.7c0.6,0.9-0.6,1,0,2.2c0.4,1.4-1.5,1.6-0.7,3.1c0.1-0.1,0.1-0.2,0.4-0.1
	c0.2,0.5-1.5,0.9-0.5,1.6c0.1,1-1.4,2.5,0,3.3c-0.9,0.7-0.2,1.5-0.5,2.2h0.4c-0.1,0.5-1.2,1.9-0.1,2.2c0,0.9-0.7,1-0.5,1.7l-0.1-0.2
	c-0.5,0.4,0.1,0.6,0.1,1h0.1v0.2l-0.4-0.2c-0.4,1.5,0.6,2.7-0.6,4.5c0,0.4,0.9,1.6-0.4,1.6l0.4,0.2l-0.1-0.1c-0.5,0.4,0.2,0.6,0.1,1
	l-0.6,0.2c0.4,1.4,0,2-0.6,3.1c0.4,1,0.5,2.5,0.6,3.3h-0.5c0.2,1.4,0.1,2.5,0.7,3c0.1,0.2-0.7,0.1-0.4,0.7c0,0.5,0.4,0.2,0.4,0.6
	c-0.5,0-0.7,1.1-0.2,1.9c0.1,0.1,0.5,0.1,0.6,0.4l-0.5,0.6c0,0.4,0-0.1-0.1-0.1c-0.7,0.7,0.9,1,0.6,1.7l-0.5-0.1
	c-0.1,0.9-0.1,2,0.4,2.8c-0.7,0.2,0,0.6-0.2,1.1l0.6,0.4c-0.2,0.2-0.9,0.5-0.6,1h0.4c-0.5,1.1,0.2,1.7-0.1,3h0.4
	c-0.5,1.2-0.2,2.4-0.1,3.6h0.1c0,0.9,0,0.9,0.1,1.7l-0.1-0.1c-0.4,0.2,0,0.7,0.1,0.7H145c-0.5,2.1,0,6.4-1,8
	c0.7,2.7,0.4,4.6-0.6,7.3c0.5,0.9,0.1,2.5,0.9,3.8l-0.7,0.9l0.4,0.4h-0.2c-0.6,1.6-0.1,4.1-0.1,6.1l-0.7,0.7l0.6,0.6
	c-0.4,0.1,0,0.9,0,0.7l-0.7,0.7c0.7,0-0.2,0.4,0.2,0.7c-0.7,0-0.1,0.7-0.2,1l0.5,0.1c-0.7,1.5-0.5,3.2-0.7,4.8
	c1.4,0.7-1,1.7,0.2,2.7c-0.9,0.6,0,1.5-0.2,2.1v0.9c-1,0.6,0.4,0.4-0.5,1.4c0.5,1.1,0.2,1.9,0,2.7l0.5,0.4l-0.2-0.1
	c-0.5,0.4-0.1,1.1,0,0.9H142c0.4,1.1-0.4,1.7,0.7,2.7c-0.7,0.1,0.2,0.6-0.4,0.9l0.2,0.4l0.1-0.2l-0.1,0.4c0.1-0.2-0.2-0.4-0.2-0.5
	c-1.2,0.5,0.2,1.4-0.2,2.2c0.2,0.4-0.4,0.7,0,1.1h0.5c0,0.9-0.5,2-0.1,3c-1,0.4,0.9,1.1-0.1,1.7c0.6,1-0.9,1.7,0.7,2.2l-0.2-0.1
	l-0.7,0.7l0.6,0.7c-0.1-0.1-0.2-0.4-0.4-0.4c-0.4,0.5-0.1,1.1,0.2,1.5h0.2l-0.2,0.5c-0.1-0.1-0.1-0.2-0.2-0.1c0.2,1,0,2.1,0.1,3.1
	c0.1,0.1,0.7-0.1,0.6,0.5c-0.2-0.1-0.5-0.1-0.6-0.4c-0.6,1.6,1,2.2-0.6,3.1c0.9,2.1-0.5,3.7,0,5.6l0.2,2.1H142c-0.1,0.5,0,1-0.2,1.7
	c0.2,0.4,0.5-0.1,0.6-0.1c0,0.4,0.5,0.7,0.1,1.1l-0.4-0.5c-0.5,0.1-0.6,0.7-0.5,1.2c0.1,0.2,0.2,0.5,0.5,0.5l0.4-0.2
	c-0.1,0.2-0.6,0.6-0.1,1h-0.7c-0.4,1.6,0.4,5.2,0.1,5.9c-0.5,0.4-0.5,1.6-0.6,2.2c0.4,0.5,0,1.1-0.2,1.5l0.5,1.5
	c-0.1,0.7-1.2,2.4-0.4,3.5c-0.4,1-1,1.6-0.7,2.6c-0.5,0.7-1.1,1.5-0.6,2.2c-1-0.4-0.6,1.1-0.9,1.6c-0.1,0.2,0.1,0.4,0.2,0.5
	l-0.7,0.6l0.6,0.7c-0.1,0-0.2-0.1-0.2-0.1c-0.5,2-0.1,1.5-1.1,3.7c1.1,0.9-0.6,1.7-0.6,2.2c0.1,0.4-0.1,1,0.4,1.5
	c0.4,0.2-0.9-0.7-1.1,0.2c0.7,0.7-0.2,1.7-0.4,2.7c-0.1,0-0.4-0.1-0.5,0.1l0.5,0.7l-0.4-0.4c-0.7,0.9-1,2.4-0.9,3.5
	c-0.4,0-0.2,0.5-0.2,0.7c-0.4-0.4-1,0.1-1.2,0.6c1,1.2-1.5,0.6-0.7,1.9c-0.5,1.5-1.1,2.8-0.9,4.1l-0.1-0.1c-0.1,0.6-0.5,1.1,0.1,1.7
	c-1.2-0.1,0.2,1-0.9,1.2c0,0.4,0.2,0.7,0.6,1c-1.2,0.7-0.1,3.3-2.2,3.8l-1.7,0.7l-0.1-0.4c-0.4,1.1-2.8,0.5-2.6,2.2
	c-0.5,0.1-0.7,0.6-1.2,0.2c0-0.4,0.1-1-0.5-1c-0.1,0.5-0.9,0.5-1.2,0.9c-1-1.1-1.9,1-2.7-0.4c-0.1-1.1-0.2-2.5-1.4-2.2
	c0.1,0.7-2.1,2.1-0.7,2.7c-0.7,0.1-1.2,1.2-2.2,0.9c-0.2-0.2-0.4-0.5-0.7-0.9l-0.7,0.7c0.4,0.6-0.7,1.1-1,1.6
	c-1.4-0.1-0.5-2.7-2-2.4c-1.6-0.2-0.4,2.4-2.2,1.7c-1.2-1.2-0.9-2.7-2.2-3.3l-0.1,0.1l-0.9-1c-0.7-0.4-2,0.4-2.2-1
	c-0.4-0.5-0.4-1.7-0.4-2.7c-1.6-1-1.6-4.3-2.7-5.8c-1.1-2.2-1.1-3.6-2.1-6.1c-0.5-1.2,0.2-3.2-0.7-4.8c-0.1-0.5-0.2-2.2-0.7-3
	c0.5-0.5-0.4-1.5,0-1.9c-0.2,0-0.4-0.2-0.5-0.4c0.2,0,0.2-0.5,0.6-0.7c0.1-0.4-0.6-1.2-0.1-1.7c-0.7-1.7,0-4.8,0-6.4
	c-0.4-0.5,0.1-2.2,0-3.1c0.5-5.8,1.4-10.6,1.5-16.3c0.4-1.5,0.4-4.3,0.6-5.9c0.2-2.5,0.6-4.1,0.7-6.7c0.7-0.9,0.7-1.7,0.5-2.7
	l-0.2,0.4c0.6-0.6,0.6-2.8,1.4-4.2c0.6-1.1-0.7-2.4,0.4-3.2c-0.2-2.5,1.2-4.1,1.1-6.6h0.1c-0.7-0.5,0.7-1.6,0.2-2.5l0.5-0.5
	c-0.2-0.7,0.5-2.2,0.5-3.1c1.1-0.7-0.6-2.1,0.9-2.8c0.1-1.6,0.2-3.2,0.6-4.7h-0.4c-0.5-1.1,1.7-1.4,0.4-2.2c0.2-0.2,0.5-0.2,0.7-0.5
	c0.2-0.6-0.7-1.6,0.2-2l-0.5-0.5c0.2,0,0.4-0.2,0.5-0.4c-1-1.5,1.2-2.5,0.1-3.8c0.5-0.6-0.4-1.1,0.4-1.5h-0.4
	c1.4-1.7-0.2-3.5,1.2-5.3c-0.9-0.9,0.7-1.9-0.1-2.7c0.4-1.5,0.4-5,0.7-7.1h0.1c-0.4-1.6,1-4.5,0.6-6.7c0.9-0.6,0.6-2.8,0.9-3.7
	c-0.1-0.6,0-0.9,0.2-1.5c-0.9-1.1,1.1-2.5,0-3.5c1.2-1.4,0-3.3,1.1-5c-0.9-0.5,0.2-1.2-0.5-1.7l-0.1,0.1l0.6-0.6l-0.4-0.2
	c0,0.7-0.2-0.9,0-1.4c0.6-1.5,0-1.7,0.5-3.2c-0.4-0.9,0.1-1.9,0-2.4c0.2,0,0.2-0.2,0.4-0.4c0.1-0.2-0.1-0.4-0.2-0.6l0.1,0.2
	c0.2-1-0.1-1.9,0-2.8c0.6-0.9-0.6-2,0.5-3c-0.6-2,0.5-1.9-0.1-3.6l0.1,0.1c0.5-0.7-0.5-2.6,0.7-3.2c0.5-3,0-5.3,1.1-8
	c-0.9-0.5,0.4-0.6,0.2-1.2c-0.7-2.5,0.5-5,0.1-7.2c0.6-1-0.6-2.1,0.4-3.2l-0.2-0.9h0.1c0.6-0.7-0.5-2.8,0.4-3v-0.4h0.2
	c0.5-0.9-0.5-2.1,0.2-2.5h-0.4c0.9-0.1,0-0.7,0.7-1.1l-0.5-0.4c0.2-0.2,0.5-0.9,0.1-1.1c1,0,0.2-0.9,0.5-1.2l-0.5-0.9
	c-0.5,0.6-1.9,0.5-2.6,1.2c-0.9,0-1.6,0-2.4,0.4c-1.1,1-4-0.7-5,1.1c-0.2,0-0.2-0.2-0.5-0.4c-0.1,0.6-1.2,0-1.1,0.9
	c-0.6-0.6-0.7,0.9-1.2-0.1c-1.5,0.7-1.1,0.9-2.8,1.2c0.2,1.5-1.5,0.6-2,1.1c-1.1,0.2-2.2,0.9-3.3,0.5c-0.6,0.4-1.6-0.2-2.1,0.6
	c-1.7-2-4.8,1.2-5.7-1.5c-0.2-0.1-0.4-0.5-0.6-0.5v0.6c-1.1-2.2-0.5-4.2-2.6-6.1c0.4-0.7,0.2-1.6,0-2.6l-0.4-0.4
	c-0.2-2.2-0.1-4-0.9-5.8c0-0.7,0.2-1.6,1-2c1.1-1.4,3.1-2.4,4.3-4c0.9,0.5,0.9-1,1.7-0.9c1-1.5,2.5-2.1,3.5-3.6
	c1.4-0.4,2.5-1,3.6-1.7c2.1-0.9,4.5-1.9,6.3-2.8v0.1c0.4,0.4,1.1,0.1,1.2-0.5c0.5-0.1,1.6,0,1.9-0.9l-0.2,0.4
	c0.1,0.2,0.5,0.2,0.7,0.1c0.6-0.5,0-0.6,0.7-0.9l-0.1,0.1c0.5,0.5,0.9-0.4,1.5-0.1v-1.2c-0.5-0.1,0.7,0.4,0,0.6l0.9,0.6l0.2-0.5
	c0.2,0.4,1.4-0.7,1.9-0.1c1-0.7,2.6-1,3.7-1.5l-0.4-0.4c1.1,1.1,2.5-0.7,3.5-0.5c0.1-0.2,0.4-0.5,0.2-0.7c0.5-0.2,0.5,0.2,0.6,0.4
	c0.2-0.4,1.5-0.7,0.6-1.4l0.2,0.4c0.7-0.5,0.1-0.5,0.7-1.1h-0.4l0.6-0.2c-0.9-1.2,0.2-1.2,0.1-2.4c0.2,0,0.5,0,0.7-0.4
	c0.1-0.5-0.6-0.5-0.7-0.7c1-0.7-0.2-2.5,1-2.7c0-1.1,0.1-1.9-0.1-2.6c0.7-1.1,0.4-3,1-4l-0.4-0.1c1.4-2.2,0.7-5.1,1.7-7.3
	c-0.4-0.5-0.1-1.1,0-1.5c-0.5-0.1-0.4-1.5-0.1-2l0.2-0.2c-0.9-0.5,0.9-0.2,0.4-1.1v-2.6c0,0,0.1,0.1,0.2,0.1c-0.4-2.4,1-3.5,0.9-5.7
	c0.1-2.6,0.7-5.1,2.5-7.6c0.5-1.5,0.6-3.1,1.6-4.6l0.1-1.6l0.2,0.2c0.6-1.9,2-3.5,2.7-5.6c1-0.4,1.1-1.7,1.6-2.6
	c-0.4-0.6,0.2-1.1,0.4-1.6c1.6,0,1.6-3.2,3.2-1.2H137.9z"/>
<path d="M331.6,82.8l0.2-0.4c-0.2,0-0.2,1.2-1,1.1c-1.1,0.5-1-1.5-2-0.6c-0.5-0.4-1.6-1.4-0.5-1.7C329.5,81.3,330.9,81.7,331.6,82.8
	z"/>
<path d="M339.7,82.8c0.5,0,1,0.4,1.2,0.9l0.4-0.5c0.1,0.4,0.5,0.7,0.7,0.7c0.9,0,1,0,1.4,0.5c0.2,0.1,0.4,0.5,0.6,0.5
	c0.5-0.6,1.4,1.1,2,0.1c1.6,0,1,3.1,2.4,1.5c0.4,0.6,1.1,0,1.4,0.9c-0.1,1,0.6,1,1,1.7c0.6-0.6,0.5,1.9,1.7,0.7c0,0.5,0.7,0,1.1-0.1
	c0.9,0.2,0.7,1.4,1.7,0.7c0,1,1.9,1.4,2.2,2.4c0.7-0.5,1.5,1.5,1.9,0.4l0.2,0.4l0.5-0.4c0.4,1.2,4,2.4,4.5,5.1c1,0.7,2.1,0.5,2.4,2
	c-1.9,1.2-3.1-1.6-4.8-1.6c-2-0.1-1.5-3.3-3.1-2.6c-1.2,0.1-1-1-2.1-0.6c-0.1-0.6-0.7-0.5-1.5-0.7l-0.4,0.2
	c-0.5-2.1-2.6-0.4-3.3-2.2c-0.9,1.1-1.9-0.7-3-0.1c-2.7-0.4-3.8-3.8-5.6-4.6c0.2-1.5-2.4-0.7-3.3-1.9c-0.1,0.5-0.6,1.1-1,1.5
	c-1.2-0.7-3.8-0.7-4.2-2.6c-0.7-1-1.5-1-1.7-2.4c0-1,1.1-0.6,1.6-1c0.6,0.4,1.4,0.1,2-0.2C337.2,82.6,339,81.5,339.7,82.8z"/>
<path d="M372,93.3c0.5,0.2,1.7,0.6,1,1.5l-0.7,0.2c0-0.1-0.1-0.1-0.1-0.2c-0.7,1.2,1.6,1,0.4,2.2c-0.7,0.7-1.5-0.9-2.5-0.1l-2.2-2.1
	c0.1-0.6,0.9-0.9,1.4-0.6c0.9,0.5,0.6-2.8,1.7-0.9H372z"/>
<path d="M369.9,102c-0.6,0.1-1.7,0.9-2-0.4c-0.4-0.4-0.6-1.1,0.1-1.4C368.7,100.7,370.3,100.5,369.9,102z"/>
<path d="M376.1,106c-0.5,0.6-1.2,0.1-1.7-0.1c-0.4-0.5-0.6-1.2-0.4-2c0.4,0,0.9-0.2,1.2,0C376.3,104.3,375.5,105.5,376.1,106z"/>
<path d="M383.5,108.6c0.1,0.2-0.1,0.5-0.2,0.7c-1.1-0.5-1.7-0.7-2.8-0.7c-1.1-0.5-0.5-1.7-1-2.5c0.2-0.6,1.2-0.6,1.7-1
	C382.2,106,382.4,107.8,383.5,108.6z"/>
<path d="M390.2,109.1c0.1,0.4-0.2,0.5-0.4,0.7c-0.4-0.1-0.7-0.7-0.2-1C390,108.8,390.1,109,390.2,109.1z"/>
<path class="st0" d="M399.6,109c0.1,0.4-0.4,0.5-0.6,0.6c-0.2-0.1-0.5-0.5-0.1-0.7C399,109.1,399.4,109,399.6,109z"/>
<path class="st0" d="M401,111c0.2,0-0.5,0.9-1.1,0.6h-0.6l0.2-0.6l-0.7,0.1c0-0.6-0.5,0.2-0.5-0.2l0.2-0.4l-0.1,0.1
	c0.7,0.6,0.6-0.5,1.2,0.4c0-0.4,0.4-0.7-0.1-1.1C400.1,109.8,400.5,111.5,401,111z"/>
<path class="st0" d="M401.5,112c0,0.5-0.4-0.1-0.5-0.1l0.2-0.2L401.5,112z"/>
<path d="M394.7,115.1c0.2,0.6-0.4,1.5-1,1.5c-1.5-0.9-2.4-1.9-3-3.5c0.2-1.5,1.6,0.2,2.2-0.4L394.7,115.1z"/>
<polygon points="408.4,123 408,123.2 407.9,122.8 408.1,123.1 "/>
<path d="M408,128.3c-0.2,0.5-0.6,0-0.9-0.2l0.5-0.6C408,127.5,408.1,128,408,128.3z"/>
<polygon class="st0" points="416.2,128.3 415.9,127.6 416.3,127.6 "/>
<path class="st0" d="M424.1,129.1h0.4l-0.2,0.6c0-0.9-1.2,0.1-1.6-0.9l0.7-0.6C424.1,128.4,423.4,128.7,424.1,129.1z"/>
<path class="st0" d="M418.5,129.7c0.1,0.2,0,0.6,0.2,0.9l-0.4-0.2l-0.1,0.1c-0.5-0.2-0.7-0.7-1-1.4
	C418.5,128.6,417.4,130.3,418.5,129.7z"/>
<path class="st0" d="M484.2,166.9c-0.2,0.2-0.1,0.7-0.2,1.1h-0.1l-0.1-1.1H484.2z"/>
<path d="M181.1,175.2c1.7-1,3.2,1.4,4.3,1c1,0.5,1.5,2.2,1.9,3.1c-0.1,1.4,1.9,3.2,0.5,4.5l0.6,2.2l-0.6,0.1c1.1,0.2,0.2,2,0.7,2.8
	c-0.7,0.2,0.2,0.9,0,1.1c-0.1,2.2,1.2,4.6,1,6.7l0.5,0.2c-0.5,0.7-0.4,2.2-0.1,3.1c0.1-0.1,0.1,0,0.2,0.1l-0.2,0.2
	c0.2,0.6,1.5,1.4,1.7,0.2c0.2,0.6,0.7,0.5,1.4,0.7c0.4-1,0.9,0.2,1.7-0.4c2.8,0.1,5.7,0,8.7-0.2l0.2,0.2c0.1-0.2,0.6-0.4,0.5-0.7
	c0.1,0.4,0.2,0.7,0.7,0.6c0.2-1,1.1,0.7,1.7-0.2l-0.1,0.1c0.4,0.2,0.6,0.2,0.9-0.1c0.1,0.7,1,0.2,1.5,0.4c0.5-0.6,1.6-0.4,2.7-0.4
	c0,0.1,0.2,0.5,0.6,0.4h0.7v-0.2c0.6,0.1,1.7,0.2,2.4-0.1c-0.1,0.1,0.1,0.2,0.2,0.4c1.7-0.5,3.5,0.7,5.2-0.1c1,1,2.8,0.5,3.8,0.7
	c1.7-0.5,4.7,1,6.8,0.5l0.4,0.2c0.7-0.1,0-0.6,0.9-0.5h-0.2c0.2,1.2,1.9,0.4,2.6,1.1c0.7-0.2,1.6-0.4,2,0.2l0.4,0.5l0.5-0.5
	c-0.1,0.7,1-0.1,1.4,0.1c1.1-0.1,2.4,1.1,3.7,0.6c1.4,0.5,3.6,0.6,5.6,1.6c1.4-0.7,1.9,1.6,2.8,0.6c2.4,1.1,5.6,1.1,7.6,3.5
	c0.4,1.1,0,2.2,0.2,3.2c-0.6,0-1,0.4-0.7,1.1c-1.4-0.1-2.5,0.5-3.5,1.1c1,1.1-0.6,0.2-0.2,1.5c-1.2,0-1.5,0-2.2,0.6
	c0.7,1.1,0.5,2.6,0.7,3.8c0,0.1,0,0.4-0.2,0.5c0.9,0.2,0.4,0.6,1.2,0.4c1.2,0.6-1.7,2.2-0.2,3c-0.5,0.9,0.1,2,0.5,2.8
	c1,0,0-1.1,1-1.1l-0.6-0.7c1.9,0.4,0.5-3.2,2.4-1.1c0,0.4,0.1,0.7-0.1,1.1l0.4,0.4l0.2-0.1c0.1,0.6-0.2,2-0.4,3h0.5
	c-0.1,1.2-0.4,2.8-0.5,4.3c0.7,0.7,0.6,3.2,0.1,4.6c0.5,1,0.4,2,0.6,2.5c-1,1.4,0.5,3.2-0.4,4.3c-0.4,0.9,0.1,1.9-0.5,3
	c0.5,0.7-0.4,1.7,0.1,2.6c-1.7,1.6,1.5,2.1-0.2,3.5c0.5,1,0.2,1.5,0.7,2.5c0.1,1.2,0.1,1.2-0.1,2.4c0.4,1.5-0.2,2.5,0.9,3.8
	c0.2,2-0.9,2.4-0.1,3.7l0.4,0.1c-0.2,0.2-0.9,0.7-0.4,1.2c0.1,0.2,0.2,1.1,0.2,1.5c0.6,0.9-1.4,1.5,0.1,2.2
	c-0.1,0.1-0.2,0.4-0.2,0.6h0.6c-0.9-0.1-0.9,0.5-0.6,1.1l-0.1-0.1c-0.1,0.4,0.7,1.5-0.2,1.7c1.4,0.4,0.1,1.6,0,2
	c0.5,2.2-0.7,5-0.1,6.8c0.1,1.1-0.9,3.2,0.1,4.8c-0.7,0.1-0.1,1.1-0.5,1.7l0.4,0.1l-0.6,0.4c0.7,0.4-0.6,2.2,1,3.1
	c-0.4-0.1-0.5,0.2-0.7,0.4l0.2,0.7c-0.1-0.1-0.2-0.1-0.5-0.1c0.6,1.1-1,2.4-0.2,3.1c-0.6,0.7,0,1.5-0.6,2.2c0,2.1-0.5,3.2-0.4,4.7
	c-0.5,0.1-0.5,1-0.4,1.5c0.9,0.5-0.2,0.7-0.4,1.1c0.5,1.7-1.1,3.2-0.4,4.8h-0.1l0.1,0.9v-0.1c-0.6,0.4-0.5,2.4-0.6,3.3
	c0.5,0.4,0,1.6-0.1,1.9c0.2,0.9-0.4,1-0.2,1.9l-0.1-0.1c-0.2,0.7-0.2,2,0.5,2.1c-0.4-0.1-0.7-0.5-1.1,0.1c-0.1,0.5,0.1,1.5,0.6,1.2
	l-0.7,0.1c-0.4,1.2,0.1,2.4-1.1,3.2c0.5,0.6,0.1,1,0.5,1.6c-1.5,1.5-0.7,4.7-2,6.6l0.5,1.5c-0.9,1.2-0.7,1.7-0.9,2.8
	c0,0-0.9,0.6-0.4,1c0.6,0.2,0.1,0.9-0.1,1.1c0.1,1.4-0.1,2.2-0.5,3.6c0,0-0.1,0.1-0.1,0.2c0.2,0.4,0.5-0.1,0.6-0.1
	c-0.1,0.2,0.2,0.2,0.2,0.4c0.4,0-0.4,0.1-0.4-0.1c-1.1,1.6,0.4,2.8-0.5,4.6l0.6,0.4l-0.1,0.4v-0.1c-1.1,0.4,0,2.6-0.9,3.6
	c0.9,0.9-0.9,0.9,0,2h-0.4c0.2,1,0.2,2.6,0,3.3c-0.5,0.5-0.2,1.9-0.7,2.6c-0.2,1.2,0.5,1.1,0.4,2.5h-0.2v1c-0.1,0-0.2,0.2-0.4,0.4
	c-0.4,0.5,0.6,1.1-0.4,1.4c0.2,0,0.2,0.2,0.2,0.4c-0.1,0-0.2-0.1-0.4-0.1c0.5,0.9-0.1,1.2-0.1,2.1h0.2c0.4,2.8-1.7,2.6-1,5.9
	c0,1-1.1,1.7-0.2,2.6c0.1,1.2-1,1.9-0.2,3c-0.9-0.1-0.2,1-0.9,1.2l0.5,0.9h-0.4c-0.6,1.5,0.6,2.7-0.2,4.3c0.1,0.6,0.4,1.6,0.2,2.7
	c-0.7,0.6,0.4,0.5-0.4,1.1l0.4,0.9l-0.2-0.2c-0.2,0.7-0.1,1.6-0.1,2.4l-0.5,0.4c0.1,0.5,0.2,1.6-0.4,2.2c0.1,0.4-0.9,1.9-0.2,2.2
	c-0.2,1-1.5,2.2-0.9,3.5c-0.7,1-0.7,3-1.7,4c0.5,0.7-0.5,0.9-0.5,1.5l0.4,0.2c-1.4-0.2-1,1.2-1.2,2.2l-0.5-0.5
	c-0.7,0.6,0.4,0.9,0,1.4c0.4-0.1,0.5,0.1,0.6,0.4l-0.6,0.1c0.1-0.2-0.1-0.5-0.2-0.6c-1.6,0.6-0.6,2.1-2.1,2.7
	c-0.5,1.1-2.2,2.1-1.6,3.7l-0.7-0.6c0.2,1.4-1.4,0.6-1.6,1.9v-0.1l-0.9,0.5v-0.5c-0.5,0.5-1.5,0.4-2.2,0.5c-0.2,0.5,0.1,1.6-0.6,2.1
	c0.2-0.4-0.9,0.4-1.2,0.7c0.1,0.7-1.1,0.4-1.6,0.9c-0.9-0.1-1.1,1.2-2.4,1.1c-0.7,0.6-1.1-2-2.4-0.9h-0.9v-0.2l-1,0.2
	c-0.9-1.1,0.9-3.3-1-3.7c-1-0.2-2.2,1.2-2.8-0.1c-0.4,0.5-0.4,1.5-1.4,0.9c-1.4-0.2-0.9-1.2-2-1.1c-0.6-0.5-1.1-0.4-1.9-0.2
	c-0.4,0.5,0.7,1,0.1,1.5c-1.4,0.6-0.5-2-2.2-1.5c-0.4-0.6,0.4-1.4,1-1.5c0.7,0.2,1.1-0.4,1.6-0.9l-0.9-0.9c-0.7,0.7-1.5-1-1.7,0.1
	c-0.4,0.1-1,0.5-1.5,0.1c-0.1-0.6,0.2-0.7,0.7-1.2c0-1.1-2.2-0.6-1-1.9l-0.2-0.7c-1.4-0.4-1.5,2.4-2.8,0.7c-0.1,0.2-0.4,0.1-0.5,0.1
	v-0.1c-0.5,0.1-0.1,0.9-0.7,1.2c0.4,0.9,0.4,0.2,0.4,1.1c-1.1,0-1,1.6-2.5,1.2c-1-1.4-2-0.2-3.1,0c-0.2-0.9-2.1-0.7-3.1-1.4
	l-0.7,0.7c-0.1-0.2-0.4-0.5-0.6-0.7c-0.9,0.6-1.1-1.1-1.9-0.7c-3.3,0-5.2,2.1-7.9,0.9c0-0.6,0.7-1.1,1.2-1.2l2.2-1.7
	c-0.1-0.1-0.4-0.1-0.5-0.1c1.1-1.7-3.1-2.7-0.7-4.7h0.1c0-0.7,0-1.9,0.6-2.4c0.2,0,0.4-0.2,0.6-0.4c0-0.7,1-1.7,0.9-2.4l1-0.9
	c0.4-0.5,0.5-2.2,1.7-2c0.2-0.6,0.9-0.7,1-1.6c2.2-0.9,3.8-2.7,5.1-4.7c0.2-0.5,1-0.2,1.1-1c-0.2-0.1-0.1-0.5-0.1-0.7l0.1,0.2
	c0.9-0.6,0.5-1.5,1.2-2.1c0.9-1.1,1.2-2.6,2.1-4.1c0-0.6,0.4-1.4,0.9-1.9c1,0.1,2.7-1,3.6,0.2c0.9,0.5,1.4,2.2,1.6,2.7h0.9l-0.2,0.2
	c0.9,0.5,0.9,1.1,2.1,0.9l-0.2-0.4c0.6-0.2,0.2-1.2,1-1.1c0.1-0.6,0.5-1.6,1-2c0.6-0.7,0.5-2,1.2-2.8c0-0.2-0.2-0.5-0.4-0.6
	c1.1-1.2,0.4-1.7,1.6-3.5c0-2.8,1.9-5.6,1.9-7.8c1.1-0.9,0.2-1.7,0.7-3c0.6-1.9,1.1-3.5,0.9-5.2c0.1-0.6,0.2,0,0.6,0
	c-0.5-0.5,1-2-0.1-2.4c0.9,0,0.4-0.5,0.7-1.1c0-0.5-0.4-0.9,0.2-1.1c-0.4-1.5,1.2-2.5,0.2-3.6c0.2,0,0.4,0,0.5-0.1
	c0.1-0.4-0.1-0.5-0.2-0.6c1-1.4,0.4-2.7,1-4.2c0.2-1,0.2-2,0-2.8c-0.1-0.9,0.5-0.4,0.7-1.1v-2h-0.1c-0.2,0.2,0.7-0.6,0-0.9
	c-0.1-1.2,1.7-2.5,0.4-3.5c0.7-0.5,0.5-1.6,1-2.6c-0.5-0.9,0.5-2.7,0.4-4.3c0.4-2.2,0.6-3.7,0.9-6.1h0.4c-0.5-1,0.5-2.5,0-3.3
	c0.6,0.1,0.5-0.7,0.6-1c-0.4-1-0.1-1-0.4-1.7h0.7c-0.2-1.2,0.6-2.5-0.1-3.5c0-1.2,0.9-2.4,0.5-4.3c0.7-0.5,0.4-1.4,0.2-2.2l-0.1,0.1
	c-0.6-1.2,0-0.4,0.2-1.2c-0.4-1.4,0.7-3.7,0-5.2c0.2-1.7,0.2-3,0.5-4.5c-0.1-2.5,0.1-6.1-0.1-8.4c0.1-0.6-0.4-1.6,0.2-1.9
	c-0.6-1.5,0.5-2,0-3.5c0.1-0.7-0.2-3,0-4.1c0.7-2-0.4-4.6,0.5-6.7c-0.5-1.4,0.2-2.2,0-3.3h0.2c-0.6-2.2,0.5-5,0.1-7.1
	c0.7-1.1,0.2-2.8,0.6-4.1l-0.5-0.2c1.1-1.1-0.2-3,0.6-4.3c0.2-0.4,0.1-0.9,0.1-1.4l-0.5-0.4c0.7-0.6,0.7-2.4,1.1-3.5
	c0-0.2-0.2-0.1-0.4-0.1l0.5-0.7c-1-1.5,1-2,0.4-3.6c0.1-1.7,0.4-2,0.6-3.8h-0.4l0.5-0.4c-0.5-0.4,1.1-1,0.1-1.6
	c-0.2-0.5,1.1-0.9,0.5-1.6c0.9-0.5,0.4-1.6,0.5-2.5c0,0.2,1-0.5,0.6-0.6c-0.4-0.5,0.9-0.6,0-1.1c1.1-0.6,1-2.1,0.9-3h-0.1
	c-0.4-0.2,0.4,0.4,0.5,0c-0.4-0.7-0.7-1.1-0.7-1.7c-0.2-0.2,0.1,0.5,0.4,0.6c0.2-0.1,0.5-0.6,0.1-0.7c-0.2-0.5-0.9-0.2-1.4-0.4
	l-0.4,0.4l0.1,0.1c-0.1-0.7-1.2,0.4-1.9,0v0.1c-0.1,0.1-1.2-0.1-1.6,0.1v-0.1c-1.2-0.7-3.1,0.4-4.3-0.6c-0.5,0.9-0.9-0.1-1.4-0.2
	c-0.2,0.1-0.1,0.2-0.1,0.5c-0.7-1-1.9,0.7-2.2-0.6l-0.5,0.4c-0.4,0.1-0.7-1-1.4-0.2c-0.7,0.1-1.6-0.5-2.5,0.1c0.1-1-0.6-0.2-1-0.7
	c-0.9,0.1-1.7,0-2.7-0.4c-0.5-0.2-2.2,0.4-2.8,0c-1.1-0.5-3.3,0.2-5.1,0v0.2c-1.1-0.7-2.6,0.1-3.7-0.1c-1.1-0.2-2.5,1.1-3.5,0.4
	c-1,1-1.7-0.6-2.6,0.4l0.1-0.4c-0.7,0.5-1.9-0.1-2.6-0.4l-0.4,0.6c-0.1-0.4-0.7,0-0.9-0.5c-0.1,0.1-0.4,0.4-0.2,0.6
	c-0.4-0.5-0.7,0.1-0.9,0c-0.2,0.6,0.4,0.1,0.4,0.4c-0.4,0.1-0.5,1.4-1,2l0.1,1h0.2v0.4c-0.5,0-0.7-0.2-0.9,0.4
	c0.6,1-0.5,1.7-0.1,2.2c0.1,1.6-1.5,1.7-0.7,2.8c0,0.1,0,0.4-0.1,0.5c0.4,0-0.7-0.1-0.6,0.4c0.7,1.1-1.1,1.2-0.5,2.5
	c1.1,0.5-1.1,0.6,0,1.2c-0.1,1-1.5,1-0.9,2.1c-1.2,1.7-0.7,3.8-0.9,5.7c0.1,0.1,0.2,0.4,0.5,0.2l0.2-0.2c-0.6,0-1.2,1-1.2,1.5
	c-0.4,0.6,0.1,1.1,0.2,1.9l0.4-0.2c-0.5,0.5-0.9,1.9,0,2.1c-0.1-0.1-0.5,0.1-0.6-0.1l-0.1,0.1c1,0.5-0.1,0.6,0,1.5
	c0.7,0.6,0.5,1.6,0.5,2.4h-0.1c0.4,0.4-0.6,1.4,0.5,1.2v0.2h-0.5c0.5,1.1-0.1,2.5,0.7,3c-0.7,2.4,0,4.8-0.2,7.4
	c0.9-0.6,0.2,0.7,0.6,1c-0.2,1-0.1,2.2-0.1,3.3c0.6,0.6,0.1,1.5,0.2,2.2c0.4,1.2,0.5,2.2,0.6,3.7c-0.1-0.1-0.7,1.1-0.2,1.5h0.2
	c0.1,0.2-0.1,0.2-0.2,0.4c1.6,1.4-1.5,2.7,0.4,3.7c-0.1,1.6,0,2.6,0.5,4.2l-0.5,0.1c0.6,0.6-0.1,1.2,0.7,1.5c-0.6,0.9-0.1,2,0.2,2.8
	l0.4,0.1h-0.2c0.4,1-0.5,1.5,0.6,2.4c-0.4,0.5-0.6,1.2-0.4,2c0.4,0.2,0.6,0.7,0.4,1c-0.1,0.2,0,0.2,0.1,0.4h0.2
	c-0.7,0.7,0.1,1.7,0.5,2.8h-0.1c0.5,1.2-0.2,2.8,0.9,4.1c-0.5,0.9,0.9,2,0.4,2.8h0.2v0.2h-0.2l0.6,1.5c-0.5,0.1-0.1,0.9-0.2,1.2
	l0.6,0.1c-0.9,0.7,0.2,1.6-0.5,2.2c0.5,1.7,0.2,3.8,0.5,5.3l0.2,2.6h0.2c-0.9,1,0,1.6-0.4,2.6c-0.5,0.4,0.4,1.2-0.4,1.5
	c0.4,1.7-0.1,3.2-0.4,5.1c-0.4,1.1-0.1,2.7,0.2,3.8c-0.7,0.2-0.5,2.2-0.9,3.6h0.1v1.1h-0.1c0.4,0-0.1,0-0.1-0.2
	c0.4,2.1-1.5,5.3-0.6,7.8c-0.9,1,0.5,3-0.6,3.7c0.1,0.5-1,1.9-0.1,2.4c-0.1,0.2-0.4,0.5-0.6,0.7c0.6,0.5-0.4,1.2,0.1,2.4v0.6
	c-0.1,0-0.4,0-0.4,0.1c-0.1,0.6,0.4,0.1,0.4,0.5c-0.9,1.2-0.4,3.3-1.1,4.7c0.4,0.6,0.6,0.9,0.2,1.5c-0.4,0.2,0.1,1.1-0.2,1.5
	c0.1,0.6-0.2,0.9-0.5,1.5c-0.4,0.1-0.4,1.1,0,1.6H185c0.1,0.9-0.5,2.4,0.2,2.7c-1.4,0.4-0.2,2.1-1,3.1c0.2,0.5,0.9,1.1,0.2,1.5
	c-0.1,0-0.1,0-0.2-0.1c-0.5,0.9-0.5,1.9,0.1,2.5c-0.7,0.7-0.5,2.5-0.7,3.6l0.4,0.4c-1-0.4-1,1.1-1.2,1.6l0.1,0.1
	c-0.4,0.1-1.5,1.2-1,1.6c-0.9,0.4-1.2,1.4-2.4,1.6c-1.4,1.6-1.2,3.8-3.3,5c-0.4,2.5-2.5-0.6-3.2,1.7c-0.5,0.6-1.4,0.1-1.6-0.2
	l-0.4,0.5l-0.2-0.4c-0.2,0.1-0.1,0.4-0.1,0.5c-0.4,0-0.9-0.1-0.7,0.2v0.4l-0.4-0.4c-0.4,1.1-1.5,0.4-2.2,0.5
	c-0.5-0.2-1.1,0.2-1.5-0.7c-0.4,0-1.4,0.1-1,0.7v0.4c-0.5,1-2.1-0.2-2.8,1c-0.6-0.4-1.2-0.1-1.7-0.2v0.5l-0.2-0.1
	c-0.2,0.6-0.9,0.4-1.2,0.9c-1.4,0.5-1.5-1.1-1.4-2c-0.4,0.1,0.2-0.1,0.2,0.2c0-1-0.4-1.2-0.9-2c-0.5-0.4-1.4,0.1-2.1-0.5
	c-0.5,0.6-1.1,1-1,1.9c-0.6,0.5-1.6,0.7-2.6,0.9l-0.1,0.1c-0.9,0-0.4-1-0.1-1.6c-0.7-1.1-2-1-3-1.7l-0.2,0.4c0-0.1-0.1-0.4,0.1-0.4
	c-0.5-0.2-1.1-0.4-1.5,0.2c-0.9-1-0.9,0.5-1.6,0.5c-1.2-0.5-2-0.4-2.8,0.4l-0.4,0.4l0.4,0.2c-0.4-0.2-0.9-0.7-1.4-0.2l0.1-0.2
	c-1.4-1.2-4.8-2.2-6.8-3.1c0.1-0.4-0.5-1-1.5-1.1c-1.4,0.5-2.2-2.2-3.2-2.5c-0.1-1.4-2.2-0.7-1.5-2.4l0.4-0.4
	c-0.6-1.4,2.4-2.7,2.6-4.7c-0.2-0.5,0.7-1.2,0.5-1.9c1-1.5,1.1-2.6,1.5-4.1l1.1-0.9l-0.1-0.1l0.5-0.6c0-0.9,0.7-1.9,1.1-2.6
	c0-0.5,0.6-1.2-0.1-1.2c1.1,0.1-0.2-1.2,0.9-1.4c-0.5-1.9,0.9-3.6,1.7-4.8c0.4-0.4,1.1-0.2,1.2-1.1c0.6,0.2,2.1-0.4,2.2,0
	c-0.2,0.1-0.1,0.4-0.1,0.6c0.9,0.2,0.7,1.5,1,1.6c-0.2,0-0.2,0.2-0.5,0.4c-0.1,0.4,0.4,0.4,0.5,0.7l0.2-0.4c0.1,0.7,1.2,0.2,1,1.2
	l-0.4,0.2l0.4,0.4c1.2-1.7,0.7-3.6,0.1-5.2c1.1-0.2,0.2-1.7,0.7-2.2c-0.5-0.4-0.1-0.4,0-0.7c0.4-1.1-0.1-2.2,0.4-3.6
	c-0.9-0.5,0.4-2.2-0.2-3.5c0.1,0.2,0.4,0.2,0.5,0c-1-4.2,1.1-5.9,0.4-9.7h0.1c-0.1-2.5,0.9-4.6,0.4-6.7h0.2c0.9-0.7-1.1-1.5,0.1-2.1
	c-0.4-1.1,0.7-2.6,0-3.5c-0.5-0.6,0.7-1.9-0.1-2.2l0.1-0.5c0.4-0.4,0,0.5,0.4,0.6c0.7-1.5-0.1-3.2,0.9-5c0.5-1.1-1-2.2,0.1-3.3
	c-0.1-2-0.2-3.7-0.4-5.8c0.6-0.2-0.1-0.9,0.1-1.5c-1.1-0.5,0.1-1,0-1.6l-0.4-4.2c-1,0,0.4-1.2-0.9-0.9l0.1-1.2
	c1-0.4,0.7-1.9,0.7-2.6c-1-2.1,0.9-1.9-0.4-3.6c0.7-0.7,0.4-2.1,0.9-3l-0.2-1.1l0.1,0.2c0.2-0.7,0.1-1-0.1-1.5
	c0.6-0.7,0-1.9,0.2-2.6c0.9-0.4,0.1-1.6,0.1-2.1c1,0-0.1-1.1,0.5-1.6c-0.2-2.2,1.4-4.2,0.1-5.9c0.9-0.7,0.1-1.5,1-2.1
	c0.1-1.9,0.7-3.1,1-4.7c0.9-1.7,0.1-2.8,1.1-4.7c-0.2-1.1,0.5-2.1,0.7-3l-0.4-0.2c1.6-1.6-0.2-3.3,1.1-5c-0.9-1.1,0.6-2.4,0.7-3.6
	v-1.6H153c1.1-1.1,0.1-3.7,1.2-5c0.1-1,0.2-2.5-0.2-3.5c0,0.2,0.1,0.2,0.2,0.4c1.6-1.6,0.1-4.2,0.9-5.9c-0.9-1.1,1.1-2.1-0.1-3
	c1.1-1.6-0.5-4,0.9-5.3c-0.5-3.7,0.9-7.8,0.7-11c0.4,0.1,0.5-0.4,0.4-0.6v-0.5h-0.5c0.2-0.2,0.1-1.2-0.2-1.6c-2,0.1-2-1.2-3.5-2.4
	c0-1.5,0.1-2.2-0.5-3.7l-0.1,0.1c-0.5,0-0.6-1.9-1.2-2.4c0.6-0.4,0.1-1.2,0-1.7c-0.2-1.2-1.7-2.2-1.6-3.3c0.2-0.2,1.6-0.6,1.4-1.7
	v-0.5c0.7-0.1,0.2-1.4,0.4-1.7c1.6-0.2,1.1-2.5,2.7-2.8c0.6,0.1,1.7,0.4,2.2-0.1c2,0.4,3.1,0,5,0.7c0-0.7,0.6,0.1,0.9-0.4l2.5,0.4
	l-0.1-0.7v0.1c0.1,0.2,0.4,0,0.6-0.1c0-0.1-0.1-0.2-0.1-0.4c0-0.4,0.6,0.2,1-0.4c-0.9-1.6,1.6-1.7,0.7-3.1c0.2,0,0.4-0.4,0.6-0.5
	c-0.1-1.4,0.7-2.2,0.2-3.6c-0.2,0.4,0.7-0.5,0-0.9c0.9,0.5,0.2-0.2,1.1-0.5l-0.2-1.1c0.2-0.1,0.6-0.2,0.5-0.6
	c-0.5-1.5,0.6-2.8,0.9-4c-0.1-1.2,1.2-2,0.6-3.2c0.5,0.6,0.9-0.2,1-0.5c-0.1-1.6,1.4-1.6,1.4-2.8c1.9-0.1,3.2-3.1,5.1-2.8v-0.6
	C178.3,176,180.3,173.8,181.1,175.2z"/>
<path class="st0" d="M485.6,175.7l-0.7,0.2l0.1,0.5l-0.9,0.5l0.2,0.2c0.2,0.1-0.6,0.4-0.7,0.5c0.2-0.4-0.1-0.7-0.5-1.1l0.2,0.1
	c0.2-0.1,0.1-0.5,0.1-0.7l0.4,0.5C484.3,175.9,485,174.6,485.6,175.7z"/>
<path class="st0" d="M479.3,176.6h0.1c0-0.1,0.1,1.5-1,0.9c-0.1-0.5-0.4-0.6-0.5-1.2l1-0.2C479,176.2,479.2,176.5,479.3,176.6z"/>
<path d="M260.8,359.3c-0.1,0.2,0.3,0.3,0.2,0.5c-0.1-0.1-0.2-0.2-0.3-0.3L260.8,359.3z"/>
<path d="M260.9,359.8c0.1,0.1,0.1,0.2,0.1,0.3c-0.1,0-0.3,0-0.3-0.1C260.8,359.9,260.9,359.8,260.9,359.8z"/>
<path d="M263.1,428.1c-0.1,0-0.1,0-0.2,0C263,428.1,263,428.1,263.1,428.1z"/>
<path d="M280.9,178.2c0,0.2,0,0.4-0.1,0.5C280.7,178.6,280.7,178.5,280.9,178.2z"/>
<path d="M298.1,189.7L298.1,189.7C298.2,189.7,298.3,189.7,298.1,189.7z"/>
<path d="M360.2,309.5L360.2,309.5C360.2,309.5,360.2,309.5,360.2,309.5z"/>
<path d="M360.2,293.8l-0.2-0.2C360.1,293.6,360.2,293.7,360.2,293.8z"/>
<path d="M373.9,213.5c0-2-1.5-4.2-2.3-5l-0.1,0.1c-1.1-0.5-2.2-1.6-3.7-1.8c0.1-3.5-2.7-5.2-5.1-7.3c-0.4-0.4-1.2,0.1-1.5-0.5
	c-2.7,0.1-3.2,2.5-5.8,2.2v0.5c-1.1,0.9-2.5,0.3-3.3,0c0-0.1,0.1-0.3,0.3-0.1l-0.3-0.4c-0.3,0.1-0.5,0.1-0.6,0.4
	c-1.1-0.4-3.3,0.1-4.3-0.5l-0.1,0.1c-0.2,0.1-0.4-0.1-0.5-0.3c-1.7-0.7-3.6,0.9-4.7-0.6v0.1c-1.6-1.1-3.3,1.2-5.2-0.2
	c-0.9,0.1-1.6,0.6-2.6,0.2c-0.9,1.4-2.5-0.7-3.5,0.3c-0.6-1.1-1.1,0.7-1.5-0.5c-0.4,0-0.6,0-0.7,0.2l-0.7-0.5c-1.1,1-1.9-0.9-2.8,0
	c-0.6-1.1-2-0.3-2.7-0.5c-1-0.6-1.2,0.4-1.9-0.5c-1.5,0.2-3.5,1-4.8,0.5c-1,0.1-2,0.5-3.1-0.1c-1.7,0.3-4.6,0.4-6.6,0.6l0.1,0.1
	c-1.1-0.1-2.5,0.1-3.7,0c-0.1,0.7-0.9-0.4-1.1,0.4c-0.1-0.1-0.2-0.4-0.5-0.2c0,0.1,0.1,0.4-0.1,0.5l-0.9-0.7l-0.5,0.4l-0.6-0.7
	c0.4-0.6,0-1.2,0.7-1.5v-0.7l-0.3,0.4c-0.1,0-0.4,0-0.5-0.3l0.2-0.1c-1-0.7-0.6-2.2-0.5-3.6h0.1c-0.3-0.6-0.1-1.6-0.1-2.2
	c-0.8-0.4,0.9-1.4-0.1-1.6c0-0.1,0-0.4,0.1-0.4c0,0,0.1,0.1,0.1,0.1c0-0.9-0.5-2-0.1-2.9c-1.2-0.3,0.6-1.4,0-1.6
	c-0.4-0.9-0.5-2.2-1.7-2.1c-0.6,0-1.6-0.7-2-0.5c-0.2-1.5-1.7-0.9-2.5-1.6c-0.5-0.2-0.6,0.5-1-0.1l0.4-0.4l-0.1-0.1
	c-0.3,0.1-0.3,0.4-0.5,0.4c0.1,0.4-0.1,0.6-0.5,0.7l-0.3-0.6c-0.6,0.6-2-0.9-2.1-0.4l-0.2-0.9c-1.6,0.6-3.7,0.1-5.2-0.1
	c0-0.1,0-0.3,0.1-0.3h-0.9c-0.2-0.2-0.5-0.3-0.7-0.5c-0.3,0.5-1.7-0.6-1.7-0.5c-0.5-1.1-1.5,0-1.7-1.1c-0.7-0.5-1.7,0.1-2.3,0.1
	c-1.2,2.4,0.5,4.8,0.1,6.6c0.4,0.5,0,2,0.4,2.4c-0.7,1.6,0.1,3.8-0.7,4.3c0.4,0.5-0.3,1.2-0.1,2.1c-1.2,1.7-0.6,3.8-1.2,5.7
	l-0.1-0.1c0.3,1.5,0.1,2.6-0.5,4.1l-0.3-0.5v0.9c-1.5,2.6-2-1.9-3.7-0.3c-1.6,0.6-3.8,1.7-5.3,2.1c-0.1-0.5,0.1-0.7,0.3-1.1
	c-0.3-0.5-1.1-0.4-1.4-0.1c-0.7,0.2,0.1,0.6,0,1c0.3-0.1,0.7-0.1,0.9,0.2c-1.4,2.1-3.4-2.1-4.2,1l1,1.2c0.7,0,1.5,1,2.2,0.3
	c1.1,1.1,3.2,0.7,4.6,1.5c0.4,0.4,0.6,0.5,0.9,0.1c0.8,0.4,2.2-0.3,2.2,0.6c0.7-0.7,1.1,0.7,1.7,0.1c0.3,0.9,1.2,0.3,1.2,1.1
	l0.5-0.4l0.5,1.1c0.5,0.3,0.6-0.5,1-0.5l0.9,1l0.1-0.1l1,0.7c0,1.1,0.6,1.4,0,2.3l0.3,0.3c0.7,1.5-1.5,1.4-0.3,2.5
	c-1,1,0.8,0.9-0.6,1.6c1.7,0.6-0.4,1.7,0.6,2.6c-0.6,0.7-0.2,1.1-1,1.6l0.8,1.1c-0.6,0.6-0.9-0.6-1.1-0.4c-0.1,0.5,0.9,0.4,1.1,1
	l-0.3,0.4c-0.1-0.1-0.3-0.4-0.5-0.4c0.9,0.4,0.4,2.7,0.5,2.7c-0.4,1,0.4,3.1-1.2,4l1,0.8c-0.5,0.5-0.5,1.2-0.4,1.6
	c-0.6,0.5-0.6,2.1-0.6,2.7c0.4,0.5,0,1.2-0.3,1.5l-0.1-0.1c-0.1,0.5-0.4,1.5-0.5,2.1c-2,1.8,0.3,5.1-1.6,7c0,0.9-1,0.6-0.9,1.5
	c0.1,0.9,0.3,1.5,0.4,2.2c-0.1,0-0.1,0-0.3-0.1c0.5,1.2,0,3.1,0.3,4.2c-0.1,0-0.1-0.1-0.3-0.3c0.5,1.6,0.3,2.1,0.1,3.6
	c0,0.5-0.5,1.1-0.8,1.1c0,0.2,0.1,0.6-0.1,0.9c0.7,1-0.1,2.1,0.1,3.2c-0.6,1.1-0.6,1.9-0.6,3h-0.2c0.7,1-0.3,1.5-0.3,2.4
	c0.4,1.1-0.3,2.2,0,3.2c-0.3,0.9-0.5,0.6-0.7,1.5l-0.3,1.7l-0.1-0.1c0.6,0.7-0.5,1.6-0.1,2.5h-0.1c0.4,1.7,0,3.1-0.4,4.5l-0.1-0.1
	c0,0.4,0,0.7,0.4,0.9c-1,1.1,0.3,2.3-0.2,3.6c-0.1,0.9-0.3,2.6-0.4,3.6c-1.1,0.5,0.3,1.5-0.6,2.2c1.1,1.2-0.8,1.5,0,2.6
	c-0.9,0.6,0.4,1.6-0.5,2c0.4,1.1,0,1.4,0,2.5c-0.9,0.7,0.1,1.9-0.9,2.7c0.1,0,0.4,0,0.5,0.1c-0.5,1-0.1,1.9-1.1,2.1l0.7,0.7
	c-0.3,1.2-0.9,1.6-0.9,3.1c1.2,0.4-0.6,1.6-0.1,2l-0.1-0.1l0.1,1.2c-0.3,2.5-1.2,4.7-0.9,7.2c-1,1.4,0.1,3.6-1.1,5.1
	c0.2,0.3,0.5,0.9-0.1,1.1c0.6,0.5-0.5,1.2,0.1,1.7c-0.8,1.5-0.4,2.2-0.1,3.7c-0.4,0.9-0.6-0.6-0.6,0c-0.4,0.9,0.6,1.4-0.1,2.3
	l-0.4-0.1v0.3c0.1,0,0.2,0,0.3-0.1c-0.8,1.1,0.5,3,0,3.9c-0.3,0.9,0.3,2.1,0.1,3c0,2.5-0.5,4.6-0.4,6.7c0.1,1.1,0,3.1-0.1,3.5
	l0.3,0.3c-0.9,0.5,0.1,0.7,0,1.5c-0.8,2.2-0.5,4.2-0.8,6.3c-0.2,0.4-1.1,0.9-0.1,1.2c-0.1,0.5,0.3,1.1-0.4,1.4h0
	c0.1,0.6-0.5,1.4-0.2,2.1c0.1,0.5-0.1,0.7,0,1.2c-0.7,0.9-0.4,2.1-0.9,3.1l0.1,0.3h-0.3c1.1,1.1-0.3,2,0,2.8l-0.3-0.1
	c-0.4,0.8,0.4,1.5-0.1,2.2l-0.6-0.1c0.3,0.3,0.3,2.2,0,2.7c-0.1,0.9-0.3,1.6-0.4,2.5c0.5,1-0.4,2.6,0.1,4c-1,1.5,0.9,3.2,0,4.7
	c-1,1.1,1.5,3,0.3,4.1c0.7,2.1-0.6,2.2-1,4c1.2,0.9-1.2,0.7,0,1.4c-0.9,0.6-0.5,1.7-1,2.4c0.4,1.4-0.7,1.9-1,2.6v0.4
	c-0.6,1.4-0.7,2.5-1.6,3.7c-0.4-0.3-0.9-1.1-0.9-1c-1.2,0.5-1.2-2-1.6-2c-0.5-2.2-2.6,0-3-0.6l-0.5,0.5c-0.4,0-0.7,0.4-1.5,0.5
	c-1.7,0.7-0.6,3.3-2.6,2.7c0.6,1.6-1.1,1.9-1.4,3.6l-0.5-0.1c0.1,1.2-1.1,2.7-2.1,3.6c0.3,0.4-0.9,1-0.1,1.4c-1.1,1.1-3.3,3-2.8,5.4
	h-0.1l0.7,2.2c0.3-0.5,0.5,0.1,0.7,0.1c0.4,0.1-0.1,0.2,0,0.5c0.4,0.4,0.5,0.9,0.9,0.6c0.4,1.6,3.1,0.4,2.5,2.2c0.1,0,0.4,0,0.4-0.3
	c0.5,0.1,0.9,0.7,0.5,1.1c0.4,0.4,0.4-0.3,1,0c2.1,2.2,4.2,4,7.9,3.6c-0.9,0.4-3-0.5-2.8,0.7c0.6,0,1,0.3,1.5,0.5
	c0.1-0.2,0.4-1,0.9-0.7c0.7,0,0.5,0.9,0.7,1.2c2.1,0.7,2.5-2.1,4.3-0.5c0.3-0.2,0.6-0.5,0.8-0.9l0.3,0.4v-0.5c0.1-0.2,0.4-0.2,0.5,0
	c-0.1,0.1-0.1,0.1-0.1,0.3c0.5,0,1.1,0.7,0.7,1.2c1,2.2,1.9-0.4,3-0.1l-0.1-0.1c0.6-0.2,0.8-1.2,1.4-1.4c-0.1,0-0.2,0-0.3-0.1
	c0.3-0.6,0.5,0.1,0.7-0.4c0.1-0.2-0.1-0.4-0.1-0.6c0.4-0.9,1.2-0.1,1.6-0.1c2.9,0,2.9-2.1,4.3-4l2,0.4c1.1-1,0.5-3.1,1.9-3.3
	c-0.5-1.7,1.5-1.7,1.1-3.3c0.8,0.6,1.4-0.9,1.7-0.4c0.6-0.9,0.7-0.8,1-1.9c1.5-0.1,0.5-2.3,2.2-1.7c0.9,1.5,0.9-0.6,1.9,0.5
	c0.7,0.4,1.2-0.3,1.7-0.4c-0.6-1.1,0.6-2.2,0.6-3.6l0.1,0.3c2,0.9,1.6-1.5,2.2-2c1-0.9,2.6-2.6,3-3c0-1.4,1.1-2.6,1.8-3.5
	c-0.4,0.6,0.6,0.7,0.5,1.1c0.1,0.6,0.9,1.2,0.6,1.9c0.6,0.3,1.4,1,2,0.4c0.9,0.6-0.5,0.6,0,1.4l0.4-0.4c-0.3,1.6,1.1,3.8-0.4,4.8
	c0.3,0.6,1.8,0.9,1,2c2,1.4,1.5-1.5,2.7-1.6l0.1,0.1l-0.2,0.4l0.4-0.1c0,0.8,0.7,0.8,0.1,1.5c-1.4,0.7,0.6,1.9,1.1,2.3
	c1-0.9,1.6-2,1.9-3.5c0.8,0.8,2.5,0.8,3.6,1.4l-0.2,0.7c0.2,1.2,1.6,0.7,2.5,0.5c0.9-1.5,2,0.3,3-0.4c-0.3-0.3,0.4-0.7,0.8-0.6
	c0.5,0.4,0.5,0.9,0.6,1.2c1.2,0,2.9,0.7,3.2-0.6c1.7,0.9,2.5-2,4.2-1.1l-0.3-0.6c0.6,0.3,2.2-0.5,3,0c0.1,0.1,0.4,0.3,0.4,0.6
	l0.9-0.6c2-0.4,3.2-1.6,4.3-2.6c0.6-0.1,1.5-0.6,2-1c0,0.1,0.1,0.1,0.1,0.3c0.9-0.1,0.5-1.7,1.4-1.2c1.2-1.7,2-1,3.1-2.5
	c0.1,0,0.4,0,0.5,0.3c-0.6-1.5,1.5-0.5,1.7-1.4c2,1,2.6-1.6,3.8-2c0.9-1.2,3-2.8,4.6-3.3v0.1l0.5-1.2l0.1,0.1v-0.5
	c0.6,0,0-1,0.6-1.1c0.1-0.3,0.6-0.4,0.7-0.1l-0.1-0.7c1.1-1.7,0.6-2.6,2.2-3.8c0-2.7,0.1-3.6,0.2-6.4c1-0.5,0.5-1.9,1.1-2.2
	c0.5-1.9,0.1-3.3,0.3-5.2h0.1c0.6-0.6-0.6-2.2,0.7-1.7c-1.4-0.5,0.1-1.4-0.4-1.9c-0.3-0.5-0.4-1.6,0.1-2c-0.7-0.5,0.1-1-0.4-1.2
	c0.6-0.7,0.1-2.3,0.5-3.1c-0.4-0.6,0.6-1,0-1.4c0.5-2.1,0-5.7,0.1-8h0.1c-0.4-1.9,0.5-4.7,1.7-6.1c0.5-1.7,1-1.9,0.7-3.7
	c-0.1-0.6,1.5-0.9,1-1.6c1.1-1.2,1.5-4.3,3.1-5.3c0-1,0-2.5,0.5-3.2c-0.6-2.3,1.2-3.6,0.3-5.4c1.5-1.7,1.5-4.6,1.9-6.7
	c0,0.1,0.1,0.1,0.2,0.1c-0.1-1.1-0.5-2.2-0.1-3.3l0.6,0.5c0,0,0.1-0.1,0.1-0.2h-0.1c0.3-0.6-0.3-0.4-0.5-1l0.5-0.4
	c0.1-0.5-0.3-0.6-0.5-0.6c0.1-0.7,0.4-2,0.3-2.7h0.3c-0.9-1,0.4-2.5-0.5-3.6c0.8-1-0.7-2.4,0.6-2.4h-0.1c-0.3-0.5-0.5-1.5,0.3-1.9
	c-0.1,0-0.4,0-0.5-0.1c0.5-0.2,0.4-0.5,0.3-0.6h-0.1c0.9-1.7-1.7-3.7-0.3-5.2l0.3,0.1c-0.9-0.5,0.4-1.7-0.4-2.5l0.5-0.6
	c-0.1-0.3-0.5-0.7-0.1-1h0.1c-0.9-0.5,0.4-1.6-0.5-2.2c0.3-0.1,0.3-0.6,0.6-0.5c-1-1.4,0-2.8-0.5-4c0,0,0.1,0,0.1,0l-0.1-0.1
	c0.3-0.4,0.3-0.6,0.5-0.7h-0.3c0.1-0.5,0.3-1.4-0.3-1.7c0.5-0.8,0.3-1.7,0.7-2.2c-0.9-0.3-0.6-1.6-0.7-2.4c0.4-1.6,0.5-2.7,1.1-3.8
	c0.4-0.9,0.7-3.2,0.6-4.3c-0.1-0.8,0.3,0,0.5-0.4c0-0.4,0.1-0.7-0.3-0.7c0.6-1.5,0.8-2.2,0.9-3.6c0.7-0.4,0.4-1.6,0.9-2
	c-0.3-1.6,0.7-2.8,0.4-4.5c1.4-2.8,0.2-5.6,1.1-8.4c-0.3-1.1-0.3-2.7,0.6-3.7c-0.6-0.5-0.1-1.2,0.1-1.8h-0.2c-0.5-1.2,0-1.4-0.3-2.6
	c0.5-1.2-0.5-2.1,0.3-4.1c0.2-1.2-0.6-3,0.5-4c-1-0.5-0.1-1.5-0.6-2.5c0.1-0.5,0-0.8,0.6-0.8c-1-0.7,0.4-1.4-0.4-2.1
	c0.5-1.6,2.3-1.7,3.5-2.4l-0.1-0.3l1.7-0.9c2.8-1.2,0.6-4.8,2-6.3c0-0.4-0.1-1.1,0.1-1.5c-0.1,0-0.4,0-0.5-0.2l0.4-0.3
	c-1.7-0.9,0.1-2.4-0.5-3.7H372c0.1-0.4,0-1.2,0.5-1.2h-0.3c0.5-1.1,0.9-2.2,0.9-3.5l-0.4-0.4c0.5-0.4,0.4-1.2,0.5-1.4
	c-0.9-0.6,0.6-1.2,0.5-2L373.9,213.5z M340.8,229.7c-1.1,1.1-0.4,1.1-0.3,2.5c-0.1,1.2-0.6,3.6-1.5,5c0.9,1.4-0.5,3.2-0.1,4.7
	c-1.2,0.3,0.1,1.6-0.7,2.1c0.1,1,0.1,1.9-0.9,2.6c0.2,0.4,0.6,0.1,0.7-0.1l-0.1,1.1h-0.1c0.3,0.5-1,1.2,0,2l-0.6-0.2
	c-0.4,0.6,0.7,0.6,0.1,1.4c-0.1-0.3-0.3-0.1-0.5-0.1c0,0.8,0.9,1.5-0.1,2.4l-0.1,1h-0.3c0.5,0.7-0.5,1.5-0.4,2.2l-0.4,0.4
	c0.9,0.9-0.6,1.7-0.5,2.6c-0.1,0.8,0,1.1,0,2.1c-1.1,0.3-0.2,1.4-0.7,2.2c-0.1,2.3-1.5,4.1-1.2,6.6c-0.1,2.8-0.9,6.7-0.1,9.5
	c0.7,0,0.9-0.1,1.4-0.5c0.5-0.9,0-1.7,0.6-2.7c0.1,1,1.5,2.2,0.4,3c-0.2,0.4,0.2,0.6,0.4,0.6c-0.1,0-0.3,0-0.4,0.1
	c0,0.4,0.1,0.6,0.4,0.8v2c-0.2,0-0.4,0.3-0.6,0.5c0.1,0.3,0.4,0,0.6,0.1c0.1,0.6-1.1,1-0.5,1.8c-0.1,0.1-0.3,0-0.3-0.1l-0.1,0.1
	c0.2,0.6,2,1.9,0.7,2.2v1.1h0.1v1h-0.4v0.9c-0.1,0.1-0.4-0.1-0.5,0.3l0.5,0.9c-0.1,0-0.1-0.1-0.3-0.1c-0.4,0.4,0.1,0.9,0,1.1h0.3
	l-0.3,0.4c0.6,0.3,0.3,1.1,0.3,1.7h-0.1c0.7,1.2-1.4,3.2-0.3,4.6c-0.5,1.7-0.4,3.7-1.2,5.3l0.4,0.4c-0.9,0.9-0.9,2-0.6,3
	c-0.4,0.2-0.7,0.5-0.6,1.1l-0.6-0.1c-0.1,0.6,0.6,1,0,1.5l-0.1,0.8c-0.1-0.5-0.6-0.3-0.5-0.9l0.5-0.6c-0.9-1-0.4-2.1-2-1.7
	c-0.5,1.5-0.9,3.3-0.3,4.8l1.5-0.1c-0.3,1-0.3,2,0.1,2.7c-0.2-0.2-1.2,0.3-0.9,0.8l-0.1,0.1c-0.4-0.4-0.1-0.9,0.1-1.2
	c-0.4-0.2-0.6-1.2-1.5-0.9c-1.2,3.1-1.4,5.6-2.5,8.3c-0.1,0-0.3-0.1-0.4-0.1c-0.3,1.8-1.4,3.1-1.4,5.1c-0.5,0.3-0.1,0.9-0.2,1.4
	c-0.8-0.2-0.3,0.6-0.6,0.9c0.1,0.7,0.4,1.4,1.1,2h0.3l-0.1,0.5c-0.2-0.5-1.1-0.8-1.6-0.4c-0.6,1-0.6,2.5-1.7,3.2
	c0.4,0.9,0.3,1.2-0.4,1.9c0.9,0.4-0.4,0.6-0.4,1.2c0.4,0.7,1,0.4,1.5,0.5c1.1-0.6,0.6-3.7,2.2-3.2c-0.6,2.2,1.9,4.2,0.4,6.4
	c-0.5,1,0.8,0.5,0.9,1.1l0.1-0.4c0.9,1.1,0.2,2.6,0.1,4.1c-0.3-0.3-0.3,0.3-0.7,0.3c0.2,0.2,0.5,0.1,0.7,0.1l-0.1,1.5
	c-0.3,0-0.3,0.2-0.4,0.4l0.1-0.4c-0.9,0.2-0.4,0.7-1.5,0.6l0.3-0.1c-0.4,0-0.3-0.5-0.3-0.7c0.5,0,0.3-0.6,0.7-0.6
	c0-0.4-0.5-0.3-0.7-0.3l0.7-0.6c-1.2-0.7,0-2.1-1.6-2.8l-1.1,0.5c0.1,0.3,0.3,0.4,0.1,0.7c-2.5,0.1,0,2.1-1.2,3.2
	c0.2,0.7-0.6,1.6,0.1,2.6c-0.4,0.9,0.3,2.6-0.6,3.5c0,0.4,0.6,0.7,0,1c0.1,0.9,0.6,1.8,0.3,2.7c0.5,0.1,0.7,0.5,0.6,1l-0.9,0.9
	c0.9,0.7,0.3,1.4,0,2.2l-0.1-0.1c-0.4,1-1,2-1.9,2.6c0.3,0.3,0.5,0.4,0.4,0.6h-0.6c0,1.1-1.1,2.5-1.6,3.7c-1.4,2.4-3.3,2.5-4.2,4.6
	c-0.8-0.2-0.6,1.4-1.5,1.2c-0.5,1.9-2.7,2.6-3.6,4.3c-0.9,0.7-2.2,1.7-2.7,3.1c-1,0.1-1-1.2-1.9-1.4c-1.1,0.1-2.1,0.1-3,0.9
	c-1.1,1.5-1.9,3-2.4,4.6l-0.8,1c0,0.4,0-0.3-0.1-0.3c0.3,1-0.6,2.1-1.2,2.7l-0.2-0.3c-0.8,1.2-2.1,3.3-3.1,4.1h-0.4
	c0.3-0.4,0.9-1,0.1-1.5l0.5-0.2c-1.2-0.9,0.6-2.6-0.5-3.1c0.6-1,0.1-3,0.5-4.1c0.1-0.8,0.3-1.1,0.5-2.2l-0.4-0.7
	c1.1,0,0.5-1,0.6-1.5c0.1-0.9-0.9-0.3-0.1-1l0.3-0.4c-1-0.4,0.1-1.2,0-1.7c0.1-1,0-1.6,0.1-2.8h0.3c-0.3-0.6,0.5-1.5-0.3-2.6
	l0.6-0.4c-0.1-0.3-0.4-0.1-0.6-0.1c0-0.2,0.4-0.5,0.5-0.6c-0.7,0-0.4-1.4,0.3-1.6c0-0.2-0.3-0.1-0.4-0.1c0.7-0.9-0.3-1.7,0.7-3
	l-0.5-0.1l0.6-0.5c-0.9-0.3-0.5-1-0.6-1.5l0.5-0.5c-0.2-1-0.4-2.1-0.1-3.2c1.5-0.7-0.7-1.2,0.4-2.2c-0.4-3.6,0.9-6.2-0.3-9.5
	c0.8-0.7-0.1-1.5,0.1-2.3c0.2,0.1,0.2-0.3,0.5-0.3c-0.6-2.5-0.1-4.2-0.3-6.3c0.1-1,0-2.5,0.3-4c0.4-0.1,0.9,0.1,1-0.4
	c-1-0.4,0-1.9,0-3.1c0.6-0.3,0.3-0.9,0.5-1.4c-0.9-0.4,0.4-1,0-1.6c0.6-0.4,0-1.4,0-1.7h0.2c0.1-0.9,0.1-1.6,0.5-2.7l0.1,0.1
	l0.3-0.3c-0.6-0.6-0.1-1.7-0.1-2.2h0.1c0.1-1-0.3-2.3,0.9-2.8c-0.5-1.2,0.4-2.1,0.3-3.2c0.6,0.5,0.1-0.6,0.4-0.8
	c-0.6-0.9-0.5-1.4,0-2.2c0.5-0.9-0.4-2.4,0.7-3c-0.5-1-1-2.4-0.1-3.5c-0.4-0.1-0.3-0.5-0.3-0.9c0.6,0.1-0.1-0.9,0.5-0.2
	c0-1.2-0.7-2.6,0.3-3.7c-0.9-1,0.4-1.7,0-2.6c-0.3-0.7-1-2.7,0.1-3.3c-0.7-1.5,0.6-2.7,0-4c0.8-1-0.2-1.5,0.3-2.5
	c0-1.5,0.1-2.5-0.1-3.8c0.3-0.1,0.5,0.1,0.6-0.1c0-0.7-0.6,0.1-0.8-0.4c0-0.4,0.1-0.6,0.4-0.9c-0.1-0.4-0.6-0.2-0.3-0.6
	c0.1,0.1,0.1,0.3,0.3,0.1c0.9-0.4-0.3-0.6-0.1-1.1c0-0.5-0.3-0.4-0.1-1.1c0.1,0.3,0.4,0.3,0.5,0c0-1-0.1-2.2,0.1-3.5
	c-0.8,0.1,1.2-0.2,0.6-1c-0.8-0.4,0.1-1.2-0.3-1.5c0.7-0.3,0-0.5,0-0.9l0.5-3.7h0.1c1-2.7,0-5.6,0.9-8.4c-0.7-0.3-0.4-1.2-0.2-1.5
	c0.2,0,0.2-0.3,0.5-0.4c-0.3-0.2-1-0.6-0.5-1c0.5-0.2,0.1-0.5,0-0.7c-0.5-0.3-0.1-0.5-0.1-0.9l-0.4-3h0.3c-0.6-0.9,0.3-0.9-0.7-1.8
	l0.5-0.5c-0.3-0.4-0.5-1-0.7-1.2c0.9,0.1-0.6-1,0.4-1.2c-0.3-0.3-0.5-0.3-0.7-0.3c1.1-0.9-0.3-2.5-0.1-3.2c0.8-1-1.5-2-0.5-2.8
	c-0.6-1.1,0-1.4-0.6-2.6c1.2-0.4-1-0.9,0.1-1.7c-0.6-0.6-0.4-1.6-0.4-2.3c1-0.5-0.6-0.9-0.4-1.5c0-0.3,0.3,0.4,0.5,0.1
	c-0.3-1-0.4-2.6,0.2-3.2l0.3-0.3c-0.4,0-1-0.5-0.6-0.4h0.1c0.4-0.3-0.1-0.5-0.1-0.7h-0.4c0.3-1.2-0.4-3.7,0.5-4.6l-0.3-0.4l-0.3,0.1
	c0.1-0.1-0.7-0.9-0.3-1.1h0.1l-0.3-1.1c0.1,0.1,0.3,0,0.3-0.1c-1.3-0.5,0.6-1.4,0-2l0.1-0.1l-0.4-0.5c0.7,0,1.6,1,2.2,0.2
	c0.4,0.5,1.4,0.3,1.7,0.9c0.1-0.3,0.6-0.4,0.6-0.1l0.5,0.5c0.1-0.9,0.8,0.3,1.1-0.4c1.1,0.4,2,0.6,3.1,0.6c0.3-0.3,0.6-0.5,0.6-0.7
	h0.4c0,0.1-0.1,0.2-0.2,0.2c0.9,0.1,2.3,0,3,0.5c1.2-0.5,3.3-0.3,4.4,0.1l0.3-0.2c0.3,0.2,1.4,0,1.7,0.1l0.9-0.3
	c1,0.4,2.1,0.4,3.1,0.5l-0.1,0.3c0.9,0.9,3,0,3.5,1.2v-0.4c0.7,0.5,1.4,0.3,2.2,0.1l-0.1,0.1c0.5,0.9,0.5-0.4,1.1-0.1
	c2.1,0.4,3,2.3,5.2,1.2c1-0.4,0.7-1,1.8-0.5c-0.3,0.2-0.1,0.4,0,0.5c-0.2-0.1-0.2,0-0.3,0.1c1.2,0.5,2.6-0.1,3.8,0.7h0.7
	c0,0.3,0.3,0.3,0.4,0.4l-0.5,0.4C341.2,228.3,340.8,228.8,340.8,229.7z"/>
<path d="M489.5,182.2c0.1,0.2-0.2,0.7-0.6,0.9c-0.1-0.2-0.4-0.1-0.6-0.1C488.2,182.2,488.9,182,489.5,182.2z"/>
<path d="M490.5,185.3c0.2,0.4-0.2,0.7-0.6,0.9c-0.6,0.2-0.9-0.2-1.1-0.7C488.6,184.3,490.2,184.4,490.5,185.3z"/>
<path d="M489.6,189.6l-0.2,0.2c0.7,0.5,1.5,1.2,1.1,2.2c-0.6,0.5-1.5,0.7-2.4,1c-0.7-1.2-1.2-3.1-0.1-4.2
	C489.1,189.2,489.4,188.5,489.6,189.6z"/>
<path d="M492.3,196.7l0.2,1.2c-0.9,0.9-1.7-0.7-2.5-0.9c0.5-0.5-0.5-1.2,0.4-1.7C491.5,195.3,491.7,196,492.3,196.7z"/>
<path d="M488.1,198.1c1,1.5,2.4,2.2,1.7,4.2c-1.2,0-1.7-1.2-3.1-1.5c-0.5-0.5,0-1.6-1-1.9l1.4-1
	C487.1,198.5,487.9,198.4,488.1,198.1z"/>
<path d="M487.6,206.1v0.2c-0.1,0-0.2,0.2-0.4,0.4c-0.2-0.2-0.7-0.6-0.4-1C487.2,205.7,487.5,205.8,487.6,206.1z"/>
<path d="M494.1,209.3c-0.9,0.5,0.4,1.1-0.1,1.9c-0.7,0-1.7,0-1.6-1c-0.1-0.5-0.1-1.1,0.5-1.2C493.3,208.8,493.6,209.5,494.1,209.3z"
	/>
<path class="st0" d="M467.2,212.6c-0.1-0.1-0.2,0-0.4,0.1c0.4,0.5,0.9,0.1,1.1,0.7c0,0.1-1.2-1.2-1.1,0.1c-0.2,0.9,1,0.5,0.6,1.4
	l-0.2-0.4c-0.2,0.1-0.1,0.5-0.1,0.6l0.4,0.4l-1,0.1c0.1,0,0.4,0,0.4-0.1c0.6-0.6-1.5-1.7-0.1-2.2l-0.1-0.5h0.1l-0.2-0.7
	C466.8,212,467.1,212.3,467.2,212.6z"/>
<path class="st0" d="M299.3,222c0.2,0.1,0.3,0.1,0.3,0.2l0,0.1C299.5,222.2,299.4,222,299.3,222z"/>
<path class="st0" d="M317,223l0.1,0.1l-0.1,0.1C317,223.2,317,223.1,317,223z"/>
<path class="st0" d="M335.7,279.8c0.1,0,0.1,0,0.1,0C335.9,279.9,335.8,279.9,335.7,279.8z"/>
<path class="st0" d="M336.3,226C336.4,226,336.4,226,336.3,226C336.4,226,336.3,226,336.3,226C336.3,226,336.3,226,336.3,226z"/>
<path class="st0" d="M338.1,246.5l0-0.2C338.2,246.3,338.2,246.3,338.1,246.5z"/>
<path d="M498.4,237.6c-0.7,1-1.1,0.2-1.9,0c-0.2-0.5,0.6-1.5-0.4-1.6C497.2,235.3,498.3,236.4,498.4,237.6z"/>
<path class="st0" d="M491.7,246l-0.4,0.2h0.6v1l-0.7-0.1c0.9,0.1-0.1-0.4,0.6-0.4h-1.4c0.4-0.6-0.4-1.1,0.4-1.5
	c-0.5-0.2-1.1,0.2-1.1,0.7c0-1.1,0.6-1.4,1.2-1.9C491.3,244.8,492.3,245.3,491.7,246z"/>
<path class="st0" d="M492,248.8c-0.1-0.1,0.1-0.7-0.4-0.5c0.6-0.1-0.2-0.6,0.5-0.6L492,248.8z"/>
<path d="M500,258.2c0,0.4,0,0.9-0.5,0.9s-0.7-0.9-0.2-1.1C499.5,257.8,499.9,257.9,500,258.2z"/>
<path d="M334.9,258.8l0.1,0.9L334.9,258.8z"/>
<path class="st0" d="M491,279.6c-0.1-0.2-0.4-0.1-0.6-0.1v-1C491.1,278.7,490.6,279.1,491,279.6z"/>
<polygon class="st0" points="490.6,305.8 490.3,305.5 490.8,305.5 "/>
<path class="st0" d="M490.1,307.3c0.4-0.4,0.4,0.1,0.4,0.4c-0.2-0.2-0.6-0.2-0.7-0.6l0.4-0.9C489.5,306.3,490.6,307,490.1,307.3z"/>
<path class="st0" d="M490.2,309.6l-0.4-0.1c1-0.2-0.5-1.1,0-1.6C489.7,308.6,491.2,308.9,490.2,309.6z"/>
<polygon class="st0" points="331.2,311.5 331.4,311.4 331.6,312.5 "/>
<path class="st0" d="M329.8,327.4c-0.5-0.5-0.2,0.4-0.7,0.4c0.2,0.2,0.9-0.1,0.7,0.5l-1.6,0.2c1.4-0.9-1.1-2.1,1-2.2L329.8,327.4z"
	/>
<path class="st0" d="M325.7,333.4c-0.5,0.1,0-0.9-0.5-1.1C325.8,332.2,325.8,332.9,325.7,333.4z"/>
<path d="M323,340.5c-0.5,0.7,0.1,0.6,0.1,1.5H323c-0.5,0.2,0.1,1,0.2,0.9c-0.7,0.2-0.4,1.6-1.5,1.4c-0.7-1.6-1.2-3.2-0.1-4.3v-0.5
	C322.2,339.5,323,339.6,323,340.5z"/>
<polygon class="st0" points="325.2,350.8 324.7,350.3 325,350.3 "/>
<path class="st0" d="M326.1,353.9c-0.1,0.5-0.7,0.6-1.1,0.7c-0.1,0.1,0.6,1.2-0.1,1.6l0.4,0.2l-0.2-0.1c0,0.1-0.1,0.1-0.1,0.4
	c0.1,0.1,0.4,0.1,0.5,0.1c-0.6,0.5,0.6,1.4-0.5,1.6v-0.2h-0.6V357h0.2c-0.4-0.2,0.1-1.2-0.5-0.9c0.5-0.4-0.1-0.9,0.6-0.7
	c-0.4-0.9-0.6-2.7,0.1-3.5l-0.1-0.2C325.6,351.8,326,352.9,326.1,353.9z"/>
<polygon class="st0" points="118,367.6 118.1,367.1 118.2,367.6 "/>
<path class="st0" d="M234.1,381.2c-0.6-0.2,0-0.6,0-1V381.2z"/>
<path class="st0" d="M290.8,400.3c-0.7-0.1,0.2,0.6-0.5,0.5c0.4-0.2-0.1-0.7,0-1C290.7,399.9,290.7,399.9,290.8,400.3z"/>
<path class="st0" d="M227.4,408.3c-0.2-0.4-1,0.1-1.1-0.4c0.2-0.4,0-0.7,0.1-1.1c-0.1-0.1-0.4-0.1-0.5-0.1
	C226.9,405.6,228.5,407.5,227.4,408.3z"/>
<path class="st0" d="M219.2,410.3c0,0.1-0.5,0.2-0.6,0.9c0.6,0.4,0.7-0.5,1.1-0.7l0.1,0.1l0.2-0.2c0.7,0.4-0.4,1-0.1,1.5l-0.6,0.7
	l0.2,0.1c0.1,0.1-0.4-0.2-0.5,0l-0.5,0.5l0.5,0.1l-0.2,0.2c0-0.4,0-1.6-0.6-1.4c0.2,0,0.5-0.1,0.6-0.5c-0.9-0.4-0.6-1.5-1.4-1.9
	l1-0.1v-0.1L219.2,410.3z"/>
<path class="st0" d="M215.3,413.2c-0.1,0.2-0.5,0.4-0.6,0.7c-0.2,0-0.6-0.1-0.7-0.4l-1.4,1.1l-0.7-1.7l-0.2,0.4v-0.6
	c0.1,0,0.2,0.1,0.2,0.1c0.7-0.1-0.1-1.5,0.7-0.6c0.2-0.5,0.7-0.1,1.1-0.2C214.3,412,214.7,412.9,215.3,413.2z"/>
<path d="M236.3,416.5c0.1-0.1,0.5-0.4,0.1-0.6l0.4,0.2l-0.5,0.7c-0.4,0-0.5-0.6-0.5-1.1C235.8,416,236.1,416.3,236.3,416.5z"/>
<path class="st0" d="M213.2,417.1c-0.5,0.7,0.4-0.2-0.1-0.2v-0.7l0.6,0.7L213.2,417.1z"/>
<path class="st0" d="M214.4,418.1l-1-0.4c0.2,0,0.5-0.4,0.6-0.5l-0.1-0.6C215,416.9,214.3,417.4,214.4,418.1z"/>
<path class="st0" d="M221.1,418.4c-0.5,0-0.7-0.1-0.7-0.5l0.2-0.6c0.2,0.5,0.5,0.1,0.7,0v-0.4C222.5,417.5,220.5,417.4,221.1,418.4z
	"/>
</svg>
